<svg height="24" viewBox="0 0 24 24" width="24" xmlns="http://www.w3.org/2000/svg"><path d="m12 2c.7554479 0 1.3532597.42337396 1.8512199.88863016l.2620593.25563676.244338.2501862c.25125.30527344.5515234.56699219.8877734.77468751.4103907.10300781.835.13566406 1.2562891.09632812l.3601658.00002907c.7892076.0040619 1.62223.0597001 2.2319436.66579124.5628125.55946875.661975 1.3145625.6705475 2.04662125l-.0047272.54130844c-.039375.42128906-.0067188.84589844.0963281 1.25628906.2076953.33625.4694141.63652344.7746875.88777344l.241433.23704361.2492019.25669694c.4553661.4897185.8787401 1.0875303.8787401 1.8429782s-.423374 1.3532597-.8869818 1.8512199l-.2545643.2620593-.2487273.244338c-.3052735.25125-.5669922.5515234-.7746875.8877734-.1030078.4103907-.1356641.835-.0963282 1.2562891l-.000029.3589002c-.0040619.7872595-.0597001 1.6229383-.6657913 2.2290295-.6060911.6060911-1.4417699.6743163-2.2317503.670826l-.360359-.0050057c-.4212891-.0397656-.8458985-.0071094-1.2562891.0963281-.33625.2076953-.6360938.4694141-.8877734.7746875l-.2370437.2428919c-.5342404.5393388-1.206873 1.1306628-2.0996751 1.1306628s-1.5654347-.5818764-2.11327925-1.1404879l-.24433794-.2539652c-.25125-.3052735-.55152343-.5669922-.88777343-.7746875-.41039063-.1021875-.835-.1348438-1.25628907-.0963282l-.36016585-.000029c-.78920758-.0040619-1.62222998-.0597001-2.23194352-.6657913-.5628125-.5594687-.648575-1.3118875-.6517875-2.0450162l.00344653-.3639743c.00111215-.0600669.00234097-.1197543.00345815-.1789391.039375-.4212891.00671875-.8458985-.09632812-1.2562891-.20769531-.33625-.46941406-.6365234-.7746875-.8877735l-.24874097-.2370436-.25457431-.2566969c-.46362326-.4897185-.88699722-1.0875303-.88699722-1.8429782s.42337396-1.3532597.88698182-1.8512199l.25456428-.26205935.24872734-.24433794c.30527343-.25125.56699218-.55152344.77472656-.88777344.10300781-.41039062.13566406-.835.09632812-1.25628906l.00002908-.35890018c.0040619-.78725954.05970009-1.62293836.66579124-2.22902951.60609114-.60609114 1.44176996-.67431631 2.23175032-.67082603l.36035905.00500572c.42128907.039375.84589844.00710938 1.25628907-.09632812.33624999-.20769532.63609375-.46941407.88777343-.7746875l.23702998-.24289188c.53421501-.53933885 1.20684761-1.13066281 2.09964971-1.13066281zm0 1c-.3437051 0-.6832067.17576579-1.1197938.57397223l-.2666051.25665571-.1786955.17905265c-.2571391.31189543-.55367889.58817807-.88187918.82202485l-.25196562.16732175-.13137628.08114866-.14973481.03774012c-.52012699.13109617-1.05884043.17230935-1.51956476.12647623-1.11749321-.02109405-1.54996585.05694132-1.86612973.37310521-.25071026.25071026-.35144942.6107997-.36986565 1.31980721l-.00739217.46804963c.04154355.44493259.01977858.89295584-.0642228 1.33110332l-.05786061.26159966-.03772588.15030263-.0814473.13183497c-.26567456.4300351-.6002179.81351227-.92585193 1.07670757l-.34157501.3379849c-.52549256.5364931-.74831387.9168203-.74831387 1.3051127 0 .3883256.22524467.771155.7408855 1.2864674l.28490566.2781329c.31184322.2566572.58832727.5534321.82245202.8820619l.16754182.2523161.0813895.1317662.03771768.150213c.10890608.4337253.15574929.8799237.14186502 1.2826934l-.01731419.3239373-.00509045.4451855.00286195.1619244c.01733141.5930359.12102132.9332146.35399331 1.1648024.25429124.2527805.61416186.3535637 1.32444262.3719714l.47162629.0072124c.44387831-.0405808.89082108-.0187248 1.32795505.0645082l.26100034.0572966.15126638.0376654.1326248.0819199c.4300511.2656345.8135565.6001898 1.0862943.9357091l.2923726.3023385c.546542.5484292.9377161.781878 1.3412098.781878.3437051 0 .6832034-.1757626 1.1198173-.5739811l.2665383-.2565765.1787779-.179123c.2571391-.3118954.5536789-.5881781.8818791-.8220248l.2519657-.1673218.1313762-.0811486.1497349-.0377402c.5210311-.131324 1.0600833-.1726884 1.5195647-.1264762 1.1174932.0210941 1.5499659-.0569413 1.8661297-.3731052.2507103-.2507103.3514495-.6107997.3698657-1.3198072l.0073922-.4680497c-.0415436-.4449325-.0197786-.8929558.0642228-1.3311033l.0578606-.2615996.0377154-.1502609.0814136-.1318052c.2656345-.4300511.6001898-.8135565.925857-1.0767791l.341575-.3379849c.5254926-.5364931.7483139-.9168203.7483139-1.3051127 0-.3422936-.1741542-.6804407-.5689597-1.1159378l-.3608234-.3732915-.0750706-.075371c-.3118432-.2566572-.5883272-.55343206-.822452-.88206189l-.1675418-.25231607-.0813895-.13176619-.0377177-.15021304c-.1089061-.43372526-.1557493-.87992372-.141864-1.28274509l.0158965-.25125602.004927-.36162877-.0058938-.3341183c-.0247647-.57200517-.1354238-.91529536-.3703188-1.14879486-.2542913-.25278047-.6141619-.35356368-1.3244426-.37197142l-.4697039-.00739002c-.4449325.04154354-.8929558.01977858-1.3311033-.0642228l-.2615996-.05786062-.1502609-.03771539-.1318052-.08141359c-.4300511-.26563449-.8135565-.60018982-1.0791904-.92832825l-.3309445-.3364967c-.5379488-.53018781-.9198116-.75510068-1.3097418-.75510068zm2.5692933 5.67633136-.5633136.96568047h-1.0863905l.036213.06840237.0643787.14485207.0804734.20923073h1.3982248l-.5834319.935503h-.7644971c-.0200615.0936206-.049292.1930759-.0876914.298366-.0386168.1058863-.0865066.2176735-.1436695.3353618-.1810651.3420118-.4241617.6069034-.7292899.7946746-.2441026.1502169-.4892781.2639526-.7355267.3412071l-.1848875.0511006 2.464497 2.8970414h-1.3177515l-.0905325-.1106509-1.1325806-1.3148774-1.010023-1.1496196v-.0100592l-.37218932-.4325444v-.764497l.47592452-.0012574.2665681-.0100592.112537-.0088018c.4358974-.0201183.7812623-.1408284 1.0360946-.3621302.1341223-.1126627.2424931-.2532228.3251125-.4216804l.0571361-.131574h-2.61538466l.59349116-.935503h1.9414201l-.0301775-.0402366c-.1207101-.16094679-.2246549-.26489156-.3118343-.31183436-.0581197-.03129521-.1251809-.05215867-.2011835-.06259041l-.12071-.0078238h-1.85088761l.57337281-.96568047z" fill="#1446a0"/></svg>