<?xml version="1.0" encoding="UTF-8"?>
<svg width="24px" height="24px" viewBox="0 0 24 24" version="1.1" xmlns="http://www.w3.org/2000/svg" xmlns:xlink="http://www.w3.org/1999/xlink">
    <title>ic-24x7</title>
    <g id="mWeb-Home-Page" stroke="none" stroke-width="1" fill="none" fill-rule="evenodd">
        <g id="ic-24x7" fill="#1446A0">
            <path d="M20.42,12.478 C20.42,11.927 19.971,11.478 19.42,11.478 L18.42,11.478 L18.42,17.478 L19.354,17.478 L19.447,17.473 C19.985,17.457 20.42,17.02 20.42,16.478 L20.42,12.478 Z M12.534,21.478 L12.534,20.479 C12.54,20.479 12.544,20.478 12.55,20.478 L11.92,20.478 C11.645,20.478 11.42,20.703 11.42,20.978 C11.42,21.254 11.645,21.478 11.92,21.478 L12.534,21.478 Z M21.42,16.478 C21.42,17.477 20.686,18.298 19.729,18.448 C19.6,18.784 19.385,19.169 19.027,19.552 C18.081,20.563 16.507,21.173 14.357,21.387 C14.178,22.016 13.606,22.478 12.92,22.478 L11.92,22.478 C11.092,22.478 10.42,21.807 10.42,20.978 C10.42,20.15 11.092,19.478 11.92,19.478 L12.92,19.478 C13.537,19.478 14.066,19.852 14.297,20.385 C16.558,20.15 17.708,19.482 18.271,18.897 C18.408,18.754 18.51,18.614 18.596,18.478 L17.92,18.478 C17.644,18.478 17.42,18.254 17.42,17.978 L17.42,10.978 C17.42,10.703 17.644,10.478 17.92,10.478 L19.42,10.478 C19.428,10.478 19.435,10.481 19.442,10.481 L19.442,9.98 C19.442,6.138 16.323,3.012 12.484,3 C10.072,3.007 7.889,4.2 6.599,6.193 L5.759,5.65 C7.231,3.376 9.719,2.015 12.42,2 L12.463,2 C16.886,2.024 20.442,5.594 20.442,9.98 L20.442,10.768 C21.025,11.118 21.42,11.749 21.42,12.478 L21.42,16.478 Z M13.453,7.279 C13.327,7.301 13.209,7.373 13.131,7.486 L8.01,14.753 C7.852,14.98 7.907,15.292 8.134,15.45 C8.361,15.608 8.673,15.551 8.83,15.325 L13.951,8.056 C14.109,7.83 14.054,7.518 13.826,7.361 C13.713,7.282 13.579,7.256 13.453,7.279 L13.453,7.279 Z M14.268,15.478 L15.852,12.035 L15.852,11.273 L12.498,11.273 L12.498,12.749 L13.464,12.749 L13.47,12.155 L14.634,12.155 L13.104,15.478 L14.268,15.478 Z M7.237,7.273 L6.044,9.829 L6.044,10.573 L7.945,10.573 L7.945,11.478 L8.954,11.478 L8.954,10.573 L9.494,10.573 L9.494,9.739 L8.954,9.739 L8.954,8.844 L7.945,8.844 L7.945,9.739 L7.16,9.739 L8.281,7.273 L7.237,7.273 Z M4.058,10.596 L5.852,10.596 L5.852,11.478 L2.648,11.478 L2.642,10.752 L4.172,9.18 C4.292,9.056 4.39,8.932 4.466,8.808 C4.542,8.684 4.58,8.579 4.58,8.491 C4.58,8.374 4.538,8.286 4.454,8.223 C4.37,8.162 4.252,8.13 4.1,8.13 C3.932,8.13 3.745,8.177 3.539,8.271 C3.333,8.366 3.134,8.497 2.941,8.665 L2.522,7.855 C3.102,7.434 3.684,7.224 4.268,7.224 C4.548,7.224 4.799,7.27 5.021,7.363 C5.242,7.455 5.417,7.584 5.543,7.752 C5.669,7.92 5.732,8.113 5.732,8.329 C5.732,8.544 5.661,8.767 5.519,8.998 C5.377,9.227 5.176,9.472 4.916,9.733 L4.058,10.596 Z" id="Shape"></path>
        </g>
    </g>
</svg>