<?xml version="1.0" encoding="UTF-8"?>
<svg width="498px" height="250px" viewBox="0 0 498 250" version="1.1" xmlns="http://www.w3.org/2000/svg" xmlns:xlink="http://www.w3.org/1999/xlink">
    <!-- Generator: Sketch 57.1 (83088) - https://sketch.com -->
    <title>bc_img_carpool1</title>
    <desc>Created with Sketch.</desc>
    <g id="Page-1" stroke="none" stroke-width="1" fill="none" fill-rule="evenodd">
        <g id="web-page" transform="translate(-904.000000, -2592.000000)" fill-rule="nonzero">
            <g id="Group-118" transform="translate(0.000000, 2464.000000)">
                <g id="bc_img_carpool1" transform="translate(904.000000, 126.000000)">
                    <g id="Charatcter">
                        <g id="Group">
                            <g transform="translate(75.036866, 0.000000)" fill="#D74F55" opacity="0.13">
                                <path d="M363.824885,215.572391 C358.294931,233.767069 340.552995,245.973625 322.119816,251.501122 C303.917051,257.02862 284.331797,257.489244 265.668203,260.483305 C246.774194,263.477366 227.419355,270.156425 215.207373,284.896418 C200,303.321409 182.718894,317.140152 158.986175,323.358586 C132.718894,330.267957 103.456221,334.41358 77.8801843,323.128273 C66.8202765,318.291713 55.7603687,308.848906 55.9907834,296.642349 C56.2211982,289.042041 61.0599078,282.132669 67.281106,277.756734 C73.5023041,273.380799 81.1059908,271.307987 88.7096774,270.156425 C99.7695853,268.313926 154.83871,269.695801 147.926267,247.816124 C143.778802,234.227694 117.741935,233.997381 106.682028,231.92457 C93.0875576,229.621446 77.8801843,222.481762 75.3456221,208.893331 C73.5023041,198.529274 80.6451613,188.165217 89.6313364,182.868032 C91.4746544,181.71647 93.3179724,180.795221 95.3917051,180.104284 C84.1013825,181.946783 73.2718894,186.092406 61.7511521,185.862093 C43.5483871,185.401468 25.3456221,170.661476 25.3456221,152.466798 C25.3456221,139.569304 33.640553,127.59306 32.9493088,114.925879 C32.0276498,102.028386 22.1198157,91.2037037 19.124424,78.766835 C17.5115207,72.0877759 17.9723502,64.948092 19.3548387,58.0387205 C23.7327189,35.468107 38.4792627,13.1278058 61.0599078,5.52749719 C77.4193548,5.32907052e-15 101.382488,5.32907052e-15 114.516129,12.8974935 C119.354839,17.5037411 122.81106,23.4918631 128.341014,27.1768612 C138.479263,34.0862327 152.073733,32.0134212 164.516129,30.631547 C176.728111,29.2496727 191.474654,30.1709222 198.387097,40.304667 C201.843318,45.3715395 202.534562,51.5899738 204.37788,57.3477834 C208.294931,69.0937149 217.281106,78.9971474 228.801843,83.6033951 C242.626728,89.1308923 260.599078,88.6702675 268.663594,101.107136 C273.271889,108.24682 272.580645,117.91994 268.202765,125.059624 C263.824885,132.199308 255.760369,136.805556 247.695853,138.417742 C242.857143,139.338992 237.788018,139.338992 232.949309,140.490554 C218.202765,144.175552 209.447005,158.224607 199.539171,170.431163 C211.981567,169.279602 224.423963,168.588664 237.096774,168.358352 C252.073733,168.12804 267.511521,168.818977 282.488479,170.891788 C278.571429,168.588664 274.884793,165.364291 271.889401,162.37023 C266.820276,157.073045 263.824885,147.630238 268.663594,139.108679 C272.119816,132.890245 274.654378,133.35087 278.801843,136.344931 C276.267281,128.974935 273.732719,119.762439 279.262673,111.931818 C282.718894,107.095258 286.866359,108.937757 288.018433,114.465254 C287.327189,108.016508 288.018433,98.1130752 291.935484,92.8158904 C293.778802,90.2824542 294.930876,89.591517 297.004608,91.4340161 C297.465438,91.8946409 297.926267,92.3552656 298.156682,92.8158904 C299.539171,87.749018 303.456221,81.760896 305.760369,78.766835 C310.829493,72.5484007 315.437788,72.5484007 318.894009,79.9183969 C322.81106,88.4399551 320.276498,98.5737 317.741935,108.24682 C315.898618,115.386504 313.364055,119.992752 308.986175,124.829312 C313.824885,124.138374 318.894009,126.671811 316.820276,134.502432 C315.207373,140.260241 311.981567,145.787738 308.294931,149.933361 C309.677419,151.084923 310.368664,152.927422 310.138249,155.691171 C309.907834,158.45492 307.142857,162.37023 305.529954,164.673354 C302.764977,168.818977 298.617512,171.813038 294.700461,172.9646 C317.97235,177.570847 340.092166,185.862093 358.75576,200.371773 C361.290323,202.214272 363.59447,204.517396 364.746544,207.281145 C365.207373,209.814581 364.746544,212.808642 363.824885,215.572391 Z M230.184332,67.0209035 C230.875576,64.0268425 229.493088,60.8024691 227.18894,58.7296577 C223.732719,55.7355967 219.124424,57.3477834 216.359447,60.5721568 C209.677419,68.8634025 228.110599,76.6940236 230.184332,67.0209035 Z M246.313364,280.750795 C242.165899,286.04798 243.087558,293.648288 260.368664,293.187664 C265.437788,292.957351 268.43318,289.96329 263.59447,281.21142 C258.75576,273.150486 250.230415,275.914235 246.313364,280.750795 Z M4.37788018,108.477132 C-3.55271368e-15,114.695567 1.15207373,123.908062 19.124424,123.217125 C24.4239631,122.986813 27.6497696,119.301814 22.3502304,109.16807 C17.5115207,99.7252619 8.52534562,102.719323 4.37788018,108.477132 Z M133.179724,256.567995 C137.096774,256.337682 139.170507,254.034559 135.483871,247.585812 C132.02765,241.59769 125.576037,243.670501 122.580645,247.125187 C119.585253,251.040498 120.276498,256.798307 133.179724,256.567995 Z" id="Shape"></path>
                                <path d="M267.281106,141.642116 C275.115207,148.781799 281.797235,158.45492 285.023041,169.970539 C285.9447,166.515853 286.635945,163.29148 287.557604,159.836794 L287.557604,159.606481 C285.9447,155.691171 284.562212,151.315236 283.179724,147.169613 C281.56682,142.10274 279.953917,137.035868 277.64977,132.659933 C277.18894,131.278058 276.958525,129.896184 276.497696,128.51431 C279.723502,133.811495 281.797235,140.260241 283.870968,146.478676 C285.023041,150.393986 286.40553,154.309297 287.788018,157.763982 C287.788018,157.53367 288.018433,157.53367 288.018433,157.303358 C289.170507,153.157735 290.092166,149.242424 291.24424,145.327114 C290.552995,134.732744 287.096774,124.829312 283.870968,115.156192 C283.179724,113.08338 282.488479,111.010569 281.797235,108.937757 C282.02765,108.707445 282.488479,108.707445 282.718894,108.707445 C283.410138,110.780256 284.101382,112.622755 284.792627,114.695567 C288.018433,123.67775 291.013825,133.120557 292.165899,143.02399 C292.626728,141.181491 293.317972,139.338992 293.778802,137.496493 C295.16129,133.120557 296.543779,128.51431 298.156682,123.908062 C298.847926,119.071502 297.926267,113.774317 297.004608,108.937757 C296.774194,108.016508 296.774194,107.095258 296.543779,106.404321 C295.62212,101.567761 294.700461,97.422138 293.548387,93.9674523 C293.317972,93.0462028 292.857143,92.3552656 292.626728,91.4340161 C292.857143,91.2037037 293.087558,90.7430789 293.317972,90.5127666 C293.778802,91.4340161 294.009217,92.3552656 294.470046,93.2765152 C295.62212,96.7312009 296.543779,101.107136 297.465438,105.943696 C297.695853,106.864946 297.695853,107.555883 297.926267,108.477132 C298.617512,112.162131 299.539171,116.307753 299.308756,120.223064 C300,118.150253 300.691244,116.307753 301.612903,114.234942 C302.304147,112.392443 302.995392,110.549944 303.917051,108.707445 C303.686636,107.095258 302.764977,95.1190142 300.921659,90.2824542 C300.691244,89.3612046 300.230415,88.6702675 300,87.749018 C300.230415,87.2883932 300.460829,86.8277684 300.691244,86.597456 C301.152074,87.749018 301.382488,88.9005799 301.843318,89.8218294 C303.456221,93.9674523 304.37788,103.179948 304.608295,107.095258 C306.221198,103.41026 307.603687,99.4949495 308.986175,95.579639 C309.677419,92.585578 309.447005,89.1308923 309.21659,86.1368313 C309.21659,84.9852694 308.986175,84.0640198 308.986175,83.1427703 C308.986175,82.2215208 308.986175,81.3002712 308.986175,80.1487093 C308.986175,78.5365226 308.986175,76.924336 308.986175,75.3121493 C309.21659,75.0818369 309.677419,74.8515245 309.907834,74.6212121 C309.907834,76.4637112 309.907834,78.3062103 309.907834,79.9183969 C309.907834,81.0699588 309.907834,81.9912084 309.907834,82.9124579 C309.907834,83.8337074 309.907834,84.9852694 310.138249,85.9065189 C310.138249,87.749018 310.368664,89.8218294 310.368664,91.8946409 C311.520737,88.4399551 313.133641,85.2155817 314.516129,81.9912084 C315.437788,79.9183969 316.129032,78.0758979 317.050691,76.0030864 C317.281106,76.2333988 317.511521,76.4637112 317.741935,76.924336 C317.050691,78.766835 316.129032,80.8396465 315.437788,82.6821455 C313.59447,86.8277684 311.751152,90.9733913 310.368664,95.3493266 C310.368664,95.579639 310.138249,95.8099514 310.138249,96.0402637 C310.138249,96.2705761 310.138249,96.2705761 310.138249,96.5008885 C313.364055,93.0462028 317.281106,89.8218294 321.428571,87.5187056 C321.428571,87.9793303 321.428571,88.2096427 321.428571,88.6702675 C316.820276,91.4340161 312.442396,95.1190142 309.21659,99.0343247 L308.986175,99.2646371 C307.834101,102.258698 306.682028,105.022447 305.529954,107.786195 C306.682028,106.864946 308.75576,105.252759 310.138249,104.561822 L310.599078,104.33151 C313.59447,102.48901 317.050691,100.416199 320.506912,99.0343247 C320.506912,99.4949495 320.276498,99.9555743 320.276498,100.185887 C317.050691,101.337449 314.0553,103.41026 311.059908,105.252759 L310.599078,105.483071 C308.75576,106.634633 305.760369,108.937757 305.069124,109.628694 C304.37788,111.471193 303.686636,113.313692 302.764977,115.156192 C301.612903,117.91994 300.691244,120.914001 299.769585,123.67775 C304.37788,117.229003 311.290323,114.695567 316.589862,113.544005 C316.359447,114.00463 316.359447,114.465254 316.129032,114.695567 C310.599078,115.847129 303.225806,118.610877 299.078341,126.441498 L298.617512,127.362748 C297.465438,130.817434 296.313364,134.502432 295.391705,137.957117 C294.700461,140.260241 294.009217,142.563365 293.317972,144.866489 C294.930876,142.793678 296.774194,140.260241 298.847926,138.417742 C300.460829,137.035868 301.843318,135.884306 303.456221,134.732744 C303.917051,134.272119 304.608295,133.811495 305.069124,133.35087 C305.529954,132.890245 305.990783,132.659933 306.682028,132.199308 C309.21659,130.126496 311.751152,128.053685 314.285714,126.671811 C314.746544,126.441498 315.207373,126.211186 315.898618,125.980874 C316.129032,126.211186 316.589862,126.441498 316.820276,126.902123 C316.129032,127.132435 315.437788,127.362748 314.746544,127.823373 C312.211982,129.205247 309.677419,131.278058 307.142857,133.35087 C306.682028,133.811495 305.990783,134.272119 305.529954,134.502432 C304.83871,134.963056 304.37788,135.423681 303.686636,135.884306 C302.073733,137.035868 300.691244,138.18743 299.078341,139.569304 C297.004608,141.411803 294.700461,144.405864 293.087558,146.478676 L292.396313,147.630238 C291.705069,150.393986 290.78341,153.157735 290.092166,155.921483 C291.013825,155.000234 292.165899,154.309297 293.087558,153.61836 C293.548387,153.388047 293.778802,153.157735 294.009217,152.927422 C300.230415,148.551487 307.373272,144.175552 315.437788,140.029929 C315.207373,140.490554 314.976959,141.181491 314.746544,141.642116 C307.142857,145.557426 300.691244,149.472737 294.700461,153.848672 C294.470046,154.078984 294.009217,154.309297 293.548387,154.539609 C291.935484,155.460859 290.552995,156.612421 289.631336,158.224607 C288.709677,161.448981 287.788018,164.903666 287.096774,168.358352 C291.474654,163.521792 303.686636,158.915544 310.829493,156.612421 C310.829493,157.073045 310.599078,157.53367 310.368664,157.994295 C302.764977,160.297419 289.861751,165.364291 286.866359,169.970539 C286.40553,170.661476 286.175115,171.582725 286.175115,172.273663 C285.714286,172.04335 285.483871,172.04335 285.023041,171.813038 C282.02765,160.297419 275.115207,150.393986 267.281106,142.793678 C266.820276,142.333053 267.050691,142.10274 267.281106,141.642116 Z" id="Path"></path>
                            </g>
                            <path d="M0.152073733,246.43425 C0.152073733,251.27081 207.064516,255.18612 269.506912,255.18612 C331.949309,255.18612 377.571429,251.27081 377.571429,246.43425 C377.571429,241.59769 331.949309,237.682379 269.506912,237.682379 C207.064516,237.682379 0.152073733,241.59769 0.152073733,246.43425 Z" id="Path" fill="#F2D5D6"></path>
                        </g>
                        <g id="Group" transform="translate(5.912442, 101.337449)">
                            <g>
                                <g>
                                    <path d="M297.004608,63.7965301 L319.585253,64.2571549 C320.276498,64.2571549 320.737327,63.7965301 320.737327,63.105593 L321.198157,43.5290404 C321.198157,42.8381033 320.737327,42.3774785 320.046083,42.3774785 L297.465438,41.9168537 C296.774194,41.9168537 296.313364,42.3774785 296.313364,43.0684156 L295.852535,62.6449682 C295.852535,63.3359053 296.313364,63.7965301 297.004608,63.7965301 Z" id="Path" fill="#FFFFFF"></path>
                                    <g transform="translate(308.755760, 92.124953)">
                                        <g>
                                            <ellipse id="Oval" fill="#212121" transform="translate(29.543192, 30.145527) rotate(-88.896275) translate(-29.543192, -30.145527) " cx="29.5431916" cy="30.145527" rx="27.4067817" ry="14.2855053"></ellipse>
                                            <polygon id="Path" fill="#212121" points="29.0322581 57.5780958 14.7465438 57.3477834 24.1935484 34.0862327"></polygon>
                                            <g id="Oval">
                                                <ellipse fill="#434343" transform="translate(16.444099, 29.905405) rotate(-88.896422) translate(-16.444099, -29.905405) " cx="16.4440985" cy="29.9054052" rx="27.4067803" ry="14.2855046"></ellipse>
                                                <ellipse fill="#197BBD" transform="translate(16.444073, 29.905462) rotate(-88.896460) translate(-16.444073, -29.905462) " cx="16.4440733" cy="29.9054622" rx="15.6610171" ry="8.06439765"></ellipse>
                                            </g>
                                        </g>
                                        <path d="M16.8202765,2.30312383 C19.124424,2.30312383 21.4285714,3.45468575 23.2718894,5.52749719 C25.3456221,3.68499813 27.4193548,2.53343621 29.9539171,2.53343621 C37.7880184,2.7637486 44.0092166,15.2006173 43.5483871,30.4012346 C43.3179724,45.6018519 36.6359447,57.8084082 28.8018433,57.5780958 L14.516129,57.3477834 L14.516129,57.3477834 C7.14285714,56.1962215 1.61290323,44.2199776 1.84331797,29.7102974 C2.53456221,14.5096801 8.98617512,2.30312383 16.8202765,2.30312383 Z" id="Path" fill="#1D3356"></path>
                                    </g>
                                    <g transform="translate(110.599078, 89.821829)">
                                        <g>
                                            <ellipse id="Oval" fill="#212121" transform="translate(29.503272, 28.691405) rotate(-88.896287) translate(-29.503272, -28.691405) " cx="29.5032721" cy="28.6914053" rx="27.4067816" ry="14.2855052"></ellipse>
                                            <polygon id="Path" fill="#212121" points="29.0322581 56.1962215 14.7465438 55.7355967 24.1935484 32.7043584"></polygon>
                                            <g id="Oval">
                                                <ellipse fill="#434343" transform="translate(16.404040, 28.451348) rotate(-88.896422) translate(-16.404040, -28.451348) " cx="16.4040395" cy="28.4513479" rx="27.4067803" ry="14.2855046"></ellipse>
                                                <ellipse fill="#929292" transform="translate(16.404145, 28.451408) rotate(-88.896460) translate(-16.404145, -28.451408) " cx="16.4041451" cy="28.4514075" rx="15.6610171" ry="8.06439765"></ellipse>
                                            </g>
                                        </g>
                                        <path d="M17.0506912,0.921249532 C19.3548387,0.921249532 21.6589862,2.07281145 23.5023041,4.1456229 C25.5760369,2.30312383 27.6497696,1.15156192 30.1843318,1.15156192 C38.0184332,1.3818743 44.2396313,13.818743 43.7788018,29.0193603 C43.5483871,44.2199776 36.8663594,56.4265339 29.0322581,56.1962215 L14.7465438,55.9659091 L14.7465438,55.9659091 C7.37327189,54.8143472 1.84331797,42.8381033 2.07373272,28.3284231 C2.53456221,12.8974935 9.21658986,0.690937149 17.0506912,0.921249532 Z" id="Path" fill="#1D3356"></path>
                                    </g>
                                    <g transform="translate(172.811060, 89.821829)">
                                        <path d="M19.8156682,10.824682 L16.359447,1.15156192 L29.9539171,1.3818743 C30.1843318,1.3818743 30.6451613,1.3818743 30.875576,1.3818743 C38.9400922,1.61218668 45.1612903,14.2793678 44.9308756,29.9406098 C44.7004608,45.6018519 37.7880184,58.0387205 29.7235023,58.0387205 L14.9769585,57.8084082 L18.8940092,48.3656004 C16.5898618,43.298728 15.437788,36.8499813 15.6682028,29.479985 C15.8986175,22.3403012 17.281106,15.8915544 19.8156682,10.824682 Z" id="Path" fill="#1D3356"></path>
                                        <g id="Oval">
                                            <ellipse fill="#FFFFFF" transform="translate(17.486853, 29.628088) rotate(-88.896421) translate(-17.486853, -29.628088) " cx="17.4868533" cy="29.6280877" rx="28.3280166" ry="14.7463273"></ellipse>
                                            <ellipse fill="#1D3356" transform="translate(16.416554, 29.476581) rotate(-88.896372) translate(-16.416554, -29.476581) " cx="16.416554" cy="29.4765814" rx="16.1216358" ry="8.29480926"></ellipse>
                                        </g>
                                    </g>
                                    <g transform="translate(13.824885, 85.215582)">
                                        <path d="M19.8156682,12.4368687 L16.359447,2.7637486 L29.9539171,2.99406098 C30.1843318,2.99406098 30.6451613,2.99406098 30.875576,2.99406098 C38.9400922,3.22437336 45.1612903,15.8915544 44.9308756,31.5527965 C44.7004608,47.2140385 37.7880184,59.6509072 29.7235023,59.6509072 L14.9769585,59.4205948 L18.8940092,49.9777871 C16.5898618,44.9109147 15.437788,38.462168 15.6682028,31.0921717 C15.8986175,23.9524878 17.5115207,17.5037411 19.8156682,12.4368687 Z" id="Path" fill="#1D3356"></path>
                                        <g id="Oval">
                                            <ellipse fill="#FFFFFF" transform="translate(16.903891, 30.004632) rotate(-88.896421) translate(-16.903891, -30.004632) " cx="16.9038909" cy="30.0046316" rx="28.3280166" ry="14.7463273"></ellipse>
                                            <ellipse fill="#1D3356" transform="translate(16.982773, 31.078868) rotate(-88.896372) translate(-16.982773, -31.078868) " cx="16.9827728" cy="31.0788678" rx="16.1216358" ry="8.29480926"></ellipse>
                                        </g>
                                    </g>
                                    <g>
                                        <path d="M1.15207373,64.948092 L0.230414747,111.931818 C0.230414747,117.91994 4.83870968,122.7565 10.5990783,122.7565 L13.59447,122.7565 L13.59447,122.295875 C14.0552995,102.719323 22.5806452,86.8277684 32.718894,87.0580808 C39.1705069,87.2883932 44.7004608,93.5068275 47.6958525,103.179948 C49.5391705,108.937757 50.4608295,115.616816 50.4608295,122.986813 L50.4608295,123.447437 L172.580645,125.750561 L172.580645,125.289936 C172.81106,111.240881 177.419355,99.0343247 183.640553,93.5068275 C186.175115,91.2037037 188.940092,90.0521418 191.705069,90.0521418 C194.009217,90.0521418 196.082949,90.9733913 197.926267,92.3552656 C202.073733,95.3493266 205.529954,101.567761 207.603687,109.16807 C208.986175,114.234942 209.677419,119.992752 209.447005,125.980874 L209.447005,126.441498 L236.866359,126.902123 L239.170507,5.06687243 C237.096774,4.83656004 235.023041,4.83656004 232.949309,4.60624766 L102.304147,2.30312383 C88.2488479,2.07281145 74.4239631,5.06687243 61.9815668,10.824682 C55.0691244,14.0490554 48.6175115,17.9643659 42.6267281,22.8009259 C36.6359447,27.637486 31.1059908,33.3952955 26.4976959,39.6137299 C25.3456221,41.2259166 23.9631336,42.8381033 22.5806452,44.2199776 C21.1981567,45.6018519 19.5852535,46.9837262 17.9723502,48.1352881 L3.4562212,58.4993453 C1.84331797,60.5721568 1.15207373,62.6449682 1.15207373,64.948092 Z" id="Path" fill="#D74F55"></path>
                                        <path d="M48.8479263,44.9109147 L47.6958525,103.41026 C49.5391705,109.16807 50.4608295,115.847129 50.4608295,123.217125 L50.4608295,123.67775 L114.976959,124.829312 L117.050691,11.9762439 L99.078341,11.5156192 C80.875576,15.4309297 64.0552995,25.3343621 50.6912442,40.5349794 C49.5391705,41.6865413 48.8479263,43.298728 48.8479263,44.9109147 Z" id="Path" fill="#D74F55"></path>
                                        <path d="M197.926267,92.585578 C202.073733,95.579639 205.529954,101.798073 207.603687,109.398382 L253.225806,110.319632 C257.142857,110.319632 260.829493,108.937757 263.364055,106.404321 C265.898618,103.870885 267.741935,100.185887 267.741935,96.2705761 C267.741935,94.8887018 266.820276,93.9674523 265.437788,93.7371399 L197.926267,92.585578 Z" id="Path" fill="#FCB316"></path>
                                        <path d="M166.820276,3.68499813 L166.820276,4.1456229 C171.658986,5.06687243 176.497696,7.36999626 180.875576,10.824682 C185.9447,14.7399925 190.552995,20.2674897 194.700461,26.9465488 L208.75576,50.6687243 L210.829493,54.12341 L217.281106,64.948092 C218.43318,67.0209035 219.124424,69.7846521 219.124424,72.7787131 L218.202765,115.616816 C217.97235,121.604938 215.207373,126.441498 211.751152,126.441498 L362.903226,129.435559 C368.663594,129.435559 373.502304,124.829312 373.732719,119.071502 L373.963134,106.174009 C373.963134,105.713384 373.963134,105.252759 373.963134,104.792134 C373.963134,101.798073 373.502304,98.8040123 373.041475,95.8099514 C369.585253,79.2274598 356.912442,65.4087168 339.861751,60.5721568 L325.806452,56.6568462 L325.115207,56.1962215 C308.294931,44.9109147 296.774194,32.9346708 280.414747,20.9584269 C275.806452,17.7340535 270.967742,14.7399925 265.898618,12.4368687 C261.751152,10.5943696 257.603687,8.98218294 253.225806,7.83062103 C248.617512,6.44874673 243.778802,5.75780958 238.709677,5.29718481 C236.635945,5.06687243 234.562212,5.06687243 232.488479,4.83656004 L166.820276,3.68499813 Z" id="Path" fill="#D74F55"></path>
                                        <path d="M186.635945,11.0549944 C184.792627,11.0549944 183.640553,13.3581182 185.023041,14.7399925 C188.479263,18.1946783 191.705069,22.3403012 194.700461,27.1768612 L205.529954,45.6018519 L207.603687,49.28685 C209.447005,52.5112233 213.133641,54.5840348 216.820276,54.5840348 L325.806452,56.6568462 L325.115207,56.1962215 C308.294931,44.9109147 296.774194,32.9346708 280.414747,20.9584269 C275.806452,17.7340535 270.967742,14.7399925 265.898618,12.4368687 L186.635945,11.0549944 Z" id="Path" fill="#C22E55"></path>
                                        <path d="M320.276498,55.0446596 C320.737327,55.0446596 320.967742,54.5840348 320.506912,54.12341 C313.824885,49.28685 308.064516,44.2199776 302.304147,39.6137299 C296.082949,34.3165451 289.631336,29.0193603 282.258065,23.7221755 C279.493088,21.649364 276.497696,19.8068649 273.271889,18.1946783 C270.276498,16.5824916 267.050691,15.6612421 263.824885,15.6612421 L189.861751,14.2793678 C193.317972,17.7340535 196.543779,22.1099888 199.539171,26.9465488 L210.368664,45.3715395 L212.442396,49.0565376 C214.0553,51.5899738 216.820276,53.2021605 219.815668,53.4324729 L320.276498,55.0446596 Z" id="Path" fill="#FFF0E2"></path>
                                        <path d="M120.046083,9.67312009 L117.741935,124.829312 L172.35023,125.980874 L172.35023,125.520249 C172.580645,111.471193 177.18894,99.2646371 183.410138,93.7371399 L184.331797,49.28685 C184.331797,49.28685 184.331797,49.0565376 184.331797,49.0565376 C184.331797,48.8262252 184.331797,48.5959128 184.331797,48.3656004 C184.331797,48.1352881 184.331797,48.1352881 184.331797,48.1352881 C184.331797,47.6746633 184.101382,47.2140385 183.870968,46.7534138 L172.580645,27.1768612 C166.589862,16.812804 156.682028,10.5943696 145.852535,10.3640572 L120.046083,9.67312009 Z" id="Path" fill="#D74F55"></path>
                                        <path d="M48.8479263,44.9109147 C48.8479263,48.1352881 50.921659,51.3596614 54.3778802,51.3596614 L180.184332,53.8930976 C182.488479,53.8930976 184.331797,51.8202862 184.331797,49.28685 C184.331797,48.3656004 184.101382,47.4443509 183.640553,46.7534138 L172.119816,27.1768612 C165.898618,16.812804 155.760369,10.5943696 144.700461,10.3640572 L118.202765,9.90343247 C111.751152,9.67312009 105.299539,10.3640572 98.8479263,11.7459315 C80.6451613,15.6612421 63.8248848,25.5646745 50.4608295,40.7652918 C49.5391705,41.6865413 48.8479263,43.298728 48.8479263,44.9109147 Z" id="Path" fill="#C22E55"></path>
                                        <path d="M50.921659,44.9109147 C50.921659,46.9837262 52.3041475,49.0565376 54.6082949,49.0565376 L180.414747,51.5899738 C181.797235,51.5899738 182.488479,50.4384119 182.488479,49.28685 C182.488479,48.8262252 182.488479,48.3656004 182.02765,47.9049757 L170.506912,28.3284231 C164.746544,18.655303 155.069124,12.6671811 144.700461,12.4368687 L118.202765,11.9762439 C117.741935,11.9762439 117.511521,11.9762439 117.050691,11.9762439 C105.069124,11.9762439 93.5483871,14.5096801 82.4884793,19.5765526 C70.9677419,24.8737374 60.8294931,32.474046 52.0737327,42.1471661 C51.1520737,43.0684156 50.921659,44.2199776 50.921659,44.9109147 Z" id="Path" fill="#FFF0E2"></path>
                                        <path d="M352.764977,97.422138 C352.764977,100.646511 353.917051,103.640572 355.990783,105.713384 C358.064516,107.786195 360.829493,109.16807 364.0553,109.16807 L373.963134,109.398382 L373.963134,104.101197 C373.963134,103.640572 373.963134,103.41026 373.963134,102.949635 C373.963134,100.416199 373.732719,98.1130752 373.271889,95.579639 L354.608295,95.1190142 C353.686636,95.579639 352.764977,96.2705761 352.764977,97.422138 Z" id="Path" fill="#FEF1E2"></path>
                                        <path d="M218.894009,92.8158904 L218.663594,109.628694 L230.645161,109.859007 C234.562212,109.859007 238.248848,108.477132 240.78341,105.943696 C243.317972,103.41026 245.16129,99.9555743 245.16129,95.8099514 C245.16129,94.4280771 244.239631,93.5068275 242.857143,93.5068275 L218.894009,92.8158904 Z" id="Path" fill="#FEF1E2"></path>
                                        <path d="M105.529954,11.7459315 L104.83871,50.2080995 L110.829493,50.4384119 L111.520737,11.9762439 L106.682028,11.9762439 C106.451613,11.7459315 105.990783,11.7459315 105.529954,11.7459315 Z" id="Path" fill="#C22E55"></path>
                                        <polygon id="Rectangle" fill="#1D3356" transform="translate(131.067308, 68.657576) rotate(-178.896372) translate(-131.067308, -68.657576) " points="122.081288 65.8939443 140.053375 65.8937906 140.053328 71.4212086 122.081241 71.4213623"></polygon>
                                        <polygon id="Rectangle" fill="#1D3356" transform="translate(59.484690, 67.284350) rotate(-178.896372) translate(-59.484690, -67.284350) " points="50.4986699 64.520718 68.4707566 64.5205642 68.4707093 70.0479822 50.4986226 70.048136"></polygon>
                                        <polygon id="Rectangle" fill="#FCB316" transform="translate(5.648866, 88.963176) rotate(-178.896372) translate(-5.648866, -88.963176) " points="0.695106151 79.059928 10.602795 79.0598432 10.6026255 98.8664243 0.694936628 98.8665091"></polygon>
                                    </g>
                                    <path d="M177.419355,56.1962215 L187.096774,56.4265339 C187.327189,56.4265339 187.557604,56.1962215 187.557604,55.9659091 L187.788018,47.6746633 C187.788018,47.4443509 187.557604,47.2140385 187.327189,47.2140385 L177.64977,46.9837262 C177.419355,46.9837262 177.18894,47.2140385 177.18894,47.4443509 L176.958525,55.7355967 C176.728111,55.9659091 176.958525,56.1962215 177.419355,56.1962215 Z" id="Path" fill="#FFFFFF"></path>
                                </g>
                                <g transform="translate(271.889401, 92.124953)">
                                    <path d="M59.6774194,17.7340535 L2.30414747,16.5824916 C1.84331797,16.5824916 1.38248848,16.1218668 1.38248848,15.6612421 L1.61290323,1.3818743 C1.61290323,0.921249532 2.07373272,0.460624766 2.53456221,0.460624766 L59.9078341,1.61218668 C60.3686636,1.61218668 60.8294931,2.07281145 60.8294931,2.53343621 L60.5990783,16.812804 C60.5990783,17.5037411 60.1382488,17.7340535 59.6774194,17.7340535 Z" id="Path" fill="#FFFFFF"></path>
                                    <polygon id="Rectangle" fill="#197BBD" transform="translate(9.098269, 8.862601) rotate(1.103628) translate(-9.098269, -8.862601) " points="5.29651772 4.60191579 12.9000929 4.60185074 12.9000199 13.1232868 5.29644479 13.1233518"></polygon>
                                </g>
                            </g>
                            <g transform="translate(223.502304, 16.121867)">
                                <path d="M31.5668203,38.0015432 L59.9078341,38.0015432 C62.9032258,36.8499813 39.1705069,32.9346708 39.1705069,32.9346708 C39.1705069,32.9346708 14.0552995,22.1099888 8.98617512,27.637486 C3.68663594,33.1649832 14.516129,37.5409184 31.5668203,38.0015432 Z" id="Path" fill="#1970AE"></path>
                                <g transform="translate(0.000000, 2.303124)">
                                    <path d="M31.5668203,35.6984194 C30.4147465,33.1649832 17.0506912,23.0312383 14.7465438,21.4190516 C11.5207373,19.1159278 8.06451613,20.9584269 5.52995392,23.4918631 C0.460829493,28.0981107 3.22580645,31.5527965 2.07373272,35.6984194 L4.14746544,35.6984194 L31.5668203,35.6984194 Z" id="Path" fill="#1D7BBB"></path>
                                    <path d="M15.2073733,16.3521792 C15.437788,14.9703049 15.437788,14.0490554 15.437788,14.0490554 C15.437788,14.0490554 15.2073733,14.9703049 15.2073733,16.3521792 Z" id="Path" fill="#D1976D" opacity="0.5"></path>
                                    <path d="M18.202765,1.15156192 C15.2073733,2.7637486 14.0552995,5.75780958 14.0552995,8.98218294 L14.0552995,9.44280771 C14.0552995,9.44280771 14.0552995,9.44280771 14.2857143,9.21249532 C14.0552995,9.44280771 13.8248848,9.67312009 13.59447,10.1337449 C12.2119816,12.8974935 15.437788,14.0490554 15.437788,14.0490554 L15.437788,14.0490554 C15.437788,14.0490554 15.437788,14.9703049 15.2073733,16.3521792 C14.7465438,18.4249906 13.8248848,21.1887392 11.2903226,21.8796764 C11.2903226,21.8796764 11.5207373,27.8677984 18.4331797,28.7890479 C18.4331797,28.7890479 20.0460829,29.0193603 20.9677419,27.1768612 C20.9677419,27.1768612 20.7373272,24.643425 22.1198157,21.4190516 C22.3502304,21.4190516 22.3502304,21.4190516 22.5806452,21.4190516 C28.3410138,22.3403012 29.7235023,11.2853068 29.7235023,9.21249532 C29.7235023,7.36999626 27.4193548,-3.45468575 18.202765,1.15156192 Z M14.516129,9.21249532 C14.7465438,9.21249532 15.2073733,9.44280771 15.6682028,10.1337449 L15.6682028,10.1337449 C15.437788,9.67312009 14.9769585,9.21249532 14.516129,9.21249532 Z" id="Shape" fill="#FDD0A4"></path>
                                    <path d="M14.2857143,19.1159278 C14.2857143,19.1159278 14.2857143,19.1159278 14.2857143,19.1159278 C14.7465438,18.1946783 14.9769585,17.2734287 15.2073733,16.3521792 C15.437788,14.9703049 15.437788,14.0490554 15.437788,14.0490554 C15.437788,14.0490554 16.8202765,20.2674897 22.3502304,21.4190516 C20.7373272,24.8737374 21.1981567,27.1768612 21.1981567,27.1768612 C21.1981567,27.1768612 16.359447,27.4071736 14.2857143,19.1159278 Z" id="Path" fill="#D1976D" opacity="0.5"></path>
                                    <path d="M22.8110599,16.5824916 C22.8110599,16.5824916 23.5023041,17.2734287 25.3456221,17.7340535 C25.3456221,17.7340535 22.8110599,19.1159278 22.8110599,16.5824916 Z" id="Path" fill="#FFFFFF"></path>
                                </g>
                                <path d="M20.5069124,1.61218668 L20.5069124,1.61218668 C19.8156682,1.61218668 19.124424,1.61218668 18.202765,1.61218668 C16.8202765,1.84249906 15.6682028,2.30312383 14.7465438,3.22437336 C13.8248848,4.1456229 12.4423963,5.06687243 11.7511521,6.21843434 C10.5990783,7.60030864 10.3686636,9.67312009 10.5990783,11.5156192 C10.5990783,13.1278058 10.8294931,14.5096801 10.3686636,16.1218668 C9.9078341,17.5037411 8.52534562,18.8856154 6.9124424,18.655303 C7.37327189,21.649364 9.44700461,21.649364 11.2903226,22.1099888 C12.6728111,22.3403012 14.2857143,21.4190516 14.9769585,19.5765526 C15.2073733,19.1159278 15.8986175,16.5824916 15.437788,16.3521792 C13.59447,15.6612421 13.3640553,14.0490554 13.3640553,13.1278058 C13.3640553,12.6671811 13.59447,11.9762439 14.0552995,11.7459315 C15.2073733,11.0549944 15.8986175,12.6671811 15.8986175,12.6671811 L16.5898618,10.824682 C17.281106,9.44280771 18.4331797,8.29124579 20.0460829,7.83062103 C23.5023041,6.90937149 25.1152074,5.29718481 25.1152074,5.29718481 C27.8801843,5.98812196 29.4930876,11.2853068 29.4930876,11.2853068 C32.0276498,1.61218668 20.5069124,1.61218668 20.5069124,1.61218668 Z" id="Path" fill="#1C3356"></path>
                                <path d="M24.6543779,28.0981107 C25.1152074,31.5527965 23.5023041,35.0074822 20.7373272,36.8499813 C20.2764977,37.0802937 20.2764977,37.5409184 20.5069124,38.0015432 L22.3502304,38.0015432 C25.3456221,35.6984194 27.1889401,32.0134212 26.7281106,28.0981107 C26.2672811,26.9465488 24.4239631,26.9465488 24.6543779,28.0981107 Z" id="Path" fill="#1C3356"></path>
                            </g>
                            <g transform="translate(89.861751, 13.818743)">
                                <path d="M41.0138249,28.3284231 C46.0829493,23.0312383 70.0460829,33.3952955 70.0460829,33.3952955 C70.0460829,33.3952955 80.4147465,36.1590441 77.6497696,37.3106061 L53.4562212,37.3106061 C41.4746544,36.3893565 36.6359447,32.9346708 41.0138249,28.3284231 Z" id="Path" fill="#EDA420"></path>
                                <path d="M47.0046083,19.8068649 C47.235023,18.4249906 47.235023,17.5037411 47.235023,17.5037411 C47.235023,17.5037411 47.0046083,18.4249906 47.0046083,19.8068649 Z" id="Path" fill="#D1976D" opacity="0.5"></path>
                                <path d="M59.4470046,37.5409184 L31.3364055,37.5409184 C32.4884793,33.3952955 33.1797235,31.0921717 37.7880184,26.7162364 C40.3225806,24.4131126 43.5483871,22.5706135 46.5437788,24.8737374 C48.8479263,26.0252993 57.8341014,34.5468575 59.4470046,37.5409184 Z" id="Path" fill="#FDBC11"></path>
                                <path d="M49.7695853,5.06687243 C46.7741935,6.44874673 45.8525346,9.44280771 45.6221198,12.6671811 L45.6221198,13.1278058 C45.6221198,13.1278058 45.6221198,13.1278058 45.8525346,12.8974935 C45.6221198,13.1278058 45.3917051,13.3581182 45.1612903,13.818743 C44.0092166,16.3521792 47.0046083,17.5037411 47.0046083,17.5037411 L47.0046083,17.5037411 C47.0046083,17.5037411 47.0046083,18.4249906 46.7741935,19.8068649 C46.3133641,21.649364 45.3917051,24.4131126 43.0875576,25.1040498 C43.0875576,25.1040498 43.3179724,30.8618593 50,31.5527965 C50,31.5527965 51.6129032,31.7831089 52.3041475,29.9406098 C52.3041475,29.9406098 52.0737327,27.637486 53.4562212,24.4131126 C53.6866359,24.4131126 53.6866359,24.4131126 53.9170507,24.4131126 C59.4470046,25.3343621 60.5990783,14.5096801 60.8294931,12.6671811 C61.0599078,11.0549944 58.7557604,0.690937149 49.7695853,5.06687243 Z M46.3133641,12.8974935 C46.5437788,12.8974935 47.0046083,13.1278058 47.4654378,13.818743 L47.4654378,13.818743 C47.235023,13.3581182 46.7741935,12.8974935 46.3133641,12.8974935 Z" id="Shape" fill="#FDD0A4"></path>
                                <path d="M46.0829493,22.3403012 C46.0829493,22.3403012 46.0829493,22.3403012 46.0829493,22.3403012 C46.5437788,21.4190516 46.7741935,20.4978021 47.0046083,19.8068649 C47.235023,18.4249906 47.235023,17.5037411 47.235023,17.5037411 C47.235023,17.5037411 48.6175115,23.4918631 53.9170507,24.4131126 C52.5345622,27.637486 52.764977,29.9406098 52.764977,29.9406098 C52.764977,29.9406098 48.156682,30.1709222 46.0829493,22.3403012 Z" id="Path" fill="#D1976D" opacity="0.5"></path>
                                <g transform="translate(41.474654, 0.000000)" fill="#1C3356" id="Path">
                                    <path d="M20.7373272,5.06687243 C17.5115207,5.75780958 17.7419355,2.7637486 15.6682028,2.99406098 C13.59447,3.22437336 10.8294931,0.690937149 9.21658986,1.84249906 C7.60368664,2.99406098 5.29953917,1.84249906 4.60829493,4.60624766 C3.91705069,7.36999626 1.38248848,4.83656004 2.30414747,8.98218294 L3.91705069,13.5884306 C3.91705069,13.5884306 4.37788018,12.8974935 4.83870968,12.6671811 C5.76036866,12.4368687 6.4516129,13.818743 6.4516129,13.818743 C6.4516129,13.818743 8.06451613,7.13968388 9.9078341,7.36999626 C11.7511521,7.60030864 14.7465438,12.2065563 20.2764977,11.2853068 C25.8064516,10.5943696 23.9631336,4.37593528 20.7373272,5.06687243 Z"></path>
                                    <path d="M9.21658986,25.7949869 C15.6682028,28.3284231 17.5115207,23.2615507 17.7419355,22.5706135 C17.9723502,21.8796764 18.6635945,18.655303 18.6635945,18.655303 C18.6635945,18.655303 18.202765,20.4978021 15.2073733,19.3462402 C12.9032258,18.4249906 8.29493088,18.8856154 6.4516129,14.0490554 C6.4516129,14.0490554 5.99078341,16.1218668 5.76036866,17.5037411 C5.76036866,18.8856154 2.76497696,23.2615507 9.21658986,25.7949869 Z"></path>
                                </g>
                                <path d="M54.1474654,20.2674897 C54.1474654,20.2674897 54.8387097,20.7281145 56.9124424,20.7281145 C56.9124424,20.4978021 54.8387097,22.5706135 54.1474654,20.2674897 Z" id="Path" fill="#FFFFFF"></path>
                                <path d="M61.2903226,11.9762439 L57.3732719,11.9762439 L54.1474654,11.9762439 L50.2304147,11.9762439 C50,11.9762439 50,11.9762439 49.7695853,12.2065563 C49.078341,12.2065563 48.3870968,12.4368687 47.6958525,12.6671811 L46.7741935,13.1278058 L47.0046083,13.5884306 L47.9262673,13.1278058 C48.3870968,12.8974935 48.8479263,12.8974935 49.3087558,12.6671811 C49.3087558,12.6671811 49.3087558,12.8974935 49.3087558,12.8974935 L49.3087558,13.5884306 C49.3087558,15.2006173 50.4608295,16.3521792 52.0737327,16.3521792 L54.1474654,16.3521792 C54.6082949,16.3521792 55.0691244,15.8915544 55.0691244,15.4309297 L55.0691244,12.8974935 C55.0691244,12.6671811 55.0691244,12.6671811 55.0691244,12.4368687 L56.4516129,12.4368687 C56.4516129,12.4368687 56.4516129,12.6671811 56.4516129,12.8974935 L56.4516129,15.4309297 C56.4516129,15.8915544 56.9124424,16.3521792 57.3732719,16.3521792 L59.6774194,16.3521792 C61.0599078,16.3521792 62.2119816,15.2006173 62.2119816,13.818743 L62.2119816,12.8974935 C62.2119816,12.4368687 61.9815668,11.9762439 61.2903226,11.9762439 Z M54.6082949,15.4309297 C54.6082949,15.6612421 54.3778802,15.8915544 54.1474654,15.8915544 L52.0737327,15.8915544 C50.921659,15.8915544 50,14.9703049 50,13.818743 L50,13.1278058 C50,13.1278058 50,12.8974935 50,12.8974935 C50,12.8974935 50,12.8974935 50,12.8974935 L50,12.8974935 C50,12.8974935 50.2304147,12.8974935 50.2304147,12.8974935 L54.1474654,12.8974935 C54.3778802,12.8974935 54.6082949,13.1278058 54.6082949,13.3581182 L54.6082949,15.4309297 L54.6082949,15.4309297 Z M61.7511521,13.818743 C61.7511521,14.9703049 60.8294931,15.6612421 59.9078341,15.6612421 L57.6036866,15.6612421 C57.3732719,15.6612421 57.1428571,15.4309297 57.1428571,15.2006173 L57.1428571,12.6671811 C57.1428571,12.4368687 57.3732719,12.2065563 57.6036866,12.2065563 L61.5207373,12.2065563 C61.7511521,12.2065563 61.9815668,12.4368687 61.9815668,12.6671811 L61.9815668,13.818743 L61.7511521,13.818743 Z" id="Shape" fill="#1C3356"></path>
                                <path d="M55.2995392,28.7890479 C55.0691244,31.5527965 54.6082949,34.3165451 52.9953917,36.8499813 C52.764977,37.0802937 52.764977,37.3106061 52.764977,37.5409184 L54.6082949,37.5409184 C56.2211982,35.0074822 56.6820276,32.0134212 56.9124424,29.0193603 C57.1428571,27.637486 55.5299539,27.637486 55.2995392,28.7890479 Z" id="Path" fill="#1C3356"></path>
                                <path d="M0.230414747,18.4249906 C0.230414747,18.4249906 0.921658986,18.8856154 2.99539171,18.8856154 C2.76497696,18.8856154 0.69124424,20.7281145 0.230414747,18.4249906 Z" id="Path" fill="#FFFFFF"></path>
                            </g>
                        </g>
                        <g id="Group" transform="translate(374.576037, 103.640572)">
                            <path d="M1.15207373,135.193369 C1.15207373,136.344931 28.3410138,137.496493 61.9815668,137.26618 C95.6221198,137.26618 122.81106,136.114618 122.81106,134.963056 C122.81106,133.811495 95.6221198,132.659933 61.9815668,132.890245 C28.5714286,132.890245 1.15207373,134.041807 1.15207373,135.193369 Z" id="Path" fill="#D74F55" opacity="0.13"></path>
                            <path d="M33.1797235,118.150253 C33.1797235,124.829312 30.1843318,130.126496 26.7281106,130.126496 C23.0414747,130.126496 20.2764977,124.829312 20.2764977,118.150253 C20.2764977,111.471193 23.2718894,106.174009 26.7281106,106.174009 C30.1843318,106.174009 33.1797235,111.471193 33.1797235,118.150253 Z" id="Path" fill="#888888"></path>
                            <path d="M26.0368664,126.441498 C26.0368664,126.441498 22.8110599,125.059624 22.3502304,117.689628 C22.5806452,119.071502 23.2718894,123.447437 26.0368664,126.441498 Z" id="Path" fill="#51463C"></path>
                            <ellipse id="Oval" fill="#424242" cx="26.4976959" cy="128.744622" rx="1" ry="1"></ellipse>
                            <path d="M31.5668203,124.368687 C31.5668203,124.829312 31.3364055,125.059624 31.1059908,125.059624 C30.875576,125.059624 30.6451613,124.829312 30.6451613,124.368687 C30.6451613,123.908062 30.875576,123.67775 31.1059908,123.67775 C31.3364055,123.67775 31.5668203,123.908062 31.5668203,124.368687 Z" id="Path" fill="#424242"></path>
                            <path d="M32.4884793,115.616816 C32.4884793,116.077441 32.2580645,116.307753 32.0276498,116.307753 C31.797235,116.307753 31.5668203,116.077441 31.5668203,115.616816 C31.5668203,115.156192 31.797235,114.925879 32.0276498,114.925879 C32.2580645,114.925879 32.4884793,115.156192 32.4884793,115.616816 Z" id="Path" fill="#424242"></path>
                            <ellipse id="Oval" fill="#424242" cx="22.1198157" cy="123.67775" rx="1" ry="1"></ellipse>
                            <path d="M32.718894,136.114618 C38.2488479,136.114618 42.6267281,128.283997 42.6267281,118.380565 C42.6267281,108.707445 38.2488479,100.646511 32.718894,100.646511 L27.1889401,100.646511 C27.1889401,100.646511 45.3917051,115.156192 26.7281106,136.114618 C27.1889401,136.114618 32.718894,136.114618 32.718894,136.114618 Z" id="Path" fill="#1D3356"></path>
                            <path d="M36.40553,118.380565 C36.40553,128.053685 32.0276498,136.114618 26.4976959,136.114618 C20.9677419,136.114618 16.5898618,128.283997 16.5898618,118.380565 C16.5898618,108.707445 20.9677419,100.646511 26.4976959,100.646511 C32.0276498,100.646511 36.40553,108.707445 36.40553,118.380565 Z M26.7281106,105.252759 C23.2718894,105.252759 20.5069124,110.780256 20.5069124,117.459315 C20.5069124,124.138374 23.2718894,129.665872 26.7281106,129.665872 C30.1843318,129.665872 32.9493088,124.138374 32.9493088,117.459315 C32.9493088,110.780256 30.1843318,105.252759 26.7281106,105.252759 Z" id="Shape" fill="#FFFFFF"></path>
                            <path d="M26.9585253,128.283997 C26.9585253,128.744622 26.7281106,128.974935 26.4976959,128.974935 C26.2672811,128.974935 26.0368664,128.744622 26.0368664,128.283997 C26.0368664,127.823373 26.2672811,127.59306 26.4976959,127.59306 C26.7281106,127.59306 26.9585253,128.053685 26.9585253,128.283997 Z" id="Path" fill="#C2C2C2"></path>
                            <path d="M26.7281106,128.283997 C26.7281106,128.744622 26.4976959,128.974935 26.2672811,128.974935 C26.0368664,128.974935 25.8064516,128.744622 25.8064516,128.283997 C25.8064516,127.823373 26.0368664,127.59306 26.2672811,127.59306 C26.4976959,127.59306 26.7281106,128.053685 26.7281106,128.283997 Z" id="Path" fill="#888888"></path>
                            <path d="M31.5668203,123.908062 C31.5668203,124.368687 31.3364055,124.598999 31.1059908,124.598999 C30.875576,124.598999 30.6451613,124.368687 30.6451613,123.908062 C30.6451613,123.447437 30.875576,123.217125 31.1059908,123.217125 C31.3364055,123.217125 31.5668203,123.67775 31.5668203,123.908062 Z" id="Path" fill="#C2C2C2"></path>
                            <ellipse id="Oval" fill="#888888" cx="30.875576" cy="123.908062" rx="1" ry="1"></ellipse>
                            <path d="M32.718894,115.386504 C32.718894,115.847129 32.4884793,116.077441 32.2580645,116.077441 C32.0276498,116.077441 31.797235,115.847129 31.797235,115.386504 C31.797235,114.925879 32.0276498,114.695567 32.2580645,114.695567 C32.4884793,114.465254 32.718894,114.925879 32.718894,115.386504 Z" id="Path" fill="#C2C2C2"></path>
                            <ellipse id="Oval" fill="#888888" cx="32.0276498" cy="115.386504" rx="1" ry="1"></ellipse>
                            <path d="M22.1198157,103.179948 C21.6589862,103.41026 21.4285714,103.640572 20.9677419,103.870885 C18.202765,107.095258 16.5898618,112.392443 16.5898618,118.610877 C16.5898618,118.610877 16.5898618,118.610877 16.5898618,118.84119 C17.9723502,118.380565 19.3548387,117.91994 20.5069124,117.689628 C20.5069124,111.010569 23.2718894,105.713384 26.7281106,105.713384 C30.1843318,105.713384 32.9493088,111.240881 32.9493088,117.91994 C32.9493088,120.453376 32.4884793,122.986813 31.797235,125.059624 L31.797235,125.059624 C32.9493088,125.289936 34.562212,124.829312 35.9447005,124.598999 C36.1751152,122.7565 36.40553,120.914001 36.40553,118.84119 C36.40553,114.465254 35.483871,110.319632 33.8709677,107.095258 C29.2626728,103.640572 24.6543779,102.258698 22.1198157,103.179948 Z" id="Path" fill="#FFFFFF"></path>
                            <path d="M22.5806452,123.217125 C22.5806452,123.67775 22.3502304,123.908062 22.1198157,123.908062 C21.8894009,123.908062 21.6589862,123.67775 21.6589862,123.217125 C21.6589862,122.7565 21.8894009,122.526188 22.1198157,122.526188 C22.3502304,122.526188 22.5806452,122.7565 22.5806452,123.217125 Z" id="Path" fill="#C2C2C2"></path>
                            <path d="M22.3502304,123.217125 C22.3502304,123.67775 22.1198157,123.908062 21.8894009,123.908062 C21.6589862,123.908062 21.4285714,123.67775 21.4285714,123.217125 C21.4285714,122.7565 21.6589862,122.526188 21.8894009,122.526188 C22.3502304,122.526188 22.3502304,122.7565 22.3502304,123.217125 Z" id="Path" fill="#888888"></path>
                            <path d="M31.3364055,121.604938 C31.3364055,121.604938 32.2580645,115.616816 30.6451613,112.162131 C30.875576,113.544005 31.5668203,119.532127 31.3364055,121.604938 Z" id="Path" fill="#51463C"></path>
                            <path d="M29.7235023,124.138374 C29.7235023,124.368687 32.2580645,119.992752 29.9539171,111.240881 C30.1843318,113.08338 31.3364055,119.762439 29.7235023,124.138374 Z" id="Path" fill="#51463C"></path>
                            <path d="M33.1797235,117.689628 C33.1797235,110.780256 30.1843318,105.022447 26.4976959,105.022447 C22.8110599,105.022447 19.8156682,110.780256 19.8156682,117.689628 C19.8156682,124.598999 22.8110599,130.356809 26.4976959,130.356809 C30.1843318,130.587121 33.1797235,124.829312 33.1797235,117.689628 Z" id="Path" fill="#1D3356"></path>
                            <path d="M95.6221198,118.150253 C95.6221198,124.829312 92.6267281,130.126496 89.1705069,130.126496 C85.483871,130.126496 82.718894,124.829312 82.718894,118.150253 C82.718894,111.471193 85.7142857,106.174009 89.1705069,106.174009 C92.8571429,106.174009 95.6221198,111.471193 95.6221198,118.150253 Z" id="Path" fill="#1D3356"></path>
                            <path d="M91.9354839,118.150253 C91.9354839,120.914001 90.7834101,123.217125 89.1705069,123.217125 C87.7880184,123.217125 86.40553,120.914001 86.40553,118.150253 C86.40553,115.386504 87.5576037,113.08338 89.1705069,113.08338 C90.7834101,113.08338 91.9354839,115.386504 91.9354839,118.150253 Z" id="Path" fill="#FFFFFF"></path>
                            <path d="M29.0322581,120.223064 C29.0322581,122.986813 27.8801843,125.289936 26.2672811,125.289936 C24.8847926,125.289936 23.5023041,122.986813 23.5023041,120.223064 C23.5023041,117.459315 24.6543779,115.156192 26.2672811,115.156192 C27.8801843,115.386504 29.0322581,117.459315 29.0322581,120.223064 Z" id="Path" fill="#FFFFFF"></path>
                            <path d="M78.8018433,117.91994 L74.1935484,117.689628 C74.1935484,117.689628 73.2718894,117.689628 72.5806452,118.150253 C70.2764977,117.91994 66.1290323,117.689628 65.437788,117.689628 C65.437788,117.689628 65.2073733,117.689628 65.2073733,117.689628 C64.9769585,116.998691 65.8986175,116.077441 65.8986175,116.077441 L62.9032258,115.616816 C62.9032258,115.616816 62.6728111,117.91994 62.9032258,119.071502 C62.9032258,119.532127 63.3640553,119.762439 63.59447,119.992752 C63.59447,120.223064 63.8248848,120.223064 63.8248848,120.223064 L72.3502304,120.914001 C72.5806452,121.374626 73.0414747,121.604938 73.0414747,121.604938 L78.1105991,122.526188 C78.1105991,122.526188 78.3410138,122.526188 78.3410138,122.526188 C79.4930876,122.7565 80.6451613,121.604938 80.6451613,120.223064 C80.875576,119.301814 79.9539171,118.150253 78.8018433,117.91994 Z" id="Path" fill="#1D3356"></path>
                            <path d="M95.1612903,136.114618 C100.691244,136.114618 105.069124,128.283997 105.069124,118.380565 C105.069124,108.707445 100.691244,100.646511 95.1612903,100.646511 L89.6313364,100.646511 C89.6313364,100.646511 107.834101,115.156192 89.1705069,136.114618 C89.6313364,136.114618 95.1612903,136.114618 95.1612903,136.114618 Z" id="Path" fill="#1D3356"></path>
                            <path d="M98.8479263,118.380565 C98.8479263,128.053685 94.4700461,136.114618 88.9400922,136.114618 C83.4101382,136.114618 79.0322581,128.283997 79.0322581,118.380565 C79.0322581,108.707445 83.4101382,100.646511 88.9400922,100.646511 C94.4700461,100.646511 98.8479263,108.707445 98.8479263,118.380565 Z M89.1705069,105.252759 C85.7142857,105.252759 82.9493088,110.780256 82.9493088,117.459315 C82.9493088,124.138374 85.7142857,129.665872 89.1705069,129.665872 C92.6267281,129.665872 95.3917051,124.138374 95.3917051,117.459315 C95.3917051,110.780256 92.6267281,105.252759 89.1705069,105.252759 Z" id="Shape" fill="#FFFFFF"></path>
                            <path d="M88.9400922,100.646511 C83.4101382,100.646511 79.0322581,108.477132 79.0322581,118.380565 C79.0322581,119.301814 79.0322581,120.223064 79.0322581,120.914001 C79.7235023,118.150253 81.3364055,115.847129 83.1797235,114.00463 C83.8709677,108.937757 86.40553,105.252759 89.1705069,105.252759 C90.7834101,105.252759 92.3963134,106.634633 93.5483871,108.937757 C95.1612903,108.707445 96.5437788,109.16807 97.4654378,109.628694 C95.8525346,104.33151 92.6267281,100.646511 88.9400922,100.646511 Z" id="Path" fill="#1D3356"></path>
                            <path d="M63.59447,10.3640572 C63.59447,10.3640572 63.3640553,14.5096801 61.9815668,15.8915544 C60.5990783,17.0431163 55.5299539,10.1337449 63.59447,10.3640572 Z" id="Path" fill="#C44545"></path>
                            <path d="M58.5253456,26.0252993 C58.5253456,26.0252993 60.8294931,25.5646745 60.8294931,23.2615507 C61.0599078,20.9584269 57.1428571,25.3343621 58.5253456,26.0252993 Z" id="Path" fill="#3D332A"></path>
                            <path d="M63.8248848,44.2199776 C63.8248848,44.2199776 67.5115207,55.7355967 78.5714286,56.8871586 C89.6313364,58.0387205 94.4700461,57.8084082 94.4700461,57.8084082 C94.4700461,57.8084082 96.5437788,55.7355967 92.6267281,54.8143472 C88.7096774,53.8930976 73.7327189,57.5780958 68.4331797,40.7652918 C60.8294931,35.0074822 63.8248848,44.2199776 63.8248848,44.2199776 Z" id="Path" fill="#FFD6A0"></path>
                            <path d="M59.4470046,28.3284231 C59.4470046,28.3284231 61.9815668,28.3284231 63.8248848,30.8618593 C65.8986175,33.3952955 68.202765,38.9227927 68.6635945,39.8440423 C69.3548387,40.7652918 69.3548387,41.6865413 68.6635945,42.1471661 C67.9723502,42.8381033 65.6682028,44.4502899 63.1336406,44.9109147 C60.5990783,45.1412271 63.1336406,37.0802937 62.4423963,35.0074822 C61.7511521,32.7043584 58.9861751,28.5587355 59.4470046,28.3284231 Z" id="Path" fill="#D86348"></path>
                            <path d="M38.2488479,75.3121493 C38.2488479,75.3121493 35.7142857,74.1605874 35.9447005,71.1665264 C36.1751152,68.1724654 38.2488479,61.0327815 38.4792627,54.3537224 C38.7096774,47.6746633 39.1705069,34.0862327 39.1705069,34.0862327 C39.1705069,34.0862327 37.3271889,31.7831089 40.0921659,30.631547 C42.8571429,29.2496727 53.2258065,26.7162364 57.8341014,27.637486 C62.4423963,28.5587355 65.437788,32.0134212 64.2857143,44.9109147 C63.1336406,57.8084082 63.8248848,60.5721568 64.0552995,62.8752806 C64.2857143,65.1784044 65.2073733,71.1665264 65.2073733,71.1665264 C65.2073733,71.1665264 60.3686636,72.3180883 56.4516129,71.8574635 C52.0737327,71.3968388 38.2488479,75.3121493 38.2488479,75.3121493 Z" id="Path" fill="#F16A51"></path>
                            <path d="M93.0875576,54.3537224 C93.3179724,54.3537224 97.4654378,55.0446596 100,55.5052843 C102.534562,55.7355967 104.608295,56.1962215 104.37788,57.117471 C104.147465,58.2690329 101.382488,57.8084082 100.230415,57.8084082 C99.078341,57.8084082 93.0875576,57.3477834 93.0875576,57.3477834 C93.0875576,57.3477834 91.2442396,55.5052843 93.0875576,54.3537224 Z" id="Path" fill="#424242"></path>
                            <path d="M81.5668203,60.111532 C81.5668203,60.111532 83.8709677,57.5780958 86.6359447,57.3477834 C89.4009217,57.117471 92.8571429,57.3477834 92.8571429,57.3477834 C92.8571429,57.3477834 94.2396313,56.1962215 93.3179724,54.8143472 C92.3963134,53.4324729 87.5576037,53.8930976 84.3317972,51.3596614 C81.1059908,49.28685 79.4930876,54.3537224 81.5668203,60.111532 Z" id="Path" fill="#FC7070"></path>
                            <path d="M88.9400922,55.9659091 C87.0967742,55.7355967 81.797235,56.1962215 80.875576,57.5780958 C81.1059908,58.2690329 81.3364055,59.1902825 81.5668203,59.8812196 C81.5668203,59.8812196 81.5668203,59.8812196 81.797235,59.8812196 C82.2580645,59.4205948 84.3317972,57.3477834 86.8663594,57.3477834 C89.6313364,57.117471 93.0875576,57.3477834 93.0875576,57.3477834 C93.0875576,57.3477834 94.0092166,56.6568462 94.0092166,55.5052843 C94.0092166,55.5052843 94.0092166,55.5052843 94.0092166,55.5052843 C93.7788018,55.5052843 90.7834101,56.1962215 88.9400922,55.9659091 Z" id="Path" fill="#DD5252"></path>
                            <path d="M25.1152074,89.1308923 C25.1152074,89.1308923 19.3548387,87.9793303 18.6635945,94.4280771 C22.5806452,93.9674523 29.4930876,92.585578 25.1152074,89.1308923 Z" id="Path" fill="#DD5252"></path>
                            <path d="M27.1889401,83.3730827 C27.1889401,83.3730827 23.5023041,88.6702675 22.5806452,93.9674523 C31.1059908,96.2705761 43.7788018,102.028386 41.2442396,105.252759 C38.4792627,108.707445 38.7096774,113.08338 38.7096774,113.08338 C38.7096774,113.08338 34.1013825,118.150253 38.7096774,117.689628 C44.7004608,117.91994 62.9032258,118.380565 64.0552995,117.689628 C65.2073733,116.998691 73.7327189,112.622755 71.4285714,111.931818 C69.124424,111.240881 64.516129,112.162131 62.9032258,110.319632 C61.2903226,108.477132 55.9907834,80.3790217 55.9907834,80.3790217 C55.9907834,80.3790217 28.1105991,82.2215208 27.1889401,83.3730827 Z" id="Path" fill="#D74F55"></path>
                            <path d="M75.8064516,60.3418444 C75.8064516,60.3418444 75.3456221,57.5780958 73.5023041,57.5780958 C71.6589862,57.5780958 62.6728111,58.0387205 59.4470046,58.2690329 C57.8341014,58.2690329 57.1428571,55.5052843 59.4470046,55.0446596 C61.9815668,54.3537224 68.8940092,53.2021605 70.7373272,52.0505986 C72.5806452,50.8990367 74.4239631,49.28685 76.7281106,48.8262252 C76.4976959,52.9718481 76.0368664,56.1962215 78.1105991,57.8084082 C80.1843318,59.4205948 79.0322581,61.0327815 78.8018433,61.2630939 C79.0322581,61.2630939 75.8064516,60.3418444 75.8064516,60.3418444 Z" id="Path" fill="#F56462"></path>
                            <path d="M78.1105991,58.4993453 C78.1105991,58.4993453 76.4976959,55.9659091 74.8847926,55.7355967 C73.2718894,55.5052843 64.516129,56.4265339 61.2903226,56.1962215 C59.2165899,55.9659091 58.7557604,57.3477834 59.2165899,58.2690329 C59.2165899,58.2690329 59.4470046,58.2690329 59.4470046,58.2690329 C62.6728111,57.8084082 71.6589862,57.3477834 73.5023041,57.5780958 C75.3456221,57.5780958 75.8064516,60.3418444 75.8064516,60.3418444 C75.8064516,60.3418444 76.4976959,60.5721568 77.1889401,60.8024691 C77.8801843,60.3418444 78.1105991,59.6509072 78.1105991,58.4993453 Z" id="Path" fill="#DD5252"></path>
                            <path d="M51.843318,87.749018 C51.843318,87.749018 47.4654378,93.7371399 46.7741935,101.107136 C46.0829493,108.477132 45.1612903,112.162131 43.5483871,113.08338 C42.1658986,114.234942 43.3179724,115.386504 46.0829493,114.00463 C48.8479263,112.622755 55.5299539,112.853068 58.5253456,114.465254 C61.5207373,116.077441 52.9953917,108.477132 51.3824885,105.713384 C49.7695853,103.179948 51.843318,87.749018 51.843318,87.749018 Z" id="Path" fill="#DD5252"></path>
                            <path d="M56.4516129,61.2630939 C61.2903226,58.9599701 59.6774194,57.117471 55.9907834,57.3477834 C52.3041475,57.8084082 41.4746544,60.5721568 40.5529954,59.4205948 C39.8617512,58.2690329 39.6313364,53.4324729 39.8617512,51.3596614 C40.3225806,49.28685 41.2442396,43.5290404 38.4792627,43.298728 C38.2488479,47.2140385 38.2488479,51.3596614 38.0184332,54.3537224 C37.7880184,61.0327815 35.7142857,68.4027778 35.483871,71.1665264 C35.483871,72.5484007 35.9447005,73.4696502 36.40553,74.1605874 C37.5576037,74.3908997 38.9400922,74.6212121 40.5529954,74.6212121 L40.5529954,74.6212121 L44.9308756,68.1724654 C44.9308756,68.1724654 39.4009217,67.7118406 40.5529954,64.7177796 C46.0829493,65.1784044 51.6129032,63.5662177 56.4516129,61.2630939 Z" id="Path" fill="#D86348"></path>
                            <path d="M33.8709677,44.6806023 C33.8709677,44.6806023 27.8801843,61.2630939 40.0921659,62.6449682 C43.5483871,63.105593 49.5391705,61.0327815 51.1520737,59.8812196 C51.843318,58.7296577 51.843318,55.2749719 48.8479263,56.4265339 C45.8525346,57.5780958 38.7096774,59.8812196 37.7880184,55.0446596 C36.8663594,50.2080995 39.1705069,45.3715395 39.6313364,44.2199776 C37.7880184,42.8381033 34.7926267,42.8381033 33.8709677,44.6806023 Z" id="Path" fill="#FFD6A0"></path>
                            <path d="M61.7511521,9.21249532 C61.7511521,9.21249532 63.59447,12.8974935 61.5207373,14.9703049 C59.4470046,17.0431163 59.6774194,11.0549944 60.1382488,10.5943696 C60.5990783,10.1337449 61.7511521,9.21249532 61.7511521,9.21249532 Z" id="Path" fill="#3D332A"></path>
                            <path d="M50,24.4131126 C50,24.4131126 47.6958525,24.1828002 47.235023,22.1099888 C46.7741935,22.5706135 45.6221198,23.2615507 45.8525346,21.649364 C46.0829493,20.2674897 45.1612903,16.812804 44.4700461,15.6612421 C43.7788018,14.5096801 40.7834101,11.5156192 44.7004608,9.67312009 C44.0092166,9.21249532 44.0092166,8.98218294 45.1612903,8.75187056 C44.9308756,8.29124579 44.4700461,7.60030864 45.6221198,8.29124579 C46.0829493,7.13968388 47.6958525,7.36999626 47.6958525,8.98218294 C47.6958525,10.5943696 48.156682,18.655303 48.6175115,19.3462402 C48.8479263,20.4978021 50,24.4131126 50,24.4131126 Z" id="Path" fill="#3D332A"></path>
                            <path d="M54.1474654,27.8677984 C54.1474654,27.637486 53.9170507,26.7162364 55.2995392,26.2556117 C56.9124424,25.7949869 61.7511521,26.2556117 61.7511521,19.1159278 C61.7511521,12.6671811 60.5990783,9.67312009 60.3686636,9.21249532 C60.1382488,8.98218294 48.156682,6.21843434 47.235023,11.5156192 C46.3133641,16.812804 47.9262673,20.9584269 48.8479263,22.5706135 C49.7695853,24.1828002 49.078341,27.1768612 49.7695853,28.3284231 C50.4608295,29.7102974 54.3778802,30.631547 54.1474654,27.8677984 Z" id="Path" fill="#FFD6A0"></path>
                            <path d="M61.2903226,11.2853068 C61.0599078,10.1337449 60.8294931,9.44280771 60.5990783,9.21249532 C60.3686636,8.98218294 57.6036866,8.29124579 54.3778802,8.29124579 C52.9953917,8.98218294 51.6129032,9.67312009 50.921659,9.90343247 C47.9262673,10.824682 47.9262673,16.1218668 48.8479263,14.2793678 C49.5391705,12.6671811 51.1520737,11.0549944 56.4516129,11.9762439 C59.2165899,12.6671811 60.5990783,11.9762439 61.2903226,11.2853068 Z" id="Path" fill="#EAB77F"></path>
                            <path d="M64.9769585,76.6940236 C64.9769585,76.6940236 70.5069124,80.1487093 69.124424,89.8218294 C67.7419355,99.4949495 66.359447,108.24682 66.359447,108.24682 L73.5023041,103.41026 C73.5023041,103.41026 79.2626728,74.1605874 71.1981567,75.0818369 C66.1290323,75.772774 64.9769585,76.6940236 64.9769585,76.6940236 Z" id="Path" fill="#1D3356"></path>
                            <path d="M46.7741935,15.6612421 C46.7741935,15.6612421 45.3917051,11.0549944 45.3917051,8.52155817 C49.5391705,1.15156192 55.7603687,3.45468575 56.6820276,3.91531051 C57.8341014,4.1456229 60.1382488,2.99406098 60.5990783,3.45468575 C64.2857143,12.2065563 57.8341014,11.7459315 55.0691244,11.7459315 C52.3041475,11.7459315 50.4608295,10.824682 49.5391705,12.4368687 C49.5391705,12.4368687 47.9262673,14.0490554 48.8479263,16.1218668 C49.7695853,18.1946783 49.7695853,19.8068649 48.156682,17.7340535 C47.0046083,15.8915544 46.7741935,16.3521792 46.7741935,15.6612421 Z" id="Path" fill="#3D332A"></path>
                            <path d="M53.6866359,20.9584269 C53.6866359,20.9584269 57.8341014,20.7281145 58.0645161,20.7281145 C58.0645161,20.7281145 58.2949309,23.4918631 55.0691244,23.2615507 C53.9170507,23.0312383 53.6866359,21.1887392 53.6866359,20.9584269 Z" id="Path" fill="#FAFAFA"></path>
                            <path d="M49.3087558,20.7281145 C49.3087558,20.7281145 47.235023,21.4190516 46.3133641,19.1159278 C45.6221198,16.812804 46.5437788,15.6612421 47.6958525,16.1218668 C49.078341,16.812804 49.3087558,20.7281145 49.3087558,20.7281145 Z" id="Path" fill="#FFD6A0"></path>
                            <path d="M48.3870968,21.4190516 C48.3870968,21.4190516 50.4608295,26.2556117 55.2995392,26.2556117 C60.1382488,26.4859241 59.2165899,25.1040498 59.2165899,25.1040498 C59.2165899,25.1040498 50.2304147,27.4071736 49.078341,18.1946783 C48.6175115,20.9584269 48.3870968,21.4190516 48.3870968,21.4190516 Z" id="Path" fill="#3D332A"></path>
                            <path d="M32.2580645,46.5231014 C32.2580645,46.0624766 35.483871,37.5409184 36.6359447,34.5468575 C37.5576037,31.5527965 38.9400922,31.3224841 38.9400922,31.3224841 C47.0046083,31.3224841 41.4746544,45.3715395 40.7834101,47.6746633 C40.7834101,47.6746633 33.640553,49.0565376 32.2580645,46.5231014 Z" id="Path" fill="#EA7351"></path>
                            <path d="M75.8064516,49.5171624 C75.8064516,49.5171624 72.3502304,53.8930976 76.9585253,57.5780958 C79.2626728,57.8084082 75.8064516,54.5840348 75.8064516,54.3537224 C75.8064516,54.3537224 75.8064516,49.5171624 75.8064516,49.5171624 Z" id="Path" fill="#C44545"></path>
                            <path d="M79.0322581,61.2630939 L82.4884793,61.2630939 C82.4884793,61.2630939 82.2580645,58.0387205 83.640553,56.6568462 C82.0276498,55.2749719 81.5668203,48.1352881 81.5668203,48.1352881 C81.5668203,48.1352881 78.8018433,47.2140385 76.7281106,49.0565376 C74.8847926,50.4384119 75.5760369,58.0387205 79.0322581,61.2630939 Z" id="Path" fill="#C44545"></path>
                            <path d="M81.5668203,58.0387205 C81.5668203,58.0387205 75.3456221,59.1902825 74.8847926,52.5112233 C74.6543779,49.5171624 76.4976959,47.4443509 80.6451613,46.9837262 C79.2626728,48.1352881 76.2672811,53.4324729 81.5668203,58.0387205 Z" id="Path" fill="#DD5252"></path>
                            <path d="M80.1843318,58.0387205 C79.9539171,57.8084082 79.7235023,57.5780958 79.7235023,57.5780958 C78.8018433,56.8871586 77.8801843,52.9718481 78.3410138,48.1352881 C74.8847926,50.8990367 76.9585253,55.5052843 78.1105991,56.8871586 C77.1889401,56.8871586 76.7281106,56.4265339 76.2672811,56.1962215 C77.1889401,57.5780958 78.8018433,58.0387205 80.1843318,58.0387205 Z" id="Path" fill="#C44545"></path>
                            <path d="M86.6359447,52.280911 C86.6359447,55.7355967 84.3317972,58.4993453 81.797235,58.4993453 C79.2626728,58.4993453 76.9585253,55.7355967 76.9585253,52.280911 C76.9585253,48.8262252 79.2626728,46.0624766 81.797235,46.0624766 C84.3317972,46.0624766 86.6359447,48.8262252 86.6359447,52.280911 Z" id="Path" fill="#D1D1D1"></path>
                            <path d="M77.6497696,48.5959128 C78.8018433,48.3656004 79.9539171,49.0565376 79.9539171,49.0565376 C80.6451613,49.28685 83.8709677,49.28685 84.1013825,47.9049757 C84.1013825,47.4443509 84.1013825,46.9837262 83.640553,46.5231014 C82.9493088,46.0624766 82.2580645,45.8321642 81.5668203,45.8321642 C79.9539171,46.0624766 78.5714286,46.9837262 77.6497696,48.5959128 Z" id="Path" fill="#FAFAFA"></path>
                            <path d="M48.156682,20.0371773 C48.156682,20.0371773 46.7741935,19.8068649 46.7741935,17.7340535 C46.7741935,17.5037411 46.7741935,17.5037411 47.0046083,17.5037411 C47.235023,17.5037411 47.235023,17.5037411 47.235023,17.7340535 C47.235023,19.3462402 48.156682,19.5765526 48.156682,19.5765526 L48.156682,19.5765526 C48.156682,19.5765526 48.156682,19.5765526 48.156682,19.5765526 C48.3870968,19.5765526 48.3870968,19.8068649 48.3870968,19.8068649 C48.3870968,20.0371773 48.3870968,20.0371773 48.156682,20.0371773 L48.156682,20.0371773 Z" id="Path" fill="#EAB77F"></path>
                            <g transform="translate(41.474654, 0.000000)" id="Path">
                                <path d="M8.06451613,13.5884306 C8.06451613,13.5884306 8.52534562,20.0371773 7.83410138,21.4190516 C7.14285714,22.5706135 3.91705069,23.2615507 1.84331797,17.9643659 C-0.230414747,12.6671811 1.11022302e-16,1.84249906 13.3640553,1.3818743 C17.281106,1.3818743 22.1198157,3.91531051 22.3502304,10.824682 C18.6635945,10.3640572 7.83410138,9.44280771 8.06451613,13.5884306 Z" fill="#F56462"></path>
                                <path d="M7.83410138,21.1887392 C8.29493088,20.4978021 8.29493088,17.9643659 8.29493088,15.8915544 C8.29493088,15.8915544 8.06451613,15.8915544 7.83410138,15.8915544 C7.83410138,15.8915544 1.38248848,18.1946783 0.921658986,9.90343247 C0.460829493,12.6671811 0.921658986,15.6612421 1.61290323,17.7340535 C3.91705069,23.0312383 7.14285714,22.3403012 7.83410138,21.1887392 Z" fill="#DD5252"></path>
                                <path d="M7.37327189,16.3521792 C7.37327189,21.4190516 5.52995392,21.8796764 5.52995392,21.8796764 C5.52995392,21.8796764 5.52995392,21.8796764 5.52995392,21.8796764 C6.68202765,22.1099888 7.37327189,21.649364 7.83410138,21.1887392 C8.52534562,20.0371773 8.06451613,13.3581182 8.06451613,13.3581182 C8.06451613,11.7459315 9.9078341,10.824682 12.2119816,10.3640572 C12.2119816,10.3640572 12.2119816,10.3640572 12.2119816,10.3640572 C8.52534562,10.824682 7.37327189,11.2853068 7.37327189,16.3521792 Z" fill="#C44545"></path>
                                <path d="M11.7511521,1.15156192 C11.0599078,1.15156192 10.3686636,1.3818743 9.67741935,1.61218668 C14.2857143,2.7637486 15.2073733,9.44280771 15.2073733,9.44280771 C15.2073733,9.44280771 15.8986175,9.44280771 17.0506912,9.44280771 C15.8986175,4.1456229 13.59447,1.84249906 11.7511521,1.15156192 Z" fill="#FAFAFA"></path>
                                <path d="M20.0460829,9.21249532 C20.0460829,9.21249532 19.3548387,3.68499813 15.8986175,1.3818743 C15.2073733,1.15156192 14.516129,1.15156192 13.8248848,0.921249532 C15.2073733,1.84249906 17.281106,3.91531051 18.202765,8.98218294 C20.0460829,9.21249532 20.0460829,9.21249532 20.0460829,9.21249532 Z" fill="#FAFAFA"></path>
                                <path d="M7.83410138,12.6671811 C7.83410138,12.6671811 8.98617512,9.67312009 11.9815668,8.98218294 C14.9769585,8.29124579 20.7373272,8.52155817 22.1198157,8.75187056 C22.5806452,9.21249532 22.5806452,10.5943696 22.5806452,10.5943696 C22.5806452,10.5943696 21.8894009,10.5943696 20.0460829,10.5943696 C18.202765,10.3640572 11.5207373,9.67312009 7.83410138,12.6671811 Z" fill="#424242"></path>
                                <path d="M7.83410138,12.6671811 C7.83410138,12.6671811 14.516129,10.824682 19.8156682,11.2853068 C25.1152074,11.7459315 28.8018433,11.5156192 22.5806452,9.90343247 C19.8156682,9.67312009 10.8294931,8.52155817 7.83410138,12.6671811 Z" fill="#3D332A"></path>
                            </g>
                            <path d="M81.5668203,58.4993453 C83.640553,58.4993453 85.2534562,57.117471 85.9447005,55.0446596 C85.7142857,55.0446596 85.7142857,55.2749719 85.483871,55.2749719 C84.3317972,55.7355967 79.7235023,55.5052843 79.7235023,55.5052843 C79.7235023,55.5052843 78.3410138,55.7355967 77.1889401,55.0446596 C78.1105991,57.117471 79.7235023,58.4993453 81.5668203,58.4993453 Z" id="Path" fill="#B5B5B5"></path>
                            <path d="M85.9447005,52.280911 C85.9447005,55.2749719 84.3317972,57.5780958 82.2580645,57.5780958 C80.1843318,57.5780958 78.5714286,55.2749719 78.5714286,52.280911 C78.5714286,49.28685 80.1843318,46.9837262 82.2580645,46.9837262 C84.1013825,46.9837262 85.9447005,49.28685 85.9447005,52.280911 Z" id="Path" fill="#656565"></path>
                            <path d="M85.2534562,55.0446596 C84.1013825,55.5052843 82.4884793,55.9659091 81.5668203,54.12341 C80.1843318,51.5899738 78.5714286,53.8930976 79.4930876,55.7355967 C79.7235023,55.9659091 79.9539171,56.1962215 79.9539171,56.4265339 C80.4147465,56.8871586 80.875576,57.117471 81.3364055,57.3477834 C81.5668203,57.3477834 81.797235,57.3477834 82.0276498,57.3477834 C83.4101382,57.3477834 84.562212,56.4265339 85.2534562,55.0446596 Z" id="Path" fill="#767776"></path>
                            <path d="M96.5437788,53.8930976 C96.5437788,53.8930976 100.921659,52.9718481 101.612903,54.12341 C102.304147,55.2749719 102.073733,56.8871586 101.843318,57.3477834 C101.382488,57.8084082 100.460829,58.4993453 100,58.9599701 C99.3087558,59.4205948 97.0046083,59.1902825 96.0829493,59.4205948 C95.1612903,59.6509072 93.0875576,59.4205948 93.0875576,58.7296577 C92.8571429,57.5780958 94.2396313,58.0387205 94.4700461,56.8871586 C94.4700461,55.7355967 93.7788018,53.8930976 96.5437788,53.8930976 Z" id="Path" fill="#FFD6A0"></path>
                            <path d="M85.0230415,49.7474747 C85.0230415,49.7474747 85.2534562,49.7474747 85.2534562,49.7474747 C84.562212,48.1352881 83.4101382,47.2140385 82.0276498,46.9837262 C80.875576,47.9049757 79.9539171,48.8262252 79.7235023,49.0565376 C79.2626728,49.7474747 78.5714286,53.2021605 80.1843318,50.8990367 C82.2580645,48.5959128 85.0230415,49.7474747 85.0230415,49.7474747 Z" id="Path" fill="#767776"></path>
                            <path d="M83.640553,52.0505986 C83.640553,53.2021605 82.9493088,54.12341 82.2580645,54.12341 C81.3364055,54.12341 80.875576,53.2021605 80.875576,52.0505986 C80.875576,50.8990367 81.5668203,49.9777871 82.2580645,49.9777871 C82.9493088,49.9777871 83.640553,50.8990367 83.640553,52.0505986 Z" id="Path" fill="#424242"></path>
                            <path d="M83.4101382,52.0505986 C83.4101382,52.7415357 82.9493088,53.2021605 82.4884793,53.2021605 C82.0276498,53.2021605 81.5668203,52.7415357 81.5668203,52.0505986 C81.5668203,51.3596614 82.0276498,50.8990367 82.4884793,50.8990367 C82.9493088,50.8990367 83.4101382,51.3596614 83.4101382,52.0505986 Z" id="Path" fill="#3D332A"></path>
                            <path d="M56.2211982,81.5305836 C55.2995392,81.0699588 53.6866359,81.0699588 51.843318,81.0699588 C50,81.0699588 47.6958525,81.3002712 45.1612903,81.5305836 C44.9308756,81.5305836 44.7004608,81.5305836 44.4700461,81.5305836 C36.6359447,81.9912084 27.4193548,82.9124579 26.9585253,83.3730827 C26.9585253,83.3730827 26.2672811,84.5246446 25.3456221,86.1368313 C27.4193548,87.2883932 30.1843318,87.9793303 32.718894,87.5187056 C37.0967742,86.597456 47.9262673,85.9065189 49.7695853,85.6762065 C51.6129032,85.4458941 53.2258065,85.2155817 53.2258065,85.2155817 C54.8387097,84.2943322 55.9907834,83.6033951 56.2211982,82.9124579 C56.4516129,82.4518331 56.4516129,81.9912084 56.2211982,81.5305836 Z" id="Path" fill="#C44545"></path>
                            <path d="M62.6728111,56.8871586 C62.6728111,56.8871586 64.7465438,56.8871586 64.9769585,56.1962215 C65.2073733,55.5052843 63.8248848,53.4324729 62.4423963,53.2021605 C61.2903226,52.9718481 61.5207373,54.3537224 61.7511521,55.0446596 C62.2119816,55.5052843 63.1336406,56.6568462 62.6728111,56.8871586 Z" id="Path" fill="#DD5252"></path>
                            <path d="M57.6036866,113.313692 C57.6036866,113.313692 49.3087558,110.780256 50.6912442,97.1918257 C52.0737327,83.8337074 51.843318,82.4518331 51.843318,82.4518331 L59.6774194,82.4518331 C59.6774194,82.4518331 58.2949309,110.319632 67.9723502,112.622755 C61.9815668,112.853068 57.6036866,113.313692 57.6036866,113.313692 Z" id="Path" fill="#C44545"></path>
                            <path d="M94.9308756,53.6627853 C94.9308756,53.6627853 101.152074,53.4324729 102.304147,53.4324729 C103.456221,53.6627853 103.225806,53.8930976 102.304147,54.12341 C101.382488,54.3537224 94.7004608,55.2749719 94.7004608,55.2749719 C94.7004608,55.2749719 94.0092166,54.12341 94.9308756,53.6627853 Z" id="Path" fill="#767776"></path>
                            <path d="M93.7788018,56.1962215 C93.7788018,56.1962215 91.4746544,55.0446596 92.3963134,54.12341 C93.3179724,53.2021605 94.9308756,53.2021605 95.1612903,53.6627853 C95.6221198,54.12341 95.6221198,54.8143472 94.9308756,55.0446596 C94.2396313,55.5052843 93.7788018,56.1962215 93.7788018,56.1962215 Z" id="Path" fill="#FC7070"></path>
                            <path d="M58.7557604,55.5052843 C58.9861751,56.4265339 59.2165899,56.8871586 59.6774194,57.3477834 C60.3686636,58.0387205 63.59447,58.2690329 64.0552995,56.8871586 C64.0552995,56.8871586 63.3640553,55.7355967 62.4423963,54.5840348 C61.2903226,54.8143472 60.3686636,55.0446596 59.6774194,55.2749719 C59.2165899,55.2749719 58.9861751,55.2749719 58.7557604,55.5052843 Z" id="Path" fill="#DD5252"></path>
                            <path d="M55.0691244,67.4815282 C55.0691244,67.4815282 67.7419355,67.0209035 71.8894009,69.3240273 C76.2672811,71.8574635 75.8064516,81.3002712 70.5069124,80.1487093 C64.9769585,78.9971474 61.9815668,77.8455855 59.4470046,77.6152731 C56.9124424,77.3849607 53.4562212,68.8634025 55.0691244,67.4815282 Z" id="Path" fill="#1D3356"></path>
                            <path d="M61.5207373,58.2690329 C61.5207373,58.2690329 62.2119816,57.3477834 61.7511521,56.4265339 C61.2903226,55.5052843 60.5990783,54.8143472 59.2165899,55.0446596 C57.8341014,55.2749719 50.2304147,57.117471 50.2304147,57.117471 C50.2304147,57.117471 50.6912442,60.5721568 50.921659,60.5721568 C51.3824885,60.5721568 61.5207373,58.2690329 61.5207373,58.2690329 Z" id="Path" fill="#424242"></path>
                            <path d="M59.9078341,83.3730827 C59.9078341,83.3730827 53.9170507,84.0640198 51.1520737,84.754957 C50.6912442,80.8396465 50.2304147,77.3849607 47.4654378,76.6940236 C50.2304147,76.0030864 55.9907834,74.8515245 58.5253456,76.0030864 C61.0599078,76.924336 60.5990783,82.4518331 59.9078341,83.3730827 Z" id="Path" fill="#292826"></path>
                            <path d="M51.1520737,84.754957 C51.1520737,84.754957 45.3917051,85.2155817 38.0184332,86.597456 C30.4147465,87.9793303 27.4193548,84.9852694 26.0368664,83.6033951 C24.8847926,81.9912084 26.7281106,80.3790217 27.8801843,80.3790217 C29.2626728,80.3790217 43.5483871,78.5365226 47.4654378,76.924336 C52.5345622,77.3849607 52.5345622,81.3002712 51.1520737,84.754957 Z" id="Path" fill="#424242"></path>
                            <path d="M110.829493,106.404321 C110.829493,106.404321 109.447005,105.713384 106.682028,105.943696 C103.917051,106.174009 107.834101,107.325571 108.525346,107.325571 C109.21659,107.325571 110.829493,106.404321 110.829493,106.404321 Z" id="Path" fill="#DD5252"></path>
                            <path d="M108.064516,106.404321 C108.064516,106.404321 104.147465,99.0343247 100,97.422138 C98.156682,98.1130752 102.764977,104.33151 102.764977,104.33151 C102.764977,104.33151 103.225806,108.707445 105.760369,108.016508 C108.75576,107.325571 108.064516,106.404321 108.064516,106.404321 Z" id="Path" fill="#FC7070"></path>
                            <path d="M51.3824885,117.459315 C51.3824885,117.459315 47.9262673,117.91994 49.078341,115.616816 C50,113.313692 52.3041475,113.08338 54.1474654,113.08338 C55.9907834,113.313692 64.9769585,114.925879 65.2073733,115.616816 C65.437788,116.538066 71.1981567,117.459315 51.3824885,117.459315 Z" id="Path" fill="#32252F"></path>
                            <path d="M41.4746544,115.847129 C41.4746544,115.847129 39.1705069,116.077441 39.8617512,114.695567 C40.5529954,113.313692 41.9354839,113.08338 43.0875576,113.08338 C44.2396313,113.08338 50.2304147,114.234942 50.4608295,114.695567 C50.6912442,115.156192 54.6082949,116.077441 41.4746544,115.847129 Z" id="Path" fill="#32252F"></path>
                            <path d="M77.8801843,116.538066 C77.8801843,116.538066 76.0368664,118.610877 75.5760369,118.610877 C75.1152074,118.610877 59.2165899,118.380565 59.2165899,118.380565 C59.2165899,118.380565 63.8248848,115.847129 65.2073733,112.392443 C66.5898618,108.937757 73.7327189,86.8277684 73.7327189,85.4458941 C73.5023041,84.2943322 74.1935484,79.2274598 72.5806452,73.6999626 C71.1981567,67.942153 67.281106,60.5721568 72.3502304,60.111532 C77.6497696,59.6509072 81.797235,60.111532 81.797235,60.111532 L86.1751152,60.3418444 C86.1751152,60.3418444 91.4746544,60.111532 92.1658986,61.4934063 C92.8571429,62.8752806 99.5391705,75.5424617 100.691244,81.5305836 C101.612903,87.2883932 100.921659,92.3552656 96.7741935,98.5737 C93.0875576,104.792134 77.8801843,106.174009 77.8801843,116.538066 Z" id="Path" fill="#D74F55"></path>
                            <path d="M99.3087558,95.1190142 C97.235023,94.8887018 95.1612903,94.4280771 95.1612903,94.4280771 C91.4746544,96.5008885 94.4700461,97.8827628 97.4654378,98.1130752 C98.156682,97.1918257 98.8479263,96.0402637 99.3087558,95.1190142 Z" id="Path" fill="#C44545"></path>
                            <path d="M96.0829493,99.9555743 C96.0829493,99.9555743 96.0829493,99.9555743 96.0829493,99.9555743 L82.9493088,60.8024691 L80.1843318,60.111532 C80.1843318,60.111532 86.1751152,82.4518331 85.7142857,86.8277684 C85.2534562,91.2037037 83.4101382,97.6524504 82.0276498,98.8040123 C80.6451613,99.9555743 74.8847926,110.089319 74.8847926,117.229003 C70.9677419,117.229003 64.516129,117.229003 61.0599078,117.229003 C59.9078341,118.150253 58.9861751,118.610877 58.9861751,118.610877 C58.9861751,118.610877 74.8847926,118.84119 75.3456221,118.84119 C75.8064516,118.84119 77.6497696,116.768378 77.6497696,116.768378 C77.8801843,106.864946 91.0138249,105.022447 96.0829493,99.9555743 Z" id="Path" fill="#C44545"></path>
                            <path d="M61.7511521,56.4265339 C61.7511521,56.4265339 61.7511521,56.4265339 61.7511521,56.4265339 C61.2903226,56.6568462 60.5990783,57.117471 58.9861751,57.3477834 C56.6820276,57.5780958 51.1520737,58.9599701 50.6912442,58.9599701 C50.6912442,58.9599701 50.4608295,58.9599701 50.4608295,58.9599701 C50.6912442,59.8812196 50.6912442,60.5721568 50.921659,60.5721568 C51.1520737,60.5721568 61.5207373,58.2690329 61.5207373,58.2690329 C61.5207373,58.2690329 62.2119816,57.3477834 61.7511521,56.4265339 Z" id="Path" fill="#3D332A"></path>
                            <path d="M82.2580645,100.646511 C82.2580645,100.646511 88.7096774,92.3552656 86.6359447,83.1427703 C84.562212,74.1605874 81.797235,64.0268425 81.797235,64.0268425 C81.797235,64.0268425 85.9447005,73.6999626 86.6359447,76.2333988 C87.3271889,78.766835 91.9354839,95.8099514 89.4009217,97.422138 C87.0967742,99.2646371 82.2580645,100.646511 82.2580645,100.646511 Z" id="Path" fill="#DD5252"></path>
                            <path d="M81.1059908,60.5721568 C81.1059908,60.5721568 70.2764977,60.111532 70.7373272,64.0268425 C69.8156682,62.8752806 70.2764977,60.5721568 72.1198157,60.3418444 C74.1935484,60.3418444 81.1059908,59.8812196 81.1059908,60.5721568 Z" id="Path" fill="#C44545"></path>
                            <path d="M90.0921659,95.579639 C90.0921659,95.579639 90.0921659,95.3493266 90.0921659,95.1190142 C87.3271889,95.579639 84.7926267,97.422138 83.4101382,98.8040123 C82.718894,99.9555743 82.2580645,100.646511 82.2580645,100.646511 C82.2580645,100.646511 85.7142857,99.4949495 88.2488479,98.1130752 C88.9400922,97.1918257 89.6313364,96.2705761 90.0921659,95.579639 Z" id="Path" fill="#C44545"></path>
                            <path d="M89.1705069,96.5008885 C89.1705069,96.5008885 88.4792627,87.5187056 87.7880184,84.2943322 C87.0967742,81.3002712 81.3364055,63.3359053 81.1059908,62.4146558 C80.875576,61.4934063 80.1843318,59.8812196 81.3364055,59.8812196 C82.4884793,60.111532 86.40553,60.3418444 86.40553,60.3418444 C86.40553,60.3418444 88.2488479,67.942153 89.1705069,70.7059016 C89.8617512,73.4696502 93.3179724,84.2943322 94.4700461,89.591517 C95.1612903,92.8158904 95.6221198,93.7371399 95.6221198,93.7371399 C95.6221198,93.7371399 96.7741935,95.3493266 95.3917051,95.8099514 C94.2396313,96.0402637 89.1705069,96.5008885 89.1705069,96.5008885 Z" id="Path" fill="#FC7070"></path>
                            <path d="M89.1705069,96.5008885 C89.1705069,96.5008885 94.2396313,96.2705761 95.3917051,95.8099514 C96.0829493,95.579639 96.0829493,94.8887018 95.8525346,94.4280771 C93.5483871,95.1190142 88.9400922,95.579639 88.9400922,95.579639 C89.1705069,96.0402637 89.1705069,96.5008885 89.1705069,96.5008885 Z" id="Path" fill="#F56462"></path>
                            <path d="M78.3410138,116.998691 C78.3410138,116.998691 76.4976959,118.84119 76.4976959,116.998691 C76.4976959,116.998691 76.9585253,99.0343247 90.0921659,95.8099514 C92.1658986,98.3433876 96.3133641,106.404321 96.3133641,106.404321 C96.3133641,106.404321 97.0046083,108.016508 94.7004608,108.24682 C92.3963134,108.477132 86.40553,108.477132 84.3317972,110.549944 C82.718894,112.622755 78.3410138,116.998691 78.3410138,116.998691 Z" id="Path" fill="#DD5252"></path>
                            <path d="M90.0921659,95.8099514 C88.9400922,96.0402637 87.7880184,96.5008885 86.8663594,96.9615133 C90.7834101,99.4949495 94.2396313,106.174009 95.1612903,108.016508 C97.235023,107.786195 96.3133641,106.174009 96.3133641,106.174009 C96.3133641,106.174009 92.1658986,98.3433876 90.0921659,95.8099514 Z" id="Path" fill="#DD5252"></path>
                            <path d="M105.069124,106.864946 C105.990783,108.937757 97.4654378,107.786195 95.3917051,108.016508 C95.3917051,108.016508 91.0138249,98.1130752 88.2488479,96.2705761 C88.9400922,95.579639 95.3917051,93.7371399 99.7695853,97.422138" id="Path" fill="#D74F55"></path>
                            <path d="M99.5391705,102.949635 C99.5391705,102.949635 98.3870968,103.41026 97.6958525,102.48901 C97.0046083,101.567761 93.7788018,97.422138 92.6267281,96.2705761 C93.7788018,96.2705761 94.2396313,96.5008885 94.7004608,96.9615133 C95.1612903,97.422138 100.460829,101.107136 99.5391705,102.949635 Z" id="Path" fill="#DD5252"></path>
                            <path d="M92.3963134,96.2705761 C92.3963134,96.2705761 96.3133641,99.7252619 97.235023,101.567761 C98.156682,103.179948 100.230415,103.640572 99.7695853,101.798073 C99.3087558,99.7252619 92.6267281,94.8887018 92.3963134,96.2705761 Z" id="Path" fill="#888888"></path>
                            <path d="M92.6267281,96.0402637 C92.6267281,96.0402637 96.5437788,99.4949495 97.4654378,101.337449 C98.3870968,102.949635 100.460829,103.41026 100,101.567761 C99.3087558,99.4949495 98.3870968,94.4280771 92.6267281,96.0402637 Z" id="Path" fill="#D1D1D1"></path>
                            <path d="M85.9447005,63.7965301 C86.1751152,64.2571549 85.9447005,64.948092 85.7142857,64.948092 C85.483871,64.948092 85.0230415,64.7177796 84.7926267,64.2571549 C84.562212,63.7965301 84.7926267,63.105593 85.0230415,63.105593 C85.2534562,62.8752806 85.7142857,63.105593 85.9447005,63.7965301 Z" id="Path" fill="#656565"></path>
                            <path d="M55.9907834,54.5840348 C55.9907834,54.5840348 58.0645161,53.6627853 58.2949309,52.7415357 C58.7557604,52.0505986 60.3686636,52.0505986 59.9078341,53.4324729 C59.4470046,54.5840348 57.6036866,57.3477834 55.9907834,54.5840348 Z" id="Path" fill="#FFD6A0"></path>
                            <path d="M71.4285714,60.111532 C71.4285714,60.111532 74.6543779,59.6509072 76.9585253,59.6509072 C79.4930876,59.6509072 90.7834101,59.8812196 92.3963134,61.4934063 C93.3179724,62.4146558 91.0138249,61.2630939 88.2488479,60.8024691 C85.483871,60.5721568 73.2718894,60.5721568 71.1981567,61.7237187 C70.5069124,61.2630939 70.7373272,60.3418444 71.4285714,60.111532 Z" id="Path" fill="#FFFFFF"></path>
                            <path d="M51.843318,58.4993453 C52.0737327,59.6509072 51.6129032,60.5721568 50.6912442,60.5721568 C50,60.8024691 49.078341,59.8812196 48.8479263,58.9599701 C48.6175115,57.8084082 49.078341,56.8871586 50,56.8871586 C50.921659,56.6568462 51.843318,57.5780958 51.843318,58.4993453 Z" id="Path" fill="#656565"></path>
                            <path d="M51.3824885,58.4993453 C51.6129032,59.4205948 51.3824885,60.111532 50.6912442,60.111532 C50.2304147,60.3418444 49.5391705,59.6509072 49.3087558,58.9599701 C49.078341,58.0387205 49.3087558,57.3477834 50,57.3477834 C50.4608295,57.117471 51.1520737,57.8084082 51.3824885,58.4993453 Z" id="Path" fill="#3D332A"></path>
                            <path d="M59.6774194,118.610877 C59.6774194,118.610877 40.5529954,118.84119 37.5576037,118.380565 C34.562212,117.689628 36.40553,115.616816 38.0184332,114.234942 C39.1705069,113.544005 35.7142857,116.998691 37.0967742,117.229003 C38.7096774,117.459315 59.6774194,117.229003 59.6774194,117.229003 C59.6774194,117.229003 62.2119816,117.229003 59.6774194,118.610877 Z" id="Path" fill="#FFFFFF"></path>
                            <path d="M59.6774194,118.610877 C59.6774194,118.610877 64.2857143,117.459315 66.1290323,112.392443 C67.9723502,107.325571 73.7327189,89.1308923 74.1935484,87.5187056 C74.6543779,85.9065189 74.8847926,79.4577722 73.9631336,75.3121493 C73.0414747,71.1665264 70.0460829,63.105593 71.1981567,61.7237187 C72.3502304,60.3418444 72.3502304,59.8812196 71.6589862,60.111532 C70.9677419,60.3418444 68.6635945,61.4934063 69.8156682,65.4087168 C70.9677419,69.3240273 73.2718894,75.5424617 73.5023041,80.6093341 C73.5023041,85.6762065 71.4285714,93.5068275 70.5069124,95.1190142 C69.8156682,96.7312009 65.437788,111.240881 64.2857143,113.08338 C63.1336406,114.925879 61.0599078,116.768378 59.6774194,117.229003 C58.2949309,117.689628 57.6036866,118.380565 59.6774194,118.610877 Z" id="Path" fill="#FFFFFF"></path>
                            <path d="M95.3917051,108.016508 C95.3917051,108.016508 99.7695853,108.016508 102.534562,107.786195 C106.221198,107.555883 107.834101,106.864946 107.834101,106.404321 C108.986175,105.943696 111.290323,106.174009 110.829493,107.095258 C110.599078,108.016508 102.304147,109.16807 95.3917051,108.016508 Z" id="Path" fill="#DD5252"></path>
                            <path d="M52.3041475,108.24682 C52.3041475,108.24682 51.1520737,112.392443 50.921659,113.544005 C50.6912442,114.695567 52.764977,114.695567 53.4562212,114.00463 C54.1474654,113.313692 55.0691244,108.937757 55.2995392,108.24682 C55.2995392,107.325571 52.9953917,107.325571 52.3041475,108.24682 Z" id="Path" fill="#FAFAFA"></path>
                            <path d="M94.0092166,55.0446596 C93.7788018,55.5052843 92.6267281,55.0446596 92.1658986,53.8930976 C92.1658986,53.8930976 92.1658986,53.8930976 92.1658986,53.8930976 C91.2442396,54.8143472 93.5483871,55.9659091 93.5483871,55.9659091 C93.5483871,55.9659091 94.0092166,55.2749719 94.7004608,54.8143472 C94.9308756,54.5840348 95.1612903,54.3537224 95.1612903,54.12341 C94.9308756,54.5840348 94.2396313,54.8143472 94.0092166,55.0446596 Z" id="Path" fill="#DD5252"></path>
                            <path d="M62.4423963,54.8143472 C62.2119816,54.8143472 61.9815668,54.5840348 61.5207373,54.3537224 C61.5207373,54.5840348 61.7511521,54.8143472 61.7511521,55.0446596 C61.9815668,55.7355967 63.1336406,56.6568462 62.4423963,56.8871586 C62.4423963,56.8871586 63.3640553,56.8871586 64.2857143,56.6568462 C64.0552995,56.1962215 63.3640553,55.0446596 62.4423963,54.8143472 Z" id="Path" fill="#C44545"></path>
                            <path d="M62.4423963,53.2021605 C62.4423963,53.2021605 58.2949309,52.9718481 54.8387097,52.9718481 C51.3824885,52.9718481 53.6866359,53.6627853 54.8387097,53.8930976 C55.9907834,54.12341 61.7511521,54.3537224 62.4423963,55.0446596 C63.3640553,55.7355967 63.1336406,53.8930976 62.4423963,53.2021605 Z" id="Path" fill="#767776"></path>
                            <path d="M74.4239631,85.6762065 L74.4239631,85.6762065 C74.4239631,85.6762065 68.202765,104.33151 65.6682028,111.701506 C64.516129,115.386504 61.7511521,117.689628 58.2949309,117.91994 C58.2949309,118.150253 58.5253456,118.380565 59.6774194,118.380565 C59.6774194,118.380565 64.2857143,117.229003 66.1290323,112.162131 C67.9723502,107.095258 73.7327189,88.9005799 74.1935484,87.2883932 C74.1935484,87.0580808 74.4239631,86.3671437 74.4239631,85.6762065 Z" id="Path" fill="#FFFFFF"></path>
                            <path d="M59.6774194,118.610877 C60.8294931,117.91994 60.8294931,117.689628 60.5990783,117.459315 C59.6774194,117.91994 58.7557604,118.150253 57.6036866,118.150253 C53.9170507,118.150253 39.4009217,118.380565 36.8663594,117.689628 L37.0967742,117.459315 C35.9447005,117.229003 39.4009217,113.774317 38.0184332,114.465254 C36.40553,115.616816 34.562212,117.91994 37.5576037,118.610877 C40.7834101,118.84119 59.6774194,118.610877 59.6774194,118.610877 Z" id="Path" fill="#FFFFFF"></path>
                            <path d="M41.0138249,113.544005 C41.0138249,113.544005 38.7096774,115.386504 37.0967742,114.234942 C35.483871,113.08338 28.1105991,109.398382 14.516129,111.471193 C11.0599078,112.392443 11.0599078,112.392443 11.0599078,112.392443 C11.0599078,112.392443 10.3686636,105.252759 14.2857143,98.8040123 C18.202765,92.3552656 25.5760369,90.5127666 31.1059908,91.6643285 C36.6359447,92.8158904 43.5483871,96.5008885 44.2396313,103.179948 C44.9308756,109.859007 41.0138249,113.544005 41.0138249,113.544005 Z" id="Path" fill="#D74F55"></path>
                            <path d="M37.7880184,114.695567 C37.7880184,114.695567 29.0322581,112.392443 14.7465438,114.234942 C13.59447,114.234942 11.0599078,112.392443 11.0599078,112.392443 C11.0599078,112.392443 12.6728111,110.089319 15.2073733,109.628694 C17.7419355,109.398382 35.9447005,110.319632 37.7880184,114.695567 Z" id="Path" fill="#F56462"></path>
                            <path d="M46.3133641,86.597456 C42.8571429,86.597456 38.2488479,87.2883932 35.0230415,87.749018 C34.7926267,88.2096427 35.0230415,88.4399551 35.7142857,88.9005799 C37.0967742,89.591517 39.8617512,92.1249532 41.9354839,93.9674523 C43.5483871,94.6583895 44.4700461,95.3493266 44.4700461,95.3493266 C44.7004608,95.579639 44.9308756,95.8099514 45.1612903,95.8099514 C49.3087558,95.1190142 46.7741935,88.6702675 46.3133641,86.597456 Z" id="Path" fill="#D74F55"></path>
                            <path d="M54.1474654,112.622755 C54.1474654,112.622755 52.9953917,115.156192 51.1520737,112.622755 C51.1520737,112.622755 52.3041475,87.0580808 52.3041475,83.8337074 C52.3041475,80.3790217 51.6129032,80.1487093 49.7695853,79.2274598 C49.078341,77.1546483 52.0737327,69.7846521 55.9907834,70.4755892 C59.9078341,71.1665264 63.8248848,71.6271511 63.3640553,76.4637112 C63.3640553,80.8396465 56.6820276,108.477132 54.1474654,112.622755 Z" id="Path" fill="#1D3356"></path>
                            <path d="M47.6958525,78.5365226 C47.4654378,78.5365226 39.1705069,81.3002712 37.3271889,79.2274598 C35.7142857,77.3849607 35.0230415,72.7787131 37.0967742,70.4755892 C38.9400922,68.1724654 42.8571429,65.4087168 47.9262673,65.8693416 C52.764977,66.5602787 64.2857143,67.2512159 62.9032258,74.8515245 C61.5207373,82.6821455 47.6958525,78.5365226 47.6958525,78.5365226 Z" id="Path" fill="#1D3356"></path>
                            <path d="M49.3087558,56.1962215 C49.3087558,56.1962215 50.4608295,54.3537224 52.9953917,53.6627853 C55.5299539,52.9718481 58.7557604,53.2021605 59.4470046,54.12341 C60.1382488,55.0446596 61.2903226,56.8871586 60.3686636,58.4993453 C59.2165899,60.111532 58.0645161,59.8812196 56.6820276,60.5721568 C54.3778802,61.4934063 53.9170507,60.8024691 53.9170507,60.8024691 C53.9170507,60.8024691 52.5345622,60.5721568 52.9953917,59.8812196 C53.6866359,58.4993453 53.6866359,57.8084082 52.5345622,57.3477834 C51.3824885,56.8871586 49.3087558,56.1962215 49.3087558,56.1962215 Z" id="Path" fill="#FFD6A0"></path>
                        </g>
                    </g>
                </g>
            </g>
        </g>
    </g>
</svg>