<svg xmlns="http://www.w3.org/2000/svg" width="120" height="120" viewBox="0 0 120 120">
    <g fill="none" fill-rule="evenodd">
        <g fill-rule="nonzero">
            <g>
                <g transform="translate(-120 -6123) translate(117 5626) translate(3 497)">
                    <circle cx="60" cy="61.848" r="49.974" fill="#EDEDED"/>
                    <circle cx="60" cy="60" r="59.284" fill="#FFF1DC"/>
                    <path fill="#FFF" d="M105.406 74.603v8.139c-6.884 14.956-20.693 25.562-36.919 28.355-2.803.487-5.642.73-8.487.726-.968 0-2.042 0-3.039-.097-2.121-.123-4.232-.385-6.32-.784v-36.32c1.094-9.793 3.93-13.751 8.924-15.648.63-.242 1.277-.443 1.935-.6 3.005-.858 5.945-1.932 8.797-3.213l1.364-.6c2.749-1.277 4.79-2.303 4.79-2.303h3.243s1.935.968 4.558 2.158l1.045.474c3.03 1.377 6.153 2.535 9.348 3.465 6.174 1.616 9.58 5.274 10.8 16.229l-.039.02z"/>
                    <path fill="#3B3C40" d="M60 112.306c-1.026 0-2.061 0-3.077-.096-2.138-.128-4.265-.393-6.368-.794-.23-.042-.396-.241-.397-.474v-36.32c1.045-9.357 3.716-14.012 9.232-16.103.634-.24 1.28-.447 1.936-.619 2.995-.86 5.926-1.934 8.768-3.213l1.354-.6c2.71-1.22 4.704-2.235 4.723-2.245.073-.015.15-.015.223 0h3.241c.074-.015.15-.015.223 0 0 0 1.936.968 4.53 2.158l.831.368.223.097c3.002 1.369 6.101 2.517 9.27 3.435 6.969 1.839 9.998 6.329 11.15 16.568.01.044.01.09 0 .135v8.139c.015.067.015.136 0 .203-2.334 5.065-5.49 9.708-9.34 13.742-9.533 9.972-22.727 15.614-36.522 15.62zm-8.874-1.77c1.938.357 3.897.593 5.864.706 20.344 1.244 39.37-10.11 47.933-28.607v-7.974c-1.258-11.264-4.781-14.332-10.442-15.822-3.222-.934-6.372-2.098-9.426-3.484l-.223-.097-.842-.377c-2.274-1.036-4.025-1.936-4.461-2.12h-3.01c-.454.223-2.284 1.133-4.664 2.207l-1.365.61c-2.89 1.295-5.868 2.385-8.913 3.26-.624.158-1.239.355-1.838.591-4.336 1.636-7.452 4.839-8.613 15.242v35.864z"/>
                    <ellipse cx="77.797" cy="56.216" fill="#FCA08C" rx="7.597" ry="6.716"/>
                    <path fill="#3B3C40" d="M77.797 63.416c-4.462 0-8.08-3.232-8.08-7.2s3.618-7.2 8.08-7.2c4.461 0 8.08 3.232 8.08 7.2s-3.619 7.2-8.08 7.2zm0-13.432c-3.871 0-7.113 2.797-7.113 6.232 0 3.436 3.193 6.232 7.113 6.232 3.92 0 7.113-2.796 7.113-6.232 0-3.435-3.194-6.232-7.113-6.232z"/>
                    <path fill="#ADD9B4" d="M68.487 77.739v33.358c-2.803.487-5.642.73-8.487.726-.968 0-2.042 0-3.039-.097-2.121-.123-4.232-.385-6.32-.784-16.622-3.17-30.514-14.53-36.918-30.194v-6.125C14.942 63.658 18.387 60 24.533 58.374c3.02-.86 5.976-1.933 8.844-3.213l.426-.184c3.223-1.451 5.671-2.719 5.671-2.719h3.252s2.351 1.2 5.477 2.584h.126c3.028 1.38 6.153 2.538 9.348 3.464.658.16 1.304.36 1.936.6 4.732 1.79 7.539 5.449 8.71 14.197.038.532.164 4.636.164 4.636z"/>
                    <path fill="#3B3C40" d="M60 112.306c-1.026 0-2.061 0-3.077-.096-11.657-.7-22.708-5.431-31.258-13.384-5.373-5-9.599-11.105-12.388-17.894-.013-.06-.013-.123 0-.184v-6.125C14.39 64.258 17.42 59.739 24.407 57.9c2.998-.862 5.93-1.935 8.777-3.213l.426-.184c3.174-1.403 5.622-2.642 5.651-2.661.07-.015.143-.015.213 0h3.252c.07-.015.142-.015.213 0 0 0 2.38 1.21 5.458 2.574h.097c3.015 1.372 6.127 2.524 9.31 3.445.648.174 1.296.378 1.935.62 5.274 2.003 7.896 6.222 9.038 14.584.068.474.184 4.2.194 4.616v33.416c0 .233-.168.432-.397.474-2.832.49-5.7.735-8.574.735zM14.206 80.652c2.743 6.608 6.875 12.55 12.117 17.419 11.212 10.393 26.59 15.035 41.68 12.58V77.749c0-1.645-.135-4.19-.184-4.51-1.093-7.954-3.532-11.96-8.429-13.809-.6-.234-1.214-.432-1.838-.59-3.219-.934-6.366-2.098-9.417-3.484h-.125c-2.739-1.22-4.907-2.303-5.4-2.545h-3.02c-.503.251-2.758 1.384-5.593 2.622l-.426.194c-2.891 1.294-5.87 2.384-8.913 3.261-5.67 1.49-9.193 4.558-10.452 15.832v5.933zM27.242 38.932S19.8 24.63 26.187 19.994c.426-3.388 6.552-9.504 16.897-7.984 2.974.485 5.788 1.676 8.206 3.474 1.936 1.374 4.684 3.145 6.213 3.145 0 0-1.829 2.158-.745 3.571 1.084 1.413 3.765 3.648-1.461 15.261"/>
                    <path fill="#3B3C40" d="M27.242 39.416c-.18-.001-.343-.102-.426-.261-.31-.6-7.442-14.516-1.074-19.432.593-2.096 1.905-3.915 3.706-5.14 2.081-1.586 6.63-4.083 13.704-3.057 3.043.485 5.924 1.697 8.4 3.532 2.748 1.936 4.838 3.058 5.932 3.058.186.004.355.112.435.28.076.174.05.375-.067.523 0 0-1.549 1.936-.736 2.962l.194.242c1.21 1.5 3.455 4.296-1.597 15.483-.064.169-.216.288-.394.31-.179.021-.355-.058-.457-.206-.102-.148-.114-.341-.03-.5 4.839-10.645 2.797-13.171 1.723-14.516l-.203-.262c-.89-1.161-.242-2.642.28-3.493-2.04-.718-3.947-1.771-5.642-3.116-2.353-1.746-5.091-2.9-7.984-3.368-6.774-.968-11.012 1.374-12.977 2.903-1.964 1.53-3.184 3.261-3.358 4.703-.02.133-.093.253-.203.33-5.971 4.335 1.132 18.174 1.2 18.319.06.112.073.245.035.367-.038.122-.124.223-.238.281-.068.039-.145.059-.223.058z"/>
                    <ellipse cx="40.877" cy="56.216" fill="#FCA08C" rx="7.597" ry="6.716"/>
                    <path fill="#3B3C40" d="M40.877 63.416c-4.46 0-8.09-3.232-8.09-7.2s3.63-7.2 8.09-7.2c4.462 0 8.081 3.232 8.081 7.2s-3.629 7.2-8.08 7.2zm0-13.432c-3.929 0-7.122 2.797-7.122 6.232 0 3.436 3.193 6.232 7.122 6.232 3.93 0 7.113-2.796 7.113-6.232 0-3.435-3.193-6.232-7.113-6.232z"/>
                    <path fill="#FCA08C" d="M55.287 33.145c0-4.131-3.35-7.48-7.48-7.48H34.093c-4.128.005-7.471 3.352-7.471 7.48V44.09c-.006 1.4.326 2.781.967 4.026.019.041.041.08.068.116l.058.097c.047.09.099.177.155.261.095.172.202.337.32.494 1.519 2.313 5.893 7.993 12.154 8.08.197.015.394.015.59 0 .2.016.4.016.6 0 6.175-.087 10.52-5.632 12.097-7.993.23-.309.441-.632.63-.968.64-1.244.973-2.625.967-4.026l.058-11.032z"/>
                    <path fill="#3B3C40" d="M41.497 57.648c-.184.01-.368.01-.552 0-.2.015-.4.015-.6 0-6.445-.087-10.926-5.806-12.58-8.293-.107-.155-.223-.339-.33-.513l-.154-.261-.058-.097-.049-.097c-.005-.032-.005-.065 0-.097-.652-1.289-.984-2.716-.968-4.161V33.145c-.01-4.376 3.512-7.941 7.888-7.984h13.712c4.397.006 7.96 3.568 7.965 7.965V44.09c0 1.462-.351 2.903-1.026 4.2v.068c-.203.383-.433.752-.687 1.103-1.616 2.42-6.087 8.1-12.474 8.187h-.087zm-13.355-9.56l.145.25.31.475c1.548 2.342 5.806 7.742 11.758 7.868.177.014.355.014.532 0 .041-.01.085-.01.126 0 .174.01.348.01.522 0 5.942-.078 10.162-5.468 11.7-7.742.242-.349.436-.658.61-.968v-.048c.627-1.17.96-2.476.968-3.804V33.145c0-3.871-3.135-7.01-7.007-7.016H34.094c-1.859.003-3.64.743-4.952 2.059-1.312 1.316-2.048 3.099-2.045 4.957V44.09c.008 1.328.34 2.634.968 3.804v.067c.004.039.004.078 0 .116l.077.01z"/>
                    <path fill="#3B3C40" d="M30.968 24.135s.851 5.72 7.684 5.033c5.264-.523 9.058-3.33 12.125-4.51"/>
                    <path fill="#3B3C40" d="M37.548 29.71c-3.412.21-6.445-2.156-7.074-5.516-.035-.264.145-.508.407-.552.262-.03.502.147.551.406 0 .213.871 5.246 7.162 4.626 3.187-.442 6.259-1.493 9.048-3.097 1.045-.532 2.023-1.025 2.903-1.383.243-.074.5.052.592.288.092.236-.015.503-.243.612-.881.338-1.84.832-2.904 1.345-2.862 1.648-6.012 2.738-9.28 3.213-.416.038-.804.058-1.162.058z"/>
                    <ellipse cx="34.945" cy="37.713" fill="#3B3C40" rx="1.123" ry="2.1"/>
                    <path fill="#FCA08C" d="M32.226 34.084c1.804-1.355 4.306-1.283 6.029.174"/>
                    <path fill="#3B3C40" d="M38.255 34.742c-.1 0-.199-.03-.28-.087-1.547-1.321-3.799-1.405-5.44-.203-.204.136-.479.096-.637-.092-.159-.188-.15-.465.018-.644 1.98-1.476 4.711-1.412 6.62.155.105.072.176.184.198.31.022.125-.008.254-.082.358-.093.127-.24.202-.397.203z"/>
                    <ellipse cx="46.152" cy="37.713" fill="#3B3C40" rx="1.123" ry="2.1"/>
                    <path fill="#FCA08C" d="M43.432 34.084c1.805-1.355 4.306-1.283 6.03.174"/>
                    <path fill="#3B3C40" d="M49.461 34.742c-.103 0-.204-.03-.29-.087-1.543-1.32-3.792-1.404-5.43-.203-.204.136-.478.096-.637-.092-.158-.188-.15-.465.019-.644 1.98-1.476 4.71-1.412 6.619.155.21.157.258.453.106.668-.088.126-.232.202-.387.203z"/>
                    <path fill="#FCA08C" d="M34.558 48.62s6.523 3.696 12.29-1.2l.968 1.093"/>
                    <path fill="#3B3C40" d="M40.074 50.429c-2.018-.002-4.007-.48-5.806-1.394-.112-.062-.194-.168-.227-.292-.032-.124-.014-.256.053-.366.06-.137.18-.24.327-.275.146-.036.3-.002.418.092.251.145 6.31 3.474 11.738-1.142.187-.179.481-.179.668 0l.968 1.083c.128.126.176.313.124.485-.051.172-.194.301-.37.336-.177.034-.358-.032-.47-.172l-.668-.745c-1.908 1.553-4.295 2.398-6.755 2.39z"/>
                    <path fill="#FCA08C" d="M41.613 37.132s.106 4.239 1.22 5.758c1.112 1.52-2.333 2.12-3.446 1.723"/>
                    <path fill="#3B3C40" d="M40.297 45.213c-.364.009-.726-.04-1.074-.145-.25-.1-.377-.376-.29-.63.094-.247.37-.372.619-.28 1.029.224 2.104.003 2.96-.61 0-.058.117-.154-.077-.406-1.19-1.626-1.296-5.865-1.306-6.039-.003-.128.046-.252.135-.345.089-.092.21-.146.34-.148.125-.003.247.045.337.132.091.087.144.206.146.332 0 1.142.28 4.345 1.123 5.487.385.443.413 1.094.067 1.568-.807.747-1.881 1.138-2.98 1.084zM56.961 112.258c-.267 0-.484-.217-.484-.484V72.271c0-.267.217-.484.484-.484.268 0 .484.217.484.484v39.455c.01.136-.035.27-.127.37-.091.101-.22.16-.357.162zM96.155 96.842c-.265-.005-.479-.219-.484-.484V72.271c0-.267.217-.484.484-.484s.484.217.484.484v24.087c0 .267-.217.484-.484.484zM77.71 73.761c-.268 0-.484-.216-.484-.484V63.252c.005-.265.219-.48.484-.484.267 0 .484.216.484.484v10.025c0 .268-.217.484-.484.484zM25.994 98.961c-.268 0-.484-.216-.484-.484V72.271c0-.267.216-.484.484-.484.267 0 .483.217.483.484v26.206c-.005.265-.218.48-.483.484z"/>
                    <path fill="#3B3C40" d="M60 112.306c-1.026 0-2.061 0-3.068-.096-11.66-.697-22.714-5.43-31.267-13.384-5.373-5-9.599-11.105-12.388-17.894-2.485-6.055-3.757-12.539-3.745-19.084 0-.267.217-.483.484-.483s.484.216.484.483c-.009 6.419 1.237 12.776 3.668 18.717 2.737 6.66 6.884 12.648 12.155 17.554 14.421 13.405 35.419 16.984 53.467 9.113 18.048-7.871 29.712-25.694 29.7-45.384 0-.267.217-.483.484-.483s.484.216.484.483c-.01 27.863-22.595 50.448-50.458 50.458z"/>
                    <path fill="#FCA08C" d="M92.613 34.897c2.67-12.958-2.071-7.645-5.739-8.11l-11.313-7.17c-3.667-.456-7.384-3.359-7.887.667L65.74 42.368c-.17 1.354-.035 2.73.396 4.026-.002.041-.002.083 0 .125.006.032.006.065 0 .097l.117.271c.064.175.138.346.222.513 1.065 2.42 4.268 8.439 9.813 9.223h.532c.176.042.353.074.533.096 5.506.61 10.035-4.306 11.719-6.425.251-.286.48-.59.687-.91.735-1.154 1.204-2.456 1.374-3.813l1.48-10.674z"/>
                    <path fill="#3B3C40" d="M78.387 57.29c-.323-.001-.646-.02-.968-.058-.179-.022-.356-.054-.532-.097-.18.01-.361.01-.542 0-5.758-.803-9.048-6.91-10.19-9.493-.078-.165-.155-.348-.232-.542l-.107-.271V46.597c-.004-.036-.004-.071 0-.107-.43-1.339-.56-2.757-.377-4.151l1.935-22.065c.014-.867.424-1.68 1.113-2.206 1.065-.678 2.545-.213 4.258.338.992.345 2.012.6 3.049.765.072.013.14.039.203.077l11.216 7.113c.862.012 1.721-.112 2.545-.367 1.336-.34 2.594-.649 3.465.174 1.083 1.045 1.103 3.697 0 8.855l-1.336 10.645c-.168 1.408-.65 2.761-1.413 3.958.005.022.005.045 0 .068-.224.34-.473.664-.745.967-1.8 2.033-6.048 6.63-11.342 6.63zm-1.452-1.161h.126c.15.042.302.075.455.097 5.255.58 9.678-4.18 11.294-6.252.239-.278.459-.572.658-.88.705-1.09 1.158-2.323 1.326-3.61l1.335-10.645c.968-4.539.968-7.23.242-7.965-.484-.464-1.442-.222-2.555.058-.972.306-1.992.433-3.01.378-.072-.01-.142-.037-.203-.078L75.377 20.12c-1.059-.177-2.1-.443-3.116-.793-1.413-.455-2.758-.88-3.435-.445-.438.374-.686.924-.678 1.5l-1.935 22.064c-.17 1.302-.045 2.625.368 3.871v.068c.01.038.01.078 0 .116h.048l.106.261c.068.165.136.33.213.494 1.084 2.448 4.171 8.197 9.446 8.942.154.009.31.009.464 0l.077-.068z"/>
                    <ellipse cx="73.333" cy="37.237" fill="#3B3C40" rx="2.1" ry="1.123" transform="rotate(-82.86 73.333 37.237)"/>
                    <path fill="#FCA08C" d="M71.08 33.29c1.968-1.104 4.436-.702 5.952.968"/>
                    <path fill="#3B3C40" d="M77.032 34.703c-.122-.002-.24-.05-.329-.135-1.368-1.5-3.588-1.86-5.361-.871-.225.144-.523.079-.668-.145-.072-.107-.097-.24-.07-.365.028-.126.106-.236.215-.303 2.147-1.207 4.837-.809 6.542.968.092.09.143.214.143.343 0 .13-.051.253-.143.344-.085.094-.202.153-.329.164z"/>
                    <ellipse cx="84.439" cy="38.627" fill="#3B3C40" rx="2.1" ry="1.123" transform="rotate(-82.86 84.44 38.627)"/>
                    <path fill="#FCA08C" d="M82.2 34.684c1.967-1.104 4.436-.703 5.952.968"/>
                    <path fill="#3B3C40" d="M88.152 36.097c-.123-.003-.24-.051-.33-.136-1.368-1.499-3.588-1.86-5.36-.87-.225.146-.526.083-.673-.141-.147-.224-.084-.526.14-.673 2.149-1.211 4.845-.813 6.552.968.185.192.185.496 0 .687-.086.093-.203.152-.33.165z"/>
                    <path fill="#FCA08C" d="M71.613 48.01s6.02 4.48 12.348.338l.833 1.2"/>
                    <path fill="#3B3C40" d="M78.232 50.574c-2.475-.045-4.885-.804-6.938-2.187-.103-.077-.171-.192-.19-.319-.017-.127.016-.256.093-.358.16-.212.46-.26.677-.107.232.174 5.807 4.23 11.787.33.22-.143.514-.088.668.125l.832 1.2c.151.22.1.52-.116.677-.106.075-.238.103-.365.08-.127-.024-.24-.098-.312-.205l-.571-.823c-1.673 1.033-3.599 1.582-5.565 1.587z"/>
                    <path fill="#FCA08C" d="M80.013 37.48s-.426 4.23.484 5.865c.91 1.636-2.565 1.82-3.62 1.278"/>
                    <path fill="#3B3C40" d="M78.387 45.387c-.604.016-1.204-.096-1.761-.329-.233-.124-.327-.41-.213-.648.058-.117.16-.205.284-.245.124-.04.259-.029.374.032.982.364 2.073.294 3-.194 0-.058.135-.135 0-.416-.968-1.761-.571-5.98-.552-6.155.035-.262.268-.453.533-.435.128.012.247.075.328.175.082.1.12.229.107.357-.116 1.132-.261 4.345.426 5.584.33.488.278 1.139-.126 1.568-.686.522-1.54.774-2.4.706zM98.71 23.903c-.266-1.75-1.668-3.109-3.426-3.32-1.689-.33-3.296-.987-4.732-1.935-2.283-1.43-4.414-3.09-6.358-4.954-.559-.625-1.15-1.22-1.771-1.781-.768-.596-1.651-1.024-2.594-1.258-1.62-.456-3.355-.206-4.78.687-1.266.772-2.346 1.813-3.165 3.048-.445.658-.871 1.336-1.316 2.033-.194 0-.387-.117-.58-.155-.586-.142-1.181-.235-1.782-.28-.932-.046-1.85.239-2.593.802-.915.705-1.729 1.532-2.42 2.458-1.824 2.381-2.258 5.548-1.141 8.333.61 1.638 1.486 3.165 2.593 4.519.484.6 1.2 3.397 1.742 3.977.184-.31 1.665-12.977 1.665-12.977l4.19.523c2.7.638 6.145.27 7.229 3.406 1.848 5.342 10.82 5.806 13.694 3.6l-.775 6.213c0 .116.068.232.087.358.494-.523.968-.968.968-1.074.823-1.113 1.703-2.178 2.43-3.349 1.176-1.758 2.05-3.7 2.583-5.748.3-1.013.385-2.078.252-3.126z"/>
                    <path fill="#3B3C40" d="M92.448 37.684h-.125c-.174-.046-.308-.183-.349-.358l-.087-.33c-.01-.063-.01-.129 0-.193l.658-5.226c-2.594.996-5.447 1.088-8.1.262-2.768-.823-4.703-2.468-5.448-4.626-.745-2.158-2.797-2.448-4.955-2.768-.648-.087-1.307-.184-1.936-.329l-3.648-.455c-1.442 12.29-1.606 12.58-1.674 12.678-.076.131-.208.22-.358.242-.155.014-.308-.043-.416-.155-.463-.703-.812-1.473-1.036-2.284-.184-.597-.428-1.174-.726-1.723-1.143-1.391-2.046-2.965-2.67-4.654-1.169-2.939-.71-6.274 1.21-8.788.717-.96 1.563-1.816 2.515-2.545.83-.636 1.859-.958 2.903-.91.46.024.917.09 1.365.194l.484.097.28.068.223-.349c.3-.474.6-.967.91-1.403.86-1.287 1.99-2.373 3.31-3.184 1.538-.962 3.41-1.233 5.157-.745 1.004.259 1.945.716 2.768 1.345.428.358.826.75 1.19 1.171.204.223.407.445.62.658 1.925 1.838 4.033 3.476 6.29 4.887 1.382.917 2.93 1.552 4.558 1.868 1.957.245 3.513 1.758 3.813 3.706.154 1.111.075 2.241-.232 3.32-.546 2.1-1.44 4.096-2.642 5.903-.523.832-1.123 1.616-1.694 2.371-.251.33-.512.668-.754.968l-.91.968-.126.135c-.09.11-.224.178-.368.184zm.687-7.539c.082.003.162.026.233.068.174.095.27.288.242.484l-.658 5.245c.038-.036.074-.074.106-.116l.755-.968c.561-.735 1.152-1.5 1.645-2.293 1.145-1.718 1.996-3.615 2.516-5.613.278-.942.357-1.93.232-2.904-.248-1.535-1.484-2.72-3.029-2.903-1.751-.338-3.418-1.019-4.906-2.003-2.318-1.445-4.481-3.125-6.455-5.013-.232-.223-.445-.455-.658-.697-.331-.378-.69-.73-1.074-1.055-.717-.553-1.54-.951-2.42-1.17-1.49-.413-3.087-.185-4.403.628-1.2.74-2.228 1.73-3.01 2.904-.31.445-.6.91-.9 1.374l-.416.648c-.114.176-.33.258-.532.204l-.174-.049c-.126 0-.242-.068-.368-.087l-.503-.106c-.394-.094-.796-.153-1.2-.175-.82-.04-1.63.21-2.284.707-.88.671-1.662 1.463-2.322 2.351-1.744 2.247-2.157 5.254-1.084 7.888.584 1.59 1.435 3.07 2.516 4.374.376.628.672 1.3.88 2.003.078.223.175.474.262.716.329-2.448.968-7.742 1.403-11.468.017-.129.083-.246.184-.329.1-.08.23-.115.358-.096l4.19.522c.63.145 1.249.242 1.936.33 2.245.328 4.838.696 5.729 3.406.648 1.858 2.361 3.28 4.839 4.016 2.951.88 6.522.6 8.129-.639.059-.085.144-.15.241-.184z"/>
                </g>
            </g>
        </g>
    </g>
</svg>
