<svg xmlns="http://www.w3.org/2000/svg" width="120" height="120" viewBox="0 0 120 120">
    <g fill="none" fill-rule="evenodd">
        <g fill-rule="nonzero">
            <g transform="translate(-120 -5944) translate(120 5944)">
                <circle cx="60" cy="60" r="59.284" fill="#FFF1DC"/>
                <path fill="#3B3C40" d="M59.69 106.655c-.223.002-.445-.031-.658-.097C38.071 99.938 23.44 80.923 23.44 60.31V30.6c-.004-.622.258-1.216.72-1.632.463-.416 1.08-.615 1.7-.545 1.606.176 3.221.266 4.838.27 10.587 0 21.232-5.06 27.658-9.793.767-.58 1.826-.58 2.593 0 6.436 4.732 17.071 9.794 27.668 9.794 1.617-.004 3.232-.095 4.839-.271.619-.07 1.238.127 1.703.542.463.417.727 1.012.726 1.635v29.71c0 20.613-14.642 39.677-35.603 46.248-.192.06-.39.092-.59.097zM25.626 29.38c-.674 0-1.22.546-1.22 1.219v29.71c0 20.187 14.362 38.835 34.917 45.329.24.072.495.072.735 0 20.565-6.494 34.926-25.162 34.926-45.33V30.6c.001-.348-.147-.679-.407-.91-.264-.234-.616-.347-.967-.31-1.652.187-3.313.28-4.975.281-10.829 0-21.687-5.158-28.238-9.987-.427-.32-1.015-.32-1.442 0-6.561 4.839-17.42 9.987-28.239 9.987-1.665-.001-3.329-.095-4.984-.28h-.106z"/>
                <path fill="#D25257" d="M87.02 35.952c-8.449-.34-18.078-3.465-26.44-8.555-.541-.338-1.228-.338-1.77 0-8.362 5.09-18 8.216-26.439 8.555-.914.036-1.636.788-1.636 1.703V60.31c0 16.451 11.613 32.313 28.365 38.555.19.068.389.104.59.106.205-.002.408-.038.6-.106C76.994 92.623 88.655 76.77 88.655 60.31V37.655c-.004-.913-.724-1.662-1.636-1.703z"/>
                <path fill="#3B3C40" d="M59.69 99.455c-.26-.002-.519-.048-.764-.136-16.887-6.31-28.674-22.354-28.674-39.01V37.656c-.006-1.177.924-2.145 2.1-2.187 8.36-.339 17.913-3.426 26.206-8.487.699-.425 1.576-.425 2.274 0 8.284 5.06 17.845 8.148 26.207 8.487 1.176.042 2.106 1.01 2.1 2.187V60.31c0 16.655-11.797 32.7-28.684 39.01-.245.088-.504.134-.765.135zm0-71.826c-.221 0-.438.061-.629.174-8.429 5.1-18.155 8.284-26.67 8.632-.655.026-1.172.565-1.172 1.22V60.31c0 16.258 11.536 31.935 28.065 38.1.276.096.576.096.851 0C76.655 92.235 88.2 76.568 88.2 60.31V37.655c0-.655-.517-1.194-1.171-1.22-8.526-.348-18.252-3.493-26.67-8.632-.203-.12-.434-.18-.669-.174z"/>
                <circle cx="59.652" cy="64.616" r="17.816" fill="#FFF"/>
                <path fill="#3B3C40" d="M59.652 82.926c-7.407.004-14.086-4.455-16.923-11.296-2.837-6.842-1.273-14.719 3.963-19.957 5.235-5.239 13.111-6.807 19.955-3.974 6.843 2.834 11.305 9.51 11.305 16.917-.011 10.104-8.196 18.294-18.3 18.31zm0-35.642c-7.016-.004-13.343 4.22-16.03 10.7-2.687 6.482-1.204 13.943 3.757 18.904s12.423 6.444 18.904 3.758c6.481-2.687 10.705-9.014 10.7-16.03-.01-9.568-7.763-17.321-17.331-17.332z"/>
                <path fill="#3B3C40" d="M69.677 58.335c-.319-.32-.752-.499-1.204-.499-.452 0-.886.18-1.205.5L56.594 69.047l-5.613-5.603c-.666-.665-1.745-.665-2.41 0-.665.666-.665 1.744 0 2.41l6.774 6.774c.668.66 1.742.66 2.41 0l11.922-11.884c.32-.32.5-.753.5-1.205 0-.452-.18-.885-.5-1.205z"/>
            </g>
        </g>
    </g>
</svg>
