<svg xmlns="http://www.w3.org/2000/svg" width="100" height="100" viewBox="0 0 100 100">
    <g fill="none">
        <path fill="#E5EBF8" d="M100 50c-.004 27.503-22.22 49.839-49.721 49.993C22.776 100.145.314 78.058.003 50.557-.307 23.057 21.651.467 49.15 0h2.025C78.329.638 100.008 22.838 100 50z"/>
        <ellipse cx="14.465" cy="66.737" fill="#172C30" rx="8.85" ry="6.475" transform="rotate(-88 14.465 66.737)"/>
        <path fill="#172C30" d="M14.725 57.875L18.625 58.025 17.55 76 14.1 75.6z"/>
        <ellipse cx="17.961" cy="67.025" fill="#172C30" rx="8.975" ry="6.25" transform="rotate(-88 17.96 67.025)"/>
        <path fill="#DA4D52" d="M20 44.75c.575.4.475 1.8.85 2.625 0 0 .65.525.375.9-.15.235-.427.354-.7.3-.175 0-.475-.35-.625-.575-.815-.086-1.619-.254-2.4-.5-.934-.583-1.33-1.742-.95-2.775.35-.775 2.45-.575 3.45.025z"/>
        <path fill="#151717" d="M87.5 65.6l-8.25 3.6-18.625 2.85-13.125-.9-21.125-1.8 6.7-15.675L86.85 56.95c.153 1.277.37 2.545.65 3.8.282 1.604.282 3.246 0 4.85z"/>
        <ellipse cx="51.377" cy="69.248" fill="#172C30" rx="9.775" ry="6.75" transform="rotate(-88 51.377 69.248)"/>
        <path fill="#172C30" d="M51.75 59.5L56.35 59.65 55.125 79.475 51.05 79.025zM77.625 66.325c-.125 4.075 1.075 7.5 2.7 7.5 1.625 0 3.05-3.2 3.2-7.3.15-4.1-1.075-7.5-2.7-7.5-1.625 0-3.05 3.225-3.2 7.3z"/>
        <path fill="#172C30" d="M80.825 59.05L84.525 59.175 84.075 74.125 80.325 73.825z"/>
        <path fill="#172C30" d="M81.275 66.55c0 4.125 1.125 7.5 2.8 7.5 1.675 0 3.175-3.15 3.425-7.275s-1.125-7.5-2.8-7.5c-1.675 0-3.275 3.225-3.425 7.275z"/>
        <path fill="#EFF1F7" d="M82.275 66.575c0 3.175.825 5.775 2.05 5.8 1.225.025 2.35-2.5 2.5-5.625.15-3.125-.8-5.775-2.05-5.8-1.25-.025-2.275 2.475-2.5 5.625z"/>
        <path fill="#EFF1F7" d="M83.55 66.625c0 .925.25 1.675.6 1.675s.675-.7.7-1.625c.025-.925-.225-1.675-.575-1.675s-.7.725-.725 1.625z"/>
        <path fill="#1058AE" d="M83.65 66.625c0 1.275.325 2.3.825 2.325.5.025.925-1 .975-2.25.05-1.25-.325-2.3-.825-2.325-.5-.025-.925 1-.975 2.25z"/>
        <path fill="#600325" d="M49.275 74.775c.063-4.595.701-9.164 1.9-13.6C52.5 57.5 54.325 55 57.175 55c3.5 0 6.075 9 3.8 17.175-.725 2.825-11.7 2.6-11.7 2.6z" opacity=".2"/>
        <path fill="#D84E55" d="M87.5 65.6v-1.725s0-6.375-2.5-6.375c-2.175 0-3.175 2.65-3.925 5.575-.65 2.5-1.15 6.175-2.5 6.325l-9.55 1.2C66 70.925 61.1 72.075 61.1 72.075c.625-5 0-15.475-4.35-15.4-4.35.075-5.8 7.65-6.85 16.25-4.268.555-8.577.723-12.875.5C33.025 73.3 14.05 72 11.7 71.65c-2.35-.35-4.2-.575-5.2-3.2-1.34-3.056-1.724-6.447-1.1-9.725.75-2.75 1.625-7.675 11.95-11.15h2.5c7.9-6.675 16.45-11.8 23.375-12.5 6.925-.7 17.5-.75 25.675-.8 5.425 0 10.7 3.1 15 8.7 1.575 1.325 2.725 2.225 2.725 2.225s1.8 9.025 2.15 9.725c.35.7-.325 9.725-1.275 10.675z"/>
        <path fill="#FFF" d="M71.55 66.875c-3.775.5-9.05 1.375-7.95 1.825 2.93.051 5.854-.276 8.7-.975 7.15-1.225 10.5-2.375-.75-.85z" opacity=".4"/>
        <path fill="#172C30" d="M48.85 74.4c.543-.31.913-.855 1-1.475-3.195.356-6.415.44-9.625.25-3.229-2.972-7.316-4.844-11.675-5.35-3-.2-18.875-1.35-20.75-1.325-1.875.025-.175 6.2 1.6 6.475 4.475.7 20.275 2 24.25 2.025 3.975.025 15.2-.6 15.2-.6z"/>
        <ellipse cx="17.832" cy="54.396" fill="#CFD1D2" rx="1.025" ry="1" transform="rotate(-42.12 17.832 54.396)"/>
        <path fill="#600325" d="M11.45 57.5c2.9 0 8.55.35 11.95.525 3.94.056 7.722 1.56 10.625 4.225 1.475 1.35-4.675 2-11.15 1.775-4.2-.125-9.25-.45-12.125-.725-2.875-.275-6.175-.225-5.425-1.875 1.044-2.44 3.472-3.996 6.125-3.925z" opacity=".2"/>
        <path fill="#1C345D" d="M68.9 34.25c-7.5.675-11.95 7.5-16.075 13.5-6.025.425-24.825.3-33.525 0h-.825c8.15-7.025 19.05-12.5 24.675-13s14.6-.575 25-.375h.65l.1-.125z"/>
        <path fill="#FFF" d="M68.25 34.25C60.575 35.4 35 37.5 19.3 47.675h-.825c8.15-7.025 19.05-12.5 24.675-13s14.6-.625 25.1-.425z" opacity=".4"/>
        <path fill="#172C30" d="M80 67.5s-4.775.95-9.15 1.7-6.275 1.225-9.7 1.95c-.146.303-.313.595-.5.875v.35s8.875-1.625 11.6-1.9c5.175-.575 6.625-.6 7.05-1 .34-.616.576-1.283.7-1.975zM56.175 48.425c8.924-.555 17.802-1.7 26.575-3.425.7-.175.725-.575 1.05-1.75-3.242-4.38-8.239-7.12-13.675-7.5-8.85.725-13.95 12.675-13.95 12.675z"/>
        <path fill="#919396" d="M56.4 47.75s6.5-7.5 15.625-7.5c4.066-.013 8.088.84 11.8 2.5 0-4.756-3.819-8.632-8.575-8.7-8.5-.3-14.575 1.4-16.125 4.075-1.308 3.082-2.223 6.315-2.725 9.625z"/>
        <path fill="#1B335E" d="M70.825 35.825h-.7c-8.85.65-13.95 12.5-13.95 12.5H58.3c2.025-.15 4.1-.325 6.125-.55 8.9-.975 16.975-2.5 18.325-2.8.7-.175.725-.575 1.05-1.75-3.153-4.112-7.83-6.78-12.975-7.4z"/>
        <path fill="#DA4D52" d="M65.3 45.65c-.047 1.329-.93 2.482-2.2 2.875-1.131.221-2.275.372-3.425.45-.3.257-.649.452-1.025.575-.336.029-.67-.08-.925-.3-.4-.425.65-.95.65-.95.3-.4.7-.95 1.125-1.475l.8-.775c.036-.056.088-.1.15-.125.15-.15.329-.27.525-.35 1.382-.496 2.893-.496 4.275 0 .022.021.039.047.05.075z"/>
        <path fill="#231F20" d="M65.3 45.65c-.047 1.329-.93 2.482-2.2 2.875-1.131.221-2.275.372-3.425.45-.3.257-.649.452-1.025.575-.336.029-.67-.08-.925-.3l.6-.7v-.725l1.125-1.15.8-.775.275-.3-.125.175c-1.3 1.625-2.275 2.75.95 2.15 1.366-.101 2.622-.784 3.45-1.875.153-.186.287-.387.4-.6.066.044.104.12.1.2z" opacity=".15"/>
        <path fill="#F0F0F1" d="M28.625 56.225c1.811-1.423 3.937-2.392 6.2-2.825 4.1-.9 12.35-2.625 12.35-2.625-1.146 2.577-3.516 4.401-6.3 4.85-4.068.443-8.158.644-12.25.6zM10 55.475s-2.775 0-2.5-1.45c.275-1.45 2.5-2.8 2.5-2.8-.202 1.41-.202 2.84 0 4.25z"/>
        <path fill="#172C30" d="M55.275 79.475c3.8.125 7.025-4.175 7.225-9.65.2-5.475-2.725-10-6.525-10.125-1.027-.017-2.036.27-2.9.825-1.097 2.058-1.889 4.264-2.35 6.55-.3 2.112-.467 4.242-.5 6.375l-.425.975-.175.175c.732 2.613 2.958 4.533 5.65 4.875z"/>
        <ellipse cx="56.064" cy="69.613" fill="#EFF1F7" rx="7.575" ry="5.075" transform="rotate(-88 56.064 69.613)"/>
        <path fill="#1058AE" d="M53.4 70c0 2.075 1 3.775 2.5 3.825 1.5.05 2.5-1.575 2.625-3.65s-.975-3.8-2.375-3.85c-1.4-.05-2.675 1.475-2.75 3.675z"/>
        <path fill="#FFF" d="M52.825 47.75s-21.775 6.075-34.575 5c-2.663.002-5.269-.771-7.5-2.225 2.056-1.297 4.275-2.315 6.6-3.025.407-.043.818-.043 1.225 0h.825c8.6.55 27.4.675 33.425.25z" opacity=".4"/>
        <path fill="#FFF" d="M49.35 64.55c.013-.35.3-.625.65-.625.335.013.6.29.6.625 0 .345-.28.625-.625.625s-.625-.28-.625-.625zm0-3.85c-.014-.18.048-.36.172-.492.123-.133.297-.209.478-.208.335.013.6.29.6.625 0 .345-.28.625-.625.625-.318.002-.587-.234-.625-.55zm0-3.825c0-.17.07-.333.192-.451s.288-.18.458-.174c.164 0 .32.066.433.184.114.118.174.278.167.441 0 .336-.265.612-.6.625-.345 0-.625-.28-.625-.625h-.025zm0-3.85c.05-.315.331-.542.65-.525.164 0 .32.066.433.184.114.118.174.278.167.441 0 .336-.265.612-.6.625-.188.012-.37-.065-.493-.207s-.172-.334-.132-.518h-.025zM50 49.8c-.336 0-.612-.265-.625-.6 0-.345.28-.625.625-.625s.625.28.625.625c-.013.335-.29.6-.625.6zm0-3.825c-.345 0-.625-.28-.625-.625s.28-.625.625-.625.625.28.625.625-.28.625-.625.625zm0-3.85c-.336 0-.612-.265-.625-.6-.007-.168.056-.331.175-.45s.282-.182.45-.175c.345 0 .625.28.625.625-.013.335-.29.6-.625.6zm-.625-4.45c0-.345.28-.625.625-.625s.625.28.625.625-.28.625-.625.625-.625-.28-.625-.625zm0-3.85c0-.345.28-.625.625-.625.35.013.625.3.625.65-.013.335-.29.6-.625.6-.345 0-.625-.28-.625-.625zm0-3.825c0-.345.28-.625.625-.625s.625.28.625.625-.28.625-.625.625-.625-.28-.625-.625zM50 26.775c-.345 0-.625-.28-.625-.625s.28-.625.625-.625.625.28.625.625-.28.625-.625.625zm0-3.825c-.345 0-.625-.28-.625-.625 0-.166.066-.325.183-.442.117-.117.276-.183.442-.183.345 0 .625.28.625.625s-.28.625-.625.625zm0-3.85c-.345 0-.625-.28-.625-.625 0-.166.066-.325.183-.442.117-.117.276-.183.442-.183.345 0 .625.28.625.625s-.28.625-.625.625zm0-3.825c-.345 0-.625-.28-.625-.625s.28-.625.625-.625.625.28.625.625-.28.625-.625.625zm0-3.85c-.345 0-.625-.28-.625-.625 0-.166.066-.325.183-.442.117-.117.276-.183.442-.183.345 0 .625.28.625.625 0 .336-.265.612-.6.625H50zm.425 57.5c.125-.116.198-.279.2-.45-.003-.164-.076-.318-.2-.425-.113-.12-.272-.19-.438-.19-.165 0-.324.07-.437.19-.124.107-.197.261-.2.425.002.171.075.334.2.45.117.122.282.186.45.175.178-.017.336-.12.425-.275v.1zm16.475-12.7c-.099-.324.079-.668.4-.775.16-.054.334-.039.48.042.148.081.255.22.295.383.055.156.043.327-.033.474-.076.146-.208.255-.367.301H67.5c-.3-.008-.552-.229-.6-.525v.1zm-1.025-3.475c-.054-.16-.039-.334.042-.48.081-.148.22-.255.383-.295.331-.097.678.094.775.425.097.331-.094.678-.425.775h-.175c-.3-.008-.552-.229-.6-.525v.1zm-1.025-3.475c-.054-.162-.04-.34.04-.491.081-.151.22-.263.385-.309.33-.083.668.102.775.425.097.331-.094.678-.425.775h-.175c-.292-.006-.542-.214-.6-.5v.1zm-1.025-3.5c-.097-.331.094-.678.425-.775.331-.097.678.094.775.425.097.331-.094.678-.425.775h-.175c-.3-.008-.552-.229-.6-.525v.1zM62.8 42.3c-.097-.331.094-.678.425-.775.331-.097.678.094.775.425.097.331-.094.678-.425.775H63.4c-.3-.008-.552-.229-.6-.525v.1zm-1.025-3.475c-.046-.16-.028-.33.052-.476.08-.145.214-.253.373-.299.331-.097.678.094.775.425.099.324-.079.668-.4.775H62.5c-.343.046-.662-.185-.725-.525v.1zm-1-3.475c-.054-.16-.039-.334.042-.48.081-.148.22-.255.383-.295.16-.054.334-.039.48.042.148.081.255.22.295.383.046.156.026.324-.054.465-.08.141-.214.244-.371.285h-.175c-.296.004-.55-.208-.6-.5v.1zm-1.025-3.475c-.054-.162-.04-.34.04-.491.081-.151.22-.263.385-.309.331-.097.678.094.775.425.046.16.028.33-.052.476-.08.145-.214.253-.373.299h-.175c-.292-.006-.542-.214-.6-.5v.1zm-1.025-3.5c-.046-.16-.028-.33.052-.476.08-.145.214-.253.373-.299.331-.097.678.094.775.425.046.16.028.33-.052.476-.08.145-.214.253-.373.299h-.175c-.3-.008-.552-.229-.6-.525v.1zM57.7 24.9c-.046-.16-.028-.33.052-.476.08-.145.214-.253.373-.299.331-.097.678.094.775.425.046.16.028.33-.052.476-.08.145-.214.253-.373.299H58.3c-.3-.008-.552-.229-.6-.525v.1zm-1.025-3.475c-.054-.16-.039-.334.042-.48.081-.148.22-.255.383-.295.16-.054.334-.039.48.042.148.081.255.22.295.383.056.286-.103.571-.375.675h-.175c-.29.026-.558-.15-.65-.425v.1zm-1.025-3.5c-.083-.33.102-.668.425-.775.331-.097.678.094.775.425.054.16.039.334-.042.48-.081.148-.22.255-.383.295h-.175c-.296-.017-.543-.233-.6-.525v.1zm-1-3.475c-.082-.16-.091-.35-.024-.517.067-.168.203-.298.374-.358.338-.098.692.09.8.425.083.33-.102.668-.425.775h-.125c-.271.003-.513-.168-.6-.425v.1zm-1.025-3.475c-.14-.174-.172-.411-.083-.616.09-.205.285-.343.508-.359.331-.097.678.094.775.425.097.331-.094.678-.425.775h-.175c-.247.02-.482-.107-.6-.325v.1zM68.95 60c.125-.116.198-.279.2-.45-.003-.164-.076-.318-.2-.425-.113-.12-.272-.19-.438-.19-.165 0-.324.07-.437.19-.124.107-.197.261-.2.425.002.171.075.334.2.45.117.122.282.186.45.175.16.006.316-.057.425-.175zm12.925-13.7c-.093-.135-.127-.302-.094-.462.033-.161.13-.301.269-.388.135-.093.302-.127.462-.094.161.033.301.13.388.269.093.135.127.302.094.462-.033.161-.13.301-.269.388-.114.036-.236.036-.35 0-.212.01-.41-.108-.5-.3v.125zM79.75 43c-.18-.284-.103-.66.175-.85.139-.094.31-.13.474-.096.165.033.31.13.401.271.093.135.127.302.094.462-.033.161-.13.301-.269.388-.1.078-.223.121-.35.125-.215-.003-.413-.116-.525-.3zm-2.1-3.175c-.093-.135-.127-.302-.094-.462.033-.161.13-.301.269-.388.139-.094.31-.13.474-.096.165.033.31.13.401.271.18.284.103.66-.175.85-.103.074-.224.117-.35.125-.215-.003-.413-.116-.525-.3zm-2.1-3.175c-.093-.135-.127-.302-.094-.462.033-.161.13-.301.269-.388.139-.094.31-.13.474-.096.165.033.31.13.401.271.178.298.09.684-.2.875-.107.022-.218.022-.325 0-.197.024-.394-.05-.525-.2zm-2.1-3.15c-.102-.136-.14-.31-.107-.476.033-.167.136-.312.282-.399.135-.093.302-.127.462-.094.161.033.301.13.388.269.093.135.127.302.094.462-.033.161-.13.301-.269.388-.114.035-.236.035-.35 0-.181.033-.367-.023-.5-.15zm-2.125-3.2c-.18-.284-.103-.66.175-.85.139-.094.31-.13.474-.096.165.033.31.13.401.271.094.139.13.31.096.474-.033.165-.13.31-.271.401-.115.025-.235.025-.35 0-.197.02-.392-.054-.525-.2zm-2.1-3.15c-.183-.292-.106-.676.175-.875.139-.094.31-.13.474-.096.165.033.31.13.401.271.183.292.106.676-.175.875-.114.036-.236.036-.35 0-.192.023-.385-.041-.525-.175zm-2.1-3.175c-.094-.139-.13-.31-.096-.474.033-.165.13-.31.271-.401.135-.093.302-.127.462-.094.161.033.301.13.388.269.097.136.136.304.107.469-.028.164-.12.31-.257.406-.115.03-.235.03-.35 0-.192.023-.385-.041-.525-.175zM65 20.8c-.144-.28-.058-.621.2-.8.135-.093.302-.127.462-.094.161.033.301.13.388.269.094.139.13.31.096.474-.033.165-.13.31-.271.401-.114.036-.236.036-.35 0-.207.018-.408-.078-.525-.25zm-2.125-3.175c-.183-.292-.106-.676.175-.875.292-.183.676-.106.875.175.183.292.106.676-.175.875-.114.036-.236.036-.35 0-.184.015-.366-.048-.5-.175h-.025zm-2.1-3.175c-.183-.292-.106-.676.175-.875.292-.183.676-.106.875.175.183.292.106.676-.175.875-.114.033-.236.033-.35 0-.184.015-.366-.048-.5-.175h-.025zm-2.1-3.175c-.094-.139-.13-.31-.096-.474.033-.165.13-.31.271-.401.294-.17.669-.095.875.175.178.298.09.684-.2.875-.106.033-.22.033-.325 0-.184.015-.366-.048-.5-.175h-.025zM84.725 49.6l.2-.15c.043-.059.069-.128.075-.2.014-.083.014-.167 0-.25-.009-.162-.08-.315-.2-.425-.113-.12-.272-.19-.438-.19-.165 0-.324.07-.437.19-.115.111-.178.265-.175.425-.027.081-.027.169 0 .25-.012.066-.012.134 0 .2.116.125.279.198.45.2l.525-.05zM32.5 55.125c-.331-.097-.522-.444-.425-.775.046-.16.154-.293.3-.373.145-.08.316-.098.475-.052.331.097.522.444.425.775-.078.267-.322.45-.6.45H32.5v-.025zm1.05-3.625c-.321-.107-.499-.451-.4-.775.04-.157.144-.291.285-.371.141-.08.31-.1.465-.054.163.04.302.147.383.294.08.147.096.322.042.481-.068.263-.304.447-.575.45h-.2V51.5zm1.075-3.625c-.331-.097-.522-.444-.425-.775.046-.16.154-.293.3-.373.145-.08.316-.098.475-.052.331.097.522.444.425.775-.078.267-.322.45-.6.45h-.175v-.025zM35.7 44.25c-.163-.04-.302-.147-.383-.294-.08-.147-.096-.322-.042-.481.04-.157.144-.291.285-.371.141-.08.31-.1.465-.054.333.097.53.438.45.775-.094.266-.343.445-.625.45h-.1l-.05-.025zm1.05-3.625c-.16-.046-.293-.154-.373-.3-.08-.145-.098-.316-.052-.475.097-.331.444-.522.775-.425.331.097.522.444.425.775-.078.267-.322.45-.6.45h-.175v-.025zM37.8 37c-.323-.107-.508-.445-.425-.775.046-.16.154-.293.3-.373.145-.08.316-.098.475-.052.163.04.302.147.383.294.08.147.096.322.042.481-.078.267-.322.45-.6.45H37.8V37zm1.075-3.625c-.175-.054-.317-.182-.39-.35-.072-.17-.066-.36.015-.525.046-.16.154-.293.3-.373.145-.08.316-.098.475-.052.16.046.293.154.373.3.08.145.098.316.052.475-.078.267-.322.45-.6.45h-.175l-.05.075zM40 29.75c-.321-.107-.499-.451-.4-.775.04-.157.144-.291.285-.371.141-.08.31-.1.465-.054.163.04.302.147.383.294.08.147.096.322.042.481-.078.267-.322.45-.6.45H40v-.025zm1.075-3.625c-.16-.046-.293-.154-.373-.3-.08-.145-.098-.316-.052-.475.097-.331.444-.522.775-.425.16.046.293.154.373.3.08.145.098.316.052.475-.078.267-.322.45-.6.45h-.175v-.025zM42.1 22.5c-.323-.107-.508-.445-.425-.775.045-.171.16-.315.318-.396.157-.08.342-.091.507-.029.163.04.302.147.383.294.08.147.096.322.042.481-.068.263-.304.447-.575.45h-.2l-.05-.025zm1.075-3.625c-.331-.097-.522-.444-.425-.775.097-.331.444-.522.775-.425.331.097.522.444.425.775-.078.267-.322.45-.6.45h-.175v-.025zm1.05-3.625c-.331-.097-.522-.444-.425-.775.097-.331.444-.522.775-.425.163.04.302.147.383.294.08.147.096.322.042.481-.078.267-.322.45-.6.45h-.175v-.025zm1.075-3.625c-.282-.145-.411-.478-.3-.775.097-.331.444-.522.775-.425.331.097.522.444.425.775-.078.267-.322.45-.6.45h-.175l-.125-.025zM32.1 58.6c.125-.116.198-.279.2-.45.012-.075.012-.15 0-.225-.035-.076-.087-.145-.15-.2-.243-.238-.632-.238-.875 0-.124.107-.197.261-.2.425.002.171.075.334.2.45.117.122.282.186.45.175.143-.007.278-.07.375-.175zM16.95 46.425c-.28-.2-.358-.583-.175-.875.2-.28.583-.358.875-.175.28.2.358.583.175.875-.12.17-.316.273-.525.275-.124.002-.246-.033-.35-.1zm2.125-3.175c-.225-.178-.306-.483-.2-.75.206-.27.58-.345.875-.175.14.092.238.236.271.4.033.165-.002.336-.096.475H20c-.12.17-.316.273-.525.275-.16-.013-.306-.095-.4-.225zm2.1-3.25c-.139-.087-.236-.227-.27-.388-.032-.16.002-.327.095-.462.182-.286.56-.375.85-.2.14.092.238.236.271.4.033.165-.002.336-.096.475-.106.174-.296.278-.5.275-.124.005-.247-.03-.35-.1zm2.1-3.175c-.139-.087-.236-.227-.27-.388-.032-.16.002-.327.095-.462.191-.29.577-.378.875-.2.27.206.345.58.175.875-.12.17-.316.273-.525.275-.116.028-.239.02-.35-.025v-.075zm2.1-3.175c-.28-.2-.358-.583-.175-.875.2-.28.583-.358.875-.175.28.2.358.583.175.875-.12.17-.316.273-.525.275-.117.025-.238.017-.35-.025v-.075zm2.125-3.1c-.139-.087-.236-.227-.27-.388-.032-.16.002-.327.095-.462.087-.139.227-.236.388-.27.16-.032.327.002.462.095.139.087.236.227.27.388.032.16-.002.327-.095.462-.12.17-.316.273-.525.275-.116.002-.23-.033-.325-.1zm2.1-3.05c-.139-.087-.236-.227-.27-.388-.032-.16.002-.327.095-.462.087-.146.232-.25.399-.282.166-.034.34.005.476.107.278.19.355.566.175.85-.127.123-.3.186-.475.175-.13.046-.27.046-.4 0zm2.1-3.175c-.139-.087-.236-.227-.27-.388-.032-.16.002-.327.095-.462.063-.193.216-.343.41-.402.194-.06.404-.022.565.102.278.19.355.566.175.85-.114.178-.314.282-.525.275-.157.03-.32-.005-.45-.1v.125zm2.1-3.175c-.278-.19-.355-.566-.175-.85.07-.162.205-.286.371-.344.167-.057.35-.04.504.044.139.087.236.227.27.388.032.16-.002.327-.095.462-.112.184-.31.297-.525.3-.126-.008-.247-.051-.35-.125v.125zm2.125-3.175c-.139-.087-.236-.227-.27-.388-.032-.16.002-.327.095-.462.087-.139.227-.236.388-.27.16-.032.327.002.462.095.139.087.236.227.27.388.032.16-.002.327-.095.462-.108.187-.309.302-.525.3-.134-.043-.25-.131-.325-.25v.125zm2.1-3.175c-.139-.087-.236-.227-.27-.388-.032-.16.002-.327.095-.462.087-.139.227-.236.388-.27.16-.032.327.002.462.095.139.087.236.227.27.388.032.16-.002.327-.095.462-.096.187-.29.304-.5.3-.144-.037-.268-.126-.35-.25v.125zm2.1-3.15c-.166-.104-.276-.276-.3-.47-.024-.194.04-.389.175-.53.092-.14.236-.238.4-.271.165-.033.336.002.475.096.28.2.358.583.175.875-.12.17-.316.273-.525.275-.14.001-.277-.033-.4-.1v.125zm-24.5 38c.125-.116.198-.279.2-.45-.003-.164-.076-.318-.2-.425-.113-.12-.272-.19-.438-.19-.165 0-.324.07-.437.19-.12.107-.185.264-.175.425-.007.168.056.331.175.45s.282.182.45.175c.185-.018.346-.132.425-.3v.125z"/>
        <path fill="#8BAAEF" d="M51.175 0L51.175 6.375 49.15 6.375 49.15 0z"/>
        <path fill="#8BAAEF" d="M41.075 5.375H58.95C60.639 5.389 62 6.761 62 8.45H38c0-1.698 1.377-3.075 3.075-3.075z"/>
    </g>
</svg>
