<svg xmlns="http://www.w3.org/2000/svg" width="40" height="40" viewBox="0 0 40 40">
    <g fill="none" fill-rule="evenodd">
        <circle cx="20" cy="20" r="20" fill="#FAE5E5"/>
        <g>
            <path fill="#D84E55" d="M0 10.407C0 4.823 4.559.295 10.182.295s10.182 4.528 10.182 10.112c0 6.445-10.197 14.263-10.197 14.263S0 16.852 0 10.407z" transform="translate(10.182 8)"/>
            <path fill="#FFF" stroke="#FFF" stroke-opacity=".206" d="M10.18 6.556c-1.13 0-2.152.452-2.892 1.182-.743.732-1.202 1.745-1.202 2.863 0 1.118.46 2.13 1.202 2.863.74.73 1.762 1.182 2.892 1.182s2.152-.452 2.892-1.182c.743-.733 1.202-1.745 1.202-2.863 0-1.118-.46-2.13-1.202-2.863-.74-.73-1.762-1.182-2.892-1.182z" transform="translate(10.182 8)"/>
        </g>
    </g>
</svg>
