<svg xmlns="http://www.w3.org/2000/svg" width="109" height="32" viewBox="0 0 109 32">
    <defs>
        <linearGradient id="a" x1="61.765%" x2="25.199%" y1="4.839%" y2="71.968%">
            <stop offset="0%" stop-color="#00A0FF"/>
            <stop offset=".657%" stop-color="#00A1FF"/>
            <stop offset="26.01%" stop-color="#00BEFF"/>
            <stop offset="51.22%" stop-color="#00D2FF"/>
            <stop offset="76.04%" stop-color="#00DFFF"/>
            <stop offset="100%" stop-color="#00E3FF"/>
        </linearGradient>
        <linearGradient id="b" x1="107.728%" x2="-130.665%" y1="49.428%" y2="49.428%">
            <stop offset="0%" stop-color="#FFE000"/>
            <stop offset="40.87%" stop-color="#FFBD00"/>
            <stop offset="77.54%" stop-color="#FFA500"/>
            <stop offset="100%" stop-color="#FF9C00"/>
        </linearGradient>
        <linearGradient id="c" x1="86.389%" x2="-49.888%" y1="31.7%" y2="132.102%">
            <stop offset="0%" stop-color="#FF3A44"/>
            <stop offset="100%" stop-color="#C31162"/>
        </linearGradient>
        <linearGradient id="d" x1="-18.579%" x2="42.274%" y1="-9.564%" y2="35.41%">
            <stop offset="0%" stop-color="#32A071"/>
            <stop offset="6.85%" stop-color="#2DA771"/>
            <stop offset="47.62%" stop-color="#15CF74"/>
            <stop offset="80.09%" stop-color="#06E775"/>
            <stop offset="100%" stop-color="#00F076"/>
        </linearGradient>
    </defs>
    <g fill="none" fill-rule="nonzero">
        <path fill="#FFF" d="M104.963 32H4.037C1.777 32 0 30.16 0 28V4c0-2.24 1.857-4 4.037-4h100.926C107.223 0 109 1.84 109 4v24c0 2.16-1.776 4-4.037 4z"/>
        <g fill="#000">
            <path d="M38.12 7.656c0 .625-.16 1.172-.56 1.563-.48.469-1.04.703-1.76.703s-1.28-.235-1.76-.703c-.48-.469-.72-1.016-.72-1.719 0-.703.24-1.25.72-1.719.48-.468 1.04-.703 1.76-.703.32 0 .64.078.96.234.32.157.56.313.72.547l-.4.391c-.32-.39-.72-.547-1.28-.547-.48 0-.96.156-1.28.547-.4.313-.56.781-.56 1.328s.16 1.016.56 1.328c.4.313.8.547 1.28.547.56 0 .96-.156 1.36-.547.24-.234.4-.547.4-.937H35.8v-.547h2.32v.234zM41.8 5.703h-2.16v1.484h2v.547h-2V9.22h2.16v.547H39V5.078h2.8zM44.44 9.844h-.64v-4.14h-1.36v-.548h3.28v.547h-1.36v4.14zM48.12 9.844V5.156h.64v4.688zM51.48 9.844h-.64v-4.14h-1.36v-.548h3.28v.547H51.4v4.14zM59.08 9.219c-.48.469-1.04.703-1.76.703s-1.28-.235-1.76-.703c-.48-.469-.72-1.016-.72-1.719 0-.703.24-1.25.72-1.719.48-.468 1.04-.703 1.76-.703s1.28.234 1.76.703.72 1.016.72 1.719c0 .703-.24 1.25-.72 1.719zm-3.04-.39c.32.312.8.546 1.28.546s.96-.156 1.28-.547c.32-.312.56-.781.56-1.328S59 6.484 58.6 6.172c-.32-.313-.8-.547-1.28-.547s-.96.156-1.28.547c-.32.312-.56.781-.56 1.328s.16 1.016.56 1.328zM60.68 9.844V5.156h.72l2.32 3.672V5.156h.64v4.688h-.64l-2.48-3.828v3.827h-.56z"/>
        </g>
        <path fill="#000" d="M55.021 17.893c-1.957 0-3.507 1.492-3.507 3.563 0 1.988 1.55 3.562 3.507 3.562 1.958 0 3.507-1.491 3.507-3.562 0-2.154-1.55-3.563-3.507-3.563zm0 5.634c-1.06 0-1.957-.912-1.957-2.154 0-1.243.897-2.154 1.957-2.154s1.958.828 1.958 2.154c0 1.242-.897 2.154-1.958 2.154zm-7.585-5.634c-1.957 0-3.507 1.492-3.507 3.563 0 1.988 1.55 3.562 3.507 3.562 1.958 0 3.507-1.491 3.507-3.562 0-2.154-1.55-3.563-3.507-3.563zm0 5.634c-1.06 0-1.957-.912-1.957-2.154 0-1.243.897-2.154 1.957-2.154s1.958.828 1.958 2.154c0 1.242-.898 2.154-1.958 2.154zm-9.053-4.557v1.492h3.507c-.081.828-.408 1.49-.816 1.905-.489.497-1.304 1.077-2.691 1.077-2.202 0-3.833-1.74-3.833-3.977 0-2.236 1.712-3.976 3.833-3.976 1.142 0 2.039.497 2.691 1.077l1.06-1.077c-.896-.828-2.038-1.491-3.67-1.491C35.529 14 33 16.485 33 19.467c0 2.983 2.528 5.468 5.465 5.468 1.63 0 2.773-.497 3.751-1.574.979-.994 1.305-2.402 1.305-3.48 0-.33 0-.662-.081-.91h-5.057zm37.028 1.16c-.326-.828-1.141-2.237-2.936-2.237-1.794 0-3.262 1.409-3.262 3.563 0 1.988 1.468 3.562 3.425 3.562 1.55 0 2.529-.994 2.855-1.574l-1.142-.829c-.408.58-.897.994-1.713.994-.815 0-1.305-.33-1.712-1.076l4.648-1.989-.163-.414zm-4.73 1.16c0-1.326 1.06-2.071 1.794-2.071.571 0 1.142.331 1.305.745l-3.1 1.326zm-3.833 3.396h1.55V14.331h-1.55v10.355zM64.4 18.64c-.408-.414-1.06-.828-1.876-.828-1.713 0-3.344 1.574-3.344 3.562 0 1.988 1.55 3.48 3.344 3.48.815 0 1.468-.415 1.794-.83h.082v.498c0 1.325-.734 2.07-1.876 2.07-.897 0-1.55-.662-1.713-1.242l-1.305.58c.408.911 1.387 2.071 3.1 2.071 1.794 0 3.262-1.077 3.262-3.645v-6.296H64.4v.58zm-1.795 4.888c-1.06 0-1.957-.912-1.957-2.154 0-1.243.897-2.154 1.957-2.154s1.876.911 1.876 2.154c0 1.242-.815 2.154-1.876 2.154zm19.901-9.196h-3.67v10.355h1.55v-3.893h2.12c1.713 0 3.344-1.243 3.344-3.23 0-1.989-1.631-3.232-3.344-3.232zm.082 4.97h-2.202V15.74h2.202c1.141 0 1.794.994 1.794 1.74-.082.91-.734 1.822-1.794 1.822zm9.38-1.49c-1.143 0-2.285.497-2.692 1.574l1.386.58c.326-.58.816-.746 1.387-.746.815 0 1.55.497 1.63 1.325v.083c-.244-.165-.896-.414-1.549-.414-1.468 0-2.936.828-2.936 2.32 0 1.408 1.223 2.32 2.528 2.32 1.06 0 1.55-.498 1.958-.995h.081v.828h1.468V20.71c-.163-1.822-1.55-2.9-3.262-2.9zm-.164 5.716c-.49 0-1.223-.249-1.223-.912 0-.828.897-1.077 1.63-1.077.653 0 .98.166 1.387.332-.163.994-.978 1.657-1.794 1.657zm8.564-5.468l-1.713 4.474h-.082l-1.794-4.474H95.15l2.691 6.296-1.55 3.48h1.55l4.16-9.776h-1.631zm-13.702 6.627h1.55V14.331h-1.55v10.355z"/>
        <path fill="url(#a)" d="M1.157.404C.91.646.744 1.05.744 1.534v17.85c0 .485.165.89.413 1.131l.083.081 10.25-10.015v-.161L1.158.403z" transform="translate(7 5)"/>
        <path fill="url(#b)" d="M14.88 13.973l-3.39-3.311v-.242l3.39-3.312.083.08 4.05 2.262c1.158.646 1.158 1.696 0 2.342l-4.133 2.181z" transform="translate(7 5)"/>
        <path fill="url(#c)" d="M14.963 13.892L11.49 10.5 1.157 20.596c.414.404.992.404 1.736.08l12.07-6.784" transform="translate(7 5)"/>
        <path fill="url(#d)" d="M14.963 7.108L2.893.404C2.15 0 1.571.08 1.157.484l10.334 10.097 3.472-3.473z" transform="translate(7 5)"/>
        <g fill="#000">
            <path d="M21.88 18.812L9.893 25.435c-.661.403-1.24.323-1.653 0l-.083.08.083.081c.413.323.992.404 1.653 0l11.987-6.784z" opacity=".2"/>
            <path d="M8.157 25.435c-.248-.243-.413-.647-.413-1.131v.08c0 .485.165.89.413 1.131v-.08z" opacity=".12"/>
        </g>
        <path fill="#000" d="M26.013 16.55l-4.133 2.262.083.08 4.05-2.261c.579-.323.827-.727.827-1.131 0 .404-.33.727-.827 1.05z" opacity=".12"/>
        <path fill="#FFF" d="M9.893 5.485l16.12 8.965c.496.323.827.646.827 1.05 0-.404-.248-.808-.827-1.13L9.893 5.403c-1.157-.646-2.066-.08-2.066 1.211v.081c0-1.292.909-1.858 2.066-1.211z" opacity=".25"/>
    </g>
</svg>
