<?xml version="1.0" encoding="UTF-8"?>
<svg width="70px" height="71px" viewBox="0 0 70 71" version="1.1" xmlns="http://www.w3.org/2000/svg" xmlns:xlink="http://www.w3.org/1999/xlink">
    <!-- Generator: Sketch 53.2 (72643) - https://sketchapp.com -->
    <title>ic_recharge</title>
    <desc>Created with Sketch.</desc>
    <g id="Page-1" stroke="none" stroke-width="1" fill="none" fill-rule="evenodd">
        <g id="web-page" transform="translate(-450.000000, -1323.000000)">
            <g id="ic_recharge" transform="translate(450.000000, 1323.000000)">
                <path d="M70,35.1561914 C70,44.3341878 66.4999886,52.6888108 60.7667407,58.9474082 C58.2447941,61.7020411 55.2933089,64.0533285 52.0137546,65.8822092 C46.9814644,68.7049424 41.180191,70.3121544 35.0001138,70.3121544 C15.6679201,70.3121544 0,54.5743655 0,35.1561914 C0,15.7377888 15.6679201,6.39488462e-14 35.0001138,6.39488462e-14 C41.180191,6.39488462e-14 46.9814644,1.607212 52.0137546,4.42994521 C55.2933089,6.25882587 58.2447941,8.61011327 60.7667407,11.3647462 C66.4999886,17.6233436 70,25.9781951 70,35.1561914" id="Fill-1" fill="#E3E3E3"></path>
                <path d="M34.0201328,11.8593356 C35.1283075,11.8593356 36.2369378,11.8424967 37.3446569,11.8670724 C37.8514788,11.8782225 38.0179898,11.6299626 38.0129785,11.18578 C38.008195,10.7718618 37.8560345,10.5251948 37.3754079,10.5279254 C35.1779646,10.5418061 32.9802936,10.5418061 30.7826226,10.5279254 C30.3045016,10.5249672 30.1461909,10.764125 30.1430019,11.181684 C30.1395851,11.6233636 30.2990347,11.8784501 30.8083623,11.8668449 C31.8784969,11.8422692 32.9495426,11.8593356 34.0201328,11.8593356 L34.0201328,11.8593356 Z M31.4703059,60.8222826 C31.469167,62.262918 32.637477,63.4375445 34.075029,63.4409578 C35.5098476,63.443916 36.6845356,62.2688344 36.6861301,60.8284265 C36.6874968,59.3891563 35.5146311,58.2083859 34.0811792,58.2063379 C32.6477273,58.20429 31.4714448,59.3830124 31.4703059,60.8222826 L31.4703059,60.8222826 Z M22.3260992,56.3629344 L45.830109,56.3629344 L45.830109,14.4971253 L22.3260992,14.4971253 L22.3260992,56.3629344 Z M24.3754821,65.6284209 C23.8016914,65.4588942 23.2124112,65.3289617 22.6568433,65.1123316 C20.9436712,64.4451474 19.9997296,63.1546967 19.7430157,61.3556658 C19.6767303,60.8923688 19.6534962,60.419742 19.6532684,59.9518939 C19.6489405,44.4949288 19.6500794,29.0379637 19.6491683,13.5809986 C19.6491683,11.9765252 19.9181825,10.4671689 21.1924126,9.33099876 C22.28077,8.36025939 23.6003293,7.93769422 25.0258087,7.93223296 C31.0605204,7.91016036 37.0956877,7.89013573 43.1303995,7.94110751 C45.1435645,7.95817396 46.8911321,8.67678505 47.9177598,10.5743461 C48.4238984,11.5098149 48.505901,12.5410832 48.505901,13.5809986 C48.5068121,28.7187074 48.5068121,43.8561886 48.5054454,58.9938975 C48.5054454,59.5757494 48.5234405,60.1605596 48.4762889,60.7394534 C48.2576152,63.4364068 46.8688092,64.9805787 44.21329,65.5155548 C44.0672798,65.5449091 43.9246863,65.5904196 43.7807261,65.6284209 L24.3754821,65.6284209 Z" id="Fill-4" fill="#17335C"></path>
                <polygon id="Fill-6" fill="#D65056" points="22.1053086 55.8038595 45.4386419 55.8038595 45.4386419 14.0494735 22.1053086 14.0494735"></polygon>
                <path d="M31.3158357,60.4076797 C31.3169084,58.8882095 32.4245685,57.6438055 33.7748712,57.6459676 C35.1249593,57.6481297 36.2296159,58.8946958 36.2281141,60.414166 C36.2268269,61.9348374 35.120454,63.1753977 33.7690786,63.1722747 C32.4151288,63.1686712 31.314763,61.9285913 31.3158357,60.4076797" id="Fill-8" fill="#D65056"></path>
                <path d="M34.0202814,11.5859101 C32.9344126,11.5859101 31.8480817,11.5702637 30.762675,11.5927945 C30.2460787,11.603434 30.0843535,11.3695735 30.0878191,10.9646465 C30.0910536,10.5818331 30.2516235,10.3625759 30.7365679,10.3652879 C32.9656025,10.3780136 35.194637,10.3780136 37.4234405,10.3652879 C37.9109263,10.3627845 38.0652583,10.5889261 38.07011,10.9684017 C38.0751928,11.3756234 37.9063056,11.6032253 37.3922507,11.5930031 C36.268723,11.5704724 35.1442712,11.5859101 34.0202814,11.5859101" id="Fill-9" fill="#FEFEFE"></path>
                <path d="M65.0877648,35.2336841 C65.0877648,44.2203447 57.8024955,51.5056139 48.8158349,51.5056139 C39.8291743,51.5056139 32.5439051,44.2203447 32.5439051,35.2336841 C32.5439051,26.2467946 39.8291743,18.9617542 48.8158349,18.9617542 C57.8024955,18.9617542 65.0877648,26.2467946 65.0877648,35.2336841" id="Fill-10" fill="#FEFEFE"></path>
                <path d="M62.0175893,34.9266665 C62.0175893,42.3874084 55.9696103,48.4354385 48.5089314,48.4354385 C41.0482525,48.4354385 35.0000455,42.3874084 35.0000455,34.9266665 C35.0000455,27.4659246 41.0482525,21.4178946 48.5089314,21.4178946 C55.9696103,21.4178946 62.0175893,27.4659246 62.0175893,34.9266665" id="Fill-11" fill="#FED67A"></path>
                <path d="M43.5499577,27.5582455 L55.2632033,27.5582455 L55.2632033,27.5819565 C54.572982,28.6243406 54.1833781,29.1805347 54.0946221,29.2518937 L50.9655725,29.2518937 C51.3952895,29.7453099 51.6876077,30.3462163 51.842066,31.0537096 L55.1779055,31.0537096 C55.2187101,31.06071 55.2387667,31.0774207 55.2387667,31.1011318 C54.4922948,32.1981642 54.1102985,32.7473578 54.0946221,32.7473578 L51.9271334,32.7473578 C51.8784905,33.3119073 51.6025403,33.9911731 51.0992827,34.785607 C50.4332675,35.5897512 49.7962997,36.1095883 49.1876877,36.3491831 C48.0506897,36.8814403 46.9630263,37.1476818 45.9240056,37.1476818 L45.9240056,37.1713929 C45.9240056,37.2513331 48.2745391,39.9830747 52.9739922,45.365263 L49.8691487,45.365263 C45.2911875,40.1413744 43.0022068,37.5175746 43.0022068,37.4936377 L43.0022068,35.9079313 L43.026413,35.8476374 C43.4319238,35.9036407 43.9068256,35.9316423 44.4508879,35.9316423 C47.0160493,35.9316423 48.6106589,35.116433 49.2363305,33.4869176 C49.3336162,33.2473228 49.3822591,33.0009534 49.3822591,32.7473578 L42.4180315,32.7473578 C42.385065,32.7473578 42.3684665,32.7304214 42.3684665,32.6997099 C43.1402972,31.6013225 43.5335897,31.0537096 43.5499577,31.0537096 L49.0777225,31.0537096 L49.0777225,31.0297727 C48.7614287,30.4008647 48.1479754,29.9117391 47.2389765,29.5630733 C46.5897903,29.355545 46.005615,29.2518937 45.4855283,29.2518937 L42.3935948,29.2518937 L42.3935948,29.1931806 C43.1402972,28.1031486 43.5257515,27.5582455 43.5499577,27.5582455" id="Fill-12" fill="#17335C"></path>
            </g>
        </g>
    </g>
</svg>