<svg xmlns="http://www.w3.org/2000/svg" width="160" height="141" viewBox="0 0 160 141">
    <g fill="none" fill-rule="evenodd" transform="translate(9 7.907)">
        <path fill="#F2B65E" fill-rule="nonzero" d="M111.947 45.424c-1.311 21.994-20.16 38.783-42.149 37.545A39.655 39.655 0 0 1 43.15 70.483C30.108 54.682 31.116 31.574 45.485 16.97 59.855 2.366 82.935.992 98.934 13.789a39.997 39.997 0 0 1 13.013 31.635z"/>
        <path fill="#FFD87B" fill-rule="nonzero" d="M109.806 41.16v2.31a39.987 39.987 0 0 1-5.862 18.657 40.464 40.464 0 0 1-7.549 8.884c-15.116 13.363-37.817 13.363-52.933 0l-.356-.356a40.295 40.295 0 0 1-13.055-31.76C30.676 16.815 49.077-.576 71.15.049c22.072.626 39.459 19.032 38.834 41.111h-.178z"/>
        <circle cx="70" cy="41.033" r="34" stroke="#F2B65E" stroke-width=".5"/>
        <path fill="#F26951" fill-rule="nonzero" d="M63.46 33.41a8.37 8.37 0 0 1 3.437 2.976 6.697 6.697 0 0 1 1.086 4.157 8.863 8.863 0 0 1-1.629 4.682A9.018 9.018 0 0 1 62.33 48.2a13.99 13.99 0 0 1-5.88.788 19.955 19.955 0 0 1-5.519-1.225A20.019 20.019 0 0 1 46 45.137l2.895-4.594a11.925 11.925 0 0 0 7.101 3.282 5.064 5.064 0 0 0 3.166-.7 2.809 2.809 0 0 0 1.222-2.582 2.539 2.539 0 0 0-.95-2.407 5.51 5.51 0 0 0-3.212-.963c-3.437-.218-5.88-.306-7.372-.262l.859-14.878 18.093 1.006-.317 5.47-11.624-.656-.272 3.982h2.443c1.9.164 3.747.7 5.427 1.575zM90.374 28.213a14.4 14.4 0 0 1 2.518 10.045 14.5 14.5 0 0 1-3.687 9.736c-2.38 2.28-5.692 3.367-8.992 2.952-3.337.005-6.502-1.449-8.633-3.965a14.18 14.18 0 0 1-2.428-10.221 14.063 14.063 0 0 1 3.642-9.693c2.386-2.268 5.693-3.354 8.992-2.952 3.351.01 6.514 1.518 8.588 4.098z"/>
        <path fill="#FFF5E5" fill-rule="nonzero" d="M41.62 20.033a6.986 6.986 0 0 0-1.769-5.07A7.031 7.031 0 0 0 35 12.632a7.036 7.036 0 0 0 5.087-1.763 6.991 6.991 0 0 0 2.338-4.836c-.23 3.852 2.711 7.162 6.575 7.401-3.864-.202-7.164 2.748-7.38 6.6zM34.353 6.033A2.479 2.479 0 0 0 32 3.386a2.479 2.479 0 0 0 2.647-2.353A2.479 2.479 0 0 0 37 3.68a2.479 2.479 0 0 0-2.647 2.353z"/>
        <path fill="#FFD87B" fill-rule="nonzero" d="M79.395 33.099c.48.67.675 1.49.545 2.293a3.176 3.176 0 0 1-.999 2.163 3.054 3.054 0 0 1-2.27.606 2.723 2.723 0 0 1-2.042-.995 3.045 3.045 0 0 1-.59-2.337 2.967 2.967 0 0 1 .999-2.12 2.909 2.909 0 0 1 2.27-.649c.82.045 1.58.423 2.087 1.039zm-3.177.692a2.317 2.317 0 0 0-.5 1.211c-.052.43.027.866.228 1.255.185.293.505.486.862.52.373.049.747-.081.999-.347a2.31 2.31 0 0 0 .454-1.211 2.116 2.116 0 0 0-.227-1.255 1.142 1.142 0 0 0-.863-.52 1.074 1.074 0 0 0-1.18.347h.227zm9.94-.909l-8.76 9.432h-1.86l8.396-9.561 2.225.13zm1.226 5.019c.484.67.694 1.486.59 2.293a3.055 3.055 0 0 1-1.044 2.163 2.813 2.813 0 0 1-2.224.65 2.905 2.905 0 0 1-2.088-1.04 2.963 2.963 0 0 1-.59-2.292 3.14 3.14 0 0 1 1.044-2.163 2.96 2.96 0 0 1 2.224-.606 2.712 2.712 0 0 1 1.861.995h.227zm-3.177.736c-.285.33-.445.74-.454 1.168-.06.412.002.832.181 1.211.184.322.525.534.908.562.367.032.725-.114.953-.389.291-.326.452-.74.454-1.168a1.827 1.827 0 0 0-.227-1.255.912.912 0 0 0-.862-.519 1.072 1.072 0 0 0-1.226.39h.273z"/>
        <path fill="#E5A44E" fill-rule="nonzero" d="M108 54.033a38.823 38.823 0 0 1-11.549 17.565c-14.169 11.527-34.278 12.595-49.615 2.634C39.87 69.26 34.678 62.235 32 54.165l76-.132z" opacity=".5"/>
        <path fill="#FFD87B" fill-rule="nonzero" d="M128.863 10.708l.525 2.905 2.32 1.88a.679.679 0 0 1 .292.555c0 .22-.109.427-.292.555l-2.626 1.41-1.138 2.733a.661.661 0 0 1-.547.287.661.661 0 0 1-.548-.287l-2.188-2.007-3.02-.214a.702.702 0 0 1-.55-.344.669.669 0 0 1-.02-.638l1.314-2.649-.744-2.819a.671.671 0 0 1 .143-.617.709.709 0 0 1 .6-.237l3.021.384 2.539-1.538a.715.715 0 0 1 .626.093c.181.127.29.33.293.548zM16.42 25.472l.478 2.417 1.87 1.554a.603.603 0 0 1 0 .95l-2.175 1.165-.913 2.245a.567.567 0 0 1-.913 0l-1.783-1.684h-2.479a.522.522 0 0 1-.44-.266.515.515 0 0 1 .005-.51l1.044-2.245-.609-2.331a.601.601 0 0 1 .138-.533c.129-.145.32-.22.514-.201l2.436.345 2.087-1.295a.525.525 0 0 1 .74.389zM136.613 37.187l1.188.72 1.353-.335a.3.3 0 0 1 .276.109.426.426 0 0 1 .093.323l-.246 1.537.697 1.393a.444.444 0 0 1-.014.333.336.336 0 0 1-.232.195l-1.353.24-.902 1.201a.31.31 0 0 1-.246.13.31.31 0 0 1-.245-.13l-.615-1.441-1.23-.624a.408.408 0 0 1-.137-.313c0-.123.05-.24.137-.312l.984-1.104v-1.537c-.09-.16-.054-.375.082-.48.135-.107.319-.064.41.095zM6.655.668v2.21l1.25 1.833a.524.524 0 0 1 .066.473.513.513 0 0 1-.344.326l-2.13.517-1.204 1.786a.507.507 0 0 1-.833 0l-1.157-1.88-2.084-.705a.472.472 0 0 1 0-.8l1.39-1.692V.526a.518.518 0 0 1 .277-.47l2.037.8 2.084-.8a.504.504 0 0 1 .498.115.522.522 0 0 1 .15.497z"/>
        <path fill="#1A335E" fill-rule="nonzero" d="M125 56.033v63.742c0 3.456-2.786 6.258-6.222 6.258H43.222c-3.436 0-6.222-2.802-6.222-6.258V56.033h88z"/>
        <path fill="#0B7AC0" fill-rule="nonzero" d="M111 56.033v63.742c0 3.456-2.787 6.258-6.225 6.258H29.18c-3.42-.025-6.181-2.82-6.181-6.258V56.033h88z"/>
        <path fill="#FFCB64" fill-rule="nonzero" d="M73 71.033v55H61v-55l5.655 3.016z"/>
    </g>
</svg>
