<svg xmlns="http://www.w3.org/2000/svg" width="160" height="141" viewBox="0 0 160 141">
    <g fill="none" fill-rule="nonzero" transform="translate(35 4.907)">
        <path fill="#105385" d="M85.783 115H5.551C2.485 115 0 112.536 0 109.496V61.69C0 59.652 1.666 58 3.721 58h82C87.53 58 89 59.456 89 61.252v50.496c0 1.772-1.43 3.218-3.217 3.252z"/>
        <path fill="#127BC0" d="M85.71 120H5.574c-3.07 0-5.561-2.453-5.573-5.487V66.685C0 64.65 1.67 63 3.73 63h81.98c1.817 0 3.29 1.455 3.29 3.25v50.5c0 1.795-1.473 3.25-3.29 3.25z"/>
        <rect width="75" height="13" x="7" y="66" fill="#C85A5A" rx=".87"/>
        <path fill="#0663AA" d="M4 69h79.488c.835 0 1.512.7 1.512 1.564V93H4V69z"/>
        <rect width="75" height="13" x="7" y="76" fill="#E07259" rx=".87"/>
        <path fill="#154B88" d="M4 70h79.572c.789 0 1.428.585 1.428 1.308V72H4v-2z"/>
        <path fill="#0663AA" d="M4 80h81v24H4z"/>
        <rect width="75" height="13" x="7" y="87" fill="#FFD77D" rx=".87"/>
        <path fill="#154B88" d="M4 81h81v2H4z"/>
        <path fill="#0663AA" d="M4 92h81v21.092c0 1.606-1.26 2.908-2.813 2.908H4V92z"/>
        <path fill="#154B88" d="M4 92h81v2H4z"/>
        <path fill="#2092D1" d="M71.601 130.976l-67.924-10.6c-2.127-.19-3.74-2.021-3.675-4.176V64.07c.23-1.885 1.908-3.24 3.78-3.053l69.857 10.94c1.933.177 3.401 1.835 3.36 3.794v50.88c-.34 2.682-2.73 4.608-5.398 4.345z"/>
        <path fill="#0663AA" d="M73.555 79.582a3.452 3.452 0 0 0-1.483-2.667 4.285 4.285 0 0 0-1.546-.703h-.424l-2.119-.33-7.118-1.076-3.813-.537-12.436-2.067-5.38-.827-3.644-.558-7.097-1.075-9.809-1.468-5.381-.827-4.47-.682-.72-.103h-.17a3.342 3.342 0 0 0-1.27 0 4.217 4.217 0 0 0-2.607 2.067 2.46 2.46 0 0 0-.276 1.075v43.122c-.008.6.122 1.193.382 1.736.64 1.309 1.933 2.195 3.411 2.336l2.627.393 57.58 8.744c.594.051 1.191-.012 1.76-.186 2.078-.45 3.67-2.085 4.024-4.134V79.871a1.332 1.332 0 0 0-.02-.29zm-2.118 42.667c0 .972-1.102 1.716-1.843 1.902-.28.051-.568.051-.848 0l-53.301-8.042-6.928-1.054a3.127 3.127 0 0 1-1.695-.765 3.963 3.963 0 0 1-.402-.434 2.62 2.62 0 0 1-.445-1.468v-43.06c0-.31.424-.579.7-.64a.716.716 0 0 1 .36 0l1.058.165.996.144 4.364.662 9.788 1.488 7.118 1.055 3.665.558 5.36.806 12.499 1.902 3.644.558 7.118 1.075 2.69.393 2.69.413 1.145.186c1.272.088 2.25 1.133 2.224 2.378l.043 41.778z" opacity=".7"/>
        <ellipse cx="19.533" cy="18.256" fill="#0663AA" opacity=".7" rx="12.5" ry="15.324" transform="rotate(-63.53 92.327 43.22)"/>
        <g transform="translate(8 22)">
            <ellipse cx="14.764" cy="14.389" fill="#FCC46A" rx="14.4" ry="14.384"/>
            <ellipse cx="14.764" cy="14.389" fill="#FFD87C" rx="11.421" ry="11.409"/>
            <path fill="#F6B75C" d="M14.764 1.589c-7.1 0-12.857 5.75-12.857 12.843s5.756 12.842 12.857 12.842c7.101 0 12.857-5.75 12.857-12.842 0-7.093-5.756-12.843-12.857-12.843zm0 22.817a10.05 10.05 0 0 1-9.302-6.187 10.03 10.03 0 0 1 2.174-10.95A10.058 10.058 0 0 1 18.6 5.097a10.039 10.039 0 0 1 6.194 9.292c-.012 5.527-4.495 10.005-10.029 10.017z"/>
            <path fill="#FCC46A" d="M20.121 11.478h-2.978a.92.92 0 0 0 0-.707h2.143l1.093-1.84h-9.365l-1.093 1.84H14.1c.207-.005.413.04.6.129h-3.686L9.9 12.676h4.65c-.11.158-.24.302-.386.429-.264.221-.57.389-.9.492l-.664.15h-2.057v1.455l.15.171.557.643c.814.899 2.143 2.461 4.093 4.709l.171.214h3.15l-4.714-5.523a6.432 6.432 0 0 0 1.779-.749c.589-.376 1.069-.9 1.392-1.52.193-.38.337-.782.429-1.198h1.457l1.114-1.798v1.327z"/>
            <path fill="#D75156" d="M11.014 8.203l-.685 1.156-.386.685h3.514c.218-.015.435.038.622.15.236.151.44.347.6.577h-3.665L9.88 12.548H15a3.06 3.06 0 0 1-.343.642l-.193.214-.193.214-.214.15-.214.129-.214.128h-3.086v1.455l.15.172.557.663 1.157 1.306 2.936 3.853.193.214h2.507l-4.714-5.544a5.896 5.896 0 0 0 1.757-.728c.59-.375 1.07-.9 1.393-1.52.192-.39.343-.798.45-1.22h1.457l1.114-1.755h-2.679a3.722 3.722 0 0 0-.321-.77h2.143l1.071-1.82h-8.571l-.129-.128z"/>
        </g>
        <circle cx="56" cy="18" r="18" fill="#FCC46A"/>
        <circle cx="55.5" cy="17.5" r="14.5" fill="#FFD87C"/>
        <path fill="#F6B75C" d="M71.789 15.412C70.4 6.942 62.575 1.077 54.056 2.12c-8.52 1.043-14.698 8.622-14.003 17.177.696 8.555 8.018 15.037 16.594 14.69 8.576-.347 15.35-7.4 15.353-15.982a15.032 15.032 0 0 0-.211-2.593zM56 30.547a12.542 12.542 0 1 1 11.91-16.442c.414 1.259.627 2.575.632 3.9C68.485 24.908 62.903 30.49 56 30.547z"/>
        <path fill="#FCC46A" d="M61.706 14.37H58.08a1.154 1.154 0 0 1 0-.163h2.58L62 12H50.405l-1.363.75h5.179c.255-.007.507.048.734.161h-4.55L49 15.058h5.787c-.14.192-.31.363-.503.506a3.24 3.24 0 0 1-1.111.607c-.26.082-.527.143-.797.183h-.545c-.42.024-.84.024-1.258 0h-.776v1.741l.21.203.691.79a492.313 492.313 0 0 1 5.075 5.649l.21.263h3.92l-5.85-4.313a7.622 7.622 0 0 0 2.097-.891 4.598 4.598 0 0 0 1.72-1.822c.24-.466.43-.955.565-1.458h1.804l1.384-2.147h.083z"/>
        <path fill="#D75156" d="M59.835 12.038L61 10H50.393l-.353.57-.998 1.835h4.367c.26-.003.516.052.749.163.288.188.535.43.728.714h-4.493l-.707 1.161-.686 1.08h6.24c-.11.267-.25.52-.417.755-.135.197-.304.37-.499.51-.145.132-.306.249-.478.346a2.332 2.332 0 0 1-.562.244h-3.369v1.753l.125.143.208.244.478.53c.998 1.08 2.662 2.976 5.033 5.687l.208.265h3.099l-5.844-6.36a7.838 7.838 0 0 0 2.08-.896 4.93 4.93 0 0 0 1.726-1.834c.243-.465.425-.958.54-1.468h1.81l1.372-2.16h-3.223a5.367 5.367 0 0 0-.395-.877h2.558l.145-.367z"/>
    </g>
</svg>
