<svg xmlns="http://www.w3.org/2000/svg" width="160" height="140" viewBox="0 0 160 140">
    <g fill="none" fill-rule="evenodd">
        <path fill="#FFD271" d="M12.658 73.68l.3-2.799a.29.29 0 0 0-.173-.295l-2.611-1.143c-.26-.114-.22-.491.06-.55l2.796-.585a.285.285 0 0 0 .23-.25l.297-2.8c.032-.276.406-.356.548-.114l1.43 2.44c.062.108.19.162.313.136l2.799-.584c.276-.057.466.266.276.476l-1.913 2.092a.288.288 0 0 0-.035.337l1.43 2.438c.14.241-.116.522-.375.409l-2.611-1.147a.3.3 0 0 0-.337.071l-1.914 2.092c-.19.207-.539.056-.51-.225M108.658 139.68l.3-2.799a.29.29 0 0 0-.173-.295l-2.611-1.143c-.26-.114-.22-.491.06-.55l2.796-.585a.285.285 0 0 0 .23-.25l.297-2.8c.032-.276.406-.356.548-.114l1.43 2.44c.062.108.19.162.313.136l2.799-.584c.276-.057.466.266.276.476l-1.913 2.092a.288.288 0 0 0-.035.337l1.43 2.438c.14.241-.116.522-.375.409l-2.611-1.147a.3.3 0 0 0-.337.071l-1.914 2.092c-.19.207-.539.056-.51-.225M105.405 4.705c.66-.494.791-1.436.291-2.099a1.506 1.506 0 0 0-2.101-.31 1.496 1.496 0 0 0-.291 2.098 1.506 1.506 0 0 0 2.101.31zM142.405 32.705c.66-.494.791-1.436.291-2.099a1.506 1.506 0 0 0-2.101-.31 1.496 1.496 0 0 0-.291 2.098 1.506 1.506 0 0 0 2.101.31zM66.394 10.21c.998 1.33.736 3.212-.584 4.2-1.32.986-3.206.708-4.203-.621-1-1.327-.737-3.212.583-4.198 1.32-.987 3.205-.71 4.204.619M45.394 122.21c.998 1.33.736 3.212-.584 4.2-1.32.986-3.206.708-4.203-.621-1-1.327-.737-3.212.583-4.198 1.32-.987 3.205-.71 4.204.619"/>
        <path fill="#B6D34D" d="M26 47.328L28.831 51 30 47zM18 91.328L20.831 95 22 91z"/>
        <path fill="#FFD87B" d="M50.333 8.631c1.649-.597 3.1-1.883 3.812-3.486l.028.504a20.73 20.73 0 0 1-.13.333c-.688 1.725-1.823 3.256-3.492 4.119-1.784.92-3.863.916-5.675 1.762-.818.384-1.57.975-2.03 1.773 0 .003-.007.013-.015.029l-.004-.645c.08-.197.165-.389.254-.578.374-.788.898-1.455 1.617-1.953 1.667-1.152 3.785-1.186 5.635-1.858M146 11l.308.574.028.078c.14.39.33.758.541 1.103.908 1.48 2.285 2.594 3.78 3.277.069.031.094.203.114.273.062.227.106.458.146.69.014.079.1 1.013.08 1.005a8.92 8.92 0 0 1-1.088-.59c-1.346-.859-2.57-2.106-3.227-3.674-.356-.848-.573-1.796-.682-2.736"/>
        <text fill="#E74251" font-family="Montserrat-Bold, Montserrat" font-size="9.401" font-weight="bold">
            <tspan x="20" y="29">%</tspan>
        </text>
        <text fill="#E74251" font-family="Montserrat-Bold, Montserrat" font-size="9.401" font-weight="bold">
            <tspan x="138" y="125">%</tspan>
        </text>
        <path fill="#F9C36B" d="M146.577 76.778c-3.71 32.237-32.725 55.348-64.808 51.621-32.083-3.726-55.085-32.88-51.378-65.117 3.708-32.237 32.72-55.35 64.804-51.627 15.409 1.788 29.48 9.654 39.116 21.868a58.961 58.961 0 0 1 12.266 43.255"/>
        <path fill="#FFD67A" d="M134.593 75.327c-2.912 25.587-25.916 43.958-51.38 41.033-25.466-2.925-43.75-26.038-40.84-51.625 2.91-25.588 25.912-43.96 51.377-41.038a46.311 46.311 0 0 1 31.078 17.304 46.749 46.749 0 0 1 9.764 34.326"/>
        <path stroke="#F2B65E" stroke-width="3.3" d="M134.593 75.327c-2.912 25.587-25.916 43.958-51.38 41.033-25.466-2.925-43.75-26.038-40.84-51.625 2.91-25.588 25.912-43.96 51.377-41.038a46.311 46.311 0 0 1 31.078 17.304 46.749 46.749 0 0 1 9.764 34.326z"/>
        <path fill="#F9C36B" d="M111.515 60.722h-2.252l-9.266-1.068a5.192 5.192 0 0 1 0-.598l8.5.94 4.803-9.908h-2.252l-34.766-4.27-5.27 4.356h2.253l14.28 1.623a5.211 5.211 0 0 1 2.337.811v.213L75.05 53.974l-5.398 6.705h2.253l16.235 1.922a7.745 7.745 0 0 1-1.785 1.537 11.233 11.233 0 0 1-3.868 1.623c-.883.17-1.778.27-2.677.299h-1.743c-1.105 0-2.507 0-4.25-.3l-2.507-.298-.68 5.936.552.768 1.913 2.904c2.833 4.071 7.622 11.09 14.365 21.053l.595.94h2.21l10.2 1.153-16.447-24.64a25.028 25.028 0 0 0 7.437-2.22c2.146.516 4.375.574 6.545.17a22.89 22.89 0 0 0 2.338-4.698l5.907.684 5.313-6.748-.043-.042z"/>
        <path fill="#D45257" d="M88.183 99.881l-.596-.94C80.874 88.893 76.085 81.875 73.224 77.89l-1.956-2.947-.552-.726.68-5.936 2.508.257c1.614 0 3.017.299 4.25.341a12.703 12.703 0 0 0 8.202-2.092 9.978 9.978 0 0 0 3.442-3.93l-20.145-2.348 5.398-6.534 14.96 1.751v-.341a8.534 8.534 0 0 0-2.125-2.69 5.635 5.635 0 0 0-2.423-.855l-14.45-1.665 5.27-7.004 34.765 4.27-5.185 6.962-8.5-.94c.4 1.054.712 2.14.935 3.246l10.795 1.238-5.142 6.705-5.95-.684a22.89 22.89 0 0 1-2.338 4.698 15.963 15.963 0 0 1-6.162 5.509 24.435 24.435 0 0 1-7.48 2.22l16.32 24.555-10.158-1.068z"/>
        <path fill="#FFF5E5" fill-rule="nonzero" d="M115 40.053c4.748-7.966 2.294-18.283-5.525-23.231 7.9 4.686 18.074 2.23 22.993-5.552-4.74 7.977-2.267 18.298 5.567 23.231-7.909-4.714-18.115-2.254-23.035 5.552z"/>
    </g>
</svg>
