<svg xmlns="http://www.w3.org/2000/svg" width="120" height="120" viewBox="0 0 120 120">
    <g fill="none" fill-rule="evenodd">
        <g fill-rule="nonzero">
            <g transform="translate(-736 -6123) translate(736 6123)">
                <circle cx="60" cy="60" r="59.284" fill="#FFF1DC"/>
                <circle cx="60" cy="59.998" r="40.365" fill="#D25257" transform="rotate(-65.39 60 59.998)"/>
                <path fill="#3B3C40" d="M59.932 100.848c-22.23-.034-40.35-17.837-40.778-40.063-.428-22.225 16.996-40.712 39.208-41.6 22.212-.89 41.056 16.147 42.406 38.336 1.349 22.188-15.293 41.383-37.449 43.192-1.132.087-2.264.135-3.387.135zm.097-80.71c-16.728-.021-31.69 10.404-37.463 26.103-5.774 15.7-1.132 33.334 11.624 44.156 13.45 11.44 32.82 12.675 47.613 3.035s21.486-27.86 16.452-44.784C93.22 31.724 77.657 20.126 60 20.138h.029z"/>
                <path fill="#FFF" d="M60.097 62.835l24.338 20.652c-12.308 13.39-32.993 14.67-46.858 2.898-13.864-11.771-15.957-32.39-4.742-46.708L46.452 51.29l3.358 2.904 6.319 5.254 3.968 3.387z"/>
                <path fill="#3B3C40" d="M60 94.384c-13.011 0-24.909-7.343-30.74-18.975-5.831-11.631-4.597-25.558 3.188-35.983.082-.108.204-.178.34-.194.13-.014.263.024.367.107l51.6 43.78c.102.088.161.215.164.349.01.133-.04.264-.135.358C78.326 90.603 69.362 94.422 60 94.384zM32.903 40.413c-7.36 10.174-8.396 23.616-2.68 34.798C35.94 86.392 47.443 93.425 60 93.416c8.916.033 17.468-3.533 23.72-9.89L59.767 63.203l-26.865-22.79z"/>
                <path fill="#FFF" d="M93.871 60c-.006 7.31-2.383 14.42-6.774 20.265L63.445 60.203l-4.151-3.522-3.03-2.565-4.838-4.093-15.949-13.549c9.574-10.048 24.308-13.24 37.18-8.053C85.532 33.607 93.938 46.12 93.872 60z"/>
                <path fill="#3B3C40" d="M87.165 80.768c-.115.001-.225-.04-.31-.116L35.245 36.89c-.104-.086-.167-.213-.174-.348 0-.132.047-.26.135-.358C41.666 29.403 50.634 25.58 60 25.616c13.008.007 24.899 7.353 30.725 18.983 5.826 11.63 4.59 25.553-3.193 35.975-.08.105-.198.175-.329.194h-.038zM36.26 36.484l50.836 43.093c4.131-5.689 6.344-12.546 6.32-19.577 0-18.455-14.962-33.416-33.417-33.416-8.924-.035-17.484 3.534-23.739 9.9z"/>
                <path fill="#3B3C40" d="M46.452 51.29c-.095.247-.142.51-.136.775-.001.53.192 1.043.542 1.441.445.455 1.069.689 1.703.64h1.249l-3.358-2.856zm20.903 25.616L54.348 64.394c1.316-.125 2.614-.394 3.871-.804.638-.205 1.259-.457 1.858-.755l-3.948-3.387c-.841.388-1.73.665-2.642.823-1.172.213-2.36.32-3.552.32h-.754c-.668-.02-1.313.24-1.781.715-.46.49-.71 1.139-.697 1.81 0 .433.1.86.29 1.249.24.457.57.862.968 1.19L63.3 80.535c.34.372.766.658 1.239.833.399.134.817.203 1.238.203.724.047 1.43-.226 1.936-.745.465-.501.715-1.165.697-1.849-.04-.807-.416-1.561-1.036-2.08l-.02.01zM69.9 50.052h-4.094c-.335-1.14-.928-2.185-1.732-3.058-.665-.728-1.468-1.316-2.361-1.733v-.222c.184 0 .745.067 1.664.116.92.048 2.062 0 3.407 0H69.9c.63.052 1.25-.17 1.703-.61.352-.381.543-.884.532-1.403.005-.53-.184-1.042-.532-1.442-.444-.456-1.068-.69-1.703-.639H48.61c-.63-.05-1.249.173-1.704.61-.352.382-.546.884-.541 1.403-.031.589.196 1.161.621 1.568.426.407 1.008.609 1.595.552h2.593c4.89 0 7.83 1.612 8.816 4.838h-8.487l4.839 4.094H60.3c-.136.914-.466 1.788-.968 2.564l4.152 3.523c.428-.489.813-1.013 1.151-1.568.815-1.379 1.308-2.923 1.442-4.52h3.813c.63.053 1.25-.17 1.704-.609.35-.387.54-.891.532-1.413.004-.53-.185-1.042-.532-1.442-.44-.441-1.053-.668-1.675-.62l-.019.01z"/>
            </g>
        </g>
    </g>
</svg>
