<?xml version="1.0" encoding="UTF-8"?>
<svg width="110px" height="110px" viewBox="0 0 110 110" version="1.1" xmlns="http://www.w3.org/2000/svg" xmlns:xlink="http://www.w3.org/1999/xlink">
    <!-- Generator: Sketch 59.1 (86144) - https://sketch.com -->
    <title>img_verified-user</title>
    <desc>Created with Sketch.</desc>
    <defs>
        <polygon id="path-1" points="0.000314285714 0.4246 109.575714 0.4246 109.575714 110 0.000314285714 110"></polygon>
    </defs>
    <g id="Final" stroke="none" stroke-width="1" fill="none" fill-rule="evenodd">
        <g id="web-page-copy-4" transform="translate(-113.000000, -1850.000000)">
            <g id="Group-4" transform="translate(113.000000, 1841.000000)">
                <g id="img_verified-user" transform="translate(0.000000, 9.000000)">
                    <g id="Group-3">
                        <mask id="mask-2" fill="white">
                            <use xlink:href="#path-1"></use>
                        </mask>
                        <g id="Clip-2"></g>
                        <path d="M109.576029,55.2124571 C109.576029,85.4703143 85.0476,110.000314 54.7881714,110.000314 C24.5287429,110.000314 0.000314285714,85.4703143 0.000314285714,55.2124571 C0.000314285714,24.9546 24.5287429,0.4246 54.7881714,0.4246 C85.0476,0.4246 109.576029,24.9546 109.576029,55.2124571" id="Fill-1" fill="#D75059" mask="url(#mask-2)"></path>
                    </g>
                    <path d="M100.833333,55.5092593 C100.833333,81.1045369 80.312794,101.851852 55.0007839,101.851852 C29.687206,101.851852 9.16666667,81.1045369 9.16666667,55.5092593 C9.16666667,29.9139816 29.687206,9.16666667 55.0007839,9.16666667 C80.312794,9.16666667 100.833333,29.9139816 100.833333,55.5092593" id="Fill-4" fill="#FFD77A"></path>
                    <path d="M74.4857097,76.479193 L69.3247897,71.3294611 C68.7254261,70.7316958 68.7254261,69.7599276 69.3247897,69.1605641 C69.9241533,68.5627988 70.8943231,68.5627988 71.4920884,69.1637607 L75.2385104,72.9197725 L82.7489357,65.2878761 C83.2779739,64.7476498 84.1218779,64.6757261 84.7372245,65.1152594 C85.4868285,65.6522892 85.5987097,66.7215538 84.9769699,67.4008326 L76.7281287,76.4280473 C76.1319617,77.0801549 75.1122445,77.1041294 74.4857097,76.479193 M77.4074074,58.0555556 C70.656176,58.0555556 65.1851852,63.5281447 65.1851852,70.2777778 C65.1851852,77.0274109 70.656176,82.5 77.4074074,82.5 C84.1570405,82.5 89.6296296,77.0274109 89.6296296,70.2777778 C89.6296296,63.5281447 84.1570405,58.0555556 77.4074074,58.0555556" id="Fill-6" fill="#53B448"></path>
                    <path d="M63.2081543,70.46875 C63.2081543,65.0675101 66.1527584,60.3601085 70.5300012,57.8034482 L69.9064939,57.5281156 C67.4727533,56.4551049 65.9036728,54.0620709 65.9036728,51.4204508 L65.9036728,49.878588 C69.7573599,46.0947308 71.2962963,39.5040539 71.2962963,33.03767 C71.2962963,25.6556084 67.2522253,18.3333333 57.8171174,18.3333333 C48.3788364,18.3333333 44.3347654,25.6556084 44.3347654,33.03767 C44.3347654,39.5009072 45.8737018,46.0947308 49.7273889,49.878588 L49.7273889,51.4204508 C49.7273889,54.0620709 48.1598949,56.4551049 45.7245677,57.5281156 L33.4686052,62.9293555 C28.601124,65.0753768 25.462963,69.8630182 25.462963,75.1462583 L25.462963,82.5 L69.5257262,82.5 C65.7085293,79.8395 63.2081543,75.4483376 63.2081543,70.46875" id="Fill-8" fill="#D75059"></path>
                </g>
            </g>
        </g>
    </g>
</svg>