<?xml version="1.0" encoding="UTF-8"?>
<svg width="70px" height="71px" viewBox="0 0 70 71" version="1.1" xmlns="http://www.w3.org/2000/svg" xmlns:xlink="http://www.w3.org/1999/xlink">
    <!-- Generator: Sketch 53.2 (72643) - https://sketchapp.com -->
    <title>img_auto-debit_points</title>
    <desc>Created with Sketch.</desc>
    <defs>
        <polygon id="path-1" points="0 0.175775 69.8244 0.175775 69.8244 70 0 70"></polygon>
    </defs>
    <g id="Page-1" stroke="none" stroke-width="1" fill="none" fill-rule="evenodd">
        <g id="web-page" transform="translate(-760.000000, -1324.000000)">
            <g id="img_auto-debit_points" transform="translate(760.000000, 1324.000000)">
                <g id="Group-3" transform="translate(0.000000, 0.074250)">
                    <mask id="mask-2" fill="white">
                        <use xlink:href="#path-1"></use>
                    </mask>
                    <g id="Clip-2"></g>
                    <path d="M69.8244,35.087775 C69.8244,41.297525 68.20565,47.129525 65.36315,52.183025 C64.03215,54.546025 62.4359,56.734525 60.61415,58.714025 C58.09865,61.449775 55.1544,63.784525 51.88315,65.600775 C50.9809,66.102775 50.05015,66.570775 49.10265,66.988275 C44.77115,68.928525 39.96565,70.000025 34.9124,70.000025 C27.2924,70.000025 20.2479,67.563525 14.5064,63.418025 C7.99215,58.719775 3.1639,51.827525 1.1054,43.824275 C0.3834,41.032525 -0.0001,38.105275 -0.0001,35.087775 C-0.0001,15.804275 15.6289,0.175775 34.9124,0.175775 C41.0769,0.175775 46.86365,1.771775 51.88315,4.574775 C55.1544,6.390775 58.09865,8.726025 60.61415,11.461275 C66.33315,17.676775 69.8244,25.973275 69.8244,35.087775" id="Fill-1" fill="#F0F1F2" mask="url(#mask-2)"></path>
                </g>
                <path d="M56.048775,37.129425 L7.460525,37.129425 C6.031025,37.129425 4.762025,36.214675 4.310275,34.858175 C3.858275,33.501925 4.325275,32.008925 5.469275,31.151675 L17.705525,21.981925 C19.173275,20.882425 21.254025,21.180175 22.354025,22.647925 C23.453775,24.115425 23.155775,26.196675 21.688275,27.296425 L17.429025,30.488425 L56.048775,30.488425 C57.882775,30.488425 59.369275,31.974925 59.369275,33.808925 C59.369275,35.642925 57.882775,37.129425 56.048775,37.129425" id="Fill-4" fill="#18335C"></path>
                <path d="M52.03535,32.606475 C52.03535,40.990225 45.23885,47.786475 36.8551,47.786475 C28.4716,47.786475 21.67535,40.990225 21.67535,32.606475 C21.67535,24.222725 28.4716,17.426475 36.8551,17.426475 C45.23885,17.426475 52.03535,24.222725 52.03535,32.606475" id="Fill-6" fill="#FAC26A"></path>
                <path d="M48.955525,32.606475 C48.955525,39.289225 43.538025,44.706725 36.855275,44.706725 C30.172525,44.706725 24.755025,39.289225 24.755025,32.606475 C24.755025,25.923725 30.172525,20.506225 36.855275,20.506225 C43.538025,20.506225 48.955525,25.923725 48.955525,32.606475" id="Fill-8" fill="#FFD67B"></path>
                <polygon id="Fill-10" fill="#D65157" points="28.25375 49.90625 46.34275 49.90625 46.34275 44.70675 28.25375 44.70675"></polygon>
                <path d="M48.371275,56.5125 C47.350525,56.5125 46.343525,56.0435 45.692525,55.1575 C44.606775,53.67975 44.924775,51.60125 46.402775,50.51575 L51.229775,46.96975 L14.168025,46.96975 C12.334025,46.96975 10.847275,45.48325 10.847275,43.64925 C10.847275,41.81525 12.334025,40.32875 14.168025,40.32875 L61.358525,40.32875 C62.793775,40.32875 64.066775,41.25075 64.513775,42.61475 C64.960775,43.97875 64.481025,45.47575 63.324525,46.32525 L50.334775,55.86775 C49.742275,56.30275 49.053525,56.5125 48.371275,56.5125" id="Fill-12" fill="#67C29A"></path>
                <path d="M37.481875,23.238675 L39.598625,27.527675 C39.700375,27.733675 39.897125,27.876675 40.124625,27.909925 L44.857875,28.597675 C45.431125,28.680925 45.659875,29.385175 45.245125,29.789425 L41.820375,33.127925 C41.655375,33.288425 41.580375,33.519925 41.619125,33.746425 L42.427625,38.460425 C42.525625,39.031175 41.926375,39.466675 41.414125,39.196925 L37.180375,36.971425 C36.976875,36.864425 36.733625,36.864425 36.530125,36.971425 L32.296625,39.196925 C31.784125,39.466675 31.185125,39.031175 31.282875,38.460425 L32.091375,33.746425 C32.130375,33.519925 32.055125,33.288425 31.890375,33.127925 L28.465625,29.789425 C28.050625,29.385175 28.279375,28.680925 28.852625,28.597675 L33.585875,27.909925 C33.813375,27.876675 34.010125,27.733675 34.112125,27.527675 L36.228625,23.238675 C36.485125,22.719175 37.225625,22.719175 37.481875,23.238675" id="Fill-13" fill="#EE556E"></path>
            </g>
        </g>
    </g>
</svg>