<?xml version="1.0" encoding="UTF-8"?>
<svg width="55px" height="55px" viewBox="0 0 55 55" version="1.1" xmlns="http://www.w3.org/2000/svg" xmlns:xlink="http://www.w3.org/1999/xlink">
    <!-- Generator: Sketch 53.2 (72643) - https://sketchapp.com -->
    <title>img_recurring</title>
    <desc>Created with Sketch.</desc>
    <defs>
        <path d="M27.472589,0.0573139159 C26.0667961,0.0590938511 24.6433819,0.169449838 23.211068,0.395323625 L23.211068,0.395323625 C8.27491909,2.75017799 -1.92411003,16.7671683 0.430744337,31.7034951 L0.430744337,31.7034951 C2.55580906,45.182767 14.1791424,54.8042071 27.4044175,54.8220065 L27.4044175,54.8220065 L27.4772168,54.8220065 C28.8831877,54.8202265 30.3066019,54.7098706 31.7387379,54.4839968 L31.7387379,54.4839968 C46.6750647,52.1291424 56.8742718,38.1119741 54.5192395,23.1758252 L54.5192395,23.1758252 C52.3939968,9.69548544 40.7704854,0.0736893204 27.5439644,0.0573139159 L27.5439644,0.0573139159" id="path-1"></path>
        <path d="M27.472589,0.0573139159 C26.0667961,0.0590938511 24.6433819,0.169449838 23.211068,0.395323625 L23.211068,0.395323625 C8.27491909,2.75017799 -1.92411003,16.7671683 0.430744337,31.7034951 L0.430744337,31.7034951 C2.55580906,45.182767 14.1791424,54.8042071 27.4044175,54.8220065 L27.4044175,54.8220065 L27.4772168,54.8220065 C28.8831877,54.8202265 30.3066019,54.7098706 31.7387379,54.4839968 L31.7387379,54.4839968 C46.6750647,52.1291424 56.8742718,38.1119741 54.5192395,23.1758252 L54.5192395,23.1758252 C52.3939968,9.69548544 40.7704854,0.0736893204 27.5439644,0.0573139159 L27.5439644,0.0573139159" id="path-3"></path>
        <path d="M27.472589,0.0573139159 C26.0667961,0.0590938511 24.6433819,0.169449838 23.211068,0.395323625 L23.211068,0.395323625 C8.27491909,2.75017799 -1.92411003,16.7671683 0.430744337,31.7034951 L0.430744337,31.7034951 C2.55580906,45.182767 14.1791424,54.8042071 27.4044175,54.8220065 L27.4044175,54.8220065 L27.4772168,54.8220065 C28.8831877,54.8202265 30.3066019,54.7098706 31.7387379,54.4839968 L31.7387379,54.4839968 C46.6750647,52.1291424 56.8742718,38.1119741 54.5192395,23.1758252 L54.5192395,23.1758252 C52.3939968,9.69548544 40.7704854,0.0736893204 27.5439644,0.0573139159 L27.5439644,0.0573139159" id="path-5"></path>
        <path d="M27.472589,0.0573139159 C26.0667961,0.0590938511 24.6433819,0.169449838 23.211068,0.395323625 L23.211068,0.395323625 C8.27491909,2.75017799 -1.92411003,16.7671683 0.430744337,31.7034951 L0.430744337,31.7034951 C2.55580906,45.182767 14.1791424,54.8042071 27.4044175,54.8220065 L27.4044175,54.8220065 L27.4772168,54.8220065 C28.8831877,54.8202265 30.3066019,54.7098706 31.7387379,54.4839968 L31.7387379,54.4839968 C46.6750647,52.1291424 56.8742718,38.1119741 54.5192395,23.1758252 L54.5192395,23.1758252 C52.3939968,9.69548544 40.7704854,0.0736893204 27.5439644,0.0573139159 L27.5439644,0.0573139159" id="path-7"></path>
    </defs>
    <g id="Page-1" stroke="none" stroke-width="1" fill="none" fill-rule="evenodd">
        <g id="Find-Ride" transform="translate(-508.000000, -1291.000000)">
            <g id="img_recurring" transform="translate(508.000000, 1291.000000)">
                <g id="Group-15" transform="translate(0.000000, 0.120858)">
                    <path d="M44.6341375,48.7662751 C32.8557718,58.2430065 15.6249304,56.3771003 6.14837702,44.5985566 C-3.32835437,32.8203689 -1.46244822,15.5895275 10.3159175,6.11279612 C22.0942832,-3.36375728 39.3249466,-1.49802913 48.801678,10.2805146 C58.2784094,22.0588803 56.4125032,39.2895437 44.6341375,48.7662751" id="Fill-1" fill="#EE556E"></path>
                    <path d="M12.627466,13.2456197 C12.3104595,13.2456197 11.994521,13.1188883 11.7618835,12.8682735 C11.3179676,12.3901828 11.3457346,11.642966 11.8236472,11.1992282 C13.0247476,10.0839207 14.3493754,9.10015049 15.7608641,8.27497249 C16.3240356,7.94604045 17.0472233,8.13542557 17.3765113,8.69841909 C17.7056214,9.26141262 17.5158803,9.98495631 16.9528867,10.3138883 C15.6903786,11.0520275 14.5052977,11.9322055 13.4307508,12.9302152 C13.2034531,13.1411375 12.9151036,13.2456197 12.627466,13.2456197" id="Fill-3" fill="#FED67A"></path>
                    <path d="M45.0162896,17.6363641 C44.62061,17.6363641 44.2341861,17.4377233 44.0108042,17.0763964 C40.3850761,11.2143576 34.1109822,7.67086246 27.2279725,7.59788511 C24.8989272,7.56549029 22.6231019,7.94426052 20.449979,8.700911 C19.8335874,8.91646117 19.1609498,8.58966505 18.9464676,7.97398544 C18.7319854,7.35794984 19.0575356,6.68477832 19.6733932,6.47047411 C22.1047848,5.62393689 24.6506262,5.20405016 27.2528916,5.235911 C34.9500437,5.31778803 41.9656586,9.27974595 46.0194612,15.8340016 C46.3626327,16.3886294 46.1910469,17.116445 45.6364191,17.4596165 C45.4427621,17.5794061 45.2282799,17.6363641 45.0162896,17.6363641" id="Fill-5" fill="#FED67A"></path>
                    <path d="M45.8055307,18.3422508 C45.7637023,18.3422508 45.7213398,18.3399369 45.6787994,18.3354871 L40.5933463,17.7918948 C39.9449159,17.7226553 39.4753689,17.1406165 39.5446084,16.4920081 C39.6140259,15.8435777 40.1964207,15.3738528 40.8443172,15.4432702 L44.8246084,15.8688528 L45.386178,12.5389498 C45.4945761,11.8956812 46.1034919,11.461911 46.7469385,11.570843 C47.3900291,11.6790631 47.8236214,12.2885129 47.7152233,12.9317816 L46.9688964,17.3575906 C46.872068,17.9309078 46.374932,18.3422508 45.8055307,18.3422508" id="Fill-7" fill="#FED67A"></path>
                    <path d="M44.4083528,41.3849369 C44.1600518,41.3849369 43.9096149,41.3071537 43.6963786,41.1455356 C43.1764595,40.7518139 43.0739353,40.0111828 43.467657,39.4910858 C43.5605696,39.3682702 43.6524142,39.2445647 43.742657,39.1196133 C44.1246311,38.5909725 44.8629482,38.4724288 45.391411,38.8540469 C45.9200518,39.236199 46.0389515,39.9743382 45.6569773,40.502979 C45.556411,40.6419919 45.4544207,40.7801149 45.3508285,40.9168139 C45.1185469,41.2236748 44.7655858,41.3849369 44.4083528,41.3849369" id="Fill-9" fill="#FED67A"></path>
                    <path d="M27.5127799,49.7614013 C21.0585566,49.7614013 14.9136861,46.9759806 10.6137184,41.9781003 C10.1881359,41.4838123 10.2442039,40.7381974 10.7386699,40.3127929 C11.2329579,39.8870324 11.9787508,39.9431003 12.4039773,40.4377443 C16.8997379,45.6629223 23.6490744,48.1852686 30.4598188,47.183343 C34.2530388,46.6256893 37.7785566,45.0066602 40.655466,42.5014013 C41.1476181,42.0733269 41.893411,42.124945 42.3216634,42.6163851 C42.7499159,43.1083592 42.6984757,43.8541521 42.2066796,44.2827605 C38.9880227,47.0854466 35.044754,48.8965307 30.8033463,49.5202201 C29.7026343,49.6820162 28.6031683,49.7614013 27.5127799,49.7614013" id="Fill-11" fill="#FED67A"></path>
                    <path d="M10.5725485,46.3028803 L10.559911,46.3028803 C9.90774272,46.2959385 9.38461974,45.7617799 9.3913835,45.1096117 L9.43837379,40.6213269 C9.44495955,39.9967476 9.93657767,39.4853722 10.560267,39.4540453 L15.6681472,39.1980906 C16.3187136,39.1719256 16.8740534,39.6671036 16.9066262,40.3185599 C16.939377,40.9698382 16.4377913,41.524466 15.786335,41.5572168 L11.7886003,41.7574595 L11.7531796,45.1343528 C11.7464159,45.7822492 11.219021,46.3028803 10.5725485,46.3028803" id="Fill-13" fill="#FED67A"></path>
                </g>
                <g id="Group-28" transform="translate(0.000000, 0.120858)">
                    <g id="Group-18">
                        <mask id="mask-2" fill="white">
                            <use xlink:href="#path-1"></use>
                        </mask>
                        <g id="Clip-17"></g>
                        <path d="M-5.44653074,30.1591699 C-7.54792233,30.2171958 -9.20486408,31.8721796 -9.17745307,33.8854644 C-9.15111003,35.8273738 -7.38114239,37.4649142 -5.33564078,37.4398172 C-3.18494498,37.4134741 -1.53102913,35.8060146 -1.57552751,33.7850761 C-1.62109385,31.7146553 -3.3438932,30.100966 -5.44653074,30.1591699 M11.9375631,16.0868236 C18.1242621,16.9433285 23.8248608,19.1212573 29.0537767,22.5424709 C29.3908964,22.7630049 29.8216408,22.9128754 30.2226602,22.951678 C32.263,23.1492508 34.3101036,23.2774061 36.3507994,23.4717751 C38.7311068,23.6987168 41.0535663,24.189623 43.2274013,25.2266133 C46.0929191,26.5936036 47.498534,28.9251408 47.6005243,32.053911 C47.6218835,32.7121311 47.5610097,33.4721634 46.9287767,33.8710469 C46.3330324,34.2466133 45.6650227,34.6006424 44.9841974,34.7307557 C43.2028382,35.0710793 41.3954919,35.2736359 39.6029191,35.5598495 C39.3596019,35.5986521 39.0456214,35.7437168 38.9285016,35.9382638 C37.8550227,37.7222929 36.2464951,38.6138625 34.2182589,38.6336197 C32.234699,38.652843 30.6144239,37.8084417 29.5364951,36.1021958 C29.3084854,35.7415809 29.1112686,35.5974061 28.687288,35.60061 C19.2434854,35.6730534 9.79968285,35.7351731 0.355702265,35.7791375 C-0.161012945,35.7814515 -0.453100324,35.8955453 -0.628779935,36.4133285 C-0.748747573,36.7666456 -1.00559223,37.0898819 -1.25496117,37.3803673 C-3.86808414,40.4258366 -9.03399029,39.5232314 -10.471466,35.7729078 C-10.5691845,35.518199 -10.6670809,35.38061 -10.9862233,35.3588948 C-12.6246537,35.2480049 -14.266822,35.1490405 -15.8954628,34.9461278 C-17.4372427,34.7537168 -18.9526796,34.3715647 -20.2253333,33.4219693 C-20.6092654,33.1353997 -21.0065469,32.6549951 -21.0804142,32.2107233 C-21.2183592,31.3821634 -21.2062557,30.5039434 -21.0953657,29.6677298 C-21.0275502,29.1545744 -20.6567896,28.6828916 -20.4294919,28.1889595 C-20.3476149,28.010966 -20.2315631,27.8237168 -20.2274693,27.6386036 C-20.2018382,26.5167104 -20.2210615,25.3935712 -20.1932945,24.271678 C-20.152,22.6015647 -19.5519838,21.9760955 -17.8854304,21.8434903 C-16.824767,21.7591214 -15.7608997,21.712665 -14.7018382,21.6140566 C-14.3892816,21.5850437 -14.0500259,21.4967589 -13.7874854,21.3326489 C-7.64920065,17.4984903 -0.935106796,15.7228269 7.21130097,15.6680049 C8.16534628,15.7493479 10.0640032,15.8274871 11.9375631,16.0868236" id="Fill-16" fill="#17335C" mask="url(#mask-2)"></path>
                    </g>
                    <g id="Group-21">
                        <mask id="mask-4" fill="white">
                            <use xlink:href="#path-3"></use>
                        </mask>
                        <g id="Clip-20"></g>
                        <path d="M30.3457249,32.9758819 C30.3346893,34.9612217 32.13011,36.7048463 34.1782816,36.6977265 C36.2522621,36.6904288 38.0001586,34.979021 37.988411,32.9671602 C37.9763074,30.8768042 36.3255955,29.2753964 34.1825534,29.2750405 C32.0932654,29.2745065 30.3569385,30.9492476 30.3457249,32.9758819" id="Fill-19" fill="#67C29A" mask="url(#mask-4)"></path>
                    </g>
                    <g id="Group-24">
                        <mask id="mask-6" fill="white">
                            <use xlink:href="#path-5"></use>
                        </mask>
                        <g id="Clip-23"></g>
                        <path d="M10.4765032,18.23161 C10.5088981,18.3494417 10.5589142,18.4608657 10.5987848,18.5762055 C10.6132023,18.617856 10.6276197,18.6595065 10.6420372,18.701157 C10.6573447,18.7454773 10.6726521,18.7897977 10.6879595,18.8341181 C10.704335,18.8809304 10.7205324,18.9279207 10.7367298,18.974733 C10.7538172,19.0238592 10.7709045,19.0731634 10.7879919,19.1222896 C10.8057913,19.1735518 10.8235906,19.2249919 10.84139,19.276254 C10.8599013,19.3292961 10.8784126,19.3826942 10.8969239,19.4359142 C10.9161472,19.4909142 10.9353706,19.5459142 10.9544159,19.6007362 C10.9741731,19.6573382 10.9939304,19.7139401 11.0136877,19.7705421 C11.033801,19.82839 11.0540922,19.8862379 11.0742055,19.9440858 C11.0948528,20.0031796 11.1155,20.0622735 11.1361472,20.1213673 C11.1571505,20.1813511 11.1781537,20.241335 11.199335,20.3013188 C11.2205162,20.3621926 11.2418754,20.4230663 11.2632346,20.4837621 C11.2847718,20.5451699 11.3064871,20.6065777 11.3280243,20.6679854 C11.3497395,20.7299272 11.3714547,20.7916909 11.3931699,20.8534547 C11.4150631,20.9153964 11.4369563,20.9775162 11.4590275,21.0394579 C11.4809207,21.1015777 11.5028139,21.1635194 11.5247071,21.2254612 C11.5466003,21.2874029 11.5684935,21.3491667 11.5903867,21.4111084 C11.6122799,21.4725162 11.6341731,21.5341019 11.6558883,21.5955097 C11.6777816,21.6563835 11.6993188,21.7172573 11.721212,21.7783091 C11.7425712,21.8384709 11.7641084,21.8986327 11.7856456,21.9586165 C11.8068269,22.0178883 11.8280081,22.0771602 11.8493673,22.136254 C11.8701926,22.1944579 11.8911958,22.2524838 11.912021,22.3106877 C11.9324903,22.3672896 11.9529595,22.4240696 11.9736068,22.4808495 C11.9935421,22.5362055 12.0136553,22.5913835 12.0337686,22.6465615 C12.0531699,22.6999595 12.0727492,22.7535356 12.0923285,22.8071117 C12.1111958,22.8587298 12.1302411,22.9103479 12.1491084,22.961966 C12.1674417,23.0114482 12.1857751,23.0609304 12.2041084,23.1104126 C12.2215518,23.1575809 12.2391731,23.2049272 12.2567945,23.2520955 C12.2608883,23.2633091 12.2651602,23.2745227 12.269254,23.2857362 C12.3557589,23.5164159 12.7576683,23.760801 13.0235906,23.7725485 C16.3643511,23.9197492 19.7065356,24.0295712 23.0490761,24.1344094 C23.4123608,24.145801 23.7850793,24.0948948 24.1417783,24.0192476 C24.6478139,23.9119175 24.7916327,23.5927751 24.4182023,23.2488916 C23.5857265,22.4829854 22.7404353,21.7026618 21.7938657,21.0939239 C18.4411796,18.9369984 14.7264547,17.9534061 10.7538172,17.8992961 C10.6598366,17.8980502 10.537733,17.9003641 10.4779272,17.9817071 C10.4161634,18.0657201 10.4526521,18.1447492 10.4765032,18.23161" id="Fill-22" fill="#67C29A" mask="url(#mask-6)"></path>
                    </g>
                    <g id="Group-27">
                        <mask id="mask-8" fill="white">
                            <use xlink:href="#path-7"></use>
                        </mask>
                        <g id="Clip-26"></g>
                        <path d="M-0.790700647,18.5695307 C-1.07335437,18.6302265 -1.24725405,18.9173301 -1.17748058,19.1978479 C-1.13956796,19.3500324 -1.10236731,19.4991909 -1.06498867,19.6481715 C-0.791768608,20.734288 -0.508046926,21.8179126 -0.250846278,22.907767 C-0.1787589,23.2126699 -0.0776585761,23.3561327 0.274412621,23.3680583 C2.99984951,23.4606149 5.72457443,23.5823625 8.44965534,23.6857767 C9.35955825,23.7203074 9.50782686,23.5307443 9.3444288,22.6286731 C9.09345793,21.2426375 8.84533495,19.856246 8.58849029,18.426068 C8.54541586,18.1857767 8.33876537,18.0067152 8.09455825,18.0003074 C5.09590129,17.9214563 2.15811812,17.9371197 -0.790700647,18.5695307" id="Fill-25" fill="#67C29A" mask="url(#mask-8)"></path>
                    </g>
                </g>
            </g>
        </g>
    </g>
</svg>