<svg xmlns="http://www.w3.org/2000/svg" width="120" height="120" viewBox="0 0 120 120">
    <g fill="none" fill-rule="evenodd">
        <g fill-rule="nonzero">
            <g transform="translate(-736 -5944) translate(736 5944)">
                <circle cx="60" cy="60" r="59.284" fill="#FFF1DC"/>
                <rect width="57.29" height="10.258" x="41.661" y="84.958" fill="#FFF" rx="2.76"/>
                <path fill="#3B3C40" d="M96.28 95.7H44.333c-.836 0-1.639-.332-2.23-.924-.592-.592-.925-1.394-.925-2.23v-4.917c.006-1.74 1.415-3.15 3.155-3.155h51.949c1.74.006 3.15 1.415 3.154 3.155v4.916c0 1.743-1.412 3.155-3.154 3.155zM44.333 85.442c-1.208 0-2.187.98-2.187 2.187v4.916c0 1.208.98 2.187 2.187 2.187h51.949c1.208 0 2.187-.979 2.187-2.187V87.63c0-1.208-.98-2.187-2.187-2.187H44.332z"/>
                <rect width="57.29" height="10.258" x="35.874" y="74.671" fill="#FFF" rx="2.76"/>
                <path fill="#3B3C40" d="M90.494 85.403H38.545c-1.738 0-3.15-1.406-3.155-3.145v-4.916c0-1.742 1.413-3.155 3.155-3.155h51.949c1.742 0 3.154 1.413 3.154 3.155v4.916c-.005 1.739-1.416 3.145-3.154 3.145zM38.545 75.155c-.58 0-1.136.23-1.546.64-.41.41-.64.967-.64 1.547v4.916c.004 1.204.982 2.177 2.186 2.177h51.949c1.204 0 2.181-.973 2.187-2.177v-4.916c0-.58-.23-1.136-.64-1.547-.411-.41-.967-.64-1.547-.64H38.545z"/>
                <rect width="57.29" height="10.258" x="40.635" y="64.248" fill="#FFF" rx="2.76"/>
                <path fill="#3B3C40" d="M95.255 74.99H43.306c-1.74-.005-3.15-1.414-3.154-3.155V66.92c0-1.742 1.412-3.154 3.154-3.154h51.949c1.74.005 3.15 1.414 3.155 3.154v4.916c-.006 1.74-1.415 3.15-3.155 3.155zM43.306 64.732c-.58 0-1.136.23-1.546.64-.41.411-.64.967-.64 1.547v4.916c0 .58.23 1.137.64 1.547.41.41.966.64 1.546.64h51.949c1.206-.005 2.182-.98 2.187-2.187V66.92c0-1.208-.98-2.187-2.187-2.187H43.306z"/>
                <rect width="57.29" height="10.258" x="31.887" y="53.952" fill="#FFF" rx="2.76"/>
                <path fill="#3B3C40" d="M86.506 64.694H34.558c-1.742 0-3.155-1.413-3.155-3.155v-4.916c.006-1.74 1.415-3.15 3.155-3.155h51.948c1.74.005 3.15 1.414 3.155 3.155v4.916c-.005 1.74-1.414 3.15-3.155 3.155zM34.558 54.435c-1.208 0-2.187.98-2.187 2.188v4.916c0 1.208.98 2.187 2.187 2.187h51.948c.58 0 1.137-.23 1.547-.64.41-.41.64-.967.64-1.547v-4.916c-.005-1.206-.98-2.182-2.187-2.188H34.558z"/>
                <circle cx="42.332" cy="63.001" r="32.226" fill="#FBC00D" transform="rotate(-15.69 42.332 63)"/>
                <path fill="#3B3C40" d="M42.339 95.7c-18.065 0-32.71-14.645-32.71-32.71s14.645-32.71 32.71-32.71 32.71 14.645 32.71 32.71S60.403 95.7 42.338 95.7zm0-64.452c-17.506.032-31.683 14.227-31.694 31.733 0 17.528 14.204 31.74 31.732 31.751 17.531 0 31.742-14.211 31.742-31.742 0-17.53-14.211-31.742-31.742-31.742h-.038z"/>
                <circle cx="42.341" cy="62.984" r="27.068" fill="#FFF" transform="rotate(-30 42.341 62.984)"/>
                <path fill="#3B3C40" d="M42.339 90.542c-9.965.187-19.254-5.022-24.29-13.622-5.037-8.6-5.037-19.25 0-27.85 5.036-8.6 14.325-13.808 24.29-13.622 15.012.282 27.035 12.532 27.035 27.547S57.351 90.261 42.339 90.542zm0-54.126c-14.482.276-26.077 12.095-26.077 26.58 0 14.483 11.595 26.302 26.077 26.578 14.481-.276 26.076-12.095 26.076-26.579S56.82 36.692 42.34 36.416z"/>
                <path fill="#3B3C40" d="M33.223 51.174c-.467.051-.932-.103-1.276-.423s-.532-.772-.515-1.241c-.004-.416.152-.818.436-1.123.361-.348.855-.524 1.355-.484h17.032c.465-.05.928.103 1.272.42.343.317.532.768.518 1.235.005.418-.147.822-.426 1.132-.365.349-.861.525-1.364.484H45.048c-.783 0-1.17-.058-1.325-.087v.184c.714.328 1.355.795 1.887 1.374.64.698 1.113 1.532 1.384 2.439h3.26c.466-.05.93.102 1.273.42.343.317.532.767.518 1.235.005.417-.147.821-.426 1.132-.365.348-.861.524-1.364.484h-3.039c-.111 1.264-.505 2.488-1.151 3.58-.577.958-1.333 1.796-2.226 2.468-.881.646-1.862 1.142-2.904 1.471-1.009.328-2.05.545-3.106.649l10.403 9.929c.461.428.727 1.026.736 1.654.014.544-.184 1.071-.552 1.471-.393.415-.95.634-1.52.6-.328-.003-.655-.058-.967-.164-.37-.145-.701-.374-.968-.668l-12.29-11.922c-.307-.27-.557-.6-.736-.968-.149-.301-.228-.632-.232-.968-.016-.538.182-1.06.552-1.452.378-.38.896-.587 1.432-.57h.6c.948-.002 1.893-.086 2.826-.252.887-.155 1.743-.453 2.535-.88.743-.398 1.4-.938 1.936-1.588.534-.712.868-1.554.968-2.439h-9.33c-.504.044-1-.141-1.354-.503-.282-.317-.436-.727-.436-1.151-.004-.42.152-.824.436-1.133.361-.348.855-.524 1.355-.484h9.116c-.804-2.574-3.145-3.87-7.045-3.87l-2.071.01z"/>
            </g>
        </g>
    </g>
</svg>
