<?xml version="1.0" encoding="UTF-8"?>
<svg width="55px" height="55px" viewBox="0 0 55 55" version="1.1" xmlns="http://www.w3.org/2000/svg" xmlns:xlink="http://www.w3.org/1999/xlink">
    <!-- Generator: Sketch 53.2 (72643) - https://sketchapp.com -->
    <title>img_phone_masing</title>
    <desc>Created with Sketch.</desc>
    <defs>
        <polygon id="path-1" points="0 0.0509591837 54.8216803 0.0509591837 54.8216803 54.8724898 0 54.8724898"></polygon>
        <path d="M27.4109524,0.0510714286 C12.2722959,0.0510714286 0,12.3231803 0,27.4616497 L0,27.4616497 C0,42.6003061 12.2722959,54.872602 27.4109524,54.872602 L27.4109524,54.872602 C42.5179932,54.872602 54.7708333,42.6525 54.8215306,27.5572449 L54.8215306,27.5572449 L54.8215306,27.3662415 C54.7708333,12.2709864 42.5179932,0.0510714286 27.4109524,0.0510714286 Z" id="path-3"></path>
        <path d="M27.4109524,0.0510714286 C12.2722959,0.0510714286 0,12.3231803 0,27.4616497 L0,27.4616497 C0,42.6003061 12.2722959,54.872602 27.4109524,54.872602 L27.4109524,54.872602 C42.5179932,54.872602 54.7708333,42.6525 54.8215306,27.5572449 L54.8215306,27.5572449 L54.8215306,27.3662415 C54.7708333,12.2709864 42.5179932,0.0510714286 27.4109524,0.0510714286 Z" id="path-5"></path>
    </defs>
    <g id="Page-1" stroke="none" stroke-width="1" fill="none" fill-rule="evenodd">
        <g id="Find-Ride" transform="translate(-508.000000, -1943.000000)">
            <g id="img_phone_masing" transform="translate(508.000000, 1943.000000)">
                <g id="Group-3" transform="translate(0.000000, 0.136190)">
                    <mask id="mask-2" fill="white">
                        <use xlink:href="#path-1"></use>
                    </mask>
                    <g id="Clip-2"></g>
                    <path d="M54.8216803,27.4617245 C54.8216803,42.600381 42.5493844,54.8724898 27.410915,54.8724898 C12.2722585,54.8724898 -3.7414966e-05,42.600381 -3.7414966e-05,27.4617245 C-3.7414966e-05,12.3232551 12.2722585,0.0509591837 27.410915,0.0509591837 C42.5493844,0.0509591837 54.8216803,12.3232551 54.8216803,27.4617245" id="Fill-1" fill="#EE556E" mask="url(#mask-2)"></path>
                </g>
                <g id="Group-20" transform="translate(0.000000, 0.136190)">
                    <g id="Group-6">
                        <mask id="mask-4" fill="white">
                            <use xlink:href="#path-3"></use>
                        </mask>
                        <g id="Clip-5"></g>
                        <path d="M27.3510884,15.1756224 C28.5253571,15.1756224 29.7003741,15.1576633 30.8740816,15.1836667 C31.4111735,15.1956395 31.587585,14.9324252 31.5821599,14.4609966 C31.5771088,14.021932 31.4160374,13.7602143 30.9068197,13.7633946 C28.5781122,13.7777993 26.2490306,13.7779864 23.9205102,13.7632075 C23.4140986,13.7600272 23.2461054,14.0137007 23.2427381,14.456881 C23.2391837,14.9253163 23.4079252,15.1958265 23.9478231,15.1834796 C25.0816837,15.1574762 26.2166667,15.1756224 27.3510884,15.1756224 L27.3510884,15.1756224 Z M24.6491667,67.1128333 C24.6480442,68.6410476 25.8861054,69.886966 27.4094558,69.8905204 C28.9296259,69.8938878 30.1744218,68.6474082 30.1762925,67.119568 C30.1777891,65.5926633 28.9348639,64.3400102 27.4160034,64.3379524 C25.8969558,64.3358946 24.6502891,65.5861156 24.6491667,67.1128333 L24.6491667,67.1128333 Z M14.9592517,62.3828333 L39.8656463,62.3828333 L39.8656463,17.9735136 L14.9592517,17.9735136 L14.9592517,62.3828333 Z M17.1310034,72.2108095 C16.5230102,72.0310306 15.8985544,71.8931565 15.310017,71.6636156 C13.4944558,70.9557245 12.4943537,69.586898 12.2221599,67.6783605 C12.1520068,67.1874762 12.1273129,66.6861156 12.1273129,66.189432 C12.122449,49.7936327 12.1237585,33.3978333 12.1228231,17.0018469 C12.1226361,15.2998401 12.4079252,13.6986667 13.7580442,12.4935306 C14.9113605,11.4640578 16.3097449,11.0154524 17.8201871,11.0098401 C24.214966,10.9862687 30.6104932,10.9651293 37.004898,11.019381 C39.1382993,11.0375272 40.9901531,11.799483 42.0779932,13.8122211 C42.6145238,14.8048401 42.7013265,15.8986667 42.7013265,17.0018469 C42.7022619,33.0590408 42.7022619,49.1162347 42.7007653,65.1734286 C42.7007653,65.7907755 42.7196599,66.4109286 42.670085,67.0249082 C42.4381122,69.8860306 40.9663946,71.5240578 38.1522279,72.0912687 C37.9978912,72.1223231 37.8467347,72.1705884 37.6940816,72.2108095 L17.1310034,72.2108095 Z" id="Fill-4" fill="#17335C" mask="url(#mask-4)"></path>
                    </g>
                    <mask id="mask-6" fill="white">
                        <use xlink:href="#path-5"></use>
                    </mask>
                    <g id="Clip-8"></g>
                    <polygon id="Fill-7" fill="#FED67A" mask="url(#mask-6)" points="14.9592517 62.3827211 39.8656463 62.3827211 39.8656463 17.9734014 14.9592517 17.9734014"></polygon>
                    <path d="M27.3510884,15.1756224 C26.2166667,15.1756224 25.0816837,15.1574762 23.9478231,15.1834796 C23.4079252,15.1958265 23.2391837,14.9253163 23.2427381,14.456881 C23.2461054,14.0137007 23.4140986,13.7600272 23.9205102,13.7632075 C26.2490306,13.7779864 28.5781122,13.7777993 30.9068197,13.7633946 C31.4160374,13.7602143 31.5771088,14.021932 31.5821599,14.4609966 C31.587585,14.9324252 31.4111735,15.1956395 30.8740816,15.1836667 C29.7003741,15.1576633 28.5253571,15.1756224 27.3510884,15.1756224" id="Fill-9" fill="#EE556E" mask="url(#mask-6)"></path>
                    <path d="M43.2884422,33.8235408 L11.5386633,33.8235408 C10.6799898,33.8235408 9.98388435,33.1274354 9.98388435,32.2687619 L9.98388435,27.0345952 C9.98388435,26.1759218 10.6799898,25.4798163 11.5386633,25.4798163 L43.2884422,25.4798163 C44.1471156,25.4798163 44.8432211,26.1759218 44.8432211,27.0345952 L44.8432211,32.2687619 C44.8432211,33.1274354 44.1471156,33.8235408 43.2884422,33.8235408" id="Fill-10" fill="#67C29A" mask="url(#mask-6)"></path>
                    <path d="M18.2155697,32.1237041 L17.4798044,32.1237041 C17.3582058,32.1237041 17.2601786,32.023619 17.2627976,31.9020204 L17.2772024,31.198619 C17.2807568,31.0280068 17.0951786,30.9200646 16.9488861,31.0076156 L16.3493112,31.3658639 C16.2454847,31.4279728 16.1109779,31.3931769 16.0501786,31.288602 L15.6818282,30.6546054 C15.6210289,30.5502177 15.6573214,30.4162721 15.7624575,30.3565952 L16.3691412,30.0129388 C16.5174915,29.9289422 16.5156207,29.7145544 16.3655867,29.6331769 L15.7645153,29.3069184 C15.6584439,29.2492993 15.6197194,29.115915 15.6784609,29.0102177 L16.0501786,28.3442313 C16.1104167,28.2362891 16.2484779,28.2003707 16.353801,28.2652857 L16.9365391,28.6250306 C17.0818963,28.7148265 17.2693452,28.6089422 17.2676616,28.4379558 L17.2605527,27.7491463 C17.2592432,27.6282959 17.3567092,27.5297075 17.4775595,27.5297075 L18.2178146,27.5297075 C18.338665,27.5297075 18.436318,27.6282959 18.4350085,27.7491463 L18.4277126,28.4489932 C18.4258418,28.6175476 18.608801,28.7238061 18.7543452,28.6386871 L19.3593452,28.2851156 C19.4635459,28.2243163 19.5973044,28.2598605 19.6573554,28.3644354 L20.026267,29.0072245 C20.0874405,29.1138571 20.0481548,29.2498605 19.9396514,29.3072925 L19.3264201,29.6320544 C19.1741412,29.7128707 19.1720833,29.9304388 19.3230527,30.0140612 L19.946199,30.3586531 C20.0518963,30.4172075 20.0896854,30.5505918 20.0300085,30.6557279 L19.6592262,31.3101156 C19.5986139,31.4171224 19.461301,31.4524796 19.3567262,31.3881259 L18.7491071,31.0147245 C18.6026276,30.9247415 18.4146173,31.0324966 18.4181718,31.2042313 L18.4327636,31.9020204 C18.4351956,32.023619 18.3371684,32.1237041 18.2155697,32.1237041" id="Fill-11" fill="#17335C" mask="url(#mask-6)"></path>
                    <path d="M24.5881803,32.1237041 L23.852415,32.1237041 C23.7308163,32.1237041 23.6327891,32.023619 23.6354082,31.9020204 L23.6498129,31.198619 C23.6533673,31.0280068 23.4677891,30.9200646 23.3214966,31.0076156 L22.7219218,31.3658639 C22.6180952,31.4279728 22.4835884,31.3931769 22.4227891,31.288602 L22.0544388,30.6546054 C21.9936395,30.5502177 22.029932,30.4162721 22.135068,30.3565952 L22.7417517,30.0129388 C22.890102,29.9289422 22.8882313,29.7145544 22.7381973,29.6331769 L22.1371259,29.3069184 C22.0308673,29.2492993 21.9923299,29.115915 22.0510714,29.0102177 L22.4227891,28.3442313 C22.4830272,28.2362891 22.6210884,28.2003707 22.7264116,28.2652857 L23.3091497,28.6250306 C23.4545068,28.7148265 23.6419558,28.6089422 23.6402721,28.4379558 L23.6331633,27.7491463 C23.6318537,27.6282959 23.7293197,27.5297075 23.8501701,27.5297075 L24.5904252,27.5297075 C24.7112755,27.5297075 24.8089286,27.6282959 24.807619,27.7491463 L24.8003231,28.4489932 C24.7984524,28.6175476 24.9814116,28.7238061 25.1269558,28.6386871 L25.7319558,28.2851156 C25.8359694,28.2243163 25.9697279,28.2598605 26.029966,28.3644354 L26.3988776,29.0072245 C26.460051,29.1138571 26.4207653,29.2498605 26.3122619,29.3072925 L25.6990306,29.6320544 C25.5467517,29.7128707 25.5446939,29.9304388 25.6956633,30.0140612 L26.3188095,30.3586531 C26.4245068,30.4172075 26.4621088,30.5505918 26.402619,30.6557279 L26.0318367,31.3101156 C25.9712245,31.4171224 25.8340986,31.4524796 25.7293367,31.3881259 L25.1217177,31.0147245 C24.9752381,30.9247415 24.7872279,31.0324966 24.7907823,31.2042313 L24.8053741,31.9020204 C24.8078061,32.023619 24.7097789,32.1237041 24.5881803,32.1237041" id="Fill-12" fill="#17335C" mask="url(#mask-6)"></path>
                    <path d="M30.9606786,32.1237041 L30.2249133,32.1237041 C30.1033146,32.1237041 30.0054745,32.023619 30.0079065,31.9020204 L30.0223112,31.198619 C30.0260527,31.0280068 29.8404745,30.9200646 29.6939949,31.0076156 L29.0944201,31.3658639 C28.9907806,31.4279728 28.8562738,31.3931769 28.7954745,31.288602 L28.4269371,30.6546054 C28.3663248,30.5502177 28.4024303,30.4162721 28.5077534,30.3565952 L29.1144371,30.0129388 C29.2627874,29.9289422 29.2607296,29.7145544 29.1108827,29.6331769 L28.5096241,29.3069184 C28.4035527,29.2492993 28.3648282,29.115915 28.4235697,29.0102177 L28.7952874,28.3442313 C28.8555255,28.2362891 28.9937738,28.2003707 29.0990969,28.2652857 L29.681648,28.6250306 C29.8271922,28.7148265 30.0146412,28.6089422 30.0129575,28.4379558 L30.0056616,27.7491463 C30.004352,27.6282959 30.1020051,27.5297075 30.2228554,27.5297075 L30.9631105,27.5297075 C31.0837738,27.5297075 31.1814269,27.6282959 31.1801173,27.7491463 L31.1728214,28.4489932 C31.1711378,28.6175476 31.3539099,28.7238061 31.4996412,28.6386871 L32.1044541,28.2851156 C32.2086548,28.2243163 32.3424133,28.2598605 32.4024643,28.3644354 L32.7715629,29.0072245 C32.8327364,29.1138571 32.7934507,29.2498605 32.6849473,29.3072925 L32.0715289,29.6320544 C31.91925,29.7128707 31.9171922,29.9304388 32.0681616,30.0140612 L32.6914949,30.3586531 C32.7970051,30.4172075 32.8347942,30.5505918 32.7751173,30.6557279 L32.4045221,31.3101156 C32.3439099,31.4171224 32.2065969,31.4524796 32.101835,31.3881259 L31.4944031,31.0147245 C31.3477364,30.9247415 31.1599133,31.0324966 31.1634677,31.2042313 L31.1778724,31.9020204 C31.1804915,32.023619 31.0824643,32.1237041 30.9606786,32.1237041" id="Fill-13" fill="#17335C" mask="url(#mask-6)"></path>
                    <path d="M37.3332891,32.1237041 L36.5975238,32.1237041 C36.4759252,32.1237041 36.378085,32.023619 36.380517,31.9020204 L36.3949218,31.198619 C36.3986633,31.0280068 36.213085,30.9200646 36.0666054,31.0076156 L35.4670306,31.3658639 C35.3633912,31.4279728 35.2288844,31.3931769 35.168085,31.288602 L34.7995476,30.6546054 C34.7389354,30.5502177 34.7750408,30.4162721 34.8803639,30.3565952 L35.4870476,30.0129388 C35.6352109,29.9289422 35.6333401,29.7145544 35.4834932,29.6331769 L34.8822347,29.3069184 C34.7761633,29.2492993 34.7374388,29.115915 34.7961803,29.0102177 L35.167898,28.3442313 C35.2281361,28.2362891 35.3663844,28.2003707 35.4717075,28.2652857 L36.0542585,28.6250306 C36.1996156,28.7148265 36.3872517,28.6089422 36.385568,28.4379558 L36.3782721,27.7491463 C36.3769626,27.6282959 36.4746156,27.5297075 36.595466,27.5297075 L37.3357211,27.5297075 C37.4563844,27.5297075 37.5540374,27.6282959 37.5527279,27.7491463 L37.545432,28.4489932 C37.5437483,28.6175476 37.7265204,28.7238061 37.8722517,28.6386871 L38.4770646,28.2851156 C38.5812653,28.2243163 38.7150238,28.2598605 38.7750748,28.3644354 L39.1441735,29.0072245 C39.2053469,29.1138571 39.1660612,29.2498605 39.0575578,29.3072925 L38.4441395,29.6320544 C38.2918605,29.7128707 38.2898027,29.9304388 38.4407721,30.0140612 L39.0641054,30.3586531 C39.1696156,30.4172075 39.2074048,30.5505918 39.1477279,30.6557279 L38.7771327,31.3101156 C38.7165204,31.4171224 38.5792075,31.4524796 38.4744456,31.3881259 L37.8670136,31.0147245 C37.7203469,30.9247415 37.5323367,31.0324966 37.5360782,31.2042313 L37.550483,31.9020204 C37.553102,32.023619 37.4550748,32.1237041 37.3332891,32.1237041" id="Fill-14" fill="#17335C" mask="url(#mask-6)"></path>
                    <path d="M23.7234082,45.1646905 C24.3287823,45.1244694 24.6838503,44.7419014 24.995517,44.3146224 C25.110568,44.1572925 25.0538844,43.965915 24.9216224,43.8203707 C24.8013333,43.6877347 24.6675748,43.5676327 24.5439184,43.4381769 C23.9566905,42.8228878 23.9501429,42.8704048 23.2923878,43.2471735 C23.0875408,43.3644694 22.9337653,43.3388401 22.7726939,43.1729048 C22.4097687,42.7989422 22.0344966,42.4367653 21.6695136,42.0648605 C21.0875238,41.4720204 21.0648878,41.6179388 21.4844966,40.8748776 C21.5922517,40.6842483 21.5843946,40.4939932 21.4326769,40.333483 C21.197898,40.0850476 20.9571327,39.8412891 20.7075748,39.6078197 C20.5270476,39.4388912 20.2911463,39.4308469 20.1098707,39.5967823 C19.9248537,39.7662721 19.7390884,39.9458639 19.6006531,40.1523946 C19.3494116,40.5276667 19.3408061,40.9412891 19.560432,41.3345204 C20.4176088,42.8692823 21.5995476,44.0893844 23.1352449,44.9542313 C23.3140884,45.0548776 23.5266054,45.0958469 23.7234082,45.1646905 M21.9542415,47.2992143 C19.3260272,47.2894864 17.2150748,45.1650646 17.2298537,42.5448946 C17.2446327,39.9153707 19.3716735,37.8070374 21.9901599,37.8266803 C24.6125748,37.8461361 26.7070646,39.9539082 26.7023878,42.5686531 C26.6977109,45.1949966 24.5759082,47.3087551 21.9542415,47.2992143" id="Fill-15" fill="#67C29A" mask="url(#mask-6)"></path>
                    <path d="M23.7234082,45.1646905 C23.5266054,45.0958469 23.3140884,45.0548776 23.1352449,44.9542313 C21.5995476,44.0893844 20.4176088,42.8692823 19.560432,41.3345204 C19.3408061,40.9412891 19.3494116,40.5276667 19.6006531,40.1523946 C19.7390884,39.9458639 19.9248537,39.7662721 20.1098707,39.5967823 C20.2911463,39.4308469 20.5270476,39.4388912 20.7075748,39.6078197 C20.9571327,39.8412891 21.197898,40.0850476 21.4326769,40.333483 C21.5843946,40.4939932 21.5922517,40.6842483 21.4844966,40.8748776 C21.0648878,41.6179388 21.0875238,41.4720204 21.6695136,42.0648605 C22.0344966,42.4367653 22.4097687,42.7989422 22.7726939,43.1729048 C22.9337653,43.3388401 23.0875408,43.3644694 23.2923878,43.2471735 C23.9501429,42.8704048 23.9566905,42.8228878 24.5439184,43.4381769 C24.6675748,43.5676327 24.8013333,43.6877347 24.9216224,43.8203707 C25.0538844,43.965915 25.110568,44.1572925 24.995517,44.3146224 C24.6838503,44.7419014 24.3287823,45.1244694 23.7234082,45.1646905" id="Fill-16" fill="#FEFEFE" mask="url(#mask-6)"></path>
                    <path d="M33.5192636,47.2991395 C30.8910493,47.2894116 28.7800969,45.1651769 28.7948759,42.5448197 C28.8094677,39.9152959 30.9366956,37.8071497 33.555182,37.8266054 C36.177784,37.8462483 38.2720867,39.9538333 38.2674099,42.5685782 C38.262733,45.1949218 36.1409303,47.3088673 33.5192636,47.2991395" id="Fill-17" fill="#67C29A" mask="url(#mask-6)"></path>
                    <path d="M31.137165,43.5977517 L31.137165,43.4452857 C31.137165,42.5029898 31.1369779,41.560881 31.137352,40.6189592 C31.137352,40.2854048 31.3186276,40.1030068 31.6501241,40.1028197 C32.4719439,40.1022585 33.2937636,40.1022585 34.1155833,40.1028197 C34.4510085,40.1030068 34.6309745,40.2814762 34.6315357,40.6155918 C34.6324711,41.2091803 34.6326582,41.8025816 34.6313486,42.3961701 C34.6306003,42.7128878 34.4459575,42.8965952 34.1281173,42.8969694 C33.4017058,42.8980918 32.6756684,42.8952857 31.9492568,42.900898 C31.8841548,42.9012721 31.8050221,42.9356939 31.757318,42.9807789 C31.5535935,43.1729048 31.3590357,43.3753197 31.137165,43.5977517" id="Fill-18" fill="#FEFEFE" mask="url(#mask-6)"></path>
                    <path d="M34.9983146,41.5342602 C35.1898793,41.5342602 35.3685357,41.521352 35.5443861,41.5376276 C35.7608316,41.5576446 35.9219031,41.75875 35.9232126,41.9922194 C35.9263929,42.448869 35.9245221,42.9053316 35.9247092,43.3619813 L35.9247092,44.8683078 L35.9247092,45.0232058 C35.704148,44.8017092 35.5071582,44.6084609 35.3159677,44.4092262 C35.256665,44.3473044 35.1964269,44.3229847 35.1103724,44.3233588 C34.3880765,44.3267262 33.6661548,44.3254167 32.9440459,44.3250425 C32.6119881,44.3248554 32.4314609,44.1433929 32.4301514,43.8096514 C32.4297772,43.6777636 32.4299643,43.5458759 32.4299643,43.3990221 L32.574199,43.3990221 C33.1221412,43.3990221 33.6697092,43.3995833 34.2176514,43.398835 C34.7145221,43.3982738 34.9979405,43.1154167 34.9983146,42.6204167 C34.9985017,42.263665 34.9983146,41.9072874 34.9983146,41.5342602" id="Fill-19" fill="#FEFEFE" mask="url(#mask-6)"></path>
                </g>
            </g>
        </g>
    </g>
</svg>