<?xml version="1.0" encoding="UTF-8"?>
<svg width="55px" height="55px" viewBox="0 0 55 55" version="1.1" xmlns="http://www.w3.org/2000/svg" xmlns:xlink="http://www.w3.org/1999/xlink">
    <!-- Generator: Sketch 53.2 (72643) - https://sketchapp.com -->
    <title>img_auto-debit_points</title>
    <desc>Created with Sketch.</desc>
    <defs>
        <polygon id="path-1" points="0 0.138108929 54.8620286 0.138108929 54.8620286 55 0 55"></polygon>
        <polygon id="path-3" points="0 55.0583393 54.8621071 55.0583393 54.8621071 0.196428571 0 0.196428571"></polygon>
    </defs>
    <g id="Page-1" stroke="none" stroke-width="1" fill="none" fill-rule="evenodd">
        <g id="Find-Ride" transform="translate(-508.000000, -2672.000000)">
            <g id="img_auto-debit_points" transform="translate(508.000000, 2672.000000)">
                <g id="Group-3" transform="translate(0.000000, 0.058339)">
                    <mask id="mask-2" fill="white">
                        <use xlink:href="#path-1"></use>
                    </mask>
                    <g id="Clip-2"></g>
                    <path d="M54.8620286,27.5689661 C54.8620286,32.4480554 53.5901536,37.0303411 51.3567607,41.0009482 C50.310975,42.8575911 49.0567786,44.5771268 47.6254036,46.1324482 C45.6489393,48.2819661 43.3356,50.1164125 40.7653321,51.5434661 C40.0564214,51.9378946 39.3251179,52.3056089 38.5806536,52.6336446 C35.1773321,54.1581268 31.4015821,55.0000196 27.4311714,55.0000196 C21.4440286,55.0000196 15.9090643,53.0856268 11.3978857,49.8284482 C6.27954643,46.1369661 2.48592143,40.7216268 0.868528571,34.4333589 C0.301242857,32.2398411 -7.85714286e-05,29.9398589 -7.85714286e-05,27.5689661 C-7.85714286e-05,12.4176446 12.27985,0.138108929 27.4311714,0.138108929 C32.2747071,0.138108929 36.8214393,1.39210893 40.7653321,3.59446607 C43.3356,5.02132321 45.6489393,6.8561625 47.6254036,9.0052875 C52.1189036,13.8888946 54.8620286,20.4075732 54.8620286,27.5689661" id="Fill-1" fill="#D65157" mask="url(#mask-2)"></path>
                </g>
                <path d="M44.0383232,29.1731196 L5.86184107,29.1731196 C4.7386625,29.1731196 3.74159107,28.4543875 3.38664464,27.3885661 C3.03150179,26.3229411 3.39843036,25.1498696 4.2972875,24.4763161 L13.9114839,17.2715125 C15.0647161,16.4076196 16.6995911,16.6415661 17.5638768,17.7947982 C18.4279661,18.9478339 18.1938232,20.5831018 17.0407875,21.4471911 L13.6942339,23.9551911 L44.0383232,23.9551911 C45.4793232,23.9551911 46.6472875,25.1231554 46.6472875,26.5641554 C46.6472875,28.0051554 45.4793232,29.1731196 44.0383232,29.1731196" id="Fill-4" fill="#18335C"></path>
                <path d="M40.8849179,25.6193732 C40.8849179,32.2066054 35.5448107,37.5465161 28.9575786,37.5465161 C22.3705429,37.5465161 17.0306321,32.2066054 17.0306321,25.6193732 C17.0306321,19.0321411 22.3705429,13.6922304 28.9575786,13.6922304 C35.5448107,13.6922304 40.8849179,19.0321411 40.8849179,25.6193732" id="Fill-6" fill="#FAC26A"></path>
                <path d="M38.4650554,25.6193732 C38.4650554,30.8701054 34.2084482,35.1267125 28.9577161,35.1267125 C23.7069839,35.1267125 19.4503768,30.8701054 19.4503768,25.6193732 C19.4503768,20.3686411 23.7069839,16.1120339 28.9577161,16.1120339 C34.2084482,16.1120339 38.4650554,20.3686411 38.4650554,25.6193732" id="Fill-8" fill="#FFD67B"></path>
                <mask id="mask-4" fill="white">
                    <use xlink:href="#path-3"></use>
                </mask>
                <g id="Clip-11"></g>
                <polygon id="Fill-10" fill="#D65157" mask="url(#mask-4)" points="22.199375 39.2120536 36.4121607 39.2120536 36.4121607 35.1267321 22.199375 35.1267321"></polygon>
                <path d="M38.0060018,44.4026786 C37.2039839,44.4026786 36.4127696,44.0341786 35.9012696,43.3380357 C35.0481804,42.1769464 35.2980375,40.5438393 36.4593232,39.6909464 L40.2519661,36.9048036 L11.1320196,36.9048036 C9.69101964,36.9048036 8.52285893,35.7368393 8.52285893,34.2958393 C8.52285893,32.8548393 9.69101964,31.686875 11.1320196,31.686875 L48.2102696,31.686875 C49.3379661,31.686875 50.3381804,32.4113036 50.6893946,33.4830179 C51.0406089,34.5547321 50.6636625,35.7309464 49.7549839,36.3984107 L39.5487518,43.8960893 C39.0832161,44.237875 38.5420554,44.4026786 38.0060018,44.4026786" id="Fill-12" fill="#67C29A" mask="url(#mask-4)"></path>
                <path d="M29.4500446,18.2589589 L31.1132054,21.6288875 C31.1931518,21.7907446 31.3477411,21.9031018 31.5264911,21.9292268 L35.2454732,22.4696018 C35.6958839,22.5350125 35.8756161,23.0883518 35.5497411,23.4059768 L32.8588661,26.0290839 C32.7292232,26.1551911 32.6702946,26.3370839 32.7007411,26.5150482 L33.3359911,30.2189054 C33.4129911,30.6673518 32.9421518,31.0095304 32.5396696,30.7975839 L29.2131518,29.0489768 C29.0532589,28.9649054 28.8621339,28.9649054 28.7022411,29.0489768 L25.3759196,30.7975839 C24.9732411,31.0095304 24.5025982,30.6673518 24.5794018,30.2189054 L25.2146518,26.5150482 C25.2452946,26.3370839 25.1861696,26.1551911 25.0567232,26.0290839 L22.3658482,23.4059768 C22.0397768,23.0883518 22.2195089,22.5350125 22.6699196,22.4696018 L26.3889018,21.9292268 C26.5676518,21.9031018 26.7222411,21.7907446 26.8023839,21.6288875 L28.4653482,18.2589589 C28.6668839,17.8507804 29.2487054,17.8507804 29.4500446,18.2589589" id="Fill-13" fill="#EE556E" mask="url(#mask-4)"></path>
            </g>
        </g>
    </g>
</svg>