<svg xmlns="http://www.w3.org/2000/svg" width="180" height="116" viewBox="0 0 180 116">
    <g fill="none">
        <path fill="#69C39B" d="M47.505 20.747c-.617.94-1.242 1.87-1.877 2.795-.103.15-.206.301-.31.45-1.218 1.758-2.47 3.49-3.76 5.193-.121.162-.241.322-.366.48-1.382 1.813-2.804 3.595-4.266 5.347.671-1.594 1.377-3.175 2.133-4.752l.295-.62.233-.487 2.986-6.254c.071-.142.138-.289.208-.432l2.928-6.131c.104-.214-.115-.49-.342-.345-2.696 1.715-5.216 3.692-7.525 5.903-.127.122-.255.246-.38.371-2.049 2.006-3.913 4.192-5.57 6.533-.113.158-.226.318-.338.481-.459.666-.899 1.34-1.322 2.032-1.092 1.78-2.074 3.628-2.938 5.53-.099.214-.193.428-.285.642-.525 1.188-1.01 2.397-1.454 3.627.143-1.125.275-2.25.398-3.376l.062-.57c.324-2.983.591-5.968.772-8.958.013-.17.022-.339.03-.507.147-2.53.226-5.062.235-7.594v-.5c-.003-2.022-.06-4.048-.17-6.074-.013-.226-.356-.372-.468-.129-.888 1.947-1.674 3.939-2.354 5.968-.057.163-.11.326-.162.49-.908 2.777-1.614 5.616-2.114 8.495-.03.17-.06.341-.087.512-.303 1.835-.522 3.683-.656 5.545-.002.013-.002.025 0 .038-.669-1.727-1.497-3.388-2.474-4.96-.09-.15-.182-.297-.284-.442-1.211-1.886-2.64-3.622-4.258-5.172-.175-.166-.498 0-.418.246.573 1.79 1.122 3.589 1.646 5.395.046.153.09.306.133.46.739 2.55 1.426 5.112 2.062 7.687l.122.5c.506 2.06.978 4.128 1.417 6.202.037.168.07.334.105.499.223 1.047.433 2.096.64 3.148l.113.59c.37 1.94.713 3.888 1.028 5.842.028.166.053.334.08.5.268 1.689.516 3.384.744 5.083l-.027.49c-.68-1.794-1.551-3.508-2.599-5.114-.06-.095-.123-.188-.187-.279-.116-.173-.236-.344-.36-.514-1.025-1.444-2.218-2.759-3.555-3.917-.137-.12-.275-.236-.415-.35-1.339-1.096-2.816-2.01-4.395-2.718-.098-.052-.22-.034-.298.045-.08.08-.097.2-.045.3.629 1.443 1.287 2.872 1.976 4.287.077.159.152.314.23.47.59 1.2 1.203 2.389 1.835 3.564.084.156.167.312.255.467.583 1.073 1.185 2.133 1.807 3.181.433.734.876 1.474 1.345 2.2.1.158.202.316.31.474 1.131 1.704 2.413 3.304 4.042 4.514.03.713.068 1.433.118 2.149.009.099.072.185.163.223.092.038.197.021.272-.043.214.124.431.25.647.372.055.054.132.079.209.069.077-.01.144-.055.184-.122 1.674-2.98 3.121-6.06 4.425-9.208l.188-.455c.979-2.39 1.877-4.812 2.736-7.252.058-.158.112-.317.168-.477.64-1.83 1.259-3.67 1.874-5.51.058-.182.118-.357.178-.541l.213-.63c.654-.592 1.3-1.195 1.933-1.805l.689-.673c2.132-2.119 4.14-4.368 5.89-6.773.142-.19.284-.384.415-.577 1.314-1.841 2.458-3.798 3.42-5.846.07-.156.142-.311.213-.467.664-1.477 1.21-3.005 1.635-4.569.05-.191.1-.381.147-.575.29-1.165.506-2.348.646-3.54.024-.273-.349-.319-.474-.13z"/>
        <path fill="#3D6655" d="M27.051 19.607v.499c-.76-.06-1.519-.121-2.28-.179-.29-.022-.58-.047-.871-.07.052-.164.105-.327.163-.49.235.02.472.04.71.057.756.064 1.517.121 2.278.183zM42.778 22.467c-.07.143-.137.289-.207.432-1.434-.3-2.915.158-4.325-.311-.269-.091-.531-.199-.787-.321.126-.126.254-.25.38-.372.463.21.954.348 1.457.41 1.23.127 2.324-.06 3.482.162zM47.327 24.413c-.047.194-.098.384-.147.575-.118-.071-.236-.13-.356-.193-.488-.259-.995-.538-1.507-.804.105-.148.208-.298.31-.449.574.271 1.142.56 1.7.87zM18.565 29.49c-1.06.16-2.119.322-3.179.484-.043-.153-.087-.307-.133-.46 1.012-.15 2.022-.306 3.03-.466.1.145.192.293.282.441zM26.813 27.702c-.007.168-.017.336-.03.507-.886-.143-1.777-.17-2.683.035-.817.186-1.605.414-2.403.623.027-.17.057-.342.087-.512.95-.272 1.885-.588 2.859-.713.722-.085 1.453-.064 2.17.06zM39.582 29.153l-.233.487c-2.595-.04-5.231.032-7.797-.356.112-.164.225-.324.338-.482 2.533.353 5.127.328 7.692.35zM45.547 29.557c-.07.156-.142.311-.213.467-.035-.01-.071-.017-.103-.025-1.312-.296-2.683-.324-4.04-.334.125-.158.245-.318.365-.48 1.338.023 2.692.051 3.991.372zM26.012 37.166l-.063.57c-.145.03-.292.058-.443.083-1.421.229-2.906-.032-4.34.03-1.199.056-2.398.171-3.598.314l-.122-.499c1.48-.194 2.97-.307 4.463-.34 1.422-.022 2.729.123 4.103-.158zM41.915 35.869c-.133.193-.27.386-.415.577-1.184.285-2.364.628-3.492.778-2.821.374-5.56-.269-8.371-.206-.924.02-1.773.246-2.63.465.093-.214.187-.428.284-.642 1.07-.252 2.168-.358 3.266-.316 1.628.06 3.242.323 4.871.346 1.68.023 3.317-.226 4.942-.635.507-.126 1.027-.255 1.545-.367zM35.61 43.222l-.69.673c-.639.15-1.279.296-1.929.389-1.411.2-2.713-.013-4.108-.188-1.566-.195-3.144-.266-4.72-.214-1.53.053-2.947.499-4.424.843-.213.05-.433.099-.648.143-.032-.168-.068-.334-.106-.5.418-.08.834-.175 1.25-.28 2.41-.615 4.603-.766 7.09-.63 1.393.077 2.782.42 4.174.436 1.347.016 2.653-.342 3.955-.637.053-.015.103-.025.156-.035zM14.965 50.7c-.688.277-1.316.848-1.9 1.271-.348.251-.695.504-1.044.755l-.23-.469c.874-.683 1.783-1.454 2.759-1.906.14.114.278.23.415.35zM32.778 46.33c-.06.18-.12.356-.178.54-1.034-.311-2.127-.37-3.189-.173-1.359.238-2.673.692-4.042.893-1.334.196-2.701.083-4.028.341-.545.106-1.058.337-1.5.676l-.112-.59c.456-.275.957-.468 1.48-.57 1.223-.248 2.48-.158 3.717-.301 1.627-.188 3.174-.771 4.791-1.007 1.049-.153 2.067-.115 3.061.19zM18.88 55.132c-1.682.175-3.296.505-4.758 1.616 0 0-.008.005-.01.008-.088-.156-.17-.312-.255-.467.233-.166.468-.329.706-.49 1.17-.79 2.55-1.054 3.957-1.182.125.17.246.342.36.515zM30.726 52.38c-.056.16-.11.32-.168.477-.66-.066-1.327-.04-1.98.078-2.236.434-4.208 1.586-6.498 1.89-.378.05-.754.09-1.13.126-.027-.169-.052-.337-.08-.5.25-.02.498-.042.744-.07 1.527-.176 2.909-.571 4.337-1.118 1.104-.421 2.223-.856 3.412-.943.455-.032.912-.012 1.363.06zM27.822 60.11l-.188.455c-1.732-.084-3.454-.008-5.144.531-1.657.53-3.247 1.083-4.917 1.514-.107-.158-.213-.316-.31-.474 1.57-.417 3.114-.839 4.671-1.381 1.945-.677 3.91-.75 5.888-.645z"/>
        <path fill="#CED8F7" d="M40.592 65.709l-.032.165-.108.538-3.359 16.943c-.376 1.903-2.041 3.274-3.976 3.274h-13.15c-.955-.001-1.868-.396-2.525-1.092-.657-.696-1-1.632-.95-2.59l.752-14.003.027-.485.07-1.354.013-.251.062-1.15 23.176.005z"/>
        <path fill="#FFF" d="M24.177 67.132c-2.28-.063-4.556-.07-6.831-.023l.012-.251c2.275-.048 4.55-.04 6.825.023.155.005.155.256-.006.25z"/>
        <path fill="#B5C4F2" d="M179.943 115.938L0.044 115.938 4.638 110.011 4.828 109.765 9.066 104.294 9.259 104.044 14.052 97.858 14.245 97.609 18.278 92.405 18.466 92.164 21.407 88.365 157.247 88.365 159.757 91.415 159.965 91.669 163.88 96.424 164.083 96.67 169.324 103.037 169.543 103.303 176.336 111.557 176.544 111.808z"/>
        <path fill="#FFF" d="M159.965 91.67c-5.532 0-11.064-.121-16.593-.282-11.08-.321-22.157-.803-33.24-.808-11.146-.005-22.285.469-33.413.992-19.457.91-38.977 1.955-58.436.833l.188-.241c9.73.555 19.487.575 29.232.334 22.174-.548 44.31-2.373 66.503-2.147 15.18.153 30.372 1.05 45.556 1.064l.203.254zM164.083 96.67c-7.642.203-15.286.385-22.932.548-23.142.483-46.288.767-69.437.85-19.223.07-38.443 0-57.662-.214l.193-.249c8.946.098 17.894.165 26.842.201 23.147.096 46.294-.01 69.442-.318 17.788-.238 35.572-.594 53.351-1.07l.203.252zM169.543 103.303c-8.67-.512-17.35-.829-26.031-1.002-24.177-.48-48.358.153-72.526.831-20.634.578-41.276 1.185-61.92 1.162l.193-.25c9.96.01 19.92-.126 29.875-.337 24.194-.51 48.376-1.444 72.574-1.735 19.207-.234 38.437-.05 57.616 1.065l.219.266zM176.544 111.808c-12.038.08-24.076.117-36.113.108-24.166-.012-48.331-.2-72.496-.562-21.102-.316-42.201-.764-63.296-1.343l.19-.246c10.379.285 20.758.538 31.137.758 24.16.515 48.323.856 72.491 1.025 22.627.155 45.253.158 67.88.01l.207.25z"/>
        <path fill="#DE684E" d="M38.697 99.786L43.66 96.023 39.873 94.953 37.314 96.349z"/>
        <path fill="#FFF" d="M43.323 94.623L43.103 96.196 38.548 99.499 38.448 98.246 38.427 96.296z"/>
        <path fill="#DE684E" d="M43.685 94.311L30.943 90.938 24.601 94.309 38.448 98.246z"/>
        <path fill="#DE684E" d="M24.601 94.309L24.838 95.862 38.697 99.786 38.436 97.141z"/>
        <path fill="#FFF" d="M29.356 92.609L31.265 91.551 32.187 91.762 30.419 92.797z"/>
        <path fill="#BF4C33" d="M38.217 98.168c-.01 0-.021-.001-.031-.004l-13.249-3.67c-.058-.019-.091-.08-.075-.14.016-.058.077-.094.136-.08l13.248 3.67c.056.014.093.068.085.125-.008.057-.057.1-.114.099z"/>
        <path fill="#6B3939" d="M27.304 77.841l-1.727 12.905c-.032.28-.111.694-.409.774-.242.066-.583.027-.771-.24-.261-.369-.101-1.036-.065-1.456l.151-1.787c.148-1.736.593-9.617.593-9.617l2.228-.579zM142.618 77.841l-1.727 12.905c-.032.28-.112.694-.41.774-.241.066-.582.027-.77-.24-.261-.369-.102-1.036-.065-1.456l.151-1.787c.148-1.736.592-9.617.592-9.617l2.229-.579z"/>
        <path fill="#FAD3B1" d="M143.45 56.508l-.284 14.573-72.751.963-18.866.25-24.875.329 3.863-20.39s.625-4.853 1.572-9.198c.731-3.355 1.653-6.41 2.626-6.702.54-.162 7.104-.364 16.773-.548 30.29-.577 91.05-.983 92.51.548 1.925 2.02-.568 20.175-.568 20.175z"/>
        <path fill="#FAD3B1" d="M70.415 72.044c.11-.998-.329-2.063-.587-2.587-.213-.734-.86-1.541-1.793-2.378l-.062-.056.751-.063.737-.062c1-.084 2.133-1.038 2.513-2.118l2.252-6.357h-25.86V35.849c-7.927.167-13.15.341-13.63.485-.974.292-1.896 3.346-2.627 6.702.536.284 1.111.486 1.706.598-.193 1.092-.274 2.201-.241 3.31.12 4.012 1.7 7.823 2.378 11.779.17.988-.087 7.865 1.203 8.036.769.102 1.446.21 2.05.321.549.1 1.036.205 1.476.31.891.472 1.836.834 2.815 1.076l8.05 3.829 2.187 1.04c.429.484.936.894 1.499 1.212.565.327 1.192.53 1.84.598.01.527.138 1.044.376 1.514.824 1.644 1.684 3.16 2.56 4.57h12.298c-.665-2.52-1.446-5.159-2.52-7.855.36-.354.584-.826.629-1.33zM36.87 54.434c-.054.175-.093.354-.116.536-.196 1.165-.418 3.742-.465 6.19l-.266-11.173.866 4.252-.019.195z" opacity=".4"/>
        <path fill="#FAD3B1" d="M147.276 67.079l-1.587 13.482c-.045.38-.365.665-.746.665H22.837c-.21 0-.41-.088-.553-.242-.142-.155-.213-.363-.196-.573l1.094-13.332h124.094z"/>
        <path fill="#FAD3B1" d="M23.182 67.079s1.675-19.364 5.844-19.197c4.17.168 0 21.925 0 21.925l-5.844-2.728zM141.091 67.079s1.706-19.72 5.844-19.197c3.307.419 0 21.925 0 21.925l-5.844-2.728z"/>
        <path fill="#4A4747" d="M29.67 67.193c-.063 0-.114-.051-.114-.114s.051-.114.114-.114l111.748-.766c.063 0 .114.051.114.114s-.051.114-.114.114l-111.747.766z"/>
        <path fill="#4A4747" d="M28.46 80.467h-.008c-.03-.002-.058-.016-.078-.04-.02-.022-.029-.052-.026-.083l2.417-28.997c.002-.03.016-.059.039-.079.023-.02.053-.029.083-.026.03.003.058.017.078.04.02.024.029.054.026.084l-2.417 28.997c-.005.059-.054.104-.113.104zM140.047 81.14h-.014c-.062-.008-.106-.065-.099-.128l3.704-28.933c.008-.063.065-.107.128-.099.062.008.106.065.098.128l-3.704 28.933c-.007.057-.055.1-.113.1z"/>
        <path fill="#4A4747" d="M140.468 77.39H28.72c-.062 0-.113-.05-.113-.113s.05-.115.113-.115h111.754c.063 0 .114.052.114.115s-.051.114-.114.114h-.006zM107.153 66.427h-.012c-.03-.003-.058-.018-.077-.042-.018-.024-.027-.054-.024-.084l3.232-28.855c.008-.062.064-.105.125-.099.062.007.106.062.101.124l-3.232 28.856c-.007.057-.055.1-.113.1zM66.867 66.427h-.013c-.03-.003-.058-.018-.076-.042-.02-.024-.028-.054-.024-.084l3.231-28.855c.008-.062.064-.107.126-.1.03.003.057.018.076.041.02.024.028.054.024.084L66.98 66.327c-.007.057-.056.1-.113.1z"/>
        <path fill="#946355" d="M130.174 56.884c-1.25-1.12-2.684-2.014-4.238-2.643-1.655-.67-3.397-1.123-5.104-1.63-.853-.256-1.706-.51-2.56-.765-.778-.231-1.619-.609-2.423-.719-1.23-.165-1.717 1.336-2.04 2.473-.083.294-.155.56-.228.771-.745 2.202-2.238 4.039-3.372 6.045-.625 1.112-1.792 2.546-2.057 3.819-.08.393.28.728.596.918 1.019.613 2.285.99 3.492 1.361.48.143.951.291 1.392.452l.31.113c1.44.523 2.874 1.04 4.298 1.592.333.128.666.258.995.394 1.147.46 2.286.949 3.405 1.484.376.18.748.364 1.126.54.203.092.471.268.711.185.413-.143.614-.866.794-1.212.398-.771.78-1.55 1.146-2.337.1-.214.2-.432.295-.648.095-.216.2-.444.296-.668 1.318-3.035 2.39-6.172 3.206-9.38.018-.052.002-.11-.04-.145z"/>
        <path fill="#FFF" d="M117.575 52.965c-.623.383-1.22.809-1.785 1.273-.042.03-.054.088-.027.133.005.035.026.066.058.083.285.166.538.384.745.641.028.027.067.04.105.035.038-.005.072-.027.093-.06.306-.658.634-1.304.984-1.938.023-.05.012-.108-.027-.146-.039-.038-.098-.046-.146-.021zM116.568 57.763c-.623.383-1.219.81-1.784 1.275-.042.03-.054.086-.028.13.006.036.027.068.058.086.285.167.538.385.746.642.027.028.066.041.105.036.039-.004.073-.027.093-.061.305-.658.633-1.304.983-1.936.026-.05.016-.11-.023-.15-.04-.039-.1-.048-.15-.022zM115.395 63.54c-.624.382-1.22.807-1.785 1.272-.042.031-.054.088-.027.133.004.035.026.066.057.083.286.166.538.384.746.641.028.027.066.04.105.035.038-.005.072-.027.093-.06.305-.657.633-1.303.984-1.937.023-.05.013-.109-.026-.147-.04-.038-.099-.046-.147-.02zM110.198 62.578c-.625.381-1.221.806-1.786 1.273-.042.03-.053.088-.027.133.006.035.027.066.058.083.284.167.537.385.746.641.027.028.066.042.105.037.038-.005.073-.028.092-.062.306-.658.63-1.303.981-1.935.027-.049.019-.11-.02-.15-.04-.039-.1-.047-.149-.02zM122.234 61.08c-.624.382-1.22.807-1.785 1.272-.042.03-.054.088-.027.133.006.035.027.065.057.083.285.167.538.384.746.642.027.028.066.041.105.036.039-.005.073-.027.093-.061.305-.656.633-1.301.983-1.936.027-.05.018-.11-.022-.15-.04-.04-.102-.047-.15-.02zM124.737 65.62c-.41.251-.811.525-1.197.817-.2.142-.395.298-.588.457-.042.03-.054.087-.027.132.002.02.01.039.025.053.007.013.018.024.032.03.286.166.538.384.746.642.028.026.066.039.105.034.038-.005.072-.027.093-.06.1-.218.205-.434.312-.65.108-.216.214-.434.331-.65.117-.216.223-.428.34-.637.024-.05.014-.109-.026-.147-.039-.038-.098-.046-.146-.02zM122.234 55.204c-.623.385-1.219.81-1.785 1.273-.042.031-.054.089-.027.133.005.036.026.067.057.085.286.166.54.383.746.642.028.027.066.04.105.035.038-.005.072-.027.093-.06.305-.658.633-1.305.983-1.939.025-.049.015-.109-.024-.148-.04-.038-.1-.047-.148-.02zM119.72 67.636c-.513.316-1.008.661-1.482 1.035.333.128.667.258.996.394.208-.428.426-.841.656-1.255.027-.05.02-.11-.02-.15-.039-.04-.1-.05-.15-.024z"/>
        <path fill="#DE684E" d="M141.787 54.51c-.53-.985-1.261-1.91-2.041-2.802-.729-.833-1.546-1.64-2.554-2.126-1.284-.614-2.582-.5-3.822-.065-1.231-.066-2.456-.071-3.641.347-1.756.615-3.768 1.899-4.777 3.507-.54.864-.693 1.864-.8 2.86-.138 1.284-.285 2.574-.393 3.862-.088 1.033-.08 2.076.366 3.033.378.81 1.001 1.473 1.707 2.009.777.588 1.64 1.055 2.557 1.385 1.114.399 2.187 0 3.325-.005 1.163-.005 2.24.294 3.396.033 1.19-.268 2.29-.896 3.212-1.686 1.581-1.355 3.2-3.345 3.926-5.318.688-1.876.35-3.524-.461-5.034z"/>
        <path fill="#BF4C33" d="M132.163 56.776c-.658-.3-1.485.817-1.052.915.423.097 1.102.02 1.264-.466.058-.183-.035-.38-.212-.45zm-.208.553c-.213.133-.502.19-.733.104-.025-.009.595-.46.672-.457.112.004.142 0 .185.117.051.13-.007.165-.124.237v-.001z"/>
        <path fill="#BF4C33" d="M139.008 51.411c-.104-.124-.28.055-.177.178 1.52 1.813 2.937 4.331 1.418 6.592-.263.392-.556.756-.718 1.206-.154.428-.196.885-.323 1.32-.31 1.07-1.374 1.626-2.041 2.462-.796.998-1.498 1.683-2.844 1.804-1.115.091-2.237.077-3.35-.042-.836-.084-1.647-.15-2.44-.337.03-.008.054-.028.068-.055.015-.027.017-.058.007-.087-.382-1.179.098-2.353.626-3.408.482-.954 1.072-1.85 1.757-2.671.102-.123-.072-.302-.177-.178-.793.947-1.46 1.992-1.984 3.111-.468 1.013-.82 2.11-.463 3.213.005.015.013.03.024.042-.36-.088-.713-.207-1.053-.356-.981-.441-2.067-.978-2.422-2.075-.05-.154-.292-.088-.242.066.237.732.758 1.243 1.399 1.64.754.469 1.66.907 2.535 1.073.98.186 2.011.265 3.005.335 1.037.071 2.151.098 3.18-.072.88-.142 1.52-.576 2.089-1.25.276-.327.526-.675.81-.998.32-.356.705-.63 1.05-.958.688-.658.697-1.468.968-2.328.295-.932 1.075-1.587 1.318-2.55.544-2.14-.709-4.114-2.02-5.677z"/>
        <path fill="#BF4C33" d="M129.81 62.242c-.172.738-.257 1.493-.252 2.25 0 .161.251.162.25 0-.005-.735.077-1.467.244-2.183.034-.156-.207-.223-.242-.067zM138.713 58.35c-.86-.585-1.967-.952-2.964-1.224-.956-.261-1.937-.327-2.885 0-.152.052-.087.294.066.242.986-.336 1.99-.229 2.974.067.908.273 1.893.6 2.682 1.136.134.087.26-.13.127-.22zM133.436 54.125c-.27.694-.587 1.368-.95 2.018-.078.143.138.269.214.127.372-.67.698-1.364.975-2.078.057-.149-.184-.216-.239-.067zM131.133 55.373c-1.049-1.359-2.539-2.306-4.212-2.676-.156-.035-.224.207-.066.242 1.63.36 3.082 1.285 4.1 2.611.1.127.277-.051.178-.177z"/>
        <path fill="#D99F82" d="M168.157 35.238c-3.761 5.567-6.566 11.726-8.296 18.223-.041.156.2.223.242.067 1.725-6.476 4.52-12.616 8.27-18.165.09-.133-.126-.259-.216-.125zM165.901 27.922c-2.573 7.912-4.705 15.962-6.385 24.113-.033.157.208.225.241.067 1.68-8.15 3.813-16.201 6.386-24.114.05-.154-.192-.22-.242-.066zM159.78 33.963c-1.214 4.875-1.697 9.905-1.432 14.923.009.16.259.162.25 0-.265-4.995.215-10.002 1.422-14.856.04-.157-.2-.224-.24-.067zM151.24 32.831c-.082-.138-.299-.012-.213.127 3.28 5.513 5.437 11.623 6.346 17.978.023.16.265.091.242-.067-.915-6.376-3.081-12.507-6.374-18.038z"/>
        <path fill="#6B3939" d="M170.578 31.761c-.102.023-.197.067-.281.129-.947.641-1.524 1.71-2.124 2.653-.114.18-.688 1.314-.06 1.242.146-.017.26-.134.359-.244.933-1.024 1.884-2.079 2.403-3.365.036-.07.05-.15.041-.228-.038-.121-.154-.2-.28-.192-.02 0-.04.002-.058.005zM167.214 23.642c-.037.049-.069.101-.096.156-.42.86-.774 1.751-1.057 2.666-.071.237-.816 2.41-.094 2.21.15-.04.233-.197.297-.34.624-1.382 1.086-2.832 1.378-4.321.037-.195.025-.468-.17-.505-.103-.017-.19.047-.258.134zM160.393 29.92c-.12.158-.165.377-.226.563-.16.484-.286.978-.38 1.479-.092.51-.314 1.635-.046 2.126.065.12.213.207.342.154.057-.027.106-.07.142-.124.161-.213.34-.733.383-.998.227-1.367.385-1.868.284-2.951-.016-.177-.096-.406-.273-.393-.093.012-.176.064-.226.144zM151.54 33.19c-.018-.067-.042-.132-.071-.194-.47-1.086-.956-2.194-1.759-3.066-.11-.12-.237-.24-.397-.274-.99-.21.338 2.23.515 2.495.158.238 1.346 1.822 1.68 1.273.04-.07.052-.155.032-.234z"/>
        <path fill="#CED8F7" d="M162.773 86.614c-1.332.04-7.43.125-7.845 0-.158-.048-.906-3.204-1.71-7.263l-.06-.302-.122-.627c-.018-.101-.038-.204-.058-.307-1.24-6.462-2.48-14.53-1.81-16.306.003-.002.005-.006.006-.01.042-.112.09-.226.142-.336 1.292-2.852 4.676-5.101 4.676-5.101l-.898-8.883h8.846l-.168.952-.062.357-.128.726-.063.341-1.137 6.424s2.007 1.73 3.314 3.749c.048.071.095.147.142.22.484.784.846 1.602.936 2.373.335 2.842-2.669 23.95-4 23.993z"/>
        <path fill="#EBBD94" d="M40.4 83.074c-.076.709-.117 1.42-.122 2.134 0 .323.498.324.498 0 .006-.713.046-1.424.12-2.134.038-.321-.464-.319-.497 0zM41.704 81.513c-.333 1.116-.465 2.283-.389 3.445.021.32.521.323.498 0-.075-1.117.051-2.239.371-3.312.095-.31-.388-.439-.48-.133zM42.736 81.54c-.213.843-.325 1.71-.334 2.58-.004.323.498.324.498 0 .008-.825.115-1.647.316-2.447.082-.314-.4-.447-.48-.134zM43.944 80.48c-.008-.322-.509-.324-.5 0 .024.992.114 1.98.27 2.96.05.319.532.183.483-.133-.147-.936-.231-1.88-.253-2.826zM44.662 80.647v2.72c0 .323.498.324.498 0v-2.72c.003-.323-.498-.323-.498 0zM46.435 80.605c-.01-.323-.512-.324-.497 0 .026.781.052 1.562.08 2.343.01.322.511.324.497 0l-.08-2.343zM47.921 79.686c-.035.964-.107 1.926-.213 2.886-.036.321.465.318.497 0 .107-.96.178-1.922.214-2.886.015-.324-.487-.323-.498 0zM48.981 79.662c-.177.862-.285 1.737-.325 2.617-.014.323.486.322.498 0 .037-.835.14-1.665.308-2.484.063-.315-.42-.45-.481-.133zM50.177 78.932l-.078 2.844c-.01.324.49.323.497 0l.08-2.844c.011-.323-.486-.323-.499 0zM51.211 78.697c-.055-.318-.537-.183-.483.133.143.837.235 1.681.276 2.529.015.322.516.324.497 0-.042-.893-.139-1.782-.29-2.662zM62.464 71.968c.059-.315-.427-.45-.483-.133-.132.698-.189 1.408-.17 2.118.008.322.509.323.497 0-.019-.665.034-1.33.156-1.985zM61.28 72.366c.03-.321-.47-.32-.498 0-.087.9-.056 1.808.09 2.7.051.318.533.184.483-.133-.136-.849-.161-1.711-.075-2.567zM59.535 72.865c.003 1.007-.037 2.012-.121 3.015-.028.321.473.32.497 0 .085-1.004.126-2.009.122-3.015.001-.323-.5-.323-.498 0zM58.365 73.787c-.07.956-.176 1.91-.318 2.858-.047.316.435.452.483.133.15-.993.262-1.99.335-2.994.02-.32-.48-.318-.5.003zM57.648 74.728c.045-.316-.437-.453-.482-.134-.141.966-.184 1.943-.129 2.916.018.322.52.324.498 0-.056-.929-.018-1.86.113-2.782zM55.718 75.836v2.51c0 .323.498.324.498 0v-2.51c.003-.323-.498-.324-.498 0zM54.51 76.589c-.021 1.175-.23 2.34-.619 3.448-.106.305.377.437.483.133.403-1.152.619-2.36.64-3.581.003-.323-.499-.323-.504 0zM53.068 78.178c-.031.851-.053 1.702-.066 2.553-.005.324.498.324.498 0 .012-.851.035-1.702.066-2.553.015-.322-.486-.322-.498 0zM52.648 81.256c-.222-.725-.31-1.484-.259-2.24.02-.322-.48-.321-.498 0-.052.801.042 1.605.277 2.373.09.308.574.175.48-.133z"/>
        <path fill="#FFF" d="M74.147 35.457c0-.11-.007-.221-.01-.332-.002-.068-.057-.124-.125-.125l-2.854-.048c-.877-.282-1.783-.465-2.701-.545-1.475-.12-2.979.03-4.453.099-1.545.07-3.092.12-4.634.213-.416.025-.829.065-1.142.37-.165.168-.297.367-.39.584-.142.307-.245.646-.345.927-.44 1.25-.69 2.558-.741 3.882-.03.758 0 1.515-.053 2.274-.062.83-.278 1.596-.546 2.382-.452 1.293-.731 2.64-.83 4.007-.103 1.494-.013 2.985-.038 4.479-.03 1.75-.608 3.309-1.059 4.978-.375 1.396-.676 2.812-.959 4.233-.037.188-2.896.939-3.239 1.05-1.456.461-3.12.07-4.503.745-.866.42-1.47 1.325-1.865 2.353-.015.03-.027.063-.038.095-.368 1.03-.566 2.114-.586 3.209-.007.713.018 1.418-.04 2.119-.034.444-.113.884-.237 1.313-.31 1.031-.832 1.983-1.247 2.972-.08.193-.157.39-.23.585-.477 1.271-.792 2.598-.936 3.949-.097.882-.124 1.77-.08 2.656.003.041.024.079.057.103.028.024.066.03.1.018.142-.05.278-.106.411-.168.167-.079.33-.166.488-.262.183-.105.363-.22.538-.34l.64-.429c.137-.092.277-.183.42-.27.045-.028.09-.053.138-.078.16-.09.326-.17.497-.236.16-.06.322-.112.486-.156.204-.055.411-.099.62-.13.166-.028.334-.05.498-.071.268-.033.54-.056.814-.084.162-.015.325-.032.488-.053h.01c.448-.052.893-.128 1.336-.226.171-.034.34-.075.51-.12.137-.035.274-.071.409-.11.05-.013.098-.028.142-.043.125-.035.25-.072.373-.118.295-.093.59-.201.878-.317.17-.07.339-.138.506-.213.103-.043.205-.091.305-.139.16-.075.32-.153.479-.233.158-.08.318-.168.475-.259.158-.09.328-.186.488-.285l.038-.023c.213-.13.42-.268.62-.414.176-.123.346-.253.514-.386.284-.219.55-.45.816-.686.195-.17.385-.344.576-.517l.39-.362c.128-.12.258-.238.386-.356.165-.153.333-.306.497-.454.27-.244.544-.48.827-.708.172-.143.35-.276.53-.407.057-.045.115-.085.175-.128.168-.118.341-.234.514-.341.172-.108.355-.221.533-.327.235-.138.476-.273.716-.41.17-.097.34-.192.51-.29.238-.138.476-.276.711-.428.17-.105.335-.214.498-.329.221-.15.435-.31.64-.482.13-.105.257-.218.38-.336.045-.043.09-.088.132-.133.023-.023.046-.045.066-.072.478-.496.832-1.099 1.033-1.76.255-.873.196-1.885.651-2.694.124-.219.296-.407.504-.55.142-.098.296-.18.457-.242.777-.304 1.77-.277 2.528-.362.947-.108 2.196-.046 3.057-.505.806-.432.954-1.396 1.082-2.216.18-1.206.298-2.42.355-3.636.133-2.579.071-5.162.168-7.743.224-5.666 1.991-11.212 1.87-16.908z"/>
        <path fill="#FAD3B1" d="M42.32 66.367s10.073 6.712 10.474 10.305l.53 4.52 8.684-.065s-.73-6.649-2.851-8.976c-2.121-2.327-15.776-7.18-15.776-7.18l-1.061 1.396z" opacity=".4"/>
        <path fill="#E0CCC3" d="M48.653 64.951c-.059.001-.108-.043-.114-.102-.007-.059.033-.112.09-.124.034-.007 3.392-.718 6.5-.487.977.072 1.732.168 2.4.251 1.47.184 2.531.317 4.676.06 2.34-.286 3.463-.01 4.004.12.094.03.192.047.29.053.183-.071 2.434-1.633 3.903-2.664.033-.026.078-.031.116-.014.038.017.064.054.067.096.003.042-.017.083-.053.105-.62.434-3.719 2.607-3.957 2.692-.093.032-.209.004-.42-.046-.527-.127-1.624-.392-3.923-.116-2.173.262-3.246.127-4.732-.059-.664-.083-1.417-.177-2.388-.25-3.077-.231-6.398.475-6.435.483l-.024.002zM49.426 76.323c-.05 0-.094-.033-.108-.082-.014-.048.005-.1.047-.127.023-.015 2.275-1.476 3.7-3.305.362-.47.694-.963.996-1.474.694-1.133 1.293-2.111 3.496-3.548 3.066-1.996 6.5-2.563 6.534-2.567.062-.009.12.033.13.095.01.062-.033.12-.095.13-.033.006-3.421.563-6.445 2.535-2.16 1.409-2.747 2.367-3.426 3.477-.306.52-.642 1.02-1.008 1.498-1.452 1.859-3.734 3.34-3.757 3.355-.02.01-.042.015-.064.013zM53.868 62.93c-.017 0-.033-.003-.049-.01-.027-.013-.048-.037-.058-.065-.01-.029-.008-.06.005-.087.01-.021 1.022-2.112 2.902-5.372 1.759-3.05 2.3-5.646 2.696-7.542l.085-.406c.096-.454.235-1.283.41-2.342.558-3.37 1.404-8.461 2.266-9.713 1.127-1.635 2.573-2.21 2.63-2.23.06-.023.125.006.148.065.022.06-.007.125-.066.148-.014.006-1.442.57-2.528 2.148-.834 1.212-1.706 6.475-2.229 9.62-.175 1.058-.314 1.894-.411 2.353l-.086.405c-.398 1.912-.944 4.528-2.72 7.61-1.876 3.251-2.885 5.335-2.895 5.356-.019.038-.057.062-.1.063z"/>
        <path fill="#E0CCC3" d="M62.162 43.657c-.013 0-.026-.002-.039-.006-.058-.02-.09-.084-.07-.143.085-.241 2.122-5.936 3.59-7.165 1.467-1.23 2.32-1.408 2.357-1.418.03-.006.06 0 .085.017.025.017.043.043.048.073.013.061-.027.121-.088.134-.009 0-.841.182-2.255 1.366-1.413 1.185-3.5 7.008-3.522 7.067-.016.045-.058.075-.106.075z"/>
        <path fill="#E6D6CF" d="M126.758 0.048L88.845 0.048 86.01 0.048 82.563 29.647 125.52 29.647 128.979 0.048z"/>
        <path fill="#FFF" d="M87.424 0.048L84.042 28.387 124.201 28.387 127.588 0.048z"/>
        <path fill="#FF9F8A" d="M116.77 6.908c-.929.331-2.303.998-2.566 2.053-.087.357-.08.729-.071 1.095.035 1.765-.2 3.613.035 5.363.077.574.46.855 1.009.936l1.208-6.57c.16-.87.403-1.92.47-2.907l-.085.03zm5.012 4.245c-.143-1.323-.273-2.626-1.325-3.557-.043-.038-.085-.071-.128-.108-.183.808-.395 1.617-.558 2.397-.38 1.86-.663 3.834-1.152 5.722 1.104-.444 2.083-.962 2.479-1.208 1.271-.793.826-1.908.684-3.246z"/>
        <path fill="#79869F" d="M116.77 5.334c.113.467.128.998.087 1.544 1.2-.396 2.488-.188 3.472.61.085-.374.16-.748.223-1.122-1.242-.41-2.504-.755-3.782-1.032zm-1.595 11.02c-.007.046-.018.091-.025.137-.095.509-.09 1.205-.31 1.674-.338.72-.964.841-1.707.79-.964-.064-1.919-.315-2.894-.24-.75.057-1.354.321-1.972.733-1.066.713-1.997.96-3.282.864-1.704-.126-3.4-.354-5.076-.683-.886-.174-1.768-.377-2.639-.606-1.219-.318-2.31-.677-3.216-1.599-.827-.835-1.535-1.822-2.275-2.741-.033-.65.035-1.298.107-1.946.014-.08-.024-.16-.095-.2.032-.285.058-.57.085-.86.084-.035.14-.116.142-.207.083-1.243.494-2.353 1.012-3.475.197-.422.393-.879.623-1.315.171-.337.376-.655.612-.95-.913.18-1.827.374-2.733.59-.023.954.04 1.925.015 2.86-.008.285-.02.57-.035.849-.105 1.945-.35 3.88-.73 5.791-.063.317.418.45.48.133.033-.16.061-.321.09-.482.061.348.165.686.31 1.007.604 1.293.722 2.398 1.949 3.218 1.086.726 2.32 1.128 3.599 1.381 1.35.266 2.749.37 4.073.512 3.427.37 6.886.849 10.341.781 2.661-.05 4.56-.979 5.782-3.411.531-1.058.911-2.19 1.214-3.351-1.202.48-2.548.878-3.445.747z"/>
        <path fill="#FF9F8A" d="M101.2 12.413c-.09-1.589-.136-3.499-1.2-4.79-.67-.808-1.664-.916-2.635-1.02-1.16-.124-2.591-.413-3.712.077-.201.084-.39.196-.561.331-.917.728-1.262 1.93-1.582 3.018l-.053.175c-.576 1.923-1.044 3.877-1.402 5.852-.207 1.15-.793 2.928-.536 4.083.321 1.425 3.02 1.2 4.116 1.227 1.18.03 2.408-.015 3.574-.289.503-.113.994-.278 1.465-.49.48-.218.902-.547 1.234-.958 1.5-1.823 1.412-5.141 1.292-7.216zm-2.971 5.1c-.21.26-.478.466-.782.604-.297.134-.607.237-.924.309-.736.171-1.513.201-2.255.181-.694-.018-2.396.123-2.599-.774-.163-.73.208-1.85.338-2.575.227-1.246.523-2.48.886-3.693l.032-.113c.203-.685.421-1.443.996-1.903.107-.086.227-.157.355-.208.711-.311 1.612-.128 2.346-.05.614.065 1.242.135 1.665.645.671.813.699 2.018.756 3.022.076 1.309.132 3.402-.814 4.555z"/>
        <path fill="#FFEBC6" d="M105.808 5.173c-.766-.8-1.602-.092-2.075.636-.71 1.097-.859 2.452-1.019 3.72-.123.972-.76 2.762-.182 3.648.988 1.516 2.405-1.461 2.623-2.119.513-1.541 2.065-4.409.653-5.885zM107.528 11.306c-1.302-1.684-4.143 4.52-3.355 5.745.69 1.07 1.943-.385 2.236-1.012.446-.959.776-1.989 1.094-2.995.17-.54.418-1.228.025-1.738z"/>
        <path fill="#DE9780" d="M75.924 71.167c-.298.245-.64-.076-.88-.247-.343-.246-.697-.427-1.04-.635-.585-.356-1.22-.525-1.828-.832-.608-.307-1.067-.733-1.55-1.212-.687-.677-1.275-1.476-2.297-1.504-.815-.022-1.583-.652-1.527-1.66.038-.68.518-1.083.93-1.757.65-1.064 1.056-2.968 1.232-4.164.28-1.892.193-3.947 1.416-5.293.883-.971 2.417-.516 3.026.517.479.81 0 1.7-.392 2.789-.526 1.446-1.296 3.681-1.513 5.362-.221 1.718.213 2.204 1.106 3.547.012.257.554.837.64.974.298.46.488.793.739 1.18.25.385.46.716.71 1.069.25.352.55.57.868.847.148.13.32.27.404.452.085.18.115.433-.044.567z"/>
        <path fill="#122870" d="M50.664 56.114c3.433-3.208 7.717-6.264 11.55-8.979 3.585-2.539 7.454-6.71 11.393-4.383 4.854 2.87 1.003 13.27-.766 18.55-1.536.286-3.312-.57-4.848-.285-1.129-8.295-.285-6.423-.431-8.751-5.18 5.574-9.412 9.742-15.327 11.712l-1.571-7.864z"/>
        <path fill="#F6BD96" d="M59.71 53.42l-4.124 1.163c-3.463-.56-5.83-2.847-7.442-5.543 1.219-.713 2.367-1.593 3.583-2.16 2.03 2.833 4.662 4.983 7.982 6.54z"/>
        <path fill="#A6A8AB" d="M48.014 36.162l-.583.357c-.026-.12-.057-.236-.082-.357h.665z"/>
        <path fill="#BB3A45" d="M48.257 37.06c.91 4.161 2.153 6.882 4.136 9.652-1.215.57-3.493 2.05-4.711 2.762-2.873-4.797-2.895-11.326-2.895-11.326l3.47-1.089z"/>
        <path fill="#E76464" d="M50.008 63.2c-1.645 1.02-5.15.821-7.243.384 2.069-3.009 6.027-5.359 8.716-8.057.954 2.805 1.524 5.814-1.473 7.673z"/>
        <path fill="#E76464" d="M34.59 43.781c.344-3.01 1.574-7.025 4.239-8.79 2.03-1.343 5.38-2.435 7.815-1.657 2.874.92 1.559 5.524 1.758 7.734.367 4.077 1.383 8.069 3.008 11.824.213.493.442.998.436 1.539-.013 1.13-1.35 2.041-2.111 2.7-1.055.917-2.137 1.8-3.207 2.7-.44.37-5.732 5.371-5.58 5.456-2.41-1.346-5.07-9.456-5.71-12.53-.617-2.95-.991-5.983-.648-8.976z"/>
        <path fill="#FAAA91" d="M74.967 94.985c-.17.434-.728.337-1.081.317-.51-.029-.979-.007-1.46-.063-.82-.095-1.541.034-2.368.004-.827-.03-1.488-.2-2.346-.427-1.209-.328-2.396-.128-3.69.088-.972.163-2.582.247-2.937-.939-.24-.802.534-1.343.75-2.098.339-1.194-.176-2.288-.633-3.426-.723-1.8-1.237-3.644-.213-5.448.74-1.304 2.784-1.543 3.85-.54.838.788.21 1.908.01 2.874-.262 1.284-.22 2.424.598 3.524.836 1.126 2.38 1.605 3.506 2.44.124.285.94.713 1.1.819.53.366.861.61 1.32.908.436.285.827.532 1.268.772.44.24.873.304 1.364.377.227.035.489.072.686.204.198.133.37.376.276.614z"/>
        <path fill="#122870" d="M66.588 64.793c-.088-1.223-.218-2.527-.983-3.483-1.06-1.324-2.953-1.546-4.645-1.626-5.855-.277-11.562.3-17.391.563-1.848.084-2.89.5-3.098 2.473-.17 1.619.535 3.161 1.764 4.173h10.87s2.656 1.06 4.178 1.02c.008 0 2.428 17.336 3.626 22.153 2.559-.143 4.276-.263 5.958-.815.4-8.15.307-16.318-.28-24.458z"/>
        <path fill="#E76464" d="M47.63 58.91c-2.559 2.14-5.367 4.468-6.682 6.377-1.143-.641-2.339-2.798-3.352-5.219 3.303-.691 6.661-1.079 10.034-1.158z"/>
        <path fill="#D0CCC8" d="M59.005 57.2c.236.029.472.041.71.08-.238.044-.481.017-.71-.08z"/>
        <path fill="#0F1F59" d="M53.26 23.518c.414.868.744 1.786.848 2.742.104.956-.03 1.954-.494 2.796-.517-1.887-1.215-3.72-2.086-5.47l1.731-.068z"/>
        <path fill="#F6BD96" d="M45 37.178c-.7-.186-1.297-.644-1.66-1.273-.363-.628-.461-1.376-.274-2.077l2.636-9.944 5.27 1.408-2.64 9.946c-.387 1.457-1.878 2.325-3.332 1.94z"/>
        <path fill="#E7A579" d="M44.82 33.495c-.181-.775-.171-1.619-.12-2.409.033-.62.128-1.235.284-1.836.447.076.853.316 1.249.526.422.222.878.384 1.326.548.63.23 1.267.444 1.903.66l-1.13 4.254c-.123.454-.362.867-.694 1.2-1.444-.253-2.49-1.532-2.819-2.943z"/>
        <path fill="#F6BD96" d="M47.995 35.485c5.352 2.87 8.411-10.325 2.992-13.399-6.15-3.487-8.07 3.127-6.162 8.492.677 1.903 1.364 3.938 3.17 4.907z"/>
        <circle cx="49.488" cy="30.633" r="1" fill="#111A33" transform="rotate(-85.65 49.488 30.633)"/>
        <path fill="#111A33" d="M53.023 30.79c-.02.246-.126.437-.238.427-.112-.01-.188-.214-.17-.46.019-.247.125-.439.238-.428.112.01.188.214.17.46z"/>
        <path fill="#0F1F59" d="M48.808 29.005c.347-.036.95.046 1.29.096.387.057.418-.346.067-.41-.646-.12-.897-.088-1.368.058-.117.036-.133.269.01.256zM53.496 29.332c-.228-.072-.644-.059-.88-.046-.267.014-.228-.387.017-.413.45-.048.613.01.908.207.073.048.049.281-.045.252z"/>
        <path fill="#E38A78" d="M52.066 33.559c-.26-.054-.439-.282-.634-.256-.225.027-.453.014-.674-.038-.07-.024-.322.028-.4.035-.202.018-.574.128-.739.108 0 0 .335.934.996 1.02 1.41.182 1.451-.87 1.451-.87z"/>
        <path fill="#D46953" d="M51.234 33.892h-.057c-.569-.045-1.05-.243-1.438-.402-.1-.042-.196-.081-.288-.116-.02-.008-.031-.031-.024-.052.004-.01.012-.019.021-.023.01-.004.021-.005.031 0 .093.034.19.07.29.115.404.166.862.356 1.414.397.386.031 1.012-.306 1.018-.31.019-.006.04.002.049.02.01.017.005.039-.01.051-.026.012-.6.32-1.006.32z"/>
        <path fill="#E38A78" d="M50.972 31.914h-.086c-.061-.007-.106-.06-.102-.121.004-.061.055-.109.116-.108.227.014.392-.036.479-.143.06-.076.08-.176.057-.27-.06-.209-.18-1.2-.184-1.242-.004-.03.004-.06.023-.084.019-.024.046-.04.076-.043.063-.008.12.037.127.1.034.281.131 1.047.177 1.205.046.166.01.343-.098.478-.088.104-.26.228-.585.228z"/>
        <path fill="#0F1F59" d="M44.224 29.94c-.076.42-.243.817-.489 1.165.098-.127-.387-1.295-.436-1.477-.383-1.41-.77-2.86-.63-4.315.044-.499.168-.987.365-1.446 1.326-3.045 5.36-3.756 8.091-2.154.578.336 1.114.74 1.596 1.203.527.515.955 1.159 1.091 1.884.137.725-.057 1.534-.602 2.03-1.598 1.457-3.578-.356-4.89-1.222-.646-.428-1.576-.754-2.125-.21-.771.766-.882 2.572-.853 3.648 0 .096-.45.123-.468-.017-.034-.266.007-.486-.222-.577-.066-.027-.498-.224-.412.009.191.508.084.945-.016 1.479z"/>
        <path fill="#F6BD96" d="M44.993 28.606c-.068-.155-.188-.282-.34-.356-.157-.072-.342-.039-.464.084-.125.143-.103.362-.051.546.13.452.394.85.654 1.24l.2-1.514z"/>
        <path fill="#0F1F59" d="M52.514 33.332c.018.028.034.057.048.087.202.428-.019.927-.236 1.345-.337.651-.711 1.337-1.344 1.698-1.226.694-2.686-.046-3.672-.823-2.408-1.904-3.337-5.136-2.31-8.034.219.297.311.514.336.876.028.405-.153 2.604 1.123 3.946.565.593 1.609.621 2.38.57.947-.064 1.906-.37 2.856-.16.317.07.645.223.819.495zM45.569 22.282c.396-.965.598-2 .594-3.044 0-.693-.155-1.48-.743-1.843-.62-.384-1.453-.111-2.019.35-.697.57-1.18 1.513-.917 2.374.412 1.346 2.335 1.807 2.652 3.178l.433-1.015z"/>
        <path fill="#808184" d="M46.175 58.827H55.56999999999999V59.827H46.175z"/>
        <path fill="#A6A8AB" d="M68.431 59.771h-16.89l2.41-9.45c.178-.701.807-1.192 1.528-1.192h14.795c.208 0 .405.097.533.262.127.165.172.38.12.582l-2.496 9.798z"/>
        <path fill="#808184" d="M53.952 50.32l-2.412 9.451h1.05l2.71-10.627c-.649.074-1.185.542-1.348 1.177z"/>
        <circle cx="1.002" cy=".994" r="1" fill="#FFF" opacity=".88" transform="rotate(-76.72 65.163 -11.117)"/>
        <path fill="#F6BD96" d="M43.354 45.822c.347 3.34 1.433 11.456 1.433 11.456 2.6-.792 5.153-.727 7.74-1.305l-.627 2.446c-3.45.998-6.723 2.261-7.302 2.424-1.023.29-2.203.253-3.047-.398-.756-.586-1.104-1.548-1.386-2.464-1.066-3.464-2.005-6.916-2.372-10.439 2.145-.456 3.099-1.717 5.56-1.72z"/>
        <path fill="#E76464" d="M37.477 42.882c.16-2.039.314-5.291 1.907-6.28 2.403-1.491 4.732 1.097 4.882 3.47.172 2.69.647 5.256.915 7.826-2.732 0-5.216.04-7.596.548-.192-1.834-.256-3.684-.108-5.564z"/>
        <path fill="#BB3A45" d="M37.477 42.882c.142-1.79.278-4.516 1.387-5.823-1.175 3.609-.8 7.514-.517 11.243-.256.044-.51.09-.762.143-.192-1.833-.256-3.683-.108-5.563z"/>
        <path fill="#E5E6E7" d="M44.42 41.593c-.011-.089-.02-.18-.032-.269.012.089.023.178.033.27z"/>
        <path fill="#BB3A45" d="M44.401 41.593c.218 2.14.563 4.225.782 6.305-.267 0-.523.004-.782.005.08-2.673.13-4.697 0-6.31z"/>
        <path fill="#314B93" d="M67.193 87.136c.071.051.127.12.162.201.162.332.02.773.02 1.124v1.07s-2.556 1.464-6.93.865c-.095-.012-.356-1.791-.375-1.953-.113-.998 1.475-.624 2.08-.642.77-.022 1.539-.07 2.305-.156.693-.079 1.4-.18 2.066-.403.249-.085.484-.226.672-.106zM72.987 62.307c-.129.369-.332.746-.686.91-.322.149-.698.09-1.047.025-1.33-.247-2.65-.544-3.96-.89l.142-1.772c0-.13.032-.256.095-.368.165-.238.521-.2.803-.134 1.6.369 3.495.543 5.005 1.178-.06.338-.235.716-.352 1.051z"/>
        <path fill="#F6BD96" d="M52.054 34.08c-.255.344-.625.586-1.043.68-.831.207-1.635-.147-1.833-.792.958.067 1.918.076 2.876.112z"/>
    </g>
</svg>
