<svg xmlns="http://www.w3.org/2000/svg" width="40" height="40" viewBox="0 0 40 40">
    <g fill="none">
        <path fill="#E5EBF8" d="M39.93 20c.005 4.08-1.245 8.064-3.58 11.41-.2.287-.41.567-.63.84-1.992 2.567-4.585 4.603-7.55 5.93-5.192 2.34-11.138 2.34-16.33 0-2.537-1.139-4.809-2.794-6.67-4.86-.15-.16-.29-.33-.43-.5-5.665-6.743-6.232-16.405-1.396-23.765C8.181 1.695 17.274-1.617 25.712.907 34.149 3.43 39.93 11.193 39.93 20z"/>
        <path fill="#F38A6B" d="M29.79 15.3c-.23.39-.84.38-.67.64.047.293.175.566.37.79.14.124.198.316.151.497-.046.18-.19.32-.371.363-.51.21-.36.35-.36.35.75.34.3.79.3.79l-.36.2c.1.608-.02 1.233-.34 1.76-.179.175-.399.302-.64.37-.427.13-.883.13-1.31 0l-.25-.08-1.31-.46-1.42-.46c-.688-.234-1.255-.73-1.58-1.38l-.1-.2-.18-.35-.41-.82-.16.21c-.068.1-.157.186-.26.25-.07.06-.151.105-.24.13-.27.11-.57.11-.84 0l-.36-.13c-.68-.86-1.8-2.69.1-3.61 1-.5 2 .43 2.34.86l.24.11c.605-.63.792-1.554.48-2.37-.193-.716.059-1.479.64-1.94.29-.19.63-.52 1.11-1.7.188-.558.613-1.004 1.16-1.22.213.136.414.29.6.46 1.042 1.177 1.735 2.62 2 4.17.026.314.137.614.32.87.323.477.733.887 1.21 1.21.155.194.207.45.14.69z"/>
        <path fill="#201F1B" d="M18.4 6.4v.38s-.4 1.1-3.13 2.11h-.15c.21-.35.444-.683.7-1 .671-.769 1.579-1.293 2.58-1.49zM19.43 17.78c.23.28.4.45.4.45-.155.373-.44.678-.8.86l.39-1.32.01.01zM22.11 15.13L22.02 15.21 22.02 15.16 21.87 15z"/>
        <path fill="#F38A6B" d="M25.19 18.94L25.05 20.22 25.02 20.52 24.61 24.24 24.61 24.25 24.49 25.31 24.45 25.67 24.1 25.66 23.94 25.66 22.96 25.63 17.11 25.49 17.42 24.46 17.68 23.59 19.03 19.09 19.42 17.77 19.42 17.76 19.76 16.64 22.89 17.97z"/>
        <path fill="#F38A6B" d="M35.72 32.25c-1.992 2.567-4.585 4.603-7.55 5.93l-1-2.29-2.34-5.64-.83-2.14-1-2.48-.34-.81 1.09.28.54.14.24.07h.17l1.42.37 2 .52.34.06c1.24.33 5.62 1.59 7.26 5.99z"/>
        <path fill="#F38A6B" d="M28.23 35.86h-1l-2.1.14-12.63.38-.64 1.85c-2.537-1.139-4.809-2.794-6.67-4.86.596-2.672 2.404-4.913 4.89-6.06l2.71-1 2.69-1 .28-.11 1.68-.64 6 .06.25.58.23.56.09.21.28.66.45 1.08.12.29 3.37 7.86z"/>
        <path fill="#F38A6B" d="M24.61 24.24c-2.329.103-4.66-.115-6.93-.65-.508.801-1.302 1.38-2.22 1.62-1.34.45 9.67 10.79 9.67 10.79l-.52-11.76z"/>
        <path fill="#F38A6B" d="M24.61 24.24c.099.773.707 1.381 1.48 1.48 1.44.36-2.33.89-2.33.89l.85-2.37z"/>
        <path fill="#1058AE" d="M36.35 31.41c-.2.287-.41.567-.63.84-1.992 2.567-4.585 4.603-7.55 5.93-5.192 2.34-11.138 2.34-16.33 0-2.537-1.139-4.809-2.794-6.67-4.86-.15-.16-.29-.33-.43-.5 1.49-5.18 7.06-6.24 8-6.61 1.345.587 2.732 1.071 4.15 1.45 2.296.665 4.711.808 7.07.42.263-.046.523-.106.78-.18h.11c1.194-.28 2.303-.847 3.23-1.65l.34.06c2.252.422 4.375 1.364 6.2 2.75.734.654 1.323 1.455 1.73 2.35z"/>
        <path fill="#31BC80" d="M26.69 21.15l-4.13-2.36.57-1.43-.38-1.61 5.66-2.36 1.5 1.39c-.085 1.725-.374 3.433-.86 5.09-.131.49-.459.905-.905 1.147s-.972.29-1.455.133z"/>
        <path fill="#201F1B" d="M25.52 7.89c-.555.211-.987.658-1.18 1.22-.48 1.18-.82 1.51-1.11 1.7-.581.461-.833 1.224-.64 1.94.312.816.125 1.74-.48 2.37l-.24-.12c-.36-.43-1.31-1.36-2.34-.86-1.9.92-.78 2.75-.1 3.61L19 19.09c-.2.076-.42.076-.62 0-.32-.1-2.48-.71-3.14-1.56-1.835-2.556-1.895-5.981-.15-8.6-5.91 2-7.12-7.91-.76-7 2.312.185 4.071 2.152 4 4.47 3.03-.73 6.92.32 7.19 1.49z"/>
        <path fill="#31BC80" d="M23.12 15.59L22.74 15.76 22.02 15.21 21.98 15.16 21.84 15 21.86 15.01 21.87 15.02 22.11 15.13zM22.56 18.79L20.36 17.76 20.36 17.54 22.76 18.59z"/>
    </g>
</svg>
