<svg xmlns="http://www.w3.org/2000/svg" width="98" height="98" viewBox="0 0 98 98">
    <g fill="none">
        <path fill="#E5EBF8" d="M100 50.902c.144 22.856-15.6 42.746-37.878 47.854-3.47.811-7.021 1.228-10.585 1.244-5.204.021-10.377-.802-15.317-2.439-2.522-.795-4.97-1.807-7.318-3.024-2.736-1.374-5.333-3.007-7.756-4.878-1.85-1.433-3.587-3.007-5.195-4.708-1.956-2.033-3.728-4.237-5.292-6.585C-1.565 60.16-.14 36.038 14.144 19.4 28.427 2.762 52.057-2.301 71.902 7.024c3.678 1.717 7.12 3.898 10.244 6.488C93.375 22.69 99.921 36.401 100 50.902z" transform="translate(-2 -2)"/>
        <path fill="#1058AE" d="M50.951 13.244c-20.97.148-37.85 17.265-37.705 38.235.143 20.97 17.256 37.853 38.226 37.714 20.97-.139 37.857-17.248 37.723-38.217-.148-20.978-17.266-37.867-38.244-37.732zm.488 69.683c-17.508.12-31.8-13.972-31.925-31.48-.126-17.507 13.963-31.803 31.47-31.933 17.508-.13 31.808 13.954 31.943 31.462.065 8.413-3.217 16.508-9.123 22.5-5.906 5.993-13.951 9.393-22.365 9.45z" transform="translate(-2 -2)"/>
        <path fill="#1058AE" d="M61.634 49.049L58.268 50l-4.17-2.439 4.146-2.439 3.366.902.731-2.804-2.439-.659.635-2.585-2.757-.683c-.317 1.146-.61 2.22-.902 3.341l-4.17 2.44v-4.879l2.243-2.244-2.073-2.122-1.658 1.976-1.805-1.83-2.025 2.074 2.44 2.22v4.877l-4.147-2.439c-.317-1.146-.634-2.244-.951-3.341L42 40.122l.659 2.439-2.44.732c.293.927.44 1.878.805 2.756l3.317-.951 4.171 2.439-4.146 2.439-3.342-.903c-.292.92-.529 1.857-.707 2.805l2.44.659-.635 2.56 2.756.708c.317-1.17.634-2.293.902-3.366L49.927 50v4.878l-2.317 2.293 2.049 2.122 1.853-2.025 1.732 1.878 2.024-2.073-2.439-2.293v-4.878l4.147 2.44.975 3.365 2.732-.756-.659-2.56 2.44-.708-.83-2.634z" transform="translate(-2 -2)"/>
        <path fill="#1058AE" d="M71.22 39.805c3.697 6.351 4.114 14.093 1.121 20.805l2.44 1.097c3.363-7.533 2.937-16.218-1.148-23.386-4.085-7.168-11.34-11.96-19.535-12.906l-.318 2.878c7.346.756 13.858 5.054 17.44 11.512zM31.122 40c3.494-6.467 9.92-10.826 17.22-11.683l-.366-2.878c-8.187 1.068-15.384 5.95-19.403 13.161-4.02 7.211-4.386 15.9-.988 23.424H28L30.22 61c-3.128-6.731-2.791-14.562.902-21zM32.78 62.878c-2.366-.084-4.368 1.734-4.512 4.098-.087 1.745.887 3.37 2.467 4.117 1.58.747 3.454.468 4.747-.707 1.294-1.174 1.752-3.013 1.16-4.657-.592-1.644-2.116-2.77-3.862-2.851zm-.17 5.756c-.78-.023-1.414-.636-1.464-1.414.013-.78.635-1.414 1.415-1.44.78 0 1.424.611 1.463 1.39-.023.78-.636 1.414-1.414 1.464zM70.049 62.634c-2.384.014-4.306 1.957-4.293 4.342.014 2.384 1.957 4.306 4.342 4.292 2.384-.013 4.306-1.957 4.292-4.341-.04-2.373-1.968-4.28-4.341-4.293zm0 5.756c-.584 0-1.11-.353-1.332-.894-.221-.54-.093-1.161.323-1.571.417-.41 1.04-.527 1.577-.296.536.23.88.762.87 1.347-.074.74-.693 1.308-1.438 1.317v.097z" transform="translate(-2 -2)"/>
        <path fill="#1B335E" d="M54.805 65.683c-2.274-.159-4.556-.159-6.83 0-2.682.157-4.87 2.21-5.195 4.878-.434 2.836 1.297 5.556 4.05 6.366 1.39.256 2.808.338 4.219.244h3c1.936.076 3.777-.845 4.878-2.44 1.268-1.64 1.513-3.852.634-5.731-.795-1.945-2.656-3.243-4.756-3.317z" transform="translate(-2 -2)"/>
        <path fill="#D84E55" d="M62.268 69.024c-.752-1.939-2.58-3.25-4.658-3.341-2.095-.146-4.198-.146-6.293 0-1.998-.11-4.001-.11-6 0-2.665.187-4.829 2.228-5.17 4.878-.424 2.834 1.302 5.547 4.048 6.366 1.39.257 2.808.339 4.22.244H56.829c1.938.08 3.78-.841 4.878-2.44 1.246-1.645 1.462-3.85.561-5.707z" transform="translate(-2 -2)"/>
        <path fill="#E5EBF8" d="M57.39 67.049c-2.326-.097-4.296 1.699-4.414 4.024-.105 2.327 1.695 4.299 4.021 4.406 2.327.106 4.3-1.692 4.409-4.019.108-2.327-1.69-4.301-4.016-4.411z" transform="translate(-2 -2)"/>
    </g>
</svg>
