<svg xmlns="http://www.w3.org/2000/svg" width="551" height="259" viewBox="0 0 551 259">
    <g fill="none" fill-rule="evenodd">
        <g fill-rule="nonzero" opacity=".55">
            <path fill="#CFD6E6" d="M13.5 80.328l.585-79.61L2.175.627c-.828 0-1.5.684-1.5 1.528L0 80.328h13.5z" transform="translate(484 127)"/>
            <path fill="#E5EBF8" d="M17.235 80.328l.555-78.036c0-.844-.672-1.528-1.5-1.528L4.395.672 3.81 80.358l13.425-.03z" transform="translate(484 127)"/>
        </g>
        <g fill-rule="nonzero" opacity=".55">
            <path fill="#CFD6E6" d="M13.805 45.325L14.127.138 1.99.061C1.146.061.46.748.46 1.595l-.322 43.73h13.666z" transform="translate(504 163)"/>
            <path fill="#E5EBF8" d="M17.647 45.325l.32-43.608c0-.847-.684-1.533-1.53-1.533H4.288l-.322 45.249 13.682-.108z" transform="translate(504 163)"/>
        </g>
        <g fill-rule="nonzero" opacity=".55">
            <path fill="#E5EBF8" d="M29.822 89.329L30.488.35 16.462.259c-.987-.008-1.797.768-1.813 1.74l-.698 87.33h15.872z" transform="translate(371 119)"/>
            <path fill="#CFD6E6" d="M16.043 89.329l.65-87.315c0-.972-.795-1.762-1.782-1.77L.884.137.216 89.33h15.825z" transform="translate(371 119)"/>
        </g>
        <path fill="#E5EBF8" fill-rule="nonzero" d="M470.398 208l.602-79.683c0-1.148-.938-2.08-2.1-2.088L437.618 126 437 208h33.398z"/>
        <path fill="#CFD6E6" fill-rule="nonzero" d="M437.979 137.784l28.043.216c.534 0 .97-.434.978-.974v-3.82c0-.54-.429-.981-.963-.99L437.98 132c-.535 0-.97.434-.979.974v3.82c-.008.262.09.516.272.703.182.187.432.29.691.287M437.963 149.798l28.058.202c.259.004.507-.097.691-.28.184-.184.288-.435.288-.697v-3.83c0-.541-.429-.983-.963-.991L437.979 144c-.259-.004-.507.097-.691.28-.184.184-.288.435-.288.697v3.83c0 .541.429.983.963.991M437.948 160.799l28.073.201c.535 0 .97-.434.979-.974v-3.82c.004-.26-.096-.513-.277-.699-.18-.186-.428-.29-.686-.29L437.979 155c-.535 0-.97.434-.979.974v3.82c-.004.262.095.516.276.704.18.189.428.297.687.301M437.978 172.784l28.044.216c.534 0 .97-.434.978-.974v-3.835c0-.54-.429-.982-.963-.99L437.978 167c-.534 0-.97.434-.978.974v3.82c-.004.26.096.513.277.699.18.186.428.29.686.29"/>
        <path fill="#CFD6E6" fill-rule="nonzero" d="M412 200.817l25.305.183.695-95.832-23.566-.168c-.957 0-1.737.774-1.754 1.74l-.68 94.077z"/>
        <path fill="#E5EBF8" fill-rule="nonzero" d="M419 200.817l25.32.183.68-94.307c0-.843-.677-1.525-1.512-1.525L419.65 105l-.65 95.817z"/>
        <path fill="#CFD6E6" fill-rule="nonzero" d="M436.987 110h5.057c.256 0 .502.111.681.308.18.198.279.465.275.742v2.916c0 .28-.105.548-.29.743-.187.195-.438.3-.697.29h-5.042c-.539-.009-.971-.483-.971-1.066v-2.8c.008-.582.448-1.05.987-1.05M430 111.063v2.907c.004.277-.099.544-.285.739-.186.195-.439.3-.7.29h-6.03c-.547-.009-.985-.482-.985-1.063v-2.89c0-.578.44-1.046.984-1.046h6.032c.543 0 .984.468.984 1.046M436.987 119h5.042c.539.01.971.483.971 1.063v2.89c-.008.581-.448 1.047-.987 1.047h-5.042c-.539-.01-.971-.482-.971-1.063v-2.907c.004-.278.11-.542.295-.735.185-.193.434-.3.692-.295M430 120.063v2.89c-.009.581-.454 1.047-1 1.047h-6.016c-.543 0-.984-.469-.984-1.047v-2.906c.009-.581.454-1.047 1-1.047h6.031c.261.004.51.119.692.318.181.2.281.468.277.745M436.987 127h5.042c.536 0 .971.469.971 1.047v2.906c-.008.581-.448 1.047-.987 1.047h-5.057c-.259 0-.506-.113-.687-.313-.18-.2-.277-.471-.269-.75v-2.89c.009-.581.448-1.047.987-1.047M430 128.063v2.89c-.009.581-.454 1.047-1 1.047h-6.031c-.261-.004-.51-.119-.692-.318-.181-.2-.281-.468-.277-.745v-2.89c.009-.581.454-1.047 1-1.047h6.016c.546.01.984.482.984 1.063M436.971 136h5.058c.539.01.971.482.971 1.063v2.89c0 .578-.435 1.047-.971 1.047h-5.058c-.539-.01-.971-.482-.971-1.063v-2.89c0-.578.435-1.047.971-1.047M430 137.05v2.917c-.004.278-.112.543-.299.737-.187.194-.438.3-.7.296h-6.019c-.542 0-.982-.47-.982-1.05v-2.917c0-.277.104-.542.289-.736.184-.194.434-.301.693-.297h6.02c.543 0 .982.47.982 1.05M435.987 145h5.057c.258.004.503.119.682.318.18.2.278.468.274.745v2.89c-.009.581-.448 1.047-.987 1.047h-5.042c-.536 0-.971-.469-.971-1.047v-2.906c.004-.278.11-.543.295-.736.185-.193.434-.299.692-.294M430 146.063v2.89c0 .578-.44 1.047-.984 1.047h-6.032c-.546-.01-.984-.482-.984-1.063v-2.89c0-.578.44-1.047.984-1.047h6.032c.546.01.984.482.984 1.063M435.987 154.017h5.042c.536 0 .971.468.971 1.046v2.907c0 .279-.105.546-.29.74-.187.194-.438.298-.697.29h-5.042c-.539-.01-.971-.483-.971-1.064v-2.89c.008-.58.448-1.046.987-1.046M430 155.047v2.906c0 .578-.44 1.047-.984 1.047h-6.032c-.546-.01-.984-.482-.984-1.063v-2.89c.009-.581.454-1.047 1-1.047h6.031c.26 0 .509.11.69.308.183.196.283.462.279.739M435.987 163h5.042c.539.01.971.482.971 1.063v2.89c-.008.581-.448 1.047-.987 1.047h-5.057c-.258-.004-.503-.119-.682-.318-.18-.2-.278-.468-.274-.745v-2.89c.009-.581.448-1.047.987-1.047M430 164.05v2.9c-.009.583-.454 1.05-1 1.05h-6.031c-.26 0-.509-.111-.69-.308-.183-.198-.283-.465-.279-.742v-2.916c0-.28.106-.548.295-.743.188-.195.443-.3.705-.29h6.016c.546.009.984.483.984 1.066M435.987 171h5.042c.539.01.971.482.971 1.063v2.89c-.008.581-.448 1.047-.987 1.047h-5.042c-.536 0-.971-.469-.971-1.047v-2.906c.008-.581.448-1.047.987-1.047M430 172.063v2.89c0 .578-.441 1.047-.985 1.047h-6.03c-.547-.01-.985-.482-.985-1.063v-2.89c.009-.581.454-1.047 1-1.047h6.03c.263 0 .514.113.697.313.183.2.281.471.272.75M489.51 208l.49-66.864-16.31-.136c-.665 0-1.207.547-1.216 1.228L472 207.939h9.37l8.14.061z"/>
        <path fill="#E5EBF8" fill-rule="nonzero" d="M494.524 208l.476-65.832c0-.572-.45-1.038-1.012-1.047L477.476 141 477 207.97h4.467l13.057.03z"/>
        <path fill="#CFD6E6" fill-rule="nonzero" d="M489.705 144h3.605c.384.008.69.29.69.634v1.746c.004.168-.069.33-.203.447-.134.118-.316.18-.503.172h-3.604c-.384-.007-.69-.289-.69-.633v-1.732c.009-.345.322-.62.705-.62M484.983 144.583v1.791c-.009.348-.34.626-.748.626h-4.504c-.195.004-.384-.06-.522-.18-.138-.117-.213-.279-.209-.446v-1.748c.01-.348.341-.626.748-.626h4.504c.413 0 .748.286.748.64M489.705 150.014h3.605c.384.008.69.29.69.637v1.726c.004.169-.069.332-.203.45s-.316.18-.502.172h-3.605c-.186 0-.364-.067-.493-.187-.13-.12-.201-.282-.197-.45v-1.74c.009-.346.322-.622.705-.622M484.983 150.668v1.706c-.009.348-.34.626-.748.626h-4.504c-.195.004-.384-.06-.522-.18-.138-.117-.213-.279-.209-.446v-1.748c.01-.348.341-.626.748-.626h4.504c.413 0 .748.286.748.64M489.705 156.014h3.605c.384.008.69.29.69.637v1.726c.004.169-.069.332-.203.45s-.316.18-.502.172h-3.605c-.186 0-.364-.067-.493-.187-.13-.12-.201-.282-.197-.45v-1.74c.009-.346.322-.622.705-.622M485 156.64v1.734c-.01.348-.342.626-.75.626h-4.516c-.196.004-.386-.06-.524-.18-.139-.117-.214-.279-.21-.446v-1.748c0-.346.329-.626.734-.626h4.516c.414 0 .75.286.75.64M489.705 162h3.605c.384.008.69.29.69.637v1.726c0 .352-.316.637-.705.637h-3.605c-.186 0-.364-.067-.493-.187-.13-.12-.201-.282-.197-.45v-1.74c.009-.347.322-.623.705-.623M485 162.64v1.734c-.01.348-.342.626-.75.626h-4.516c-.196.004-.386-.06-.524-.18-.139-.117-.214-.279-.21-.446v-1.748c0-.346.329-.626.734-.626h4.516c.414 0 .75.286.75.64M489.705 169h3.605c.384.008.69.29.69.637v1.726c0 .352-.316.637-.705.637h-3.605c-.186 0-.364-.067-.493-.187-.13-.12-.201-.282-.197-.45v-1.726c.009-.346.322-.623.705-.623M485 169.629v1.742c-.01.35-.342.629-.75.629h-4.516c-.196.004-.386-.061-.524-.18-.139-.119-.214-.28-.21-.449v-1.742c0-.348.329-.629.734-.629h4.516c.414 0 .75.288.75.643M489.705 175h3.605c.384.008.69.29.69.637v1.726c0 .352-.316.637-.705.637h-3.605c-.186 0-.364-.067-.493-.187-.13-.12-.201-.282-.197-.45v-1.726c0-.352.316-.637.705-.637M485 175.629v1.742c-.01.35-.342.629-.75.629h-4.516c-.196.004-.386-.061-.524-.18-.139-.119-.214-.28-.21-.449v-1.742c0-.348.329-.629.734-.629h4.516c.414 0 .75.288.75.643"/>
        <path fill="#E5EBF8" fill-rule="nonzero" d="M415.498 208l.502-68.495c.008-.621-.232-1.22-.666-1.662-.434-.442-1.026-.69-1.643-.69L393.517 137 393 208h22.498z"/>
        <path fill="#CFD6E6" fill-rule="nonzero" d="M403.003 140l10.023.086c.544 0 .974.396.974.894v3.144c0 .48-.444.876-1.002.876l-10.024-.086c-.544 0-.988-.412-.974-.893v-3.161c0-.481.444-.877.988-.86M399 139.907v3.211c-.106.567-.603.948-1.136.872h-2.744c-.617 0-1.12-.4-1.12-.907v-3.193c0-.489.503-.89 1.12-.89h2.744c.633 0 1.12.401 1.12.89M403.003 146.086h10.023c.472-.062.9.331.974.893v3.145c0 .498-.444.876-1.002.876l-10.024-.086c-.544 0-.988-.412-.974-.893v-3.145c0-.498.444-.876.988-.876M399 146.93v3.177c-.106.566-.6.951-1.136.886h-2.744c-.617 0-1.12-.417-1.12-.903v-3.212c.106-.564.603-.944 1.136-.868h2.744c.617 0 1.12.399 1.12.902M406.026 152h-10.024c-.544 0-.988.378-1.002.876v3.145c0 .48.444.893.988.893l10.024.086c.544 0 .988-.378.988-.876v-3.145c0-.48-.444-.893-.988-.893M410 152.892v3.199c0 .507.503.909 1.12.909h2.744c.633 0 1.136-.385 1.136-.874v-3.217c0-.49-.487-.892-1.12-.909h-2.744c-.617 0-1.12.402-1.12.892M403.001 158.086h10.012c.558 0 .987.396.987.894v3.144c0 .48-.458.876-1.001.876l-10.012-.086c-.544 0-.987-.412-.987-.893v-3.161c0-.481.443-.877.987-.86M399 158.913v3.206c-.106.566-.603.947-1.136.871h-2.744c-.617 0-1.12-.4-1.12-.906v-3.188c.106-.568.6-.954 1.136-.889h2.744c.617 0 1.12.401 1.12.889M403.001 165l10.012.086c.558 0 .987.412.987.893v3.145c0 .498-.458.876-1.001.876l-10.012-.086c-.544 0-.987-.412-.987-.893v-3.145c0-.498.443-.876.987-.876M398.984 165.903v3.204c0 .49-.503.893-1.12.893h-2.744c-.617 0-1.12-.403-1.12-.893v-3.222c.106-.569.603-.951 1.136-.875h2.744c.617 0 1.12.402 1.12.91M403.001 172l10.012.084c.544 0 .987.405.987.877v3.187c-.094.547-.531.916-1.001.843h-10.012c-.544 0-.987-.388-.987-.877v-3.085c0-.473.443-.86.987-.86M398.984 171.895v3.21c0 .509-.503.895-1.12.895h-2.744c-.633 0-1.12-.421-1.12-.912v-3.193c0-.509.52-.895 1.136-.895h2.744c.617 0 1.12.421 1.12.912M327.911 208H535c-9.855-3.002-19.312-5.617-29.305-8.68-19.205-5.865-40.657-5.107-61.329-4.364-9.61.34-19.343.665-28.785-.774-6.386-.96-14.133-4.27-20.474-5.338-12.223-2.074-51.474-6.886-63.376-3.884-6.432 1.624-12.04 10.506-16.257 14.53-2.46 2.336 5.088 5.43 12.437 8.51z"/>
        <path fill="#E5EBF8" d="M363.27 208l-.228-101.38L366 105.4l-2.425-3.716h-3.461c.237-5.014-1.2-9.965-4.087-14.074h4.682l-2.669-4.463.824-13.038-2.242 3.412c-3.43-5.347-8.034-9.843-13.465-13.145-5.889 2.724-10.816 7.163-14.135 12.734l-2.684-3.23s-1.083 11.318 1.372 12.81l-3.05 4.174 4.194.761s-5.733 8.332-4.04 13.023l-3.218.472-2.73 3.915 2.943.761v5.179l-126.214-.93.534-6.884 7.396-.198-2.669-4.706-3.217.228s-.915-9.367-3.843-13.084l4.194-.7-2.425-4.691.839-13.541-2.013 4.417s-6.816-10.662-14.197-13.708c0 0-12.885 8.773-13.891 12.703l-1.952-2.483s-1.8 10.083.884 12.566l-3.05 3.914 3.706.777-4.01 8.332h-11.346l.382-17.73h2.714l1.022-4.417 2.21-.228-.457-4.691-10.842-.077-.427-9.61 4.468-4.144.442-10.235c.026-.454-.257-.868-.688-1.01-.432-.143-.906.021-1.157.4 0 0-9.988-15.84-22.263-23.562l.32-9.855-3.187-1.523v-.762c-.114-3.096-2.662-5.546-5.764-5.544h-3.461c-3.068.003-5.602 2.394-5.78 5.453l-2.714 1.523-.335 10.769s-20.25 13.388-21.546 22.74l-1.22-.868c-.279-.177-.626-.206-.93-.079-.305.128-.527.396-.595.719-.712 3.16-.629 6.446.244 9.565v1.965l4.163 4.706v8.119l-11.345.913V69.7l2.256.365-.29 4.433h3.462l.35 17.485-11.832.412-3.889-8.21 4.194-.229-2.18-3.7s2.271-8.12.35-14.288l-2.364 4.905s-2.165-8.378-12.961-14.379c0 0-10.14 3.138-13.724 12.46l-2.714-1.25s-3.05 8.363.412 11.576l-2.745 3.93 4.925.518c-3.35 3.755-5.068 8.687-4.773 13.708l-2.714.229-3.05 3.183 5.917.533-.55 7.875-29.734-.442L0 205.7l316.365 2.254 46.905.046z"/>
        <path fill="#CFD6E6" fill-rule="nonzero" d="M307.095 122.282L315.329 122.282 315.329 130.798 307.095 130.798z" transform="rotate(-179.58 311.212 126.54)"/>
        <path fill="#CFD6E6" fill-rule="nonzero" d="M292.471 122.1L300.705 122.099 300.705 130.616 292.471 130.616z" transform="rotate(-179.58 296.588 126.358)"/>
        <path fill="#CFD6E6" fill-rule="nonzero" d="M277.862 121.932L286.096 121.932 286.096 130.449 277.862 130.449z" transform="rotate(-179.58 281.979 126.19)"/>
        <path fill="#CFD6E6" fill-rule="nonzero" d="M261.958 121.881L270.192 121.881 270.192 130.398 261.958 130.398z" transform="rotate(-179.58 266.075 126.14)"/>
        <path fill="#CFD6E6" fill-rule="nonzero" d="M246.636 122.131L254.869 122.131 254.869 130.647 246.636 130.647z" transform="rotate(-179.58 250.753 126.389)"/>
        <path fill="#CFD6E6" fill-rule="nonzero" d="M234.131 121.887L242.364 121.887 242.364 130.403 234.131 130.403z" transform="rotate(-179.58 238.248 126.145)"/>
        <path fill="#CFD6E6" fill-rule="nonzero" d="M219.783 121.916L228.017 121.916 228.016 130.432 219.783 130.432z" transform="rotate(-179.58 223.9 126.174)"/>
        <path fill="#CFD6E6" fill-rule="nonzero" d="M204.456 121.525L212.689 121.525 212.689 130.042 204.456 130.042z" transform="rotate(-179.58 208.573 125.784)"/>
        <path fill="#CFD6E6" fill-rule="nonzero" d="M306.671 153.884L314.905 153.884 314.905 162.4 306.671 162.4z" transform="rotate(-179.58 310.788 158.142)"/>
        <path fill="#CFD6E6" fill-rule="nonzero" d="M292.047 153.717L300.281 153.717 300.281 162.233 292.047 162.233z" transform="rotate(-179.58 296.164 157.975)"/>
        <path fill="#CFD6E6" fill-rule="nonzero" d="M277.438 153.55L285.672 153.55 285.672 162.066 277.438 162.066z" transform="rotate(-179.58 281.555 157.808)"/>
        <path fill="#CFD6E6" fill-rule="nonzero" d="M261.534 153.498L269.768 153.498 269.768 162.015 261.534 162.015z" transform="rotate(-179.58 265.651 157.757)"/>
        <path fill="#CFD6E6" fill-rule="nonzero" d="M246.212 153.748L254.446 153.748 254.446 162.264 246.212 162.264z" transform="rotate(-179.58 250.329 158.006)"/>
        <path fill="#CFD6E6" fill-rule="nonzero" d="M233.707 153.504L241.941 153.504 241.941 162.021 233.707 162.021z" transform="rotate(-179.58 237.824 157.762)"/>
        <path fill="#CFD6E6" fill-rule="nonzero" d="M219.359 153.548L227.593 153.548 227.593 162.065 219.359 162.065z" transform="rotate(-179.58 223.476 157.807)"/>
        <path fill="#CFD6E6" fill-rule="nonzero" d="M204.032 153.143L212.266 153.143 212.266 161.659 204.032 161.659z" transform="rotate(-179.58 208.149 157.4)"/>
        <path fill="#CFD6E6" fill-rule="nonzero" d="M306.566 166.606L314.8 166.606 314.8 175.123 306.566 175.123z" transform="rotate(-179.58 310.683 170.865)"/>
        <path fill="#CFD6E6" fill-rule="nonzero" d="M291.958 166.439L300.191 166.439 300.191 174.956 291.958 174.956z" transform="rotate(-179.58 296.074 170.697)"/>
        <path fill="#CFD6E6" fill-rule="nonzero" d="M277.333 166.272L285.567 166.272 285.567 174.789 277.333 174.789z" transform="rotate(-179.58 281.45 170.53)"/>
        <path fill="#CFD6E6" fill-rule="nonzero" d="M261.43 166.221L269.663 166.221 269.663 174.737 261.429 174.737z" transform="rotate(-179.58 265.546 170.48)"/>
        <path fill="#CFD6E6" fill-rule="nonzero" d="M246.107 166.47L254.341 166.47 254.341 174.987 246.107 174.987z" transform="rotate(-179.58 250.224 170.729)"/>
        <path fill="#CFD6E6" fill-rule="nonzero" d="M233.602 166.227L241.836 166.227 241.836 174.743 233.602 174.743z" transform="rotate(-179.58 237.719 170.485)"/>
        <path fill="#CFD6E6" fill-rule="nonzero" d="M219.269 166.271L227.503 166.271 227.503 174.787 219.269 174.787z" transform="rotate(-179.58 223.386 170.529)"/>
        <path fill="#CFD6E6" fill-rule="nonzero" d="M203.942 165.865L212.176 165.865 212.176 174.382 203.942 174.382z" transform="rotate(-179.58 208.06 170.123)"/>
        <path fill="#CFD6E6" d="M314.667 145.093c-.272-1.372-1.051-2.593-2.185-3.427-1.176-.817-2.722-.888-3.97-.183-.426.293-.796.66-1.092 1.082-1.25 1.691-1.703 3.833-1.246 5.878.05.346.212.666.461.914.242.152.516.245.8.274 1.96.335 3.954.442 5.94.32 2.2-.107 1.646-3.335 1.292-4.858zM300.636 145.104c-.266-1.38-1.049-2.61-2.191-3.44-1.165-.82-2.706-.886-3.938-.167-.432.282-.807.644-1.103 1.065-1.241 1.698-1.688 3.844-1.226 5.891.046.343.208.66.46.898.237.161.51.26.796.29 1.95.319 3.927.426 5.9.32 2.252-.062 1.7-3.35 1.302-4.857z"/>
        <path fill="#CFD6E6" fill-rule="nonzero" d="M17.905 120.439L26.138 120.439 26.138 128.955 17.905 128.955z" transform="rotate(-179.58 22.021 124.697)"/>
        <path fill="#CFD6E6" fill-rule="nonzero" d="M3.296 120.256L11.53 120.256 11.53 128.773 3.296 128.773z" transform="rotate(-179.58 7.413 124.515)"/>
        <path fill="#CFD6E6" fill-rule="nonzero" d="M17.481 152.056L25.715 152.056 25.715 160.572 17.481 160.573z" transform="rotate(-179.58 21.598 156.314)"/>
        <path fill="#CFD6E6" fill-rule="nonzero" d="M2.872 151.874L11.106 151.874 11.106 160.39 2.872 160.39z" transform="rotate(-179.58 6.989 156.132)"/>
        <path fill="#CFD6E6" fill-rule="nonzero" d="M17.391 164.778L25.625 164.778 25.625 173.295 17.391 173.295z" transform="rotate(-179.58 21.508 169.037)"/>
        <path fill="#CFD6E6" fill-rule="nonzero" d="M2.767 164.596L11.001 164.596 11.001 173.113 2.767 173.113z" transform="rotate(-179.58 6.884 168.854)"/>
        <path fill="#CFD6E6" d="M25.667 143.096c-.268-1.372-1.048-2.595-2.184-3.425-1.173-.823-2.724-.895-3.97-.182-.426.287-.796.648-1.092 1.065-1.251 1.695-1.705 3.841-1.246 5.89.046.343.21.66.462.898.237.163.512.262.8.29 1.96.334 3.953.441 5.938.32 2.2-.138 1.646-3.35 1.292-4.856zM11.652 143.093c-.254-1.363-1.016-2.585-2.137-3.426-1.178-.818-2.731-.89-3.981-.183-.434.293-.812.659-1.115 1.081-1.254 1.693-1.706 3.835-1.24 5.879.044.348.208.67.465.913.243.152.52.246.806.275 1.968.334 3.97.441 5.963.32 2.2-.123 1.58-3.336 1.239-4.859zM285.661 144.105c-.267-1.38-1.051-2.609-2.196-3.439-1.168-.817-2.708-.888-3.948-.182-.43.292-.805.658-1.106 1.08-1.25 1.688-1.699 3.832-1.228 5.874.043.348.205.67.46.913.236.163.512.258.8.274 1.951.332 3.935.444 5.913.334 2.257-.137 1.643-3.347 1.305-4.854zM269.624 144.096c-.266-1.376-1.049-2.6-2.189-3.424-1.161-.825-2.7-.896-3.934-.182-.424.287-.792.648-1.087 1.065-1.245 1.695-1.697 3.84-1.24 5.89.046.342.208.659.46.897.236.163.51.262.795.29 1.95.334 3.934.441 5.91.32 2.25-.138 1.698-3.349 1.285-4.856zM255.674 144.104c-.268-1.38-1.054-2.61-2.201-3.44-1.17-.82-2.718-.886-3.955-.167-.43.286-.806.647-1.108 1.065-1.247 1.698-1.695 3.844-1.231 5.89.046.343.209.66.461.899.241.156.515.255.8.29 1.963.319 3.955.426 5.94.319 2.202-.137 1.632-3.349 1.294-4.856zM242.701 144.104c-.28-1.376-1.065-2.602-2.204-3.44-1.179-.82-2.733-.885-3.978-.168-.427.287-.798.648-1.095 1.065-1.254 1.696-1.709 3.842-1.249 5.892.051.344.22.661.478.898.235.158.505.258.787.29 1.966.319 3.961.426 5.95.319 2.175-.137 1.62-3.35 1.311-4.856zM227.667 144.093c-.268-1.373-1.048-2.596-2.185-3.427-1.176-.817-2.723-.888-3.97-.183-.426.288-.796.649-1.093 1.066-1.248 1.698-1.701 3.844-1.246 5.894.055.345.216.664.462.914.241.152.515.245.8.274 1.96.335 3.954.442 5.94.32 2.2-.137 1.646-3.335 1.292-4.858zM212.68 144.093c-.268-1.377-1.054-2.602-2.2-3.426-1.17-.818-2.712-.89-3.954-.183-.434.283-.81.645-1.107 1.066-1.248 1.698-1.701 3.843-1.246 5.893.057.343.224.658.477.899.233.169.51.27.8.29 1.954.334 3.942.441 5.922.32 2.2-.138 1.646-3.351 1.308-4.859z"/>
        <circle cx="179" cy="161" r="3" fill="#CFD6E6" fill-rule="nonzero"/>
        <path fill="#CFD6E6" d="M155.234 157.421L155.539 115 161.299 115.046 160.994 157.451 162 157.467 161.909 169 154 168.954 154.076 157.406zM141.234 157.418L141.554 115 147.299 115.031 146.994 157.448 148 157.463 147.909 169 140 168.939 140.091 157.402zM127.234 156.421L127.554 114 133.314 114.046 132.994 156.451 134 156.467 133.924 168 126 167.939 126.091 156.406zM111.237 156.406L111.542 114 117.313 114.046 116.992 156.451 118 156.467 117.924 168 110 167.939 110.076 156.406zM97.234 156.406L97.539 114 103.299 114.046 102.994 156.451 104 156.467 103.909 168 96 167.939 96.076 156.406zM82.234 156.421L82.554 114 88.299 114.046 87.994 156.451 89 156.467 88.924 168 81 167.939 81.091 156.406zM68.234 156.406L68.554 114 74.314 114.046 73.994 156.451 75 156.467 74.924 168 67 167.939 67.091 156.406z"/>
        <path fill="#CFD6E6" fill-rule="nonzero" d="M67.294 92.914L162.408 92.913 162.408 98.413 67.294 98.414z" transform="rotate(-179.58 114.851 95.663)"/>
        <path fill="#CFD6E6" d="M72 70.375L156.985 71 157 66.625 72.03 66z"/>
        <path fill="#CFD6E6" fill-rule="nonzero" d="M111.479 44.638L120.536 44.638 120.536 50.336 111.479 50.336z" transform="rotate(-179.58 116.007 47.487)"/>
        <path fill="#CFD6E6" fill-rule="nonzero" d="M104.783 5.774L126.678 5.774 126.678 17.841 104.783 17.841z" transform="rotate(-179.58 115.73 11.807)"/>
        <path fill="#CFD6E6" fill-rule="nonzero" d="M335.581 162.704L348.755 162.704 348.755 182.602 335.581 182.602z" transform="rotate(-179.58 342.168 172.653)"/>
        <path fill="#CFD6E6" d="M357.997 79.577c.008.44-.022.88-.09 1.313-.135.518-.33 1.015-.582 1.478-.24.65-.67 1.194-1.225 1.543-.134.075-.285.104-.433.082-.359-.082-.553-.526-.613-.936-.129-1.105-.027-2.228.299-3.283.473-1.934 1.047-3.835 1.718-5.697.09-.279.821.28.896.394.074.115 0 1.067 0 1.445.045 1.248.03 2.495.03 3.66zM326.003 78.552c-.013.438.013.876.076 1.31.126.514.314 1.01.56 1.472.223.68.655 1.258 1.225 1.636.144.04.295.04.439 0 .363 0 .56-.524.635-.916.138-1.1.045-2.218-.272-3.273-.454-1.934-1.004-3.84-1.65-5.71-.09-.262-.831.278-.907.393-.075.114-.075 1.063-.075 1.44-.016 1.243-.03 2.454-.03 3.648zM345.35 62.216l3.315 2.5c.166.136.364.301.331.512-.037.15-.146.278-.298.347-.77.358-1.644.495-2.502.391l-7.639-.21c-.58 0-1.309-.106-1.524-.618-.097-.364.023-.746.315-1.01.861-.918 2.402-1.009 3.562-1.611.63-.316 1.508-1.386 2.237-1.506.73-.12 1.674.813 2.204 1.205zM195.993 76.607c.014.437-.016.875-.09 1.305-.13.521-.32 1.021-.568 1.487-.239.665-.676 1.22-1.24 1.57-.142.041-.292.041-.434 0-.358 0-.553-.529-.612-.925-.122-1.114-.015-2.244.313-3.305.457-1.922 1.01-3.814 1.66-5.667.089-.265.821.28.896.396.075.116 0 1.074 0 1.47.09 1.207.09 2.43.075 3.669zM164.003 75.542c-.012.433.013.866.076 1.294.125.52.313 1.022.558 1.49.224.686.662 1.265 1.239 1.637.137.05.285.05.423 0 .377 0 .559-.507.634-.9.144-1.099.056-2.219-.257-3.275-.455-1.937-1.01-3.845-1.661-5.716-.09-.262-.83.262-.906.377-.076.115 0 1.065 0 1.458-.09 1.211-.09 2.472-.106 3.635zM182.337 59.203l3.312 2.51c.182.135.38.317.347.513-.044.148-.152.273-.298.348-.77.358-1.642.495-2.5.393l-7.633-.196c-.596 0-1.325-.121-1.524-.62-.11-.367.004-.76.298-1.028.878-.922 2.401-.998 3.577-1.603.63-.332 1.507-1.406 2.219-1.511.712-.106 1.672.8 2.202 1.194zM65.991 75.565c.015.438-.015.877-.09 1.308-.138.507-.328.995-.566 1.455-.235.681-.671 1.257-1.238 1.635-.141.05-.292.05-.433 0-.358 0-.552-.523-.611-.915-.127-1.101-.025-2.219.298-3.27.476-1.936 1.049-3.84 1.715-5.707.09-.262.82.278.895.392.075.115 0 1.08 0 1.455.045 1.243.045 2.437.03 3.647zM34.046 74.485c-.039.436-.039.876 0 1.312.127.517.318 1.014.566 1.477.226.683.663 1.262 1.239 1.64.139.068.292.097.444.083.367 0 .566-.525.642-.92.14-1.101.046-2.223-.275-3.28-.456-1.94-1.013-3.852-1.668-5.726-.091-.262-.841.279-.918.394C34 69.58 34 70.53 34 70.908c.061 1.165.046 2.363.046 3.577zM52.337 58.201l3.312 2.518c.182.12.38.301.347.512-.05.141-.156.26-.298.332-.769.363-1.64.504-2.5.407l-7.633-.21c-.596 0-1.325-.122-1.523-.619-.111-.361.003-.748.298-1.01.877-.935 2.4-1.01 3.56-1.613.645-.332 1.506-1.387 2.235-1.508.728-.12 1.689.86 2.202 1.191z"/>
        <path fill="#CFD6E6" fill-rule="nonzero" d="M336.005 137.306L348.203 137.306 348.203 144.863 336.005 144.863z" transform="rotate(-179.58 342.104 141.085)"/>
        <path fill="#CFD6E6" fill-rule="nonzero" d="M50.859 162.39l-2.85-.021c-.569-.004-1.027-.469-1.022-1.038l.02-2.845c.005-.57.47-1.027 1.038-1.023l2.85.021c.568.004 1.026.469 1.022 1.038l-.02 2.845c-.005.57-.47 1.027-1.038 1.023z"/>
        <path fill="#CFD6E6" fill-rule="nonzero" d="M172.395 137.1L185.584 137.1 185.584 145.007 172.395 145.007z" transform="rotate(-179.58 178.99 141.053)"/>
        <path fill="#CFD6E6" fill-rule="nonzero" d="M43.511 136.154L56.7 136.154 56.7 143.681 43.511 143.681z" transform="rotate(-179.58 50.105 139.918)"/>
        <path fill="#CFD6E6" d="M368 107L364.341 102 321.921 102.256 319 106.044zM199 85L196.315 80 165.151 80.342 163 84.144zM203 104L200.374 99 165 99.392 167.551 103.147zM32 84L34.746 79 65.91 79.862 68 83.741zM27 102L29.697 97 65 98 62.408 101.741z"/>
        <path fill="#CFD6E6" fill-rule="nonzero" d="M55.316 173.267L174.231 173.267 174.231 177.654 55.316 177.655z" transform="rotate(-179.58 114.773 175.461)"/>
        <path fill="#CFD6E6" fill-rule="nonzero" d="M34.729 182.137L195.659 182.136 195.659 185.381 34.729 185.382z" transform="rotate(-179.427 115.194 183.759)"/>
        <path fill="#CFD6E6" fill-rule="nonzero" d="M73.074 65.044L157.682 65.043 157.682 68.349 73.074 68.35z" transform="rotate(-179.58 115.378 66.697)"/>
        <path fill="#CFD6E6" d="M83.81 56.811L146.07 57l4.579-4.446c.334-.331.44-.838.27-1.282-.17-.444-.585-.738-1.049-.745l-69.587-.518c-.508-.064-.996.226-1.194.712-.199.486-.06 1.048.34 1.377l4.38 4.713z"/>
        <path fill="#CFD6E6" fill-rule="nonzero" d="M68.135 92.303L161.969 92.302 161.969 95.563 68.135 95.563z" transform="rotate(-179.58 115.052 93.933)"/>
        <path fill="#CFD6E6" fill-rule="nonzero" d="M199.16 109.829L320.942 109.828 320.942 115.236 199.16 115.237z" transform="rotate(-179.58 260.051 112.532)"/>
        <path fill="#CFD6E6" fill-rule="nonzero" d="M2.94 108.041L31.743 108.041 31.743 114.653 2.94 114.653z" transform="rotate(-179.58 17.342 111.347)"/>
        <path fill="#E5EBF8" d="M195.703 80.596s2.366-4.492.707-13.34l-2.229 4.491S190.186 60.07 180.135 57c0 0-9.297 2.83-14.261 13.939l-2.09-3.414s-2.105 7.396.584 13.475l31.335-.404z"/>
        <path fill="#CFD6E6" d="M188 61c-2.018-2.286-4.506-4-7.252-5-2.484 1.078-4.77 2.645-6.748 4.624L188 61z"/>
        <path fill="#E5EBF8" d="M65.703 79.61s2.366-4.49.707-13.354l-2.213 4.491S60.186 59.07 50.135 56c0 0-9.22 2.83-14.246 13.939l-2.105-3.414s-2.105 7.486.584 13.475l31.335-.39z"/>
        <path fill="#CFD6E6" d="M57 60c-2.03-2.28-4.523-3.994-7.275-5-2.47 1.08-4.748 2.635-6.725 4.592L57 60z"/>
        <path fill="#E5EBF8" d="M358.709 82.596s2.352-4.492.707-13.34l-2.229 4.491S353.191 62.07 343.123 59c0 0-9.222 2.83-14.248 13.939l-2.09-3.414s-2.107 7.486.583 13.475l31.341-.404z"/>
        <path fill="#CFD6E6" d="M350 63c-2.026-2.283-4.518-3.997-7.266-5-2.476 1.087-4.756 2.653-6.734 4.624L350 63z"/>
        <path fill="#E5EBF8" fill-rule="nonzero" d="M537 192.992c-.029 3.841 3.081 6.979 6.947 7.008 3.866.029 7.024-3.062 7.053-6.903 0-3.844-3.01-17.067-6.864-17.097-3.854-.03-7.106 13.148-7.136 16.992"/>
        <path fill="#E5EBF8" fill-rule="nonzero" d="M544.45 208L544.61 193 543.53 193.451 543.39 208z"/>
        <path fill="#CFD6E6" fill-rule="nonzero" d="M75 252.485C75 256.087 235.646 259 284.068 259c48.421 0 83.932-2.928 83.932-6.515 0-3.586-35.389-6.485-83.84-6.485C235.706 246 75 248.928 75 252.485zM383 247c0 1.1 36.247 2 47.106 2 10.86 0 18.894-.9 18.894-2s-7.974-2-18.894-2c-10.92 0-47.106.9-47.106 2z"/>
        <path fill="#D12B5B" fill-rule="nonzero" d="M321.302 198.08h-24.604c-.386 0-.698.412-.698.92s.312.92.698.92h.197c.385 0 .698-.412.698-.92s-.313-.92-.698-.92h-.197v1.84h24.604c.386 0 .698-.412.698-.92s-.312-.92-.698-.92zM321.287 203.08h-20.574c-.394 0-.713.412-.713.92s.32.92.713.92h20.574c.394 0 .713-.412.713-.92s-.32-.92-.713-.92zM316.249 210.08h-10.498c-.415 0-.751.412-.751.92s.336.92.751.92h10.498c.415 0 .751-.412.751-.92s-.336-.92-.751-.92z"/>
        <rect width="19" height="16" x="306" y="173" fill="#FFF" fill-rule="nonzero" rx="1.28" transform="rotate(180 315.5 181)"/>
        <ellipse cx="339.5" cy="232.5" fill="#212121" fill-rule="nonzero" rx="10.5" ry="20.5"/>
        <path fill="#212121" fill-rule="nonzero" d="M340 253L329 253 335.933 236z"/>
        <ellipse cx="329.5" cy="232.5" fill="#434343" fill-rule="nonzero" rx="10.5" ry="20.5"/>
        <ellipse cx="330" cy="233" fill="#267DBA" fill-rule="nonzero" rx="6" ry="12"/>
        <path fill="#1E3555" fill-rule="nonzero" d="M329.971 212c1.931.073 3.749.902 5.037 2.299 1.294-1.398 3.116-2.227 5.052-2.299 6.043 0 10.94 9.18 10.94 20.492 0 11.313-4.897 20.508-10.94 20.508h-10.94c-5.673-.796-10.12-9.645-10.12-20.447.031-11.373 4.928-20.553 10.971-20.553z"/>
        <ellipse cx="189.5" cy="232.5" fill="#212121" fill-rule="nonzero" rx="10.5" ry="20.5"/>
        <path fill="#212121" fill-rule="nonzero" d="M189 253L178 253 184.949 236z"/>
        <ellipse cx="179.5" cy="232.5" fill="#434343" fill-rule="nonzero" rx="10.5" ry="20.5"/>
        <ellipse cx="180" cy="233" fill="#929292" fill-rule="nonzero" rx="6" ry="12"/>
        <path fill="#1E3555" fill-rule="nonzero" d="M179.971 212c1.936.072 3.758.901 5.052 2.299 1.288-1.397 3.106-2.226 5.037-2.299 6.043 0 10.94 9.18 10.94 20.492 0 11.313-4.897 20.508-10.94 20.508h-10.94c-5.657-.796-10.12-9.645-10.12-20.447.031-11.373 4.928-20.553 10.971-20.553zM228.747 218.104l-2.74-7.093h10.278c.237-.015.474-.015.711 0 6.055 0 11.004 9.433 11.004 20.995 0 11.562-4.92 20.994-11.004 20.994h-10.988l2.74-7.033c-3.664-8.933-3.664-18.93 0-27.863z"/>
        <ellipse cx="227" cy="232.5" fill="#FFF" fill-rule="nonzero" rx="11" ry="21.5"/>
        <ellipse cx="227" cy="232.5" fill="#1E3555" fill-rule="nonzero" rx="6" ry="12.5"/>
        <path fill="#1E3555" fill-rule="nonzero" d="M108.756 218.095L106 211h11.008c6.056 0 10.992 9.435 10.992 21s-4.92 21-10.992 21H106l2.77-7.125c-3.683-8.932-3.683-18.938 0-27.87l-.014.09z"/>
        <ellipse cx="107" cy="232.5" fill="#FFF" fill-rule="nonzero" rx="11" ry="21.5"/>
        <ellipse cx="107" cy="232.5" fill="#1E3555" fill-rule="nonzero" rx="6" ry="12.5"/>
        <path fill="#D55159" fill-rule="nonzero" d="M83 193.55v35.437c-.002 2.126.849 4.167 2.367 5.67 1.518 1.504 3.578 2.347 5.725 2.343h2.19v-.288c0-14.828 6.282-26.848 14.035-26.848 4.857 0 9.193 4.75 11.66 11.975 1.598 4.797 2.39 9.821 2.344 14.873V237h92.788v-.288c0-10.624 3.217-19.82 7.906-24.161 1.614-1.648 3.811-2.611 6.128-2.687 1.732.026 3.41.595 4.796 1.624 3.279 2.262 5.975 6.8 7.584 12.582 1.122 4.121 1.678 8.373 1.655 12.642V237H263v-91.818c-1.532-.121-3.156-.182-4.75-.182h-99.238c-22.693-.003-43.982 10.885-57.119 29.215-.927 1.26-1.951 2.448-3.064 3.551-1.096 1.099-2.274 2.113-3.524 3.035l-10.894 8.09c-.951 1.368-1.444 2.998-1.411 4.659z"/>
        <path fill="#D55159" fill-rule="nonzero" d="M120 177.713v44.124c1.587 4.797 2.373 9.823 2.327 14.875V237H171v-85h-13.69c-14.118 3.477-26.76 11.35-36.093 22.48-.78.898-1.21 2.044-1.217 3.233z"/>
        <path fill="#FAB231" fill-rule="nonzero" d="M233 212c3.27 2.157 5.958 6.485 7.563 12h34.559c6.008 0 10.878-4.614 10.878-10.306-.008-.938-.813-1.694-1.803-1.694H233z"/>
        <path fill="#D55159" fill-rule="nonzero" d="M208 145v.364c3.927.775 7.62 2.448 10.788 4.887 4.274 3.287 7.888 7.35 10.65 11.974l10.987 17.696 1.643 2.64 5.052 8.135c1.033 1.806 1.559 3.856 1.521 5.934v32.205c0 4.553-2.13 8.165-4.778 8.165h114.118c4.429 0 8.019-3.58 8.019-7.998v-9.789-.971c-.059-2.274-.344-4.536-.852-6.754-3.017-12.724-12.813-22.758-25.486-26.103l-10.651-2.823-.579-.334c-12.857-8.332-21.652-17.058-34.205-25.8-3.47-2.419-7.176-4.483-11.061-6.162-3.12-1.361-6.346-2.463-9.647-3.293-3.583-.911-7.238-1.51-10.925-1.79-1.522-.107-3.134-.168-4.717-.168L208 145z"/>
        <path fill="#C13257" fill-rule="nonzero" d="M223.721 150.047c-.686-.09-1.346.3-1.608.952-.261.651-.059 1.4.494 1.823 2.863 2.821 5.36 6 7.434 9.46l8.549 13.957 1.664 2.745c1.527 2.499 4.218 4.018 7.114 4.016H330l-.58-.341c-12.9-8.514-21.723-17.43-34.317-26.363-3.482-2.471-7.2-4.58-11.098-6.296l-60.284.047z"/>
        <path fill="#FFF" fill-rule="nonzero" d="M325.694 181h-76.15c-2.318-.006-4.469-1.196-5.691-3.15l-1.672-2.693-8.589-13.693c-2.124-3.456-4.675-6.635-7.592-9.464h56.35c2.506.003 4.975.609 7.193 1.765 2.37 1.218 4.655 2.59 6.841 4.108 5.66 3.926 10.629 7.897 15.43 11.746 4.432 3.545 8.972 7.182 14.049 10.757.112.086.162.231.125.368-.037.136-.153.237-.294.256z"/>
        <path fill="#D55159" fill-rule="nonzero" d="M173 151v87h41.162v-.29c0-10.653 3.19-19.877 7.838-24.23v-33.774c0-.168 0-.335-.076-.503.007-.086.007-.172 0-.258-.098-.335-.235-.657-.41-.96l-8.795-14.641C208.072 155.612 200.447 151 192.305 151H173z"/>
        <path fill="#C13257" fill-rule="nonzero" d="M119.002 178.055c-.077 2.649 1.964 4.86 4.562 4.945h102.135c.897-.016 1.75-.397 2.37-1.058.62-.66.954-1.547.93-2.46.001-.712-.205-1.408-.593-2l-9.701-14.911c-4.973-7.78-13.441-12.501-22.55-12.571H174.76c-5.247 0-10.478.582-15.601 1.736-14.947 3.413-28.504 11.427-38.835 22.956-.845.908-1.318 2.111-1.323 3.363z"/>
        <path fill="#FFF" fill-rule="nonzero" d="M229 179.242c.017.948-.738 1.733-1.69 1.758H124.075c-.835 0-1.633-.336-2.213-.933-.58-.597-.89-1.402-.861-2.231.003-.794.305-1.557.845-2.14 4.895-5.287 10.526-9.848 16.722-13.545 2.543-1.517 5.176-2.88 7.884-4.082 1.122-.49 2.26-.963 3.396-1.406h.246c7.856-2.987 16.181-4.566 24.59-4.663h22.762c8.69.037 16.776 4.42 21.517 11.664l9.805 14.707c.15.266.23.566.231.871z"/>
        <path fill="#FFF1E3" fill-rule="nonzero" d="M351 213.555c0 2.508.914 4.913 2.542 6.684 1.627 1.772 3.834 2.765 6.133 2.761H367v-4.24-.85c-.046-1.991-.277-3.97-.69-5.91h-13.854c-.783.025-1.417.702-1.456 1.555zM249 212v12h9.105c6.017 0 10.895-4.614 10.895-10.306 0-.454-.193-.89-.535-1.208-.343-.319-.806-.494-1.286-.486H249z"/>
        <path fill="#C13257" fill-rule="nonzero" d="M167 152L167 181 172 181 172 152z"/>
        <path fill="#1E3555" fill-rule="nonzero" d="M175 193H188V197H175z" transform="rotate(180 181.5 195)"/>
        <path fill="#1E3555" fill-rule="nonzero" d="M121 193H134V197H121z" transform="rotate(180 127.5 195)"/>
        <path fill="#FAB231" fill-rule="nonzero" d="M83 204H91V219H83z"/>
        <path fill="#EBA334" fill-rule="nonzero" d="M206.587 177.48s-19.293-8.624-23.336-4.235c-4.043 4.39 1.908 7.398 15.053 7.755 4.475-.128 8.921-.784 13.25-1.954 2.287-.915-4.967-1.567-4.967-1.567z"/>
        <path fill="#F38A6B" fill-rule="nonzero" d="M198 168.314l-.789 1.527-.263.504-1.913 3.802.818.52c-2.542 3.176-10.225.137-10.853-3.467 1.022-.1 2.015-.41 2.921-.916.897-.901 1.67-1.93 2.294-3.054.263-.413.51-.825.686-1.161.38-.641.614-1.069.614-1.069l.745.382.467.26.204.091.117.076.22.107 1.708.886.176.092 1.154.61 1.694.81z"/>
        <path fill="#1E3555" fill-rule="nonzero" d="M198.993 156.028c.133 4.04-1.608 11.833-5.562 11.969-3.954.136-6.964-3.95-7.377-7.082-.531-4.01 2.95-7.278 6.905-7.565 3.954-.288 5.901-1.377 6.034 2.678z"/>
        <path fill="#F38A6B" fill-rule="nonzero" d="M198.743 157c.539.914 1.01 1.866 1.412 2.847-.234.65-.234 1.359 0 2.009 0 .27.334.509.486.779l1.336 2.023s.167.72-.395.69c-.562-.03-.729.299-.729.299-.053.303 0 .615.152.884.47.525-.273.87-.547.914-.273.045.32 0 .426.57.106.57-.35.6-.35.6-.531.389.638 1.783-.896 2.277-1.093.345-5.314-.105-6.422-1.813l-1.276-3.132s-1.518 0-1.837-1.26c-.32-1.258.09-2.727 1.412-2.667 1.685 0 1.518 1.994 1.518 1.994s1.109 1.498.987-.51c.04-1.174.485-2.3 1.26-3.192-.27-.599-.323-1.27-.151-1.903.228-1.124 3.614-1.409 3.614-1.409z"/>
        <path fill="#F38A6B" fill-rule="nonzero" d="M189 167.171c1.165-.534 2.13-1.412 2.76-2.509C193.65 161.445 196 171 196 171s-6.967-.097-7-3.829z"/>
        <path fill="#1E3555" fill-rule="nonzero" d="M189.242 165.808c.094-3.936-3.925-4.773-3.14-2.732.785 2.041 1.287 3.334 2.182 3.833.895.5 2.716-1.219 2.716-1.219l-1.758.118z"/>
        <path fill="#38B87C" fill-rule="nonzero" d="M201.72 162l-6.406 1.374-2.017-1.262.112.48 1.841 1.246-.24 2.013-1.025 1.358-1.857-2.141H192l1.81 2.317 4.579 3.515s2.385.591 3.282-1.102c.747-1.918 1.195-3.94 1.329-5.992L201.72 162z"/>
        <path fill="#FBBB31" fill-rule="nonzero" d="M176 181.697c.65-3.652 2.54-6.938 5.325-9.258 2.05-1.96 4.591-3.443 7.193-1.594 1.744 1.227 9.64 9.115 10.482 11.155"/>
        <path fill="#F38A6B" fill-rule="nonzero" d="M218.147 175.474c.243-.386.347-.86.29-1.328-.644.22-1.242.578-1.764 1.052-1.202.813-2.644 1.052-4.004.664L213.97 174c-1.408.06-2.762.628-3.859 1.62-1.076.988-2.046 2.113-2.89 3.352-.126.113-.205.28-.219.46-.014.18.04.36.146.495.396.761.882 1.459 1.445 2.073.64-.82 1.463-1.435 2.385-1.781.581-.125 1.175-.152 1.764-.081 1.095.104 2.197.01 3.266-.276 1.073-.298 2.007-1.038 2.616-2.073-.754.166-1.494.404-2.211.713 1.185-.923 2.471-2.057 2.587-3.66-.338.102-.637.323-.853.632z"/>
        <path fill="#FDC345" fill-rule="nonzero" d="M211 181.376c-1.438-.282-2.703-1.138-3.513-2.376 0 0-10.816 9.073-10.48 16.334.337 7.261 10.597-1.277 13.993-13.958z"/>
        <path fill="#1E3555" fill-rule="nonzero" d="M194.67 172.742c-.208 2.532-2.126 5.248-4.459 7.244-.699.62.505 1.408 1.174.788 2.527-2.33 4.459-5.248 4.608-8.032.119-.99-1.249-.99-1.323 0z"/>
        <path fill="#FDC345" fill-rule="nonzero" d="M199.47 190.266s-12.974-16.89-18.677-15.139c-5.704 1.75-2.63 11.117 8.84 17.919 2.213 1.305 6.548 4.606 9.008 4.944 2.46.337.83-7.724.83-7.724z"/>
        <rect width="45" height="12" x="290" y="211" fill="#FFF" fill-rule="nonzero" rx=".89"/>
        <path fill="#267DBA" fill-rule="nonzero" d="M293 214H299V221H293z"/>
        <path fill="#888" fill-rule="nonzero" d="M402 235.493c0 4.141-2.013 7.507-4.508 7.507-2.496 0-4.492-3.366-4.492-7.507 0-4.142 2.013-7.493 4.492-7.493 2.48 0 4.508 3.351 4.508 7.493z"/>
        <path fill="#52473D" fill-rule="nonzero" d="M397 242s-1.832-.987-2-6c.213 2.193.905 4.27 2 6z"/>
        <circle cx="397.5" cy="243.5" r="1" fill="#424342" fill-rule="nonzero"/>
        <path fill="#424342" fill-rule="nonzero" d="M400.35 240.99c0 .36-.16.64-.34.64-.18 0-.36-.28-.36-.64s.16-.62.36-.62c.2 0 .34.28.34.62zM401.35 235c0 .34-.16.62-.36.62-.2 0-.34-.28-.34-.62 0-.34.16-.62.34-.62.18 0 .36.28.36.62z"/>
        <circle cx="395.5" cy="240.5" r="1" fill="#424342" fill-rule="nonzero"/>
        <path fill="#1C3356" fill-rule="nonzero" d="M401.211 248c3.747 0 6.789-5.148 6.789-11.508 0-6.359-3.042-11.492-6.789-11.492h-3.875s12.537 9.433-.336 23h4.211z"/>
        <path fill="#FFF" fill-rule="nonzero" d="M397.965 247c-3.294 0-5.965-5.158-5.965-11.5s2.671-11.5 5.965-11.5c3.293 0 6.035 5.128 6.035 11.5s-2.742 11.5-6.035 11.5z"/>
        <path fill="#1C3356" fill-rule="nonzero" d="M398 225c3.283 0 5.943 5.133 5.943 11.447 0 6.314-2.66 11.447-5.943 11.447-3.283 0-5.943-5.133-5.943-11.447 0-6.314 2.66-11.447 5.943-11.447m0 0c-3.311 0-6 5.148-6 11.492 0 6.345 2.689 11.508 6 11.508s6-5.148 6-11.508c0-6.359-2.689-11.492-6-11.492z"/>
        <path fill="#C3C2C2" fill-rule="nonzero" d="M397.35 242.99c0 .36-.14.64-.34.64s-.36-.28-.36-.64.16-.62.36-.62c.2 0 .34.28.34.62z"/>
        <path fill="#888" fill-rule="nonzero" d="M397.35 242.99c0 .36-.16.64-.36.64-.2 0-.34-.28-.34-.64s.14-.62.34-.62.36.28.36.62z"/>
        <path fill="#C3C2C2" fill-rule="nonzero" d="M400.35 240c0 .34-.16.62-.34.62-.18 0-.36-.28-.36-.62 0-.34.16-.62.36-.62.2 0 .34.28.34.62z"/>
        <circle cx="400.5" cy="240.5" r="1" fill="#888" fill-rule="nonzero"/>
        <path fill="#C3C2C2" fill-rule="nonzero" d="M401.35 234.01c0 .34-.16.62-.36.62-.2 0-.34-.28-.34-.62 0-.34.16-.64.34-.64.18 0 .36.28.36.64z"/>
        <circle cx="400.5" cy="234.5" r="1" fill="#888" fill-rule="nonzero"/>
        <path fill="#C3C2C2" fill-rule="nonzero" d="M395.35 240.01c0 .34-.16.62-.34.62-.18 0-.36-.28-.36-.62 0-.34.16-.64.36-.64.2 0 .34.28.34.64z"/>
        <path fill="#888" fill-rule="nonzero" d="M395.35 240.01c0 .34-.14.62-.34.62s-.36-.28-.36-.62c0-.34.16-.64.36-.64.2 0 .34.28.34.64z"/>
        <path fill="#52473D" fill-rule="nonzero" d="M400.172 238c.384-2.006.2-4.049-.54-6 .417 1.985.598 3.992.54 6z"/>
        <path fill="#52473D" fill-rule="nonzero" d="M399.493 240.995c0 .147 2.14-2.977.2-8.995.14 1.21 1.16 5.871-.2 8.995z"/>
        <path fill="#1C3356" fill-rule="nonzero" d="M402 236c0-4.396-2.016-8-4.5-8s-4.5 3.575-4.5 8 2.016 8 4.5 8 4.5-3.59 4.5-8zM443 235.372c0 4.208-2.013 7.628-4.508 7.628-2.496 0-4.492-3.42-4.492-7.628s2.013-8.372 4.492-8.372c2.48 0 4.508 4.164 4.508 8.372z"/>
        <path fill="#FFF" fill-rule="nonzero" d="M441 236.5c0 1.939-.897 3.5-2 3.5s-2-1.561-2-3.5.897-3.5 2-3.5 2 1.561 2 3.5zM399 237.5c0 1.923-.897 3.5-2 3.5s-2-1.643-2-3.5.897-3.5 2-3.5 2 1.545 2 3.5z"/>
        <path fill="#1C3356" fill-rule="nonzero" d="M431.732 236.614l-3.033-.196c-.362.009-.716.11-1.032.294-1.564-.082-4.378-.245-4.863-.294h-.172c-.125-.407.438-1.043.438-1.043l-2.032-.375c-.05.803-.05 1.61 0 2.413.053.296.267.531.547.603.031.08.08.153.14.212l5.66.505c.106.198.238.379.391.538l3.408.718c.067.015.137.015.204 0 .83-.024 1.516-.685 1.603-1.547.087-.862-.452-1.657-1.26-1.86v.032zM442.195 248c3.763 0 6.805-5.148 6.805-11.508 0-6.359-3.042-11.492-6.805-11.492h-3.859s12.537 9.433-.336 23h4.195z"/>
        <path fill="#FFF" fill-rule="nonzero" d="M438.007 247c-3.309 0-6.007-5.158-6.007-11.5s2.698-11.5 6.007-11.5c3.309 0 5.993 5.158 5.993 11.5s-2.684 11.5-5.993 11.5zm.142-20.072c-2.087 0-3.792 3.55-3.792 7.935 0 4.384 1.705 7.95 3.792 7.95 2.088 0 3.778-3.566 3.778-7.95 0-4.385-1.69-7.935-3.778-7.935z"/>
        <path fill="#1C3356" fill-rule="nonzero" d="M438 225.045c3.283 0 5.943 5.133 5.943 11.447 0 6.314-2.66 11.447-5.943 11.447-3.283 0-5.958-5.133-5.958-11.447 0-6.314 2.675-11.447 5.958-11.447m.142 18.776c2.094 0 3.792-3.573 3.792-7.965 0-4.39-1.698-7.949-3.792-7.949-2.095 0-3.807 3.558-3.807 7.95 0 4.39 1.712 7.964 3.807 7.964M438 225c-3.311 0-6 5.148-6 11.492 0 6.345 2.689 11.508 6 11.508s6-5.148 6-11.508c0-6.359-2.689-11.492-6-11.492zm.142 18.76c-2.067 0-3.75-3.543-3.75-7.904 0-4.36 1.683-7.903 3.75-7.903 2.066 0 3.75 3.543 3.75 7.903 0 4.361-1.684 7.904-3.75 7.904z"/>
        <path fill="#1C3356" fill-rule="nonzero" d="M438.465 225c-3.568 0-6.465 5.075-6.465 11.328V238c.433-1.712 1.36-3.266 2.668-4.478.488-3.253 2.044-5.641 3.889-5.641 1.128 0 2.134.895 2.866 2.328.884-.153 1.795 0 2.577.433-1.052-3.358-3.141-5.642-5.535-5.642z"/>
        <path fill="#C54445" fill-rule="nonzero" d="M421 166c-.038 1.366-.404 2.7-1.066 3.883-.891.921-4.408-3.9 1.066-3.883z"/>
        <path fill="#3D332A" fill-rule="nonzero" d="M418.231 176c.985-.199 1.695-.85 1.766-1.623.106-1.3-2.825 1.14-1.766 1.623z"/>
        <path fill="#F38A6B" fill-rule="nonzero" d="M421.384 187.351s2.455 7.218 9.756 8.014c3.49.445 7.008.656 10.528.633 0 0 1.312-1.31-1.281-1.944-2.594-.634-12.473 1.709-16.085-8.839-4.863-3.668-2.918 2.136-2.918 2.136z"/>
        <path fill="#1058AE" fill-rule="nonzero" d="M418.068 177c1.263.09 2.42.7 3.163 1.668 1.296 1.918 2.436 3.926 3.41 6.007.393.648.557 1.173 0 1.544-1.103.908-2.445 1.521-3.885 1.776-1.852.2 0-5.173-.574-6.61-.573-1.436-2.573-4.246-2.114-4.385z"/>
        <path fill="#1058AE" fill-rule="nonzero" d="M404.528 208c-.983-.53-1.577-1.592-1.525-2.726.107-1.9 1.525-6.775 1.616-11.276.092-4.5.427-13.503.427-13.503-.341-.351-.48-.858-.369-1.34.112-.48.459-.87.918-1.027 1.784-.92 8.568-2.617 11.557-1.994 2.988.623 4.97 2.975 4.238 11.572-.732 8.597-.32 10.42-.152 11.993.167 1.573.762 5.529.762 5.529-1.901.459-3.862.606-5.809.436-2.698-.327-11.663 2.336-11.663 2.336z"/>
        <path fill="#424342" fill-rule="nonzero" d="M440.547 195c.094 0 2.855.418 4.561.593 1.707.175 2.994.39 2.886.983-.109.593-2.064.404-2.684.364l-4.825-.31s-1.132-1.01.062-1.63z"/>
        <path fill="#F16F70" fill-rule="nonzero" d="M433.64 199c.945-.952 2.183-1.59 3.531-1.818 1.894-.108 4.253 0 4.253 0s1.028-.801.338-1.649c-.69-.847-3.933-.539-6.115-2.233-2.311-1.325-3.45 1.956-2.006 5.7z"/>
        <path fill="#DA5352" fill-rule="nonzero" d="M438.678 196.333c-1.276-.19-5.073.223-5.678 1.08.12.537.273 1.067.458 1.587h.115c.946-.945 2.179-1.573 3.518-1.794 1.93-.11 4.336 0 4.336 0 .364-.301.573-.742.573-1.206-1.082.282-2.203.395-3.322.333z"/>
        <path fill="#D2D2D1" fill-rule="nonzero" d="M396.953 218.004s-5.207-.308-4.943 4.436c.263 4.744 5.537-2.68 4.943-4.436z"/>
        <path fill="#DA5352" fill-rule="nonzero" d="M397.096 217.068c-1.01-.218-2.05.095-2.84.854-.792.76-1.251 1.887-1.256 3.078 2.578-.445 6.88-1.419 4.096-3.932z"/>
        <path fill="#D65156" fill-rule="nonzero" d="M397.123 213.782c-1.487 2.14-2.547 4.544-3.123 7.08 5.778 1.472 14.243 5.3 12.494 7.561-1.097 1.54-1.677 3.383-1.656 5.268 0 0-3.123 3.393 0 3.1 4.076.123 16.242.402 16.96 0 .719-.404 6.497-3.301 4.935-3.781-1.561-.48-4.591.186-5.653-.992-1.062-1.178-4.638-20.018-4.638-20.018s-18.803 1.007-19.319 1.782z"/>
        <path fill="#F16362" fill-rule="nonzero" d="M429.564 198.504s-.227-1.715-1.514-1.76c-1.287-.045-7.04.226-9.083.497-1.044 0-1.513-1.715 0-2.106 2.51-.432 4.973-1.097 7.357-1.985 1.195-.901 2.516-1.626 3.92-2.15-.105 2.602-.408 4.707.94 5.744.398.206.684.576.78 1.012.097.436-.006.891-.281 1.244-.72-.101-1.43-.267-2.12-.496z"/>
        <path fill="#DA5352" fill-rule="nonzero" d="M430.982 197.66s-.965-1.535-2.033-1.646c-1.068-.11-6.495.47-8.543.332-1.302-.097-1.595.677-1.302 1.258h.19c1.975-.249 7.592-.498 8.777-.456 1.185.041 1.463 1.617 1.463 1.617l.907.235c.418-.326.623-.835.541-1.34zM413.969 217c-1.82 2.52-2.992 5.396-3.428 8.406-.537 4.638-1.105 6.964-2.116 7.626-1.011.663-.127 1.472 1.69.56 2.769-.827 5.76-.739 8.466.25 1.99.972-3.696-3.74-4.896-5.477-1.2-1.737.284-11.365.284-11.365z"/>
        <path fill="#1058AE" fill-rule="nonzero" d="M417.045 198.433c3.126-1.489 2.09-2.68-.222-2.456-2.311.223-9.29 2.099-9.793 1.354-.521-1.649-.648-3.398-.37-5.106.251-1.325.933-5.017-.845-5.225-.074 2.471-.163 5.195-.237 7.101-.148 4.302-1.482 8.932-1.57 10.778-.052.688.172 1.369.622 1.89.862.18 1.742.256 2.622.224l2.726-4.079s-3.585-.238-2.726-2.188c3.407.098 6.78-.692 9.793-2.293z"/>
        <path fill="#F38A6B" fill-rule="nonzero" d="M401.933 187.807S398.15 198.213 405.82 199c2.405-.016 4.773-.6 6.911-1.705.495-.656.466-2.915-1.455-2.143-1.92.773-6.315 2.201-6.912-.83-.319-2.299.078-4.64 1.135-6.704-1.12-.86-3.012-.845-3.565.19z"/>
        <path fill="#1E3555" fill-rule="nonzero" d="M420.407 165s1.432 2.318-.155 3.703c-1.588 1.385-1.311-2.514-1.053-2.815.37-.328.775-.625 1.208-.888zM413 175c-.877-.12-1.607-.724-1.878-1.554-.3.342-1.136.7-.962-.28.017-1.367-.325-2.716-.994-3.915-.474-.73-2.43-2.828.11-3.978-.41-.311-.473-.482.363-.56-.22-.28-.505-.683.284-.248.363-.793 1.436-.529 1.436.466.012 2.312.212 4.619.6 6.9.418 1.032.766 2.09 1.041 3.169z"/>
        <path fill="#F38A6B" fill-rule="nonzero" d="M415.824 176.826c0-.152-.203-.776.812-1.08 1.014-.305 4.324 0 4.324-4.692.16-2.182-.16-4.373-.937-6.426-.203-.214-8.164-1.965-8.82 1.523-.483 2.467-.098 5.022 1.093 7.249.609 1.035.11 2.954.562 3.807.453.853 3.013 1.386 2.966-.38z"/>
        <path fill="#FAFBFB" fill-rule="nonzero" d="M416 173.28l2.995-.28s.211 2.142-2.035 1.993c-.748-.112-.944-1.49-.96-1.714z"/>
        <path fill="#38B87C" fill-rule="nonzero" d="M419.331 169.075l-4.989.88-2.034-.955.113.403 1.856.956.162 1.971-1.05 1.225-2.26-1.956H411l1.808 1.881 3.358 2.48s4.005.373 4.844-1.15c.7-1.566 1.036-3.25.985-4.944l-2.664-.791z"/>
        <path fill="#1C3356" fill-rule="nonzero" d="M422 209.016s3.629 2.266 2.783 8.742c-.845 6.476-1.845 12.242-1.845 12.242l4.752-3.192s3.798-19.396-1.538-18.794c-1.443.004-2.865.347-4.152 1.002z"/>
        <path fill="#1E3555" fill-rule="nonzero" d="M410.918 169.02c-.486-1.48-.794-3.013-.918-4.564 2.785-4.808 6.892-3.271 7.608-3.043.716.228 2.334-.532 2.63-.32 2.504 5.767-1.806 5.478-3.657 5.448-1.851-.03-3.018-.655-3.734.395-.626.64-.82 1.576-.498 2.404.576 1.309.53 2.358-.404 1.08s-.996-.973-1.027-1.4z"/>
        <path fill="#FFD6A0" fill-rule="nonzero" d="M413 172.93c-.373.122-.778.083-1.121-.106-.344-.19-.597-.514-.7-.897-.487-1.455.087-2.226.89-1.819.802.408.931 2.823.931 2.823z"/>
        <path fill="#1E3555" fill-rule="nonzero" d="M412 173.332c.774 2.058 2.47 3.464 4.418 3.662 3.151.087 2.533-.812 2.533-.812s-5.805 1.728-6.499-5.182c-.111.787-.262 1.565-.452 2.332z"/>
        <path fill="#1058AE" fill-rule="nonzero" d="M401 189c0-.305 2.12-5.908 2.758-7.847.637-1.94 1.483-2.153 1.483-2.153 5.115 0 1.63 9.16 1.215 10.687-.014.046-4.67 1.008-5.456-.687z"/>
        <path fill="#C54445" fill-rule="nonzero" d="M429.766 191c-.602.901-.865 2.04-.732 3.166.133 1.125.651 2.142 1.44 2.827 1.508.155-.708-2.2-.708-2.304V191z"/>
        <path fill="#C54445" fill-rule="nonzero" d="M432.086 199h2.156c-.05-1.096.214-2.182.758-3.119-1.055-.873-1.308-5.753-1.308-5.753-1.025-.294-2.122-.075-2.973.592-1.309 1.138-.818 6.222 1.367 8.28z"/>
        <path fill="#DA5352" fill-rule="nonzero" d="M434 197.918c-1.24.244-2.531-.062-3.504-.83-.973-.768-1.522-1.914-1.49-3.113-.106-2.079 1.178-3.626 4.29-3.975-1.16 1.075-1.753 2.584-1.617 4.115.136 1.532.987 2.926 2.321 3.803z"/>
        <path fill="#C54445" fill-rule="nonzero" d="M433 197c-.13-.127-.267-.246-.411-.357-.686-.553-1.338-3.249-1.046-6.643-.882.777-1.395 1.86-1.42 3.002-.027 1.14.436 2.243 1.283 3.056-.52-.032-1.014-.226-1.406-.552.707.906 1.812 1.456 3 1.494z"/>
        <path fill="#D2D2D1" fill-rule="nonzero" d="M436.979 193.29c-.418 1.784-2.153 2.947-3.98 2.669-1.828-.278-3.13-1.904-2.988-3.729.142-1.825 1.681-3.233 3.53-3.23 2.133.269 3.658 2.173 3.438 4.29z"/>
        <path fill="#FAFBFB" fill-rule="nonzero" d="M431 190.575c.5-.099 1.018.032 1.422.36.412.09 2.388.225 2.573-.675.028-.31-.065-.618-.256-.855-.391-.262-.844-.402-1.308-.405-1.02.027-1.947.628-2.431 1.575z"/>
        <path fill="#E7B67D" fill-rule="nonzero" d="M411.49 173s-1.22-.145-1.18-1.818c-.006-.047.01-.093.045-.128.034-.035.083-.054.135-.054.11 0 .2.081.2.182 0 1.309.84 1.418.84 1.418.103.018.172.106.16.2.001.046-.02.09-.06.118-.04.029-.091.039-.14.027V173z"/>
        <path fill="#F16362" fill-rule="nonzero" d="M412.774 167.727c.155 1.596.099 3.204-.168 4.787-.428.72-2.549 1.08-3.953-2.192-1.404-3.272-1.22-10.091 7.524-10.322 1.596-.01 3.126.603 4.227 1.695 1.101 1.092 1.676 2.566 1.587 4.072-2.243 0-9.294-.606-9.217 1.96z"/>
        <path fill="#DA5352" fill-rule="nonzero" d="M412.708 173.46c.267-1.133.352-2.3.25-3.459h-.234s-4.395 1.551-4.582-4.001c-.3 1.736-.122 3.52.516 5.165 1.438 3.458 3.612 3.101 4.05 2.295z"/>
        <path fill="#C54445" fill-rule="nonzero" d="M412.394 170.005c0 3.535-1.394 3.908-1.394 3.908.632.217 1.342.018 1.742-.486.305-1.78.37-3.589.192-5.384 0-1.184 1.289-1.767 3.066-2.043-2.805.162-3.641.47-3.606 4.005z"/>
        <path fill="#FAFBFB" fill-rule="nonzero" d="M415.422 159c-.48.047-.955.133-1.422.259 3.031.775 3.766 5.741 3.766 5.741H419c-.797-3.707-2.266-5.414-3.578-6z"/>
        <path fill="#FAFBFB" fill-rule="nonzero" d="M421 165c-.257-1.854-1.22-3.551-2.702-4.769-.425-.11-.86-.188-1.298-.231 1.611 1.203 2.628 2.993 2.808 4.942L421 165z"/>
        <path fill="#424342" fill-rule="nonzero" d="M413 167c.491-1.286 1.524-2.266 2.801-2.66 2.272-.424 4.595-.451 6.875-.083.238.364.35.8.319 1.24-.562.034-1.125.034-1.687 0-1.162-.034-5.825-.53-8.308 1.503z"/>
        <path fill="#1E3555" fill-rule="nonzero" d="M413 167c2.601-.667 5.29-.953 7.979-.849 3.552.334 6.015.137 1.807-.863-1.807-.243-7.776-1.015-9.786 1.712z"/>
        <path fill="#B3B3B5" fill-rule="nonzero" d="M433.984 197c1.412-.078 2.616-.876 3.016-2l-.3.13c-1.316.17-2.65.223-3.979.158-.591.038-1.185-.052-1.721-.262.403 1.107 1.59 1.893 2.984 1.974z"/>
        <path fill="#656666" fill-rule="nonzero" d="M437 193.5c0 1.929-1.118 3.5-2.5 3.5s-2.5-1.556-2.5-3.5 1.118-3.5 2.5-3.5 2.5 1.571 2.5 3.5z"/>
        <path fill="#787878" fill-rule="nonzero" d="M436 195.318c-.385.294-.866.397-1.325.284-.459-.113-.852-.432-1.084-.878-.924-1.649-2.014-.132-1.423 1.089.11.173.237.334.378.478.271.275.59.489.94.627.152.05.31.079.469.082.925-.079 1.723-.735 2.045-1.682z"/>
        <path fill="#F38A6B" fill-rule="nonzero" d="M443.291 194.261s2.871-.646 3.365.095c.417.669.458 1.513.108 2.22-.371.39-.786.734-1.235 1.025-.84.177-1.69.293-2.547.346-.617.142-1.93 0-1.975-.457-.093-.819.818-.504.849-1.26.03-.756-.479-2.016 1.435-1.969z"/>
        <path fill="#787878" fill-rule="nonzero" d="M435.814 191.66H436c-.285-.889-1.098-1.539-2.08-1.66-.58.383-1.102.839-1.55 1.355-.327.466-.777 2.578.356 1.165.74-.86 1.968-1.202 3.088-.86z"/>
        <path fill="#3D332A" fill-rule="nonzero" d="M434 194.12c.98.025 1.938.328 2.785.88.145-.513.217-1.048.215-1.586 0-.478-.056-.953-.17-1.414-.588.485-1.286.777-2.015.845L434 194.12z"/>
        <path fill="#424342" fill-rule="nonzero" d="M435 193.5c0 .828-.453 1.5-1 1.5-.547 0-1-.672-1-1.5s.453-1.5 1-1.5c.547 0 1 .672 1 1.5z"/>
        <path fill="#3D332A" fill-rule="nonzero" d="M434.73 192.99c0 .553-.32 1.01-.72 1.01-.4 0-.74-.457-.74-1.01 0-.552.34-.99.74-.99.4 0 .72.438.72.99z"/>
        <path fill="#FAFBFB" fill-rule="nonzero" d="M434.025 196s3.4-1.228 1.22-5c.28 1.677 1.02 2.979-1.22 5z"/>
        <path fill="#FAFBFB" fill-rule="nonzero" d="M435.43 192c.739 1.41.241 3.068-1.2 4 .838-1.208 1.255-2.596 1.2-4z"/>
        <path fill="#C54445" fill-rule="nonzero" d="M416.82 212.436c-.893-.346-1.835-.488-2.774-.419l-4.31.297h-.392c-5.095.4-10.988.958-11.259 1.447-.397.666-.76 1.359-1.085 2.074 1.421.968 3.084 1.35 4.717 1.081 2.894-.627 9.827-1.203 11.048-1.43 1.22-.226 2.23-.348 2.23-.348.757-.432 1.436-1.023 2.005-1.743-.075-.332-.136-.698-.18-.96z"/>
        <path fill="#DA5352" fill-rule="nonzero" d="M420.558 197s1.267 0 1.424-.585c.156-.585-.726-2.226-1.424-2.396-.698-.17-.627.83-.399 1.434.228.604.769 1.264.399 1.547z"/>
        <path fill="#C54445" fill-rule="nonzero" d="M417.843 233s-5.672-1.675-4.74-10.385c.499-3.184.779-6.396.838-9.615h5.356s-.933 18.113 5.703 19.623c-4.123.03-7.157.377-7.157.377z"/>
        <path fill="#787878" fill-rule="nonzero" d="M441.383 194.392s4.255-.24 5.083-.14c.829.1.585.36 0 .56-.584.2-5.31.96-5.31.96s-.472-.92.227-1.38z"/>
        <path fill="#F16F70" fill-rule="nonzero" d="M442.004 196s-1.41-.77-.888-1.458c.428-.553 1.122-.7 1.69-.36.135.132.206.332.192.536-.014.205-.111.389-.262.496-.281.21-.529.477-.732.786z"/>
        <path fill="#DA5352" fill-rule="nonzero" d="M418 195.577c.06.432.31.832.705 1.124.617.375 2.96.505 3.295-.26 0 0-.581-.706-1.269-1.441l-2.15.39c-.205.033-.402.096-.581.187z"/>
        <path fill="#1C3356" fill-rule="nonzero" d="M416.276 203.033s8.065-.37 10.828 1.353c2.763 1.723 2.554 8.324-.94 7.551-3.496-.772-5.407-1.61-7.035-1.803-1.628-.193-3.928-6.15-2.853-7.1z"/>
        <path fill="#424342" fill-rule="nonzero" d="M420.765 197.406c.232-.397.296-.877.176-1.326-.272-.747-1.01-1.19-1.765-1.057-.978.101-6.176 1.426-6.176 1.426.097.868.28 1.723.545 2.55.16.018 7.22-1.593 7.22-1.593z"/>
        <path fill="#292826" fill-rule="nonzero" d="M419.574 213.161c-2.047.173-4.082.453-6.094.839-.324-2.516-.568-4.688-2.48-5.197 1.848-.464 5.997-1.213 7.731-.524 1.734.689 1.345 4.328.843 4.882z"/>
        <path fill="#424342" fill-rule="nonzero" d="M413.443 214.549s-3.681.304-8.534 1.215c-4.853.911-6.852-1.04-7.648-2.079-.796-1.04.406-2.238 1.262-2.27 4.26-.457 8.48-1.264 12.621-2.415 3.2.544 3.29 3.294 2.3 5.549z"/>
        <path fill="#DA5352" fill-rule="nonzero" d="M452 227.873c-.77-.471-1.618-.63-2.448-.46-1.603.2.76 1.24 1.112 1.24.467-.177.916-.44 1.336-.78z"/>
        <path fill="#D2D2D1" fill-rule="nonzero" d="M441.334 199c.648.528 1.118 1.139 1.38 1.793.34.93-1.92-1.557-1.38-1.793z"/>
        <path fill="#DA5352" fill-rule="nonzero" d="M450.968 227.884s-2.713-4.896-5.672-5.884c-1.283.494 2.022 4.51 2.022 4.51s.345 2.903 2.187 2.44c1.841-.463 1.463-1.066 1.463-1.066z"/>
        <path fill="#32252F" fill-rule="nonzero" d="M413.752 235.978s-2.338.288-1.612-1.216c.641-1.265 2.045-1.962 3.451-1.712 1.226.08 7.467 1.296 7.709 1.792s4.161 1.216-9.548 1.136z"/>
        <path fill="#D65156" fill-rule="nonzero" d="M430.3 235.629S429.109 237 428.845 237L418 236.85c1.684-.901 3.074-2.243 4.012-3.873.945-2.23 5.717-16.575 5.64-17.374.112-2.576-.127-5.155-.713-7.67-.976-3.676-3.548-8.437-.078-8.784 2.06-.199 4.137-.199 6.197 0l2.975.09s3.532-.09 4.043.8c.511.888 4.973 9.13 5.64 12.927.807 3.863-.123 7.878-2.557 11.03-2.727 3.993-12.827 4.958-12.858 11.633z"/>
        <path fill="#C54445" fill-rule="nonzero" d="M445 221.515c-1.363-.22-2.836-.515-2.836-.515-2.507 1.712-.486 2.76 1.567 3 .469-.794.893-1.625 1.269-2.485z"/>
        <path fill="#C54445" fill-rule="nonzero" d="M443 224.821l-8.526-25.429-1.76-.392s3.945 14.412 3.61 17.234c-.333 2.822-1.516 7.003-2.426 7.787-2.601 3.51-4.214 7.647-4.673 11.983h-8.95c-.41.305-.835.587-1.275.845l10.62.151c.257 0 1.426-1.373 1.426-1.373.075-6.263 8.556-7.486 11.954-10.806z"/>
        <path fill="#3D332A" fill-rule="nonzero" d="M420.94 196c-.586.353-1.235.572-1.906.645-1.658.262-5.537 1.169-5.901 1.169-.043-.018-.09-.018-.133 0 .026.414.134.818.315 1.186.166 0 7.46-1.657 7.46-1.657.224-.406.284-.89.165-1.343z"/>
        <path fill="#DA5352" fill-rule="nonzero" d="M434.398 224s4.546-5.497 3.036-11.452C435.924 206.594 434 200 434 200s2.97 6.335 3.5 7.964c.531 1.63 3.7 12.747 2.008 13.92-1.594.91-3.312 1.621-5.11 2.116z"/>
        <path fill="#C54445" fill-rule="nonzero" d="M433 199.425s-7.04-.378-6.677 2.575c-.326-.471-.412-1.102-.227-1.663.186-.561.616-.972 1.136-1.084 1.21-.172 5.813-.55 5.768.172zM439 222.255c-.007-.085-.007-.17 0-.255-1.61.411-3.087 1.338-4.26 2.672-.43.834-.74 1.328-.74 1.328 1.31-.474 2.582-1.078 3.802-1.804.444-.698.858-1.396 1.198-1.94z"/>
        <path fill="#F16F70" fill-rule="nonzero" d="M439.096 223s-.548-5.95-1.013-7.98c-.465-2.03-4.566-13.837-4.765-14.467-.2-.63-.681-1.692.166-1.538.846.154 3.686.246 3.686.246s1.378 4.997 1.926 6.796c.548 1.799 2.922 9.01 3.852 12.407.548 2.076.764 2.706.764 2.706s.747 1.077-.166 1.4c-1.468.254-2.957.398-4.45.43z"/>
        <path fill="#F16362" fill-rule="nonzero" d="M439.132 222.91c1.482-.074 2.957-.295 4.41-.66.183-.084.33-.256.404-.476.075-.22.072-.467-.01-.684-1.676-.017-3.344.3-4.936.94.115.56.132.88.132.88z"/>
        <path fill="#DA5352" fill-rule="nonzero" d="M431.263 235.454s-1.263 1.228-1.263 0c0 0 .286-11.47 8.84-13.454 1.48 2.146 2.84 4.37 4.075 6.66 0 0 .511 1.022-.977 1.14-1.489.118-5.338.163-6.66 1.48l-4.015 4.174z"/>
        <path fill="#DA5352" fill-rule="nonzero" d="M439.308 221c-.795.172-1.569.417-2.308.731 2.919 1.616 5.362 6.096 5.99 7.269 1.442-.183.916-1.143.916-1.143-1.394-2.358-2.93-4.647-4.598-6.857z"/>
        <path fill="#DA5352" fill-rule="nonzero" d="M448.952 229.11c.628 1.496-5.055.627-6.357.74 0 0-2.925-6.854-4.595-8.044 2.478-1.29 5.433-1.016 7.659.708l3.293 6.596z"/>
        <path fill="#DA5352" fill-rule="nonzero" d="M445.912 225.931c-.486.172-1.022.015-1.354-.397-.555-.655-2.807-3.76-3.558-4.52.532-.068 1.067.108 1.469.483.424.38 4.145 3.106 3.443 4.434z"/>
        <path fill="#F16F70" fill-rule="nonzero" d="M441 221.23c1.21 1.13 2.308 2.385 3.279 3.746.627 1.205 2.023 1.485 1.662.083-.36-1.403-1.066-5-4.941-3.828z"/>
        <path fill="#D65156" fill-rule="nonzero" d="M436.53 199.847c.14.44 0 .88-.28.98-.28.1-.64-.22-.78-.68-.14-.46 0-.9.3-.98.3-.08.62.22.76.68z"/>
        <path fill="#F38A6B" fill-rule="nonzero" d="M417 195.269s1.5-.577 1.743-.984c.244-.406 1.534-.445 1.203.328-.331.774-1.726 2.295-2.946.656z"/>
        <path fill="#FFF" fill-rule="nonzero" d="M426.415 198.606c1.19-.256 2.39-.417 3.594-.48 1.587 0 8.984.24 9.868 1.5.554.7-.839-.28-2.65-.52-1.812-.24-9.629-.22-10.962.76-.389-.14-.359-.92.15-1.26z"/>
        <path fill="#656666" fill-rule="nonzero" d="M413.954 197.327c.173.7-.156 1.433-.744 1.66-.528.11-1.055-.474-1.163-1.295-.174-.703.154-1.443.744-1.677.527-.11 1.054.4 1.163 1.312z"/>
        <path fill="#3D332A" fill-rule="nonzero" d="M413.83 197.85c.16.538 0 1.06-.54 1.14-.54.078-.96-.286-1.12-.84-.16-.554 0-1.06.54-1.14.54-.078.96.286 1.12.84z"/>
        <path fill="#FFF" fill-rule="nonzero" d="M419.339 236.934s-12.295.23-14.297-.17c-2.001-.4-.677-1.907.301-2.707.798-.447-1.504 1.892-.571 2.015.933.123 14.537 0 14.537 0s1.535-.03.03.862z"/>
        <path fill="#FFF" fill-rule="nonzero" d="M418.925 237c2.025-.621 3.638-2.1 4.376-4.007 1.327-3.267 5.15-15.123 5.434-16.151.412-2.638.343-5.324-.205-7.94-.68-2.646-2.654-7.893-1.927-8.77.726-.877.726-1.24.284-1.104-.442.136-1.975.907-1.2 3.493.774 2.586 2.4 6.533 2.448 9.814-.161 3.233-.827 6.423-1.975 9.467-.52 1.12-3.412 10.42-4.17 11.69-.731 1.185-1.838 2.117-3.16 2.661-.852.272-1.374.832.095.847z"/>
        <path fill="#DA5352" fill-rule="nonzero" d="M442 229.552s3.022 0 5.107-.215c2.66-.255 3.678-.744 3.81-1.096.739-.45 2.38-.274 2.036.567-.345.842-6.158 1.762-10.953.744z"/>
        <path fill="#FAFBFB" fill-rule="nonzero" d="M414.92 229.53s-.835 3.012-.917 3.81c-.081.8 1.326.816 1.752.35.601-1.333 1.02-2.745 1.244-4.194.049-.6-1.571-.733-2.079.033z"/>
        <path fill="#DA5352" fill-rule="nonzero" d="M442.19 195.01c-.212.32-.794 0-1.078-.9-.511.84.894 1.78.894 1.78.205-.377.455-.702.738-.96.143-.1.24-.297.256-.52-.302.098-.58.305-.81.6z"/>
        <path fill="#C54445" fill-rule="nonzero" d="M420.632 195.293c-.22-.074-.432-.172-.632-.293.04.172.099.338.175.495.211.477.983 1.23.527 1.504.439.009.877-.053 1.298-.183-.193-.385-.737-1.284-1.368-1.523z"/>
        <path fill="#787878" fill-rule="nonzero" d="M421.64 194.277s-2.89-.14-5.343-.22c-2.453-.08-.823.68 0 .84 1.79.101 3.569.416 5.31.94.597.52.436-.92.032-1.56z"/>
        <path fill="#FFF" fill-rule="nonzero" d="M429 215s-4.253 11.906-6.012 16.64c-.626 2.163-2.598 3.758-4.988 4.033 0 .178.16.312.895.327 2.05-.612 3.682-2.066 4.43-3.944 1.342-3.215 5.211-14.883 5.5-15.895.085-.383.144-.77.175-1.161z"/>
        <path fill="#FFF" fill-rule="nonzero" d="M419.328 236.934c.707-.415.752-.615.602-.738-.617.293-1.29.44-1.97.43-2.451 0-11.715.154-13.37-.384l.12-.185c-.811-.2 1.415-2.444.633-1.999-.978.8-2.301 2.307-.301 2.707 2 .4 14.286.169 14.286.169z"/>
        <path fill="#D65156" fill-rule="nonzero" d="M407.763 233.345s-1.547 1.15-2.537.403c-.99-.747-5.972-3.077-14.945-1.763l-2.243.568c-.22-3.066.518-6.126 2.12-8.783 2.354-3.608 6.783-5.424 11.108-4.555 3.666.672 8.261 3.136 8.679 7.468.28 2.418-.513 4.838-2.182 6.662z"/>
        <path fill="#F16362" fill-rule="nonzero" d="M405 234c-4.836-.921-9.806-1.012-14.676-.27-.846-.19-1.639-.553-2.324-1.062.651-.814 1.577-1.389 2.622-1.63 1.565-.212 13.112.411 14.378 2.962z"/>
        <path fill="#D65156" fill-rule="nonzero" d="M411.14 216c-2.703.112-5.397.36-8.07.744-.185.243 0 .502.519.745 1.595.95 3.071 2.056 4.404 3.296 1.088.47 1.791.835 1.791.835.138.139.29.266.452.38 3.048-.41 1.307-4.572.905-6z"/>
        <path fill="#1C3356" fill-rule="nonzero" d="M415.784 232.268s-.72 1.647-1.96 0c0 0 .797-17.092.843-19.283.046-2.191-.49-2.502-1.608-3.108-.429-1.43 1.531-6.215 4.073-5.858 2.542.357 5.083.824 4.854 3.993-.23 3.17-4.64 21.49-6.202 24.256z"/>
        <path fill="#1C3356" fill-rule="nonzero" d="M404.928 210.49c.732.965 3.558.35 5.212-.132.732-.2 1.23-.383 1.26-.383.029 0 8.682 2.96 9.531-2.462.85-5.423-6.369-6.055-9.414-6.47-2.326-.262-4.63.7-6.252 2.61-.176.2-.337.4-.484.6-1.093 1.913-1.034 4.393.147 6.238z"/>
        <path fill="#F38A6B" fill-rule="nonzero" d="M413 195.865c.635-.794 1.547-1.365 2.584-1.619 1.75-.42 4.09-.285 4.531.27.442.554 1.341 1.783.605 2.863-.736 1.079-1.635.884-2.65 1.274-1.635.644-1.88.194-1.88.194s-.966-.075-.72-.584c.425-.854.425-1.379-.344-1.664-.768-.285-2.126-.734-2.126-.734z"/>
        <path fill="#152D4A" fill-rule="nonzero" d="M405 210.516c.79.916 3.837.332 5.622-.126.164-.761.286-1.531.363-2.306.237-3.16-2.321-3.665-5.005-4.06-.205-.032-.412-.032-.616 0-.19.19-.363.379-.521.568-1.18 1.817-1.116 4.173.158 5.924z"/>
        <path fill="#E8ECFF" fill-rule="nonzero" d="M273 181.878v-.428l-.246-5.281v-.443c-.04-.97-.602-1.829-1.445-2.213h.087v-1.038h-.246v-1.176c-1.016-.399-2.134-.399-3.15 0v.351c.304-.104.62-.165.94-.183h.202c.21-.005.418.02.621.076v.993h-.246v1.038h.087c-.833.373-1.354 1.259-1.3 2.213v1.145l.202 4.58V182l4.494-.122z"/>
        <path fill="#458FD8" fill-rule="nonzero" d="M156 179.67c0 .1-.151.32-.287.66H132v-.14l12.43-.28h5.287l6.238-.14.045-.1z"/>
        <path fill="#1E3555" fill-rule="nonzero" d="M149.97 159.553c-.043.318-.12.63-.231.932-.046.15-.107.293-.184.428-.134.271-.288.532-.461.78-.123.168-.246.336-.369.474-.205.247-.431.478-.676.688l-.307.275c-.308.253-.631.488-.968.703l-.215.122h-.107c-.481-.32-1.05-.485-1.628-.474-.953 0-1.536.597-1.168 1.697.06.251.152.493.277.719.172.398.417.76.722 1.07.23.183.322 0 .322 0l.123.275.17.336c0 .122.137.23.214.367.272.509.608.981.999 1.406.232.234.478.453.737.658.415.32.799.596.799.611-2.05.686-4.3.434-6.144-.688-1.623-.965-2.844-2.479-3.44-4.265-.35-1.022-.49-2.102-.416-3.18 2.542-1.516 5.173-2.88 7.88-4.08 1.121-.49 2.258-.964 3.394-1.407h.246v.092c.092.19.164.39.215.596.22.596.294 1.235.215 1.865z"/>
        <path fill="#F38A6B" fill-rule="nonzero" d="M154.86 165.632c-.183.256-.439.455-.736.574-.173.235-.125.56.11.74.407.346.172.769-.47.844 0 0 .626.694.14.951-.145.092-.303.163-.47.211l.141.528c.063.253.063.517 0 .77-.052.195-.167.37-.329.498l-.14.106c-.323.147-.688.185-1.035.105l-.439-.105-1.41-.332-.33-.09-.516-.137c-.486-.135-.956-.271-1.348-.407l-.564-.226c-.654-.409-1.093-1.069-1.206-1.811-.008-.09-.008-.182 0-.272-.008-.09-.008-.181 0-.272-.036-.174-.062-.35-.079-.528-.212.043-.43.043-.642 0-.46-.131-.844-.436-1.066-.845l-.14-.287c-.328-.543-.417-1.19-.246-1.797.17-.607.586-1.122 1.154-1.432 1.285-.408 1.959.83 2.147 1.252h.11l.219-.12c.343-.213.672-.445.987-.695l.313-.271c.25-.208.48-.435.69-.68.142-.142.268-.299.376-.467.093-.12.176-.246.25-.377.095-.12.169-.252.22-.393.079-.134.142-.275.188-.422.126-.294.205-.604.235-.921.083-.551.035-1.114-.14-1.645-.053-.203-.126-.4-.22-.588V157c1.144.827 2.041 1.931 2.6 3.2.22.755.31 1.54.267 2.323-.013.445.09.886.298 1.283.057.125.13.242.22.347.204.23.43.442.673.634l.25.166c.123.218.098.485-.062.68z"/>
        <path fill="#F38A6B" fill-rule="nonzero" d="M150 168.132L149.186 174 141 173.77 144.703 164z"/>
        <path fill="#1058AE" fill-rule="nonzero" d="M161 181h-11.02l-.153-.4-.364-.987-.137-.386-2.113-5.641L147 173l1.094.293.776.2h.197l3.497.925c1.348.253 2.643.738 3.83 1.434 2.063 1.141 3.686 2.955 4.606 5.148z"/>
        <path fill="#1058AE" fill-rule="nonzero" d="M151 181h-22c.753-2.61 2.479-4.749 4.751-5.888l5.668-2.36 1.819-.752h6.202l.245.652.137.352.947 2.459v.184l1.864 4.851.367.502z"/>
        <path fill="#1E3555" fill-rule="nonzero" d="M147.365 162.876l-.243.124H147v-.171l3.253-6.705V156h.14v.187c.096.197.177.4.243.606.644 1.291.887 3.983-3.27 6.083z"/>
        <path fill="#1E3555" fill-rule="nonzero" d="M154 162h-2.169c.074-1.854-.391-3.688-1.333-5.26-.147-.234-.314-.453-.498-.656.007-.028.007-.056 0-.084h.257c2.112 1.238 3.51 3.48 3.743 6zM158 180.492V181h-8.52v-1.387l-.231-3.512-.166-2.496-.083-1.155.15-1.156v-.277l.115-.817v-.2l.547.139h.315l1.525.37.464.107.265.17c1.968 1.304 3.539 3.061 4.558 5.1.71 1.445 1.071 3.017 1.06 4.606z"/>
        <path fill="#1058AE" fill-rule="nonzero" d="M149 180.607V181h-3.454l-.332-.318c-2.884-2.858-6.337-6.398-6.21-7.14-.005-.034.006-.069.03-.095.025-.026.06-.04.096-.04.86-.133 1.6-.658 1.98-1.407h.08c2.423.535 4.915.734 7.398.59v1.134l.111 2.284.158 3.237.143 1.362z"/>
        <circle cx="149.5" cy="165.5" r="1.5" fill="#F69E94" fill-rule="nonzero"/>
        <path fill="#38B87C" fill-rule="nonzero" d="M153.838 163.325l-5.664 1.144L146.8 163l.098.387 1.212 1.546-.213 1.685-.9 1.144-2.996-1.855.098.2 2.734 1.856 4.06 2.954s2.127.495 2.93-.928c.667-1.618 1.064-3.323 1.178-5.056l-1.162-1.608z"/>
    </g>
</svg>
