<svg xmlns="http://www.w3.org/2000/svg" width="30" height="35" viewBox="0 0 30 35">
    <g fill="none">
        <path fill="#39B54A" d="M23 11.43c0-.263-.087-.354-.333-.417-1.028-.28-2.05-.584-3.071-.88-.924-.27-2.416-.707-3.696-1.084-.224-.065-.462-.065-.686 0-2.174.619-4.629 1.325-6.762 1.919-.334.09-.455.216-.452.584.023 2.112.005 3.558.014 5.674-.01.5.02 1 .094 1.496.715 4.133 3.053 6.89 7.033 8.222.22.069.454.074.676.016 4.121-1.168 7.12-5.09 7.163-9.397.03-2.27.007-3.867.02-6.133z"/>
        <path fill="#FFF" d="M19.943 13.07c-.046-.047-.112-.073-.181-.07-1.49.077-2.633.571-3.478 1.508l-.069-.851c-.013-.156-.152-.276-.318-.277h-1.578c-.176 0-.319.134-.319.3v8.01c0 .171.148.31.33.31H16c.18-.002.325-.139.327-.307v-1.366-1.667c-.008-.449.05-.896.176-1.33.338-1.103 1.031-1.726 2.122-1.9.196-.028.393-.047.59-.057l.162-.01c.169-.012.307-.132.332-.29l.288-1.825c.011-.064-.008-.129-.054-.178z"/>
        <path fill="#39B54A" d="M30 4.729c0-.511-.175-.688-.661-.818-2.056-.544-4.099-1.13-6.143-1.713-1.848-.524-4.838-1.374-7.393-2.102-.448-.127-.924-.128-1.373-.002C10.082 1.3 5.171 2.674.903 3.826c-.658.177-.91.42-.903 1.14.045 4.106.01 6.919.029 11.027 0 .97.016 1.957.186 2.909 1.431 8.038 6.107 13.4 14.07 15.989.439.133.907.145 1.352.032 8.244-2.265 14.242-9.898 14.337-18.275.05-4.405.007-7.512.026-11.92z"/>
        <path fill="#FFF" d="M21.884 9.14c-.092-.095-.225-.146-.361-.14-2.98.153-5.265 1.142-6.956 3.016l-.138-1.702c-.026-.312-.303-.553-.637-.555H10.64c-.353 0-.639.269-.639.6V26.38c0 .342.295.619.66.619h3.338c.175 0 .342-.065.466-.18.123-.117.192-.274.192-.438V23.65v-3.333c0-1.037.114-1.882.352-2.658.675-2.206 2.063-3.45 4.245-3.804.392-.057.786-.095 1.182-.114l.321-.022c.339-.022.615-.263.664-.578l.574-3.65c.022-.126-.019-.255-.11-.35z"/>
    </g>
</svg>
