<svg xmlns="http://www.w3.org/2000/svg" width="180" height="132" viewBox="0 0 180 132">
    <g fill="none" fill-rule="evenodd">
        <ellipse cx="78.12" cy="8.807" fill="#8797D9" fill-rule="nonzero" opacity=".25" rx="78.056" ry="8.752" transform="translate(17.237 114.416)"/>
        <ellipse cx="143.072" cy="59.294" fill="#543B82" fill-rule="nonzero" rx="9.476" ry="2.364"/>
        <path fill="#3A3942" fill-rule="nonzero" d="M141.894 111.018h-.06c-.315-.003-.568-.26-.565-.572l.382-32.099c.015-.306.27-.545.577-.541.307.004.556.249.563.555l-.383 32.099c-.004.29-.225.53-.514.558zM128.245 116.42c-.039 0-.077-.004-.115-.011-.307-.065-.506-.364-.445-.671l7.986-38.984c.092-.275.376-.439.66-.38.286.057.482.318.458.607l-7.986 38.984c-.056.264-.288.453-.558.455zM160.124 116.42c-.27 0-.504-.19-.558-.455l-7.987-38.984c-.024-.289.173-.55.458-.608.285-.058.568.106.66.38l7.986 38.985c.061.307-.137.606-.444.67-.038.008-.076.012-.115.012z"/>
        <ellipse cx="143.473" cy="76.097" fill="#3A3942" fill-rule="nonzero" rx="12.506" ry="3.41"/>
        <path fill="#3A3942" fill-rule="nonzero" d="M144.205 96.878c-3.074 0-5.969-.312-8.153-.878-2.462-.639-3.712-1.507-3.712-2.582 0-1.074 1.25-1.943 3.712-2.582 2.184-.566 5.08-.878 8.153-.878 3.074 0 5.968.312 8.152.878 2.463.639 3.713 1.508 3.713 2.582 0 1.075-1.25 1.943-3.713 2.582-2.184.566-5.079.878-8.152.878zm0-5.883c-7.107 0-10.824 1.578-10.824 2.423 0 .846 3.717 2.423 10.824 2.423 7.107 0 10.824-1.577 10.824-2.423 0-.845-3.717-2.423-10.824-2.423z"/>
        <path fill="#00B580" fill-rule="nonzero" d="M148.153 44.845c-.01-.073-.051-.137-.114-.176-.038-.034-.083-.059-.131-.074-.112-.03-.227-.049-.342-.057-.011-.006-.024-.006-.034 0-.582-.05-1.187.142-1.769.472-1.038.591-1.985 1.632-2.544 2.575-.074-.648-.16-1.296-.262-1.944-.103-.716-.228-1.432-.365-2.143-.018-.114-.04-.222-.064-.335-.082-.438-.176-.876-.267-1.309.147-.114.29-.228.427-.341.97-.79 1.806-1.603 2.294-2.888.085-.229.157-.462.216-.7.165-.698.165-1.483-.738-1.431-1.01.062-1.757 1.145-2.265 1.92l-.034.052c-.171.273-.342.572-.496.881-.234-.87-.485-1.734-.759-2.597-.206-.677-.434-1.36-.668-2.03-.022-.082-.05-.153-.082-.233.017-.018.036-.033.058-.045.267-.228.58-.393.832-.643.212-.205.394-.439.543-.693.082-.128.157-.26.222-.398.348-.705.484-1.49.61-2.29.046-.352.114-.977.017-1.518-.097-.54-.371-.96-.936-.9-1.095.131-1.522 1.786-1.814 2.655-.165.547-.3 1.103-.404 1.665-.86-1.98-1.919-3.87-3.161-5.638.959-.568 1.403-2.131 1.238-3.252-.059-.462-.196-.912-.405-1.33-.227-.426-.5-.826-.816-1.193-.677-.736-1.49-1.334-2.396-1.762-.234-.12-.445.05-.41.278.32 1.728.524 3.462 1.01 4.989-.74-.818-1.513-1.615-2.374-2.314-.505-1.333-1.377-2.497-2.515-3.359-1.193-.83-2.75-1.262-4.285-.881-.074.021-.134.074-.166.144-.031.07-.03.15.002.22.253.56.631 1.056 1.106 1.449.14.14.289.27.445.392.622.46 1.296.893 1.917 1.268.348.245.73.403 1.113.586.37.193.776.346 1.169.528.36.181.73.327 1.09.506.364.187.7.424.998.704.597.588 1.16 1.21 1.684 1.862-.44-.273-.92-.48-1.42-.614-.48-.151-.981-.216-1.483-.193-.996.035-1.93.494-2.562 1.261-.125.148-.097.313.029.382.69.34 1.806.71 2.995.96 1.198.21 2.458.279 3.462-.438l.058.074c.012.016.028.03.046.04 1.34 1.88 2.43 3.94 3.336 6.065-.372-.348-.779-.656-1.215-.92-.616-.425-1.293-.756-2.007-.982-.71-.23-1.458-.32-2.203-.268-.084.005-.162.044-.217.109-.054.065-.079.149-.068.232.096.632.433 1.202.941 1.592.074.067.152.13.234.187.44.335.985.586 1.506.807.23.092.466.162.708.21.963.222 2.052.274 2.818.927 1.214 1.069.953 3.258 1.641 4.645.012.027.028.05.04.081-.017-.028-.034-.063-.051-.09-.842-1.554-2.348-2.98-3.88-3.612-.404-.176-.833-.289-1.272-.335-.142-.012-.314.082-.336.221-.189 1.422.61 2.576 1.734 3.565.125.107.246.21.382.312.427.337.873.65 1.335.938.177.108.348.216.525.327.536.318 1.061.603 1.54.853.027.017.056.032.086.045.09.046.188.092.273.137.027.013.056.02.086.023.027.005.055.005.082 0 .014.01.029.018.046.023.103.482.2.965.29 1.449l.018.096c.148.773.28 1.541.388 2.314.074.472.137.938.188 1.41.011.058.018.116.023.176l-.097-.148c-.082-.114-.16-.228-.247-.341-.128-.176-.265-.344-.41-.506-.39-.444-.837-.836-1.329-1.165-.443-.308-.938-.535-1.46-.67h-.006c-.356-.097-.727-.132-1.096-.103-.122.017-.216.116-.228.239-.013.048-.005.1.023.141.182.285.377.58.588.882.77 1.102 1.729 2.245 2.943 2.938.159.093.323.175.493.246.014.012.032.02.05.022.116.057.237.104.36.142.005.004.011.007.017.006.084.033.17.06.257.082.111.033.223.06.337.081.062.012.102.478.125 1.04v.006c.018.328.028.688.034 1.018.017.505.017.931.023 1.034v.082c.005.055.007.11.006.164.006.082.006.176.006.261.004.052.006.103.005.154.012.403.018.802.018 1.205 0 .227 0 .46-.006.693.006.25 0 .507-.006.762l-.017.676c0 .06-.001.118-.006.177-.011.432-.029.858-.057 1.279-.055 1.016-.179 2.027-.37 3.026v.006c-.04.187-.083.375-.132.562-.008.055-.02.11-.034.164-.034.141-.074.284-.103.432.075 0 .149.006.222.006h.126c.195.005.394.011.594.005v-.011c.045-1.399.164-2.797.25-4.2.012-.164.024-.328.03-.501.016-.262.027-.523.039-.784.011-.262.023-.54.029-.808 0-.068.005-.136.005-.204v-.057c.006-.148-.011-.682-.034-1.39l-.017-.586v-.114l-.034-.927c0-.068-.006-.136-.012-.21-.011-.421-.028-.847-.046-1.239-.011-.415-.028-.801-.039-1.12-.029-.534-.046-.881-.057-.881.137-.029.274-.057.405-.097.467-.124.915-.307 1.335-.545.246-.133.485-.281.713-.443.091-.063.188-.137.279-.206.184-.14.356-.295.514-.465.069-.07.134-.145.194-.222.508-.602.878-1.309 1.306-2.03.05-.07.066-.156.046-.24z"/>
        <path fill="#0A8E6D" fill-rule="nonzero" d="M170.206 34.682c-.838-1.097-2.635-1.358-4.186-1.39-.89-.017-1.757.153-2.612.38-.793.2-1.49.518-2.317.655-.814.14-1.62.326-2.413.556 1.655-1.068 3.51-2.342 3.338-3.925-.018-.142-.229-.21-.41-.153-1.045.307-2.42.972-3.39 1.852-.97.881-1.495 1.928-1.14 2.757l-.083.04c-.023.006-.034.023-.052.029-1.065.434-2.079.985-3.023 1.642-.934.665-1.798 1.423-2.578 2.262.233-.482.422-1.011.574-1.34.588-1.36 1.227-2.712 1.53-4.053.04-.171-.132-.233-.337-.164-.867.273-1.575.859-2.077 1.507-.466.615-.8 1.32-.98 2.069-.27 1.16.222 2.216-.087 3.347-.2.736-.707 1.39-1.238 2.075-.433.557-.878 1.131-1.158 1.718-.06.121-.113.247-.16.375.046-.125.083-.245.127-.375.302-.953.527-1.928.673-2.916.164-1.11.228-2.177.062-3.002-.029-.119-.16-.187-.302-.096-1.375.904-2.052 2.427-2.231 3.926-.11.85-.101 1.71.029 2.558.075.522.185 1.038.328 1.545.004.029.012.056.023.082.023.082.052.17.068.246.015.044.044.082.082.108.006.011.006.028.012.04-.164.327-.315.648-.457.981-.177.38-.348.773-.508 1.159-.376.887-.719 1.785-1.027 2.699-.011.04-.028.073-.04.114 0-.03-.006-.058-.006-.082-.02-.482-.065-.962-.136-1.439-.04-.287-.095-.57-.164-.852-.029-.108-.057-.216-.082-.319-.025-.103-.057-.193-.082-.29-.115-.39-.295-.759-.531-1.09-.145-.216-.331-.402-.548-.547-.024-.016-.053-.022-.082-.017-.026.005-.051.015-.074.029-.096.053-.16.148-.177.256-.052.327-.09.676-.114 1.023-.017.181-.023.364-.029.545-.005.29-.005.586.012.87-.006.009-.006.02 0 .028.02.353.062.704.125 1.052.083.51.24 1.007.468 1.472.023.052.05.101.082.148.014.034.031.066.052.097.022.04.045.081.068.113.138.212.304.405.493.573.012.012.025.024.04.034.045.044.095.084.148.12-.046.152-.091.312-.132.466-.05.193-.108.391-.153.584-.082.314-.16.626-.234.944-.058.25-.114.506-.172.767l-.034.183c-.091.426-.177.852-.246 1.285-.092.51-.172 1.023-.24 1.54-.063.454-.114.909-.164 1.37-.04.42-.074.841-.103 1.267h.082c.075 0 .149.006.223.006h.125c.093-1.408.262-2.81.508-4.2.074-.399.149-.79.229-1.189.005-.029.017-.062.023-.096.056-.274.114-.54.182-.813.005-.04.017-.074.023-.114.164-.705.348-1.399.553-2.092.428.066.863.06 1.29-.016.343-.055.683-.134 1.015-.24.196-.062.388-.138.574-.227.61-.301 1.135-.727 1.751-1.097.072-.042.12-.115.13-.198.01-.082-.019-.164-.078-.223-.457-.49-1.198-.62-1.992-.477-.227.04-.45.099-.667.177-.235.08-.462.18-.679.3-.327.17-.634.379-.912.62.102-.319.216-.631.328-.943.246-.694.52-1.382.81-2.058.263-.642.553-1.273.862-1.893.028-.068.062-.142.097-.21.034-.006.062-.006.097-.012.816-.074 1.568-.147 2.339-.409.299-.1.589-.226.867-.375.319-.182.855-.46 1.078-.808.148-.221.164-.465-.082-.736-.519-.572-1.545-.38-2.287-.148-.183.058-.376.12-.575.2-.097.04-.194.08-.29.124.056-.102.12-.199.176-.3.749-1.295 1.588-2.535 2.51-3.712.291.05.542.204.827.26.347.063.7.077 1.05.04.605-.045 1.21-.192 1.791-.3.257-.057.702-.131 1.044-.268.342-.136.575-.346.462-.755-.114-.393-.468-.637-.918-.78-.45-.142-.965-.141-1.34-.119-.49.023-.976.109-1.444.256.717-.731 1.506-1.389 2.356-1.963.849-.57 1.755-1.053 2.704-1.438.131.399.492.717.912.99.408.248.848.44 1.307.572 1.33.352 2.79.005 4.158-.432.183-.062.218-.267.075-.37-1.073-.767-2.368-1.443-3.851-1.591 1.019-.243 2.051-.423 3.092-.54 2.38.7 4.787 1.347 7.336.466.064-.016.115-.063.136-.125.02-.062.009-.13-.032-.182z"/>
        <path fill="#0A8E6D" fill-rule="nonzero" d="M145.135 46.897c-.707-.136-1.369.313-1.894 1.012-.312.423-.565.885-.753 1.375-.105.265-.192.537-.263.813l-.005.006-.018.082c-.114-.376-.228-.751-.348-1.127-.017-.05-.027-.096-.045-.147-.382-1.2-.798-2.381-1.26-3.547-.07-.193-.143-.387-.223-.572.082-.114.16-.233.246-.347v-.006c.479-.7.884-1.41 1.021-2.381.023-.134.036-.269.04-.404.007-.05.01-.098.011-.148.035-.545-.017-1.625-.524-1.915-.006-.006-.006-.011-.012-.011-.083-.049-.177-.075-.274-.075-.059 0-.118.006-.176.017-.582.125-.868.813-1.05 1.478-.052.199-.097.387-.137.563-.035.154-.068.307-.097.472-.029.148-.052.296-.074.454-.463-.946-.982-1.864-1.552-2.75-.337-.518-.685-1.012-1.061-1.496.114-.272.32-.482.428-.767.125-.352.18-.724.16-1.097-.006-.13-.018-.267-.034-.404-.09-.587-.25-1.162-.48-1.71-.028-.074-.057-.154-.096-.246-.155-.382-.36-.741-.611-1.068-.342-.432-.781-.736-1.21-.546-.245.114-.359.328-.393.597-.025.186-.027.375-.006.562.058.512.211 1.07.308 1.468.12.465.257.98.423 1.483-1.495-1.495-3.258-2.751-5.244-3.517.19-.374.137-.863-.082-1.364-.245-.507-.606-.949-1.054-1.292-.706-.54-1.66-.87-2.626-.967-.949-.088-1.905-.015-2.83.216-.239.057-.278.268-.113.364 1.278.784 2.618 1.626 3.975 2.32-1.078-.157-2.168-.208-3.256-.154-1.241-.453-2.56-.657-3.88-.603-1.347.05-2.656.456-3.793 1.177-.054.03-.09.083-.098.144-.007.061.017.122.063.163 1.124.858 2.967.66 4.49.49.878-.096 1.706-.346 2.545-.55.775-.188 1.5-.438 2.344-.393.815.04 1.626.147 2.424.319-.975.056-1.94.374-2.612.88-.673.507-1.079 1.2-1.056 1.984.006.068.042.13.098.17.056.039.127.052.194.035.935-.227 1.852-.524 2.743-.887.935-.392 1.883-.853 2.208-1.706l.082.035c.022.005.04.005.056.011 2.088.807 3.953 2.166 5.482 3.814-.462-.261-.98-.42-1.305-.523-1.324-.426-2.642-.409-3.68.16-.058.032-.097.09-.107.155-.01.065.01.131.055.18.365.455.821.721 1.352.91.531.187 1.113.295 1.695.369.975.13 2.07-.256 3.086.307.657.37 1.124 1.096 1.505 1.864.382.767.702 1.592 1.15 2.208-.645-.887-1.523-1.694-2.447-2.208-.919-.529-1.866-.756-2.619-.648-.058.005-.11.035-.145.082-.034.047-.045.107-.032.163.314 1.193 1.199 2.012 2.298 2.769.965.647 2.083 1.233 3.037 1.7h.005c.137.061.269.124.4.186.022.017.047.03.074.035.082.034.16.073.234.108.043.02.091.024.137.011.013.007.026.013.04.017.493 1.227.936 2.478 1.34 3.74.155.46.302.927.445 1.39-.23-.304-.482-.593-.752-.864-.143-.154-.295-.298-.457-.432-.082-.081-.171-.148-.257-.216-.57-.454-1.17-.784-1.751-.909-.137-.03-.276-.044-.416-.046-.153-.012-.307 0-.457.035-.131.028-.171.261-.074.386.057.082.12.159.183.238.45.613.938 1.198 1.46 1.751.006.006.011.006.011.012.357.374.747.717 1.164 1.023.588.42 1.21.716 1.854.779l.206.772c.028.092.05.183.073.274.126.5.252 1 .366 1.506.046.182.082.358.125.54.051.221.103.443.149.67.068.307.136.62.194.933.011.03.017.063.017.096.05.228.096.455.137.682.034.164.068.328.091.5.228 1.206.416 2.423.575 3.639.028.193.056.386.082.586.05 0 .099-.002.148-.006.097.006.188 0 .28 0-.023-.177-.04-.347-.069-.518-.034-.284-.068-.573-.114-.852-.131-.956-.286-1.91-.462-2.854-.074-.426-.154-.859-.246-1.279-.057-.312-.12-.614-.188-.92l-.018-.092-.187-.858-.172-.716-.222-.91c-.023-.09-.046-.176-.074-.267-.004-.037-.014-.073-.03-.108-.007-.052-.02-.104-.04-.154-.081-.327-.17-.659-.261-.988.126-.052.247-.113.364-.182.17-.096.33-.208.48-.335.235-.19.45-.403.64-.637.106-.119.205-.244.295-.376.188-.265.341-.554.457-.858.097-.25.177-.506.25-.772.098-.359.183-.737.28-1.114.051-.192-.061-.388-.253-.441z"/>
        <path fill="#0A8E6D" fill-rule="nonzero" d="M143.663 52.519c-.049.004-.096.013-.142.028-.177.033-.348.09-.508.17-.032.01-.063.024-.092.04-.011.006-.017.012-.023.012-.122.064-.24.136-.353.216-.105.065-.205.139-.297.221-.151.117-.292.246-.421.387-.463.464-.847 1-1.136 1.586-.385-.94-.819-1.86-1.3-2.755.25-.273.492-.546.701-.818.114-.142.22-.29.32-.443.237-.356.41-.75.512-1.166.032-.117.055-.237.07-.358.017-.105.021-.212.01-.318-.01-.278-.119-.5-.455-.432-.018.006-.035.012-.058.017-.05.014-.1.031-.148.051-.493.222-.85.705-1.101 1.165l-.006.006c-.097.171-.176.335-.246.483-.091.2-.188.42-.273.642-.46-.763-.96-1.503-1.495-2.216.16-.216.376-.409.536-.631l.017-.029c.146-.203.263-.424.348-.66.02-.041.037-.085.051-.13.146-.477.213-.974.2-1.472 0-.068 0-.159-.005-.26-.035-.434-.184-1.047-.611-1.024-.093.008-.182.036-.263.082-.69.391-.787 1.528-.903 2.097-.056.346-.108.716-.131 1.069-.73-.87-1.546-1.671-2.521-2.263.485-.682.456-1.79.091-2.438-.564-1.068-1.9-1.398-2.91-1.245-.142.017-.204.204-.142.335.525.982 1.044 1.963 1.597 2.695-.545-.203-1.106-.361-1.677-.472-1.067-1.205-2.607-1.963-4.033-1.103-.074.04-.103.194-.062.284.433 1.114 1.403 1.39 2.196 1.554.456.092.913.017 1.38-.045.428-.057.856-.193 1.283-.074.413.117.817.261 1.21.433-.597.053-1.159.302-1.597.71-.462.426-.799 1.04-.964 1.818-.03.143.023.246.09.228.389-.082.92-.327 1.501-.704.582-.378 1.26-.865 1.734-1.65l.046.024c.009.005.019.007.028.005 1 .608 1.849 1.461 2.608 2.4-.297-.109-.657-.143-.868-.172-.937-.126-1.888.119-2.647.682-.108.082-.17.21-.153.28.097.59.855.562 1.728.49.73-.075 1.724-.552 2.43-.37.936.246.953 1.54 1.587 2.075-.925-.796-2.568-1.16-3.869-.705-.097.034-.205.137-.205.216-.011.818.61 1.171 1.46 1.376.85.204 1.951.245 2.83.261.02.004.042.006.063.005h.205c.041 0 .083-.009.12-.028h.034c.458.843.869 1.71 1.231 2.598-.935-.597-2.338-.9-3.587-.376-.12.052-.178.194-.104.24.942.585 2.31 1.308 4.045 1.04.082.216.154.426.223.642.142.404.268.807.382 1.217.393 1.332.685 2.693.873 4.07.04 0 .082.005.12.005h.09c.075 0 .15.006.223.006-.022-.2-.05-.399-.082-.597-.035-.228-.074-.455-.114-.677-.074-.437-.164-.875-.269-1.308-.114-.518-.246-1.03-.399-1.541-.114-.41-.246-.818-.382-1.222-.097-.285-.194-.572-.302-.859.315-.141.615-.315.895-.517.145-.097.284-.203.417-.318.164-.136.328-.284.479-.438.049-.048.095-.1.137-.153.047-.048.09-.1.131-.154.074-.095.142-.193.206-.295.099-.158.188-.322.268-.49.01-.03.024-.056.04-.083.108-.238.205-.483.32-.736.062-.143-.052-.23-.212-.216z"/>
        <path fill="#0B7C5C" fill-rule="nonzero" d="M167.24 42.708c-.747-1-2.07-1.04-3.177-.915-.639.074-1.22.327-1.791.614-.531.266-.976.613-1.552.784-.56.17-1.118.358-1.666.569 1.056-.982 2.14-2.372 1.746-3.917-.02-.063-.068-.114-.13-.138-.062-.024-.132-.02-.19.013-.69.364-1.56 1.046-2.122 1.876-.562.83-.804 1.784-.416 2.617l-.063.029c-.013.005-.025.013-.035.023-1.491.663-2.888 1.521-4.152 2.551.164-.33.305-.672.422-1.023.445-1.029.816-2.143.884-3.348.011-.147-.13-.232-.274-.199-.627.12-1.117.49-1.471.961-.371.455-.582 1.029-.696 1.574-.206.916.246 1.963-.017 2.82-.184.545-.594.972-1.085 1.358-.445.427-.963.818-1.174 1.336.61-1.37 1.015-3.296.81-4.764-.002-.059-.01-.118-.023-.175-.01-.057-.045-.106-.094-.136-.048-.03-.108-.04-.163-.024-.287.094-.557.234-.799.416-.36.305-.655.68-.866 1.102-.177.369-.298.762-.36 1.165-.114.586-.097 1.205-.034 1.785.054.542.164 1.077.328 1.597.005.024.013.047.023.069.023.068.04.141.062.21.016.042.045.078.082.102 0 .014.005.028.012.04-.73 1.05-1.4 2.139-2.009 3.263.01-.608-.053-1.215-.188-1.808-.023-.108-.051-.21-.082-.319-.164-.562-.405-1.09-.77-1.5-.084-.094-.176-.182-.274-.261-.102-.082-.291-.006-.32.125-.029.13-.062.29-.082.437-.11.656-.13 1.324-.057 1.984.006.074.012.142.023.21.148.876.493 1.683 1.158 2.269-.103.204-.211.414-.308.624-.205.416-.405.836-.6 1.262-.427.921-.832 1.86-1.22 2.797-.108.261-.216.529-.328.79-.082.193-.154.392-.234.586h.314c.05.001.099 0 .148-.006.068-.17.143-.347.211-.517.493-1.217 1.01-2.427 1.56-3.621.194-.42.394-.836.599-1.25.097-.205.2-.41.302-.615.707.29 1.467.387 2.202.399.833.011 1.489-.246 2.237-.415.153-.034.164-.182.062-.302-.82-.971-2.784-1.102-4.016-.591.621-1.16 1.31-2.28 2.065-3.36 1.044.194 1.997.404 2.99.234.467-.096 1.43-.199.855-.92-.462-.598-1.364-.737-2.031-.752-.257-.01-.515.001-.77.035.36-.45.747-.881 1.13-1.309.41-.409.787-.847 1.226-1.217.25.125.468.32.713.45.28.14.578.244.884.312.494.105.996.173 1.5.205.429.006 1.456.204 1.204-.597-.216-.767-1.272-1.137-1.905-1.274-.387-.09-.784-.128-1.18-.113.564-.466 1.191-.847 1.805-1.25.63-.371 1.28-.709 1.945-1.012.314.784 1.261 1.37 1.905 1.597 1.062.37 2.083-.023 2.978-.563.12-.068.103-.273-.011-.364-.903-.67-1.95-1.256-3.063-1.39.707-.245 1.42-.46 2.144-.648 1.831.523 3.612.87 5.253-.278.08-.06.08-.214.016-.3z"/>
        <path fill="#0B7C5C" fill-rule="nonzero" d="M146.892 25.724c1.83-1.62 3.536-3.251 4.204-5.707.015-.058.004-.12-.031-.169-.036-.048-.091-.078-.151-.082-1.358.012-2.607 1.348-3.417 2.632-.474.736-.77 1.541-1.004 2.365-.234.756-.309 1.496-.64 2.24-.302.736-.593 1.472-.86 2.217.05-.95.028-1.95-.2-2.814-.206-.858-.61-1.58-1.336-1.916-.13-.062-.29.068-.336.25-.268.982-.405 2.372-.211 3.565.176 1.187.69 2.176 1.56 2.443l-.028.082c-.005.017-.007.034-.006.052-.653 2.087-1.174 4.213-1.56 6.366-.074-.517-.216-1.029-.296-1.364-.234-.995-.53-1.944-.98-2.786-.164-.315-.352-.616-.566-.9-.097-.125-.262-.067-.348.082-.366.654-.527 1.403-.462 2.149.006.096.011.187.023.278.075.558.226 1.103.45 1.62.063.14.136.278.218.409.376.602.912 1.085 1.255 1.717.106.185.189.381.246.586.377 1.364-.484 3.127-.376 4.576.006.04.006.082.011.12-.005-.074-.017-.143-.028-.217-.082-.634-.21-1.26-.383-1.876-.192-.741-.46-1.461-.798-2.148-.253-.514-.583-.987-.979-1.401-.043-.044-.106-.063-.166-.051-.06.011-.112.051-.137.107-.439.79-.559 1.66-.478 2.524.049.462.146.917.29 1.358.03.091.057.183.091.274.28.753.651 1.47 1.108 2.13v.007c.293.444.613.87.958 1.275.016.022.033.043.052.063.057.063.114.13.17.188.028.036.07.058.115.062.01.013.022.024.034.034-.005.153-.017.313-.023.466-.034.79-.056 1.586-.068 2.382 0 .04-.005.082-.005.125-.012.736-.012 1.466-.012 2.2-.22-.555-.487-1.09-.799-1.598-.148-.258-.316-.504-.502-.736-.062-.082-.128-.16-.2-.233-.461-.53-.992-.91-1.574-1.023-.069-.012-.131.04-.177.113-.036.072-.048.154-.034.234.186.728.433 1.44.74 2.126-.002.006 0 .013.005.017.225.52.507 1.012.841 1.469.474.642 1.044 1.137 1.717 1.364.006.21.006.415.018.626.01.6.027 1.202.05 1.807.012.438.03.875.052 1.309.023.433.034.847.057 1.267.023.524.051 1.04.082 1.564l.154 2.575h.091c.075 0 .149.005.223.005h.114l-.068-1.16v-.005c-.035-.49-.064-.981-.082-1.478-.03-.511-.058-1.023-.082-1.53-.023-.425-.04-.846-.057-1.266-.023-.535-.046-1.063-.063-1.597-.017-.626-.034-1.25-.045-1.876-.006-.154-.012-.301-.012-.455.082-.012.16-.023.234-.04.118-.021.235-.052.348-.091.017-.006.04-.011.062-.017.043-.014.085-.031.126-.05.173-.06.34-.132.502-.217.254-.127.498-.274.73-.437.017-.006.033-.016.046-.029.023-.017.052-.034.074-.052.212-.154.407-.331.582-.528.428-.46.775-.994 1.17-1.53.051-.065.071-.151.054-.233-.018-.083-.071-.153-.146-.192-.085-.045-.175-.08-.268-.103-.142-.044-.29-.065-.44-.063-.153 0-.307.02-.456.058-.322.08-.63.208-.912.38-.182.112-.355.235-.52.37-.167.133-.325.278-.473.432v.006c-.227.222-.428.469-.599.736-.049.063-.093.13-.131.199v-1.252l.006-.006c-.006-.008-.006-.02 0-.028 0-.284 0-.572.005-.864 0-.182.006-.364.012-.551.006-.54.023-1.08.045-1.62.011-.347.029-.7.046-1.052.026-.017.054-.032.082-.045.183-.103.36-.2.537-.296.758-.427 1.46-.9 2.052-1.711.364-.491 1.095-1.5.228-1.83-.713-.273-1.564.346-2.123.864-.187.165-.362.344-.524.534-.04.034-.07.074-.103.108.012-.147.023-.295.04-.443.04-.552.097-1.103.16-1.654.09-.859.205-1.711.336-2.564.28-.097.57-.09.845-.182.333-.119.645-.29.924-.506.141-.104.276-.216.405-.335.328-.295.633-.636.941-.972.194-.21.519-.568.713-.938.195-.37.262-.736-.086-1-.667-.5-1.773.29-2.35.778-.375.311-.72.656-1.032 1.03.374-1.955.857-3.887 1.448-5.787.788.313 1.94-.245 2.602-.801 1.095-.927 1.641-2.405 1.95-3.78.026-.076.004-.16-.055-.214-.059-.054-.144-.068-.218-.037-1.22.495-2.462 1.234-3.411 2.331.182-.478.382-.944.57-1.416l.623-1.392z"/>
        <path fill="#CED8F7" fill-rule="nonzero" d="M143.865 76.185h-2.046c-3.918 0-7.094-3.165-7.094-7.069l.048-8.134c.03 3.099 16.215 2.944 16.186-.155v8.289c0 1.875-.748 3.673-2.078 4.998-1.33 1.326-3.135 2.07-5.016 2.07z"/>
        <path fill="#BDC6E3" fill-rule="nonzero" d="M151.015 61.202l-.29.383C149.58 71.8 141.45 73.93 137.51 74.731c1.235.945 2.75 1.456 4.307 1.454h2.045c3.918 0 7.094-3.165 7.094-7.069l.059-7.914z"/>
        <path fill="#BDC6E3" fill-rule="nonzero" d="M152.548 62.892c0 1.309-4.243 2.364-9.476 2.364-5.234 0-9.476-1.059-9.476-2.364v-3.598c1.553-.776 5.762 1.231 9.476 1.231 2.893 0 7.106-1.85 8.845-1.34 1.407.413.63 3.12.63 3.707z"/>
        <path fill="#543B82" fill-rule="nonzero" d="M147.067 57.15v2.285h-7.329v-2.35c-3.589.337-6.142 1.201-6.142 2.214 0 1.308 4.242 2.362 9.476 2.362 5.233 0 9.476-1.059 9.476-2.367 0-.949-2.244-1.767-5.48-2.143z"/>
        <path fill="#FAAA91" fill-rule="nonzero" d="M98.677 66.04c-.996 2.936-7.857 18.35-9.941 20.347l4.482 5.234c2.243-1.462 6.836-17.964 7.552-23.618l-2.093-1.963z"/>
        <path fill="#FAAA91" fill-rule="nonzero" d="M102.548 62.335c.873-.408 1.82-.637 2.784-.672.384-.013.768.01 1.149.066.188.029.95.158.827.352-.065.09-.16.152-.268.177-.517.178-1.033.361-1.548.548-.412.15-.823.3-1.232.453-.14.053.316.328.336.347.188.164.333.371.423.603.179.46.185.97.015 1.435-.266.736-.883 1.297-1.555 1.703-1.047.63-2.254.947-3.477.915-.596-.017-1.25-.717-1.386-1.275-.137-.558.095-1.145.39-1.62.697-1.128 1.847-2.04 2.973-2.72.184-.114.374-.218.57-.312z"/>
        <path fill="#CED8F7" fill-rule="nonzero" d="M97.871 86.703c-.93 0-1.918-.317-2.839-.927-2.276-1.507-3.74-4.452-4.022-8.08-.512-6.698-5.457-12.147-5.507-12.201l.12-.11c.05.054 5.034 5.543 5.55 12.298.274 3.578 1.712 6.478 3.945 7.957 1.286.851 2.7 1.114 3.884.721 1.768-.587 4.727-2.184 7.251-4.752 1.48-1.49 2.687-3.226 3.566-5.13 1.014-2.219 1.535-4.647 1.55-7.216h.164c-.015 2.593-.541 5.043-1.565 7.283-.887 1.922-2.104 3.674-3.597 5.177-2.545 2.589-5.532 4.199-7.318 4.792-.38.125-.78.189-1.182.188z"/>
        <path fill="#091A4C" fill-rule="nonzero" d="M114.003 71.133l-6.797.11c-.175.002-.34-.077-.448-.215-.107-.138-.142-.319-.095-.487l3.542-12.7c.064-.239.279-.405.526-.41l6.796-.11c.175-.002.341.077.448.215.108.138.143.319.096.487l-3.542 12.7c-.065.238-.279.405-.526.41z"/>
        <path fill="#D84E55" fill-rule="nonzero" d="M145.296 119.405c-1.096 2.624-2.877 4.906-5.159 6.612-7.598 5.745-19.965 5.214-28.8 4.883-17.422-.654-35.114-2.458-51.575-8.517-8.573-3.155-15.438-9.64-17.743-18.622-1.847-7.197-1.009-14.815.647-22.054 1.498-6.543 3.68-12.997 7.205-18.717 4.536-7.36 13.789-17.146 23.38-14.773 3.999.989 7.224 3.938 9.783 7.153 3.046 3.826 5.409 8.146 6.985 12.771 1.537 4.516 2.351 9.378 4.98 13.363 3.12 4.729 8.428 7.464 13.88 8.564 5.973 1.204 11.928-.375 17.947.736 6.418 1.186 12.498 4.683 16.209 10.035 3.71 5.35 4.815 12.58 2.261 18.566z"/>
        <path fill="#BB3A45" fill-rule="nonzero" d="M122.224 107.153c-9.634.604-19.381 1.203-28.878-.513-4.74-.856-9.394-2.331-13.67-4.557-2.796-1.455-10.45-5.548-10.783-9.021 6.549-1.912 15.25-.715 21.856.449 7.274 1.279 14.315 3.637 20.888 6.995 3.719 1.9 7.261 4.125 10.587 6.647z"/>
        <path fill="#EE8D1B" fill-rule="nonzero" d="M84.739 73.983c.15 5.224 1.395 10.581 5.264 14.335 2.933 2.845 6.861 4.434 10.857 5.085 6.177 1.009 13.202.039 18.893-2.993-3.63.096-7.248.388-10.874-.343-5.452-1.1-10.76-3.835-13.88-8.564-2.626-3.985-3.447-8.847-4.98-13.363-1.065-3.089-2.483-6.046-4.226-8.812-.452 4.88-1.195 9.742-1.054 14.655z"/>
        <path fill="#BB3A45" fill-rule="nonzero" d="M116.854 129.699c-4.71-.627-9.38-1.542-14.054-2.4-4.821-.882-9.636-1.817-14.406-2.943-7.798-1.847-15.532-4.21-22.731-7.754-6.156-3.031-11.95-6.961-16.548-12.08-3.529-3.932-6.231-8.527-7.949-13.515-.368 4.291-.216 8.596.853 12.759 2.305 8.981 9.17 15.467 17.743 18.622 16.461 6.058 34.153 7.861 51.575 8.517 4.593.172 10.136.39 15.47-.239-3.327-.22-6.648-.528-9.953-.967zM78.236 90.126c-4.715-6.453-7.787-13.951-8.951-21.85-.303-2.068-.493-4.227-1.549-6.036-1.864-3.197-6.216-3.336-5.74.935.39 3.49 1.767 7.1 3.22 10.275 1.509 3.286 3.404 6.383 5.645 9.224 2.135 2.709 5.4 4.758 7.375 7.452z"/>
        <path fill="#DE9780" fill-rule="nonzero" d="M176.2 118.143c-.35.858-1.396 1.245-2.323 1.181-.928-.064-1.791-.468-2.675-.754-1.618-.52-3.337-.649-5.015-.375-1.275.208-2.802.572-3.686-.366-.764-.81-.539-2.086-.575-3.198-.069-1.865-.993-3.596-2.507-4.696.272.193 1.249-1.677 1.633-1.77.82-.197 1.624-.664 2.188-.091 1.188 1.205 2.587 3.862 3.907 4.964 2.679 2.24 5.747 3.97 9.053 5.105z"/>
        <path fill="#FAAA91" fill-rule="nonzero" d="M179.897 127.517c-.174.609-1.082.525-1.56.491-.694-.044-1.406-.005-2.085-.089-1.157-.145-2.27.132-3.418.195-1.133.063-2.27-.043-3.373-.313-1.56-.383-2.773-.307-4.35.045-1.185.265-3.201.382-3.947-.842-.502-.828-.091-1.881-.1-2.85-.013-1.527-1.097-2.831-2.249-3.843-1.822-1.599-3.746-2.997-3.843-5.644-.071-1.912 2.596-3.692 4.373-3.164 1.395.416 2.069 1.943 2.7 3.252.838 1.743 1.928 3.354 3.235 4.781 1.34 1.457 3.499 2.328 5.235 3.227 0 .164 1.674.867 1.881.974l2.08 1.077 1.979 1.025c.666.345 1.268.45 2.015.547.345.044.703.081 1.002.26.3.178.521.539.425.871z"/>
        <path fill="#0B7C5C" fill-rule="nonzero" d="M143.438 97.91c4.838 2.832 5.817 1.443 10.322 4.771.847.626 4.098 2.773 5.114 3.085.595.183 2.154 2.08 2.626 2.352.945.55 3.503 3.026 3.541 3.234.095.541-3.074 3.903-4.576 4.75-2.803 1.58-4.843 3.537-7.962 4.467-.42.124-5.424-7.004-10.288-10.621-3.448-2.562-6.95-5.214-11.022-6.652-3.352-1.182-6.287-3.043-9.931-3.333-2.452-.195-4.95-.431-7.422-.58-.994-.06-7.212-.785-7.71 0l5.461-8.656c1.56-2.467 1.987-3.805 4.988-3.266 6.039 1.085 11.89 3.04 17.472 5.561 3.213 1.465 6.346 3.097 9.387 4.889z"/>
        <path fill="#091A4C" fill-rule="nonzero" d="M67.233 35.24c-.418 1.605-.778 3.096-1.682 4.521-1.2 1.894-2.469 3.856-4.395 5.011-1.232.736-2.644 1.094-3.94 1.704-1.867.879-3.53 2.388-4.128 4.358-.598 1.97.137 4.39 1.97 5.345.704.368 1.51.506 2.224.853.715.346 1.374 1.019 1.323 1.81-.082 1.17-1.314 1.799-1.143 3.07.239 1.8 2.216 2.195 3.525 2.936 1.85 1.05 3.529 3.278 5.602 3.82 7.77 2.031 5.86-7.734 9.549-10.632 1.395-1.095 3.348-1.041 5.035-1.596 3.694-1.216 5.675-5.132 7.135-8.728 1.628-4.007 3.12-8.362 2.175-12.582-.653-2.848-2.358-5.346-4.777-6.996-6.955-4.703-16.39-.896-18.473 7.105z"/>
        <path fill="#ED5830" fill-rule="nonzero" d="M102.222 90.045c-1.672 1.409-2.455 3.56-3.377 5.539-.922 1.979-2.216 4.016-4.295 4.69-1.523.49-3.188.148-4.712-.342-6.338-2.05-11.68-6.601-15.396-12.105-3.717-5.503-5.91-11.917-7.174-18.432-.893-4.587-1.149-10.514 3.395-13.373 2.4-1.511 5.537-1.063 8.223-.142 3.475 1.192 6.95 3.137 9.555 5.745 2.485 2.482 6 5.437 6.132 9.241.006.125.006.251 0 .376-.057 2.1-1.202 3.982-1.294 6.052-.068 1.66.367 3.783.928 5.34.34.933.794 1.82 1.351 2.642.536.786 1.16 1.507 1.861 2.15.533.486 4.053 3.253 4.803 2.619z"/>
        <path fill="#D73B1D" fill-rule="nonzero" d="M95.558 85.277c-.475.873-.853 1.774-.967 2.76-2.656-2.045-4.45-5.004-5.033-8.297-.275-1.554-.206-3.326.842-4.513.59-.667 1.42-1.063 2.134-1.597.939-.583 1.574-1.438 2.038-2.39-.058 2.099-1.203 3.981-1.295 6.051-.068 1.66.367 3.783.928 5.34.34.934.795 1.823 1.353 2.646z"/>
        <path fill="#CED8F7" fill-rule="nonzero" d="M91.938 81.79c-.498-1.22-.81-2.599-.923-4.095-.513-6.698-5.521-12.272-5.572-12.328l.121-.11c.051.056 5.098 5.67 5.614 12.426.113 1.479.42 2.84.913 4.046l-.153.061z"/>
        <path fill="#FAAA91" fill-rule="nonzero" d="M73.243 54.998c3.136 1.844 5.044 8.56 16.744 8.137-3.233-3.033-6.851-8.015-7.962-10.576-.776-1.795-1.57-3.69-1.371-5.635.198-1.946 1.236-3.198 3.557-3.586-1.683-.99-4.022-1.145-5.878-1.823-.772-.283-1.735-.1-1.735-.1s.094 8.647-3.355 13.583z"/>
        <path fill="#E37B66" fill-rule="nonzero" d="M81.854 52.162c-.717-1.677-1.385-3.435-1.201-5.234.198-1.945 1.236-3.198 3.557-3.586-1.683-.99-4.022-1.145-5.878-1.823-.772-.283-1.735-.1-1.735-.1-.016 1.762-.162 3.52-.436 5.26.683 3.035 3.21 4.242 5.693 5.483z"/>
        <path fill="#00B580" fill-rule="nonzero" d="M101.322 103.155c2.425-.081 4.86-.359 7.317-.647l16.772-1.963c4.793-.562 9.358-1.332 14.142-.79 7.654.87 12.605 2.945 19.147 6.62 1.028.573 4.206 2.898 4.206 2.898.604-.446 1.898-1.581 2.373-2.543.328-.671-7.599-6.75-11.135-9.681-8.7-7.215-19.496-11.801-30.681-13.404-5.604-.81-11.293-.852-16.908-.124-5.007.655-11.327 1.858-15.382 5.06-2 1.581-8.297 6.148-6.058 9.36 1.865 2.676 5.073 3.782 8.116 4.511 2.698.645 5.389.795 8.091.703z"/>
        <path fill="#D84E55" fill-rule="nonzero" d="M68.091 99.105c3.767-.296 7.547-.235 11.293.081 3.743.327 7.463.881 11.138 1.66 3.671.769 7.298 1.732 10.87 2.862 3.572 1.129 7.092 2.414 10.549 3.855.313.131.509.446.486.784-.023.339-.259.625-.587.713l-.595.157c-.562.147-1.093.23-1.624.32-.531.09-1.047.151-1.56.205-.256.031-.508.052-.761.076l-.75.059c-.499.034-.991.06-1.478.076-1.876.064-3.755.024-5.627-.122l-.68-.053c-.225-.022-.449-.047-.674-.066-.226-.019-.448-.046-.671-.071l-.667-.082c-.442-.057-.884-.11-1.321-.18-.22-.032-.44-.061-.657-.095-.217-.035-.435-.076-.656-.11-.87-.142-1.729-.31-2.586-.486-.857-.175-1.704-.374-2.552-.572-1.696-.403-3.382-.842-5.059-1.319-.21-.061-.421-.117-.631-.177-.21-.06-.42-.126-.631-.19-.211-.062-.421-.118-.632-.185l-.63-.196c-.843-.258-1.689-.53-2.536-.818-1.698-.572-3.41-1.189-5.166-1.887-.44-.174-.881-.349-1.327-.539l-.672-.278c-.225-.1-.45-.194-.678-.297-.454-.196-.913-.4-1.378-.625-.465-.226-.934-.438-1.415-.708l-.479-.269c-.188-.105-.327-.281-.385-.49-.059-.207-.032-.43.074-.617.135-.239.381-.395.655-.416z"/>
        <path fill="#FAAA91" fill-rule="nonzero" d="M87.666 45.012c-.734 1.75-1.751 3.26-3.082 3.983-3.366 1.823-6.697-1.025-8.7-3.552-1.987-2.508-3.063-5.639-2.846-8.66.128-1.784.626-4.226 2.098-5.373 1.452-1.13 3.57-1.747 5.489-1.79 2.168-.05 5.036.606 6.525 2.255 1.43 1.581 2.009 3.902 2.013 5.858.006 1.878-.465 4.815-1.497 7.279z"/>
        <path fill="#091A4C" fill-rule="nonzero" d="M83.295 33.946c-1.09 1.426-2.859 2.14-4.242 3.285-2.59 2.144-2.489 4.989-2.778 8.686-3.21-1.837-5.49-4.555-6.172-8.178-.682-3.624.657-7.655 3.62-9.86 3.202-2.379 7.921-2.29 11.222-.058 3.3 2.233 5.104 6.36 4.842 10.328.247-.809-.216-1.681-.847-2.246-.63-.566-1.417-.925-2.1-1.427-1.628-1.2-2.43-3.066-2.79-4.997.459 1.5.204 3.21-.755 4.467z"/>
        <path fill="#FAAA91" fill-rule="nonzero" d="M71.423 64.058c-.67 1.862-.228 3.925.366 5.816C74.94 79.886 82.387 88.477 91.871 93.04c1.693.818 3.58 1.52 5.417 1.126 1.865-.4 3.306-1.853 4.514-3.322 2.198-2.67 5.352-15.36 7.574-18.178 1.023-1.3 2.193-2.51 2.946-3.98.903-1.77 1.185-3.708 1.355-5.682.008-.076-.034-.148-.104-.179-.07-.03-.151-.012-.202.044-1.324 1.589-4.535 3.91-5.897 4.733l1.084-3.634c-1.377.867-2.626 2.153-3.19 4.099-.46 1.589-.342 3.284-.629 4.913-.48 2.724-5.828 12.17-7.245 12.17-.853 0-1.615-.498-2.298-1-5.827-4.26-10.42-9.979-13.317-16.576-.625-1.427-1.177-2.91-2.116-4.152-2.116-2.798-6.976-3.146-8.34.637z"/>
        <path fill="#091A4C" fill-rule="nonzero" d="M69.877 68.061c1.518-.878 2.444-2.528 2.903-4.216.459-1.688.518-3.453.723-5.19.37-3.136 1.215-6.194 2.005-9.252.507-1.963.868-4.37-.644-5.725-5.078 3.738-8.51 9.379-10.499 15.35-.867 2.602-1.06 5.081.176 7.59.976 1.981 3.371 2.58 5.336 1.443zM82.92 41.01c-.374.001-.734-.137-1.01-.387-.084-.077-.089-.206-.012-.289.077-.083.207-.088.29-.011.303.269.73.349 1.11.208.068-.027.145-.015.203.03.057.046.086.118.075.19-.011.073-.06.134-.128.16-.169.066-.348.1-.528.099zM87.754 41.504c-.253.002-.498-.089-.688-.255-.083-.076-.088-.204-.014-.287.075-.083.203-.09.288-.017.217.18.526.198.763.045.06-.045.14-.054.208-.023.069.03.115.096.12.17.007.075-.03.147-.092.188-.172.118-.376.18-.585.179z"/>
        <path fill="#AABCF0" fill-rule="nonzero" d="M31.062 2.018H69.485V25.330000000000002H31.062z"/>
        <path fill="#E8ECFF" fill-rule="nonzero" d="M34.063 4.45H66.48400000000001V22.897H34.063z"/>
        <path fill="#CED8F7" fill-rule="nonzero" d="M34.063 22.9s6.927-4.554 8.606-5.771c1.678-1.217 4.044-2.432 5.646-1.977 1.602.456 3.815 2.432 3.815 2.432s8.24-7.147 9.996-7.223c1.756-.076 4.358 3.313 4.358 3.313V22.9H34.063z"/>
        <ellipse cx="39.96" cy="8.421" fill="#CED8F7" fill-rule="nonzero" rx="2.098" ry="2.09"/>
        <path fill="#0F1F59" fill-rule="nonzero" d="M82.134 38.121c.525 0 1.418.203 1.92.327.574.14.674-.453.157-.6-.95-.27-1.33-.258-2.058-.107-.18.036-.238.381-.02.38zM89.11 39.273c-.328-.14-.956-.178-1.313-.192-.403-.018-.288-.608.082-.613.681-.007.917.103 1.33.437.107.082.038.425-.099.368z"/>
        <path fill="#E38A78" fill-rule="nonzero" d="M86.368 45.362c-.38-.118-.618-.481-.914-.47-.322.01-.802-.064-1.003-.153-.1-.045-.487-.005-.604-.005-.306 0-.879.11-1.123.056 0 0 .368 1.439 1.346 1.66 2.088.471 2.298-1.088 2.298-1.088z"/>
        <path fill="#D46953" fill-rule="nonzero" d="M85.208 45.746c-.073 0-.146-.005-.219-.017-.84-.146-1.537-.51-2.097-.803-.145-.076-.283-.148-.415-.213-.02-.01-.032-.028-.034-.05-.001-.022.01-.042.027-.054.018-.013.041-.014.06-.005.134.065.272.138.419.214.58.304 1.24.648 2.061.79.575.1 1.56-.312 1.569-.316.031-.013.067.002.08.032.013.031-.001.067-.032.08-.033.016-.819.342-1.419.342z"/>
        <path fill="#E38A78" fill-rule="nonzero" d="M85.096 44.108c-.1 0-.198-.009-.296-.025-.088-.02-.146-.104-.132-.194.014-.09.095-.152.186-.144.338.053.593 0 .738-.148.1-.105.146-.251.123-.394-.06-.32-.098-1.812-.1-1.876-.002-.095.073-.173.169-.176.095-.002.174.073.176.168.01.424.048 1.577.094 1.82.044.253-.035.511-.215.696-.128.132-.356.273-.743.273z"/>
        <path fill="#3A4157" fill-rule="nonzero" d="M41.778 21.591s2.314 3.353 2.035 5.9c0 0-3.081-1.999-6.495-1.395-3.413.603 4.46-4.505 4.46-4.505z"/>
        <ellipse cx="12.348" cy="1.199" fill="#8797D9" fill-rule="nonzero" opacity=".25" rx="12.341" ry="1.185" transform="translate(5.5 102.476)"/>
        <path fill="#CED8F7" fill-rule="nonzero" d="M22.185 104.534h2.808c5.38 0 9.74-4.344 9.74-9.704l-.065-11.17c-.041 4.253-22.263 4.044-22.222-.211v11.38c0 5.36 4.36 9.705 9.74 9.705z"/>
        <path fill="#BDC6E3" fill-rule="nonzero" d="M12.369 83.963l.397.527c1.572 14.022 12.735 16.949 18.14 18.05-1.696 1.295-3.774 1.997-5.91 1.994h-2.808c-2.583 0-5.06-1.022-6.887-2.842s-2.853-4.288-2.853-6.862l-.08-10.867z"/>
        <path fill="#BDC6E3" fill-rule="nonzero" d="M10.26 86.283c0 1.792 5.828 3.245 13.011 3.245 7.184 0 13.01-1.453 13.01-3.245v-4.936c-2.134-1.063-7.912 1.691-13.01 1.691-3.973 0-9.757-2.535-12.148-1.84-1.924.563-.863 4.28-.863 5.085z"/>
        <ellipse cx="23.274" cy="81.344" fill="#543B82" fill-rule="nonzero" rx="13.011" ry="3.244"/>
        <path fill="#3A4157" fill-rule="nonzero" d="M22.647 81.357c-.68-11.947 3.989-30.705 4.036-30.893l.434.109c-.046.187-4.698 18.88-4.022 30.758l-.448.026z"/>
        <path fill="#3A4157" fill-rule="nonzero" d="M22.972 71.608c-.207-8.736.718-17.359 2.75-25.627 1.112-4.544 2.584-8.993 4.401-13.306.228-.548.424-1.021.438-1.12v.018l.447-.02c.007.138-.093.383-.47 1.292-1.808 4.292-3.272 8.72-4.378 13.242-2.022 8.23-2.942 16.813-2.736 25.51l-.452.011z"/>
        <path fill="#3A4157" fill-rule="nonzero" d="M23.393 68.014l-.448-.02c.649-14.712-.048-25.36-2.071-31.65-1.035-3.215-2.36-5.105-3.94-5.618-.145-.047-.308-.1-.316-.282l.447-.02c-.002-.064-.036-.123-.09-.156.032.012.064.024.098.033.286.093.958.312 1.749 1.152.956 1.016 1.79 2.617 2.478 4.755 2.038 6.34 2.743 17.041 2.093 31.806zM22.601 77.24c-.637-14.785-3.4-19.063-5.606-20.047-1.649-.736-3.03.363-3.087.409l-.283-.344c.067-.054 1.642-1.322 3.55-.475 1.458.648 2.677 2.36 3.62 5.088 1.208 3.489 1.97 8.653 2.255 15.35l-.449.02zM41.994 56.502s.821 2.415-.173 4.907c0 0-4.028-6.782-10.04-7.776-6.012-.995.713-4.146.713-4.146l9.5 7.015z"/>
        <path fill="#3A4157" fill-rule="nonzero" d="M21.677 38.136s-5.32-3.132-8.33-2.996c-3.012.137 3.634-5.32 6.288-3.44 2.654 1.88 2.042 6.436 2.042 6.436z"/>
        <path fill="#69C39B" fill-rule="nonzero" d="M28.338 34.477c.1.428.434.764.862.867.43.104.88-.042 1.166-.376 2.123-2.478 6.045-6.87 8.728-8.792 4.35-3.114 3.858-7.027-2.28-7.41-6.14-.383-11.65 2.008-9.798 9.998l1.322 5.713zM16.076 57.326s1.964 4.228-3.56 6.032C4.301 66.042.023 75.487.023 75.487s-.201-6.813 1.313-11.836c1.508-4.989 3.064-8.495 6.32-9.63 3.256-1.135 6.226-1.314 8.42 3.305zM21.34 34.19s-1.46-8.335-11.45-3.848c-6.134 2.755-5.604 13.516-5.604 13.516C7.706 35.5 17.28 33.28 21.341 34.19zM26.169 56.422c1.887-1.818 7.305-5.573 15.825.082 0 0-.764-7.47-8.108-8.827-6.927-1.28-8.189 2.2-8.437 8.424-.006.172.093.331.251.401.158.071.343.04.469-.08zM23.12 65.845s4.78-3.19 6.164 3.66c1.385 6.849 2.503 9.603 2.503 9.603S23.182 76.266 22.2 73.1c-.982-3.167-1.093-6.74.92-7.255z"/>
        <path fill="#33458F" fill-rule="nonzero" d="M1.288 69.599H1.27c-.04-.01-.065-.05-.056-.09 1.026-4.335 4.25-7.796 6.775-9.938 1.632-1.39 3.402-2.61 5.281-3.644.037-.019.082-.004.101.032.02.037.005.082-.032.1-.025.013-2.537 1.32-5.253 3.628-2.506 2.126-5.708 5.561-6.724 9.856-.009.034-.04.057-.075.056zM29.283 33.116h-.012c-.04-.006-.067-.042-.062-.082.358-2.031.896-4.027 1.607-5.964 1.067-2.878 2.973-6.6 5.992-7.978.036-.013.076.004.092.04.016.034.003.076-.03.095-1.642.749-3.999 2.726-5.91 7.893-.708 1.928-1.244 3.915-1.6 5.937-.008.036-.04.061-.077.06zM29.91 77.824c-.018 0-.035-.007-.049-.018-.025-.022-2.557-2.209-3.283-5.38-.716-3.137-2.725-6.423-2.745-6.455-.015-.023-.016-.052-.004-.076.013-.024.037-.04.064-.041.027-.001.053.012.068.035.02.033 2.04 3.34 2.763 6.5.713 3.123 3.209 5.28 3.233 5.3.024.02.032.053.022.083-.011.029-.039.048-.07.048v.004z"/>
        <circle cx="73.99" cy="40.29" r="1" fill="#CED8F7" fill-rule="nonzero"/>
        <path fill="#CED8F7" fill-rule="nonzero" d="M85.418 65.419c-.14 0-.275-.054-.377-.15-1.024-.958-1.642-2.254-2.247-3.507-.257-.537-.523-1.092-.816-1.608-.125-.245-.246-.496-.37-.743l-.016-.03c-.354-.715-.755-1.523-1.206-2.248-1.061-1.627-2.294-2.855-3.6-4.156-2.358-2.35-2.556-5.562-2.747-8.675-.029-.476-.06-.969-.097-1.441-.014-.258-.025-.512-.031-.76-.025-.913.005-1.483.006-1.489l.164.01c0 .004-.03.572-.005 1.472.006.245.017.498.03.753.038.47.068.965.098 1.442.19 3.079.385 6.264 2.7 8.57 1.313 1.308 2.55 2.54 3.622 4.183.456.736.859 1.546 1.214 2.262l.016.032.368.736c.294.517.561 1.075.82 1.614.595 1.24 1.21 2.522 2.21 3.459.11.105.27.137.411.081.138-.052.232-.18.24-.327.131-1.957-.23-3.997-.612-5.919-.087-.278-.186-.576-.305-.909-.17-.475-.357-.962-.538-1.432-.643-1.67-1.307-3.398-1.336-4.989-.022-.274-.029-.549-.019-.823.024-.554.132-1.021.322-1.39l.146.074c-.179.346-.28.79-.303 1.32-.01.27-.004.54.018.808.028 1.568.687 3.282 1.325 4.939.182.472.37.959.54 1.436.12.337.221.638.308.92v.009c.385 1.933.749 3.986.616 5.964-.014.21-.147.392-.343.468-.066.028-.136.042-.206.044z"/>
        <path fill="#D84E55" d="M51.375 31.386c-.082-.54-.291-1.04-.438-1.564-.143-.509-.11-.995.006-1.506l-.165-.082-1.592 4.035c-.074.187-.149.375-.222.563-.261-.475-1.159-.782-1.607-.409-.26.218-.19.558.026.776.236.223.542.358.867.383.302.027.599-.07.728-.362.099-.225.183-.457.275-.685l.944-2.357.03-.072c.53.337.85.962.874 1.585.025.65-.367 1.046-.856 1.41l-.255.189.093.053c.361-.203.733-.426.985-.764.268-.356.332-.755.307-1.193zM83.661 10.305c-.425.152-.344.787-.246 1.117.136.452.418.832.738 1.174-.316.6-.76 1.35-.231 1.97.45.526 1.254.723 1.916.572.112-.025.222-.06.328-.107.177.197.613.54.529.854-.082.292-.581.388-.815.27.084-.015.162-.051.227-.106l.023-.026.017-.027.013-.027.007-.028v-.056l-.007-.03c-.147-.398-1.007-.275-.802.188.247.383.95.32 1.282.101.532-.349-.098-.88-.35-1.185.229-.135.446-.327.435-.62-.016-.23-.127-.442-.305-.587-.361-.302-.86-.38-1.296-.203l-.453-.54c.586-.911.004-2.388-1.012-2.706l.002.002zm2.21 3.598c.214.04.404.163.529.341l.044.117.02.107-.005.1-.027.09-.05.082-.072.074-.095.067-.798-.966c.148-.037.303-.041.454-.012zm-.88-.284c-.269.181-.41.502-.268.81.18.307.541.387.873.374-.003-.008-.008-.016-.013-.023l-.006-.006-.008-.006h-.012c-.213-.008-.492-.126-.546-.355l-.006-.041v-.043c.03-.158.132-.293.278-.363l.81.98c-.59.261-1.47.246-1.852-.362-.24-.524.04-1.015.352-1.445l.396.485.002-.005zm-.911-2.708c.278-.032.41.354.426.568.025.318-.041.755-.272.995-.35-.318-.52-.79-.45-1.257.008-.042.022-.082.04-.121l.03-.05.034-.042.04-.035.046-.027c.033-.018.069-.03.106-.036v.005zM44.615 38.22c-.306-.328-.861-.007-1.126.213-.365.303-.604.71-.795 1.137-.678-.055-1.545-.169-1.91.56-.31.62-.177 1.433.221 1.98.067.095.143.182.228.26-.113.24-.258.774-.582.819-.3.041-.586-.381-.568-.641.047.07.111.126.187.163l.032.01.032.006H40.392l.027-.01.026-.012.023-.02c.311-.289-.14-1.03-.486-.66-.258.374.076.996.41 1.215.532.35.775-.435.958-.785.215.156.48.279.744.155.205-.104.357-.29.421-.51.137-.449.014-.937-.32-1.268l.322-.627c1.067.18 2.206-.931 2.1-1.987l-.002.001zm-2.453 3.434c.047.213.008.435-.108.619l-.09.081-.092.061-.093.035-.094.01-.095-.012-.098-.038-.099-.06.575-1.111c.092.121.157.26.19.409l.004.006zm-.082-.917c-.273-.176-.626-.183-.853.071-.213.286-.145.649 0 .948l.016-.021V41.706c-.075-.2-.082-.503.113-.64l.037-.022.039-.015c.158-.036.323.005.445.112l-.587 1.126c-.47-.44-.803-1.253-.39-1.84.39-.426.953-.36 1.471-.246l-.291.554v.002zm2.144-1.897c.138.246-.165.515-.358.614-.284.147-.714.258-1.026.14.157-.447.526-.786.985-.906.042-.008.085-.011.128-.01l.057.007.053.015.047.024.044.031c.027.024.05.053.07.084v.001zM100.576.13l1.367 3.068c-.388.004-.668.539-.72.854-.03.184 0 .468.246.465.246-.003.463-.272.575-.469.102-.167.155-.361.15-.557-.01-.142-.089-.276-.146-.403-.205-.468-.412-.935-.618-1.402.318-.074.676-.081.966.089.328.196.368.616.355.96l.068-.023c.028-.462-.071-.9-.502-1.145-.191-.1-.393-.18-.602-.238-.189-.06-.42-.115-.554-.272l-.031-.045-.073-.163c.474-.092 1.022.056 1.271.49l.076-.053c-.164-.337-.437-.536-.784-.668-.299-.113-.703-.181-.877-.48l-.037-.082-.13.074zM93.638 52.247l1.369 3.068c-.388 0-.668.539-.72.855-.031.183 0 .467.245.464.247-.003.463-.272.575-.469.102-.168.154-.361.151-.557-.01-.142-.09-.276-.146-.403l-.62-1.402c.319-.075.677-.081.966.089.329.196.369.616.356.96l.068-.023c.028-.462-.072-.9-.503-1.145-.19-.1-.393-.18-.601-.239-.189-.059-.42-.113-.554-.27l-.03-.045-.074-.164c.475-.092 1.021.056 1.271.49l.075-.052c-.164-.338-.436-.537-.783-.67-.3-.112-.703-.18-.877-.48l-.037-.081-.131.074zM63.62 48.898c-.185-.646-.624-1.063-1.28-1.236-.303-.073-.61-.127-.92-.163-.29-.04-.625-.06-.877-.225l-.055-.046-.142-.174c.68-.185 1.494-.116 2.037.362l.104-.075c-.364-.375-.82-.544-1.33-.629-.44-.074-1.052-.043-1.396-.372l-.066-.082-.158.107 2.798 3.442c-.465.024-.805.512-.903.924-.07.308-.03.742.306.882.305.128.64-.081.83-.311.176-.209.286-.465.315-.736.025-.287-.075-.491-.247-.705l-1.547-1.894c.47-.134 1.013-.196 1.485-.043.57.185.848.644.971 1.201l.11-.038-.035-.189zM106.429 21.727c-.404-1.41-1.363-2.324-2.79-2.699-.662-.16-1.333-.281-2.01-.362-.634-.086-1.365-.131-1.915-.491l-.12-.1-.31-.38c1.486-.403 3.263-.254 4.447.79l.23-.163c-.795-.818-1.798-1.188-2.907-1.374-.96-.163-2.299-.093-3.044-.812l-.144-.177-.348.234 6.106 7.517c-1.015.052-1.758 1.118-1.964 2.018-.154.674-.066 1.62.667 1.927.666.278 1.396-.18 1.814-.682.386-.458.625-1.02.686-1.616.056-.625-.164-1.07-.543-1.536l-3.378-4.135c1.024-.294 2.21-.43 3.241-.095 1.245.402 1.853 1.404 2.122 2.622l.239-.082-.079-.404zM113.674 10.278l-1.502 1.07c-.032-.284-.184-.54-.42-.704l-.046-.02-.044-.01h-.042l-.04.014-.037.024-.028.027-.022.03-.017.037c-.106.333.11.74.403.9l.051.018.048.008h.048l.044-.012c.193-.117.38-.244.56-.38l.602-.414 1.306 1.145-1.007.54c-.048-.34-.237-.646-.52-.841l-.06-.028-.054-.015h-.053l-.049.01-.046.023-.034.026-.027.032-.021.038-.016.042c-.082.404.204.884.574 1.049l.06.016h.06l.057-.008c.08-.034.16-.073.237-.115l.523-.269 1.182-.607.216-.112-1.886-1.514zM102.768 39.506l-1.975 2.368c-.246-.42-.896-.491-1.289-.27-.172.131-.276.272-.246.486.175.686 1.195.61 1.567.164l1.544-1.864 2.434.012-1.15 1.46c-.304-.425-.995-.526-1.46-.35-.227.125-.383.302-.319.572.234.63 1.173.688 1.673.385l.087-.071c.41-.454.766-.967 1.143-1.449l1.171-1.498-3.18.055zM92.02 26.695c-.007-.02-.02-.039-.038-.051-.055-.038-.126-.042-.184-.01-.013.007-.023.017-.032.03v.017c-.003.016 0 .033.009.048.038.05.102.074.164.061.015-.003.03-.007.045-.014.012-.006.023-.014.032-.025l.006-.008.005-.011v-.006c.003-.01.003-.02 0-.03h-.008zm-.392-.018c-.023-.21-.224-.355-.417-.397-.186-.04-.379-.02-.553.054-.093.039-.164.117-.194.213-.03.092.02.19.112.22.102.04.216.03.311-.023.038-.015.069-.046.084-.084.016-.038.015-.08-.002-.119-.035-.05-.09-.086-.151-.098-.011-.002-.022-.007-.03-.013l-.012-.012-.005-.009v-.015l.005-.014.008-.011.013-.012c.083-.038.176-.046.264-.025.1.015.187.072.24.156.117.194-.032.43-.174.565-.174.154-.382.266-.606.328-.1.03-.203.056-.307.075-.054.011-.109.018-.164.024-.027 0-.055.003-.082.007-.025.006-.063.04-.019.053.212.013.425-.013.627-.076.23-.06.45-.15.657-.267.181-.106.415-.285.391-.521l.004.001zm.305.4v.02c-.002.01-.005.02-.01.03-.01.015-.025.028-.042.036-.015.008-.03.013-.047.016-.066.012-.132-.015-.17-.07-.016-.031-.009-.07.017-.094.005-.005.01-.01.016-.013.063-.035.14-.03.197.012.02.016.033.038.039.062zM60.23 35.456c-.012-.042-.038-.078-.073-.104-.11-.075-.253-.083-.372-.022-.025.016-.046.037-.063.061-.002.007-.005.013-.008.018l-.006.018c-.006.033 0 .066.015.096.077.1.204.148.329.124.03-.005.06-.015.09-.028.024-.012.047-.03.065-.051l.011-.016.011-.022v-.014c.005-.02.005-.04 0-.06h.002zm-.786-.037c-.046-.422-.452-.714-.84-.799-.372-.079-.76-.041-1.11.109-.173.082-.349.237-.392.43-.058.184.043.38.227.442.205.078.434.06.626-.047.14-.082.25-.251.157-.409-.07-.104-.18-.175-.304-.197-.023-.005-.044-.014-.063-.027-.008-.007-.016-.015-.023-.024l-.009-.018V34.85l.01-.03.017-.022.026-.024c.133-.09.383-.082.53-.05.2.03.376.144.485.313.233.392-.066.867-.352 1.139-.337.321-.778.52-1.217.66-.203.062-.41.113-.618.153-.11.02-.22.035-.329.048-.053.002-.106.006-.158.014-.05.011-.126.082-.037.107.42.045.857-.044 1.262-.153.463-.12.908-.301 1.324-.538.366-.212.837-.573.788-1.049v.001zm.613.804v.04c-.004.02-.01.04-.02.06-.021.03-.05.057-.083.074-.03.015-.063.026-.096.032-.132.025-.266-.03-.342-.14-.031-.064-.017-.14.034-.19.01-.01.022-.019.034-.027.125-.07.279-.06.394.025.04.031.068.076.079.126z"/>
    </g>
</svg>
