<svg xmlns="http://www.w3.org/2000/svg" width="32" height="32" viewBox="0 0 32 32">
    <g fill="none" fill-rule="evenodd">
        <g>
            <g>
                <g transform="translate(-32 -477) translate(16 376) translate(16 101.784)">
                    <ellipse cx="16" cy="15.364" stroke="#2F97FC" rx="15.5" ry="14.864"/>
                    <g fill="#0B7ABF">
                        <path d="M3.833 12.459c0 .22.187.4.417.4.23 0 .417-.18.417-.4 0-.221-.187-.4-.417-.4-.23 0-.417.179-.417.4zm7.517 0c0 .22.187.4.417.4.23 0 .416-.18.416-.4 0-.221-.186-.4-.416-.4-.23 0-.417.179-.417.4zM8 8.463c2.072 0 3.75-1.612 3.75-3.6 0-1.989-1.678-3.601-3.75-3.601-2.07 0-3.75 1.612-3.75 3.6 0 1.99 1.68 3.601 3.75 3.601zM8 .462c2.533 0 4.583 1.97 4.583 4.4 0 2.432-2.05 4.402-4.583 4.402-2.53 0-4.583-1.97-4.583-4.401C3.417 2.433 5.469.462 8 .462zm5.833 14.803h-1.666v.4c0 .221.186.4.416.4h.834c.23 0 .416-.179.416-.4v-.4zm-.816-2.806c0-.663-.56-1.2-1.25-1.2s-1.25.537-1.25 1.2c0 .662.56 1.2 1.25 1.2s1.25-.538 1.25-1.2zm-3.764.005h-2.5c-.23 0-.416.18-.416.4 0 .221.186.4.416.4h2.5c.231 0 .417-.179.417-.4 0-.22-.186-.4-.417-.4zM4.25 11.26c-.69 0-1.25.537-1.25 1.2 0 .662.56 1.2 1.25 1.2s1.25-.538 1.25-1.2c0-.663-.56-1.2-1.25-1.2zm-.417 4.006H2.167v.4c0 .221.187.4.416.4h.834c.23 0 .416-.179.416-.4v-.4zm10.799-6.66c.023.506.035.86.035 1.062v5.998c0 .664-.559 1.2-1.25 1.2h-.834c-.69 0-1.25-.536-1.25-1.2v-.4H4.667v.4c0 .664-.56 1.2-1.25 1.2h-.834c-.69 0-1.25-.536-1.25-1.2V9.667c0-.399.048-1.39.142-2.972l.11-2.94c0-.767.196-1.198.587-1.293h.834c0 .323-.204.62-.522.743-.039.105-.066.293-.067.578l-.204 5.48c0 .221.186.4.417.4h10.758c.23-.007.41-.192.402-.413l-.22-6.037c-.317-.113-.543-.407-.543-.751h.834c.287 0 .525.22.535.497l.142 3.938.094 1.709zm-3.805-4.684l-.998-1.059-2.264 2.8-1.576-1.113-.766 1.113L7.565 7.23l3.262-3.31zm5.084.07c-.035-.187-.205-.329-.411-.329-.23 0-.417.18-.417.4v1.6l.007.073c.036.186.206.328.41.328.23 0 .417-.18.417-.4v-1.6l-.006-.073zM.917 4.061v1.6c0 .222-.186.4-.417.4-.204 0-.374-.14-.41-.327l-.007-.072v-1.6c0-.221.188-.4.417-.4.205 0 .375.14.41.327l.007.072z" transform="translate(8 6.722)"/>
                    </g>
                </g>
            </g>
        </g>
    </g>
</svg>
