<?xml version="1.0" encoding="UTF-8"?>
<svg width="24px" height="24px" viewBox="0 0 24 24" version="1.1" xmlns="http://www.w3.org/2000/svg" xmlns:xlink="http://www.w3.org/1999/xlink">
    <title>ic-gst-invoice</title>
    <g id="mWeb-Home-Page" stroke="none" stroke-width="1" fill="none" fill-rule="evenodd">
        <g id="ic-gst-invoice" fill="#1446A0" fill-rule="nonzero">
            <path d="M20,2 C21.1045695,2 22,2.8954305 22,4 L22,20 C22,21.1045695 21.1045695,22 20,22 L4,22 C2.8954305,22 2,21.1045695 2,20 L2,15 C2,14.4477153 2.44771525,14 3,14 L5,14 L5,4 C5,2.8954305 5.8954305,2 7,2 L20,2 Z M20,3 L7,3 C6.48716416,3 6.06449284,3.38604019 6.00672773,3.88337887 L6,4 L6,21 L20,21 C20.5128358,21 20.9355072,20.6139598 20.9932723,20.1166211 L21,20 L21,4 C21,3.48716416 20.6139598,3.06449284 20.1166211,3.00672773 L20,3 Z M5,15 L3,15 L3,20 C3,20.5522847 3.44771525,21 4,21 C4.51283584,21 4.93550716,20.6139598 4.99327227,20.1166211 L5,20 L5,15 Z M12.5,17 C12.7761424,17 13,17.2238576 13,17.5 C13,17.7454599 12.8231248,17.9496084 12.5898756,17.9919443 L12.5,18 L8.5,18 C8.22385763,18 8,17.7761424 8,17.5 C8,17.2545401 8.17687516,17.0503916 8.41012437,17.0080557 L8.5,17 L12.5,17 Z M18.5,17 C18.7761424,17 19,17.2238576 19,17.5 C19,17.7454599 18.8231248,17.9496084 18.5898756,17.9919443 L18.5,18 L14.5,18 C14.2238576,18 14,17.7761424 14,17.5 C14,17.2545401 14.1768752,17.0503916 14.4101244,17.0080557 L14.5,17 L18.5,17 Z M18.5,14 C18.7761424,14 19,14.2238576 19,14.5 C19,14.7761424 18.7761424,15 18.5,15 L8.5,15 C8.22385763,15 8,14.7761424 8,14.5 C8,14.2238576 8.22385763,14 8.5,14 L18.5,14 Z M13.1,5 L12.5366864,5.96568047 L11.4502959,5.96568047 L11.460355,5.98579882 C11.4925444,6.03944773 11.5354635,6.13601578 11.5891124,6.27550296 L11.6313609,6.38816568 L13.0295858,6.38816568 L12.4461538,7.32366864 L11.6816568,7.32366864 C11.6414201,7.51143984 11.5642998,7.72268245 11.4502959,7.95739645 C11.2692308,8.29940828 11.0261341,8.5642998 10.7210059,8.75207101 C10.4769034,8.90228797 10.2317278,9.01602367 9.98547929,9.09327811 L9.80059172,9.1443787 L12.2650888,12.0414201 L10.9473373,12.0414201 L10.8568047,11.9307692 L9.72422413,10.6158918 L8.71420118,9.46627219 L8.71420118,9.45621302 L8.34201183,9.02366864 L8.34201183,8.2591716 L8.66390533,8.2591716 C8.87850099,8.2591716 9.05621302,8.25246548 9.19704142,8.23905325 C9.63293886,8.21893491 9.97830375,8.09822485 10.2331361,7.87692308 C10.3672584,7.76426036 10.4756292,7.6237002 10.5582485,7.4552426 L10.6153846,7.32366864 L8,7.32366864 L8.59349112,6.38816568 L10.5349112,6.38816568 L10.5047337,6.34792899 C10.3840237,6.18698225 10.2800789,6.08303748 10.1928994,6.03609467 C10.1347798,6.00479947 10.0677186,5.98393601 9.99171598,5.97350427 L9.87100592,5.96568047 L8.02011834,5.96568047 L8.59349112,5 L13.1,5 Z M18.5,11 C18.7761424,11 19,11.2238576 19,11.5 C19,11.7761424 18.7761424,12 18.5,12 L14.5,12 C14.2238576,12 14,11.7761424 14,11.5 C14,11.2238576 14.2238576,11 14.5,11 L18.5,11 Z M18.5,8 C18.7761424,8 19,8.22385763 19,8.5 C19,8.77614237 18.7761424,9 18.5,9 L14.5,9 C14.2238576,9 14,8.77614237 14,8.5 C14,8.22385763 14.2238576,8 14.5,8 L18.5,8 Z M18.5,5 C18.7761424,5 19,5.22385763 19,5.5 C19,5.77614237 18.7761424,6 18.5,6 L15.5,6 C15.2238576,6 15,5.77614237 15,5.5 C15,5.22385763 15.2238576,5 15.5,5 L18.5,5 Z" id="Shape"></path>
        </g>
    </g>
</svg>