<svg xmlns="http://www.w3.org/2000/svg" width="100" height="100" viewBox="0 0 100 100">
    <g fill="none" fill-rule="evenodd">
        <path fill="#EFF2FB" fill-rule="nonzero" d="M47.574 7.768c.424-.3.807-.654 1.139-1.052.542-.548 1.127-1.053 1.638-1.59l.532-.579c.149-.168.32-.315.457-.484.108-.132.204-.273.288-.42.074-.117.074-.232.138-.348-.25.382-.543.735-.872 1.052-1.064 1.053-2.128 2.106-3.256 3.158h-.053V5.6v-.937c-.064-.62.83-1.21 1.255-1.537l1.351-1.052c.427-.282.822-.607 1.181-.969-.744.516-1.468 1.053-2.191 1.59-.519.413-1.059.8-1.617 1.158-.196.21-.467.339-.755.358-.203-.042-.402-.098-.596-.169-.447-.116-.894-.253-1.33-.379-.883-.278-1.792-.468-2.713-.568-.17.82-.213 1.661-.127 2.494.035.953.462 1.85 1.18 2.485.654.411 1.444.555 2.203.4.612-.104 1.211-.274 1.787-.506.127-.053.248-.12.361-.2z"/>
        <path stroke="#E0DFDF" stroke-linecap="round" stroke-width=".25" d="M42.66 4.21c.78.084 1.549.243 2.297.474M42.66 5.442c.744.053 1.478.095 2.223.126M42.872 6.442c.661.125 1.34.125 2 0"/>
        <ellipse cx="43.979" cy="97.074" fill="#EEEFF0" fill-rule="nonzero" rx="19.713" ry="2.253"/>
        <path fill="#FFC864" fill-rule="nonzero" d="M7.383 37.632c-5.91 4.323-8.549 11.78-6.656 18.806 1.892 7.026 7.93 12.195 15.23 13.036 4.04.47 7.294 3.5 8.011 7.463 1.13 6.302 5.319 11.651 11.202 14.31 5.884 2.659 12.713 2.287 18.266-.994 5.075-3.01 6.851-8.148 13.585-7.864 2.015.005 4.022.245 5.979.716 2.394.684 4.255 1.716 6.862 1.484 2.76-.193 5.26-1.685 6.723-4.01 1.979-3.442 2.234-7.368 5.798-9.874.884-.522 1.809-.973 2.766-1.347 5.021-2.505 6.042-9.621 3.191-14.074-1.102-1.703-2.774-2.97-4.723-3.579-2.75-.872-4.954-2.926-6-5.59-.507-1.337-1.156-2.618-1.936-3.82-2.146-3.283-5.242-5.85-8.883-7.369-3.229-1.313-5.434-4.314-5.702-7.758-.372-5.796-4.605-10.636-10.35-11.831-5.744-1.196-11.59 1.547-14.289 6.705-1.11 2.075-2.966 3.664-5.202 4.453-1.55.57-3.034 1.304-4.425 2.19-1.565 1.006-2.995 2.205-4.256 3.568-2.38 2.602-6.043 3.646-9.457 2.694-5.38-1.596-11.205-.603-15.734 2.685z" opacity=".43"/>
        <path fill="#2E304B" fill-rule="nonzero" d="M28.723 93.684l-.936.916c-.459.517-.434 1.298.058 1.785.492.486 1.281.512 1.804.057l.936-.916c.513-.509.513-1.332 0-1.842-.246-.246-.581-.385-.93-.385-.35 0-.686.139-.932.385zM42.553 93.684l-.936.916c-.46.517-.434 1.298.058 1.785.492.486 1.281.512 1.804.057l.936-.916c.512-.509.512-1.332 0-1.842-.246-.246-.581-.385-.931-.385-.35 0-.685.139-.93.385z"/>
        <path fill="#E8AA81" fill-rule="nonzero" d="M29.149 41.958c-.254-.115-.545-.113-.798.005-.252.117-.439.339-.51.605v.106c-.089.337.022.695.287.926l.67.768c.221.275.338.618.33.969v.474c0 .494.468 1.052.819.989.082-.013.156-.058.204-.126.048-.067.067-.15.051-.232l-.5-3.758c-.045-.32-.254-.595-.553-.726z"/>
        <path fill="#533880" fill-rule="nonzero" d="M37.851 67.568h-.617l-.383-4.01c-.058-.572-.492-1.036-1.064-1.137-1.751-.388-3.568-.388-5.319 0-.528.115-.886.604-.83 1.137l.383 4.01h-.67l-.49-5.263c-.102-.826.445-1.596 1.267-1.779 1.856-.41 3.781-.41 5.638 0 .868.187 1.516.905 1.606 1.78l.48 5.262z"/>
        <path fill="#533880" fill-rule="nonzero" d="M45.479 94.874H31.564c-1.568-.05-2.866-1.219-3.064-2.758l-2.351-25.084c-.08-.716.157-1.432.65-1.96.495-.53 1.197-.821 1.924-.798h13.894c1.578.022 2.892 1.205 3.064 2.758l2.34 25.084c.08.71-.153 1.42-.64 1.948s-1.18.823-1.902.81z"/>
        <path fill="#614288" fill-rule="nonzero" d="M24.287 64.274c-.76-.014-1.49.297-2.004.853-.513.556-.76 1.303-.677 2.052l2.32 24.779c.165 1.506 1.353 2.704 2.872 2.895.35-11.285 2.723-22.106 9.574-30.527l-12.085-.052z"/>
        <path fill="#614288" fill-rule="nonzero" d="M37.904 64.274h-1.532c-6.85 8.42-9.223 19.294-9.574 30.579H40.755c.765.017 1.5-.294 2.016-.853.515-.559.762-1.311.676-2.063l-2.32-24.758c-.181-1.633-1.562-2.878-3.223-2.905z"/>
        <path fill="#533880" fill-rule="nonzero" d="M35.383 66.368h-8.32c-.346-.008-.632-.27-.67-.61-.018-.156.032-.312.138-.429.106-.116.257-.183.416-.182h8.33c.346.009.633.27.67.61.018.159-.033.316-.141.433-.108.118-.263.183-.423.178z"/>
        <path fill="#667A8A" fill-rule="nonzero" d="M25.149 46.316l1.808 19.347c.022.21.202.37.415.369.097 0 .19-.04.256-.11.067-.07.101-.163.095-.259l-1.808-19.347h-.766zM32.638 46.316l1.809 19.347c.03.206.205.36.415.369.098.003.192-.035.26-.106.067-.07.1-.166.09-.263l-1.808-19.347h-.766z"/>
        <path fill="#556676" fill-rule="nonzero" d="M29.245 46.147c1.231 0 2.459.137 3.66.41.259.094.548.047.765-.122.216-.17.33-.437.298-.709-.058-.48-.468-.845-.957-.852h-7.734c-.224-.005-.438.086-.59.25-.15.163-.222.383-.198.602.03.268.174.511.394.67.221.158.5.217.766.162 1.178-.277 2.385-.415 3.596-.41z"/>
        <path fill="#E8AA81" fill-rule="nonzero" d="M29.043 42.674c4.063-3.032 9.883-6.39 11.414-8.8 1.532-2.41-.276-3.632-1.648-3.432-2.564.38-7.32 7-10.352 10.526-3.244 3.695.586 1.706.586 1.706z"/>
        <path fill="#E8AA81" fill-rule="nonzero" d="M27.18 42.81l-.584 3.053c-.022.111-.022.226 0 .337l2.127 1.421c1.32 0 .67-1.2.851-1.484l-.393-.8c.631-.821.631-1.958 0-2.78-.702-.8-1.309-.504-1.638-.23-.175.114-.303.285-.362.484z"/>
        <path fill="#223056" fill-rule="nonzero" d="M44.68 40.19c-9.68.536-5.903 25.4-5.914 29.473-.01 4.074 2.851 7.916 6.074 0 3.224-7.916 6.639-20.726 3.862-24.968-2.776-4.242-4.021-4.506-4.021-4.506"/>
        <path fill="#E8AA81" fill-rule="nonzero" d="M38.968 91.011L39.096 94.442 36.66 96.232 41.766 96.442 41.362 94.484 41.734 89.884z"/>
        <path fill="#223056" fill-rule="nonzero" d="M40.266 68.421c5.628.19 5.585 6.884 4.83 10.526-.756 3.642-3.479 15.264-3.479 15.264l-3.32-.232s-.265-20.137.107-22.642c.373-2.505 1.862-2.916 1.862-2.916zM51.83 40.684c-9.575 1.61-2.968 25.895-2.51 29.948.457 4.052 3.733 7.547 6.042-.685 2.308-8.231 4.255-21.336.978-25.263-3.276-3.926-4.51-4.02-4.51-4.02"/>
        <path fill="#E8AA81" fill-rule="nonzero" d="M52.074 91.126L52.181 96.042 54.17 96.232 54.872 90.042z"/>
        <path fill="#223056" fill-rule="nonzero" d="M51.18 68.421c5.607-.274 6.15 6.39 5.692 10.063-.457 3.674-2.127 15.474-2.127 15.474l-3.298.053s-1.979-20-1.82-22.569c.16-2.568 1.554-3.02 1.554-3.02z"/>
        <path fill="#323346" fill-rule="nonzero" d="M51.766 95.105L54.755 95.116 57.128 98.179 51.436 98.221z"/>
        <path fill="#82BB99" fill-rule="nonzero" d="M43.766 37.779c-.89-.029-1.676-.586-1.99-1.41-.247-.469-.54-.913-.872-1.327-.02-.032-.05-.058-.085-.074h-.117l-9.276 6.316c-.582.458-1.427.374-1.905-.19-.209-.205-.381-.443-.51-.705-.091-.137-.14-.298-.139-.463.017-.09.046-.18.085-.263 1.176-2.003 2.7-3.784 4.5-5.263l2.405-2.284 1.255-1.19c.17-.168.84-1.052 1.064-1.052.403-.323.714-.744.904-1.221.08-.393.08-.797 0-1.19-.202-1.674-.372-3.358-.596-5.031-.274-1.205-.143-2.465.373-3.59.438-.688 1.128-1.182 1.925-1.379.854-.363 1.825-.34 2.66.063.645.533 1.07 1.283 1.191 2.106.809 4.21 1.202 13.568.617 16.063-.585 2.494-1.489 2.084-1.489 2.084z"/>
        <path fill="#82BB99" fill-rule="nonzero" d="M55.745 18.253c-1.49-.937-4.351-1.316-6.585-1.41h-1.49c-2.667.106-5.3.62-7.808 1.525-1.681.821-.245 1.527-.245 3.369v22.968c2.65.666 5.373.995 8.106.98h1.596c2.321-.116 4.564-.867 6.479-2.17l.468-21.41c0-1.726.947-2.947-.521-3.852z"/>
        <path fill="#E8AA81" fill-rule="nonzero" d="M50.117 18.758c.56-.411.94-1.017 1.064-1.695.01-.02.01-.043 0-.063h-.117c-.29-.006-.576-.07-.84-.19-.242-.082-.492-.138-.745-.168-.61-.123-1.23-.194-1.851-.21-.466.013-.929.07-1.383.168-.42.064-.833.167-1.234.305l-.213.116c-.27.325-.331.773-.16 1.158.147.325.392.598.702.779.694.421 1.495.637 2.309.62.833.056 1.66-.167 2.351-.63l.117-.19z"/>
        <path fill="#323346" fill-rule="nonzero" d="M42.043 98.042l-.447-2.937s-.15.79-1.522.79c-.7.019-1.363-.304-1.776-.863l-5.904 1.663-.48 1.347 8.692.558 1.437-.558z"/>
        <path fill="#E0DFDF" fill-rule="nonzero" d="M30.149 98.042H42.043V99.042H30.149zM51.436 98.042H57.127V99.042H51.436zM30.149 98.042c0-1.547 2.234-1.347 2.234-1.347l.51 1.347H30.15z"/>
        <path fill="#FFF" fill-rule="nonzero" d="M34.574 95.968L34.766 96.611 35.106 96.484 34.84 95.895zM35.564 95.674L35.766 96.305 36.096 96.179 35.83 95.589zM36.553 95.368L36.755 96 37.085 95.874 36.819 95.295zM52.5 95.611L54.5 95.579 54.33 95.389 52.447 95.463zM52.713 96.547L54.702 96.516 54.543 96.326 52.66 96.4zM54.447 96.053L52.447 96.021 52.617 95.842 54.5 95.905zM37.543 95.063L37.745 95.705 38.074 95.579 37.809 94.989z"/>
        <path fill="#E0DFDF" fill-rule="nonzero" d="M51.436 98.042c0-.705.596-1.242 2.532-1.231 1.936.01 3.192.368 3.192 1.231 0 .863-3.011.337-3.011.337l-2.713-.337z"/>
        <path fill="#E8AA81" fill-rule="nonzero" d="M50.234 6.084L45.585 7 45.585 18.463 50.234 18.463z"/>
        <path fill="#E8AA81" fill-rule="nonzero" d="M51.553 8.663l-.074-.116c.617-.768.883-.842.766-2.62-.224-3.159-4.064-2.99-5.915-3.064-3.298-.126-5.32 10.032-3.596 11.38 1.723 1.346 6.479-.317 6.84-1.59.203-.716.394-1.306.586-1.8.499.09 1.006-.115 1.297-.527.426-.558.554-1.326.096-1.663z"/>
        <path fill="#2C314B" fill-rule="nonzero" d="M43.138.221c-2.361.737-2.744 2.105-2.223 3.379.521 1.274 1.223 2.716 4.649 2.547.919-.063 1.824.247 2.507.859.682.612 1.083 1.472 1.11 2.383h.574s0-.926.766-1.105c.766-.179 1.128.4.958 1.105-.17.706-1.234 1.306-1.234 1.306v.484c.887-.013 1.681-.547 2.021-1.358.521-1.358 0-1.937.479-2.726.478-.79 1.521-1.348 1.064-3.221-.458-1.874-3.894-2.58-6.915-2.19-3.022.39-3.756-1.463-3.756-1.463z"/>
        <path fill="#296694" fill-rule="nonzero" d="M51.99 60.347c-.055.115-.14.213-.245.285-.262.147-.576.178-.862.084-.282-.101-.556-.225-.82-.369-.987-.48-2.04-.813-3.127-.99-.287 0-.66-.115-.691-.4.001-.114.034-.227.095-.325l.639-1.295c.9-2.066 1.405-4.279 1.49-6.526.12-2.554.44-5.095.957-7.6.075-.364.193-.717.35-1.053.466-.276 1.03-.334 1.543-.158.755.242.958 1.179 1.064 1.958.283 2.699.386 5.414.308 8.126-.047 1.378-.175 2.753-.382 4.116-.095 1.05-.127 2.104-.096 3.158.011.343-.065.684-.224.99z"/>
        <path fill="#E8AA81" fill-rule="nonzero" d="M50.277 43.642c-.703-.453-3.734 1.958-4.064 3.032-.33 1.073 2.404 2.105 3.191 2.326 1.224.284 1.926-4.684.873-5.358z"/>
        <path fill="#82BB99" fill-rule="nonzero" d="M61.309 36.663c-1.766.684-3.064-1.052-4.628-4.558-1.564-3.505-5.15-5.705-5.617-9.642-.468-3.937 4.255-6.41 6.255-2.61 2 3.8 4.745 11.79 4.904 14.347.16 2.558-.914 2.463-.914 2.463z"/>
        <path fill="#82BB99" fill-rule="nonzero" d="M50.191 42.81c1.266-1.347 6.607-7.915 8.65-8.905.728-.443 1.654-.412 2.35.08.696.49 1.028 1.347.84 2.173-.254 1.053-7.563 7.779-9.063 8.705-1.5.926-4.032-.652-2.777-2.052z"/>
        <path fill="#3276B4" fill-rule="nonzero" d="M61.457 68.937c-.59.837-1.702 1.134-2.638.705-.186-.112-.377-.214-.574-.305-.245-.074-.5-.106-.756-.095-1.41.185-2.832.28-4.255.284-1.606-.179-2.723-1.21-4.34-1.2l1.297-11.579c.456-4.91.33-9.855-.372-14.736 1.681-3.158 4.585-6.916 7.894-7.506 2.312 1.203 3.928 3.4 4.372 5.948.436 2.38.664 4.792.681 7.21l.34 16.548c.063.888.002 1.78-.18 2.652-.16.863-.98 1.326-1.469 2.074z"/>
        <path fill="#2069A3" fill-rule="nonzero" d="M52 55.79c.172-.659.275-1.332.309-2.011.441-4.21.295-8.46-.437-12.632-.013-.122-.053-.241-.117-.347-.415-.537-1.17.958-1.18 1.295.049.357.13.71.244 1.052.245 1.485.596 2.937.777 4.442.18 1.506.298 2.811.372 4.211 0 .632.021 1.263.064 1.895.075.697.065 1.4-.032 2.094zM59.234 68.421c.697-3.748.976-7.56.83-11.368 0-2.106-.064-4.264-.117-6.39.001-2.03-.191-4.057-.575-6.052.51 7.776-.174 15.584-2.032 23.157-.063.295.351.358.65.41.303.009.603.073.882.19.087.076.188.134.298.169.107.052.043 0 .064-.116z"/>
    </g>
</svg>
