<svg xmlns="http://www.w3.org/2000/svg" xmlns:xlink="http://www.w3.org/1999/xlink" width="102" height="102" viewBox="0 0 102 102">
    <defs>
        <path id="prefix__a" d="M0.917 6.417L4.813 7.156 5.958 1.167 2.052 0.427"/>
        <path id="prefix__c" d="M3.98.594l5.968 1.135c1.406.271 2.344 1.042 1.833 2.99 0 0-1.864 6.125-2.5 7.708-.59 1.13-1.6 1.983-2.812 2.375-.67.326-1.42.442-2.157.333-.725-.169-1.382-.554-1.885-1.104-.985-.809-1.614-1.972-1.75-3.24 0-1.708.51-8.093.51-8.093C1.407.729 2.583.333 3.98.594z"/>
    </defs>
    <g fill="none" fill-rule="evenodd" transform="translate(1 1)">
        <path fill="#FFC864" fill-rule="nonzero" d="M84.094 67.708c4.417-3.466 6.237-9.298 4.574-14.661-1.662-5.363-6.46-9.144-12.064-9.505-3.08-.241-5.64-2.471-6.302-5.49-1.49-6.755-7.419-11.606-14.335-11.728-6.916-.121-13.012 4.519-14.738 11.218-.723 2.879-3.155 5.008-6.104 5.343-2.497.29-4.882 1.2-6.938 2.646-1.75 1.291-4 1.699-6.093 1.104-3.564-1.067-7.318.957-8.386 4.521-1.067 3.564.957 7.318 4.521 8.386 2.098.598 3.818 2.104 4.688 4.104.418 1.011.95 1.972 1.583 2.864 1.722 2.464 4.147 4.352 6.958 5.417 2.492.903 4.26 3.138 4.563 5.77.348 3.409 2.429 6.397 5.505 7.905s6.712 1.324 9.62-.487c1.644-1.01 2.955-2.481 3.77-4.23.778-1.627 2.14-2.902 3.813-3.573 2.49-1.032 4.699-2.638 6.448-4.687 1.724-2.064 4.467-2.976 7.083-2.354 4.128 1.055 8.512.105 11.834-2.563z" opacity=".43"/>
        <ellipse cx="43.604" cy="95.656" fill="#807674" fill-rule="nonzero" opacity=".3" rx="24.906" ry="3.417"/>
        <path fill="#C0C2C4" fill-rule="nonzero" d="M36.698 41.458L37.573 41.458 37.573 60.083 36.698 60.083z"/>
        <path fill="#EFF0F0" fill-rule="nonzero" d="M37.333 41.458L37.583 41.458 37.583 60.083 37.333 60.083z"/>
        <path fill="#C0C2C4" fill-rule="nonzero" d="M30.729 41.458L31.604 41.458 31.604 60.083 30.729 60.083z"/>
        <path fill="#EFF0F0" fill-rule="nonzero" d="M31.354 41.458L31.604 41.458 31.604 60.083 31.354 60.083z"/>
        <path fill="#221F1F" fill-rule="nonzero" d="M30.77 40.02c-.106.003-.207.05-.28.128-.072.078-.11.183-.105.29v2.968c-.005.108.032.214.105.294.072.08.173.128.28.133h.772c.107-.005.209-.053.281-.133.072-.08.11-.186.104-.294v-1.531c-.006-.107.032-.211.105-.29.072-.078.174-.124.28-.127h3.678c.22.012.39.197.385.417v1.531c-.006.108.032.214.104.294.072.08.174.128.281.133h.74c.108-.005.209-.053.281-.133.073-.08.11-.186.104-.294v-2.968c.006-.221-.165-.406-.385-.417h-6.73z"/>
        <path fill="#3B3939" fill-rule="nonzero" d="M37.5 43.833c-.108-.005-.209-.053-.281-.133-.073-.08-.11-.186-.104-.294v-2.968c-.006-.221.165-.406.385-.417.22.011.391.196.385.416v2.97c.006.107-.031.213-.104.293-.072.08-.173.128-.281.133zM32.292 41.458h.073-.803c-.118.006-.23.058-.31.146-.08.088-.122.204-.117.323v1.5c-.01.202.126.382.323.427.118.016.236-.022.323-.102.087-.081.133-.196.125-.315v-1.552c-.008-.108.028-.215.101-.296.073-.08.176-.128.285-.13z"/>
        <path fill="#000" fill-rule="nonzero" d="M41.667 93.646c0 .479.791 1.302.791 1.302h.386c.656-.083 1.147-.641 1.147-1.302s-.491-1.22-1.147-1.302h-.386s-.791.75-.791 1.302z"/>
        <ellipse cx="42.427" cy="93.646" fill="#151616" fill-rule="nonzero" rx="1.177" ry="1.302"/>
        <path fill="#000" fill-rule="nonzero" d="M37.292 93.646c0 .479.78 1.302.78 1.302h.397c.656-.083 1.147-.641 1.147-1.302s-.491-1.22-1.147-1.302h-.396s-.781.75-.781 1.302z"/>
        <ellipse cx="38.073" cy="93.646" fill="#202121" fill-rule="nonzero" rx="1.177" ry="1.302"/>
        <path fill="#000" fill-rule="nonzero" d="M30.115 93.646c0 .479.78 1.302.78 1.302h.355c.656-.083 1.147-.641 1.147-1.302s-.491-1.22-1.147-1.302h-.396s-.74.75-.74 1.302z"/>
        <ellipse cx="30.896" cy="93.646" fill="#151616" fill-rule="nonzero" rx="1.177" ry="1.302"/>
        <path fill="#000" fill-rule="nonzero" d="M25.302 93.646c0 .479.792 1.302.792 1.302h.385c.656-.083 1.148-.641 1.148-1.302s-.492-1.22-1.148-1.302h-.385s-.792.75-.792 1.302z"/>
        <ellipse cx="26.094" cy="93.646" fill="#202121" fill-rule="nonzero" rx="1.177" ry="1.302"/>
        <path fill="#45434C" fill-rule="nonzero" d="M31.583 59.531h10.875c1.997 0 3.615 1.619 3.615 3.615v27.187c0 1.231-.998 2.23-2.23 2.23H27.97V63.145c0-1.996 1.618-3.615 3.614-3.615z"/>
        <path fill="#24212D" fill-rule="nonzero" d="M25.427 59.531h10.417c2.698 0 4.885 2.188 4.885 4.886v25.416c0 1.508-1.222 2.73-2.729 2.73H25.396c-.724 0-1.418-.288-1.93-.8s-.8-1.206-.8-1.93v-27.53c0-1.525 1.237-2.761 2.761-2.761v-.01z"/>
        <path fill="#45434C" fill-rule="nonzero" d="M38.052 62.75H24.896c-.009-.169.05-.334.164-.459.113-.125.271-.2.44-.208h12c.169.008.327.083.44.208.114.125.173.29.164.459h-.052zM24.896 89.583h13.156c.009.169-.05.334-.164.459-.113.125-.271.2-.44.208H25.5c-.169-.008-.327-.083-.44-.208-.114-.125-.173-.29-.164-.459z"/>
        <path fill="#3F3A39" fill-rule="nonzero" d="M61.313 8.583c-.448 7.22 6.25 13.375 1.458 19.792-3.125 4.167-16.26 5.208-14.292-7.219.886-5.541-.823-7.937-.687-10.802l13.52-1.77z"/>
        <path fill="#FFB086" fill-rule="nonzero" d="M71.073 22.031c-1.458-1.906-5.031-5.916-6.844-7.729-1.49-1.5-2.937.458-1.854 1.698 1.083 1.24 2.656 4 4.052 6.094-2.615.27-5.51.562-7.865.75-3.802.291-3.74 5.27.594 4.375 3.51-.74 6.98-1.167 10.886-2.271.59-.135 1.077-.552 1.302-1.115.267-.602.161-1.304-.271-1.802zM49.875 23.083L53.771 23.823 54.917 17.833 51.01 17.094"/>
        <g transform="translate(48.958 16.667)">
            <mask id="prefix__b" fill="#fff">
                <use xlink:href="#prefix__a"/>
            </mask>
            <g fill="#FFB086" fill-rule="nonzero" mask="url(#prefix__b)">
                <g>
                    <path d="M5.958 2.5L1.896 1.469 5.958 1.469z" transform="translate(0 -1.042)"/>
                    <path d="M3.9 -0.096L3.932 -0.096 3.932 4.091 3.9 4.091z" transform="translate(0 -1.042) rotate(-75.82 3.916 1.997)"/>
                    <path d="M3.904 -0.072L3.936 -0.072 3.936 4.126 3.904 4.126z" transform="translate(0 -1.042) rotate(-75.82 3.92 2.027)"/>
                    <path d="M3.896 -0.04L3.927 -0.04 3.927 4.169 3.896 4.169z" transform="translate(0 -1.042) rotate(-75.82 3.911 2.064)"/>
                    <path d="M3.895 -0.011L3.926 -0.011 3.926 4.197 3.895 4.197z" transform="translate(0 -1.042) rotate(-75.82 3.91 2.093)"/>
                    <path d="M3.889 0.011L3.92 0.011 3.92 4.23 3.889 4.23z" transform="translate(0 -1.042) rotate(-75.82 3.905 2.12)"/>
                    <path d="M3.88 0.045L3.911 0.045 3.911 4.275 3.88 4.275z" transform="translate(0 -1.042) rotate(-75.82 3.896 2.16)"/>
                    <path d="M3.884 0.06L3.915 0.06 3.915 4.299 3.884 4.299z" transform="translate(0 -1.042) rotate(-75.82 3.9 2.18)"/>
                    <path d="M3.873 0.086L3.904 0.086 3.904 4.325 3.873 4.325z" transform="translate(0 -1.042) rotate(-75.82 3.889 2.205)"/>
                    <path d="M3.875 0.12L3.906 0.12 3.906 4.37 3.875 4.37z" transform="translate(0 -1.042) rotate(-75.82 3.89 2.245)"/>
                    <path d="M3.869 0.142L3.9 0.142 3.9 4.403 3.869 4.403z" transform="translate(0 -1.042) rotate(-75.82 3.884 2.272)"/>
                    <path d="M3.87 0.177L3.901 0.177 3.901 4.448 3.87 4.448z" transform="translate(0 -1.042) rotate(-75.82 3.886 2.312)"/>
                    <path d="M3.859 0.203L3.89 0.203 3.89 4.474 3.859 4.474z" transform="translate(0 -1.042) rotate(-75.82 3.875 2.338)"/>
                    <path d="M3.863 0.227L3.894 0.227 3.894 4.509 3.863 4.509z" transform="translate(0 -1.042) rotate(-75.82 3.879 2.368)"/>
                    <path d="M3.854 0.262L3.886 0.262 3.886 4.554 3.854 4.554z" transform="translate(0 -1.042) rotate(-75.82 3.87 2.408)"/>
                    <path d="M3.848 0.274L3.88 0.274 3.88 4.576 3.848 4.576z" transform="translate(0 -1.042) rotate(-75.82 3.864 2.425)"/>
                    <path d="M3.847 0.302L3.879 0.302 3.879 4.604 3.847 4.604z" transform="translate(0 -1.042) rotate(-75.82 3.863 2.453)"/>
                    <path d="M3.839 0.334L3.87 0.334 3.87 4.647 3.839 4.647z" transform="translate(0 -1.042) rotate(-75.82 3.854 2.49)"/>
                    <path d="M3.843 0.359L3.874 0.359 3.874 4.682 3.843 4.682z" transform="translate(0 -1.042) rotate(-75.82 3.859 2.52)"/>
                    <path d="M3.837 0.381L3.868 0.381 3.868 4.714 3.837 4.714z" transform="translate(0 -1.042) rotate(-75.82 3.853 2.547)"/>
                    <path d="M3.833 0.419L3.865 0.419 3.865 4.753 3.833 4.753z" transform="translate(0 -1.042) rotate(-75.82 3.85 2.586)"/>
                    <path d="M3.838 0.444L3.869 0.444 3.869 4.788 3.838 4.788z" transform="translate(0 -1.042) rotate(-75.82 3.853 2.616)"/>
                    <path d="M3.819 0.476L3.85 0.476 3.85 4.83 3.819 4.83z" transform="translate(0 -1.042) rotate(-75.82 3.834 2.653)"/>
                    <path d="M5.844 3.469L4.969 8.198 0.917 8.198 0.917 5.344 1.583 1.708z" transform="translate(0 -1.042)"/>
                </g>
            </g>
        </g>
        <path fill="#FFB086" fill-rule="nonzero" d="M50.323 21.104l3.927.23s3.448 1.156 5.208 1.78c2.177.782 0 3.49-.343 4.407-.907 2.281-1.209 4.229-4.115 4.094-2.906-.136-5.375-2.198-7.552-4.167-1.042-.917-2.854-2.083-3.427-3.323-.573-1.24.458-1.51 1.75-1.875 1.479-.438 3.02-.802 4.552-1.146zM62.25 94.385c-2.73-1.666-4.167-2.562-4.438-4.718.005-.031.005-.063 0-.094-.218-2.948-.552-9.375-.635-14.938L52.823 78c1.042 5.948 1.51 9.49 1.885 11.917.177 2.552 0 4.718.47 5.145 1.272.58 2.644.908 4.04.97 1.553.145 4.876.906 5.324.322.448-.583-1.396-1.427-2.292-1.969z"/>
        <path fill="#EC8066" fill-rule="nonzero" d="M54.802 92.865c.16.515.468.971.886 1.312 1.104 1.042 4.916 1.677 5.208 1.635 0 0 .656-1.385 1.5-1.312.562.248 1.096.556 1.594.917.906.635 1.427 1.458-.72 1.53-1.353 0-6.926-.853-8.333-1.635-.437-.24-.135-2.447-.135-2.447z"/>
        <path fill="#FFB086" fill-rule="nonzero" d="M50.198 95.23c-2.469-1.72-3.677-2.647-3.698-4.772.24-2.927.917-9.375 1.688-14.78l-4.855 3.187c.125 5.812 0 9.302 0 11.708-.27 2.406-.625 4.646-.218 5.073.406.427 2.354.885 3.854 1.041 1.5.157 4.687 1.042 5.208.49.52-.552-1.135-1.344-1.98-1.948z"/>
        <path fill="#EC8066" fill-rule="nonzero" d="M43.02 93.542c.116.479.37.914.73 1.25 1.208 1.229 4.594 1.77 4.938 1.74 0 0 .854-1.303 1.677-1.199.52.254 1.01.57 1.458.938.802.656 1.208 1.49-.917 1.49-1.323 0-7.291-1.042-8.073-1.886-.302-.333.188-2.333.188-2.333z"/>
        <path fill="#D96A51" fill-rule="nonzero" d="M57.958 43.073c-.635-2.083-1.25-4.875-1.333-5.26.126-1.52.416-3.022.865-4.48.52-1.458 1.791-3.51 1.708-4.573-.23-2.635-.896-6.03-.896-6.03-.723-.328-1.463-.613-2.219-.855-.039.846-.438 1.635-1.098 2.167-.659.532-1.514.755-2.35.614-1.783-.084-3.172-1.58-3.125-3.364 0 0-2.291.479-4.302 1.104 0 0 1.677 0 1.625 2.823-.21 1.66-.663 3.282-1.343 4.812 0 0 .468 1.49.75 2.73.227 1.635.325 3.286.291 4.937-.448 1.77-1.416 3.562-2.26 6.02-2.875 8.157-6.021 33.053-6.021 33.053 1.75 1.969 8.938 3.604 13.354 3.604 8.469 0 12.323-2.625 13.886-3.604 0 0-5.24-26.167-7.532-33.698z"/>
        <path fill="#3F3A39" fill-rule="nonzero" d="M55.052 2.98c-3.281-.938-6.604 1.718-7.292 5.26-.687 3.541 0 5.885 2.5 5.562"/>
        <ellipse cx="49.15" cy="13.021" fill="#FFB086" fill-rule="nonzero" rx="1.417" ry="2.021" transform="rotate(-14.18 49.15 13.021)"/>
        <ellipse cx="58.976" cy="15.129" fill="#FFB086" fill-rule="nonzero" rx="1.688" ry="1.177" transform="rotate(-54.3 58.976 15.129)"/>
        <path fill="#FFB086" fill-rule="nonzero" d="M52.938 4.76l5.968 1.136c1.407.27 2.344 1.042 1.834 2.99 0 0-1.865 6.124-2.5 7.708-.59 1.13-1.6 1.983-2.813 2.375-.669.325-1.42.441-2.156.333-.726-.17-1.383-.554-1.886-1.104-.985-.809-1.613-1.972-1.75-3.24 0-1.708.51-8.093.51-8.093.22-1.97 1.397-2.365 2.792-2.105z"/>
        <g transform="translate(48.958 4.167)">
            <mask id="prefix__d" fill="#fff">
                <use xlink:href="#prefix__c"/>
            </mask>
            <path fill="#FFB086" fill-rule="nonzero" d="M6.047 2.873L6.089 2.873 6.089 13.811 6.047 13.811z" mask="url(#prefix__d)" transform="rotate(-81.33 6.068 8.342)"/>
        </g>
        <path fill="#3F3A39" fill-rule="nonzero" d="M61.313 8.583C59.885-.146 45.937 2.198 51.135 7.427c.917.917 2.823 1.24 5.355 2.48 2.154 1.192 4.015 2.85 5.447 4.853"/>
        <path fill="#3F3A39" fill-rule="nonzero" d="M52.292 7.042c-.353 1.753-1.224 3.36-2.5 4.614 0 0-1.72-3.937-.375-6.01 1.125-1.73 2.875 1.396 2.875 1.396z"/>
        <path fill="#EFF2FB" fill-rule="nonzero" d="M58.125 15.625c-.063-.344-1.458-1.219-3.26-1.635-1.503-.383-3.07-.432-4.594-.146-.164.432-.249.891-.25 1.354-.078.362-.11.734-.094 1.104.073.302 1.167 2.656 3.125 3.063 1.51.202 3.032-.266 4.167-1.282.492-.736.802-1.578.906-2.458z"/>
        <path fill="#EFF2FB" fill-rule="nonzero" d="M50.313 14.125c-.058-.002-.108-.04-.126-.094-.308-.961-.486-1.96-.53-2.969 0-.035.014-.07.039-.095.025-.026.06-.04.096-.04.037-.003.075.01.102.036.028.026.044.062.044.1.049.979.22 1.948.51 2.885.013.034.012.073-.004.106-.016.034-.044.06-.08.071h-.051zM57.958 15.917c-.03.009-.063.009-.093 0-.028-.028-.044-.065-.044-.104 0-.04.016-.077.044-.105.4-.435.77-.898 1.104-1.385.052-.05.135-.05.187 0 .05.052.05.135 0 .187-.338.506-.718.984-1.135 1.428-.022-.002-.044-.01-.063-.021z"/>
        <path fill="#E9ECFB" fill-rule="nonzero" d="M57.48 16.563c-2.407-.052-4.774-.624-6.938-1.678-.067-.036-.094-.118-.063-.187.033-.07.116-.103.188-.073 2.2 1.102 4.632 1.666 7.093 1.646.08 0 .146.057.157.135 0 .077-.06.14-.136.146l-.302.01zM55.208 18.125h-.104c-1.692-.024-3.32-.656-4.583-1.781-.047-.055-.047-.135 0-.19.047-.054.126-.067.187-.029 1.763 1.566 4.211 2.106 6.47 1.427.074-.028.157.009.187.083.021.072-.015.149-.084.177-.67.214-1.37.32-2.073.313z"/>
        <path fill="#FFB086" fill-rule="nonzero" d="M49.583 22.615c-1.229 1.208-2.26 2.156-3.125 2.937.112-.382.158-.78.136-1.177-.177-1.281-2-2.948-3.282-.542-1.18 2.56-2.2 5.19-3.052 7.875-.237.947.215 1.931 1.087 2.369.873.437 1.932.21 2.549-.546 2.083-2.198 5.958-7.698 7.687-9.156 1.22-1.01-.645-3.094-2-1.76zM53.656 19.698c.625-.302 1.886.52 2.282.74.395.218.374.552.479.979.06.882-.132 1.763-.552 2.541-.417.615-1.844.22-1.855-.114-.01-.334.594-1.136.563-1.459-.031-.323-.917-2.687-.917-2.687z"/>
        <path fill="#FFB086" fill-rule="nonzero" d="M51.365 24.573c.49-.156 1.937 0 2.395-.365 1.25-1.041 1.698-.708 1.72-1.416.02-.709-.845-3.125-1.647-3.125-1.041 0-3.49 2.302-4.062 2.77-.99.834-.271 2.74 1.594 2.136z"/>
        <path fill="#F09B72" fill-rule="nonzero" d="M49.77 22.594c-.04 0-.08-.019-.103-.052-.028-.026-.043-.062-.043-.1 0-.037.015-.073.043-.098 1.312-1.07 2.705-2.039 4.166-2.896.443.003.876.129 1.25.364.05.05.058.126.02.184-.038.059-.111.082-.176.056-.312-.198-.672-.31-1.042-.323-1.4.843-2.733 1.79-3.99 2.834-.035.026-.08.038-.124.03z"/>
        <g fill="#E9ECFB" fill-rule="nonzero">
            <path d="M3.781 1.042c-.067 0-.125-.048-.135-.115-.013-.077.038-.15.114-.167l.584-.073c.06-.016.122.007.158.057.035.05.035.118 0 .168-.036.05-.099.073-.158.057l-.573.073h.01zM1.23 1.354c-.07-.004-.126-.056-.136-.125-.006-.037.004-.076.028-.106s.059-.048.097-.05l1.906-.25c.063.017.107.075.107.14 0 .066-.044.124-.107.141l-1.875.25h-.02zM3.98 3.292l-.574-.167c-.039-.007-.072-.03-.093-.065-.02-.034-.024-.075-.01-.112.024-.073.102-.114.176-.094l.542.156c.073.025.114.103.094.178-.015.062-.072.105-.136.104zM2.802 2.958L.906 2.406c-.075-.02-.119-.097-.099-.172.02-.074.097-.119.172-.099l1.896.553c.075 0 .135.06.135.135 0 .075-.06.135-.135.135h-.073zM2.448 5.02c-.027.01-.056.01-.083 0l-.51-.437c-.04-.053-.037-.126.004-.177.042-.05.112-.068.172-.041l.51.447c.052.056.052.143 0 .198-.029.013-.061.016-.093.01zM1.48 4.167c-.031.009-.064.009-.095 0l-.968-.844C.389 3.297.374 3.26.374 3.224c0-.038.015-.073.043-.099.056-.052.142-.052.198 0l.968.844c.028.025.043.061.043.099 0 .037-.015.073-.043.099-.033.015-.07.015-.104 0z" transform="translate(57.292 16.667)"/>
        </g>
        <path fill="#FFB086" fill-rule="nonzero" d="M59.552 12.01c-.573-.854-1.385-2.718-2.083-3.822 0 0-.313-.459-.386-.584-.063-.095-.067-.219-.01-.318.058-.1.167-.158.281-.15.58-.035 1.15.155 1.594.53.627.432 1.164.98 1.583 1.615.37.506.788.973 1.25 1.396.844.781-1.781 2.01-2.229 1.333z"/>
        <path fill="#FFB086" fill-rule="nonzero" d="M59.969 11.667c-.405-.435-.755-.918-1.042-1.438-.417-.781-.77-1.708-1.042-2.083-.27-.375-.604-.334-.666-.094-.063.24 0 .156.27 1.042.335 1.151.914 2.217 1.699 3.125.78.864.78-.552.78-.552z"/>
        <path fill="#FFB086" fill-rule="nonzero" d="M64.23 14.302c-.449-.469-.272-.917-.71-1.646-.503-.707-1.068-1.37-1.687-1.979-1.041-.958-2.312 1.26-2.666 1.875-.355.615-.282 1.156.687 1.77.849.42 1.648.93 2.386 1.522 1.302 1.698 3.28-.219 1.99-1.542z"/>
        <path fill="#FFB086" fill-rule="nonzero" d="M59.115 11.792c-.292-.407 0-.625-.198-1.354-.198-.73-.74-.563-.688-.105.063.625-.25 1.292-.073 1.698.222.53.497 1.037.823 1.51.406.563.854.72 2.136 1.5l-.375-2.218c-.448-.51-1.042-.188-1.625-1.031z"/>
        <path fill="#F09B72" fill-rule="nonzero" d="M59.177 13.885c-.03.013-.064.013-.094 0-.448-.52-.8-1.116-1.041-1.76-.085-.303-.085-.624 0-.927.057-.267.078-.54.062-.813-.045-.224.1-.442.323-.49.219 0 .52.105.646.543.07.264.094.539.073.812-.036.174.002.355.104.5.238.349.621.57 1.042.604.335.053.655.177.937.365.044.051.046.125.007.18-.04.054-.111.074-.173.049-.248-.164-.53-.27-.823-.313-.492-.05-.937-.313-1.22-.718-.126-.206-.177-.449-.145-.688.02-.238-.001-.477-.063-.708-.083-.292-.24-.365-.322-.354-.084.01-.105.093-.094.198.016.293-.005.587-.063.875-.067.256-.067.525 0 .78.229.61.564 1.175.99 1.668.052.055.052.142 0 .197-.046.024-.1.024-.146 0zM42.604 28.958c-.037.015-.078.015-.114 0-.052-.056-.052-.142 0-.198l4.062-3.479c.061-.037.14-.025.187.03.047.054.047.134 0 .189l-4.03 3.427c-.028.027-.067.04-.105.031z"/>
        <circle cx="50" cy="50" r="49.688" stroke="#BB3A45" stroke-width="2"/>
        <path fill="#BB3A45" fill-rule="nonzero" d="M1.003 50.546L99.91 50.546 99.91 52.629 1.003 52.629z" transform="rotate(-39.83 50.457 51.588)"/>
    </g>
</svg>
