<svg xmlns="http://www.w3.org/2000/svg" width="100" height="100" viewBox="0 0 100 100">
    <g fill="none">
        <path fill="#FFC864" d="M91.02 67.365c1.73-6.115 7.803-10.188 8.261-16.605.459-6.416-3.625-11.833-6.354-17.51-2.083-4.396-3.458-9.146-5.917-13.365-2.958-5.073-7.291-8.468-13.302-8.625-8.885-.229-17.291 5.063-26.166 4.5-4.917-.312-9.51-2.395-14.271-3.645-5.448-1.438-12.115-1.042-16.313 3.125-5.041 4.99-5.802 13.854-9.25 19.979C4.583 40.77.417 46.333.698 52.709c.23 4.562 2.781 8.562 4.219 12.812 1.573 4.677 2.854 9.541 5.677 13.646 4.13 5.9 10.87 9.427 18.073 9.458 5.052 0 9.51-.844 14.583.125s10 .896 15.073 1.5c3.1.492 6.237.704 9.375.635 2.531-.145 4.917.334 7.448.146 4.894-.365 9.307-3.084 11.833-7.291 2.427-4.23 2.584-9.375 3.521-14.115.125-.75.302-1.51.52-2.26z" opacity=".43"/>
        <rect width="50.688" height="68.115" x="22.708" y="6.948" fill="#223056" rx="1.64"/>
        <path fill="#FFF" d="M26.135 9.917L69.979 9.917 69.979 71.667 26.135 71.667z"/>
        <path fill="#FFCB64" d="M55.27 7.708h-.624V5.042c0-1.177-2.156-4.625-6.584-4.625-4.166 0-6.593 3.396-6.593 4.625v2.666h-.625c-.62.006-1.12.506-1.125 1.125v2.198c.005.617.507 1.115 1.125 1.115H55.27c.617 0 1.12-.498 1.125-1.115V8.833c-.006-.619-.506-1.119-1.125-1.125zM48.063 2.25c.786 0 1.494.474 1.792 1.2.299.727.13 1.562-.429 2.115-.558.552-1.395.713-2.118.406-.724-.306-1.19-1.019-1.182-1.804.003-.511.208-1 .572-1.36.363-.36.854-.56 1.365-.557z"/>
        <rect width="7.594" height="1" x="28.573" y="32.833" fill="#83BED0" rx=".15"/>
        <rect width="15.229" height="1" x="28.573" y="33.708" fill="#C5C5C5" rx=".15"/>
        <rect width="15.229" height="1" x="28.573" y="34.573" fill="#C5C5C5" rx=".15"/>
        <rect width="15.229" height="1" x="28.573" y="35.438" fill="#C5C5C5" rx=".15"/>
        <rect width="15.229" height="1" x="28.573" y="36.313" fill="#C5C5C5" rx=".15"/>
        <rect width="7.594" height="1" x="28.573" y="28.563" fill="#83BED0" rx=".15"/>
        <rect width="15.229" height="1" x="28.573" y="29.438" fill="#C5C5C5" rx=".15"/>
        <rect width="15.229" height="1" x="28.573" y="30.302" fill="#C5C5C5" rx=".15"/>
        <rect width="7.594" height="1" x="28.573" y="38.844" fill="#83BED0" rx=".15"/>
        <rect width="15.229" height="1" x="28.573" y="39.719" fill="#C5C5C5" rx=".15"/>
        <rect width="15.229" height="1" x="28.573" y="40.583" fill="#C5C5C5" rx=".15"/>
        <rect width="15.229" height="1" x="28.573" y="41.448" fill="#C5C5C5" rx=".15"/>
        <rect width="15.229" height="1" x="28.573" y="42.323" fill="#C5C5C5" rx=".15"/>
        <path fill="#C5C5C5" d="M30.135 55.02c-.84 0-1.52.682-1.52 1.522s.68 1.52 1.52 1.52 1.521-.68 1.521-1.52-.68-1.521-1.52-1.521zm0 2.761c-.502.004-.957-.295-1.152-.758-.195-.463-.092-.997.262-1.354.353-.357.887-.465 1.352-.274.464.192.768.644.768 1.147.002.327-.126.643-.357.876-.23.232-.545.363-.873.363z"/>
        <path fill="#71CC5A" d="M31.073 60.313L31 60.25c-.022-.023-.052-.036-.083-.036-.032 0-.062.013-.084.036l-1.041.844-.427-.427h-.115l-.073.073c-.018.015-.028.038-.028.062s.01.047.028.063l.48.479.083.073h.135l1.198-1c.019-.033.019-.072 0-.105zM31.073 56.135L31 56.063c-.022-.023-.052-.036-.083-.036-.032 0-.062.013-.084.035l-1.041.834-.427-.417h-.115l-.073.073c-.017.014-.028.035-.028.057 0 .023.01.044.028.058l.48.479.083.073c.017.018.042.029.067.029.026 0 .05-.01.068-.03l1.198-.968c.023-.035.023-.08 0-.115zM51.49 32.781l-.073-.073c-.02-.026-.05-.041-.084-.041-.032 0-.063.015-.083.041l-1.042.834-.427-.427h-.114l-.073.072c-.018.016-.028.04-.028.063 0 .024.01.047.028.063l.479.479.083.073h.136l1.177-.97c.032-.028.041-.075.02-.114zM51.542 28.573l-.073-.063c-.022-.023-.052-.036-.084-.036-.031 0-.061.013-.083.036l-1.042.844-.427-.427c-.013-.017-.035-.028-.057-.028s-.043.01-.057.028l-.073.073c-.018.016-.028.039-.028.063 0 .023.01.046.028.062l.479.48.083.072h.136l1.177-.969c.04-.033.049-.091.02-.135z"/>
        <path fill="#C5C5C5" d="M30.135 59.313c-.84 0-1.52.68-1.52 1.52s.68 1.521 1.52 1.521 1.521-.68 1.521-1.52-.68-1.522-1.52-1.522zm0 2.76c-.502.004-.957-.295-1.152-.758-.195-.463-.092-.998.262-1.354.353-.357.887-.465 1.352-.274.464.191.768.644.768 1.146.002.328-.126.643-.357.876-.23.233-.545.364-.873.364z"/>
        <rect width="9.344" height="1" x="48.823" y="37.229" fill="#83BED0" rx=".19"/>
        <g fill="#C5C5C5" transform="translate(31.25 13.542)">
            <rect width="18.75" height="1" x="17.573" y="24.75" rx=".19"/>
            <path d="M19.302 13.906c-.838.006-1.514.69-1.51 1.528.004.839.685 1.516 1.524 1.514.839-.002 1.517-.682 1.517-1.52 0-.406-.161-.794-.449-1.08-.287-.286-.677-.445-1.082-.442zm0 2.75c-.503.004-.959-.296-1.154-.76-.194-.464-.089-1 .267-1.356.356-.356.892-.461 1.356-.267.464.195.764.65.76 1.154.003.328-.125.643-.356.876-.23.233-.545.364-.873.364v-.01zM19.302 18.24c-.834.005-1.508.683-1.51 1.517-.002.835.67 1.515 1.504 1.524.834.01 1.52-.655 1.537-1.49.012-.41-.145-.809-.434-1.102-.29-.293-.685-.455-1.097-.45zm0 2.75c-.506.004-.964-.3-1.156-.768-.193-.468-.081-1.007.281-1.36.363-.353.903-.45 1.366-.246.463.205.755.67.738 1.176-.017.666-.562 1.198-1.229 1.198z"/>
            <rect width="14.615" height="1" x="21.719" y="14.417" rx=".15"/>
            <rect width="14.615" height="1" x="21.719" y="15.25" rx=".15"/>
            <rect width="14.615" height="1" x="21.719" y="16.083" rx=".15"/>
            <rect width="14.615" height="1" x="21.719" y="18.75" rx=".15"/>
            <rect width="14.615" height="1" x="21.719" y="19.583" rx=".15"/>
            <rect width="14.615" height="1" x="21.719" y="20.417" rx=".15"/>
            <path d="M9.51.802H1.406C.737.808.198 1.352.198 2.021v8.104c-.003.322.123.632.35.861.227.229.536.358.858.358H9.51c.324 0 .634-.129.862-.357.229-.229.357-.539.357-.862V2.021c0-.673-.545-1.219-1.219-1.219zm.615 9.375c0 .163-.065.32-.18.435-.115.115-.272.18-.435.18H1.406c-.335-.006-.604-.28-.604-.615V2.021c0-.334.27-.604.604-.604H9.51c.162-.003.319.06.434.173.116.114.181.269.181.43v8.157z"/>
        </g>
        <rect width="1" height="34.24" x="46.167" y="13.208" fill="#949595" rx=".27"/>
        <rect width="15.229" height="1" x="28.573" y="26.385" fill="#949595" rx=".18"/>
        <circle cx="58.979" cy="19.365" r="6.25" fill="#D84E55"/>
        <path fill="#FFF" d="M63.448 17.646H60.75c-.105-.006-.188-.093-.188-.198v-2.583c0-.104-.083-.188-.187-.188h-2.75c-.105 0-.192.082-.198.188v2.583c0 .105-.082.192-.187.198h-2.73c-.103 0-.187.084-.187.187v2.75c0 .104.084.188.187.188h2.782c.103 0 .187.084.187.187v2.834c.005.107.091.192.198.198h2.74c.105-.006.187-.093.187-.198v-2.834c0-.103.084-.187.188-.187h2.698c.103 0 .187-.084.187-.188v-2.75c.002-.058-.024-.113-.069-.15-.044-.036-.104-.05-.16-.037zM33.191 48.187l28.962-6.879c1.655-.393 3.315.63 3.708 2.285l2.216 9.33c.393 1.656-.63 3.316-2.285 3.71L36.831 63.51c-1.655.393-3.315-.63-3.709-2.285l-2.215-9.33c-.394-1.655.63-3.315 2.284-3.708z"/>
        <g fill="#269E57">
            <path d="M6.01 23.458c-1.73-.005-3.231-1.193-3.635-2.875L.219 11.51c-.47-2.004.769-4.01 2.77-4.49L31.699.199c2.004-.47 4.01.769 4.49 2.77l2.156 9.074c.47 2.004-.77 4.01-2.771 4.49L6.875 23.353c-.284.065-.574.1-.865.104zM32.563 1.146c-.211-.002-.421.023-.626.073L3.23 8.03c-.693.166-1.293.6-1.666 1.208-.373.607-.49 1.338-.323 2.032l2.156 9.073c.163.692.595 1.292 1.201 1.665.606.373 1.336.49 2.028.324l28.708-6.812c.694-.166 1.293-.6 1.666-1.208.373-.607.49-1.338.324-2.032l-2.146-9.073c-.163-.695-.599-1.295-1.208-1.666-.424-.259-.91-.396-1.407-.396z" transform="translate(30.208 40.625)"/>
            <path d="M6.458 13.302l-1.968.448-.136.885-1.229.282.917-5.01 1.218-.282L8.22 13.74l-1.26.291-.5-.729zm-.562-.833l-1.042-1.48-.26 1.771 1.302-.291zM11.26 9.375c-.208-.056-.427-.056-.635 0-.223.049-.428.157-.594.313-.158.163-.272.364-.333.583-.124.472-.007.975.312 1.344.145.175.336.305.553.375.217.062.448.062.666 0 .202-.054.39-.15.552-.282.182-.145.337-.322.459-.52l.864.593c-.189.321-.44.601-.74.823-.638.493-1.474.652-2.25.427-.4-.113-.761-.337-1.041-.646-.296-.322-.501-.718-.594-1.145-.214-.844.069-1.736.73-2.303.616-.538 1.446-.761 2.25-.604.35.056.684.188.979.386l-.5 1.041c-.194-.177-.426-.309-.678-.385zM16.469 8.208c-.212-.056-.435-.056-.646 0-.22.047-.423.155-.583.313-.165.16-.284.361-.344.583-.1.462.015.945.312 1.313.149.17.34.3.552.375.222.063.456.063.678 0 .2-.058.387-.154.552-.282.18-.143.333-.32.448-.52l.875.593c-.192.32-.443.599-.74.823-.284.22-.61.375-.958.459-.427.11-.875.11-1.302 0-.398-.128-.756-.353-1.042-.657-.297-.32-.499-.717-.584-1.146-.12-.415-.12-.855 0-1.27.122-.405.357-.767.678-1.042.36-.302.796-.5 1.26-.573.344-.072.698-.072 1.042 0 .347.054.679.186.968.386l-.5.99c-.192-.166-.42-.284-.666-.345zM22.323 5.698L22.542 6.646 20.135 7.198 20.333 8.052 22.5 7.552 22.719 8.49 20.552 9 20.75 9.865 23.219 9.292 23.438 10.24 19.792 11.083 18.75 6.521zM26.49 5.813c-.238-.039-.481-.039-.72 0-.123.02-.238.073-.332.156-.07.072-.097.174-.073.27.023.099.088.182.177.23.094.05.196.081.302.093h.52c.283.014.565.046.844.094.233.043.452.143.636.292.2.181.335.422.385.687.076.277.053.571-.062.834-.114.26-.303.482-.542.635-.274.18-.577.31-.896.386-.39.067-.787.067-1.177 0-.384-.036-.758-.141-1.104-.313l.25-1.042c.291.16.609.266.937.313.29.057.587.057.875 0 .15-.025.287-.094.396-.198.087-.083.123-.206.094-.323-.024-.098-.088-.181-.177-.23-.1-.052-.21-.088-.323-.103h-.52c-.28-.012-.558-.04-.834-.084-.227-.04-.44-.14-.615-.291-.201-.171-.337-.407-.385-.667-.084-.257-.084-.534 0-.792.115-.254.294-.473.52-.635.281-.191.596-.326.928-.396.341-.079.692-.107 1.041-.083.32.018.634.077.938.177l-.23 1.042c-.281-.049-.568-.066-.853-.053zM31.48 4.667c-.242-.039-.488-.039-.73 0-.12.02-.233.073-.323.156-.073.07-.1.174-.073.27.016.1.078.185.167.23.099.046.204.078.312.094l.51.052c.287.01.573.04.855.093.229.045.444.145.625.292.204.178.34.421.385.688.076.276.054.57-.062.833-.114.26-.302.482-.542.635-.27.183-.575.311-.896.375-.385.096-.784.117-1.177.063-.38-.035-.752-.14-1.093-.313l.24-1.041c.29.16.608.265.937.312.292.057.593.057.885 0 .147-.031.283-.1.396-.198.083-.085.115-.208.083-.323-.02-.099-.086-.183-.177-.229-.099-.057-.209-.093-.323-.104h-.52c-.28-.016-.558-.047-.834-.094-.224-.043-.435-.14-.615-.28-.201-.172-.337-.408-.385-.668-.079-.258-.079-.533 0-.791.112-.259.297-.48.531-.636.277-.19.588-.325.917-.396.341-.077.692-.105 1.042-.083.316.013.628.073.927.177l-.23 1.042c-.27-.082-.55-.135-.833-.156zM8.406 17.188L8.833 19c-.479.508-1.093.87-1.77 1.042-.43.115-.883.115-1.313 0-.399-.119-.758-.342-1.042-.646-.295-.319-.5-.71-.593-1.136-.12-.418-.12-.862 0-1.28.137-.406.382-.766.708-1.043.347-.304.767-.512 1.219-.604.344-.061.697-.061 1.041 0 .342.04.674.143.98.302l-.49 1.042c-.203-.118-.425-.2-.656-.24-.22-.046-.447-.046-.667 0-.232.046-.446.158-.615.323-.167.163-.286.368-.343.594-.063.236-.063.483 0 .719.06.241.173.466.333.656.156.176.358.306.583.375.229.063.47.063.698 0 .275-.076.528-.215.74-.406l-.271-1.177 1.031-.334zM11.26 17.646l-.854.198.292 1.26-1.188.281-1.041-4.562 2.083-.48c.496-.146 1.029-.109 1.5.105.405.209.69.594.77 1.042.085.306.085.63 0 .937-.082.28-.245.53-.468.719l1.188 1.302-1.354.312-.928-1.114zm-.24-.938c.206-.04.39-.15.522-.312.104-.172.13-.38.073-.573-.03-.195-.145-.366-.313-.469-.194-.075-.41-.075-.604 0l-.865.198.323 1.396.865-.24z" transform="translate(30.208 40.625)"/>
            <path d="M16.77 16.865l-1.968.448-.135.885-1.22.281.907-5.01 1.271-.281 2.958 4.166-1.27.292-.542-.781zm-.551-.834l-1.042-1.479-.27 1.77 1.312-.29zM21.875 11.74L22.917 16.302 21.875 16.542 19.177 14.292 19.802 17.01 18.688 17.271 17.646 12.708 18.688 12.469 21.396 14.74 20.76 11.99zM26.042 10.781L26.26 11.771 24.896 12.083 25.688 15.625 24.5 15.896 23.677 12.323 22.323 12.635 22.094 11.656zM29.823 9.906L30.042 10.854 27.635 11.458 27.833 12.313 30 11.813 30.219 12.75 28.052 13.26 28.25 14.125 30.719 13.542 30.938 14.49 27.281 15.333 26.24 10.771zM33.656 9.375c.396.103.756.311 1.042.604.287.318.485.706.573 1.125.115.412.115.848 0 1.26-.117.41-.357.773-.688 1.042-.354.294-.777.495-1.229.584l-1.916.447-1.042-4.562 1.896-.5c.447-.115.917-.115 1.364 0zm.104 3.292c.15-.153.255-.344.303-.552.057-.237.057-.483 0-.72-.052-.241-.163-.467-.323-.655-.145-.168-.332-.294-.542-.365-.222-.057-.455-.057-.677 0l-.75.177.604 2.625.813-.187c.222-.068.421-.198.572-.375v.052z" transform="translate(30.208 40.625)"/>
        </g>
        <circle cx="36.615" cy="18.323" r="2.073" fill="#223056"/>
        <path fill="#223056" d="M33.427 22.813c.133-1 .706-1.886 1.563-2.417.968.658 2.24.658 3.208 0 .935.454 1.575 1.353 1.698 2.385"/>
        <path fill="#FFAA8A" d="M92.135 64.396c-2.083-2.084-3.625-6.542-5.093-8.563-1.763-2.203-4.068-3.911-6.688-4.958l-.5-.23-1.573-1.218c-.771-.718-1.624-1.344-2.541-1.864l-.542-.303c-.902-.672-1.929-1.158-3.02-1.427-.269-.025-.534.066-.73.25-.854.865-1.333 1.97 1.531 5.323 1.189 1.552 2.564 2.951 4.094 4.167.468.337.904.717 1.302 1.135.021.03.039.06.052.094.003.045.003.09 0 .136.164.937.377 1.865.635 2.78.24.667 1.657 4.897 2.553 7.563.137.29.134.628-.011.915-.145.288-.414.492-.729.554h-.354s-2.677 1.042-6.563-2.865l-.708-1.198c0-.291-.98-4.51-1.26-5.76-.054-.238-.127-.472-.22-.698-.358-.946-.811-1.854-1.353-2.708-1.282-1.854-2.209-2.584-3.47-2.469-.76.073-1.489.27-1.75.875-.177.636-.087 1.318.25 1.886.918 2.083.855 2.604.845 2.656l.625 4.5c0 .49 1.625 9.864 1.635 9.979.615 1.865.375 5.812 2.635 9.167 2.386 3.552 2.709 5.583 2.782 6.114l-.334 2.209h13.167c.167-2.636.375-6.021.531-9.053 0-.916.146-1.823.271-2.698 1.365-2.52 4.677-8.624 5.365-9.49.844-1.051 1.229-2.707-.834-4.801z"/>
        <path fill="#FC987A" d="M81.594 67.156c-.896-2.666-2.26-6.729-2.49-7.385-.259-.916-.47-1.844-.635-2.781.003-.046.003-.09 0-.136-.014-.033-.031-.065-.052-.094-.408-.42-.854-.8-1.334-1.135-1.53-1.216-2.905-2.615-4.093-4.167-1.72-2.01-2.23-3.218-2.188-4.041.769 1.271 1.632 2.483 2.583 3.625 1.12 1.456 2.4 2.784 3.813 3.958l.208.177.386.292c.386.27.736.588 1.041.948.041.062.076.129.105.198.025.068.046.137.062.208 0 .167.083.396.146.687.114.704.274 1.4.479 2.084.24.687.813 3.27 1.656 5.802-.031.062.156.844.313 1.76zM91.292 65.552c-.558-1.007-1.21-1.96-1.948-2.844-1.98-2.698-4.292-7.468-5.125-8.395-.542-.615-2.802-2.428-4.375-3.667l.51.219.386.187c1.51 1.198 3.343 2.698 3.833 3.24.833.916 3.062 5.75 5.125 8.395.65.884 1.186 1.846 1.594 2.865z"/>
        <path fill="#39526C" d="M95.427 78.885S84.5 64.677 81.792 61.458c-7.313-8.78-14.084-15.406-16.167-15.843l-.625.51c.073 2.083 5.365 9.99 12.677 18.75 2.708 3.25 14.73 16.542 14.73 16.542.218.27 1.04-.084 1.916-.782.875-.698 1.333-1.468 1.104-1.75z"/>
        <path fill="#39526C" d="M65.02 46.115l.605-.49-.25-.208c-.243-.183-.51-.334-.792-.448.06.3.158.59.292.864l.146.282z"/>
        <path fill="#DB6A51" d="M95.448 78.854c.26-.662.346-1.379.25-2.083-.953-2.007-2.139-3.895-3.531-5.625-1.789-2.13-3.743-4.115-5.844-5.938-.375-.062-.708.417-.688.573.021.156 0 1.167.25 1.313.772.344 1.502.774 2.177 1.281 1.168.985 2.254 2.061 3.25 3.219 1.264 1.53 2.39 3.168 3.365 4.896.079.295.104.602.073.906 0 .25-.458.594-.458.594l.916 1.041c.086-.05.167-.11.24-.177zM65 46.125c0 .854.927 2.677 2.469 5.115.177.28.364.572.562.864.5-.302.971-.65 1.406-1.041.548-.44 1.038-.948 1.459-1.51l-.625-.595c-2.156-1.937-3.813-3.125-4.646-3.343l-.625.51z"/>
        <path fill="#DB6A51" d="M91.313 80.208c1.21-.637 2.275-1.52 3.124-2.593l.063.073.948 1.218c.208.25-.208.948-.958 1.615l-.146.125-.156.135c-.782.604-1.553.896-1.76.646l-1.115-1.219z"/>
        <path fill="#000" d="M88.469 77.083c-.292.542-.552 1.042-.781 1.438-2.532-2.813-6.032-6.719-8.605-9.625.476.08.964.05 1.427-.084l.344-.072h.115c2.291 2.562 5.198 5.802 7.5 8.343z" opacity=".04"/>
        <path fill="#E2E1E1" d="M77.605 78.203L82.689 78.203 82.689 97.494 77.605 97.494z" transform="rotate(-90.05 80.147 87.849)"/>
        <path fill="#2B3E51" d="M90.188 88.552L89.792 88.552 79.885 88.563 79.823 88.563 70.5 88.573 70.063 88.573 70.073 99.594 79.885 99.594 90.198 99.594z"/>
        <path fill="#FFAA8A" d="M21.615 52.27c-.063.167-.157.376-.23.626v-.552l-1.479 1.614-5.937 6.51c-1.308 1.213-2.036 2.926-2 4.71.083 4.905.24 14.739.24 16.5-.375 1.811-.923 3.583-1.636 5.29-.333.907-.708 1.897-1.104 2.938l-.063.177c-.208.521-.375 1.042-.52 1.459-2.084 6.395 1.156 5.979 1.156 5.979h11.677c-.574-1.943-.613-4.005-.115-5.969v-.094c.104-.49.24-1.041.406-1.541.311-1.009.701-1.991 1.167-2.938.125-.26.25-.52.396-.781 3.625-6.854 3.333-10.25 3.562-11.23.23-.978-.687-11.458-.51-18.04.094-3.574-.802-5.084-1.656-5.72-.394-.317-.892-.473-1.396-.437-.431.058-.844.21-1.208.448-.337.28-.595.642-.75 1.052z"/>
        <path fill="#FC987A" d="M21.385 52.896c-.549 2.34-.68 4.76-.385 7.146.49 6.843-.698 7.291-.698 7.291s-.167-2.427-.146-3.427c.021-1 .146-2.573.115-3.718-.031-1.146-.063-1.855-.115-2.896-.106-.882-.127-1.771-.062-2.657.343-.767.776-1.491 1.291-2.156v.417zM27.167 75c-.24.98.052 4.375-3.573 11.23-.146.26-.271.52-.396.78-.466.947-.856 1.93-1.167 2.938-.166.542-.302 1.042-.406 1.542v.093c-.5 1.964-.46 4.026.115 5.97h-1.5c-.567-1.946-.603-4.006-.105-5.97v-.093c.105-.49.24-1.042.407-1.542.31-1.009.7-1.99 1.166-2.938.115-.26.25-.52.386-.78 3.635-6.855 3.343-10.25 3.573-11.23.229-.98-.688-11.458-.521-18.042.094-3.573-.896-6.25-.177-5.718.718.53 1.75 2.145 1.656 5.718-.156 6.584.77 17 .542 18.042z"/>
        <path fill="#FFF" d="M22.01 51.656H22h.01z"/>
        <path fill="#E2E1E1" d="M9.718 82.329L23.083 82.329 23.083 101.621 9.718 101.621z" transform="rotate(-90.05 16.4 91.975)"/>
        <path fill="#2B3E51" d="M26.448 88.552L26.042 88.552 16.146 88.563 16.083 88.563 6.75 88.573 6.323 88.573 6.333 99.594 16.146 99.594 26.458 99.594z"/>
    </g>
</svg>
