<svg xmlns="http://www.w3.org/2000/svg" width="72" height="72" viewBox="0 0 72 72">
    <g fill="none">
        <path fill="#FFC864" d="M44.045 4.61C38.567 2.95 32.98-1.59 27.125.93c-4.797 2.074-8.186 6.394-12.068 9.65-3.13 2.606-6.174 5.243-9.148 7.99C2.512 21.701.32 25.615.697 30.381c.508 6.402 5.806 9.532 8.577 14.807 1.411 2.937 2.303 6.095 2.637 9.336.271 2.527 1.123 4.956 2.489 7.099 2.865 4.67 7.378 8.093 12.647 9.594 1.838.522 3.753.715 5.658.572 4.555-.415 8.523-3.178 12.084-6.058 2.637-2.128 5.04-4.539 7.755-6.55 2.716-2.011 5.29-3.913 8.077-5.674 2.387-1.487 5.196-2.966 6.973-5.189.734-.88 1.376-1.831 1.917-2.84 3.538-6.762.932-15.653-.062-22.696-.454-3.201-.83-6.48-2.2-9.392-.335-.779-.804-1.494-1.385-2.113-.656-.618-1.393-1.144-2.191-1.565-1.726-1.04-3.678-1.644-5.69-1.76-2.029-.184-4.04-.538-6.01-1.057-2.669-.697-5.298-1.495-7.928-2.285z" opacity=".43"/>
        <path fill="#BEB9B9" d="M24.887 33.01h8.17c.567 0 1.026.46 1.026 1.026v5.4h-10.23v-5.4c0-.274.11-.536.304-.728.194-.193.457-.3.73-.298z"/>
        <path fill="#7E7E8A" d="M38.974 66.271c0 1.057.047 2.106.086 3.13 0 .588-.736.682-1.205.909-.607.304-1.235.566-1.878.782-1.244.39-2.533.62-3.835.681-.915.044-1.832.003-2.74-.125-1.537-.173-3.054-.492-4.53-.955-1.426-.586-2.777-1.34-4.023-2.246-.343-.206-.663-.448-.955-.72-.196-.196-.587-.376-.712-.595-.11-.487-.142-.99-.094-1.487l-.07-1.471c-.04-.947-.071-1.894-.079-2.841V48.232c0-4.845 3.92-8.776 8.765-8.789h2.528c2.332-.002 4.57.923 6.22 2.572 1.65 1.648 2.577 3.885 2.577 6.217 0 4.289 0 8.609-.055 12.866-.024 1.73-.031 3.452 0 5.173z"/>
        <path fill="#FFAA8A" d="M46.957 21.952c0-.258 2.457-1.22 2.778-1.377.962-.485 1.925-.97 2.88-1.464 1.847-.95 3.673-1.92 5.478-2.911 1.805-.991 3.657-2.035 5.557-3.13.375-.22.782-.423 1.119-.658.453-.223.879-.499 1.268-.822-.783-1.432-2.787-2.3-4.25-2.864-1.726-.635-3.54-.999-5.377-1.08-.448-.023-.895-.07-1.338-.14-2.584-.429-5.13-1.06-7.615-1.887-1.056-.368-1.33 0-2.066.665-.548.493-1.119.963-1.706 1.417-1.205.939-2.465 1.823-3.717 2.708-1.556 1.213-3.284 2.19-5.126 2.895-1.352.395-2.738.657-4.14.783-2.6.206-5.15.818-7.56 1.816-1.642.838-3.212 1.81-4.696 2.903-3.64 2.472-7.495 4.61-11.52 6.386-1.643.72-3.13 1.66-4.696 2.52-.262.104-.471.31-.579.571-.064.32.097.643.392.783.274.128.573.194.876.196-.56.45-.689 1.252-.297 1.855.401.577 1.02.966 1.714 1.08 1.163.288 2.392.128 3.443-.447 1.162-.613 2.279-1.31 3.342-2.081-.338.625-.52 1.323-.532 2.034-.052.598.314 1.152.884 1.339.643.242 1.35.258 2.004.047 1.666-.634 2.465-2.552 3.2-4.039.337-.68.72-2.034 1.566-2.253.874-.094 1.755-.094 2.63 0 1.064 0 2.128 0 3.184-.055 3.506-.07 6.997.258 10.495.352 3.068.078 6.637.07 9.438-1.37 1.495-.814 2.826-2.136 2.967-3.772zM65.285 41.768c-1.37 1.283-2.457 2.88-3.968 3.999-1.721 1.276-3.842 1.84-5.752 2.802-1.768.9-3.404 2.16-5.353 2.559-3.287.68-6.464-1.252-9.595-2.481-3.13-1.229-6.816-1.69-10.017-3.052-3.2-1.362-6.44-2.348-9.563-3.804-1.041-.485-1.566-1.377-.783-2.441.4-.499.948-.858 1.565-1.026 1.667-.524 3.326.141 5.032.235 1.879.102 3.757 0 5.627-.039 2.305.03 4.596-.372 6.754-1.182 1.671-.875 3.245-1.924 4.696-3.13 2.475-1.705 5.064-3.24 7.748-4.594 1.565-.783 3.2-1.667 4.946-1.565.902.188 1.818.303 2.739.344.88-.124 1.722-.443 2.465-.931l4.265-2.481 2.137-1.237c.415-.242.782-.493 1.236-.727-.117.07.126.939.133 1.072.079.553.189 1.102.33 1.643.156.783.296 1.518.43 2.278.16.668.268 1.349.32 2.034.338 2.05.554 4.116.65 6.19 0 .51 0 1.01-.047 1.519 0 .078 0 .783-.086.783-1.025.309-2.018.715-2.966 1.213-1.075.525-2.066 1.205-2.943 2.019z"/>
        <path fill="#F89980" d="M40.782 22.336c-1.12-.047-1.675.125-2.458-.157-.782-.282-1.627-.892-2.512-1.15-1.565-.462-3.24.164-4.883.297-2.222.253-4.422-.63-5.854-2.348-.352-.47-.618-1.181-.22-1.62.165-.159.367-.275.588-.336 2.504-.96 4.972-2.004 7.403-3.13-1.643.57-3.365 1.22-4.977 1.87l-1.135.461c-.532.212-1.057.47-1.565.642-.509.172-1.221.673-1.143 1.37.29 2.559 3.608 3.35 5.674 3.655.446.065.896.106 1.346.125 1.62.039 3.271-.392 4.868-.055 1.596.337 3.365 1.04 4.868.376zM56.935 34.74c-.489.93-.855 1.919-1.088 2.943-.125.802-.335 1.59-.626 2.347-.513.994-1.338 1.792-2.348 2.27-1.014.46-2.085.781-3.185.955-1.152.112-2.262.493-3.24 1.111-.847.669-1.338 1.691-1.33 2.77-.032.848.428 1.637 1.181 2.027.525.16 1.083.185 1.62.07 1.15-.132 2.348-.21 3.467-.242l-2.778.658c-.533.147-1.083.226-1.636.234-1.218-.063-2.288-.829-2.742-1.962-.454-1.132-.208-2.425.63-3.312.478-.442 1.032-.794 1.635-1.041 1.393-.626 2.848-1.088 4.234-1.73 1.418-.587 2.669-1.518 3.639-2.708.707-1.1 1.283-2.279 1.714-3.513.227-.517.563-1.104 1.127-1.167l-.932 1.472"/>
        <path fill="#7E7E8A" d="M30.271 31.343c-.062-.962-.054-1.94 0-2.903-.07-.954.123-1.91.556-2.763.161-.268.387-.491.657-.65.247-.12.511-.202.783-.242 1.388-.298 2.81-.406 4.226-.32.088.015.178.015.266 0 .096-.048.18-.118.243-.204l1.181-1.362c.069-.063.118-.144.141-.235 0-.086.079-.234 0-.242-2.966-.188-5.947-1.166-8.851-.548-.837.174-1.612.569-2.246 1.143.298 2.751.382 5.522.25 8.287.979 0 1.808 0 2.794.04z"/>
        <path fill="#BEB9B9" d="M26.554 31.203h4.75c.915.008 1.652.752 1.652 1.667v.14h-8.069v-.14c0-.921.746-1.667 1.667-1.667z"/>
        <path fill="#3276B4" d="M36.22 31.9c-.2 1.155-.028 2.344.492 3.396.127.229.294.433.493.602.552.397 1.277.457 1.886.157.597-.315 1.056-.84 1.292-1.472.225-.627.339-1.29.336-1.956.021-.64-.029-1.28-.149-1.91-.446-2.27-1.956-4.202-2.919-6.26-.13 1.251-.341 2.493-.634 3.717-.35 1.222-.617 2.467-.798 3.725zM39.678 38.84c-.317.311-.405.787-.219 1.19.303.37.78.553 1.252.478.73.006 1.445-.201 2.059-.595.611-.433.998-1.115 1.056-1.863.043-.273-.019-.552-.172-.782-.509-.712-1.26-.282-1.714.164-.626.665-1.643.744-2.262 1.409z"/>
        <path fill="#F89980" d="M7.967 26.546c-.783.54-1.675 1.002-2.544 1.464l-1.283.696c-.439.262-.91.468-1.4.61.148 0 .437-.493.602-.61.336-.227.782-.383 1.119-.587.72-.391 1.424-.782 2.12-1.22 1.425-.87 2.818-1.785 4.203-2.7l3.405-2.247c.5-.329.994-.657 1.455-1.017-.213.23-.414.47-.602.72-.308.251-.632.481-.97.688l-1.996 1.41c-1.362.938-2.732 1.87-4.109 2.793z"/>
        <path fill="#F89980" d="M10.714 30.608c1.386-3.29 2.989-6.485 4.797-9.564-2.049 2.942-3.665 6.163-4.797 9.564zM23.682 23.189l-1.127.461c-.838.36-1.644.783-2.473 1.088-.59.25-1.11.636-1.519 1.127-.51.614-.941 1.29-1.283 2.012-.25.508-.376.782-.657 1.299.352-.783.665-1.824 1.017-2.622.208-.54.554-1.018 1.002-1.385.76-.556 1.6-.996 2.488-1.307.979-.384 1.957-.783 2.959-1.041-.063.185-.217.324-.407.368zM43.137 41.815c-2.224.063-4.441-.269-6.55-.978-1.017-.306-2.027-.728-3.06-.955l-3.38-.752c-.766-.207-1.556-.305-2.349-.29-.782.048-2.825.705-2.152 1.856.23.328.537.596.892.782l2.16 1.409c.274.182.562.341.861.477.266.11.548.173.783.274.558.22 1.085.516 1.565.877-1.193-.717-2.46-1.302-3.78-1.745-.664-.26-1.307-.57-1.925-.924-.435-.186-.815-.48-1.104-.853-.225-.563-.082-1.206.36-1.62.446-.544 1.112-.86 1.816-.86 1.667-.042 3.328.223 4.899.782l5.431 1.565c.595.18 1.198.352 1.808.477 1.488.183 2.985.28 4.485.29-.07.352-.517.172-.76.188z"/>
        <path fill="#FFF" d="M36.869 31.038c-.102.59-.165 1.186-.188 1.785-.017.321.017.644.102.954.066.317.25.597.516.783.047.025.102.025.149 0 .036-.022.059-.06.062-.102.058-.317.044-.643-.039-.955-.17-1.156-.267-2.322-.29-3.49-.163.32-.269.668-.312 1.025zM43.106 38.817c0 .18-1.823.783-2.043.885.462.665 1.98-.259 2.043-.885z"/>
        <path fill="#FFC864" d="M60.26 55.3h.212c1.346.124 2.207 1.65 1.041 2.543l-5.165 3.983c-1.205.916-2.598 1.886-4.093 1.651-.845-.133-1.417-.688-.924-1.565.212-.325.477-.614.783-.853l3.451-2.974c.934-.94 2.005-1.731 3.178-2.348.472-.243.988-.392 1.518-.438zM10.597 11.74c.49-.12.945-.35 1.33-.674.4-.29.783-.587 1.166-.892.697-.548 4.61-2.958 4.398-3.811-.25-1.026-2.942-.861-3.678-.564-1.236.493-2.254 1.784-3.13 2.692-.799.775-2.732 3.757-.086 3.248z" opacity=".43"/>
    </g>
</svg>
