<svg xmlns="http://www.w3.org/2000/svg" width="72" height="72" viewBox="0 0 72 72">
    <g fill="none" fill-rule="evenodd">
        <path fill="#FFC864" fill-rule="nonzero" d="M59.506 15.095c-1.397-.623-2.848-1.116-4.336-1.472-2.913-.892-5.727-2.03-8.575-3.15-5.588-2.234-11.315-4.525-17.402-4.746C21.472 5.594 14 8.462 8.353 13.73 4.01 17.746 1.752 23.31.926 29.111.28 34.193.838 39.355 2.553 44.18c1.62 4.697 4.32 8.948 7.879 12.413l.278.286.376.385c.197.204.401.4.598.597l47.822-42.767zM65.03 18.728c-.687-.606-1.423-1.154-2.202-1.636L14.351 60.398c3.275 2.99 6.945 5.518 10.906 7.511 1.247.62 2.528 1.166 3.838 1.636 4.664 1.73 9.757 1.936 14.547.59 5.179-1.58 8.435-6.178 12.592-9.418L58 59.367c1.11-.836 2.173-1.735 3.183-2.692 9.621-9.45 15.21-27.474 3.845-37.947z" opacity=".43"/>
        <path fill="#77B1E0" d="M12.526 24.08c-.188.613-.081 1.087.704 1.136.736.023 1.472-.015 2.2-.114 1.465-.147 2.93-.344 4.395-.491 1.587-.153 3.174-.276 4.761-.368 1.71-.098 3.429 0 5.139-.123 1.71-.123 3.518-.172 5.269-.295 1.75-.122 3.411-.27 5.113-.441 2.168-.221 4.345-.426 6.497-.729 1.112-.13 2.209-.375 3.272-.728l-5.187-.45c-1.113-.098-2.225-.188-3.33-.31-1.44-.164-2.88-.344-4.312-.532-1.432-.189-2.92-.344-4.36-.606-1.792-.327-3.592-.646-5.352-1.113-2.176-.572-4.352-1.137-6.488-1.832-.564-.189-1.08-.491-1.636-.63-1.285-.295-1.636-.099-2.316.818-.908 1.317-1.775 2.659-2.642 4-.696.857-1.276 1.8-1.727 2.807z"/>
        <path fill="#77B1E0" d="M35.42 19.325c1.17.172 2.347.238 3.517.393 1.17.156 2.177.23 3.273.336l3.895.384 4.09.401c.729.066 1.457.115 2.193.172-.19-.138-.408-.236-.638-.286-1.276-.36-2.577-.639-3.82-1.089-2.586-.94-5.098-2.061-7.626-3.141-1.179-.5-2.34-1.04-3.56-1.424-1.589-.554-3.319-.554-4.909 0L27.9 16.486c-.655.246-1.31.508-2.11.819 1.831.614 3.711 1.073 5.62 1.374 1.358.27 2.684.45 4.01.646z"/>
        <path fill="#77B1E0" fill-rule="nonzero" d="M7.732 34.126l.13.066c.72.343 1.465.67 2.185.982l1.506.67 3.052 1.408 2.454 1.145 2.577 1.17c1.44.655 2.93 1.334 4.394 2.021 1.465.687 2.765 1.227 3.976 1.637l4.91-4.402c-.676-.126-1.342-.293-1.997-.5-.132-.034-.257-.092-.368-.171-.207-.137-.303-.391-.237-.63.089-.255.327-.428.597-.434.093.004.185.027.27.066h.106l.598.163c.421.146.857.245 1.3.295l.99.049L50.9 22.795c-1.047.212-2.094.458-3.142.638-6.999 1.12-14.07 1.727-21.158 1.816-1.996.05-3.984.131-5.973.327-2.184.213-4.41.655-6.61.655-.331 0-.662-.016-.99-.05-.538.002-1.049-.23-1.4-.637-.957-1.326.688-3.159 1.424-4.214.227-.309.435-.631.622-.965h-.066c-1.42.408-2.78 1.005-4.041 1.775-1.772 1.026-3.268 2.467-4.361 4.197-1.056 1.768-1.195 4.484.155 6.128.657.724 1.468 1.292 2.373 1.661zM45.074 34.97l2.307-.9 3.976-1.572c2.226-.892 4.091-1.636 5.99-2.454.441-.189.891-.352 1.325-.524.871-.302 1.719-.669 2.536-1.096.745-.41 1.637-1.154 1.506-2.095-.189-1.914-3.085-2.839-4.566-3.354-.278-.099-.548-.189-.818-.295-.27-.106-.385-.13-.59-.18L41.344 36.278c1.252-.393 2.495-.818 3.73-1.309zM31.263 49.19l.384.138c.22.095.447.169.68.221 2.066.381 4.195.252 6.201-.376 2.594-.818 5.147-1.825 7.544-2.75 2.863-1.104 5.923-2.315 8.934-3.657 1.408-.638 2.823-1.317 4.19-1.98l1.791-.859c.818-.409 1.898-.638 2.528-1.399.629-.905 1.015-1.955 1.121-3.052.258-1.198.013-2.449-.679-3.46-.564-.742-1.296-1.339-2.135-1.743-.737-.393-1.178-.098-1.882.13l-.213.033-2.242.909-4.909 1.971c-2.16.868-4.303 1.71-6.856 2.684-2.037.818-4.197 1.514-6.545 2.176l-6.669 6.006h.475c1.672.019 3.334-.258 4.909-.818 1.227-.453 2.46-.895 3.698-1.326l.818-.286 1.506-.524c.957-.335 1.947-.679 2.92-1.039 1.506-.564 3.077-1.17 4.55-1.734l1.12-.442c1.564-.616 3.089-1.326 4.566-2.128.66-.313 1.186-.853 1.481-1.521.052-.136.08-.28.082-.426.003-.133.022-.264.057-.393.033-.21.185-.38.39-.437.205-.057.424.012.56.176.29.28.372.713.204 1.08-.293.938-.915 1.74-1.751 2.258-1.035.724-2.16 1.31-3.346 1.743l-.205.09c-2.626 1.088-5.27 2.102-7.74 3.027-3.052 1.145-6.145 2.242-9.18 3.273-1.315.476-2.694.752-4.09.818h-.328c-.685-.003-1.369-.058-2.046-.164l-8.82 7.846c1.367.663 2.913 1.391 4.468 2.03 1.563.691 3.215 1.162 4.909 1.399 1.719.204 3.458.154 5.162-.148 1.373-.236 2.723-.592 4.034-1.063 1.694-.614 3.207-1.178 4.688-1.833 1.718-.753 3.47-1.505 5.163-2.225l2.88-1.236.728-.319c1.538-.663 3.134-1.35 4.68-2.045l.712-.32c.881-.347 1.728-.777 2.528-1.284.623-.397 1.147-.932 1.53-1.563.432-.8.529-1.738.27-2.61-.107-.63-.48-1.184-1.023-1.522-.171-.114-.229-.114-.384-.04-.336.171-.671.319-1.006.466l-.737.343-2.25 1.072-1.849.892-.262.123c-.458.22-.932.45-1.415.646l-1.047.442c-1.809.753-3.674 1.53-5.515 2.266-3.11 1.236-6.316 2.512-9.58 3.568-1.404.506-2.879.783-4.37.818-.769.001-1.535-.09-2.283-.27l-.237-.115c-.453-.088-.893-.234-1.31-.433-.162-.07-.288-.203-.347-.37-.06-.166-.046-.35.037-.506.068-.132.186-.23.328-.274.142-.043.295-.027.425.045zM16.69 50.58l2.063.965L27 44.182l-.524-.205c-2.454-.998-4.827-2.119-7.167-3.199-1.047-.483-2.103-.973-3.166-1.448-2.586-1.178-5.147-2.38-7.626-3.543-.116-.06-.245-.093-.376-.098-.458 0-1.146.606-1.522.818-2.74 1.686-3.73 5.63-1.587 8.182.745.805 1.663 1.431 2.683 1.833l.77.327c1.881.818 3.837 1.636 5.727 2.52l2.479 1.211z"/>
        <path fill="#FFC864" fill-rule="nonzero" d="M60.84 61.094c.528-.172 1.088-.217 1.636-.131.544.09 1 .46 1.203.973.12.64-.089 1.298-.556 1.751-.933 1.056-2.316 1.637-3.224 2.708-.546.713-.992 1.498-1.325 2.332-.321.846-.824 1.612-1.473 2.242-.473.48-1.143.712-1.812.626-.668-.087-1.258-.482-1.592-1.068-.818-1.366-.196-2.61.467-3.886 1.342-2.71 3.767-4.724 6.676-5.547zM43.445 7.364c.384-.015.763-.092 1.121-.23.819-.327 1.776-1.358 1.637-2.307-.082-.589-.655-.957-1.17-1.243C42.905 2.34 40.606 1.42 38.209.85c-1.48-.32-6.545-1.4-6.725 1.104-.004.57.241 1.114.67 1.49.43.353.917.63 1.44.818 2.021.867 4.173 1.399 6.235 2.168.756.329 1.536.602 2.332.818.421.095.853.133 1.284.115z" opacity=".43"/>
    </g>
</svg>
