<svg xmlns="http://www.w3.org/2000/svg" width="72" height="70" viewBox="0 0 72 70">
    <g fill="none" fill-rule="evenodd">
        <path fill="#FFC864" fill-rule="nonzero" d="M11.817 59.166C6.68 48.99-.743 38.88.572 26.878c.125-1.484.48-2.939 1.054-4.313 1.395-3.17 4.253-5.426 7.088-7.423 4.454-3.08 9.07-5.648 13.754-8.269 4.32-2.42 8.804-5.025 13.903-5.054 4.55 0 8.818 2.048 12.893 4.075l8.99 4.453c4.742 2.36 9.812 5.033 12.15 9.79 1.885 3.838 1.626 8.38.676 12.552-.95 4.172-2.561 8.165-3.281 12.382-1.114 6.59-.423 14.377-5.434 18.801-2.79 2.464-6.74 3.162-10.466 3.103-1.261 0-2.538-.334-3.763-.364-1.826-.037-3.77.438-5.641.542-2.168.119-4.335.2-6.51.267-4.342.141-8.684.238-13.02.483-.781.097-1.575.031-2.33-.193-1.017-.379-1.922-1.084-2.924-1.485-.958-.402-1.825-.99-2.554-1.73-1.356-1.547-2.456-3.3-3.258-5.195l-.082-.134zM9.234 59.085c.46.534 1.937 1.944 1.24 2.79-.802.965-1.916-.742-2.294-1.328-.372-.572-.792-1.11-1.255-1.61-.283-.288-.532-.607-.742-.951-.213-.352-.246-.785-.089-1.165.802-1.67 2.687 1.751 3.14 2.264z" opacity=".43"/>
        <path fill="#F1B27B" fill-rule="nonzero" d="M31.561 35.154c.133.147.252.306.357.475.183.335.285.709.296 1.091v.579c0 .134 0 .356-.155.408-.156.052-.2 0-.297 0-.035.027-.072.05-.112.067-.14.067-.304-.074-.46-.037-.156.037-.104.044-.163.06-.06.014-.23-.045-.334 0-.031.014-.061.031-.09.051-.11.06-.244.06-.356 0-.107-.063-.196-.153-.26-.26-.073-.11-.14-.223-.2-.341-.052-.111-.148-.186-.193-.304-.018-.098-.018-.2 0-.297.009-.275-.021-.55-.089-.817-.07-.188-.113-.385-.126-.586-.019-.165-.019-.332 0-.497l.052-.06c.236-.266.535-.47.868-.594.06-.01.12-.01.179 0 .215 0 .363.29.49.438l.593.624z"/>
        <path fill="#232336" fill-rule="nonzero" d="M32.66 36.238h-4.602c-.617.04-1.085.57-1.047 1.187v1.277h1.002v-1.277c0-.026.019-.048.045-.052h4.602s.037 0 .037.052v1.277h1.01v-1.277c.033-.615-.433-1.144-1.047-1.187z"/>
        <path fill="#283237" fill-rule="nonzero" d="M27.278 38.702L27.731 38.702 27.731 45.605 27.278 45.605zM32.972 38.702L33.424 38.702 33.424 45.605 32.972 45.605z"/>
        <rect width="2.034" height="4.624" x="23.203" y="62.209" fill="#232336" fill-rule="nonzero" rx="1.017"/>
        <rect width="2.034" height="4.624" x="36.045" y="62.209" fill="#232336" fill-rule="nonzero" rx="1.017"/>
        <path fill="#D84E55" fill-rule="nonzero" d="M24.257 47.12V64.19c-.068.89.596 1.666 1.485 1.737h9.887c.889-.07 1.553-.848 1.484-1.737V47.12c.035-.428-.102-.853-.38-1.18-.279-.327-.676-.53-1.104-.564h-9.917c-.88.086-1.528.863-1.455 1.744z"/>
        <rect width="7.92" height="4.194" x="26.699" y="46.763" fill="#BB3A45" fill-rule="nonzero" rx="2.097"/>
        <rect width="7.92" height="4.194" x="26.699" y="51.847" fill="#BB3A45" fill-rule="nonzero" rx="2.097"/>
        <rect width="7.92" height="4.194" x="26.699" y="57.169" fill="#BB3A45" fill-rule="nonzero" rx="2.097"/>
        <path stroke="#DEDDDD" stroke-linecap="round" stroke-width=".25" d="M50.014 3.296c.537.052 1.067.161 1.581.326M50.021 4.157c.505.037 1.017.067 1.485.089"/>
        <path fill="#223056" fill-rule="nonzero" d="M51.395 28.206c-2.97.17-3.86 3.712-4.216 6.072-.55 3.644-.245 7.348-.156 11.008v3.496c-.147.868.231 1.74.965 2.227.126.14.193.334.326.46.223.166.475.29.742.364.876.386 1.73.86 2.584 1.276.043.013.09.013.133 0 .074 0 .112-.111.126-.185.415-1.712.73-3.447.943-5.196.086-1.616.287-3.223.601-4.81.432-1.523.786-3.066 1.062-4.624.253-1.354.37-2.729.349-4.105.034-1.002-.197-1.995-.668-2.88-1.9-2.97-2.754-3.118-2.754-3.118"/>
        <path fill="#E6A880" fill-rule="nonzero" d="M47.49 63.345L47.579 65.72 45.909 66.96 49.413 67.101 49.131 65.75 49.391 62.566z"/>
        <path fill="#223056" fill-rule="nonzero" d="M48.381 47.75c3.852.134 3.823 4.758 3.303 7.267-.52 2.509-2.375 10.54-2.375 10.54l-2.227-.163s-.208-13.925.052-15.662 1.247-1.982 1.247-1.982zM56.301 28.533c-6.569 1.158-2.034 17.91-1.722 20.716.096.928.49 2.658 1.574 2.918 1.108.16 2.229-.19 3.05-.95.482-.72.714-1.578.66-2.443.164-3.325.328-6.68.617-9.96.2-2.228.445-5.62-1.091-7.49-2.227-2.702-3.088-2.784-3.088-2.784"/>
        <path fill="#E6A880" fill-rule="nonzero" d="M56.464 63.427L56.539 66.826 57.897 66.96 58.372 62.677z"/>
        <path fill="#223056" fill-rule="nonzero" d="M55.848 47.706c3.845-.193 4.209 4.453 3.905 6.962-.305 2.509-1.485 10.704-1.485 10.704h-2.227s-1.35-13.859-1.24-15.588c.112-1.73 1.047-2.078 1.047-2.078z"/>
        <path fill="#323346" fill-rule="nonzero" d="M56.256 66.173L58.298 66.188 59.923 68.304 56.026 68.333z"/>
        <path fill="#B58F52" fill-rule="nonzero" d="M58.98 13.02c-1.046-.646-2.968-.914-4.512-.995H53.45c-1.444.03-2.885.155-4.313.37-1.01.127-1.774.825-2.605 1.367-1.225.786-2.442 1.558-3.712 2.278.802.988 1.235 2.224 1.225 3.496 0 .12 1.388-.363 1.485-.393.668-.245 1.336-.46 2.019-.653.023-.01.05-.01.074 0 0 0 0 .06.044.089.154 3.437.055 6.88-.296 10.303-.082.838-.171 1.67-.268 2.501-.096.831-.504 1.663.453 1.863 1.485.312 3.073.498 4.595.802.062.023.13.023.193 0 .048-.03.084-.074.104-.126l.423-.884c-.04.402.009.807.14 1.188.61-.045 1.213-.142 1.804-.29l2.925-.645 1.485-.32c.185-.044.92 0 .994-.178.04-.117.04-.245 0-.363-.364-1.938-.742-3.875-1.084-5.812-.085-.79-.085-1.586 0-2.376 0-.957.067-1.915.067-2.865l.134-5.67c0-1.218.646-2.064-.356-2.688z"/>
        <path fill="#E6A880" fill-rule="nonzero" d="M55.136 13.36c.372-.299.633-.714.742-1.18.004-.016.004-.034 0-.051h-.045c-.2-.004-.397-.05-.579-.134-.165-.06-.337-.097-.512-.111-.415-.085-.838-.132-1.262-.141-.32.007-.637.044-.95.111-.286.042-.567.114-.838.215-.052.02-.102.045-.149.075-.19.223-.23.537-.104.801.107.196.236.378.386.542.162.225.308.46.438.705l.624 1.21c.097.166.167.346.207.534.045 0 .09 0 .12-.044.555-.6 1.052-1.25 1.484-1.945.124-.21.27-.407.438-.586z"/>
        <path fill="#323346" fill-rule="nonzero" d="M49.598 68.207l-.304-2.026s-.104.541-1.047.541c-.477.01-.93-.211-1.217-.593l-4.045 1.15-.29.928 5.938.386.965-.386z"/>
        <g fill="#DEDDDD" fill-rule="nonzero">
            <path d="M.631 1.403L8.774 1.403 8.774 1.878.631 1.878zM15.202 1.403L19.099 1.403 19.099 1.878 15.202 1.878zM.63 1.403C.63.334 2.16.475 2.16.475l.349.928H.63z" transform="translate(40.825 66.804)"/>
            <path d="M15.202 1.403c0-.49.408-.861 1.73-.846 1.32.015 2.167.245 2.167.846s-2.057.237-2.057.237l-1.84-.237z" transform="translate(40.825 66.804)"/>
        </g>
        <path fill="#E6A880" fill-rule="nonzero" d="M55.21 4.602L52.026 5.24 52.026 13.168 55.21 13.168z"/>
        <path fill="#E6A880" fill-rule="nonzero" d="M56.108 6.384s-.044-.075-.052-.075c.423-.534.609-.586.527-1.818-.148-2.227-2.783-2.064-4.045-2.116-2.227-.089-3.712 6.94-2.465 7.876 1.247.935 4.454-.23 4.677-1.106.14-.498.274-.906.408-1.247.34.068.69-.076.883-.364.29-.379.371-.913.067-1.15z"/>
        <path fill="#2C314B" fill-rule="nonzero" d="M50.348.55c-1.618.504-1.878 1.484-1.484 2.337.393.854.838 1.886 3.184 1.76.626-.045 1.243.167 1.71.587.466.42.741 1.012.762 1.64h.4s0-.646.52-.743c.52-.096.742.282.653.742-.089.46-.846.906-.846.906v.327c.608 0 1.156-.37 1.38-.936.35-.942 0-1.336.327-1.885.327-.55 1.04-.935.742-2.227-.296-1.291-2.664-1.789-4.728-1.484-2.063.304-2.62-1.025-2.62-1.025z"/>
        <path fill="#E6A880" fill-rule="nonzero" d="M55.232 30.581c-.482-.311-2.531 1.337-2.783 2.079-.253.742 1.647 1.484 2.167 1.61.861.216 1.336-3.22.616-3.689z"/>
        <path fill="#B58F52" fill-rule="nonzero" d="M59.753 22.862c-.06.089-.104.148-.12.14-.02-.014-.036-.034-.044-.058-.31-.699-.675-1.371-1.09-2.012-.417-.638-.87-1.24-1.315-1.863-.729-.907-1.205-1.99-1.38-3.14-.297-2.717 2.91-4.454 4.275-1.804.534 1.048 1.005 2.126 1.41 3.23.238.615.468 1.239.683 1.87.216.63.312 1.158.55 1.707.013.036.013.075 0 .111 0 .052-.097.052-.156.045-.601-.066-1.206.09-1.7.438-.288.203-.539.454-.742.742-.067.052-.245.393-.371.594z"/>
        <path fill="#E6A880" fill-rule="nonzero" d="M55.173 30.002c.237-.26.467-.527.742-.794.512-.608 1.032-1.21 1.559-1.81.653-.743 1.321-1.485 2.026-2.228.282-.282.572-.556.846-.853.026-.021.044-.05.052-.082.008-.024.008-.05 0-.074-.168-.471-.369-.93-.6-1.373-.04-.061-.04-.14 0-.2.253-.465.612-.864 1.046-1.166.437-.3.955-.457 1.484-.453.08.001.158.02.23.052.104.052.12.17.164.26.044.089.126.267.185.4.112.268.215.535.312.81.186.552.328 1.118.423 1.692.122.579-.04 1.18-.438 1.618-1.285 1.322-2.703 2.509-4.23 3.54-.667.459-1.306.955-1.916 1.485-.156.141-1.625 1.567-1.484 1.708-.464-.505-.96-.978-1.485-1.418.349-.32.72-.683 1.084-1.114zM40.246 19.574c1.368.076 2.74-.041 4.075-.35.023-.59-.105-1.178-.371-1.706-.136-.258-.29-.506-.46-.743-.045-.074-.38-.586-.49-.556-.64.202-1.296.351-1.96.445-.288.09-.599.074-.876-.045-.842-.55-1.64-1.169-2.383-1.848-.386-.386-.868-.742-1.291-1.061-.37-.368-.772-.701-1.203-.995-.446.513-.853 1.059-1.217 1.633.839.66 1.603 1.581 2.42 2.308l2.969 2.598c.123.124.27.222.43.29.117.025.237.035.357.03z"/>
        <path fill="#4B7EF6" fill-rule="nonzero" d="M35.555 12.849L34.271 14.667 30.886 12.381 32.088 10.236z"/>
        <path fill="#4B7EF6" fill-rule="nonzero" d="M29.72 9.583L28.652 9.932 29.579 11.26 32.4 12.44 32.125 9.813 30.433 9.071z"/>
        <path fill="#E85A6B" fill-rule="nonzero" d="M26.076 8.788c.044.584.31 1.128.742 1.522.364.23 3.05.267 3.05.267.261-.003.522-.02.78-.052.275-.037 1.678 3.088 1.76 2.65.081-.438-1.485-4.453-2.227-4.639-.952-.16-1.92-.195-2.88-.104-.43.025-.849.147-1.225.356z"/>
        <path fill="#FFF" fill-rule="nonzero" d="M26.417 8.818c.058.57.322 1.097.743 1.485.986.25 1.991.42 3.006.504 0 0 1.276 3.044 1.544 2.97.267-.075.957-.208 1.031-.646.075-.438-1.484-4.454-2.226-4.64-.95-.16-1.915-.194-2.873-.103-.437.044-.856.192-1.225.43z"/>
        <path fill="#DBDEE1" fill-rule="nonzero" d="M31.598 13.77c.045.051.082.073.104.073.275-.044.958-.208 1.032-.645.074-.438-1.485-4.454-2.227-4.64-.949-.16-1.914-.195-2.872-.104-.432.03-.854.146-1.24.342h.111s2.866-.17 3.437.208c.593.442 1.06 1.03 1.358 1.707.396.86.726 1.748.988 2.657l-.364.245-.327.156z"/>
        <path fill="#4B7EF6" fill-rule="nonzero" d="M32.66 9.108c-.334-.342-2.012-.936-2.182-.468-.09.151-.114.332-.07.502.045.17.155.315.307.404.364.207.76.353 1.173.43l.475 1.403.571-.468s.023-1.47-.274-1.803zM28.614 11.008c-.133.334 1.314 2.108 1.67 2.019.357-.09.587-.186.602-.742.05-.577-.24-1.13-.742-1.418-.453-.245-1.403-.2-1.53.14z"/>
        <path fill="#E85A6B" fill-rule="nonzero" d="M28.414 8.699L29.461 8.759 29.832 8.588 28.882 8.529z"/>
        <path fill="#4B7EF6" fill-rule="nonzero" d="M57.006 31.175c.067-.008.129-.037.178-.081-.617-.604-1.28-1.16-1.982-1.663-.318.471-.691.902-1.113 1.284-.252.215-.512.416-.78.624-.413.296-.766.669-1.038 1.098-.235.507-.371 1.053-.401 1.61 0 .268 0 .64.274.699l.46-.646c-.036.218-.036.442 0 .66.004.068.027.132.067.186.1.086.249.086.35 0 .098-.08.175-.185.222-.304-.111.2.148.445.378.393.221-.074.394-.247.468-.468.038.108.119.194.224.238.104.044.223.041.325-.007.204-.102.364-.273.453-.483.29-.52.475-1.099.742-1.633.268-.534.58-1.507 1.173-1.507z"/>
        <path fill="#F1B27B" fill-rule="nonzero" d="M19.433 14.029L19.692 19.292 22.491 19.678 22.32 14.281zM25.682 27.612c.045.188.097.374.156.557.313.67.757 1.271 1.307 1.767l1.64 1.982 1.952 2.367-1.158 1.04-8.016-7.49c.163.149 1.35-.044 1.566-.06.55-.036 1.255-.036 1.485-.645.052-.177.087-.358.104-.542.017-.183.09-.356.207-.497.125-.144.334-.178.498-.082.057.539.143 1.074.26 1.603z"/>
        <path fill="#3B1E0E" fill-rule="nonzero" d="M24.183 8.106c.238 0 .438.089.586.445.08.24.118.49.112.742 0 .371-.015.742-.045 1.114.003.492-.15.973-.438 1.373-.074-.781-.208-1.556-.4-2.316 0-.082-.29-1.255-.401-1.21.186-.08.384-.13.586-.148z"/>
        <path fill="#F1B27B" fill-rule="nonzero" d="M17.666 11.876c.19.728.29 1.475.297 2.227 0 .17-.067.445.067.58.833.844 1.76 1.59 2.76 2.226.691.416 1.768.683 2.45.111.126-.115.24-.242.342-.378 1.002-1.336 1.039-2.836.957-4.454.03-.953-.044-1.906-.222-2.843-.116-.639-.522-1.187-1.099-1.484-1.255-.597-2.705-.63-3.986-.09-.846.342-1.885 1.366-1.84 2.354.043.59.135 1.176.274 1.751z"/>
        <path fill="#F1B27B" fill-rule="nonzero" d="M17.755 12.032c-.058-.042-.12-.076-.186-.104-.556-.215-1.098-.037-1.135.624-.036.601.155 1.194.534 1.662.205.297.546.47.906.46.211-.03.396-.16.497-.348.156-.297 0-.557-.06-.846-.11-.475-.14-1.144-.556-1.448z"/>
        <path fill="#532F17" fill-rule="nonzero" d="M18.408 10.74s.178 1.619-.341 1.775c-.742.23-1.032-.847-1.032-.847-.58-.374-.896-1.044-.816-1.729.11-1.165.987-1.032.987-1.032s-.742-.623 0-1.143c0 0-.483-.646.475-1.202.957-.557 3.251-2.13 5.841-1.648 2.428.453 2.227 3.154.52 3.54 0 0-4.587-.17-5.67.676.311.488.326 1.109.036 1.61z"/>
        <path fill="#6C442F" fill-rule="nonzero" d="M16.88 8.996l-.045-.037-.082.037c.042-.004.084-.004.126 0z"/>
        <path fill="#DC9880" fill-rule="nonzero" d="M22.268 15.216c.213.034.42.105.609.208.036.04.036.102 0 .141-.03.05-.092.066-.141.037-.42-.233-.931-.233-1.351 0-.032.02-.072.022-.105.004-.033-.017-.055-.051-.056-.089-.001-.037.018-.073.05-.093.295-.188.648-.261.994-.208z"/>
        <path fill="#FFF" fill-rule="nonzero" d="M17.154 11.795c.279.062.561.107.846.133.4.058.781.208 1.113.438.327.215.61.609 1.032.55-.235-.126-.459-.273-.668-.438-.223-.134-.408-.32-.638-.438-.523-.254-1.114-.333-1.685-.223v-.022zM19.61 15.632c-.01-.023-.025-.043-.044-.06-.044-.036-.119-.036-.17-.073-.173-.107-.357-.192-.55-.253-.161-.062-.312-.15-.445-.26l-.208-.14c-.037 0-.141-.15-.186-.15-.178 0 .045.209.082.246.037.037.267.193.393.297.106.078.218.147.334.208.083.051.17.096.26.133l.453.2h.067c.06-.03.037-.11.015-.148z"/>
        <path fill="#FFF" fill-rule="nonzero" d="M23.352 16.953c-.55.394-1.266.47-1.886.2-.526-.174-1.011-.454-1.425-.823-.081-.074-.594-.497-.571-.586.248-1.048.44-2.109.571-3.177 0 .185 2.554.155 2.717.14.403-.035.803-.104 1.195-.207.275-.067.668-.35.742.111.011.432-.011.864-.067 1.292-.133.987-.393 2.471-1.276 3.05z"/>
        <path fill="#F4B9A2" fill-rule="nonzero" d="M14.816 52.382L12.819 67.175 14.845 67.071 18.289 52.382zM21.34 52.382L21.34 67.175 23.367 67.071 24.814 52.382z"/>
        <path fill="#2B2B2B" fill-rule="nonzero" d="M21.08 63.546l2.97.14c.742-5.826 1.38-25.704 1.38-25.704l-3.711.2-1.195 2.227c-.008 6.629.349 17.169.556 23.137z"/>
        <path fill="#2B2B2B" fill-rule="nonzero" d="M12.938 63.835l2.969-.304s3.711-12.879 5.448-19.433c.275-1.032.594.646.742-1.262.078-.821.108-1.647.09-2.471l.17-2.227-6.39-.416c.007.876-3.03 26.113-3.03 26.113z"/>
        <path fill="#223056" fill-rule="nonzero" d="M15.261 66.96v-.564c-.004-.128-.11-.23-.237-.23l-2.405.067c-.113.005-.206.089-.223.2 0 .17-.067.423-.104.668-.278.273-.43.65-.416 1.04v.793h4.112v-.794c.011-.502-.273-.964-.727-1.18z"/>
        <path fill="#191919" fill-rule="nonzero" d="M28.184 69.172L20.932 69.172 20.925 68.719 28.176 68.719z"/>
        <path fill="#223056" fill-rule="nonzero" d="M26.261 67.546l-1.558-.252-.95-1.128c-.835.425-1.823.425-2.658 0-.14.004-.252.119-.252.26v2.36h7.252c.2-1.136-.78-1.24-1.834-1.24z"/>
        <path fill="#191919" fill-rule="nonzero" d="M15.951 69.202L11.839 69.202 11.839 68.741 15.951 68.741z"/>
        <path fill="#2B2B2B" fill-rule="nonzero" d="M12.619 63.093c-.103.197-.154.416-.149.638 0 .223-.163.66-.06.794 1.272.127 2.552.127 3.823 0 .112-.118 0-.63.075-.742.093-.22.1-.465.022-.69-1.234-.118-2.477-.118-3.711 0zM20.784 63.093c-.103.197-.156.416-.156.638 0 .223-.164.66-.052.794 1.27.127 2.551.127 3.822 0 .112-.118 0-.63.075-.742.093-.22.1-.465.022-.69-1.234-.118-2.477-.118-3.711 0z"/>
        <path fill="#61428B" fill-rule="nonzero" d="M22.914 18.364h-.17c-.365 0-.276.311-.461.46-.184.109-.395.165-.609.163-.908-.065-1.795-.304-2.613-.705l-2.263 1.232-.646 8.588-.483 6.369c-.06.809-.118 1.61-.185 2.42 0 .282-.23.972-.104 1.187.23.394 1.87.141 2.3.164 1.894.126 3.801.571 5.701.267.595-.107 1.183-.25 1.76-.43.18-.04.35-.119.497-.23.356-.313.193-1.159.186-1.567 0-.742 0-1.418-.067-2.13-.052-1.38-.134-2.761-.253-4.142-.052-.586-.104-1.173-.163-1.76-.132-.55-.185-1.118-.156-1.684.067-.29.356-.312.475-.557.107-.506.107-1.03 0-1.536-.088-1.12-.305-2.226-.646-3.296-.25-.99-.796-1.882-1.566-2.553-.156-.126-.339-.215-.534-.26z"/>
        <path fill="#F1B27B" fill-rule="nonzero" d="M30.04 35.629c.31.36.667.677 1.061.943.09.072.198.12.312.14.118.016.231-.052.274-.163.02-.11-.017-.224-.096-.304-.092-.16-.219-.297-.371-.4-.128-.068-.277-.084-.416-.045-.1.015-.187.079-.23.17-.02.046-.02.097-.003.143.018.046.054.083.1.102M30.722 37.774c-.096 0-.178.09-.282.067-.044-.011-.087-.029-.126-.052-.205-.098-.37-.263-.467-.468-.038-.104 0-.237.096-.267.089-.021.182 0 .252.06.08.046.15.107.208.178-.006-.061.004-.123.03-.179.047-.102.155-.162.267-.148.112.021.214.079.29.163.039-.121.165-.192.29-.163.117.031.224.093.31.178.025-.05.072-.087.127-.096.054-.011.11-.011.163 0 .086.017.167.053.238.104.073.052.122.133.134.222.011.024.011.051 0 .074-.02.034-.052.058-.09.067-.073.031-.15.051-.23.06-.059.004-.118.004-.178 0-.174-.002-.347.025-.512.081-.141.037-.282.09-.423.112l-.097.007zM13.806 25.081c-.445 1.255-.957 2.494-1.314 3.778-.332 1.208-.423 2.47-.267 3.712.126 1.002.238 2.011.312 3.02.074 1.01.215 1.797.356 2.732.163 1.114-.252 2.398.253 3.422.303.57.732 1.062 1.254 1.44.135.113.291.197.46.245.178.028.36-.022.499-.137.14-.115.222-.284.229-.464 0-.327-.282-.468-.46-.698-.171-.278-.32-.568-.446-.868-.052-.112-.215-.616.074-.453.223.219.378.497.446.802.012.047.032.092.059.133.033.044.09.062.141.045.037 0 .052-.06.067-.09.114-.39.077-.808-.104-1.172-.186-.43-.43-.817-.631-1.24-.171-.499-.254-1.024-.245-1.551-.052-.69-.044-1.38-.037-2.071 0-1.574.052-3.14.104-4.706 0-.271.038-.54.111-.802.045-.16.105-.317.178-.467.305-.512.542-1.04.832-1.559.29-.646.538-1.311.742-1.99l-2.613-1.06z"/>
        <path fill="#61428B" fill-rule="nonzero" d="M13.613 24.88c-.136.378-.3.745-.49 1.1.275 1.076 2.405 1.328 3.296 1.432l2.769-5.426c.452-1.232 0-2.338-.394-3.526-1.482.263-2.78 1.146-3.57 2.427-.649 1.284-1.187 2.62-1.61 3.994z"/>
        <path fill="#A0783D" fill-rule="nonzero" d="M50.972 13.799h.282c.04-.012.085-.012.126 0 .035.026.065.06.089.096.341.527.63 1.07.928 1.626.242.389.401.823.467 1.277.004.248-.013.496-.052.742-.118 1.165.082 2.36-.104 3.518l.268-3.986c.003-.146.025-.29.066-.43.068-.166.164-.32.283-.453.326-.408.668-.817 1.016-1.203.186-.207.379-.415.572-.616.193-.2.245-.356.497-.408.133-.018.268-.018.401 0l1.336.067c-.003-.69-.17-1.37-.49-1.982-.355-.509-.882-.872-1.484-1.024.05 1.014-.26 2.013-.876 2.82-.23.364-.468.743-.69 1.099-.223.356-.327.69-.55.987-.222-.928-.497-1.833-.742-2.746-.089-.312-.178-.631-.26-.943-.081-.312 0-.46-.044-.675 0-.067-.06-.075-.119-.082-.113-.015-.228-.015-.341 0-.226.02-.445.09-.639.208-.328.22-.57.548-.683.928l-.497 1.12 1.24.06z"/>
        <path fill="#FFF" fill-rule="nonzero" d="M52.909 10.325c.298-.186.568-.414.802-.676.341-.356.742-.668 1.046-1.031l.342-.371c.089-.104.2-.2.296-.312.097-.111.12-.178.179-.267.059-.09.052-.156.089-.23-.159.253-.345.487-.557.697-.675.743-1.38 1.38-2.086 2.056h-.037V8.99 8.38c-.044-.408.535-.787.81-.994l.8-.706c.236-.25.526-.442.847-.564-.557.215-1.062.544-1.485.965-.332.267-.679.514-1.039.743-.114.083-.251.13-.393.133-.13-.03-.26-.066-.386-.111-.29-.074-.572-.164-.854-.245-.485-.153-.981-.267-1.484-.342-.125-.017-.24.069-.26.193-.076.462-.091.93-.045 1.396.014.616.283 1.2.743 1.61.808.37 1.743.346 2.53-.066.05-.02.096-.042.142-.067z"/>
    </g>
</svg>
