<svg xmlns="http://www.w3.org/2000/svg" width="72" height="72" viewBox="0 0 72 72">
    <g fill="none" fill-rule="evenodd">
        <path fill="#FFC864" fill-rule="nonzero" d="M57.208 16.904c-6.92-1.528-13.912-3.424-20.16-6.928-1.341-.736-2.63-1.565-3.856-2.48-1.232-.936-2.4-1.984-3.608-2.928C26.661 2.241 23.17.736 19.472.208c-6.48-.761-12.692 2.815-15.288 8.8-1.668 3.633-2.331 7.647-1.92 11.624C2.696 24.456 4 28.152 4.288 32c.288 3.848-.968 7.264-1.992 10.856-.724 2.364-1.311 4.768-1.76 7.2-.648 4.032-.466 8.153.536 12.112.976 4.152 3.776 8.144 7.872 9.312 1.4.373 2.856.484 4.296.328 2.152-.192 4.08-1.088 6.152-1.448 2.448-.416 4.8-1.36 7.24-1.752 2.449-.397 4.928-.58 7.408-.544 8.128.136 9.208-7.752 15.264-11.312 2.944-1.696 6.536-1.712 9.896-2.264 2.63-.397 5.07-1.609 6.976-3.464.944-.946 1.82-1.956 2.624-3.024.88-1.144 1.352-2.896 1.944-4.208 1.6-3.528-.056-7.824 0-11.584 0-.8.104-1.656.104-2.48 0-2.96-1.016-6.968-3.352-8.984-2.48-2.136-6.256-2.952-9.352-3.656l-.936-.184z" opacity=".43"/>
        <path fill="#6AA882" fill-rule="nonzero" d="M36.576 46.232c.672 2.4 1.28 4.8 2.08 7.2.704 2.088 1.464 4.16 2.264 6.216.472 1.192.8 2.664 1.64 3.616.04.036.068.084.08.136.002.065-.021.128-.064.176-1.487 2.01-3.552 3.517-5.92 4.32-.6.224-.536-.288-.728-.696-.244-.407-.512-.8-.8-1.176-.568-.856-1.288-1.952-1.112-3.032.244-.985.423-1.984.536-2.992.09-2.511-.05-5.026-.416-7.512-.64-4.8-2.584-10.712-.8-15.448 1.424 1.304 1.72 4.248 2.304 6.032.36 1.04.64 2.096.936 3.16z"/>
        <path fill="#FFAA8A" fill-rule="nonzero" d="M29.336 43.832c-.41.151-.837.248-1.272.288-1.206.073-2.414-.098-3.552-.504-.868-.258-1.698-.626-2.472-1.096-.83-.536-1.549-1.226-2.12-2.032-1.4-1.96-1.304-1.928-1.8-4.224-.312-1.424.424-5.6.112-6.992l-1.992-7.56 14.736 8.264c-.208.672-.4 1.352-.6 2.024-.2.672-.4 1.328-.592 1.992 0 .088-.48 1.6-.472 1.6l1.368 1.016c.501.314.918.745 1.216 1.256.23.596.285 1.245.16 1.872-.052.974-.346 1.92-.856 2.752-.472.625-1.122 1.094-1.864 1.344z"/>
        <path fill="#F89980" fill-rule="nonzero" d="M30.968 29.976l-.96 3.248-.8 2.832c-.184.624-.24 1.816-1.12 1.752-.74-.089-1.439-.386-2.016-.856-.6-.432-1.144-.944-1.768-1.336-.8-.504-1.664-.848-2.4-1.4-1.15-.892-2.101-2.015-2.792-3.296-.424-.69-1.296-.954-2.032-.616l-.176-.8-.592-7.808 14.656 8.28z"/>
        <path fill="#FFAA8A" fill-rule="nonzero" d="M19.264 29.504c1.138 2.035 3.028 3.542 5.264 4.2 3.68 1.072 4.16-.568 5.248-.712l.4.304c2.232-.304.848-2.072 1.928-1.456 0 0 2.824-5.12 2.824-6.624 0-.984-.12-1.952-.096-2.928 0-1.104.064-2.208.136-3.312.041-.615.119-1.226.232-1.832.02-.135.02-.273 0-.408-.025-.29-.07-.58-.136-.864-.191-.844-.544-1.643-1.04-2.352-.715-.99-1.663-1.786-2.76-2.32-1.64-.768-3.422-1.185-5.232-1.224-9.552-.48-9.792 10.688-9.792 10.688 2.208 6.744 2.24 7.424 3.024 8.84z"/>
        <path fill="#F89980" fill-rule="nonzero" d="M18.736 28.392c-.144-.384-.296-.8-.504-1.472L19.4 24.8s1.576 2.672-.664 3.592z"/>
        <path fill="#D9766B" fill-rule="nonzero" d="M32.672 29.936c-.441.446-1.03.716-1.656.76-1.224 0-1.64.064-2.176-.248l-.8-.464c-.053-.023-.086-.075-.086-.132 0-.057.033-.11.086-.132.524-.264 1.095-.422 1.68-.464 1.16 0 1.688-.12 2.4.208l.552.256c.037.023.06.064.06.108s-.023.085-.06.108z"/>
        <path fill="#454552" fill-rule="nonzero" d="M17.728 31.624c.168.016.336.016.504 0 .17-1.007.247-2.027.232-3.048.095-.887.121-1.78.08-2.672-.088-.505-.216-1.003-.384-1.488.304-.08.8-.32 1.128-.192.328.128.384.528.672.512.148-.017.27-.121.312-.264.028-.143.028-.29 0-.432-.176-2.006-.041-4.027.4-5.992.06-.395.216-.769.456-1.088.422-.413 1.025-.582 1.6-.448.56.147 1.098.368 1.6.656 3.448 1.672 9.392 2.808 12.408-.36.624-.625.992-1.461 1.032-2.344-.015-.48-.09-.955-.224-1.416-.092-.413-.22-.818-.384-1.208-.422-.844-1.11-1.525-1.96-1.936-3.722-1.809-7.784-2.815-11.92-2.952-3.624-.16-7.864.488-10.144 3.632-1.272 1.896-1.975 4.117-2.024 6.4-.144 3.576 1.352 6.744 2.4 10.04.283.998.695 1.956 1.224 2.848.642 1.047 1.765 1.704 2.992 1.752z"/>
        <path fill="#FFAA8A" fill-rule="nonzero" d="M16.392 25.84c-1.992-3.552-.912-4.696-.688-5.04.148-.226.377-.387.64-.448.64-.144 1.232.16 1.784 1.216.493.961.898 1.965 1.208 3 .128.464.952 1.992-.224 2.96-.208.192-1.288.888-2.72-1.688z"/>
        <path fill="#F89980" fill-rule="nonzero" d="M17.6 26.4c-.266 0-.508-.153-.624-.392-1.6-3.152-.64-4.2-.424-4.504l.096-.128.152.224c.127.213.148.473.056.704-.096.224.176.464.272.456.096-.008.376.12.496.472-.087.012-.168.051-.232.112-.472.28-.104 2.376.208 3.056z"/>
        <path fill="#82BB99" fill-rule="nonzero" d="M35.888 50.4c.2.432.4.872.584 1.312 1.135 2.346 1.684 4.932 1.6 7.536-.212 1.557-.533 3.096-.96 4.608-.176.8-.312 1.544-.416 2.32.025.628-.098 1.253-.36 1.824-.656.92-2.072 1.408-3.112 1.704-3.784 1.088-7.776.584-11.648 1.056-3.872.472-8 .248-12 .248h-.184l.16-30.544c2.192-1.448 4.472-2.768 6.76-4.072.344-.192.696-.376 1.04-.584.544-.328.52-.36.968 0 .377.42.721.866 1.032 1.336.715.925 1.519 1.777 2.4 2.544 1.427 1.262 3.255 1.977 5.16 2.016 1.52 0 3.2-.864 3.536-2.336.32-1.296-.424-2.592-1.144-3.712 1.548-.409 3.191.145 4.176 1.408.742.993 1.156 2.193 1.184 3.432 0 .992-.128 1.968-.168 2.96-.09 2.392.388 4.771 1.392 6.944z"/>
        <path fill="#82BB99" fill-rule="nonzero" d="M20.8 47.808c-.381 4.185-1.09 8.334-2.12 12.408-.424 1.912-.864 3.816-1.224 5.744-.152.8 0 1.76-.352 2.504-.424.92-1.04.872-1.68 1.52-.64.648-.416 1.2-1.68 1.536-1.21.215-2.453.177-3.648-.112-1.48-.256-4.256-.8-5.072-2.264-.816-1.464-.104-3.696-.056-5.192.086-5.464.49-10.919 1.208-16.336.195-1.558.57-3.089 1.12-4.56.637-1.772 2.154-3.083 4-3.456 2.411-.51 4.922.137 6.787 1.748 1.865 1.61 2.87 4 2.717 6.46z"/>
        <path fill="#6AA882" fill-rule="nonzero" d="M21.136 47.824v.384c.472 7.528-1.456 15.152-.208 22.592-.448.104-6.472.568-6.472.392l.304-2.256c.328-4.544 3.408-14.528 3.84-21.472.205-3.622-2.08-6.92-5.544-8 2.184.68 3.92.4 5.776 2.16 1.696 1.576 2.136 3.976 2.304 6.2z"/>
        <path fill="#DAE8F2" fill-rule="nonzero" d="M34.944 24.92c.138.052.226.189.216.336-.072 1.76-.56 12.36-12 8.416-.928-.32-1.77-.849-2.464-1.544-1.296-1.296-3.352-3.584-3.784-5.456.202.282.442.534.712.752 1.11 2.05 2.662 3.826 4.544 5.2 2.512-3.368 2.008-5.864 1.44-7.104l-4.8-2.4c-.08-.2-.16-.392-.24-.568l4 1.848c.351.165.743.226 1.128.176l6.464-.8c.79-.099 1.59-.006 2.336.272l2.448.872z"/>
        <path fill="#AFD5F0" fill-rule="nonzero" d="M33.064 32.096l-.168.208c-.24-.096-.464-.224-.696-.32-.325-.093-.662-.144-1-.152-.646-.063-1.295-.081-1.944-.056-1.152 0-2.296.128-3.44.208l-3.368.216 2.848-.28 2.456-.248c.84-.088 1.696-.216 2.536-.232.562-.042 1.126.024 1.664.192.384.152.744.32 1.112.464zM35.032 26.872c.004.064.004.128 0 .192l-1.016-.336c-.528-.176-1.056-.296-1.6-.44-1.278-.224-2.586-.224-3.864 0L24 26.624l4-.44 2.28-.248c.392-.065.787-.11 1.184-.136.388.005.772.075 1.136.208.816.24 1.624.568 2.432.864zM34.4 29.512l-.064.184c-.884-.339-1.81-.557-2.752-.648-.95-.013-1.901.021-2.848.104-.96.048-1.912.088-2.864.168l-1.96.144 4.8-.52c1.482-.293 3.012-.244 4.472.144l-.384-.128 1.6.552z"/>
        <path fill="#E19380" fill-rule="nonzero" d="M56.888 27.856l12.608 1.488c.458-.036.918-.036 1.376 0 .144 2.456.648 4.888.872 7.344.344 2.453.07 4.953-.8 7.272-.263.729-.6 1.429-1.008 2.088-.288.4-.088.368-.592.264-.387-.135-.76-.31-1.112-.52-.608-.28-.848-.344-2.2-.936-1.6-.688-2.928-1.248-4.528-1.928-2.111-.828-4.176-1.771-6.184-2.824 0 0 2.84-9.096 1.568-12.248z"/>
        <path fill="#5F9BCC" fill-rule="nonzero" d="M43.832 17.448c-.47 1.463-.663 3.002-.568 4.536.342 1.998 1.09 3.904 2.2 5.6.22.763.487 1.51.8 2.24.796 2.216.919 4.618.352 6.904.004.056.004.112 0 .168 2.08.52 5.536 2.576 8.96 3.608l2.056-9.448-.872-3.472c-2.172-.465-4.127-1.639-5.56-3.336-1.72-1.992-2.848-6.104-3.264-7.864-.223-.94-.795-1.76-1.6-2.296-.113-.08-.23-.152-.352-.216-.24-.136-4.384-2.648-4.736-2.336-.736.688-1.168 3.512 2.584 5.912z"/>
        <path fill="#477798" fill-rule="nonzero" d="M54.752 40.968c.411.116.844-.089 1.016-.48 1.146-2.592 1.953-5.321 2.4-8.12.228-1.53.277-3.082.144-4.624-.01-.232-.115-.45-.29-.6-.177-.152-.407-.225-.638-.2-.23.016-.443.123-.593.298-.15.174-.225.4-.207.63.15 4.102-.672 8.181-2.4 11.904-.091.207-.096.441-.013.652.083.21.246.378.453.468l.128.072z"/>
        <path fill="#5F9BCC" fill-rule="nonzero" d="M35.48 21.744l3.6.992c.944.256 3.04 1.6 2.792 2.552l.624.744c-.248.944-3.352.392-4.304.16l-3.616-.944c-.468-.117-.87-.416-1.118-.83-.248-.414-.32-.91-.202-1.378.12-.469.423-.87.841-1.113.418-.244.916-.31 1.383-.183z"/>
        <path fill="#D9E2E7" fill-rule="nonzero" d="M31.504 16.424l1.032 4.376c-.001.418.32.767.736.8.056 0 3.32.152 5.768 3.808.848 1.256.752 1.808 1.832 2.952.578.616.888 1.436.864 2.28.022.455.197.889.496 1.232.443.458.645 1.098.544 1.728-.152 1.008.576 1.192.624 2.4-.02.668-.087 1.333-.2 1.992-.032.336.15.656.456.8.873.34 1.81.48 2.744.408 1.025-.058 1.873-.819 2.04-1.832.462-2.287.243-4.66-.632-6.824-.744-1.696-1.88-2.984-1.6-5.008 0-.128-3.624-9.968-3.624-9.968h-10.24c-.23-.012-.452.075-.613.239-.16.163-.243.388-.227.617z"/>
        <path fill="#E6EFF3" fill-rule="nonzero" d="M45.432 30.56c.875 2.164 1.094 4.537.632 6.824-.136.8-.8 1.864.32 1.832 1.029-.049 1.882-.814 2.04-1.832.462-2.287.243-4.66-.632-6.824-.744-1.696-1.88-2.984-1.6-5.008.058-.87-.076-1.74-.392-2.552h-2.384c.315.63.297 1.377-.048 1.992-.256 2.016 1.32 3.872 2.064 5.568z"/>
        <path fill="#AD4350" fill-rule="nonzero" d="M40.8 16.44l.944 5.336c.081.465.25.91.496 1.312l1.152 1.904c.22.353.608.568 1.024.568h.8c.29-.003.538-.21.592-.496l.352-2.024c.068-.37.068-.75 0-1.12l-1.008-5.752c-.065-.338-.36-.583-.704-.584h-2.944c-.212.006-.411.104-.546.268-.135.164-.193.378-.158.588z"/>
        <path fill="#E85A6B" fill-rule="nonzero" d="M31.504 16.424l1.032 4.376c-.001.418.32.767.736.8.474.053.94.157 1.392.312-.321-.135-.527-.452-.52-.8l-1.032-4.8c-.011-.219.068-.433.22-.592.15-.159.36-.248.58-.248h-1.6c-.243-.007-.475.097-.633.282-.157.185-.221.432-.175.67zM41.656 16.44l.944 5.336c.082.463.247.908.488 1.312l1.16 1.904c.217.353.602.568 1.016.568h.8c.29 0 .537-.21.584-.496L47 23.04c.064-.37.064-.75 0-1.12l-1.016-5.752c-.065-.338-.36-.583-.704-.584H42.4c-.22-.008-.432.084-.577.25-.144.166-.206.39-.167.606z"/>
        <path fill="#5F9BCC" fill-rule="nonzero" d="M42.08 16.688L42.688 20.144 46.288 20.144 45.672 16.688z"/>
        <circle cx="43.946" cy="21.414" r="1" fill="#AD4350" fill-rule="nonzero" transform="rotate(-53.931 43.946 21.414)"/>
        <circle cx="45.863" cy="21.498" r="1" fill="#AD4350" fill-rule="nonzero" transform="rotate(-53.89 45.863 21.498)"/>
        <circle cx="45.203" cy="23.344" r="1" fill="#AD4350" fill-rule="nonzero" transform="rotate(-53.89 45.203 23.344)"/>
        <path fill="#5F9BCC" fill-rule="nonzero" d="M38.16 28.528c-.009-.449.18-.88.515-1.178.335-.298.784-.435 1.229-.374l1.392.144c.98.12 1.723.94 1.744 1.928.017.75-.51 1.403-1.248 1.544l1.704.176c.978.122 1.72.942 1.744 1.928.023.457-.158.9-.496 1.21-.337.31-.795.453-1.248.39h-.168c.656.32 1.083.975 1.112 1.704.009.449-.18.88-.515 1.178-.335.298-.784.435-1.229.374l-1.392-.144c-.98-.12-1.723-.94-1.744-1.928-.02-.695.435-1.314 1.104-1.504l-.52-.056c-.975-.122-1.716-.937-1.744-1.92-.042-.787.518-1.478 1.296-1.6-.878-.203-1.508-.972-1.536-1.872z"/>
        <path d="M36.368 48.8v.36"/>
        <path fill="#FFC864" fill-rule="nonzero" d="M49.32 60.592c.4-.286.855-.488 1.336-.592.493-.09.997.079 1.336.448.38.651.27 1.477-.264 2.008-.48.56-1.136.92-1.664 1.432-.672.664-1.088 1.6-1.76 2.232-1.36 1.368-3.816.6-3.2-1.552C45.6 63.032 48 61.4 49.32 60.592zM37.816 8.608c-.652-.315-1.262-.71-1.816-1.176-.725-.542-1.237-1.32-1.448-2.2-.183-.911.337-1.818 1.216-2.12.976-.216 1.848.584 2.52 1.32l1.432 1.6c.256.242.455.537.584.864.18.743-.216 1.505-.928 1.784-.706.246-1.486.158-2.12-.24" opacity=".43"/>
    </g>
</svg>
