<svg xmlns="http://www.w3.org/2000/svg" xmlns:xlink="http://www.w3.org/1999/xlink" width="72" height="72" viewBox="0 0 72 72">
    <defs>
        <path id="prefix__a" d="M53.15.766c.138 0 .26.95.283 1.065.113.609.174 1.226.184 1.846.034 1.023-.012 2.047-.138 3.063-.084.667-.207 1.349-.352 2.007-.226 1.499-1.224 2.768-2.627 3.34-1.155.452-2.337.834-3.54 1.141 0 0-.045.092 0 .107h.07c.473.197.962.35 1.463.46.59.126 1.165.313 1.716.559.53.204 1.02.5 1.447.873.554.608.962 1.333 1.195 2.122.239.645.443 1.302.613 1.968.153.629.222 1.249.345 1.885.533-.25 1.12-.36 1.708-.322.56.077 1.067.368 1.417.812.373.668.516 1.44.406 2.198.749-.146 1.526.011 2.16.437.793.934 1.048 2.21.674 3.378-.284.616-.673 1.179-1.15 1.662l.613 2.443v3.83l-49.488.674-4.129-1.363C-.766 33.93.444 28.639 1.11 21.822L3.24.13l49.91.636z"/>
    </defs>
    <g fill="none" fill-rule="evenodd">
        <path fill="#FFC864" fill-rule="nonzero" d="M63.153 9.82c-1.212-1.13-2.717-1.896-4.343-2.214-4.519-.973-9.145.123-13.687-.39-3.332-.376-6.343-1.67-9.644-2.084-2.852-.366-5.746-.24-8.556.375-2.657.614-5.19 1.676-7.49 3.14-2.168 1.341-4.313 2.666-6.55 3.922-2.236 1.257-5.361 2.635-7.115 4.719-1.754 2.083-2.382 4.68-2.628 7.223-.306 3.201-.39 6.434-.697 9.612-.334 2.967-.859 5.91-1.57 8.809-.65 2.941-.95 6.128.291 8.954.667 1.532 1.739 2.842 2.543 4.297 1.073 1.946 1.678 4.151 2.972 5.967 1.83 2.573 5.04 4.098 8.096 4.534 4.137.495 8.324-.354 11.942-2.42 3.125-1.716 6.311-3.975 9.78-4.948 2.957-.835 6.397-.866 9.46-.889 3.302 0 6.58.46 9.866.766 4.098.337 8.854-.237 11.742-3.5 1.574-1.917 2.535-4.263 2.758-6.733.298-2.49 0-4.963 0-7.445.067-1.693.324-3.374.766-5.01 1.302-5.855.4-11.986-2.536-17.218-1.838-3.401-2.872-7.093-5.4-9.467z" opacity=".43"/>
        <g fill="#77B1E0" fill-rule="nonzero">
            <path d="M18.781 24.09l.835-.253c.747-.186 1.483-.41 2.206-.674 1.205-.498 2.104-1.534 2.428-2.796.23-.766.437-1.532.659-2.298.02-.068.045-.135.077-.2.107.376.191.682.283.989.184.636.322 1.294.56 1.907.476 1.313 1.571 2.306 2.925 2.65.697.207 1.41.391 2.114.582.1 0 .192.077.36.146-.414.107-.766.191-1.08.291-.718.18-1.424.406-2.114.674-1.24.56-2.14 1.673-2.428 3.003-.192.766-.39 1.455-.59 2.19h-.069l-.253-.865c-.181-.737-.404-1.463-.666-2.176-.55-1.283-1.695-2.216-3.064-2.497-.72-.183-1.432-.383-2.144-.582.015-.023.007-.038-.039-.092zM28.118 18.789c.383-.107.766-.222 1.142-.314.897-.17 1.648-.78 1.999-1.624.186-.525.344-1.06.475-1.6.012-.059.044-.11.092-.146.107.383.237.766.329 1.156.22 1.122 1.099 1.998 2.221 2.214.388.093.767.218 1.134.375l-1.264.353c-1.057.227-1.875 1.066-2.076 2.129-.1.408-.233.808-.398 1.195-.115-.414-.238-.835-.352-1.256-.22-1.008-.997-1.802-2-2.045l-1.294-.36-.008-.077zM15.61 3.684c.383-.107.766-.222 1.15-.321.89-.168 1.639-.773 1.99-1.609.186-.525.344-1.06.476-1.6.012-.06.045-.115.091-.154.115.39.238.766.33 1.164.219 1.121 1.099 1.995 2.221 2.206.388.093.767.218 1.134.376-.422.122-.843.245-1.264.352-1.053.235-1.868 1.07-2.076 2.13-.101.407-.235.807-.398 1.194-.115-.421-.238-.835-.345-1.256-.225-1.01-1.003-1.805-2.007-2.053l-1.294-.352-.008-.077zM31.826 25.729c.076.275.176.543.237.82.141.88.78 1.6 1.64 1.845.374.123.765.207 1.163.368-.245.076-.497.138-.766.23-.4.13-.788.3-1.156.505-.49.371-.81.923-.889 1.532-.061.253-.145.505-.214.766h-.07c-.053-.184-.091-.368-.152-.544-.12-.413-.274-.815-.46-1.202-.364-.561-.954-.936-1.616-1.027-.262-.06-.519-.145-.766-.253.761-.14 1.48-.455 2.099-.919.59-.613.65-1.394.95-2.121zM26.043 15.963c-.215-.529-.246-1.065-.644-1.448s-.911-.398-1.402-.636c1.107-.012 2.009-.893 2.046-1.999.23.49.26 1.019.65 1.402.425.31.915.52 1.433.612-.498.23-1.042.238-1.425.62-.326.427-.551.922-.658 1.449zM2.221 11.49c-.214-.53-.245-1.058-.643-1.448-.398-.39-.912-.399-1.402-.636 1.094-.024 1.978-.898 2.015-1.992.23.483.26 1.02.65 1.402.429.305.917.514 1.433.613-.498.222-1.042.23-1.425.613-.315.429-.53.924-.628 1.447zM33.434 11.267c-.046-.236-.146-.459-.291-.65-.176-.177-.414-.185-.636-.292.497-.012.9-.407.92-.904.055.229.154.444.29.636.195.138.417.232.652.276-.23.107-.475.107-.644.283-.144.193-.243.415-.291.651zM27.735 5.56c-.1-.237-.107-.482-.29-.658-.185-.176-.414-.176-.636-.283.496-.016.895-.415.911-.912.107.222.123.467.299.636.192.144.415.241.65.283-.229.1-.474.1-.65.276-.139.198-.235.422-.284.659z" transform="translate(32.17 9.957)"/>
        </g>
        <g transform="translate(1.532 20.68)">
            <mask id="prefix__b" fill="#fff">
                <use xlink:href="#prefix__a"/>
            </mask>
            <g mask="url(#prefix__b)">
                <g fill-rule="nonzero" transform="translate(2.298 1.532)">
                    <path fill="#D44E55" d="M3.577 2.68l1.272.238c.128-.345.498-.538.855-.445.357.093.586.44.53.805-.033.188-.14.354-.297.462-.156.108-.35.148-.537.113-.321-.075-.559-.346-.59-.674L3.531 2.94c-.603-.112-1.182.286-1.294.889L1.99 5.163c.103-.197.307-.319.529-.314l.306.053L1.67 11.16l-.307-.054c-.208-.074-.358-.256-.39-.475L.72 9.866l1.134-6.128c.189-.764.956-1.235 1.723-1.057z"/>
                    <path fill="#D44E55" d="M4.113 4.213c.146-.498.238-.766.238-.766C5.209.804 5.706.628 7.26.628h79.453c1.058 0 1.915.857 1.915 1.915l1.218 15.38v6.128c.002.469-.183.919-.513 1.25-.331.333-.78.52-1.249.52l-15.74 1.822v-.252c.004-.904-.22-1.795-.651-2.59-.953-1.763-2.795-2.862-4.8-2.862-2.003 0-3.846 1.1-4.798 2.863-.432.794-.656 1.685-.65 2.589v.252h-35.61v-.252c0-3.012-2.442-5.454-5.454-5.454-3.012 0-5.453 2.442-5.453 5.454v.252H3.27c-1.07 0-1.938-.867-1.938-1.937v-6.557c.555-4.822 1.417-9.604 2.581-14.316l.2-.62z"/>
                    <ellipse cx="45.766" cy="32.055" fill="#404041" opacity=".09" rx="43.024" ry="1.21"/>
                    <path fill="#3E4042" d="M15.32 27.421c-.004 2.036 1.22 3.874 3.1 4.655 1.88.781 4.046.353 5.487-1.086 1.441-1.439 1.873-3.604 1.094-5.485-.778-1.881-2.613-3.108-4.65-3.108-2.776 0-5.028 2.248-5.032 5.024z"/>
                    <path fill="#CCCECF" d="M17.073 27.421v.253c-.004.048-.004.097 0 .146.076.647.342 1.258.766 1.754l.092.107.1.1.107.099.107.092c.539.433 1.202.682 1.892.712h.314c.691-.027 1.355-.277 1.892-.712l.115-.1c.04-.029.075-.062.107-.1l.107-.106.1-.115c.423-.496.69-1.107.766-1.754V27.59v-.33-.069c-.003-.649-.198-1.283-.56-1.822l-.107-.092-.1-.108-.099-.107-.107-.1c-.561-.489-1.27-.774-2.014-.811h-.33c-.741.036-1.448.323-2.007.812l-.1.091-.091.092c-.032.03-.06.063-.084.1l-.092.107c-.422.53-.67 1.178-.713 1.854v.069c-.053.061-.06.1-.06.145zm.988-1.777l.383.376c-.258.351-.414.767-.452 1.202h-.528c.044-.572.251-1.12.597-1.578zm2.015-.597c-.448.057-.87.24-1.218.528l-.375-.375c.447-.388 1.004-.628 1.593-.69v.537zm2.198.153l-.375.375c-.348-.288-.77-.471-1.218-.528v-.536c.589.06 1.145.301 1.593.689zm1.019 2.022h-.529c-.042-.425-.195-.832-.444-1.18l.375-.375c.349.448.557.99.598 1.555zm-.69 2.099l-.39-.375c.263-.32.438-.703.505-1.111h.536c-.07.547-.297 1.062-.65 1.486zm-.444.421c-.427.327-.936.528-1.47.582v-.528c.395-.053.771-.203 1.095-.437l.375.383zm-3.554 0l.375-.383c.323.235.7.385 1.096.437v.528c-.535-.054-1.044-.255-1.47-.582zm-1.118-1.907h.536c.074.406.248.788.506 1.11l-.368.376c-.36-.423-.593-.938-.674-1.486z"/>
                    <path fill="#3E4042" d="M61.882 27.421c-.003 2.036 1.22 3.874 3.1 4.655 1.881.781 4.047.353 5.488-1.086 1.44-1.439 1.873-3.604 1.094-5.485-.778-1.881-2.614-3.108-4.65-3.108-2.776 0-5.028 2.248-5.032 5.024z"/>
                    <path fill="#CCCECF" d="M63.574 27.421c-.003.046-.003.092 0 .138v.061c-.003.018-.003.036 0 .054v.146c.072.648.34 1.26.766 1.754l.1.107.1.1.107.099.107.092c.538.434 1.201.684 1.892.712h.314c.715.001 1.41-.236 1.976-.674l.115-.1c.04-.028.075-.062.107-.099l.1-.107.1-.115c.426-.494.693-1.105.765-1.754-.003-.054-.003-.107 0-.161v-.046c-.003-.02-.003-.04 0-.061v-.337c-.039-.676-.285-1.323-.704-1.854l-.016-.1-.1-.107-.099-.107-.107-.1c-.558-.488-1.265-.775-2.007-.811h-.314c-.741.036-1.448.323-2.007.812l-.1.091-.091.092-.092.1-.092.107c-.42.531-.665 1.178-.705 1.854v.069c-.044.043-.082.092-.115.145zm.989-1.777l.375.376c-.253.354-.406.769-.444 1.202h-.529c.049-.576.267-1.125.628-1.578h-.03zm2.075-.597c-.448.057-.87.24-1.218.528l-.375-.375c.448-.388 1.004-.628 1.593-.69v.537zm2.199.153l-.376.375c-.345-.287-.765-.47-1.21-.528v-.536c.576.068 1.118.308 1.555.689h.03zm1.018 2.022h-.528c-.052-.428-.215-.835-.475-1.18l.375-.375c.349.448.556.99.598 1.555h.03zm-.689 2.099l-.375-.375c.263-.32.438-.703.505-1.111h.536c-.084.552-.326 1.068-.697 1.486h.031zm-.444.421c-.429.324-.937.525-1.47.582v-.528c.392-.053.766-.203 1.087-.437l.383.383zm-3.562 0l.383-.383c.323.235.7.385 1.095.437v.528c-.555-.046-1.086-.247-1.532-.582h.054zm-1.11-1.907h.536c.07.407.244.79.505 1.11l-.368.376c-.372-.417-.617-.933-.704-1.486h.03z"/>
                    <path fill="#3B3338" d="M87.112 12.14H15.32c-.134.001-.258.07-.33.184-1.531 2.658-5 6.725-12.17 9.498-.144.056-.306.037-.433-.05-.127-.088-.203-.232-.203-.386v-2.513c.551-4.825 1.413-9.61 2.581-14.323l.192-.636.245-.766c.199-.605.765-1.013 1.402-1.011h79.95c.262 0 .475.213.475.475l.697 8.97c-.016.322-.29.571-.613.558z"/>
                    <g fill="#1B1C1C">
                        <path d="M0.789 0.574L1.34 0.574 1.34 10.609 0.789 10.609z" transform="translate(14.553 1.532) rotate(-180 1.065 5.591)"/>
                        <path d="M15.84 0.574L16.391 0.574 16.391 10.609 15.84 10.609z" transform="translate(14.553 1.532) rotate(-180 16.116 5.591)"/>
                        <path d="M30.891 0.574L31.443 0.574 31.443 10.609 30.891 10.609z" transform="translate(14.553 1.532) rotate(-180 31.167 5.591)"/>
                        <path d="M39.202 0.574L39.753 0.574 39.753 10.609 39.202 10.609z" transform="translate(14.553 1.532) rotate(-180 39.477 5.591)"/>
                        <path d="M45.942 0.574L46.494 0.574 46.494 10.609 45.942 10.609z" transform="translate(14.553 1.532) rotate(-180 46.218 5.591)"/>
                    </g>
                    <path fill="#404041" d="M15.587 24.779c-.427.796-.65 1.685-.65 2.589v.26H3.27c-1.07 0-1.938-.868-1.938-1.938v-1.57h14.683c-.161.207-.305.427-.429.659zM62.104 24.779c-.432.794-.656 1.685-.651 2.589v.26H25.836v-.26c0-.904-.224-1.793-.651-2.59-.13-.227-.273-.447-.43-.658h37.762c-.153.21-.291.43-.413.659zM2.206 18.873v2.513c0 .259.208.47.467.474.056.011.113.011.169 0 7.17-2.772 10.608-6.84 12.17-9.497.072-.114.196-.184.33-.184h71.77c.323-.004.582-.267.582-.59l-.697-8.97c0-.125-.05-.246-.139-.335-.089-.09-.21-.14-.335-.14H6.626c-.637-.001-1.203.407-1.402 1.012l-.245.766-.192.635C3.62 9.27 2.757 14.051 2.206 18.873zm.437 0c.552-4.78 1.406-9.52 2.558-14.193l.199-.636c.146-.467.23-.766.237-.766.138-.428.539-.717.989-.712h79.927l.697 8.954c-.004.077-.068.138-.145.138H15.28c-.288.004-.553.154-.705.398-1.041 1.731-2.355 3.283-3.89 4.596-2.382 2.05-5.1 3.673-8.036 4.795v-2.574h-.007z" opacity=".21"/>
                    <path fill="#FFF" d="M1.946 18.873v2.513c0 .423.342.765.765.765.092-.001.183-.02.269-.053 3.011-1.124 5.805-2.762 8.257-4.841 1.597-1.361 2.963-2.973 4.044-4.772.023-.032.06-.052.1-.054h71.77c.466-.004.842-.383.842-.85l-.697-8.97c-.024-.404-.36-.72-.766-.72H6.626c-.744-.003-1.407.469-1.647 1.173 0 0-.085.29-.238.766l-.199.643c-.62 2.015-1.37 6.235-1.67 7.95-.536 3.057-.926 5.822-.926 6.45zm.26 0c.551-4.825 1.413-9.61 2.581-14.323l.192-.636.245-.766c.199-.605.765-1.013 1.402-1.011h79.927c.262 0 .475.213.475.475l.697 8.97c0 .322-.26.585-.582.59H15.319c-.134 0-.258.07-.33.183-1.531 2.658-5 6.725-12.17 9.498-.056.01-.113.01-.169 0-.26-.004-.467-.216-.467-.475v-2.505h.023z" opacity=".39"/>
                    <path fill="#E2E3E3" d="M1.333 23.362H4.81v.184c0 .406-.161.795-.448 1.083-.288.287-.677.448-1.084.448H1.333v-1.715z"/>
                    <path fill="#404041" d="M1.532 23.591h3.064c-.025.705-.606 1.261-1.31 1.257H1.532V23.59z" opacity=".21"/>
                </g>
            </g>
        </g>
        <circle cx="64.938" cy="46.578" r="2.06" fill="#77B1E0" fill-rule="nonzero"/>
        <circle cx="68.883" cy="33.334" r="1.21" fill="#77B1E0" fill-rule="nonzero"/>
        <circle cx="46.57" cy="20.099" r="1.21" fill="#77B1E0" fill-rule="nonzero"/>
        <circle cx="39.401" cy="15.802" r="1.21" fill="#77B1E0" fill-rule="nonzero"/>
        <circle cx="55.808" cy="19.609" r="1" fill="#77B1E0" fill-rule="nonzero"/>
        <circle cx="58.136" cy="9.858" r="1" fill="#77B1E0" fill-rule="nonzero"/>
        <circle cx="58.956" cy="40.243" r="1" fill="#77B1E0" fill-rule="nonzero"/>
        <path fill="#FFC864" fill-rule="nonzero" d="M42.005 65.55c.766.828 1.386 1.939 1.08 2.873-.605 1.823-3.7.965-5.063 1.187-2.39.376-6.128 3.577-8.165.973-2.88-3.753 3.937-6.266 6.51-6.495 1.427-.19 2.879-.04 4.236.436.526.254 1.001.602 1.402 1.027zM43.04 2.137c-.876-.259-1.725-.6-2.536-1.019-.454-.27-.937-.488-1.44-.65-.53-.149-1.097-.038-1.532.298-.423.416-.598 1.024-.46 1.6.514 2.628 3.102 2.98 5.362 3.28.949.133 1.912-.106 2.689-.667.464-.314.7-.873.597-1.425-.214-.766-1.149-1.011-1.923-1.195l-.758-.222z" opacity=".43"/>
    </g>
</svg>
