<svg id="Layer_1" data-name="Layer 1" xmlns="http://www.w3.org/2000/svg" xmlns:xlink="http://www.w3.org/1999/xlink" viewBox="0 0 300 200"><defs><style>.cls-1{fill:none;}.cls-2{opacity:0.84;fill:url(#linear-gradient);}.cls-3{clip-path:url(#clip-path);}.cls-4{fill:#faa87d;}.cls-5{fill:#72bf98;}.cls-6{fill:#53a076;}.cls-7{fill:#f0966a;}.cls-8{fill:#12174a;}.cls-9{fill:#000324;}.cls-10{fill:#f99770;}.cls-11{fill:#578e6d;}</style><linearGradient id="linear-gradient" x1="125.5" y1="-39.25" x2="176.6" y2="238.53" gradientUnits="userSpaceOnUse"><stop offset="0" stop-color="#fff"/><stop offset="0.01" stop-color="#fae9ea"/><stop offset="0.03" stop-color="#f2c5c7"/><stop offset="0.05" stop-color="#eba5a8"/><stop offset="0.08" stop-color="#e5898e"/><stop offset="0.11" stop-color="#e07379"/><stop offset="0.14" stop-color="#dd6269"/><stop offset="0.18" stop-color="#da575d"/><stop offset="0.24" stop-color="#d85057"/><stop offset="0.41" stop-color="#d84e55"/></linearGradient><clipPath id="clip-path"><circle class="cls-1" cx="168.97" cy="100.28" r="97.46"/></clipPath></defs><path class="cls-2" d="M285.69,110.06c-.56,1.14-1.18,2.24-1.85,3.32-6.5,10.39-17,17.23-24.67,26.6-7.45,9.07-11.65,19.25-20,27.94A98,98,0,0,1,169,197.74c-23.89,0-41.49-14.45-65.71-12.76-13.51.94-27.85,2.69-39.94-3.42-11.54-5.84-20.56-22.15-10.88-33.29,9.48-10.91,28.51-3.44,37.29-15.92,4-5.73,2.92-14.19-1.78-19.39s-12.3-7.23-19.22-6.09c-5.8,1-11.08,3.88-16.73,5.51A39,39,0,0,1,26.73,111c-7.27-3-13.74-8.4-16.87-15.6a32.25,32.25,0,0,1-1.95-17.1C11.2,53.7,35.75,35.76,60.52,33.8c25.06-2,42.5,9.84,63.88,20,18.9,9,42.77,10.8,63.57,8.82a84.66,84.66,0,0,0,21.45-4.49c19.45-7.22,39.06-12.86,58.93-2.36a40.69,40.69,0,0,1,17.34,54.27Z"/><g class="cls-3"><path class="cls-4" d="M189.82,59.84c.4-11.23-2.21-21.29-16.42-29.36-6-3.43-7-11-10.52-10.22-9.83,2.29-9,11-12.23,16.6-5.54,9.48-4.19,19.35,2.76,26.32,7,13-9.26,17.05-12.57,32.22-1.64,7.54.61,18.77,9.23,20.72,11.59,2.62,26.66-12.85,30.6-21.71,2.61-5.87,2.71-10,4-15.73C186.15,72,189.58,66.81,189.82,59.84Z"/><path class="cls-5" d="M219.05,105c0-.62-.05-1.25-.11-1.86a36,36,0,0,0-8.13-19.45,10.52,10.52,0,0,0-7.48-4.31,17.16,17.16,0,0,0-8.15,1c-4.35,1.54-8.66,2.63-12.87,4.75A15.84,15.84,0,0,0,178,87.89c-1,1-1.19,2.12-2,3.15-1.82,2.43-5.94,4.15-8.8,4.86a13.3,13.3,0,0,1-10.75-1.64c-2.39-1.68-4-4.26-5.41-6.82-1.07-1.92-.87-2.91-.43-4.89.15-.71,1-3.61,1.92-3.7-4,.42-8-.13-12,.14-5.67.39-10.86,3.14-13.19,8.46a140.21,140.21,0,0,0-9.19,28.29c-.12.61-.19,1.37.31,1.75a1.94,1.94,0,0,0,1.2.23,9.86,9.86,0,0,1,5.3,1.51c1.7,1.07,2.29,3,3.7,4.08,3.1,2.42,2.31-2.18,3.75-4.33-.48.72,1.39,5.68,1.62,6.67.61,2.64,1.17,5.28,1.75,7.92,1.14,5.25,2.87,10.51,3.79,15.78,1.61,9.28-3.58,18.61-5.93,27.36-1.11,4.12-1.92,8.32-2.87,12.49a32.82,32.82,0,0,1-1.47,5.63c-.62,1.46-1.95,2.15-.59,4a7.57,7.57,0,0,0,3.42,2.19,116.48,116.48,0,0,0,40.49,8.15l10.76.19a39,39,0,0,0,8-.89c4.66-.83,10.68-1.48,13.67-5.69,2.62-3.68-1.06-8.93-2-12.64-1.39-5.7-3.31-11.26-5.14-16.82-2.9-8.83-5.86-17.57-5-27.05.47-5.35,1.49-10.84,2.24-16.16.56-3.91,1.7-8.81.54-12.72.49,1.64,1.37,4.62,2.78,5.75,2,1.64,6.38-2.62,8.17-3.61,4.14-2.28,9.63-5.4,11.54-10A11.11,11.11,0,0,0,219.05,105Z"/><path class="cls-6" d="M204.3,106c-.54.19-1.09.34-1.63.57-1.71.74-6.58,2-6.54,4.21a40.86,40.86,0,0,0,2.4,13,.72.72,0,0,0,.2.35c.68.55,6.36-4.65,8.06-4.65.37,0,1.12-.6,1.47-.78.51-.26,1-.52,1.53-.8a18.83,18.83,0,0,0,2.73-1.7,13.17,13.17,0,0,0,3.9-5.72,9.68,9.68,0,0,0,.91-3,4,4,0,0,0-2.89-4.3,5.93,5.93,0,0,0-2.18.09,27.25,27.25,0,0,0-7.14,2.32C204.85,105.8,204.57,105.9,204.3,106Z"/><path class="cls-7" d="M194.4,187.5s0,0,0,0h0s0,0,0,0h0l0,0h0Z"/><path class="cls-8" d="M164.84,39a11.84,11.84,0,0,0-2.07-1.16,6.23,6.23,0,0,0-2.6-.56,7.89,7.89,0,0,0-2.57.44,9.69,9.69,0,0,0-2.39,1.24c-.72.52-.17.76.33.57a9.2,9.2,0,0,1,4.72-.66c1.19.11,3.86.94,4.14,1C165.33,39.94,165.4,39.37,164.84,39Z"/><path class="cls-8" d="M181,39.1a10.27,10.27,0,0,0-2.2-1.1,7.84,7.84,0,0,0-2.82-.29,7.25,7.25,0,0,0-2.6.68c-.76.39-1.53,1.07-1.27,1.31s1,0,1.34-.12a14,14,0,0,1,1.69-.33,9,9,0,0,1,3.65.34c.67.2,1.67.46,1.94.5s.72.19.81-.17S181.2,39.26,181,39.1Z"/><path class="cls-9" d="M187.25,62.19c.29-2.06.19-4.12.4-6.15.24-2.19.48-4.73-.31-6.85a1.45,1.45,0,0,0-.49-.74.61.61,0,0,0-.82.07.9.9,0,0,0-.12.54c0,2.3.57,5.29-1.19,7.18a1.63,1.63,0,0,1-2.11.34c-.08-.06-.17-.13-.26-.1a.32.32,0,0,0-.1.1,33.87,33.87,0,0,0-1.58,3.26A34.26,34.26,0,0,1,178.6,63a4.08,4.08,0,0,0-.43.68c-2.06,4.7-1.86,10.91-1.43,15.93.25,3,1.3,7.23,4.27,8.65,2.15,1,1.13-5.52,3-11.15A100.32,100.32,0,0,0,187.25,62.19Z"/><path class="cls-6" d="M212.92,115.39a.49.49,0,0,1-.46-.3.58.58,0,0,1,.29-.73c2.31-1.15,5.63-5.54,4.15-9.27-1-2.41-5.51-1.58-6.89-1.27a32.47,32.47,0,0,0-6.16,2.32c-.86.39-6,3.52-6.57,3.07-1.1-.91,1.71-1.87,2.15-2.1,1.26-.63,2.53-1.24,3.8-1.83a34.57,34.57,0,0,1,6.63-2.53c2-.45,6.82-1.18,8,1.86,1.67,4.2-1.74,9.23-4.73,10.72A.53.53,0,0,1,212.92,115.39ZM192.8,112Z"/><path class="cls-8" d="M206.86,82a6.9,6.9,0,0,0,1.79-4.63c-.08-2.87-2.29-5.16-4.29-7.22-3.46-3.56-8.91-8.08-9.84-13.1-1.93-10.51,2.8-22.09-3.08-36C187.11,10.83,176.83,5.37,166,12a17.88,17.88,0,0,1-6.48,2.51c-3.82.69-8.38,2.91-10.23,7.39-2.43,5.87-1.59,12.5-4.08,18.38-.51,1.22-.7,2.47-1.33,3.66a48.77,48.77,0,0,1-2.73,4.4,75.71,75.71,0,0,0-5.55,8.77,27.76,27.76,0,0,0-2.71,14.15,33.93,33.93,0,0,0,1.5,7.54c.46,1.51.46,4.71,2.8,3.35,3.85-2.23,8.46-2.1,12.73-2.73,2.24-.33,3.64-.75,5.13-2.52a8.88,8.88,0,0,0,2.07-5c.42-4.6-.64-10-2-14.42a7.88,7.88,0,0,0-1.48-3c-.84,1.79-2.64.12-3.31-.79a12.16,12.16,0,0,1-1.72-4.55,11.43,11.43,0,0,1-.3-5.59c.22-.77.78-1.61,1.58-1.54s1.25,1.2,1.92,1.8c-.73-4.22.91-8.84,2.53-12.73,1.47-3.53,3.73-7,7.35-8.56a2.58,2.58,0,0,1,1.12-.27,1.91,1.91,0,0,1,.38.75c2.19,5.72,7.71,9.44,12.71,12.45,6.81,4.1,9.13,9.4,9.59,16,.76,10.81-3.78,23.4-4.92,26.2-2.37,5.84-1.77,11.7,5.49,12.67,5.93.8,11.84-1.68,16.86-4.94A17.78,17.78,0,0,0,206.86,82Z"/><path class="cls-10" d="M165.51,69a6.75,6.75,0,0,0,1.18.19c3,.22,5.81-1.61,8.25-3.43a18.35,18.35,0,0,0,5.18-5.17c-2.17,3.75-2.87,8.91-2.91,13.17a31.93,31.93,0,0,0,.66,6.75c0,3.64,2.69,6.31,5.22,8.43-1.31,2.57-3.76,5-5.87,7a19.4,19.4,0,0,1-3.46,2.74c-4.09,2.41-10.63,3.07-15,1a15.93,15.93,0,0,1-7-7.5c-1.94-3.92-2.64-8-3.25-12.2a26.47,26.47,0,0,0,5.6-2.55c1.73-1,1.78-2.94,2.1-4.71a32.59,32.59,0,0,0,.5-5,28.75,28.75,0,0,0-.89-9.07,11.72,11.72,0,0,0,2.2,3.62C160.18,65,161.86,68.12,165.51,69Z"/><path class="cls-10" d="M152.32,62.86A42.55,42.55,0,0,1,157.43,60l2.42-1a6.65,6.65,0,0,0,2.39-1.39,2.26,2.26,0,0,0,.52-2.56.67.67,0,0,0-.4-.36.88.88,0,0,0-.52.1c-2.14.94-4.27,1.91-6.4,2.88a31,31,0,0,0-3.92,1.83A33.71,33.71,0,0,0,155,57.2,9.55,9.55,0,0,1,157,55.72c.83-.41,1.7-.74,2.52-1.17A3.5,3.5,0,0,0,161,53.32a1.51,1.51,0,0,0-.09-1.79.79.79,0,0,0-.48-.26,1.06,1.06,0,0,0-.52.11,35.89,35.89,0,0,0-6.43,3.17c-.78.48-1.53,1-2.26,1.54a6.66,6.66,0,0,1-2,1.23c-.06,0-.14,0-.18,0s0-.18,0-.26A9.49,9.49,0,0,1,151.72,55a17.3,17.3,0,0,0,4.68-3.57,4,4,0,0,0,.69-1.27,1.56,1.56,0,0,0,0-1,.8.8,0,0,0-.78-.52,1.16,1.16,0,0,0-.52.23c-1.31.83-2.65,1.68-3.93,2.56-.92.65-1.85,1.29-2.81,1.87s-1.67,1-2.46,1.49a14,14,0,0,0-3,2.75c-.83,1-1.2,2.32-2.14,3.26a.48.48,0,0,1-.31.17.32.32,0,0,1-.28-.31.89.89,0,0,1,.12-.45c.52-1,1.3-1.9,1.8-2.93a3.26,3.26,0,0,0,0-3.27.65.65,0,0,0-.41-.3c-.23,0-.44.16-.6.33l-3.28,3.52a5.16,5.16,0,0,0-1,2.37c-.28,1-.54,1.93-.8,2.9-.64,2.47-1.46,7.31-1.85,9.71C134,74,133.4,75.24,133,76.13c-4.89,6.91-27.55,39.3-29.76,49.24-2.52,11.41,3.54,14.65,9.59,13.64,2.16-.37,4-2.94,5.23-4.52a76.54,76.54,0,0,0,7.23-11.63A176.16,176.16,0,0,0,133.78,104q2.21-5.7,4.09-11.52c1.25-3.84,1.9-8,3.5-11.64a6.25,6.25,0,0,1,1.32-2.13,19.36,19.36,0,0,1,2.55-1.57c1.9-1.28,3.26-4.48,4.35-6.47a10.16,10.16,0,0,1,4.76-4.58c2.26-1.07,4.86-1.2,7.06-2.42a2.06,2.06,0,0,0,.9-.8.83.83,0,0,0-.23-1.09,1.22,1.22,0,0,0-.6-.09,33.79,33.79,0,0,0-5,.41c-.86.13-1.71.3-2.54.5A8.64,8.64,0,0,0,152.32,62.86Z"/><path class="cls-10" d="M113.39,139.29a12.32,12.32,0,0,0,3.6-1.12c5-2.55,9.15-8.36,12.18-12.89a1.89,1.89,0,0,0,.44-1.22,1.79,1.79,0,0,0-.42-.82,29.54,29.54,0,0,0-3.51-3.91c-.09-.09-.21-.19-.34-.16s-.18.15-.23.26c-1.71,3.56-3,7.9-6,10.54s-5.38,6-9.35,6.79c-1.52.3-2.9-.23-4.37-.13-.85.06-.92-.07-.34.68C106.72,139.46,110.32,139.79,113.39,139.29Z"/><path class="cls-10" d="M216.86,126.91c-.32-2.45-.67-4.89-1-7.34-.66-4.41-1.34-8.79-1.76-13.22-.36-3.85-2.9-3.41-6.23-2.3a31,31,0,0,0-5.75,2.67c-1.24.72-2.49,1.4-3.68,2.2-2.59,1.74-1.14,7.79-.94,10.42.68,8.78,2.78,17.51,4.81,26.06a37.51,37.51,0,0,1,1.26,7.18,46.65,46.65,0,0,1-.45,6.46c-.66,6.57-.21,13.13-.29,19.7-.08,5.59-.51,11.14-.76,16.69-.24,5-.52,10.37-3.79,14.44a28.58,28.58,0,0,0-3.09,3.79c-1.81,3.3-.4,6.56.15,9.91a1.6,1.6,0,0,0,.48,1.1,1,1,0,0,0,1.2,0,2,2,0,0,0,.68-1.07c.4-1.35,0-2.82.2-4.21.11-.65.51-.86,1-.43s.33,1.92.4,2.35a39.82,39.82,0,0,1,.44,5.23,39.23,39.23,0,0,1-1.26,10.68,4,4,0,0,0-.21,1.81,1.32,1.32,0,0,0,1.24,1.14,1.62,1.62,0,0,0,1.09-.69c1.61-1.87,2.21-4.74,2.23-7.16a2.7,2.7,0,0,1,.16-1.23,44.55,44.55,0,0,1-.1,7.66.51.51,0,0,0,.07.33.38.38,0,0,0,.25.11c1.08.14,1.72-.93,2-1.78a60.73,60.73,0,0,0,1.5-7.69,7.25,7.25,0,0,1,.15,2.59c0,1-.17,2-.21,3a.62.62,0,0,0,0,.33.51.51,0,0,0,.41.26c1.72.29,2.55-2.4,2.71-3.68a31.65,31.65,0,0,0,.27-4,15.59,15.59,0,0,0-.15-1.81,2.48,2.48,0,0,1,0-1.5l.05-.06a.1.1,0,0,1,.12,0,.26.26,0,0,1,.05.12,10.73,10.73,0,0,1,.17,1.51c.12,1,.21,2,.27,3,0,.26.12.61.38.61a.48.48,0,0,0,.32-.18c.89-.93.74-2.21.76-3.39,0-1.49,0-3,0-4.48a40.42,40.42,0,0,0-1.1-9.17c-1.09-4.52.05-8.34,1.18-12.82,4.32-17,7.45-34,6.72-51.73C218.52,141.12,217.8,134,216.86,126.91Z"/></g><path class="cls-11" d="M149.8,52a.57.57,0,0,1-.48-.36,1.38,1.38,0,0,1-.08-.27.84.84,0,0,0-.05-.17c0-.09-.09-.15-.14-.15h0a.23.23,0,0,1-.2-.19.2.2,0,0,1,.19-.2h0a.57.57,0,0,1,.5.4.86.86,0,0,1,.06.23,1.52,1.52,0,0,0,.06.2.2.2,0,0,0,.14.13.19.19,0,0,1,.22.16.18.18,0,0,1-.16.21Z"/><path class="cls-11" d="M147.81,54a.23.23,0,0,1-.15-.07.2.2,0,0,1,0-.27,1.46,1.46,0,0,0,.53-1,.21.21,0,0,1,.21-.18.2.2,0,0,1,.18.2,1.87,1.87,0,0,1-.68,1.33A.21.21,0,0,1,147.81,54Z"/><path class="cls-11" d="M150.56,54.65a.19.19,0,0,1-.13,0,1.74,1.74,0,0,1-.33-.41.86.86,0,0,1-.1-.58.18.18,0,0,1,.22-.15.18.18,0,0,1,.15.22.58.58,0,0,0,.07.33,1.61,1.61,0,0,0,.25.31.19.19,0,0,1,0,.27A.2.2,0,0,1,150.56,54.65Z"/><path class="cls-11" d="M149.94,57.33a.17.17,0,0,1-.15-.07,1.18,1.18,0,0,1-.15-.25.48.48,0,0,1,0-.39.44.44,0,0,1,.11-.12l0,0s0-.16,0-.21A.19.19,0,0,1,150,56a.2.2,0,0,1,.23.14.64.64,0,0,1-.05.53.94.94,0,0,1-.1.1l0,0a.05.05,0,0,0,0,.05.44.44,0,0,0,.08.15.19.19,0,0,1,0,.27A.2.2,0,0,1,149.94,57.33Z"/><path class="cls-11" d="M146.54,49.72a1,1,0,0,1-.89-.57.19.19,0,0,1,.1-.25.2.2,0,0,1,.25.1.58.58,0,0,0,.72.31.18.18,0,0,1,.24.11.18.18,0,0,1-.11.24A.85.85,0,0,1,146.54,49.72Z"/><path class="cls-11" d="M148.82,58.12h-.07a.2.2,0,0,1-.17-.2.29.29,0,0,1,0-.09.2.2,0,0,1,.25-.1l.08,0h0Z"/><path class="cls-11" d="M146.48,54.49h-.13a.2.2,0,0,1,0-.39.69.69,0,0,0,.32,0,.19.19,0,0,1,.24.13.19.19,0,0,1-.13.23A1,1,0,0,1,146.48,54.49Z"/><path class="cls-11" d="M143.54,51.09a.2.2,0,0,1-.11,0,.18.18,0,0,1-.05-.26,2.84,2.84,0,0,0,.37-.88.2.2,0,0,1,.23-.15.2.2,0,0,1,.14.23,3.09,3.09,0,0,1-.42,1A.21.21,0,0,1,143.54,51.09Z"/><path class="cls-11" d="M143.58,47.75h-.07a.94.94,0,0,1-.45-.41.19.19,0,0,1,.09-.26.18.18,0,0,1,.25.08.5.5,0,0,0,.25.23.19.19,0,0,1,.11.25A.2.2,0,0,1,143.58,47.75Z"/></svg>