<svg id="Layer_1" data-name="Layer 1" xmlns="http://www.w3.org/2000/svg" xmlns:xlink="http://www.w3.org/1999/xlink" viewBox="0 0 300 200"><defs><style>.cls-1{fill:none;}.cls-2{opacity:0.84;fill:url(#linear-gradient);}.cls-3{clip-path:url(#clip-path);}.cls-4{fill:#faa87d;}.cls-5{fill:#72bf98;}.cls-6{fill:#53a076;}.cls-7{fill:#f0966a;}.cls-8{fill:#12174a;}.cls-9{fill:#000324;}.cls-10{fill:#ffa488;}.cls-11{fill:#fff;}.cls-12{fill:#dadada;}</style><linearGradient id="linear-gradient" x1="159.59" y1="-185.72" x2="149.1" y2="164.19" gradientUnits="userSpaceOnUse"><stop offset="0" stop-color="#fff"/><stop offset="0.12" stop-color="#f4cdcf"/><stop offset="0.3" stop-color="#e5898e"/><stop offset="0.43" stop-color="#dc5e65"/><stop offset="0.49" stop-color="#d84e55"/></linearGradient><clipPath id="clip-path"><circle class="cls-1" cx="161.46" cy="99.76" r="97.34"/></clipPath></defs><path class="cls-2" d="M267.45,95.85c6,7.21,11.94,14.48,14.5,23.5,4.39,15.52-5.43,33.64-20.83,38.43-6.84,2.13-14.23,1.86-21.13,3.77-14.76,4.08-21.38,17.49-33.68,24.5-12.82,7.32-30.21,11-44.85,11-24.59,0-44.73-12.39-67.88-18.18-21.28-5.34-47-3.71-63.91-19.92a40,40,0,0,1,4.46-61.43C56.28,81.81,87,91.32,111.55,81c10.46-4.38,20.74-9.57,29.3-17,6.74-5.85,12.25-13,17.94-19.83C172.21,28,191.21,5,214.65,8.68a36.79,36.79,0,0,1,26,18c9,15.92,5.72,35.29,14.14,51.63C258,84.68,262.77,90.25,267.45,95.85Z"/><g class="cls-3"><path class="cls-4" d="M184.43,57.24c.39-11-2.16-20.78-16-28.65-5.89-3.34-6.85-10.76-10.27-10-9.58,2.23-8.76,10.78-11.92,16.19-5.41,9.25-4.1,18.88,2.69,25.67,6.8,12.65-9,16.63-12.26,31.43-1.61,7.35.58,18.31,9,20.21,11.3,2.56,26-12.54,29.84-21.18,2.55-5.72,2.64-9.74,3.9-15.34C180.85,69.09,184.19,64,184.43,57.24Z"/><path class="cls-5" d="M212.94,101.26c0-.6-.05-1.21-.11-1.81a35.06,35.06,0,0,0-7.93-19,10.34,10.34,0,0,0-7.3-4.21,16.92,16.92,0,0,0-7.94.94c-4.24,1.5-8.45,2.57-12.55,4.63a15.8,15.8,0,0,0-4.17,2.75c-.94.94-1.16,2.07-1.92,3.08-1.78,2.37-5.8,4-8.58,4.74A13,13,0,0,1,152,90.8c-2.33-1.64-3.89-4.15-5.28-6.64-1-1.88-.85-2.84-.42-4.78.15-.68,1-3.51,1.88-3.61-3.88.42-7.8-.12-11.69.14-5.53.38-10.6,3.07-12.86,8.25a136.33,136.33,0,0,0-9,27.6c-.12.6-.19,1.34.3,1.71a1.92,1.92,0,0,0,1.17.22,9.48,9.48,0,0,1,5.17,1.48c1.66,1,2.23,2.89,3.61,4,3,2.36,2.26-2.13,3.66-4.22-.47.7,1.36,5.54,1.58,6.51.59,2.57,1.14,5.14,1.7,7.72,1.12,5.12,2.81,10.25,3.7,15.4,2.2,12.67-6.37,27.29-10.32,39-.66,2-1.4,4-1.19,6,.5,4.95,10.64,7.14,14.71,8,8.8,1.89,18.29.77,27.26,2,11.7,1.56,23.39,1.06,35,0-1.44-6.84-2.54-13.59-4.25-20.38l-5.51-21.83a79.33,79.33,0,0,1-2-9.5,63.06,63.06,0,0,1-.13-11.74c.25-3.84.3-8.16,1.12-11.87,1-4.52,1.92-8.94,2.53-13.54.87,2.84,1.11,8.25,5.28,7.52,2.77-.48,4.23-3.38,6.49-4.81,3.05-1.91,6.26-4.27,7.67-7.71A10.92,10.92,0,0,0,212.94,101.26Z"/><path class="cls-6" d="M198.55,102.26c-.53.18-1.06.33-1.59.56-2,.88-5.26,1.09-4.72,4a96.13,96.13,0,0,0,2.84,11.23c.13.39.33.85.74.91a1.1,1.1,0,0,0,.76-.26c2.48-1.61,4.7-3.39,7.32-4.79a19.22,19.22,0,0,0,2.67-1.66,12.9,12.9,0,0,0,3.8-5.58,9.32,9.32,0,0,0,.89-2.89,3.93,3.93,0,0,0-2.82-4.19,5.61,5.61,0,0,0-2.12.08,27.17,27.17,0,0,0-4,1,26.67,26.67,0,0,0-3,1.23A7.92,7.92,0,0,1,198.55,102.26Z"/><path class="cls-7" d="M188.89,181.75l0,0h0s0,0,0,0,0,0,0,0h0l0,0h0Z"/><path class="cls-8" d="M160.07,36.88a12.89,12.89,0,0,0-2-1.14,6.09,6.09,0,0,0-2.53-.54,7.79,7.79,0,0,0-2.51.43,9.22,9.22,0,0,0-2.33,1.21c-.7.5-.16.74.32.55a9,9,0,0,1,4.61-.63,39.37,39.37,0,0,1,4,.94C160.54,37.83,160.61,37.27,160.07,36.88Z"/><path class="cls-8" d="M175.82,37a10,10,0,0,0-2.14-1.07,7.48,7.48,0,0,0-2.75-.28,7,7,0,0,0-2.53.66c-.75.38-1.5,1-1.24,1.28s.94,0,1.31-.12a14.85,14.85,0,0,1,1.64-.32,9.15,9.15,0,0,1,3.56.33c.65.2,1.63.45,1.89.49s.7.18.79-.17S176,37.16,175.82,37Z"/><path class="cls-9" d="M181.92,59.52c.28-2,.18-4,.4-6s.46-4.61-.31-6.67a1.47,1.47,0,0,0-.48-.73.6.6,0,0,0-.8.07.94.94,0,0,0-.12.53c0,2.24.56,5.16-1.15,7a1.6,1.6,0,0,1-2.06.34c-.08-.06-.17-.13-.25-.1a.18.18,0,0,0-.1.09,32.46,32.46,0,0,0-1.55,3.19,32.55,32.55,0,0,1-2,3,3.28,3.28,0,0,0-.41.66c-2,4.59-1.82,10.65-1.4,15.53.24,2.9,1.27,7.06,4.17,8.45,2.1,1,1.09-5.39,2.94-10.88A98.17,98.17,0,0,0,181.92,59.52Z"/><path class="cls-8" d="M201.05,78.89a6.8,6.8,0,0,0,1.75-4.52c-.08-2.8-2.24-5-4.19-7-3.38-3.48-8.69-7.89-9.59-12.78-1.89-10.25,2.72-21.54-3-35.12-4.23-10-14.25-15.33-24.86-8.83a17.3,17.3,0,0,1-6.32,2.45c-3.73.67-8.17,2.84-10,7.21-2.36,5.73-1.55,12.19-4,17.92a37.08,37.08,0,0,1-1.3,3.57,48.75,48.75,0,0,1-2.66,4.3,72.51,72.51,0,0,0-5.42,8.55,27.17,27.17,0,0,0-2.64,13.8,33.56,33.56,0,0,0,1.46,7.36c.45,1.47.45,4.59,2.74,3.26,3.75-2.17,8.24-2,12.41-2.66,2.18-.32,3.55-.73,5-2.45a8.62,8.62,0,0,0,2-4.84c.41-4.5-.62-9.78-1.93-14.07a7.68,7.68,0,0,0-1.44-3c-.82,1.74-2.57.12-3.23-.78a11.68,11.68,0,0,1-1.68-4.44,11.19,11.19,0,0,1-.29-5.44c.21-.75.76-1.57,1.54-1.5s1.22,1.16,1.88,1.74c-.72-4.1.88-8.62,2.46-12.41,1.44-3.45,3.64-6.78,7.17-8.34a2.51,2.51,0,0,1,1.09-.27c.15.09.26.42.38.73,2.13,5.58,7.51,9.2,12.39,12.14,6.65,4,8.91,9.17,9.36,15.62.73,10.55-3.69,22.82-4.8,25.55-2.32,5.7-1.73,11.41,5.35,12.36,5.79.78,11.55-1.64,16.45-4.82A17.09,17.09,0,0,0,201.05,78.89Z"/><path class="cls-10" d="M160.72,66.21a7.13,7.13,0,0,0,1.14.18c3,.22,5.68-1.56,8.06-3.34A17.86,17.86,0,0,0,175,58c-2.12,3.66-2.81,8.7-2.84,12.85a31.57,31.57,0,0,0,.64,6.58c0,3.56,2.62,6.16,5.09,8.23a27.26,27.26,0,0,1-5.72,6.79,18.92,18.92,0,0,1-3.38,2.67c-4,2.35-10.37,3-14.59,1a15.47,15.47,0,0,1-6.86-7.31c-1.9-3.83-2.58-7.77-3.18-11.9a26,26,0,0,0,5.47-2.49c1.69-1,1.73-2.87,2-4.59a31.06,31.06,0,0,0,.49-4.9,28.17,28.17,0,0,0-.86-8.84,11.36,11.36,0,0,0,2.14,3.53C155.52,62.23,157.16,65.31,160.72,66.21Z"/><path class="cls-10" d="M109.88,134.73a12.7,12.7,0,0,0,3.52-1.09c4.83-2.49,8.92-8.16,11.87-12.57a1.85,1.85,0,0,0,.43-1.2,1.75,1.75,0,0,0-.4-.79,29.61,29.61,0,0,0-3.43-3.82.39.39,0,0,0-.34-.15c-.11,0-.17.14-.22.25-1.66,3.47-2.92,7.71-5.83,10.28s-5.24,5.88-9.11,6.63c-1.48.28-2.83-.23-4.26-.14-.84.06-.9-.07-.34.67C103.38,134.9,106.89,135.22,109.88,134.73Z"/><path class="cls-11" d="M148,48.75a.48.48,0,0,1-.48-.54A14.35,14.35,0,0,0,147,43.8c-.32-1.27-.76-2.44-2.19-2.81a2.6,2.6,0,0,1-.62-.18.62.62,0,0,1-.35-.52c0-.3.35-.48.64-.52a2,2,0,0,1,1.23.31,5.93,5.93,0,0,1,1,.81c1.7,1.59,2.05,5.12,1.89,7.32A.58.58,0,0,1,148,48.75Z"/><path class="cls-11" d="M181.1,57.52c0-3,0-5.75-.2-9.06-.05-.67-.64-1.15-1.58-1.14-3.37,0-6.09.18-9.47-.07-1.77-.13-3.1-1.44-4.94-1.51s-3.89,1.1-5.39,1.19c-3.6.23-7.27-.12-10.79,0-.69,0-1.4.28-1.48.94a39.74,39.74,0,0,0-.4,10.53,5.57,5.57,0,0,0,2.2,3.6c2.46,2,2.51,4.32,5.07,7.1,2.21,2.4,4.64,4.35,8.81,4.35a13.61,13.61,0,0,0,10.47-4.62c2.58-3.18,2.85-4.81,5.2-6.57A5.94,5.94,0,0,0,181.1,57.52Z"/><path class="cls-12" d="M178.77,62.28l-1-.19a43.19,43.19,0,0,0,.67-11.23,71.57,71.57,0,0,1-8.85-.28,14.23,14.23,0,0,1-3.11-.78,6.85,6.85,0,0,0-2.13-.52,17.57,17.57,0,0,0-3.33.54c-.65.14-1.21.27-1.61.31a62.24,62.24,0,0,1-10.19.18,48.82,48.82,0,0,0-.08,10.59l-1,.2a50,50,0,0,1,.14-11.38l.07-.52.69,0a63.07,63.07,0,0,0,10.36-.16c.34,0,.88-.16,1.5-.29a18.37,18.37,0,0,1,3.56-.56,7.73,7.73,0,0,1,2.45.56,13,13,0,0,0,2.9.74,72.88,72.88,0,0,0,9.16.26h.45l.05.45A45,45,0,0,1,178.77,62.28Z"/><path class="cls-10" d="M145.68,56.88a2,2,0,0,1-.16-.33c-.29-.79-.09-1.77-.63-2.4s-1.5-.68-1.82-1.38a1.87,1.87,0,0,1,.45-1.73c.81-1.11,1.78-2.09,2.55-3.23A5.74,5.74,0,0,0,147.2,44c-.08-.56-.47-1.21-1-1.11a1.24,1.24,0,0,0-.52.3c-3.53,2.92-7.17,5.41-9.72,9.34a33.33,33.33,0,0,0-4.19,10.67c-.79,3.37-.68,7.1-2.72,10-4.77,6.73-26.88,38.33-29,48-2.46,11.12,3.45,14.28,9.35,13.29,5.19-.87,19-24.15,27.8-56.83.16-.61,2.14-1.65,2.59-2.13.92-1,1.12-2,1.81-3.13,1.15-1.8,3.21-2.68,4.64-4.22s2.66-3.39,1.93-5.47a25.15,25.15,0,0,1-1.06-2.45,11.14,11.14,0,0,0-.28-1.65A12.22,12.22,0,0,0,145.68,56.88Z"/><path class="cls-11" d="M189.58,49.85A3.58,3.58,0,0,0,191.19,46a2,2,0,0,0-.5-.94,2.45,2.45,0,0,0-2.36-.18c-2,.58-4.38,1.66-6.28,2.41a8.36,8.36,0,0,1-2.32.55c-.24.31-.27,1.16.07,1.35a1.8,1.8,0,0,0,1.15.1c2.51-.42,4.65-2,7-2.9a2.44,2.44,0,0,1,.84-.19,1.4,1.4,0,0,1,1.22,1.86c-.14.33-.41.67-.27,1S189.3,50,189.58,49.85Z"/><path class="cls-10" d="M200.09,77.79c-.62-1.08-1.25-2.16-1.86-3.26a5.87,5.87,0,0,1-.64-1.48,5.72,5.72,0,0,1,0-2.18c.54-3.6,1.53-7.22,1.23-10.89-.24-3-2-6.45-3.37-9.12a3,3,0,0,0-1-1.23,1.1,1.1,0,0,0-1.43.17c-.72,1,.07,2.68.31,3.74a19,19,0,0,1,.51,3.83c-.67-.25-1.27-2.17-1.65-2.8a31,31,0,0,1-1.79-3.37,1.1,1.1,0,0,1-.11-.35c0-.51.62-.76.88-1.2a1.76,1.76,0,0,0,0-1.28,1.45,1.45,0,0,0-.65-1.12,1.63,1.63,0,0,0-1,.06,8.39,8.39,0,0,1-2,.29,3.19,3.19,0,0,0-1.38.19c-1.19.59.18,2.61.5,3.46a6.89,6.89,0,0,1,.57,3.7,1.35,1.35,0,0,1-.49.89c-.43.29-1.09.11-1.47.47s-.26.81-.35,1.24c-.31,1.49-2.38,2-2.89,3.41-.34,1,.12,2-.08,3-.17.81-.77,1.48-1,2.28a3.42,3.42,0,0,0,.59,2.67,9.88,9.88,0,0,0,2,2A20.92,20.92,0,0,1,189.86,79c2.71,5.93,2.82,12.57,3.91,18.91a193.89,193.89,0,0,0,4.7,20.75,103.11,103.11,0,0,0,5.32,14.86c1.14,2.47,2.52,5.77,4.81,7.44a3.33,3.33,0,0,0,.84.48c5.65,1.95,12-.19,11.43-11.56a19.61,19.61,0,0,0-.52-3.32,91,91,0,0,0-3.89-12c-1.87-4.91-3.9-9.75-6-14.56q-3-6.78-6.07-13.47c-.8-1.74-1.62-3.47-2.43-5.19C201.39,80.12,200.75,79,200.09,77.79Z"/><path class="cls-11" d="M146.57,54.79l.09.24a3.11,3.11,0,0,1,.18.54,2.81,2.81,0,0,1,0,.65c0,.36,0,.71,0,1.07a5.68,5.68,0,0,1,0,1s0,0,0,0-.05,0-.06,0c-.19-.64-.42-1.25-.6-1.89s-.39-1.48-.54-2.23-.25-1.32-.34-2a18.41,18.41,0,0,1-.26-2.34c.13.2.24.42.35.63a10.58,10.58,0,0,1,.68,2.67A10.67,10.67,0,0,0,146.57,54.79Z"/></g></svg>