<svg id="Layer_1" data-name="Layer 1" xmlns="http://www.w3.org/2000/svg" xmlns:xlink="http://www.w3.org/1999/xlink" viewBox="0 0 300 200"><defs><style>.cls-1{opacity:0.84;fill:url(#linear-gradient);}.cls-2{fill:#373061;}.cls-10,.cls-11,.cls-12,.cls-13,.cls-14,.cls-2,.cls-3,.cls-4,.cls-5,.cls-6,.cls-7,.cls-8,.cls-9{fill-rule:evenodd;}.cls-3{fill:#12174a;}.cls-4{fill:#f4dcb1;}.cls-5{fill:#f99770;}.cls-6{fill:#f0966a;}.cls-7{fill:#72bf98;}.cls-8{fill:#e6b5a3;}.cls-9{fill:#53a076;}.cls-10{fill:#d2887a;}.cls-11{fill:#faa87d;}.cls-12{fill:#fff;}.cls-13{fill:#fff5e8;}.cls-14{fill:none;}</style><linearGradient id="linear-gradient" x1="133.34" y1="-49.69" x2="165.16" y2="258.2" gradientUnits="userSpaceOnUse"><stop offset="0" stop-color="#fff"/><stop offset="0.01" stop-color="#fae9ea"/><stop offset="0.03" stop-color="#f2c5c7"/><stop offset="0.05" stop-color="#eba5a8"/><stop offset="0.08" stop-color="#e5898e"/><stop offset="0.11" stop-color="#e07379"/><stop offset="0.14" stop-color="#dd6269"/><stop offset="0.18" stop-color="#da575d"/><stop offset="0.24" stop-color="#d85057"/><stop offset="0.41" stop-color="#d84e55"/></linearGradient></defs><path class="cls-1" d="M261.46,105.24l.21.18a29.18,29.18,0,0,1-9,48.83c-11,4.43-23,5.07-33.07,11.43-5.29,3.34-10.93,6.08-16.24,9.38-5.11,3.17-9.17,7.75-14.29,11-7.35,4.61-15.08,4.67-23.28,6.32a109.37,109.37,0,0,1-28.09,1.85,50.75,50.75,0,0,1-9.76-1.35c-7.79-2-13.24-7.26-20.12-10.89-5.78-3-11.94-5.22-17.75-8.11s-11.93-2.94-18.56-3.46c-6-.47-12.21-1.44-17.34-4.61-6.31-3.9-8.86-9.42-6.82-16.23,2.11-7.08,2.56-15.28-.55-22.13-3.62-8-11.56-13.25-15.54-21a21.68,21.68,0,0,1-.82-18.44c8-17.91,30.41-13.36,45.21-9.65,20.95,5.24,43.16,6.92,64.35,2.11a103.17,103.17,0,0,0,30.31-12.17c9-5.42,18.11-12.67,28.92-14.11a32.61,32.61,0,0,1,23,5.9A37.07,37.07,0,0,1,235.94,79.5a28.46,28.46,0,0,0,9.12,14.31C250.13,98.14,256.47,100.81,261.46,105.24Z"/><path class="cls-2" d="M177.57,52.6a.46.46,0,0,1,.18-.61.45.45,0,0,1,.61.19s8.72,16.28,9.59,20.25a13.76,13.76,0,0,1,.06,6.25,7.89,7.89,0,0,1-2.8,4.41.45.45,0,0,1-.55-.71,7,7,0,0,0,2.48-3.92,13,13,0,0,0-.07-5.84C186.22,68.77,177.59,52.65,177.57,52.6Z"/><path class="cls-3" d="M188.15,49.36c1,3.64,1.41,7.14,2.85,10.78a106,106,0,0,0,6.43,13.53c3.3,5.86,7.29,11.86,7.11,18.58a8.16,8.16,0,0,1-.87,3.74,7.9,7.9,0,0,1-4.77,3.41c-5.51,1.65-11.54-.28-16.38-3.41a20.91,20.91,0,0,1-6.63-6.44c-.8-1.31-1-2.87-1.66-4.14s-2.16-2.31-2.88-3.8c-2-4.11-1-9-.5-13.51a10.58,10.58,0,0,0-.25-5c-2.07-5.51-11.95-4-16.43-4.28-7-.42-15.33-2.45-20.73,3.27a21.47,21.47,0,0,0-4.73,9c-.62,2.23-1,4.51-1.74,6.71s-1.9,3.54-2.82,5.39c-2,4.06-2.66,7.92-6.28,11.12-3.46,3.07-8.54,4.54-12.87,2.91a10.6,10.6,0,0,1-5.27-4.32,16.65,16.65,0,0,1-2-6A20.42,20.42,0,0,1,98,77.22c1.39-4.32,4.79-7.62,7.57-11.2,10.31-13.26,12.49-31,20.13-46,2.67-5.24,6.17-10.54,12.67-10.77a12.62,12.62,0,0,0,2.46-.16,9.84,9.84,0,0,0,2.3-1,22.92,22.92,0,0,1,15.95-2,23.66,23.66,0,0,1,11.11,6.43c3.2,3.17,6.13,5.55,8.48,9.6,4.72,8.13,6.71,17.5,9.27,26.45C188,48.83,188.08,49.1,188.15,49.36Z"/><path class="cls-3" d="M125.92,41l-4.09,1.52s.57,15.76-3.58,26.61-.85,20,5.85,17.83c0,0,.39,6.6,5.93,8.13s12.45,2.71,12.45,2.71l18.66,1s17.73,4.91,19-15.89c0,0,6-.26,6.13-7.49s-8.2-19-8.2-34S125.92,41,125.92,41Z"/><path class="cls-4" d="M171.09,57.34a4.35,4.35,0,0,0,0-.51c-.17-1.76-2.23-2.46-3.63-3-3.41-1.43-2.83,3.83-1.76,4.32s2,.81,3,1.31A4.71,4.71,0,0,0,171,60a.75.75,0,0,0,.33-.07.71.71,0,0,0,.21-.84c-.1-.29-.3-.55-.4-.84A2.44,2.44,0,0,1,171.09,57.34Z"/><path class="cls-5" d="M117.53,80.08c-3.62,1-6.09,5.84-7.52,12.84s-11.18,42.6-10.26,47.6c-.35-2.84,21.39-21.19,24.45-24.16,0,0-1.63-22.41-2.26-27.34S119.39,80.27,117.53,80.08Z"/><path class="cls-6" d="M109.33,129.76c6.12-5.71,13.22-11.8,14.87-13.4,0,0-1.63-22.41-2.26-27.34-.1-.78-.23-1.53-.39-2.24L118.62,84l-2,23.43,1.13,2.93-2.14,3.26-6.34,16.18Z"/><path class="cls-7" d="M117.63,80c-2.31-.16-5.2,1.52-6.65,3a18.14,18.14,0,0,0-3.89,6.66,109.66,109.66,0,0,0-4.92,19.48c-.34,2-2.07,6.71-.19,8.22.78.64,2.11.39,3,.4a33.76,33.76,0,0,1,5.41.45,20.46,20.46,0,0,0,4.84.58c.12,0,2.9-9.53,3.26-10.38,1.54-3.66,3.31-7.23,4.8-10.92.34-.86-.14-2.74-.22-3.62A48.39,48.39,0,0,0,122,86.41c-.5-2-1.25-5.72-3.64-6.33A3.86,3.86,0,0,0,117.63,80Z"/><path class="cls-5" d="M184.92,80.08c3.62,1,6.09,5.84,7.53,12.84s11.17,42.6,10.25,47.6c.35-2.84-21.39-21.19-24.44-24.16,0,0,1.62-22.41,2.25-27.34S183.06,80.27,184.92,80.08Z"/><path class="cls-6" d="M193.12,129.76c-6.12-5.71-13.22-11.8-14.86-13.4,0,0,1.62-22.41,2.25-27.34.11-.78.24-1.53.4-2.24L183.83,84l1.95,23.43-1.13,2.93,2.15,3.26,6.33,16.18Z"/><path class="cls-7" d="M185.08,79.8c.84.15,1.65.36,2.26.5A12.62,12.62,0,0,1,194.67,85c2.2,3,2.52,6.33,3.63,9.72s2,6.68,2.92,10.07c.49,1.92.67,3.89,1.06,5.62.35,1.57.36,3.37-1.41,4.16s-3.68-.21-5.54-.58a15.06,15.06,0,0,0-7.35.82,2.06,2.06,0,0,1-3.28-1.56,46.67,46.67,0,0,0-1.37-5L179,97.41c-.52-1.3.26-4.21.42-5.55.39-3.37.31-7.52,1.45-10.69C181.43,79.51,183.33,79.5,185.08,79.8Z"/><path class="cls-8" d="M151.09,46.3h0A9.76,9.76,0,0,1,160.83,56V74.69a9.76,9.76,0,0,1-9.74,9.74h0a9.76,9.76,0,0,1-9.74-9.74V56A9.76,9.76,0,0,1,151.09,46.3Z"/><path class="cls-7" d="M162.53,75.43s-4.12,5.91-11.31,5.91-11.3-5.91-11.3-5.91c-.77-.86-2.29-.33-5.43.8s-9.66,2.11-16.67,3.54a.7.7,0,0,0-.29.31,1.18,1.18,0,0,1,.87.68c.26.59.58,16.84.66,19.7.1,3.54-2.85,7.43-3.28,11.08-.7,6.07-.28,11.81.09,17.89a193.76,193.76,0,0,1-2.5,44.8,33.29,33.29,0,0,0-.52,4.46c0,1.17-.11,2.34-.16,3.5s-.39,2.08.48,2.87c2.51,2.26,5.63,3.52,8.6,5A36.62,36.62,0,0,0,126,192c8,2.81,16.88,3,25.27,3a84.26,84.26,0,0,0,23.66-3.38c1.32-.38,2.6-.61,3.9-1.11s2.47-1,3.75-1.44a48.28,48.28,0,0,0,5.53-2.39,34.68,34.68,0,0,0,3.24-1.72c.82-.5,2.17-1.08,2.17-2.21a3.7,3.7,0,0,0-.35-1.29c-.68-1.71-1.88-3.7-2.13-5.53s-.93-3.41-1.25-5.17c-.95-5.17-1.82-10.35-2.73-15.52a101.17,101.17,0,0,1-1.88-15.2,98.72,98.72,0,0,1,.44-10c.49-6.33,2-13.39.92-19.64-.54-3.19-3.2-6.74-3.11-9.91.08-2.87.4-19.11.65-19.7a1.19,1.19,0,0,1,.88-.68.7.7,0,0,0-.29-.31c-7-1.43-13.52-2.41-16.67-3.54S163.3,74.57,162.53,75.43Z"/><path class="cls-9" d="M132.45,76.84c-1,.25-2.13.5-3.38.76s2,4.85,2.28,5.15a67.09,67.09,0,0,0,8.58,8c2.9,2.18,6.11,4,8.71,6.51,5.67,5.51,7.74,13.61,10.29,21.08a16.24,16.24,0,0,0,3,5.8,11.09,11.09,0,0,1,1.11,1.27c1.58,2.39-.35,4.5-1.72,6.26-1.65,2.11-2.23,4.47-3.19,6.93-2.59,6.68-9.05,10.95-15.31,14.41q-5.72,3.16-11.64,5.93a.87.87,0,0,0-.42.33c-.23.43.36.83.84,1a39.71,39.71,0,0,0,28.3-2.9,7.38,7.38,0,0,0,3-2.34,7.82,7.82,0,0,0,1-3,148.27,148.27,0,0,0,2.19-23.23c4.17,4.76,6.71,10.23,10,15.47,2.89,4.62,6.19,9.19,10.84,12.19-.5-.33-.62-3.68-.72-4.34-.26-1.71-.49-3.42-.71-5.14-.4-3.3-.72-6.62-.94-9.94s-.49-6.66-.39-10c0-1.33.45-1.83,0-2.86-.52-1.23-2.22-2.55-3.1-3.56l-5.33-6.13L152.57,87.83l-1.16-1.33-12.66-9.24Z"/><path class="cls-10" d="M141.39,75.6l14.67-5.79,4.77-1.88V65.85a17.77,17.77,0,0,1-9.6,2.92H151a16.63,16.63,0,0,1-9.6-3.43V71c0,.63-.31,3.23-1.55,4.34l.12.12s.15.22.45.57Z"/><path class="cls-11" d="M171.16,43.15l.43.07h0a5.85,5.85,0,1,1-4.9,1.14c-.16,1.73.1,3.87,2.31,4.1l0-3.38A2,2,0,0,1,171.16,43.15Z"/><path class="cls-11" d="M131.09,42.87l-.43.07h0a5.86,5.86,0,1,0,4.89,1.21c.13,1.73-.16,3.87-2.37,4.07l.09-3.38A2,2,0,0,0,131.09,42.87Z"/><path class="cls-11" d="M150.92,73.37c-11.26-2.09-19.9-13.76-19.9-25V34.18a20.06,20.06,0,1,1,40.12,0V48a28.18,28.18,0,0,1-4.55,15.27A22.3,22.3,0,0,1,161.3,69,48.62,48.62,0,0,1,154,73a4.72,4.72,0,0,1-1.33.52,4.21,4.21,0,0,1-1.54-.06Z"/><path class="cls-3" d="M145,39.5h1.23a2.15,2.15,0,0,1,.91.14.91.91,0,0,1,.15,1.44,3.79,3.79,0,0,1-2.11.49L137.67,41c-.23,0-.68-.16-.61-.47s.27-.35.47-.45a10.12,10.12,0,0,1,4.39-.64Z"/><path class="cls-12" d="M134.26,69.43s-10.21,2.25-11.87,8.28c-1.86,6.78-2.37,13.62.24,20.32,2,5,5.48,8.57,8.59,12.84a30.15,30.15,0,0,1,5.28,14.92c1,10.75-2.92,20.27-5.52,30.47a4,4,0,0,0-.17,1.9c.33,1.38,2,2,3.36,2.23,8.78,1.61,17.74-1.26,25.06-5.94a5.79,5.79,0,0,0,2.44-2.41,6,6,0,0,0,.33-1.47,150,150,0,0,0,1.78-18.67,36.16,36.16,0,0,0-1.43-11.82,41.85,41.85,0,0,0-13-19.59,25.7,25.7,0,0,0-7.13-3.71c-16.7-6.52-10.51-20.86-10.51-20.86Z"/><path class="cls-13" d="M134.26,69.43s-9.5,2.1-11.66,7.66l8.14,7.2a17,17,0,0,1,1-8.37l2.56-6.49Zm-1.07,43.36a35.26,35.26,0,0,1,5.94,10.45l10.21-22.75a38.51,38.51,0,0,0-7.08-3.69Z"/><path class="cls-3" d="M163.82,40.18a.14.14,0,0,1,0,.09,38.34,38.34,0,0,1-4.85.91,19.9,19.9,0,0,1-4.3.5,1.07,1.07,0,0,1-.67-.23,1,1,0,0,1-.23-.44,1.06,1.06,0,0,1,.05-.94c.4-.56,1.94-.4,2.54-.4,1.79,0,3.58,0,5.36.08a7,7,0,0,1,1.82.19C163.65,40,163.8,40.07,163.82,40.18Z"/><path class="cls-3" d="M176.35,40a22,22,0,0,1-.31,5.56.54.54,0,0,1-.11.27.36.36,0,0,1-.49-.08,2.92,2.92,0,0,1-.29-.48,1.4,1.4,0,0,0-1.67-.38,5.62,5.62,0,0,0-1.71,1.36c-.19.2-1.39,1.71-1.18,2-1.74-2.16-1-5.51-2.53-7.83s-4.35-2.77-6.91-3.38a34.24,34.24,0,0,1-13.32-6.29,25.16,25.16,0,0,1-8.42-12c-2.94,5.24-4.23,11.22-5.49,17.1a42.73,42.73,0,0,0-1.06,9.21,1.53,1.53,0,0,1-.36,1.21c-.05-.1-.11-.2-.17-.3a3.77,3.77,0,0,0-3.84-1.47,2.8,2.8,0,0,0-1.62,1.2.19.19,0,0,1-.11.09c-.07,0-.11-.09-.12-.16a4.77,4.77,0,0,1,.21-1.59c.13-.61.18-1.23.26-1.85a14.79,14.79,0,0,0,.29-1.83c0-1.45-.26-2.93-.32-4.38-.19-4.82-.25-10.74,2.48-14.94,4.5-6.89,9.89-13.78,19.47-12.88a26.93,26.93,0,0,1,6.09,1.33,32.59,32.59,0,0,1,10.66,5.89A28.34,28.34,0,0,1,174,26.8a31.05,31.05,0,0,1,1.89,8.12c.16,1.56.27,3.13.41,4.68Z"/><path class="cls-12" d="M132.25,55.31c.38.74,1.13,2.64,1.23,2.85a27.05,27.05,0,0,0,1.67,3,36.42,36.42,0,0,0,2.12,3.12,33.84,33.84,0,0,0,6.79,5.94,17.55,17.55,0,0,0,3.65,2.22,9.57,9.57,0,0,0,6.69.09,11,11,0,0,0,4.27-2.79c1.2-1.25,2.68-2.08,3.92-3.34.94-1,1.78-2,2.63-3.08l3.65-4.58c1.89-2.37,2.95,1.3,3.2,2.68a20.89,20.89,0,0,1-.22,7.56,4.38,4.38,0,0,0-.08,1.8,6.18,6.18,0,0,0,.7,1.38,6,6,0,0,1,.61,4.14c-.22,1-.69,1.93-.82,3-.29,2.31-.43,5.09-1.92,7a20.43,20.43,0,0,1-5,4.18,35.94,35.94,0,0,1-8.2,4.48c-5.34,1.81-12.41,0-16.76-3.39a39.87,39.87,0,0,1-6.13-6.45c-2.51-3.11-6.39-7.2-5.35-11.62.49-2-.19-3.06-.59-5.07-.28-1.37-.26-2.85-.49-4.25s1.65-3.59,2.87-4c0,0,0-1.93,0-2.07.12-1,.2-2.65,1.29-3.13C132.07,55,132.15,55.12,132.25,55.31Z"/><path class="cls-5" d="M166,78.17s1.17-7.71,1.2-8.54-3.43-1-4,4.09S165.75,78,165.75,78Z"/><path class="cls-5" d="M150.92,61.08c-.44.09-.59,1.55-.49,2.39.19,1.66.73,3.26,1,4.91a75.71,75.71,0,0,1,.79,17.34c-.6,6.56-2,12.14,3.28,17.25,2.17,2.12,11.15,15.27,11.15,15.27l9.22-7.88S164.12,96,163.55,94.84s-.63-3.32.06-7.09,2.88-10.28,2.2-11.94-6.41-10.34-9.21-15.38a1.31,1.31,0,0,0-1-.21c-.5.16-.9,1.36-.9,1.36-.37-.58-1.38-2.93-2.09-2.77a1,1,0,0,0-.69.79,2.91,2.91,0,0,0,0,1.1,13.26,13.26,0,0,0,1,3.64,2.41,2.41,0,0,1,.41,1.51l-1.6-3.75C151.4,61.3,151.13,61,150.92,61.08Z"/><path class="cls-5" d="M182.87,145.19c-8-9.38-27-42.16-27-42.16l8.1-7.3.68.26,23.62,25.64,12.48,13.19C207.26,141.72,196.6,161.39,182.87,145.19Z"/><path class="cls-5" d="M136.47,78.17s-1.17-7.71-1.19-8.54,3.43-1,4,4.09S136.71,78,136.71,78Z"/><path class="cls-5" d="M147.11,61.31c.41.18.56.73.6,1.19.33,3.56-1.44,7-1.71,10.53l1.69-4.47c.11-.28.25-.6.54-.69.5-.16.88.46,1,1,.68,2.85,0,5.83-.65,8.71a13.11,13.11,0,0,0-.36,3c.07,2.31,1.27,4.37,2,6.51a21.92,21.92,0,0,1,1,7.39c0,3.66-2.06,6-4.23,8.12s-11.15,15.27-11.15,15.27L126.62,110s11.71-14.38,12.28-15.53.63-3.31-.05-7.09-2.89-10.27-2.2-11.93c1.13-2.74,2.38-5.43,3.48-8.18a16.39,16.39,0,0,1,1.46-3.22,23.42,23.42,0,0,0,2-3.8c.22-.53.68-1.18,1.21-.95a1,1,0,0,1,.46.8c.46,2.45-.21,4.94-.88,7.34l-.83,3c1.35-2.45,1.22-5.43,2.17-8.06.2-.58.66-1.24,1.25-1.09Z"/><path class="cls-5" d="M119.58,145.19c8-9.38,27-42.16,27-42.16l-8.1-7.3-.68.26L114.2,121.63l-12.48,13.19C95.19,141.72,105.85,161.39,119.58,145.19Z"/><path class="cls-14" d="M167.66,88.62,168.77,87"/></svg>