<svg id="Layer_1" data-name="Layer 1" xmlns="http://www.w3.org/2000/svg" xmlns:xlink="http://www.w3.org/1999/xlink" viewBox="0 0 300 200"><defs><style>.cls-1{opacity:0.84;fill:url(#linear-gradient);}.cls-2{fill:#12174a;}.cls-3{fill:#f0966a;}.cls-4{fill:#72bf98;}.cls-5{fill:#faa87d;}.cls-6{fill:#99a2a3;}.cls-7{fill:#2a474e;}.cls-8{fill:#96ceda;}.cls-9{fill:#f3efed;}.cls-10{fill:#53a076;}</style><linearGradient id="linear-gradient" x1="157.48" y1="11.39" x2="145.15" y2="269.35" gradientUnits="userSpaceOnUse"><stop offset="0" stop-color="#fff"/><stop offset="0.01" stop-color="#fae9ea"/><stop offset="0.03" stop-color="#f2c5c7"/><stop offset="0.05" stop-color="#eba5a8"/><stop offset="0.08" stop-color="#e5898e"/><stop offset="0.11" stop-color="#e07379"/><stop offset="0.14" stop-color="#dd6269"/><stop offset="0.18" stop-color="#da575d"/><stop offset="0.24" stop-color="#d85057"/><stop offset="0.41" stop-color="#d84e55"/></linearGradient></defs><path class="cls-1" d="M251.86,120c1.39.93,2.81,1.83,4.23,2.77,11.21,7.43,24.88,18.86,24.85,38.65,0,16.64-16.67,25.11-32.07,25.28-5.52.06-10.89-1.32-16.18-2.72-5.65-1.51-11.42-2.18-17.05-3.55-11.16-2.73-22.29-.56-33.33,2.37-13.46,3.56-26.67,8.48-40.53,9.78-32.34,3-58.42-12.71-82.48-31.91C37.61,143.39,18,118.6,23.66,89.13c4.71-24.7,30-33.08,52.1-28.28,18.37,4,34.82,13.41,53.75,15.74,12.65,1.55,26.06.13,37-6.44,4.56-2.74,8.57-6.3,13-9.29,11.22-7.63,25.93-9.66,38.2-3.09,11,5.88,17.56,18.13,19.17,30.5,1,8,2,16.21,6.22,23.29C245.27,115.28,248.45,117.76,251.86,120Z"/><path class="cls-2" d="M106.94,45.23c.35-2.26.63-4.53.92-6.78.93-7,2.14-14.28,6-20.32,3.55-5.55,9.57-10.07,16.28-10.62a37.38,37.38,0,0,1,5.89.12c1.19.09,2.39.18,3.57.37a29.81,29.81,0,0,1,11,4.44,89.77,89.77,0,0,1,9.09,6.19c5.31,4.28,8.93,10.3,8.4,17.29a59.87,59.87,0,0,1-2.35,11c-1.81,6.79-5,15.6-4.21,22.67A25.17,25.17,0,0,0,164,77.49a14.52,14.52,0,0,1,1.3,6.76c0,3.74-.62,7.71-3.09,10.51-2.92,3.3-7.89,4.23-12.17,3.18s-8-3.8-11.08-6.9-7.24-7.77-12-8.06c-4.91-.29-10.61,2.89-14,6.16-3.21,3.07-3.55,7.29-6.55,10.55a9.76,9.76,0,0,1-7,3.33,9.23,9.23,0,0,1-3-.56c-5.49-1.93-10.79-9.59-11-15.35a14.78,14.78,0,0,1,3-9.24c4.34-6,10.27-10.4,13.92-17C104.92,56.08,106.11,50.7,106.94,45.23Z"/><path class="cls-3" d="M183.87,145.42a36.23,36.23,0,0,0,9,4.71c3.13,1.07,5.27,2.44,8.79,2.1.77-.07,2.37-.64,3.08-.09,1.83,1.42-1.66,8.59-3.61,9.16a6.69,6.69,0,0,1-2.92,0c-8.72-1.33-17.44-2.77-25.93-5.43-5.63-1.77-7.73-1.84-10.06-5.85-1.75-3-3.84-5.84-5.84-8.69-1.71-2.45-3.36-4.94-5.13-7.34-1.42-1.92-3.34-3.83-3.6-6.33-.33-3.27,3.34-6,5.26-8.2,2.28-2.63,4.46-5.5,5.26-9-.14.64,1.22,2.68,1.51,3.31.54,1.18,1.08,2.35,1.64,3.51,1.14,2.4,2.3,4.79,3.5,7.16s2.42,4.73,3.68,7.07c1,1.86,1.9,4.44,3.63,5.73a25.33,25.33,0,0,0,2.66,1.56,33.63,33.63,0,0,1,3.36,2.34C180.09,142.64,182,144.09,183.87,145.42Z"/><path class="cls-4" d="M160.55,142.46c.14-.76.29-1.51.45-2.27,1.46-6.63,3.42-14.48,2.26-21.28-1.45-8.5-8.2-15.12-11-23.28-2-5.81-2.19-13-6.93-17.54C141.06,74,132,75.72,126.55,76.2c-1.91.17-3.38-.61-5.13-.63-2,0-4.4,1-6.37,1.33-7.27,1.3-15.28,2.52-20.46,8.29-5.93,6.6-4.83,18.21-4.32,26.46q1.35,22,3.64,44a71.18,71.18,0,0,1,.6,12.37,34.85,34.85,0,0,1-2.86,11.62c-.61,1.38-1.59,2-.26,3.16A19.42,19.42,0,0,0,95.55,185c6.62,3.14,16.1,5.57,23.31,6.69,14.92,2.34,27.36.14,42.12-2.66A17.2,17.2,0,0,0,164.4,188c.57-.3-.07-4.86-.31-6.36a78.32,78.32,0,0,0-2.16-8.26A68.86,68.86,0,0,1,160.55,142.46Z"/><path class="cls-3" d="M127.49,63.34a14.62,14.62,0,0,1-4,9.45,16.54,16.54,0,0,1-3.62,2.78c-.33.18-3.81,1.79-4,1.45.69,1.64,2.21,2.74,3.59,3.87a34,34,0,0,1,7.33,8.4c1.53,2.46,2.76,5.16,4.73,7.28a11.82,11.82,0,0,0,9.37,3.77c3-.24,6.63-.18,7.45-3.84a10.65,10.65,0,0,0-.86-5.89c-1.31-3.54-4-7.08-4.42-10.88a10.36,10.36,0,0,1,.44-3.57l.78-3.23c.29-1.19.52-1.25-.47-1.78-1.71-.91-3.58-1.45-5.26-2.47-1.9-1.15-3.52-3.4-5.18-4.94l-3.54-3.28c-.07-.06-2.4-2.54-2.34-1.26A28.57,28.57,0,0,1,127.49,63.34Z"/><path class="cls-5" d="M130.51,28.71c-3,4.38-4.39,9.64-5.47,14.77-.79,3.81-1.22,7.85-.23,11.67,1.07,4.12,4.06,7.26,6.71,10.46a39.13,39.13,0,0,0,5.34,5.65,11,11,0,0,0,2.2,1.45,9.69,9.69,0,0,0,6.07.7c2.05-.42,3-1.42,4.4-2.92,3.93-4.28,8.29-8.51,10.44-14a39.19,39.19,0,0,0,2.81-17.92c-.36-4.83-.44-11-3.79-14.78C156.06,20.45,148.06,21,144,21,135.76,20.92,130.51,28.7,130.51,28.71Z"/><path class="cls-5" d="M126.18,50.73a3.54,3.54,0,0,1-4.82.68c-2.84-1.82-3.81-7.23-2.44-11.2a5.84,5.84,0,0,1,3.7-3.88,3.79,3.79,0,0,1,4.68,2.17Z"/><path class="cls-6" d="M246,186.65l-5.27-.72-.11-86.13a13.15,13.15,0,0,0-26.3,0v6.78h-5.39V99.8a18.54,18.54,0,1,1,37.07,0Z"/><path class="cls-7" d="M214.54,106.24h-5.8a.84.84,0,0,0-.83.69l-1,5.36a.85.85,0,0,0,.83,1h7.83a.85.85,0,0,0,.83-1l-1-5.36A.85.85,0,0,0,214.54,106.24Z"/><path class="cls-3" d="M207.42,149.4a40.15,40.15,0,0,1,14.06-.65c2,.32,3.24,2.1,1.79,3.7-1.06,1.17-6.14.65-2.51,3.05,1.71,1.12,5.26.47,7.19.23.82-.1,3.89-1.25,3.76.41a2.35,2.35,0,0,1-.61,1.19,2.53,2.53,0,0,1,1.27-.35c.45,0,.89.42.82.86a1,1,0,0,1-.18.42c-1.82,2.87-5.65,3.83-8.76,4.68-2.35.65-5.14,1.55-7.61,1.44a64,64,0,0,1-18.19-3.29c.46-2.71-.3-4.69,0-7.23A17.8,17.8,0,0,1,207.42,149.4Z"/><path class="cls-8" d="M216.82,168.58a4.39,4.39,0,0,1-1,.87,9.22,9.22,0,0,1-4.13,1.17,11.31,11.31,0,0,1-9.94-4.72,2.76,2.76,0,0,1-.64-2.48,3.9,3.9,0,0,1,1-1.27c2.92-2.86,2.76-6.46,2.11-10.25a20.09,20.09,0,0,1-.59-4.93,16,16,0,0,1,1.28-4.48c2.24-5.43,2.41-11.61,3.4-17.33.19-1.11.73-11.85.89-11.86a9,9,0,0,1,.91,0c1.28,0,2.4,0,3.67,0a94.75,94.75,0,0,0,.91,12.48c.25,2,.6,4,.73,6a18.6,18.6,0,0,0,.77,5.5,17.81,17.81,0,0,1,1.22,6.46c-.09,3-1.56,6.11-.68,9a13.58,13.58,0,0,0,2.57,4.14,8.19,8.19,0,0,1,2,4.37c.09,1.63-1,3.43-2.65,3.54a1.1,1.1,0,0,0-.84.23c-.19.22-.12.55-.09.85A3.54,3.54,0,0,1,216.82,168.58Z"/><path class="cls-9" d="M208.68,135.93a.53.53,0,0,1-.23-.28,1.18,1.18,0,0,1,0-.56l1.33-8.21c.25-1.52.42-3,.57-4.57.13-1.32.18-2.57.41-3.89a48.6,48.6,0,0,1-.84,14.38,8.39,8.39,0,0,1-.68,2.81c-.08.16-.2.33-.38.35A.38.38,0,0,1,208.68,135.93Z"/><path class="cls-9" d="M214.48,146.26a.24.24,0,0,1-.14,0,.5.5,0,0,1-.14-.39c-.1-2.12.38-4.27-.06-6.33-.22-1.06-.68-2.05-1-3.09a26.81,26.81,0,0,1-.68-6.8c0-.3,0-3,.44-2.91a.19.19,0,0,1,.11.09,2,2,0,0,1,.21,1.18c0,.93-.09,1.85-.09,2.78a17.31,17.31,0,0,0,.68,5.21c.25.8.6,1.57.87,2.37a13,13,0,0,1,.26,7.38C214.91,146,214.7,146.27,214.48,146.26Z"/><path class="cls-5" d="M194.25,162.26l2.8-.77a12.49,12.49,0,0,1,7.63-.29l4.36.86c.51.1,1.11.29,1.22.79a.87.87,0,0,1-.09.57c-.4.84-1.48,1.06-2.41,1.12a23.55,23.55,0,0,1-4.52-.14c-.45-.06-1.07,0-1.14.43s.34.62.67.77c3.84,1.74,8.95,2.9,13.17,2,1.6-.35,3.14-1,4.79-1.31,1.18-.21,3.4-.73,4.3.39s.05,2.4-1.69,3.34c1.19-.13,2,.53,1.78,1.46-.29,1.52-2.1,2.28-4.8,2.58,1.77,0,2.22,1.74,0,2.72-2.48,1.08-9.61,1.25-10.68,1.24-7,0-16.34-2.59-19.89-9.2a19.33,19.33,0,0,0-1.72-3c-.22-.28-1.08-.82-1.14-1.14-.11-.55.85-.56,1.33-.7Z"/><path class="cls-5" d="M108.12,136.11c2.92,4.46,6.26,8.64,9.59,12.8,5.38,6.72,10.36,15.15,17.48,20.05a53,53,0,0,0,9.69,5.25,15.51,15.51,0,0,0,4.58,1.47q3.12.27,6.24.46a129.06,129.06,0,0,0,24.39-.4c4.45-.57,8.88-1.48,13.37-1.6a5.63,5.63,0,0,0,2.74-.49c2.19-1.25.44-5-.43-6.59-1.1-2.06-2.93-2.8-5.2-2.92a244.3,244.3,0,0,1-28.28-3.24,24.21,24.21,0,0,1-6.72-1.86c-2.76-1.36-4.91-3.67-6.91-6a178,178,0,0,1-15-20.68c-2.29-3.6-4.5-7.25-6.7-10.92-.86-1.43-1.51-3.29-3-4-1.69-.85-3.81-.07-5.48.42a23.65,23.65,0,0,0-7.92,4.22c-3.38,2.69-7.12,6.15-4.6,10.52C106.63,133.76,107.36,135,108.12,136.11Z"/><path class="cls-10" d="M102.58,133.53A28.89,28.89,0,0,1,128,117.26c.09-1.25-1.4-2-2.62-2.19a24.21,24.21,0,0,0-19.66,4.79,36.1,36.1,0,0,0-3.62,3.37,51.36,51.36,0,0,1-8.75-17.85,16.41,16.41,0,0,0,.4,6.64C95.29,120,97.2,127.46,102.58,133.53Z"/><path class="cls-2" d="M150.65,30.72c.92-.71,1.8-1.42,2.64-2.09a23.94,23.94,0,0,0,6.83-7.7c-.12.24-12.45-1.46-13.72-1.51a66.73,66.73,0,0,0-11.42.87,7.92,7.92,0,0,0-3.82,1.2,7.86,7.86,0,0,0-2.25,3.09c-2.07,4.25-7.07,14.15.89,15C137.23,40.39,144.68,35.35,150.65,30.72Z"/><path class="cls-2" d="M160.83,27.22a33.93,33.93,0,0,1,.43,8.37c-.11,5.36.2,10.81,2,15.87-.09-.24,1.16-1.94,1.32-2.26a24.29,24.29,0,0,0,1-2.39,11.84,11.84,0,0,0,1.07-4.1,37.31,37.31,0,0,0-1.13-11.14,28,28,0,0,0-4.78-9.84c-.65-.85-2.14-3-3.55-2.08-.84.55.27,1.75.71,2.24A12,12,0,0,1,160.83,27.22Z"/><path class="cls-8" d="M220.25,154.12a1.78,1.78,0,0,0,1.94-1.33,1.75,1.75,0,0,0-.06-.82,2.36,2.36,0,0,0-.85-1.2c-.24-.18-.5-.31-.74-.49-.65-.49-1.16-1.63-2.08-1.66a1.28,1.28,0,0,0-1.28,1.39C217.18,151.53,218.67,153.94,220.25,154.12Z"/><path class="cls-8" d="M200.29,158.35a2.35,2.35,0,0,0-.24.37,1.38,1.38,0,0,0,.21,1.48c.8.84,2,0,2.44-.76a6.26,6.26,0,0,0,.64-3.44,1.49,1.49,0,0,0-.21-.77c-.33-.39-.7,0-.94.32-.6.7-.93,1.59-1.51,2.32C200.56,158,200.41,158.18,200.29,158.35Z"/><path class="cls-9" d="M204.61,148.09a.55.55,0,0,0,.07.31c.13.2.48.14.62-.05a1.15,1.15,0,0,0,.16-.71c0-.72.25-2-.09-2.62A5.55,5.55,0,0,0,204.61,148.09Z"/><path class="cls-9" d="M201,158.33c-.05,0-.1.12-.08.18s.09.09.16.08a.35.35,0,0,0,.15-.12,4.45,4.45,0,0,0,.6-1.44A3.57,3.57,0,0,1,201,158.33Z"/><path class="cls-2" d="M149.12,43.57a22,22,0,0,0-3-.82c-2.15-.48-4.56-.37-6,1.52a11.62,11.62,0,0,0,1.93-.21c2.22-.24,4.49.81,6.43,1.76a2.45,2.45,0,0,0,1.32.37.89.89,0,0,0,.74-.59,1.79,1.79,0,0,0,.12-1.22C150.46,44,149.52,43.72,149.12,43.57Z"/><path class="cls-2" d="M162.12,47.09a1.54,1.54,0,0,1-.48,0,17.24,17.24,0,0,0-5,.22.81.81,0,0,1-.41,0,.74.74,0,0,1-.34-.43c-.16-.42-.27-1.13.1-1.42a4.1,4.1,0,0,1,1.62-.51,7.78,7.78,0,0,1,3.46.11,3,3,0,0,1,.82.34,1.62,1.62,0,0,1,.69,1.18.58.58,0,0,1,0,.32A.48.48,0,0,1,162.12,47.09Z"/><path class="cls-9" d="M219.89,153.07a.38.38,0,0,0-.11-.24l-.32-.45c-.15-.2-.31-.38-.47-.57s-.17-.23-.29-.22-.13.25-.1.36a2.24,2.24,0,0,0,.93,1.13.34.34,0,0,0,.23.08C219.85,153.15,219.89,153.12,219.89,153.07Z"/></svg>