<svg id="Layer_1" data-name="Layer 1" xmlns="http://www.w3.org/2000/svg" xmlns:xlink="http://www.w3.org/1999/xlink" viewBox="0 0 300 200"><defs><style>.cls-1{fill:none;}.cls-2{opacity:0.84;fill:url(#linear-gradient);}.cls-3{clip-path:url(#clip-path);}.cls-4{fill:#72bf98;}.cls-5{fill:#fcefd4;}.cls-6{fill:#fff;}.cls-7{fill:#f0966a;}.cls-8{fill:#faa87d;}.cls-9{fill:#12174a;}.cls-10{fill:#53a076;}.cls-11{fill:url(#linear-gradient-2);}.cls-12{fill:url(#linear-gradient-3);}.cls-13{fill:#f1f2f2;}.cls-14{fill:#b5b6b6;opacity:0.28;}.cls-15{fill:#27aae1;}</style><linearGradient id="linear-gradient" x1="147.4" y1="-59.46" x2="158.48" y2="267.15" gradientUnits="userSpaceOnUse"><stop offset="0" stop-color="#fff"/><stop offset="0.01" stop-color="#fae9ea"/><stop offset="0.03" stop-color="#f2c5c7"/><stop offset="0.05" stop-color="#eba5a8"/><stop offset="0.08" stop-color="#e5898e"/><stop offset="0.11" stop-color="#e07379"/><stop offset="0.14" stop-color="#dd6269"/><stop offset="0.18" stop-color="#da575d"/><stop offset="0.24" stop-color="#d85057"/><stop offset="0.41" stop-color="#d84e55"/></linearGradient><clipPath id="clip-path"><circle class="cls-1" cx="143.93" cy="99.3" r="94.7"/></clipPath><linearGradient id="linear-gradient-2" x1="126.15" y1="129.08" x2="198.84" y2="129.08" gradientUnits="userSpaceOnUse"><stop offset="0" stop-color="#fcac86"/><stop offset="1" stop-color="#fdbd9e"/></linearGradient><linearGradient id="linear-gradient-3" x1="-234.09" y1="-390.86" x2="-238.27" y2="-380.82" gradientTransform="translate(463.51 378.15) rotate(-20.63)" xlink:href="#linear-gradient-2"/></defs><path class="cls-2" d="M265,92.7a61.82,61.82,0,0,0,5,8.39c3.59,5.3,9.47,10.46,10.81,16.8a23.5,23.5,0,0,1-4.28,18.47c-5.32,7.27-13.9,11.56-22.65,13.75-6.49,1.63-13.21,2.24-19.7,3.89-16.21,4.1-24.33,15-37.34,23.74A95.43,95.43,0,0,1,143.93,194c-29.79,0-55.46-16.63-81.35-29.39-18.25-9-38.11-27.48-36.83-49.6,2.94-50.6,71.67-33.49,102.94-43.12C141,68.08,150.08,58.58,159.61,50.4c11.11-9.52,20.65-13.42,35.58-11.94,9.3.92,18.15,2.19,27.52,1.78,14.12-.61,22.66-17,38.13-12a21,21,0,0,1,13.54,13.88c1.66,5.66.81,11.79-1,17.41C269.65,71.22,259,80,265,92.7Z"/><g class="cls-3"><path class="cls-4" d="M111.3,149.27a62.72,62.72,0,0,1,2.4,7,61.3,61.3,0,0,1,1.81,21.32c-.65,7-4,14.9-3.82,21.85.12,4.06,1.76,3.41,6.12,3.72a71.33,71.33,0,0,0,12-.31,141.4,141.4,0,0,0,31.62-7.38c7.81-2.68,21.21-5.5,26.82-12,2.93-3.39.42-9.9-.36-13.73-2.16-10.67-2.63-21.67-8.87-30.85-1.32-2-2.83-3.87-3.31-6.18s.46-5.12,2.7-5.84a51.29,51.29,0,0,1,20.43,14c3.13-6.76,6.79-13.31,8.95-20.44s2.7-15.07-.39-21.85A18.73,18.73,0,0,0,194.6,88.1c-3-.6-4.77-.37-7.53-1.74-3.06-1.52-6.23-2.79-9.33-4.22C175.38,81,173,80,170.58,79c-1-.38-2.64-1.31-3.81-1.22a15.62,15.62,0,0,1-2.49-2c-1.54-1.92-3.15-3.79-4.83-5.58a3.85,3.85,0,0,0-2.06-1.41,3.71,3.71,0,0,0-1.94.38l-.07,0c.08.15.17.29.26.43,1.26,1.86.72,1.58-.41,3.38-1.27,2-2.12,4.44-3.23,6.57a87.81,87.81,0,0,1-7.74,12.55c-2,2.7-4.44,5.36-7.65,6.46s-7.37,0-8.74-3,.5-7-.62-10.24c-4.23,1.41-8.37,3-12.55,4.57-3.44,1.27-6.28,2-9.33,4.38-6,4.59-8,11.28-9.45,18.4a108.44,108.44,0,0,0-1.83,12.93q-.25,3.3-.33,6.6c0,1.08,0,2.16,0,3.23a15.47,15.47,0,0,0,0,2.15c.1.56,1.11,1,1.65.93a2.09,2.09,0,0,0,.14-1.06c0-1.16,1.27-1.83,2.25-2.14a14.29,14.29,0,0,1,3.51-.49l2.51-.14c1.31-.07,2.85,0,3.63,1a3.94,3.94,0,0,1,.57,1.53c.67,3,1,6.31,2.18,9.16C110.54,147.38,110.93,148.32,111.3,149.27Z"/><path class="cls-5" d="M169.4,47.83A8.08,8.08,0,0,1,165.35,53l-.32-.08a31.45,31.45,0,0,0,.65-3.46,2.32,2.32,0,0,0-.21-1.63.77.77,0,0,0-.17-.19c.23-.77.44-1.55.62-2.33l.22.05a21,21,0,0,0,.31-9.11l.25,0a3.69,3.69,0,0,1,2.15,2.25,11.69,11.69,0,0,1,.61,3.23A20.13,20.13,0,0,1,169.4,47.83Z"/><path class="cls-6" d="M156.59,70.61l0,.25a3,3,0,0,1-.28.94l-.19-.09c-.18-.67-.35-1.35-.53-2a3,3,0,0,0,.41.52A2.41,2.41,0,0,0,156.59,70.61Z"/><path class="cls-7" d="M160,74.66l.16.13c-2.93,3.57-5.54,7.39-8.4,11a32.53,32.53,0,0,1-9.28,8.53,15.91,15.91,0,0,1-12.21,1.76A7.8,7.8,0,0,1,126,93.23a7.47,7.47,0,0,1-.44-6.68,11.47,11.47,0,0,1,3-4.68,12.73,12.73,0,0,0,3.57-3.94c.46,0,.7.53.94.92.7,1.14,2.31,1.29,3.61,1a13.48,13.48,0,0,0,3.37-1.42c1.88-1.06,3.67-2.27,5.45-3.48l4.08-2.77a25.59,25.59,0,0,0,6.61-5.72c.6-.83,1.21-1.82,2.21-2-.35.08,1.19,6.78,1.35,7.39,0,.09.05.18.08.28a4.42,4.42,0,0,0,.15.48C160,73.26,160,74,160,74.66Z"/><path class="cls-8" d="M162.53,48.73l.07-.29a2.75,2.75,0,0,1,1.34-1.07,1.44,1.44,0,0,1,1.36.26.77.77,0,0,1,.17.19,2.32,2.32,0,0,1,.21,1.63,31.45,31.45,0,0,1-.65,3.46,29.9,29.9,0,0,1-.88,2.93A7.54,7.54,0,0,1,163,58.15a2.93,2.93,0,0,1-2,1.15l-.13.52.14,0c-.5,2.33-1.92,4.62-2.93,6.8a12.73,12.73,0,0,1-3.66,5,38.4,38.4,0,0,1-1-4.51,13.53,13.53,0,0,0-.46-4.28,11,11,0,0,0,2.44-2,15.55,15.55,0,0,0,2.3-3.27c.62-1.22.95-2.55,1.5-3.81a20.32,20.32,0,0,1,1.06-2c.33-.58.67-1.16,1-1.74a11.51,11.51,0,0,0,.82-1.39Z"/><path class="cls-9" d="M161.74,47.56A2.76,2.76,0,0,0,160,49.78c-.2.76-.53,1.63-1.29,1.84A1.84,1.84,0,0,1,157,51c-.45-.43-.79-1-1.27-1.35-1-.76-2.58-.43-3.71-.47a20.9,20.9,0,0,1-4.38-.6,18.1,18.1,0,0,1-7.45-3.77c-2.39-2-4.22-4.65-6.48-6.83s-5.2-4-8.33-3.74c-4.79,4.78-.82,12.89-.89,18.6-.08,7.17,1.18,13.74,5.25,19.87,1.14,1.71,2.51,3.66,1.9,5.63-1.43,4.62-10.19,3.8-13.82,4.14l-5.44.52c-1.42.14-3.15.68-4.17-.66a3.59,3.59,0,0,1-.65-2.09,7.21,7.21,0,0,1,3-5.8,19.27,19.27,0,0,0,3.19-2.62c2.39-2.8,3-8.08,2.9-11.62-.28-6.94-2.86-12.9-1.64-19.95.66-3.8,2.71-6.84,4.79-9.9.8-1.16,1.6-2.33,2.33-3.55a52.06,52.06,0,0,1,7.16-8.21,17,17,0,0,1,9.31-4.37,8.4,8.4,0,0,1,3.5-.6c4.93-1.37,10.64-1.31,15.06,1.5,6.88,4.37,11.24,12.44,14,19.87s3.43,15.59,7.09,22.69C182.8,66.45,197,70,197.51,80.56a13.39,13.39,0,0,1-4.27,10.17c-3.15,3.08-7.63,4.4-11.62,6.17a21.27,21.27,0,0,1-5,1.74c-4.56.75-9.22-1.67-12.16-5.24s-4.4-8.12-5.32-12.65a41.24,41.24,0,0,1,.81-20.64.46.46,0,0,1,.11-.22.62.62,0,0,1,.35-.12c4.17-.48,4.38-6.11,4.31-9.26a3.93,3.93,0,0,0-.84-2.88C163.36,47.17,162.53,47.31,161.74,47.56Z"/><path class="cls-8" d="M122.46,60.13c-.08-.5-.15-1-.2-1.52a102.59,102.59,0,0,1-.8-11.38A30.63,30.63,0,0,1,123,37c.26-.79.5-2.27,1.21-2.81,1.52-1.15,5.07.18,6.52.92a21.86,21.86,0,0,1,3.62,2.51,56.15,56.15,0,0,1,5.71,5.08c1.7,1.79,3.29,3.77,5.44,5a13.36,13.36,0,0,0,7.54,1.61,16.7,16.7,0,0,0,3.61-.59,2,2,0,0,1,2.39,1.46,1,1,0,0,0,.13.38.28.28,0,0,0,.34.13.32.32,0,0,0,.16-.18,8.74,8.74,0,0,0,.43-1.71c.33-1.14,2.23-3,3.49-1.94a1.35,1.35,0,0,1,0,1.77c-.35.5-1,.74-1.31,1.22a12.93,12.93,0,0,0-1,2.13l-2.09,4.44a29.16,29.16,0,0,0-3.08,8.84,28.53,28.53,0,0,1-.47,3.81c-.62,2.35-3.25,4-5,5.47-2.87,2.39-5.78,4.81-9.22,6.27a8.93,8.93,0,0,1-4.24.84,7.27,7.27,0,0,1-2.88-1,17.24,17.24,0,0,1-5.2-5A34.88,34.88,0,0,1,122.46,60.13Z"/><path class="cls-9" d="M127.8,53.35h-.19a8.49,8.49,0,0,1-1.86-.42l-1.9-.57a2,2,0,0,0-1.95.25c-1.23,1.06,2.38,1.85,3,2l3.33.75a3.23,3.23,0,0,0,1,.11,1,1,0,0,0,.83-.54c.25-.54-.21-1.17-.76-1.38A5.06,5.06,0,0,0,127.8,53.35Z"/><path class="cls-9" d="M144.14,52.81l-3.64.29a14.4,14.4,0,0,0-1.61.17c-.5.09-1,0-1.53.06-.75.06-2,.71-1.38,1.64a1.26,1.26,0,0,0,1,.53,3.54,3.54,0,0,0,1.16-.16c2.11-.54,4.19-1.28,6.32-1.73.29-.06.66-.25.59-.53a.41.41,0,0,0-.2-.23,1.17,1.17,0,0,0-.56-.06Z"/><path class="cls-10" d="M180.76,118.62a7,7,0,0,0,.68.64c2.83,2.34,6.22,3.85,9.41,5.65s6.32,4,8.05,7.26a11.77,11.77,0,0,1,1.41,5.5,2.82,2.82,0,0,1-1,2.59c-1.28.74-2.75-.53-3.73-1.64a54.08,54.08,0,0,0-5.44-5.37c-1.85-1.6-4.08-3.15-6.52-2.92a1.34,1.34,0,0,0-1.09.51,1.66,1.66,0,0,0-.15.94c.26,4.74.73,9.56,1.2,14.21.08.79-.35,1.79-1.15,1.74-.53,0-.89-.52-1.19-1-2.58-3.89-5.21-7.89-6.25-12.44-.91-3.93.06-9,.53-13a79.5,79.5,0,0,1,2.58-12.87,28.17,28.17,0,0,1,3.06-7.61,2,2,0,0,1,1.42-1.1c-1,.06-2.47,9.59-2.61,10.73C179.55,113.62,178.68,116.33,180.76,118.62Z"/><path class="cls-10" d="M108.16,138.62c.27,0,.45-.06.45-.23,0-6.68,0-13.44,1.56-19.93a5.81,5.81,0,0,0,.25-2.44,7.46,7.46,0,0,0-1.16,1.36,25.06,25.06,0,0,0-1.16,2.46,29.89,29.89,0,0,0-1.5,5.22,74.9,74.9,0,0,0-1.06,11,2.71,2.71,0,0,0,.39,1.89A5.37,5.37,0,0,0,108.16,138.62Z"/><path class="cls-11" d="M185.59,125.93a50,50,0,0,0-4.93-2.28,2.17,2.17,0,0,0-1.11-.22c-.63.11-1,.72-1.33,1.28L172,135.9a2.75,2.75,0,0,1-1.1,1.25c-1.14.53-2.31-.65-3-1.7-10.66-15.71-21.77-31-33.2-46.2l-8.5,5.66a316,316,0,0,0,15.18,38.34c5.37,11.33,11.68,24.87,21.91,32.69,1.61,1.24,4.18,3.43,6.29,2.89,2.65-.68,5-2.72,6.95-4.53a124.13,124.13,0,0,0,10.76-11.81l10.65-12.75c1.77-2.12.86-4.06-.94-5.74A52.41,52.41,0,0,0,185.59,125.93Z"/><path class="cls-12" d="M117.17,95a2.26,2.26,0,0,0-.59.23A5,5,0,0,0,115,96.76a164.38,164.38,0,0,0-14.1,22.65C96.75,127.54,92.5,136,90.62,145c-1.7,8.2-1.66,29.9,12.22,20,6.5-4.64,8.84-12.06,10.35-19.51q3-14.72,5.39-29.53c.55-3.35.91-6.73,1.44-10.07.43-2.76,2.09-5.43,1.15-8.29C120.63,96,118.8,94.61,117.17,95Z"/><path class="cls-13" d="M139.58,119.37l-.5-.1c-6.92-1.3-12.24,1.33-18.85,1.92-2.26.2-4.58-.39-6.77.1-2.92.65-5.81,2.94-8.32,4.47-3.4,2.06-7,4-11,4.51s-8.37-1-10.39-4.38c-2.77-4.69-.12-10.61,2.55-15.35q6.42-11.4,13.15-22.62c2.1-3.5,4.28-7,6.3-10.53,1.32-2.33,3.29-4.68,4.23-7.24C111.5,66.16,122.78,61,131,62c6.57.79,11.14,5.53,7,18-2,6.12,3.4,12.51,7.39,16.48a55.32,55.32,0,0,0,8.68,7c2.59,1.7,7.23,2.71,8.8,5.43a6.58,6.58,0,0,1,.69,3.66,10.23,10.23,0,0,1-2.65,6.52c-2.66,2.75-6.9,3.34-10.69,2.82C146.61,121.45,143.16,120.1,139.58,119.37Z"/><path class="cls-14" d="M139.81,117.22c-2.68-5.53-5.15-11.39-7.37-17.11-2-5-4.12-10.76-3.65-16.26C129.38,77.05,131.94,69,131,62c6.57.79,11.14,5.53,7,18a8.47,8.47,0,0,0-.37,3.28c.46,6.18,5.77,11.59,10.16,15.43,2.58,2.27,5.46,4,8.18,6,2.27,1.71,5.91,2.49,7.1,5.33a6.59,6.59,0,0,1,.35,3.18,10,10,0,0,1-6.56,8.43,14,14,0,0,1-7.41-.1,70.74,70.74,0,0,0-7.29-1.72,2.05,2.05,0,0,1-1.1-.35,2,2,0,0,1-.45-.65Z"/><g id="phlegm"><path class="cls-15" d="M118.85,62.42c-1.16,0-2.11-.4-2.12-.93s.92-1,2.08-1a3.28,3.28,0,0,1,2.11.93A3.34,3.34,0,0,1,118.85,62.42Z"/><path class="cls-15" d="M125.89,70.8c-.68.93-1.59,1.43-2,1.11s-.23-1.33.46-2.27a3.33,3.33,0,0,1,2-1.11A3.37,3.37,0,0,1,125.89,70.8Z"/><path class="cls-15" d="M124.74,60.29c-1.07-.45-1.76-1.22-1.55-1.71s1.24-.54,2.31-.08a3.31,3.31,0,0,1,1.55,1.71A3.35,3.35,0,0,1,124.74,60.29Z"/><path class="cls-15" d="M113,65.28c-.74.15-1.4,0-1.47-.35s.47-.74,1.21-.9a2.2,2.2,0,0,1,1.47.35A2.21,2.21,0,0,1,113,65.28Z"/><path class="cls-15" d="M119.46,67.46c-.27.71-.76,1.17-1.09,1.05s-.37-.8-.1-1.51a2.21,2.21,0,0,1,1.09-1A2.18,2.18,0,0,1,119.46,67.46Z"/></g></g></svg>