<svg xmlns="http://www.w3.org/2000/svg" width="32" height="32" viewBox="0 0 32 32">
    <g fill="none">
        <path fill="#FFC864" d="M5.525 27.007C3.82 23.615 1.633 20.356.562 16.692c-.889-2.978-.719-6.501 1.841-8.623 1.813-1.506 4.128-2.12 6.204-3.171 2.45-1.264 4.85-3.102 7.72-3.118 2.001 0 3.879.9 5.671 1.792l3.955 1.96c2.086 1.038 4.316 2.213 5.345 4.306.83 1.689.715 3.687.297 5.522-.418 1.835-1.126 3.592-1.443 5.447-.49 2.9-.186 6.324-2.39 8.27-1.228 1.085-2.965 1.392-4.604 1.365-.556 0-1.117-.146-1.656-.16-.98-.022-2.008.307-3.027.294-1.03-.012-2.054-.15-3.05-.411-.429-.133-.865-.242-1.306-.327-.98-.143-1.959.072-2.939.288-.836.19-1.995.584-2.853.326-1.548-.434-2.123-2.08-2.776-3.37l-.026-.075z" opacity=".43"/>
        <g fill="#7E7E8A">
            <g opacity=".59">
                <path d="M5.698 4.268h2.126c.282.01.564.041.842.091.377.046.696.298.83.653.806 2.286 1.453 4.598 1.4 7.047-.014.864-.213 1.714-.584 2.494-.2.46-.632.774-1.13.823-2.292.319-4.617.319-6.91 0-.608-.068-1.12-.487-1.305-1.07-.429-1.146-.578-2.378-.435-3.593.208-1.852.629-3.674 1.254-5.43.242-.721.69-1.015 1.558-1.028h2.354v.013z" transform="translate(.327 6.204) translate(5.878)"/>
                <path d="M5.704 20.095c-.871 0-1.746.02-2.612 0-.477-.02-.951-.083-1.417-.19-.56-.122-1.005-.544-1.156-1.097-.186-.59-.326-1.195-.477-1.796-.012-.065-.02-.13-.026-.196-.091-.924.598-1.234 1.26-1.067 2.339.584 4.7.564 7.073.326.591-.062 1.173-.212 1.757-.326.585-.115 1.42.153 1.267 1.064-.116.697-.288 1.384-.513 2.054-.22.666-.83 1.124-1.531 1.15-.702.068-1.41.074-2.12.094-.502-.007-1.005-.02-1.505-.016zM5.698 3.703H3.964c-.653 0-.901-.245-.797-.885.105-.64.291-1.306.467-1.96.097-.284.354-.483.653-.505.926-.167 1.873-.167 2.799 0 .351.028.643.282.718.627.127.571.307 1.136.415 1.71.143.755-.088 1.01-.852 1.013-.556.003-1.114 0-1.669 0z" transform="translate(.327 6.204) translate(5.878)"/>
            </g>
            <path d="M19.523 4.268h2.126c.283.01.564.041.842.091.376.048.694.3.827.653.806 2.286 1.453 4.598 1.4 7.047-.01.864-.21 1.715-.58 2.494-.202.46-.635.774-1.134.823-2.292.319-4.617.319-6.91 0-.609-.065-1.122-.486-1.305-1.07-.432-1.146-.581-2.378-.435-3.593.205-1.852.626-3.675 1.254-5.43.242-.721.686-1.015 1.558-1.028h2.354l.003.013z" opacity=".59" transform="translate(.327 6.204)"/>
            <path d="M19.527 20.095c-.872 0-1.744.02-2.613 0-.477-.02-.951-.083-1.417-.19-.558-.123-1.002-.545-1.153-1.097-.189-.59-.326-1.195-.48-1.796-.012-.064-.02-.13-.022-.196-.095-.924.597-1.234 1.257-1.067 2.338.584 4.702.564 7.072.326.591-.062 1.173-.212 1.76-.326.588-.115 1.418.153 1.264 1.064-.115.697-.286 1.384-.513 2.054-.22.666-.83 1.124-1.531 1.15-.702.068-1.41.074-2.116.094-.506-.007-1.006-.02-1.508-.016zM19.523 3.703H17.79c-.653 0-.904-.245-.796-.885.107-.64.29-1.306.463-1.96.097-.283.354-.482.653-.505.926-.167 1.873-.167 2.799 0 .351.028.643.282.718.627.127.571.307 1.136.415 1.71.143.755-.088 1.01-.852 1.013-.556.003-1.11 0-1.666 0z" opacity=".59" transform="translate(.327 6.204)"/>
            <path d="M5.72 4.96h2.127c.282.008.564.038.842.091.377.045.697.297.83.653.803 2.286 1.452 4.595 1.397 7.044-.011.864-.21 1.715-.581 2.494-.201.46-.635.774-1.133.823-2.293.332-4.62.342-6.916.03-.611-.065-1.125-.488-1.306-1.075C.55 13.875.405 12.643.555 11.43c.204-1.855.625-3.68 1.254-5.437.242-.719.686-1.016 1.558-1.029H5.72V4.96z" transform="translate(.327 6.204)"/>
            <path d="M5.724 20.787c-.872 0-1.744.02-2.612 0-.477-.02-.952-.083-1.417-.19-.559-.123-1.003-.545-1.153-1.097-.19-.59-.326-1.195-.48-1.796-.013-.064-.02-.13-.023-.195-.098-.934.594-1.245 1.267-1.078 2.338.585 4.702.568 7.073.327.59-.062 1.172-.213 1.76-.327.588-.114 1.417.15 1.267 1.061-.118.697-.29 1.384-.516 2.054-.219.667-.83 1.126-1.532 1.15-.702.068-1.41.075-2.116.094-.515.007-1.015-.003-1.518-.003zM5.72 4.398H3.988c-.653 0-.905-.241-.797-.885.108-.643.29-1.306.464-1.959.098-.29.363-.492.67-.51.925-.166 1.872-.166 2.798 0 .35.03.64.284.715.628.13.575.307 1.136.418 1.71.14.755-.092 1.01-.856 1.013l-1.678.003zM25.56 4.944h2.127c.282.01.564.041.842.091.376.046.696.298.83.653.806 2.286 1.452 4.598 1.4 7.047-.014.864-.213 1.714-.584 2.494-.192.46-.618.78-1.114.836-2.292.32-4.617.32-6.91 0-.609-.065-1.122-.486-1.305-1.07-.432-1.146-.58-2.378-.435-3.593.203-1.85.618-3.671 1.238-5.426.242-.722.689-1.016 1.558-1.03h2.354v-.002z" transform="translate(.327 6.204)"/>
            <path d="M25.564 20.767c-.872 0-1.744.023-2.612 0-.479-.02-.954-.086-1.42-.196-.559-.123-1.003-.545-1.153-1.097-.186-.59-.327-1.198-.48-1.796-.013-.064-.02-.13-.023-.196-.092-.924.597-1.234 1.257-1.07 2.341.587 4.702.568 7.076.326.591-.062 1.172-.212 1.757-.327.584-.114 1.417.154 1.267 1.065-.119.697-.29 1.383-.513 2.054-.22.665-.831 1.123-1.531 1.15-.702.068-1.414.074-2.12.094-.5.006-1.002-.007-1.505-.007zM25.56 4.379h-1.733c-.653 0-.901-.245-.797-.885.105-.64.29-1.306.464-1.96.098-.283.354-.482.653-.505.925-.167 1.873-.167 2.798 0 .35.033.635.292.702.636.131.572.327 1.137.418 1.711.14.755-.088 1.01-.852 1.013-.539-.007-1.09-.01-1.652-.01z" transform="translate(.327 6.204)"/>
        </g>
        <path fill="#F89980" d="M20.692 12.702L20.996 13.933 19.984 13.933z"/>
        <path fill="#FFAA8A" d="M11.487 12.385l-.418 1.884s1.793-.068 1.79-.153c-.003-.085 0-1.326 0-1.326l-1.372-.405z"/>
        <path fill="#F89980" d="M14.854 8.584c1.16.072 2.586.203 3.422-.711-.434-.158-.85-.36-1.244-.601-.196-.281-.19-1.362-.19-1.362l-.77.043-.816-.04s.075 1.098-.108 1.385c-.118.183-.787.421-1.46.699.304.331.719.54 1.166.587z"/>
        <path fill="#182644" d="M19.223 21.352c0-.901.03-1.747.042-2.501-.792.09-1.593.06-2.377-.089-1.318-.34-2.669-.54-4.03-.597.07 2.92.141 7.089.22 11.278-.012.102-.012.205 0 .307 0 .066 0 .056.075.056h.176c.597-.005 1.19.083 1.76.26h.042c-.004-.094-.004-.189 0-.283l.02-.239.617-8.035H16.336l.644 8.205c.02.252 0 .5.032.751.313.066.631.104.95.111h1.039c.018.004.037.004.055 0 .066-.036.02-.202.02-.264v-.506-.944-.617c.065-2.322.108-4.767.147-6.893z"/>
        <path fill="#FFAA8A" d="M13.887 3.226s-.026-.29-.372-.225c-.346.065-.375.496-.326.718.163.568.326.803.437.846.219.098.3-.069.3-.069s-.052-.457-.058-.62c-.007-.163.02-.65.02-.65z"/>
        <path fill="#F89980" d="M13.332 3.376c.035-.128.155-.214.288-.206.132.008.241.108.26.239V4.372c-.375-.091.04-1.13-.548-.996z"/>
        <path fill="#FFAA8A" d="M18.286 3.226s.023-.29.369-.225c.346.065.378.496.326.718-.166.568-.326.803-.437.846-.222.098-.3-.069-.3-.069s.048-.457.055-.62c.006-.163-.013-.65-.013-.65z"/>
        <path fill="#F89980" d="M18.831 3.376c-.032-.13-.152-.22-.286-.211-.134.008-.243.11-.26.244V4.372c.376-.091-.038-1.13.546-.996z"/>
        <path fill="#FFAA8A" d="M13.842 2.779s-.085 1.874.209 2.498c.318.484.733.897 1.218 1.214.422.2.905.228 1.348.082.356-.219 1.09-.624 1.306-.944.252-.405.379-1.71.379-1.71.003-.033.003-.066 0-.099l.056-1.384c.006-.048.006-.096 0-.144-.268-.96-1.053-1.69-2.031-1.887l-.089-.02c-.778-.143-1.569.183-2.02.833-.016.026-.029.053-.04.082l-.212.548c-.014.04-.023.08-.03.121l-.085.699c-.006.036-.01.074-.01.11z"/>
        <path fill="#4C2E26" d="M17.708.36c-.082-.033-.164-.07-.248-.096-.651-.208-1.343-.252-2.015-.127-.523.115-1.051.2-1.584.252-.072 0-.144.013-.212.039-.232.101-.137.401-.153.594 0 .14-.04.287-.056.431-.016.144-.03.327-.036.493-.004.175.004.35.023.523.02.18.055.36.101.535h.062c.028-.003.057-.003.085 0 .042.014.077.043.098.082.033.045.072.052.101 0 .03-.087.043-.18.036-.271-.012-.179.034-.356.13-.506.223-.205.512-.322.814-.327.326-.023.653 0 .98 0 .249-.018.497-.054.74-.108.226-.031.446-.095.654-.19.18-.09.418-.326.6-.113.048.06.086.127.112.199.135.26.245.532.326.813.015.179.041.357.078.532.053 0 .134-.14.134-.14 0-.193.026-.389.023-.582-.003-.192.046-.326.036-.509.001-.088.011-.175.03-.261.023-.244-.005-.49-.082-.722-.027-.09-.069-.173-.124-.248-.167-.222-.402-.193-.653-.294z"/>
        <path fill="#3276B7" d="M19.213 13.564s1.234.036 1.633-.202c-.154-1.365-.033-3.331-.457-4.147-.3-.578-1.744-1.208-2.636-1.61-.98.735-2.364.904-3.206-.02-.84.392-2.39.924-2.687 1.473-.386.709-.438 2.518-.653 4.052.53.2 1.076.35 1.632.454 0 0-.117 4.637-.075 6.88 2.146.48 4.364.533 6.53.16.066-2.482-.08-7.04-.08-7.04z"/>
        <path fill="#23679E" d="M12.944 11.48c-.22-.094-.595 1.271-.608 1.96.294.069.523.114.523.114v.082c.039-.85.016-1.46.085-2.155zM20.405 9.215c-.17-.327-.709-.673-1.306-.98 1.345 1.074.999 2.145 1.113 5.293.226-.013.448-.068.653-.163-.156-1.368-.036-3.334-.46-4.15z"/>
        <path fill="#F89980" d="M17.73 13.097c.028-.12.048-.24.06-.362 0-.186.039-.232.097-.235.06-.004.092 0 .128.1.024.086.036.174.036.262l-.32.235z"/>
        <path fill="#FFAA8A" d="M17.345 13.525c.056-.036.02-.274.239-.405.218-.13.587-.568.754-.624.248-.052.499-.09.751-.11 0 0 .31 0 .369.055.029.028.04.07.028.108-.012.039-.044.067-.084.075l.533.075s.26.059.225.17c-.036.11-.098.127-.098.127.087.017.151.091.157.18 0 .146-.327.127-.327.127l-.12.193c-.33-.02-.656-.058-.98-.118-.487-.023-.974.027-1.447.147z"/>
        <path fill="#F89980" d="M19.843 13.388c.106-.033.208-.075.307-.124-.522-.124-2.612-.245-2.733.049.079 0 1.306.049 1.378.062h.065c.451.045.627-.072.983.013z"/>
        <path fill="#FF8B6C" d="M19.87 13.342c-.239.046-.55.056-.79.085.365.052.695.069.695.069l.094-.154z"/>
        <path fill="#FFAA8A" d="M16.891 13.564s-3.3.13-3.804.016c-.503-.114-1.796-.133-1.867.118-.15.52-.409 1.198.293 1.388.762.219 1.562.27 2.345.15 1-.19 3.886-1.195 3.886-1.195l-.853-.477z"/>
        <path fill="#F89980" d="M16.891 13.564s-3.435-.072-4.555-.114c.284.3 2.417.653 2.172.872-.826.8-1.96.937-3.109.698.027.037.069.06.114.066.383.052 1.343.326 2.345.15 1.002-.176 3.886-1.195 3.886-1.195l-.853-.477z"/>
        <path fill="#FFAA8A" d="M20.996 13.933s-.065-.287-.588-.516c-.212-.091-1.208-.095-2.237-.081-.851-.01-1.702-.069-2.547-.177-.34-.027-.673-.12-.98-.27-.146-.081-.298-.149-.456-.203-.286.014-.569.057-.846.127-.157.015-.31.057-.454.124-.095.11-.176.23-.241.36l-.05.074c-.022.033.033.21.033.21.209-.027.42-.007.62.058.375.13.757.24 1.143.327 0 0 4.085.83 5.049 1.133.963.303 1.511-.19 1.632-.51.066-.22.038-.457-.078-.656z"/>
        <path fill="#FFF" d="M14.178 4.872c-.015 0-.03-.006-.04-.018-.01-.011-.014-.026-.012-.04.004-.167-.017-.334-.062-.494-.048-.14-.124-.27-.226-.379l-.15-.215-.075-.102c-.02-.03-.04-.058-.065-.084.008-.003.017-.003.026 0h.03c.212.062.326.3.456.47l.05.068c.117.221.163.474.13.722.003.018-.002.037-.014.05-.012.014-.03.022-.048.022z"/>
        <path fill="#FFF" d="M17.871 5.855c.03-.327 0-.673 0-1.013 0-.078-.072-.13-.176-.13-.38 0-.683.023-1.062 0-.199-.016-.346-.16-.551-.17-.204.033-.406.078-.604.134-.405.026-.817 0-1.209 0-.078 0-.156.03-.166.104-.023.2-.052.399-.062.601V5.825c-.103-.221-.168-.459-.193-.702v-.068c0-.004-.055.03-.055.049.046.489.224.956.516 1.352.066.107.14.21.222.306.095.096.2.184.31.262.24.159.521.247.81.254h.372c.214.004.427-.028.63-.094.282-.085.54-.233.758-.431.11-.105.215-.22.326-.327.096-.08.164-.189.196-.31.04-.114.056-.248.088-.366.04-.133.062-.272.066-.411v-.356c-.002.053-.01.105-.023.157v.084s-.02.157-.05.239c-.029.081-.042.196-.071.277-.015.06-.036.118-.062.173-.002-.02-.005-.039-.01-.058z"/>
        <path fill="#D6D6D6" d="M17.633 6.39l-.115-.023c.081-.413.106-.836.075-1.257-.326.009-.654-.002-.98-.032-.119-.016-.236-.045-.349-.089-.076-.03-.156-.049-.238-.055-.126.008-.25.027-.372.059l-.18.036c-.38.037-.762.044-1.143.02-.044.393-.044.79 0 1.184l-.117.023c-.047-.423-.047-.85 0-1.273v-.059h.078c.386.021.772.012 1.156-.026l.17-.036c.13-.033.264-.054.398-.062.094.007.187.028.275.062.105.04.215.069.326.085.342.031.686.041 1.029.03h.049v.052c.04.454.019.912-.062 1.361z"/>
        <path fill="#FFF" d="M18.178 3.758c.04-.072.093-.136.157-.189.065-.052.152-.068.232-.042-.117.056-.213.147-.275.26-.06.114-.112.232-.153.353-.096.25-.205.494-.327.732-.037-.005-.073-.018-.104-.04-.085-.068.02-.166.055-.231.036-.065.098-.19.144-.288.072-.176.16-.372.271-.555z"/>
        <path fill="#23679E" d="M15.918 10.736c-.036-.235-.326-.496-.411-.718-.025-.079-.057-.155-.095-.229-.095-.136-.204-.262-.326-.375-.098-.118-.157-.271-.284-.353-.076-.04-.16-.067-.245-.078-.107-.027-.217-.039-.327-.036-.205.03-.398.114-.561.242.064-.103.115-.212.153-.327.065-.212.134-.424.2-.637.044-.148.101-.292.169-.43.076-.112.18-.202.3-.262.135-.078.28-.137.431-.176l.115-.023H15.15v.049c-.008.089-.025.176-.052.261v.04c-.023.051-.055.1-.095.14.124.463.242.93.372 1.394.157.529.503.95.542 1.518zM16.235 10.155l.343-.59c.037-.078.089-.147.153-.203.07-.048.15-.081.232-.098l.431-.121c.063-.026.134-.026.196 0 .184.065.347.178.474.326l-.105-1.077c-.006-.14-.032-.277-.078-.408-.069-.166-.182-.31-.327-.415-.147-.103-.305-.192-.47-.265-.099-.045-.2-.084-.304-.117.022.18.065.356.128.526 0 .026.026.045.03.071.006.023.006.047 0 .07l-.109.652c-.008.097-.034.191-.078.278-.037.062-.082.119-.134.17l-.235.248c-.041.04-.077.085-.108.134-.03.054-.054.112-.072.173-.138.394-.23.804-.27 1.22.084-.199.186-.391.303-.574z"/>
        <path fill="#FFC864" d="M10.341 30.805c.288-.111 1.088-.53 1.336-.111.287.47-.591.686-.882.757-.29.075-.574.174-.849.294-.159.082-.328.143-.503.18-.177.038-.362-.01-.5-.127-.574-.585 1.117-.882 1.398-.993z" opacity=".43"/>
    </g>
</svg>
