<svg xmlns="http://www.w3.org/2000/svg" width="180" height="128" viewBox="0 0 180 128">
    <g fill="none">
        <path fill="#CED8F7" d="M33.627 86.109H149.41400000000002V127.53299999999999H33.627z"/>
        <path fill="#E8ECFF" d="M36.583 88.997H146.45999999999998V127.499H36.583z"/>
        <path fill="#CED8F7" d="M90.195 86.109H93.226V127.312H90.195z"/>
        <path fill="#CED8F7" d="M90.081 68.771L93.117 68.771 93.117 183.187 90.081 183.187z" transform="rotate(-90 91.6 125.98)"/>
        <path fill="#1C345D" d="M82.526 77.431H100.517V84.35H82.526z"/>
        <path fill="#1C345D" d="M78.93 84.348h25.182c.969 0 1.754.787 1.754 1.758H77.175c0-.467.185-.914.514-1.243.33-.33.776-.515 1.241-.515z"/>
        <rect width="84.517" height="47.616" x="49.262" y="31.329" fill="#1C345D" rx="3"/>
        <path fill="#D84E55" d="M132.19 34.7v40.874c-.002 1.061-.86 1.92-1.92 1.922H52.771c-1.059-.001-1.917-.86-1.92-1.922V34.703c.002-1.061.86-1.921 1.92-1.923h77.5c1.057.002 1.915.86 1.918 1.92z"/>
        <path fill="#FFF" d="M59.403 40.995v2.638h1.434v.754H58.52v-3.392h.883zm2.718 0v3.39h-.883v-3.39h.883zm1.27 0l.845 2.452.85-2.452h.908l-1.324 3.39h-.916l-1.313-3.39h.95zm5.592 0v.706h-1.786v.633h1.612v.702l-1.612.005v.639h1.834v.702h-2.718v-3.387h2.67zm-4.496 6.148c.496.182.879.442 1.15.78.271.339.415.762.407 1.196.008.443-.138.875-.414 1.222-.285.354-.68.603-1.12.71.566.11 1.013.369 1.34.777.329.42.501.943.486 1.477.009.473-.139.936-.42 1.316-.279.378-.676.667-1.194.866-.517.2-1.122.3-1.816.299h-4.393v-8.92h4.23c.593-.011 1.184.083 1.744.277zm-1.111 3.042c.19-.163.292-.405.28-.655.012-.243-.092-.477-.28-.63-.187-.148-.441-.218-.762-.21h-1.78v1.729h1.78c.321 0 .576-.08.762-.24v.006zm.203 3.543c.233-.16.367-.429.356-.712.005-.27-.13-.522-.356-.668-.237-.166-.559-.244-.965-.234h-1.78v1.872h1.78c.406-.005.728-.093.965-.263v.005zm8.08-.407H69.93v2.469h-2.325v-8.925h4.002c1.177 0 2.09.274 2.737.82.647.548.971 1.318.972 2.31 0 .67-.136 1.249-.407 1.737-.271.489-.683.886-1.181 1.14l1.855 2.912h-2.63l-1.296-2.463zm-.039-1.857c.474 0 .841-.119 1.1-.356.258-.238.388-.581.389-1.03 0-.433-.13-.766-.39-1-.259-.233-.626-.35-1.099-.35h-1.69v2.736h1.69zm12.209-4.593v1.858h-4.701v1.666h4.244v1.845l-4.244.013v1.676h4.828v1.858h-7.152v-8.922l7.025.006zm7.482 7.341h-3.85l-.622 1.578H84.45l3.824-8.92h2.388l3.738 8.92h-2.478l-.61-1.578zm-.686-1.78l-1.22-3.182-1.246 3.181h2.466zm10.358 3.358l-2.337-3.46-1.117 1.247v2.214h-2.326v-8.926h2.326v3.866l3.34-3.868h2.694l-3.309 3.68 3.505 5.241-2.776.006zm6.06-8.92v8.914h-2.326v-8.919l2.325.006zm9.971 0v8.914h-2.032l-4.04-5.33v5.33h-2.173v-8.919h2.045l4.05 5.37-.012-5.37 2.162.006zm9.64 4.36v3.549c-.531.376-1.122.662-1.746.846-.634.207-1.296.317-1.963.325-.85.012-1.687-.196-2.433-.605-.709-.388-1.3-.962-1.708-1.66-.42-.718-.635-1.536-.623-2.367-.01-.827.212-1.64.642-2.347.427-.7 1.038-1.27 1.766-1.648.773-.404 1.635-.61 2.508-.598.677.003 1.348.126 1.982.363.615.215 1.184.545 1.677.973l-1.324 1.629c-.324-.307-.7-.552-1.111-.725-.391-.172-.813-.263-1.24-.268-.91-.013-1.753.483-2.185 1.286-.223.41-.336.87-.33 1.335-.007.473.107.94.33 1.356.213.394.53.722.915.948.393.23.841.348 1.296.343.449 0 .961-.144 1.538-.432v-2.304h2.01zm-59.897 7.035v8.919h-2.032l-4.04-5.331v5.33h-2.172v-8.918h2.045l4.05 5.37-.013-5.37h2.162zm8.766 0v1.858h-4.706v1.666h4.243v1.845l-4.243.013v1.679h4.828v1.858h-7.152v-8.92h7.03zm14.85 0l-3.01 8.919h-2.389l-1.69-6.07-1.713 6.07h-2.388l-2.998-8.92h2.498l1.753 6.515 1.751-6.514h2.274l1.779 6.514 1.74-6.514h2.393zm5.456 1.997c-.538-.178-.989-.267-1.352-.267-.288 0-.515.052-.68.156-.162.099-.257.278-.248.468-.003.187.076.366.216.49.156.138.337.246.533.318.212.08.526.184.94.312.522.144 1.033.323 1.531.534.408.183.764.466 1.035.821.289.37.433.85.433 1.444 0 .593-.156 1.1-.468 1.52-.33.433-.778.762-1.29.949-.582.218-1.2.326-1.822.318-.752-.003-1.497-.135-2.204-.39-.692-.236-1.336-.596-1.9-1.062l.901-1.82c.473.414 1.012.745 1.594.98.615.255 1.16.382 1.636.383.346 0 .62-.064.82-.191.193-.119.307-.333.297-.56.005-.194-.077-.38-.222-.509-.163-.144-.353-.255-.559-.324-.224-.082-.54-.177-.946-.287-.515-.137-1.02-.31-1.512-.515-.403-.175-.756-.445-1.03-.789-.283-.352-.425-.82-.425-1.404-.01-.518.143-1.026.438-1.45.315-.434.748-.767 1.246-.96.538-.225 1.163-.338 1.874-.338.645 0 1.287.092 1.906.273.583.163 1.139.41 1.652.732l-.878 1.855c-.48-.283-.989-.513-1.518-.687h.002z"/>
        <g opacity=".66" transform="translate(.105 .33)">
            <path fill="#AABCF0" d="M0.066 0.071H36.522000000000006V22.304000000000002H0.066z"/>
            <path fill="#E8ECFF" d="M2.913 2.391H33.673V19.984H2.913z"/>
            <path fill="#CED8F7" d="M2.913 19.984s6.573-4.343 8.166-5.504c1.592-1.16 3.837-2.32 5.357-1.884 1.52.435 3.62 2.32 3.62 2.32s7.818-6.816 9.483-6.888c1.666-.073 4.135 3.16 4.135 3.16v8.796H2.914z"/>
            <ellipse cx="8.509" cy="6.179" fill="#CED8F7" rx="1.991" ry="1.994"/>
        </g>
        <path fill="#CED8F7" d="M166.957 55.307H168.959V124.334H166.957zM173.968 124.335H161.95c-.836 0-1.518 1.376-1.57 3.211h15.158c-.054-1.835-.733-3.211-1.569-3.211z"/>
        <path fill="#CED8F7" d="M175.038 40.243h-14.085c-2.734 0-5.008 7.912-5.008 17.893v2.579h24.026v-2.579c0-9.98-2.2-17.893-4.933-17.893z"/>
        <path fill="#D99F82" d="M28.041 71.27c-4.12 6.09-7.193 12.828-9.09 19.935-.045.172.22.244.265.073 1.89-7.084 4.952-13.8 9.06-19.87.098-.147-.135-.284-.235-.139zM25.57 63.266c-2.818 8.656-5.154 17.463-6.995 26.38-.035.171.23.246.265.072 1.84-8.916 4.176-17.723 6.995-26.38.055-.168-.21-.24-.264-.072zM18.865 69.875c-1.33 5.334-1.859 10.836-1.569 16.326.009.175.284.177.275 0-.29-5.465.234-10.943 1.557-16.253.044-.171-.22-.245-.263-.073zM9.51 68.637c-.09-.151-.328-.013-.234.139 3.592 6.03 5.954 12.716 6.95 19.667.025.174.289.1.264-.073-1.001-6.975-3.374-13.682-6.98-19.733z"/>
        <path fill="#6B3939" d="M30.693 67.466c-.111.025-.216.073-.308.14-1.036.703-1.669 1.873-2.325 2.903-.126.197-.754 1.437-.067 1.359.16-.018.285-.146.394-.266 1.022-1.121 2.063-2.275 2.631-3.682.04-.077.056-.163.046-.25-.042-.132-.169-.22-.307-.21-.022 0-.043.002-.064.006zM27.008 58.584c-.04.053-.075.11-.104.17-.461.941-.849 1.916-1.159 2.917-.078.26-.894 2.636-.103 2.418.164-.045.255-.216.326-.371.683-1.513 1.19-3.1 1.508-4.729.042-.213.028-.511-.185-.552-.114-.019-.209.052-.283.147zM19.537 65.452c-.13.173-.182.412-.248.616-.174.53-.314 1.07-.417 1.617-.1.558-.344 1.789-.05 2.327.072.132.233.226.375.169.062-.031.116-.078.155-.136.177-.234.372-.802.42-1.092.249-1.496.42-2.044.312-3.23-.018-.193-.106-.443-.3-.429-.102.013-.193.07-.247.158zM9.84 69.029c-.018-.073-.043-.144-.074-.212-.516-1.188-1.048-2.4-1.927-3.354-.121-.13-.26-.263-.434-.3-1.085-.23.369 2.439.563 2.73.173.26 1.475 1.993 1.84 1.392.044-.078.055-.17.032-.256z"/>
        <path fill="#CED8F7" d="M22.144 127.474c-1.458.044-8.139.138-8.593 0-.173-.052-.993-3.504-1.873-7.945l-.067-.33c-.043-.226-.087-.456-.134-.687-.019-.11-.04-.222-.063-.335-1.357-7.07-2.718-15.896-1.982-17.838.003-.003.005-.007.005-.011.047-.123.099-.247.156-.368 1.415-3.12 5.122-5.581 5.122-5.581l-.981-9.719h9.687l-.187 1.043-.068.39-.14.794-.068.374-1.242 7.027s2.2 1.893 3.63 4.101c.053.078.104.162.156.242.529.857.927 1.752 1.026 2.595.367 3.109-2.925 26.202-4.384 26.248z"/>
    </g>
</svg>
