<svg xmlns="http://www.w3.org/2000/svg" width="40" height="40" viewBox="0 0 40 40">
    <g fill="none">
        <path fill="#E5EBF8" d="M39.86 19.931c.005 4.08-1.244 8.064-3.58 11.41-.2.287-.41.567-.63.84-1.991 2.567-4.584 4.603-7.55 5.93-5.192 2.34-11.138 2.34-16.33 0-2.537-1.139-4.809-2.794-6.67-4.86-.15-.16-.29-.33-.43-.5-5.665-6.743-6.232-16.405-1.395-23.765C8.11 1.626 17.205-1.686 25.642.838 34.08 3.362 39.86 11.124 39.86 19.93z"/>
        <path fill="#092337" d="M16.97 29.512c-.161-.238-.299-.49-.413-.754-.03-.104.033-1.296 0-1.296h-5.773c0 .584.057 1.071-.231 1.584-.578 1.052-.863 2.243-.825 3.446v2.437c0 .275-.029 1.833 0 2.103-.001.06 2.268 1.256 2.458 1.256v-3.446c-.01-.868.052-1.735.185-2.592.153-.833.825-2.325 1.761-1.483.541.598.851 1.373.874 2.183.14 1.908.007 4.401.183 6.32 1.64.324 2.487.487 2.539.487.078 0 .112-5.478.102-7.653-.01-.61-.18-1.206-.49-1.729-.14-.28-.239-.58-.37-.863z"/>
        <path fill="#071D2B" d="M17.728 31.646c-.2-.46-.628-.777-1.122-.834-.49-.052-.982.098-1.36.417-.228.171-.377.429-.413.713l-.388-.696c-.105-.246-.282-.454-.507-.596-.363-.142-.775-.033-1.023.27-.249.266-.435.585-.544.934.033 0 .062-.025.062-.058-.004-.033-.017-.065-.037-.092-.063-.144-.118-.291-.165-.442-.193-.324-.53-.535-.903-.566-.299-.063-.609-.046-.9.05-.29.099-.52.33-.618.625-.03-.375.047-.75.219-1.083l.775-1.93c.024-.102.074-.197.144-.275.065-.041.136-.071.21-.087 1.535-.395 3.134-.46 4.694-.188.139.013.272.065.383.15.059.062.106.134.14.213.538 1.122.99 2.283 1.353 3.475z"/>
        <path fill="#1058AE" d="M10.635 28.163c.575.024 1.15-.027 1.711-.155 1.09-.112 2.182.113 3.275.2.494.042 1.34.113 1.402-.487.016-.33.016-.661 0-.992v-7.558c-.003-.34-.253-.625-.586-.671l-2.78-.38-2.601.355c-.43.057-.755.42-.767.858v8.505c0 .183.14.279.346.325z"/>
        <path fill="#1058AE" d="M9.513 28.196c-.229-.037-.434-.164-.569-.354-.122-.211-.204-.443-.243-.684-.169-.741-.342-1.491-.507-2.241-.15-.544-.237-1.103-.256-1.667.02-.385.135-.759.334-1.087.373-.846.808-1.663 1.303-2.442.413-.588 1.39-1.733 2.136-.996.64.63 0 1.425-.412 1.967-.28.416-.56.808-.85 1.208-.301.327-.57.685-.8 1.067-.164.383 0 1.016.033 1.425.075.654.194 1.3.277 1.954.057.475.276 1.32-.083 1.725-.093.1-.229.146-.363.125z"/>
        <path fill="#FFAA8A" d="M13.641 19.333c.227 0 .444-.09.604-.252.16-.162.25-.381.25-.61v-2.404h-1.703v2.387c-.005.231.083.454.242.62.16.165.379.258.607.26v-.001z"/>
        <g fill="#7E7E8A" opacity=".59">
            <path d="M6.391 5.153h2.252c.299.013.596.047.89.1.403.052.742.328.879.713.853 2.438 1.538 4.917 1.48 7.534-.015.924-.226 1.835-.618 2.67-.214.489-.67.823-1.196.875-2.426.344-4.886.344-7.312 0-.645-.068-1.189-.519-1.381-1.145-.455-1.217-.612-2.527-.462-3.817.217-1.99.662-3.948 1.328-5.833.256-.771.73-1.084 1.65-1.1h2.474l.016.004v-.001z" transform="translate(20 11)"/>
            <path d="M6.395 22.083c-.923 0-1.847.025-2.767 0-.505-.019-1.008-.086-1.5-.2-.596-.13-1.072-.582-1.238-1.175-.198-.633-.342-1.28-.507-1.92-.013-.07-.02-.14-.025-.21-.099-.987.631-1.32 1.332-1.145 2.455.56 4.99.677 7.485.346.626-.067 1.237-.23 1.864-.35.626-.121 1.5.158 1.34 1.133-.126.747-.308 1.482-.545 2.2-.227.719-.874 1.218-1.62 1.25-.742.071-1.493.08-2.243.1-.528-.029-1.044-.029-1.576-.029zm-.004-17.53H4.556c-.697 0-.957-.258-.825-.945.132-.688.31-1.408.495-2.083.103-.31.383-.525.705-.542.98-.18 1.985-.18 2.965 0 .371.031.675.31.743.68.136.612.325 1.216.44 1.833.15.804-.094 1.075-.902 1.083L6.39 4.553h.001z" transform="translate(20 11)"/>
        </g>
        <g fill="#FFAA8A">
            <path d="M1.645 3.237s0-.27-.342-.208c-.343.063-.347.459-.285.663.153.53.314.75.412.788.203.091.278-.063.278-.063s-.046-.417-.05-.575l-.012-.604-.001-.001zm4.037 0s.02-.27.342-.208c.322.063.347.459.285.663-.153.53-.314.75-.413.788-.202.091-.276-.063-.276-.063s.046-.417.05-.575l.012-.604v-.001z" transform="translate(10 11)"/>
            <path d="M1.604 2.821s-.079 1.742.19 2.321c.295.442.677.82 1.121 1.108.387.185.83.213 1.237.08.44-.227.842-.524 1.188-.88.196-.507.316-1.04.359-1.583.003-.03.003-.061 0-.092l.07-1.275c.004-.043.004-.086 0-.129C5.523 1.474 4.796.793 3.892.613L3.81.592c-.716-.134-1.442.17-1.856.775-.015.023-.028.048-.036.075l-.194.513c-.016.034-.025.07-.029.108l-.079.654c-.008.034-.013.07-.012.104z" transform="translate(10 11)"/>
        </g>
        <path fill="#4C2E26" d="M15.155 11.575l-.223-.092c-.599-.19-1.234-.23-1.852-.116-.481.107-.969.185-1.46.233-.066 0-.132.013-.193.037-.215.096-.124.371-.14.555-.017.183-.038.262-.05.396-.012.133-.029.308-.033.458-.005.163.002.326.02.487.017.168.047.334.091.496h.058c.025-.004.05-.004.074 0 .04.013.074.04.095.075.03.046.066.05.091 0 .028-.082.039-.168.033-.254-.007-.166.04-.33.132-.467.205-.19.472-.297.75-.3.293-.02.59 0 .887 0 .229-.017.456-.05.68-.1.207-.028.409-.087.598-.175.17-.087.388-.304.557-.108.043.057.078.12.103.188.122.24.219.493.289.754.015.166.038.332.07.495.05 0 .124-.129.124-.129 0-.183.024-.362.024-.541 0-.18.042-.313.03-.475.003-.082.012-.162.028-.242.02-.226-.004-.455-.074-.67-.022-.084-.057-.162-.103-.234-.153-.209-.388-.18-.606-.271z"/>
        <g fill="#FFF">
            <path d="M1.028 1.287c-.015.001-.029-.005-.038-.017-.01-.01-.014-.026-.011-.04C.982 1.075.962.92.921.771.876.641.806.522.715.421l-.14-.2L.507.125C.49.097.47.071.447.047h.049c.198.057.314.28.412.416l.046.062c.109.206.152.44.124.671.01.019.01.041 0 .06-.01.018-.03.03-.05.032v-.001z" transform="translate(11 14)"/>
            <path d="M4.422 2.2c.025-.316 0-.629 0-.941 0-.071-.066-.121-.165-.121-.324.017-.65.017-.973 0-.182 0-.322-.15-.508-.154-.187.029-.373.07-.556.12-.371.025-.75 0-1.114 0-.07 0-.14.03-.148.096-.025.188-.05.371-.058.559v.412c-.093-.204-.153-.424-.177-.65v-.067c0-.004-.05.03-.05.046.043.453.207.885.475 1.25.06.101.129.196.206.284.086.091.181.174.284.245.222.149.48.23.747.234h.338c.199.004.397-.025.585-.088.26-.085.498-.227.697-.416.103-.1.198-.204.301-.3.088-.077.15-.179.178-.292.033-.111.06-.224.082-.337.038-.125.058-.254.062-.384.006-.11.006-.22 0-.329.006.047.006.095 0 .142v.079s0 .15-.045.225c-.046.075-.037.179-.066.258-.014.054-.032.107-.054.159-.041-.013-.045.012-.041-.03z" transform="translate(11 14)"/>
            <path d="M4.702.25c.038-.066.087-.125.145-.175.06-.048.14-.063.214-.041-.106.054-.194.14-.252.245-.057.104-.104.213-.14.326-.086.233-.185.458-.293.679-.033-.006-.066-.019-.094-.038-.079-.062 0-.158.053-.216l.132-.267C4.521.6 4.603.421 4.702.25z" transform="translate(11 14)"/>
        </g>
        <path fill="#FFAA8A" d="M9.105 27.883c-.03.106-.03.22 0 .325.125.483.37.926.71 1.288.147.152.307.291.478.417.036.034.082.055.132.058.054-.009.098-.05.111-.104.01-.054.01-.11 0-.163.066.068.17.078.248.025.075-.055.102-.155.065-.241.062.02.13.006.178-.038.046-.049.062-.12.041-.183.036.01.074-.008.09-.042.011-.034.011-.07 0-.104-.025-.155-.094-.3-.197-.417-.1-.125-.215-.233-.322-.35-.062-.048-.094-.125-.086-.204l.334.154c.021.006.044.006.066 0 .057 0 .045-.1 0-.15-.103-.195-.243-.368-.413-.508-.16-.138-.441-.38-.668-.317-.239.088-.643.242-.767.554z"/>
        <path fill="#1058AE" d="M17.703 28.167c.105-.007.207-.035.301-.084.338-.179.528-.725.676-1.05.217-.462.378-.949.479-1.45.161-1.038.06-2.1-.297-3.087-.297-.844-.664-1.66-1.097-2.442-.28-.49-.632-.935-1.043-1.32-.33-.346-.873-.356-1.215-.024-.341.333-.352.882-.022 1.227.343.296.638.645.874 1.034.354.725.7 1.446 1.051 2.17.258.447.4.951.413 1.467-.049.4-.174.786-.367 1.138-.219.458-.664 1.05-.607 1.583.032.459.4.82.854.838z"/>
        <path fill="#FFAA8A" d="M16.074 29.2c-.027-.003-.052-.013-.074-.03.075-.246.172-.486.289-.716-.11.11-.233.203-.367.28-.045.03-.1.043-.153.033-.06-.03-.09-.098-.074-.163s.05-.124.099-.17l.515-.63c.129-.118.201-.287.198-.462-.142.103-.303.175-.474.212-.087 0-.35-.046-.214-.179.04-.03.084-.05.132-.063.379-.137.684-.558 1.105-.579.277-.023.551.076.75.273.2.197.305.471.289.752-.044.345-.134.681-.268 1-.164.295-.413.531-.714.68-.072.058-.163.088-.255.083-.087 0-.157-.142-.087-.204-.106.114-.258.172-.412.158l.156-.53c-.063.085-.14.159-.226.218-.066.036-.141.049-.215.037z"/>
        <path fill="#D74542" d="M31.04 18.083l-.545-.545c-.108-.114-.257-.177-.413-.177-.155 0-.304.063-.412.177l-2.886 2.916c-.109.113-.257.177-.413.177-.155 0-.304-.064-.412-.177l-2.887-2.916c-.108-.114-.257-.177-.412-.177-.156 0-.305.063-.413.177l-.507.545c-.11.11-.171.26-.171.417 0 .156.061.306.171.417l2.887 2.916c.11.11.171.26.171.417 0 .156-.061.306-.171.417l-2.887 2.916c-.11.11-.171.26-.171.417 0 .156.061.306.171.417l.545.545c.108.114.256.177.412.177.155 0 .304-.063.412-.177l2.887-2.916c.108-.113.257-.177.412-.177.156 0 .305.064.413.177l2.886 2.916c.108.114.257.177.413.177.155 0 .304-.063.412-.177l.544-.545c.112-.11.175-.26.175-.417 0-.157-.063-.308-.175-.417l-2.886-2.916c-.112-.11-.175-.26-.175-.417 0-.157.063-.308.175-.417l2.886-2.916c.107-.114.164-.268.157-.425-.007-.157-.077-.305-.194-.409h.001z"/>
    </g>
</svg>
