<svg xmlns="http://www.w3.org/2000/svg" width="100" height="100" viewBox="0 0 100 100">
    <g fill="none">
        <path fill="#E5EBF8" d="M100 50c-.004 23.43-16.278 43.716-39.15 48.8-3.56.806-7.2 1.209-10.85 1.2-5.334.022-10.636-.823-15.7-2.5-2.585-.835-5.094-1.89-7.5-3.15-2.794-1.457-5.44-3.182-7.9-5.15-1.9-1.52-3.673-3.191-5.3-5-1.976-2.066-3.759-4.308-5.325-6.7C2.857 69.354-.023 59.783 0 50 0 22.386 22.386 0 50 0s50 22.386 50 50z"/>
        <path fill="#D9735D" d="M62.825 53.075c-.55.575-1.2 1.2-1.875 1.775-1.461 1.282-3.073 2.382-4.8 3.275l-1 .475c-5 2.125-9.725 9.45-11.025 11.625l-.375.625-6.825 4.775-10.875 7.5-7.1 6.05c-1.9-1.52-3.673-3.191-5.3-5-1.992-2.056-3.792-4.29-5.375-6.675 1.875-1.816 3.498-3.876 4.825-6.125 2.5-5 8.775-16.975 11.85-20.325.715-.733 1.493-1.403 2.325-2 3.925-2.925 10.65-6.625 13.625-6.95.434-.115.897-.043 1.275.2.75.7-.125 1.975-1.725 3.525-1.6 1.55-4.275 3.775-6.45 5.8-.675.625-1.3 1.225-1.85 1.825-.475.415-.83.95-1.025 1.55-.325 1.225 1.575 1.325 4.05.925l1.55-.275c.875-.175 1.75-.375 2.625-.625s1.875-.5 2.7-.75c1.07-.371 2.094-.866 3.05-1.475l.575-.375.975-.65c2.7-1.9 5.6-4.3 7.975-6.075 1.2-1.144 2.645-1.999 4.225-2.5 1.55 0-1.275 4.2-3.65 7.5l-1.675 2.225L52.5 54.25l3-1.475 2.925-1.375c1.275-.6 2.5-1.2 3.75-1.65.74-.33 1.5-.613 2.275-.85.307-.133.64-.193.975-.175.75.15-.425 2.125-2.6 4.35z"/>
        <path fill="#FFF" d="M34.8 61.65c0-3.024-2.451-5.475-5.475-5.475-3.024 0-5.475 2.451-5.475 5.475 0 3.024 2.451 5.475 5.475 5.475 3.018-.014 5.461-2.457 5.475-5.475z"/>
        <path fill="#FFF" d="M60.8 68.3c.695.179 1.38.396 2.05.65 1.477.332 2.997-.337 3.75-1.65 1.325.314 2.72-.05 3.722-.972 1.002-.922 1.48-2.281 1.278-3.628.987.045 1.88-.582 2.175-1.525.292-.901.485-1.832.575-2.775.439-1.08.66-2.235.65-3.4-.225-1.15-1.675-2.125-2.5-1.375.876-1.401 1.138-3.1.725-4.7-.484-1.614-2.129-2.583-3.775-2.225-1.733.897-2.551 2.926-1.925 4.775-.998-.083-1.9.593-2.1 1.575H62.7c.634-.664.801-1.648.421-2.484-.38-.837-1.23-1.358-2.148-1.318-.917.04-1.718.635-2.023 1.502-.375-.825-1.625-.625-2.3 0-.675.625-1.1 1.475-1.9 1.85-.8.375-.975.225-1.45.4-1.199.416-1.94 1.617-1.775 2.875-1.257-.212-2.548-.1-3.75.325.824-.936 1.157-2.205.9-3.425-.425-1.175-2.5-1.525-2.8-.35-.582-1.506-2.107-2.43-3.712-2.247-1.604.182-2.883 1.424-3.113 3.022-1.61.85-2.585 2.555-2.5 4.375L30.65 57c-.547-.087-1.103-.087-1.65 0-.7.18-1.346.532-1.875 1.025-1.781 1.577-2.709 3.905-2.5 6.275-3.201-.514-6.327 1.277-7.5 4.3-.675 1.925 0 4.65 2.075 5-1.364 1.78-1.975 4.024-1.7 6.25.07.863.519 1.65 1.225 2.15 1.036.34 2.175.133 3.025-.55 2.549-1.55 4.766-3.59 6.525-6 .251-.451.624-.824 1.075-1.075.8-.35 1.675 0 2.5.3 3.475.85 6.45-2.325 9.725-3.725 5-2.125 10.975 0 16.075-1.9.968-.516 2.053-.774 3.15-.75z"/>
        <path fill="#F38A6B" d="M54.725 74.325c0 .5 1.075.475 3.275-.275.875-.275 1.925-.675 3.15-1.175 4.3-1.825 6.475-2.5 6.95-2.025.475.475.9 1.875-5.3 4.875-1.44.661-2.917 1.237-4.425 1.725-7.075 2.375-18.15 5.15-22.5 7.25-.59.247-1.139.584-1.625 1-.975 1-3.975 4.55-7.35 8.625-2.794-1.457-5.44-3.182-7.9-5.15-1.9-1.52-3.673-3.191-5.3-5 1.575-1.525 3-2.9 4.05-3.975.65-.675 1.15-1.2 1.475-1.6 1.475-1.825 4.4-6.95 7.775-12.15 1.937-3.025 4.067-5.923 6.375-8.675l.5-.55c.475-.525.925-1 1.375-1.425l.675-.6 3.1-2.7.725-.65 1.925-1.7c3.475-2.95 6.075-5 7.325-4.5s-1.225 3.3-3.45 6.45l-.45.625c-2.15 3.05-4.2 6.125-3.4 6.9 1.675 1.675 11.275-3.125 13.575-4.8l.425-.35c.974-.99 1.885-2.043 2.725-3.15.475-.625 1-1.25 1.5-1.825 1.4-1.625 2.825-2.85 4.075-2.5.7.15.75.9.4 1.925-.355.973-.816 1.903-1.375 2.775-.659 1.096-1.377 2.156-2.15 3.175-.927 1.319-1.964 2.556-3.1 3.7-.482.418-.991.802-1.525 1.15-1.725 1.2-3.95 2.5-3.525 2.775 1.303-.173 2.56-.598 3.7-1.25 1.346-.614 2.642-1.332 3.875-2.15 2.5-1.65 7.725-8.475 10-7.225 2.275 1.25-6.4 10.775-7.925 11.9-1.025.75-3.6 2.125-5.175 3.1-.75.475-1.275.825-1.275 1 0 .175.55 0 1.35-.275 2.086-.882 4.065-1.998 5.9-3.325 3.075-2.225 7.5-6.55 9.075-5.525 1.575 1.025-5 7.5-8.075 9.35l-1.35.85c-1.525.95-3.45 2.1-5 3.1-1.55 1-3.1 1.95-3.1 2.275z"/>
        <path fill="#FFF" d="M67.9 43.95c0-.98-.795-1.775-1.775-1.775-.98 0-1.775.795-1.775 1.775 0 .98.795 1.775 1.775 1.775.98 0 1.775-.795 1.775-1.775zM14.8 60.8c0-.98-.795-1.775-1.775-1.775-.98 0-1.775.795-1.775 1.775 0 .98.795 1.775 1.775 1.775.47 0 .922-.187 1.255-.52.333-.333.52-.784.52-1.255zM76.45 65.15c.01-.821-.477-1.567-1.233-1.889-.755-.32-1.63-.154-2.215.423-.584.577-.762 1.45-.45 2.21s1.052 1.256 1.873 1.256c1.109 0 2.011-.891 2.025-2z"/>
        <circle cx="70.375" cy="68.725" r="1" fill="#FFF"/>
        <path fill="#FFF" d="M75.2 70.825c.007-.234-.083-.46-.249-.626-.165-.166-.392-.256-.626-.249-.343-.059-.688.092-.88.383-.19.291-.19.668 0 .959.192.291.537.442.88.383.23.007.452-.08.617-.24.165-.16.258-.38.258-.61zM61.575 35.95c-.072-.42-.436-.728-.863-.728-.426 0-.79.308-.862.728-.059.343.092.688.383.88.291.19.668.19.959 0 .291-.192.442-.537.383-.88zM34.275 52.675c0-1.38-1.12-2.5-2.5-2.5s-2.5 1.12-2.5 2.5 1.12 2.5 2.5 2.5 2.5-1.12 2.5-2.5zM27.5 50c0-.856-.694-1.55-1.55-1.55-.774.099-1.354.757-1.354 1.537 0 .78.58 1.44 1.354 1.538.846 0 1.536-.679 1.55-1.525z"/>
        <path fill="#8BAAEF" d="M81.95 11.55H52.5c-.389-.007-.764.143-1.042.416-.277.272-.433.645-.433 1.034v8.575H44.3V13c0-2.17.865-4.25 2.405-5.78 1.539-1.53 3.625-2.383 5.795-2.37h19c3.75 1.787 7.261 4.038 10.45 6.7z"/>
        <path fill="#8BAAEF" d="M41.925 19.825H53.3V25.25H41.925z"/>
        <path fill="#8BAAEF" d="M60.85 98.8c-3.56.806-7.2 1.209-10.85 1.2-5.334.022-10.636-.823-15.7-2.5l1.525-12.775 1.1-9.075.25-2.125L39.375 55l.375-3.075v-.65l.65-5.45.45-3.725 2.025-16.85.175-1.5 8.975-.425.225 1.925 2.375 20.425.575 5 .15 1.25v.85l.2 1.775.425 3.575.175 1.575.175 1.525.65 5.625v.725l.2 1.575.325 2.875.25 2.025.625 3.45 2.475 21.3z" opacity=".36"/>
    </g>
</svg>
