<?xml version="1.0" encoding="UTF-8"?>
<svg width="109px" height="32px" viewBox="0 0 109 32" version="1.1" xmlns="http://www.w3.org/2000/svg" xmlns:xlink="http://www.w3.org/1999/xlink">
    <!-- Generator: Sketch 59.1 (86144) - https://sketch.com -->
    <title>ic_appstore</title>
    <desc>Created with Sketch.</desc>
    <g id="Final" stroke="none" stroke-width="1" fill="none" fill-rule="evenodd">
        <g id="Wheels-mweb-Copy" transform="translate(-24.000000, -327.000000)" fill-rule="nonzero">
            <g id="ic_appstore" transform="translate(24.000000, 327.000000)">
                <path d="M104.962963,32 L4.03703704,32 C1.7762963,32 0,30.16 0,28 L0,4 C0,1.76 1.85703704,0 4.03703704,0 L104.962963,0 C107.223704,0 109,1.84 109,4 L109,28 C109,30.16 107.223704,32 104.962963,32 Z" id="Path" fill="#FFFFFF"></path>
                <g id="Group-2" transform="translate(16.000000, 7.000000)" fill="#000000">
                    <path d="M11.7295161,9.72183255 C11.7098948,7.48482308 13.5150503,6.39651068 13.5975949,6.34584308 C12.5752598,4.81679193 10.9906743,4.60787482 10.4338366,4.59121698 C9.10297418,4.44754308 7.81203087,5.40814535 7.13408265,5.40814535 C6.44260254,5.40814535 5.39861642,4.60509851 4.27343889,4.62869712 C2.82552554,4.65160166 1.4709823,5.51156279 0.72808096,6.84696652 C-0.805083366,9.56982973 0.338362226,13.5711824 1.80725002,15.7720999 C2.54203222,16.8506952 3.40063131,18.0535302 4.52445564,18.0111915 C5.62392256,17.9653825 6.03461574,17.2928221 7.36141858,17.2928221 C8.67604272,17.2928221 9.06170188,18.0111915 10.2078539,17.9841226 C11.3878356,17.9653825 12.1307369,16.9013628 12.8398085,15.8137445 C13.6889353,14.5789819 14.0299391,13.3615712 14.043471,13.2991043 C14.0164072,13.2893872 11.7525203,12.4023571 11.7295161,9.72183255 Z M9.56441198,3.14337281 C10.155756,2.38474689 10.5603599,1.35265471 10.4480451,0.305292849 C9.59215238,0.344161149 8.52177905,0.912610033 7.90540098,1.65457811 C7.36006539,2.30839844 6.87291697,3.38005299 6.99876365,4.38785248 C7.96020518,4.46142462 8.94735732,3.89019943 9.56441198,3.14337281 L9.56441198,3.14337281 Z" id="Shape"></path>
                    <g id="Group" transform="translate(20.149328, 7.632321)">
                        <path d="M7.77262539,9.47969717 L6.2087771,9.47969717 L5.35213805,6.74139575 L2.37455989,6.74139575 L1.55854922,9.47969717 L0.0360179227,9.47969717 L2.98674004,0.157283407 L4.80881956,0.157283407 L7.77262539,9.47969717 L7.77262539,9.47969717 Z M5.09390683,5.59255606 L4.31921316,3.15827684 C4.23726778,2.90959508 4.08301766,2.32396704 3.85715142,1.40209324 L3.82960676,1.40209324 C3.73870936,1.79858304 3.59341126,2.38421107 3.39440107,3.15827684 L2.63279111,5.59255606 L5.09390683,5.59255606 Z M15.3460307,6.03598016 C15.3460307,7.17921575 15.0409736,8.08287624 14.4301707,8.7462611 C13.8834091,9.33679272 13.2037445,9.63170828 12.3932428,9.63170828 C11.5180111,9.63170828 10.8886155,9.31437634 10.5064333,8.67831144 L10.5064333,12.2053894 L9.0383027,12.2053894 L9.0383027,4.96699884 C9.0383027,4.24897403 9.01971005,3.51273591 8.98390198,2.75758397 L10.2750581,2.75758397 L10.3570035,3.82306273 L10.3845481,3.82306273 C10.8741545,3.02027597 11.6171719,2.61888259 12.6142887,2.61888259 C13.3938027,2.61888259 14.0445454,2.93201146 14.5651395,3.55896971 C15.085045,4.18732897 15.3460307,5.01253212 15.3460307,6.03598016 Z M13.8503555,6.09062009 C13.8503555,5.43634188 13.705746,4.89694764 13.4151498,4.47173685 C13.0976975,4.02971377 12.6714439,3.80835198 12.1370774,3.80835198 C11.7748651,3.80835198 11.4457063,3.93164209 11.151667,4.17471976 C10.8569391,4.41989896 10.6641265,4.74003295 10.5739177,5.13652274 C10.5336467,5.28480126 10.5107633,5.43740614 10.5057447,5.59115503 L10.5057447,6.71267475 C10.5057447,7.20093162 10.6531086,7.61353319 10.9478365,7.95117998 C11.2425644,8.28742574 11.6254353,8.45624913 12.096449,8.45624913 C12.6494081,8.45624913 13.0797935,8.2383899 13.3876051,7.80617399 C13.6961054,7.37255706 13.8503555,6.80093927 13.8503555,6.09062009 L13.8503555,6.09062009 Z M22.9462921,6.03598016 C22.9462921,7.17921575 22.641235,8.08287624 22.030432,8.7462611 C21.4829818,9.33679272 20.8040059,9.63170828 19.9928155,9.63170828 C19.1175838,9.63170828 18.4881883,9.31437634 18.106006,8.67831144 L18.106006,12.2053894 L16.6378755,12.2053894 L16.6378755,4.96699884 C16.6378755,4.24897403 16.6192828,3.51273591 16.5834747,2.75758397 L17.8746309,2.75758397 L17.9565762,3.82306273 L17.9841209,3.82306273 C18.4730387,3.02027597 19.216056,2.61888259 20.2138614,2.61888259 C20.9926868,2.61888259 21.6434295,2.93201146 22.1654009,3.55896971 C22.6846178,4.18732897 22.9462921,5.01253212 22.9462921,6.03598016 L22.9462921,6.03598016 Z M21.4499282,6.09062009 C21.4499282,5.43634188 21.3046301,4.89694764 21.0140339,4.47173685 C20.6965817,4.02971377 20.2717052,3.80835198 19.7373388,3.80835198 C19.3751264,3.80835198 19.0459677,3.93164209 18.7505512,4.17471976 C18.4558233,4.41989896 18.2636992,4.74003295 18.1734905,5.13652274 C18.1287304,5.32145791 18.1046288,5.47206799 18.1046288,5.59115503 L18.1046288,6.71267475 C18.1046288,7.20093162 18.2526814,7.61353319 18.5460321,7.95117998 C18.84076,8.28672523 19.2236308,8.45624913 19.6960218,8.45624913 C20.2496695,8.45624913 20.6800549,8.2383899 20.9871779,7.80617399 C21.2956781,7.37255706 21.4499282,6.80093927 21.4499282,6.09062009 L21.4499282,6.09062009 Z M31.4438209,6.86468586 C31.4438209,7.65836596 31.1711287,8.30353752 30.6291875,8.80160155 C30.0328455,9.34519887 29.200308,9.61769804 28.1329523,9.61769804 C27.1468533,9.61769804 26.3563215,9.42435673 25.7599795,9.03697359 L26.0994675,7.79216375 C26.743324,8.1802474 27.4505333,8.37358872 28.2204066,8.37358872 C28.7740544,8.37358872 29.2044397,8.24609553 29.5115627,7.9932107 C29.8193744,7.73962535 29.9750017,7.40057754 29.9750017,6.97746829 C29.9750017,6.5984913 29.8462304,6.28115936 29.5935081,6.02267043 C29.3394086,5.76488201 28.9193525,5.52460639 28.329208,5.30394511 C26.7247314,4.69520018 25.9218044,3.80484942 25.9218044,2.63359335 C25.9218044,1.86863424 26.2055145,1.2423765 26.7715573,0.752718612 C27.3376001,0.263761232 28.0881922,0.0192825423 29.0219563,0.0192825423 C29.855871,0.0192825423 30.5506852,0.167090575 31.1022671,0.46200613 L30.7338572,1.67949599 C30.2146403,1.3936871 29.6286276,1.25078265 28.9730646,1.25078265 C28.4552249,1.25078265 28.0489411,1.38037737 27.7583449,1.63816579 C27.513886,1.86863424 27.389935,2.14953955 27.389935,2.48298326 C27.389935,2.85075207 27.5311014,3.1561753 27.812057,3.39575041 C28.0558273,3.61641169 28.5006736,3.85668731 29.1438415,4.11447573 C29.9329961,4.43811227 30.5128113,4.81498773 30.8839756,5.24790415 C31.2578944,5.68082057 31.4438209,6.22091533 31.4438209,6.86468586 Z M36.3102744,3.87840318 L34.6920254,3.87840318 L34.6920254,7.14208861 C34.6920254,7.97219534 34.9771127,8.38619793 35.5486644,8.38619793 C35.8110274,8.38619793 36.0286302,8.36378155 36.2007844,8.31684725 L36.2414127,9.45097618 C35.9521938,9.56095657 35.5713888,9.61629702 35.0996864,9.61629702 C34.5198713,9.61629702 34.0667615,9.43626543 33.7396686,9.07620226 C33.413953,8.71613909 33.2500622,8.11299825 33.2500622,7.2639777 L33.2500622,3.87560113 L32.285999,3.87560113 L32.285999,2.75478192 L33.2500622,2.75478192 L33.2500622,1.52398233 L34.6920254,1.08125874 L34.6920254,2.75478192 L36.3102744,2.75478192 L36.3102744,3.87840318 L36.3102744,3.87840318 Z M43.5972152,6.06330012 C43.5972152,7.09655533 43.306619,7.94487537 42.7268039,8.60826024 C42.1201326,9.29125944 41.313074,9.63170828 40.3070051,9.63170828 C39.3360557,9.63170828 38.5641165,9.30456917 37.9884331,8.65099147 C37.4127496,7.99601275 37.1249078,7.1708096 37.1249078,6.17538204 C37.1249078,5.13372069 37.4223902,4.28049707 38.0152891,3.6171122 C38.6095652,2.95302682 39.4097377,2.62098413 40.4158066,2.62098413 C41.3853787,2.62098413 42.1642041,2.94882375 42.7536599,3.60310196 C43.3169483,4.23776584 43.5972152,5.05736488 43.5972152,6.06330012 Z M42.0753726,6.09762521 C42.0753726,5.48187516 41.9445354,4.95368911 41.6821725,4.51166603 C41.3743609,3.97787588 40.9336462,3.71098081 40.3627831,3.71098081 C39.7747045,3.71098081 39.3236606,3.97787588 39.0165376,4.51166603 C38.7534861,4.95368911 38.6226489,5.49098182 38.6226489,6.12564569 C38.6226489,6.74209626 38.7534861,7.27168333 39.0165376,7.71230538 C39.3339899,8.24609553 39.7767704,8.51299061 40.350388,8.51299061 C40.9116105,8.51299061 41.3516365,8.24049144 41.6697774,7.69899566 C41.9397151,7.2464649 42.0753726,6.71477629 42.0753726,6.09762521 Z M48.3713941,4.07104398 C48.2186978,4.04300042 48.0638076,4.02916651 47.9086437,4.02971377 C47.3921813,4.02971377 46.9927837,4.22725816 46.7118281,4.62514898 C46.4680578,4.97540498 46.3454841,5.41812857 46.3454841,5.95261923 L46.3454841,9.47969717 L44.8773535,9.47969717 L44.8773535,4.87453125 C44.8786628,4.1688798 44.8644278,3.4632871 44.8346593,2.75828448 L46.1134203,2.75828448 L46.1671324,4.04442452 L46.2077608,4.04442452 C46.3633881,3.60240145 46.6071584,3.24584084 46.941826,2.97894576 C47.2481595,2.74572971 47.6203642,2.61943637 48.0029842,2.61888259 C48.1386417,2.61888259 48.2612154,2.62868976 48.3700169,2.64620256 L48.3713941,4.07104398 L48.3713941,4.07104398 Z M54.9373534,5.80060812 C54.9410762,6.02764381 54.9230875,6.25450979 54.8836413,6.47800323 L50.4792495,6.47800323 C50.4957763,7.14208861 50.7092474,7.65066033 51.1182857,8.00091633 C51.4894501,8.31334469 51.9694158,8.47025937 52.5588716,8.47025937 C53.2109915,8.47025937 53.8059563,8.36518257 54.3410114,8.15292744 L54.5710093,9.18898469 C53.9457455,9.46638745 53.2075485,9.60438831 52.3557297,9.60438831 C51.3310682,9.60438831 50.526764,9.29756405 49.9414399,8.68531656 C49.3574931,8.07236856 49.064831,7.24856644 49.064831,6.21671225 C49.064831,5.20377189 49.3368346,4.35965493 49.8815303,3.68646289 C50.4517048,2.96773757 51.2222668,2.60837491 52.191839,2.60837491 C53.1441957,2.60837491 53.8651773,2.96773757 54.3547837,3.68646289 C54.7424749,4.25597915 54.9373534,4.96209525 54.9373534,5.80060812 L54.9373534,5.80060812 Z M53.5373958,5.41322498 C53.5477251,4.96980088 53.4513187,4.58802184 53.2523085,4.26508581 C52.998209,3.84898168 52.6070748,3.64163012 52.0830376,3.64163012 C51.6030718,3.64163012 51.2119376,3.84407809 50.9144552,4.25037505 C50.6699963,4.57331109 50.5246982,4.96139474 50.4799381,5.41182396 L53.5373958,5.41322498 Z" id="Shape"></path>
                    </g>
                    <path d="M22.4208619,5.15572201 C22.0145573,5.15572201 21.6630661,5.13544781 21.3704994,5.10119139 L21.3704994,0.603113953 C21.7796876,0.538617596 22.1931877,0.506827924 22.6072276,0.508001801 C24.2824634,0.508001801 25.0539625,1.34906494 25.0539625,2.72002077 C25.0539625,4.30140889 24.1426891,5.15572201 22.4208619,5.15572201 Z M22.6661521,1.08480114 C22.4400466,1.08480114 22.2475144,1.09878335 22.0878703,1.13234066 L22.0878703,4.55169048 C22.1742015,4.56567269 22.3400121,4.57196468 22.5729692,4.57196468 C23.6706083,4.57196468 24.2954815,3.93437584 24.2954815,2.74029498 C24.2954815,1.67554957 23.730218,1.08480114 22.6661521,1.08480114 L22.6661521,1.08480114 Z M27.458217,5.18997843 C26.5140555,5.18997843 25.9022005,4.47059365 25.9022005,3.49393618 C25.9022005,2.47603118 26.5270737,1.75035441 27.5116601,1.75035441 C28.4421182,1.75035441 29.0676766,2.43548277 29.0676766,3.44010466 C29.0676766,4.47059365 28.4229335,5.18997843 27.458217,5.18997843 Z M27.4856237,2.28587311 C26.9669515,2.28587311 26.634645,2.78084339 26.634645,3.47296286 C26.634645,4.15179923 26.9738032,4.64676951 27.478772,4.64676951 C27.9837408,4.64676951 28.322899,4.11754281 28.322899,3.45898065 C28.322899,2.7878345 27.9905925,2.28587311 27.4856237,2.28587311 Z M34.4517266,1.81816813 L33.4411038,5.1151736 L32.7826574,5.1151736 L32.3640197,3.68339514 C32.2599282,3.33317252 32.173258,2.97780371 32.1043411,2.61864974 L32.0906377,2.61864974 C32.0378798,2.97799257 31.9378452,3.33803452 31.8316442,3.68339514 L31.386285,5.1151736 L30.7209869,5.1151736 L29.7699737,1.81816813 L30.5078997,1.81816813 L30.8737794,3.38557404 C30.9601105,3.75889909 31.0327383,4.11125081 31.0930331,4.44402745 L31.1067365,4.44402745 C31.1594944,4.16648055 31.2458256,3.81972171 31.3725817,3.39256514 L31.8316442,1.81886724 L32.4167777,1.81886724 L32.8559703,3.35900784 C32.9621714,3.73233288 33.0485025,4.09866682 33.115649,4.44472656 L33.1348337,4.44472656 C33.1814251,4.10565793 33.2547381,3.74561598 33.3540875,3.35900784 L33.7466887,1.81886724 L34.4517266,1.81816813 L34.4517266,1.81816813 Z M38.1721887,5.1151736 L37.4541327,5.1151736 L37.4541327,3.22198216 C37.4541327,2.63892395 37.2348789,2.34669573 36.8025379,2.34669573 C36.3770486,2.34669573 36.0844819,2.72002077 36.0844819,3.15416844 L36.0844819,5.1151736 L35.3664258,5.1151736 L35.3664258,2.76056919 C35.3664258,2.46904008 35.3595742,2.15653765 35.3397043,1.81746902 L35.9714292,1.81746902 L36.0050024,2.32642152 L36.0248723,2.32642152 C36.2180896,1.97406979 36.6100057,1.75035441 37.0491984,1.75035441 C37.7275147,1.75035441 38.1728739,2.27958111 38.1728739,3.14088534 L38.1721887,5.1151736 L38.1721887,5.1151736 Z M40.1523242,5.1151736 L39.433583,5.1151736 L39.433583,0.305292849 L40.1523242,0.305292849 L40.1523242,5.1151736 Z M42.7703511,5.18997843 C41.8268748,5.18997843 41.2143346,4.47059365 41.2143346,3.49393618 C41.2143346,2.47603118 41.8392078,1.75035441 42.823109,1.75035441 C43.7542523,1.75035441 44.379126,2.43548277 44.379126,3.44010466 C44.3798107,4.47059365 43.7343824,5.18997843 42.7703511,5.18997843 Z M42.7970726,2.28587311 C42.2784005,2.28587311 41.946094,2.78084339 41.946094,3.47296286 C41.946094,4.15179923 42.2859373,4.64676951 42.7895358,4.64676951 C43.2951897,4.64676951 43.6336638,4.11754281 43.6336638,3.45898065 C43.6343479,2.7878345 43.3027266,2.28587311 42.7970726,2.28587311 L42.7970726,2.28587311 Z M47.2102396,5.1151736 L47.1581668,4.73555656 L47.1389821,4.73555656 C46.9197284,5.04106788 46.5997549,5.18997843 46.1941355,5.18997843 C45.6151685,5.18997843 45.2040677,4.77610497 45.2040677,4.21961295 C45.2040677,3.40584825 45.8954022,2.98498368 47.0923907,2.98498368 L47.0923907,2.92416106 C47.0923907,2.49001339 46.8669704,2.27259 46.4216113,2.27259 C46.1030081,2.27259 45.8234596,2.35438594 45.5774843,2.51727871 L45.4315435,2.03559152 C45.7302768,1.84543344 46.1030081,1.75035441 46.5408305,1.75035441 C47.3849574,1.75035441 47.8111319,2.20477628 47.8111319,3.11431914 L47.8111319,4.3286742 C47.8111319,4.66145084 47.8255205,4.91942264 47.8577234,5.11587271 L47.2102396,5.1151736 L47.2102396,5.1151736 Z M47.1115754,3.47296286 C46.3140399,3.47296286 45.9139018,3.67011204 45.9139018,4.13781702 C45.9139018,4.48387675 46.1201373,4.65306151 46.4065376,4.65306151 C46.7717321,4.65306151 47.1115754,4.36852351 47.1115754,3.98191536 L47.1115754,3.47296286 L47.1115754,3.47296286 Z M51.2979518,5.1151736 L51.2643786,4.58594689 L51.2445087,4.58594689 C51.0382731,4.98583814 50.6915781,5.18997843 50.2071644,5.18997843 C49.4281284,5.18997843 48.8512169,4.49086786 48.8512169,3.50721928 C48.8512169,2.47603118 49.4493686,1.7496553 50.2660888,1.7496553 C50.6984298,1.7496553 51.0046999,1.89856585 51.1773622,2.19778517 L51.1917508,2.19778517 L51.1917508,0.305292849 L51.910492,0.305292849 L51.910492,4.22660406 C51.910492,4.54539848 51.9180288,4.8439187 51.9372135,5.1151736 L51.2979518,5.1151736 Z M51.1917508,3.17514176 C51.1917508,2.71372878 50.8923324,2.32012952 50.4353253,2.32012952 C49.9029498,2.32012952 49.577495,2.80181671 49.577495,3.47995397 C49.577495,4.14480812 49.9152828,4.59992911 50.4209368,4.59992911 C50.8724625,4.59992911 51.1917508,4.19933875 51.1917508,3.72464267 L51.1917508,3.17514176 Z M56.4675442,5.18997843 C55.5240679,5.18997843 54.9122129,4.47059365 54.9122129,3.49393618 C54.9122129,2.47603118 55.5370861,1.75035441 56.5209873,1.75035441 C57.4521306,1.75035441 58.0770044,2.43548277 58.0770044,3.44010466 C58.077689,4.47059365 57.4329459,5.18997843 56.4675442,5.18997843 Z M56.4942658,2.28587311 C55.9762788,2.28587311 55.6439723,2.78084339 55.6439723,3.47296286 C55.6439723,4.15179923 55.9831305,4.64676951 56.4874141,4.64676951 C56.9930681,4.64676951 57.3315453,4.11754281 57.3315453,3.45898065 C57.3329114,2.7878345 57.0006049,2.28587311 56.4942658,2.28587311 Z M61.9386106,5.1151736 L61.2198694,5.1151736 L61.2198694,3.22198216 C61.2198694,2.63892395 61.0006156,2.34669573 60.5682746,2.34669573 C60.1427853,2.34669573 59.8509037,2.72002077 59.8509037,3.15416844 L59.8509037,5.1151736 L59.1321625,5.1151736 L59.1321625,2.76056919 C59.1321625,2.46904008 59.1253109,2.15653765 59.105441,1.81746902 L59.7371659,1.81746902 L59.7707391,2.32642152 L59.790609,2.32642152 C59.9831412,1.97406979 60.3757424,1.7496553 60.8142499,1.7496553 C61.4925662,1.7496553 61.9386106,2.278882 61.9386106,3.14018623 L61.9386106,5.1151736 Z M66.7697301,2.36766904 L65.9797314,2.36766904 L65.9797314,3.96863226 C65.9797314,4.37621372 66.1181353,4.5796549 66.3976838,4.5796549 C66.5244399,4.5796549 66.630641,4.56567269 66.7162869,4.54539848 L66.7361568,5.1018905 C66.5970677,5.15642112 66.410702,5.18368644 66.1791152,5.18368644 C65.6131665,5.18368644 65.2746935,4.86489201 65.2746935,4.03015399 L65.2746935,2.36766904 L64.8032979,2.36766904 L64.8032979,1.81816813 L65.2746935,1.81816813 L65.2746935,1.2141366 L65.9797314,0.996713207 L65.9797314,1.81746902 L66.7697301,1.81746902 L66.7697301,2.36766904 L66.7697301,2.36766904 Z M70.571042,5.1151736 L69.8536711,5.1151736 L69.8536711,3.23596438 C69.8536711,2.64591505 69.6351026,2.34739484 69.2020764,2.34739484 C68.8300302,2.34739484 68.4833352,2.60536664 68.4833352,3.12760224 L68.4833352,5.1151736 L67.7659643,5.1151736 L67.7659643,0.305292849 L68.4833352,0.305292849 L68.4833352,2.28587311 L68.4977237,2.28587311 C68.7238291,1.92653027 69.0513394,1.7496553 69.4692919,1.7496553 C70.1530896,1.7496553 70.571042,2.2921651 70.571042,3.15416844 L70.571042,5.1151736 L70.571042,5.1151736 Z M74.4655369,3.64284673 L72.3106835,3.64284673 C72.3243869,4.26715247 72.7293212,4.6195042 73.3288432,4.6195042 C73.6474463,4.6195042 73.9406982,4.56497358 74.1996917,4.46360254 L74.3113741,4.97255504 C74.0057891,5.10818249 73.6460759,5.17599622 73.2274383,5.17599622 C72.2168155,5.17599622 71.6186639,4.52442516 71.6186639,3.51421038 C71.6186639,2.50329649 72.2312041,1.7433633 73.1465885,1.7433633 C73.9722159,1.7433633 74.4902029,2.36766904 74.4902029,3.31076921 C74.494846,3.42206693 74.4865665,3.53353432 74.4655369,3.64284673 L74.4655369,3.64284673 Z M73.8070904,3.12061113 C73.8070904,2.61165863 73.5556338,2.2523158 73.0965712,2.2523158 C72.6841001,2.2523158 72.3579601,2.61864974 72.3113687,3.12061113 L73.8070904,3.12061113 L73.8070904,3.12061113 Z" id="Shape"></path>
                </g>
            </g>
        </g>
    </g>
</svg>