<?xml version="1.0" encoding="UTF-8"?>
<svg width="70px" height="71px" viewBox="0 0 70 71" version="1.1" xmlns="http://www.w3.org/2000/svg" xmlns:xlink="http://www.w3.org/1999/xlink">
    <!-- Generator: Sketch 53.2 (72643) - https://sketchapp.com -->
    <title>ic_redeem</title>
    <desc>Created with Sketch.</desc>
    <defs>
        <polygon id="path-1" points="6.81818182e-05 0.0729545455 69.9270455 0.0729545455 69.9270455 69.9999773 6.81818182e-05 69.9999773"></polygon>
    </defs>
    <g id="Page-1" stroke="none" stroke-width="1" fill="none" fill-rule="evenodd">
        <g id="web-page" transform="translate(-1069.000000, -1323.000000)">
            <g id="ic_redeem" transform="translate(1069.000000, 1323.154318)">
                <mask id="mask-2" fill="white">
                    <use xlink:href="#path-1"></use>
                </mask>
                <g id="Clip-2"></g>
                <path d="M69.9271136,35.0365682 C69.9271136,44.1642955 66.4305227,52.4731591 60.70325,58.6974773 C58.1839318,61.4370227 55.2355227,63.7754318 51.9593864,65.5942955 C46.9323409,68.4015682 41.1371136,69.9999773 34.9634773,69.9999773 C15.6516591,69.9999773 6.81818182e-05,54.3483864 6.81818182e-05,35.0365682 C6.81818182e-05,15.7245227 15.6516591,0.0729318182 34.9634773,0.0729318182 C41.1371136,0.0729318182 46.9323409,1.67134091 51.9593864,4.47861364 C55.2355227,6.29747727 58.1839318,8.63588636 60.70325,11.3754318 C66.4305227,17.59975 69.9271136,25.9088409 69.9271136,35.0365682" id="Fill-1" fill="#F0F1F2" mask="url(#mask-2)"></path>
                <path d="M36.9945455,19.9295909 C39.8947727,19.7814091 42.6545455,19.5486818 45.2190909,18.3489091 C45.7784091,18.0875455 46.3,17.7020909 46.7629545,17.2886818 C47.45,16.6752727 47.6813636,15.8589091 47.5479545,14.9439091 C47.3845455,13.8243636 46.9025,12.8359545 46.2568182,11.9291364 C45.5572727,10.9461818 44.7927273,10.7593636 43.7659091,11.4007273 C43.0981818,11.8175455 42.4736364,12.3343636 41.9188636,12.8945909 C40.4568182,14.3711818 39.3040909,16.0898182 38.2181818,17.8523182 C37.8163636,18.5043636 37.4397727,19.1718636 36.9945455,19.9295909 M32.9072727,19.9455 C32.5390909,19.3073182 32.2490909,18.7802727 31.9363636,18.2675455 C30.6713636,16.1923182 29.3438636,14.1584545 27.5625,12.4793636 C27.0556818,12.0016364 26.4663636,11.5827727 25.8520455,11.2548182 C25.0211364,10.8107273 24.4022727,10.9718636 23.8043182,11.6993636 C23.0936364,12.5639091 22.6184091,13.5552727 22.3763636,14.6509545 C22.1047727,15.8809545 22.4643182,16.9182273 23.4886364,17.6289091 C24.1654545,18.0984545 24.9193182,18.4920909 25.6897727,18.7845909 C27.3434091,19.4127727 29.0886364,19.6584545 30.8440909,19.8111818 C31.4902273,19.8673182 32.1384091,19.8964091 32.9072727,19.9455 M34.9347727,18.4355 C35.3063636,17.7984545 35.6325,17.2198182 35.9772727,16.6523182 C37.2204545,14.6070909 38.5706818,12.6414091 40.2836364,10.9509545 C41.0734091,10.1716364 41.9286364,9.47777273 42.9420455,9.00277273 C44.8379545,8.11413636 46.6270455,8.46390909 47.9777273,10.0582273 C49.0590909,11.3348182 49.7629545,12.8198182 50.0277273,14.4768636 C50.375,16.6495909 49.5743182,18.3814091 47.8504545,19.6970909 C46.3575,20.8361818 44.6109091,21.3875455 42.8084091,21.7939091 C42.6622727,21.8268636 42.5165909,21.8598182 42.3747727,21.9752727 L42.8820455,21.9752727 C46.3363636,21.9752727 49.7911364,21.9975455 53.245,21.9625455 C54.3577273,21.9514091 55.1686364,22.7214091 55.1552273,23.8734545 C55.1143182,27.4043636 55.1418182,30.9359545 55.1406818,34.4673182 C55.1402273,35.6845909 54.4804545,36.3368636 53.2531818,36.3370909 C48.9125,36.3377727 44.5722727,36.3309545 40.2318182,36.3482273 C39.8206818,36.3498182 39.7529545,36.2195909 39.7538636,35.8484545 C39.7654545,31.1357273 39.7615909,26.4227727 39.7613636,21.7100455 L39.7613636,21.1918636 L30.1365909,21.1918636 C30.1275,21.3545909 30.1106818,21.5159545 30.1106818,21.6775455 C30.1131818,26.3775455 30.1175,31.0775455 30.1211364,35.7773182 C30.1215909,36.3268636 30.1213636,36.3264091 29.5854545,36.3264091 C25.2577273,36.3266364 20.9302273,36.3277727 16.6027273,36.3264091 C15.6611364,36.3259545 15.0181818,35.8668636 14.8206818,35.0511818 C14.7788636,34.8793636 14.7740909,34.6955 14.7740909,34.5170909 C14.7713636,30.9598182 14.7706818,27.403 14.7727273,23.8457273 C14.7734091,22.6455 15.4340909,21.9848182 16.6272727,21.9845909 C20.1329545,21.9839091 23.6386364,21.9848182 27.1443182,21.9850455 L27.595,21.9850455 C27.5975,21.9595909 27.6,21.9339091 27.6027273,21.9084545 C27.1238636,21.7920909 26.6425,21.6852727 26.1665909,21.558 C24.7070455,21.168 23.3102273,20.6350455 22.0852273,19.7218636 C20.1363636,18.2686818 19.3984091,16.1932273 20,13.8400455 C20.3281818,12.5555 20.8984091,11.3816364 21.6981818,10.328 C23.0854545,8.50072727 25.0436364,8.05527273 27.0954545,9.08868182 C28.3661364,9.72845455 29.3902273,10.6800455 30.3318182,11.7245909 C32.0347727,13.6134545 33.4004545,15.7386818 34.6497727,17.9432273 C34.7313636,18.0873182 34.8156818,18.2298182 34.9347727,18.4355" id="Fill-4" fill="#17335C" mask="url(#mask-2)"></path>
                <path d="M39.7850682,37.7549545 L52.6884773,37.7549545 C52.6977955,37.8967727 52.7146136,38.0308636 52.7146136,38.1649545 C52.7152955,44.3790455 52.7155227,50.5935909 52.7127955,56.8079091 C52.7123409,57.8347273 52.0248409,58.5383636 51.0073409,58.5399545 C47.36075,58.5456364 43.7143864,58.5426818 40.0677955,58.542 C39.9809773,58.5417727 39.8941591,58.5290455 39.7850682,58.5204091 L39.7850682,37.7549545 Z" id="Fill-6" fill="#D84E55" mask="url(#mask-2)"></path>
                <path d="M17.2066136,37.7722727 L30.0943409,37.7722727 C30.1036591,37.9395455 30.1191136,38.0888636 30.1191136,38.2377273 C30.1204773,44.8477273 30.11775,51.4577273 30.1279773,58.0675 C30.1286591,58.4315909 30.0407045,58.5436364 29.6609318,58.5420455 C26.1316136,58.5268182 22.6018409,58.5334091 19.0722955,58.5331818 C17.8361591,58.5329545 17.2066136,57.8993182 17.2066136,56.6584091 C17.2066136,50.5490909 17.2066136,44.4395455 17.2066136,38.3302273 L17.2066136,37.7722727 Z" id="Fill-8" fill="#D84E55" mask="url(#mask-2)"></path>
                <polygon id="Fill-10" fill="#FED67A" mask="url(#mask-2)" points="30.1365909 58.5434091 39.7613636 58.5434091 39.7613636 21.1918182 30.1365909 21.1918182"></polygon>
            </g>
        </g>
    </g>
</svg>