<svg xmlns="http://www.w3.org/2000/svg" width="54" height="54" viewBox="0 0 54 54">
    <g fill="none" fill-rule="evenodd">
        <g fill-rule="nonzero">
            <g transform="translate(-511 -1608) translate(511 1608)">
                <circle cx="27" cy="27" r="26.678" fill="#EDEDED"/>
                <rect width="25.781" height="4.616" x="18.748" y="38.231" fill="#FBC00D" rx="2.308"/>
                <path fill="#3B3C40" d="M43.326 43.065H19.95c-.377 0-.738-.15-1.004-.416-.267-.266-.416-.627-.416-1.004v-2.212c.002-.783.636-1.417 1.42-1.42h23.376c.783.003 1.418.637 1.42 1.42v2.212c0 .784-.636 1.42-1.42 1.42zM19.95 38.449c-.544 0-.985.44-.985.984v2.212c0 .544.441.985.985.985h23.376c.544 0 .984-.441.984-.985v-2.212c0-.543-.44-.984-.984-.984H19.95z"/>
                <rect width="25.781" height="4.616" x="16.143" y="33.602" fill="#FFF" rx="2.308"/>
                <path fill="#3B3C40" d="M40.722 38.431H17.345c-.782 0-1.417-.633-1.42-1.415v-2.212c0-.784.636-1.42 1.42-1.42h23.377c.784 0 1.42.636 1.42 1.42v2.212c-.003.782-.638 1.415-1.42 1.415zM17.345 33.82c-.26 0-.511.103-.696.288-.184.185-.288.435-.288.696v2.212c.003.542.442.98.984.98h23.377c.542 0 .982-.438.984-.98v-2.212c0-.261-.103-.511-.288-.696-.185-.185-.435-.288-.696-.288H17.345z"/>
                <rect width="25.781" height="4.616" x="18.286" y="28.912" fill="#FBC00D" rx="2.308"/>
                <path fill="#3B3C40" d="M42.865 33.746H19.488c-.783-.003-1.417-.637-1.42-1.42v-2.212c0-.784.636-1.42 1.42-1.42h23.377c.783.002 1.417.637 1.42 1.42v2.212c-.003.783-.637 1.417-1.42 1.42zM19.488 29.13c-.261 0-.511.103-.696.288-.185.184-.288.435-.288.696v2.212c0 .261.103.511.288.696.185.184.435.288.696.288h23.377c.542-.002.981-.441.984-.984v-2.212c0-.544-.44-.984-.984-.984H19.488z"/>
                <rect width="25.781" height="4.616" x="14.349" y="24.278" fill="#FFF" rx="2.308"/>
                <path fill="#3B3C40" d="M38.928 29.112H15.55c-.784 0-1.42-.636-1.42-1.42V25.48c.003-.783.637-1.417 1.42-1.42h23.377c.783.003 1.417.637 1.42 1.42v2.212c-.003.783-.637 1.418-1.42 1.42zM15.55 24.496c-.543 0-.984.44-.984.984v2.212c0 .544.44.985.984.985h23.377c.26 0 .511-.104.696-.289.184-.184.288-.435.288-.696V25.48c-.002-.542-.442-.982-.984-.984H15.55z"/>
                <circle cx="19.049" cy="28.35" r="14.502" fill="#CA5858" transform="rotate(-15.69 19.05 28.35)"/>
                <path fill="#3B3C40" d="M19.052 43.065c-8.129 0-14.719-6.59-14.719-14.72 0-8.129 6.59-14.719 14.72-14.719 8.129 0 14.719 6.59 14.719 14.72 0 8.129-6.59 14.719-14.72 14.719zm0-29.003c-7.877.014-14.257 6.402-14.262 14.28 0 7.887 6.392 14.283 14.28 14.288 7.889 0 14.284-6.396 14.284-14.284 0-7.89-6.395-14.284-14.284-14.284h-.018z"/>
                <circle cx="19.054" cy="28.343" r="12.18" fill="#FFF" transform="rotate(-30 19.054 28.343)"/>
                <path fill="#3B3C40" d="M19.052 40.744c-4.484.084-8.664-2.26-10.93-6.13-2.267-3.87-2.267-8.662 0-12.532 2.266-3.87 6.446-6.214 10.93-6.13 6.756.126 12.166 5.639 12.166 12.396 0 6.757-5.41 12.27-12.166 12.396zm0-24.357c-6.516.125-11.734 5.443-11.734 11.96 0 6.519 5.218 11.837 11.734 11.961 6.517-.124 11.735-5.442 11.735-11.96 0-6.518-5.218-11.836-11.735-11.96z"/>
                <path fill="#3B3C40" d="M14.95 23.028c-.21.023-.42-.046-.574-.19-.155-.144-.24-.348-.231-.559-.002-.187.068-.368.195-.505.163-.156.385-.236.61-.218h7.665c.209-.022.418.047.572.19.155.142.24.345.233.555.003.188-.066.37-.191.51-.165.156-.388.236-.614.217h-2.343c-.353 0-.527-.026-.597-.039v.083c.321.148.61.358.85.618.287.314.5.69.622 1.098h1.468c.209-.023.418.046.572.189.155.142.24.345.233.555.003.188-.066.37-.191.51-.165.157-.388.236-.614.218h-1.368c-.05.569-.227 1.12-.518 1.611-.26.431-.6.808-1.002 1.11-.396.29-.837.514-1.306.662-.454.148-.923.246-1.398.292l4.682 4.468c.207.193.326.462.33.745.007.244-.082.482-.248.662-.177.186-.427.285-.683.27-.149-.002-.296-.027-.436-.074-.166-.065-.315-.168-.435-.3l-5.531-5.366c-.138-.122-.25-.27-.331-.435-.067-.136-.103-.285-.105-.436-.007-.242.082-.477.249-.653.17-.171.403-.264.644-.257h.27c.427 0 .852-.039 1.272-.113.399-.07.784-.204 1.14-.396.335-.18.63-.422.872-.715.24-.32.39-.699.435-1.097H14.95c-.227.02-.45-.064-.61-.227-.126-.142-.196-.327-.195-.518-.002-.188.068-.37.195-.51.163-.156.385-.235.61-.217h4.102c-.361-1.158-1.415-1.742-3.17-1.742l-.932.004z"/>
            </g>
        </g>
    </g>
</svg>
