<svg xmlns="http://www.w3.org/2000/svg" width="120" height="120" viewBox="0 0 120 120">
    <g fill="none" fill-rule="evenodd">
        <g fill-rule="nonzero">
            <g transform="translate(-736 -5737) translate(736 5737)">
                <circle cx="60" cy="60" r="59.284" fill="#FFF1DC"/>
                <path fill="#D25257" d="M72.861 98.468c-3.52-.384-6.967-1.28-10.229-2.662-7.198-3.078-13.82-7.362-19.577-12.667-6.691-5.868-12.348-12.82-16.732-20.565-2.565-4.427-4.37-9.251-5.342-14.274-.339-1.406-.057-2.89.774-4.074 3.034-4.49 6.556-8.632 10.5-12.349.457-.397.939-.766 1.442-1.103.644-.514 1.572-.464 2.158.116.477.376.903.812 1.268 1.297 3.186 4.353 5.983 8.977 8.36 13.82 1.2 2.516 1.065 3.01-1.035 4.838-1.47 1.316-2.903 2.632-4.422 3.93-.325.25-.437.689-.271 1.064 1.663 5.63 4.742 10.742 8.942 14.845 3.756 3.78 8.332 6.644 13.374 8.37 1.935.659 1.935.659 3.261-.812 1.045-1.132 2.013-2.332 3.03-3.494.28-.319.59-.619.89-.967.67-.856 1.861-1.101 2.816-.581 2.303 1.152 4.635 2.255 6.851 3.552 2.555 1.49 5.004 3.145 7.481 4.77.631.42 1.212.91 1.732 1.462.417.298.68.765.717 1.275.037.511-.155 1.012-.523 1.367-1.125 1.394-2.337 2.716-3.63 3.958-3.16 3.066-6.626 5.8-10.344 8.158-.478.28-.976.523-1.49.726z"/>
                <path fill="#3B3C40" d="M72.861 98.952h-.048c-3.569-.393-7.06-1.306-10.365-2.71-7.247-3.102-13.913-7.416-19.713-12.755-6.72-5.912-12.411-12.9-16.838-20.68-2.593-4.47-4.415-9.345-5.39-14.42-.366-1.534-.056-3.151.851-4.442 3.05-4.52 6.599-8.686 10.577-12.416.444-.392.912-.754 1.404-1.084l.087-.068c.826-.632 1.988-.575 2.748.136.506.416.958.894 1.345 1.422 3.186 4.378 5.983 9.024 8.362 13.888 1.287 2.7 1.142 3.416-1.152 5.467l-4.423 3.871c-.164.145-.222.233-.125.562 3.272 10.7 11.444 19.202 22.006 22.896 1.607.562 1.607.562 2.748-.677.668-.726 1.307-1.48 1.936-2.226l1.074-1.268c.194-.222.407-.425.61-.638l.3-.31c.824-1.002 2.24-1.286 3.387-.677l1.452.725c1.8.89 3.658 1.81 5.419 2.846 2.139 1.238 4.229 2.622 6.261 3.958l1.239.822c.664.441 1.274.958 1.82 1.539.496.382.806.96.848 1.585.043.626-.185 1.24-.626 1.686-1.138 1.416-2.367 2.758-3.678 4.016-3.182 3.09-6.675 5.843-10.422 8.216-.385.221-.79.406-1.21.552l-.3.116c-.058.031-.12.054-.184.068zM34.713 30.91c-.267.007-.524.099-.736.261l-.087.058c-.457.296-.896.62-1.316.968-3.92 3.707-7.416 7.839-10.422 12.32-.756 1.08-1.01 2.434-.697 3.715.959 4.97 2.745 9.742 5.284 14.12 4.37 7.687 9.993 14.591 16.635 20.429 5.717 5.27 12.292 9.525 19.442 12.58 3.182 1.353 6.542 2.24 9.978 2.633l.232-.088c.358-.123.705-.279 1.035-.464 3.69-2.343 7.13-5.057 10.268-8.1 1.276-1.229 2.472-2.538 3.58-3.92.61-.745.572-1.228-.174-1.993-.489-.53-1.041-.998-1.645-1.394l-1.238-.822c-2.023-1.336-4.104-2.7-6.213-3.939-1.733-.968-3.58-1.935-5.362-2.806l-1.46-.726c-.766-.424-1.726-.222-2.256.474l-.31.32c-.193.193-.386.396-.56.6-.368.416-.717.832-1.075 1.258-.648.754-1.297 1.51-1.935 2.245-1.471 1.596-1.723 1.655-3.775.967-5.103-1.765-9.736-4.671-13.548-8.496-4.25-4.165-7.367-9.344-9.058-15.049-.24-.557-.087-1.206.377-1.596l4.423-3.93c1.935-1.751 2.013-2.032.968-4.325-2.362-4.812-5.137-9.41-8.294-13.742-.341-.451-.738-.858-1.18-1.21-.239-.225-.554-.35-.881-.348z"/>
                <path fill="#3B3C40" d="M79.074 42.58h2.39c.655-.013 1.286.24 1.75.703.463.461.72 1.092.709 1.746v19.355c.03.67-.223 1.32-.699 1.793-.476.472-1.129.72-1.798.684H57.29c-.68.026-1.34-.237-1.818-.723-.477-.486-.727-1.151-.688-1.832v-19.21c-.031-.679.227-1.34.71-1.82.483-.479 1.146-.732 1.825-.695h2.323v-2.41c-.064-3.288 1.6-6.369 4.384-8.12 2.92-2.056 6.766-2.24 9.87-.474 3.155 1.598 5.15 4.826 5.169 8.362.038.842.01 1.674.01 2.642zm-4.839 0c.049-.937.049-1.877 0-2.815-.143-1.76-1.234-3.302-2.846-4.023-1.611-.72-3.487-.507-4.895.558-2.013 1.442-2.226 3.377-1.878 6.28h9.62z"/>
                <path fill="#FFF" d="M74.206 54.755c0-2.664-2.153-4.826-4.816-4.838-2.663-.013-4.836 2.13-4.86 4.793-.026 2.664 2.107 4.846 4.77 4.884 1.295.018 2.543-.484 3.465-1.394.922-.909 1.442-2.15 1.441-3.445z"/>
            </g>
        </g>
    </g>
</svg>
