<svg xmlns="http://www.w3.org/2000/svg" width="250" height="168" viewBox="0 0 250 168">
    <g fill="none" fill-rule="evenodd">
        <path fill="#E5EBF8" d="M48.708 135.566L48.708 6.118 52.578 6.118 52.578 135.566 57.681 135.566 57.681 6.118 61.551 6.118 61.551 135.566 66.641 135.566 66.641 6.118 70.511 6.118 70.511 135.566 73.764 135.566 73.764 0 45.455 0 45.455 135.566zM108.054 135.566v-81.34H79.346v81.34h28.708zm-5.85-76.088h3.502v7.77h-3.502v-7.77zm0 13.787h3.502v7.784h-3.502v-7.784zm0 14.144h3.502v7.771h-3.502v-7.771zm0 13.787h3.502v7.785h-3.502v-7.785zm0 14.144h3.502v7.771h-3.502v-7.77zm-6.832-55.862h3.502v7.77h-3.502v-7.77zm0 13.787h3.502v7.784h-3.502v-7.784zm0 14.144h3.502v7.771h-3.502v-7.771zm0 13.787h3.502v7.785h-3.502v-7.785zm0 14.144h3.502v7.771h-3.502v-7.77zm-6.846-55.862h3.503v7.77h-3.503v-7.77zm0 13.787h3.503v7.784h-3.503v-7.784zm0 14.144h3.503v7.771h-3.503v-7.771zm0 13.787h3.503v7.785h-3.503v-7.785zm0 14.144h3.503v7.771h-3.503v-7.77zm-6.819-55.862h3.503v7.77h-3.503v-7.77zm0 13.787h3.503v7.784h-3.503v-7.784zm0 14.144h3.503v7.771h-3.503v-7.771zm0 13.787h3.503v7.785h-3.503v-7.785zm0 14.144h3.503v7.771h-3.503v-7.77zM9.924 135.566v-3.51h3.502v3.51h3.33v-3.51h3.502v3.51h3.343v-3.51h3.49v3.51h3.342v-3.51h3.503v3.51h2.348V70.973H7.576v64.593h2.348zm20.51-59.163h3.502v7.757h-3.503v-7.757zm0 13.739h3.502v7.757h-3.503v-7.757zm0 14.094h3.502v7.796h-3.503v-7.796zm0 13.739h3.502v7.757h-3.503v-7.757zM23.6 76.39h3.49v7.757H23.6V76.39zm0 13.739h3.49v7.757H23.6v-7.757zm0 14.094h3.49v7.81H23.6v-7.81zm0 13.739h3.49v7.757H23.6v-7.757zM16.756 76.39h3.502v7.757h-3.502V76.39zm0 13.739h3.502v7.757h-3.502v-7.757zm0 14.094h3.502v7.81h-3.502v-7.81zm0 13.739h3.502v7.757h-3.502v-7.757zM9.924 76.39h3.502v7.757H9.924V76.39zm0 13.739h3.502v7.757H9.924v-7.757zm0 14.094h3.502v7.81H9.924v-7.81zm0 13.739h3.502v7.757H9.924v-7.757z"/>
        <path fill="#F38A6B" fill-rule="nonzero" d="M124.739 93.186c-.423-.6-.607-1.331-.516-2.056 1.124.344 2.173.89 3.093 1.614 2.098 1.257 4.622 1.633 7.004 1.04l-2.26-2.875c2.466.093 4.836.97 6.754 2.498 1.908 1.538 3.632 3.284 5.14 5.205.188.182.32.412.384.663.003.286-.09.565-.264.794-.722 1.185-1.612 2.263-2.643 3.2-1.123-1.26-2.563-2.208-4.177-2.745-1.024-.185-2.07-.22-3.105-.104-1.911.154-3.834.004-5.697-.442-1.875-.47-3.51-1.6-4.599-3.175 1.32.248 2.616.61 3.873 1.08-2.062-1.418-4.335-3.162-4.52-5.634.595.153 1.13.48 1.533.937z"/>
        <path fill="#242637" fill-rule="nonzero" d="M168.736 100.478c-3.287-1.203-6.253-3.135-8.672-5.646-2.43-2.568-3.636-6.042-3.314-9.547.53-3.94 3.38-7.104 6.125-10.111.73-.788 1.472-1.602 2.161-2.417.925-.89 1.466-2.099 1.512-3.374-.224-1.114-.816-2.121-1.684-2.863-.38-.413-.73-.852-1.047-1.313-1.332-2.1-1.56-4.706-.61-7 .938-2.242 2.417-4.221 4.309-5.764 4.726-4.152 10.648-6.733 16.931-7.38.038-.014.08-.007.112.016.032.024.05.062.047.102.008.037 0 .075-.023.105s-.058.05-.096.052c-6.248.632-12.137 3.19-16.839 7.315-1.85 1.515-3.301 3.453-4.23 5.646-.918 2.211-.7 4.726.584 6.75.314.433.655.845 1.021 1.234.91.786 1.53 1.848 1.764 3.02-.036 1.356-.607 2.643-1.591 3.586-.69.814-1.432 1.628-2.162 2.416-2.651 2.98-5.529 6.054-6.059 9.954-.303 3.43.884 6.825 3.262 9.336 2.385 2.477 5.31 4.381 8.552 5.568.037.012.067.039.082.074.016.035.015.076-.003.11-.006.07-.062.125-.132.131z"/>
        <path fill="#242637" fill-rule="nonzero" d="M197.177 98.683c1.8-1.216 4.192-.49 6.347-.635 2.986-.336 5.616-2.131 7.03-4.798 1.362-2.66 1.854-5.686 1.406-8.645-.617-5.076-3.521-10.086-8.186-12.108-1.643-.714-3.496-1.084-4.783-2.327-2.168-2.088-1.814-5.618-1.17-8.579 1.27-5.104-.612-10.479-4.783-13.655-6.044-4.732-13.666-3.066-19.592.912-5.098 3.41-9.724 9.756-5.374 15.638 1.09 1.48 2.72 2.644 3.403 4.296.6 1.758.398 3.693-.552 5.288-.935 1.57-2.032 3.036-3.272 4.375-3.127 3.807-5.703 8.658-4.783 13.51.654 2.999 2.368 5.657 4.823 7.481 2.443 1.804 5.237 3.07 8.2 3.715 4.444 1.069 9.06 1.204 13.56.396 2.009-.215 3.903-1.045 5.427-2.379.683-.903 1.453-1.735 2.3-2.485zM199.014 158.964c-.08.905-.172 1.81-.265 2.728-4.364 2.282-8.955 4.106-13.7 5.443-.862.231-1.751.342-2.643.328-1.052.004-2.1-.15-3.105-.459l-1.559-.538c0-.852.066-1.652.08-2.4.158-3.357.264-5.758.29-6.308l-.872 6.098-.317 2.309c-5.664-1.996-11.105-4.568-16.237-7.673l.515-2.387c.45-2.033.885-4.026 1.321-5.928.172-.787.344-1.548.502-2.295l1.52-6.558.422-1.797c.846-3.633 1.4-5.915 1.4-5.915l1.81-.262c3.88-.515 7.782-.834 11.693-.958h.529c8.6-.17 18.153.97 19.091 6.702.118.734.193 1.474.225 2.217.156 5.893-.078 11.79-.7 17.653z"/>
        <ellipse cx="199.362" cy="109.649" fill="#D55159" fill-rule="nonzero" rx="14.753" ry="24.322"/>
        <path fill="#1058AE" fill-rule="nonzero" d="M205.946 126.933c-.685 23.147-30.467 21.776-30.467 21.776l-11.464-10.084 3.162-13.326c-.764.194-1.545.313-2.332.356-14.535.962-24.893-22.764-24.893-22.764l3.953-4.35c7.103-1.318 17.131 8.252 17.131 8.252s3.954-21.09 5.733-23.16c.647-.527 1.418-.88 2.24-1.028 1.855-.435 3.74-.726 5.64-.87 3.492-.343 6.786-.395 6.786-.395s6.985.33 12.835 1.239c1.714.255 3.41.625 5.074 1.107.538.17 1.062.382 1.568.633 4.349 2.267 5.798 19.455 5.034 42.614z"/>
        <path fill="#D55159" fill-rule="nonzero" d="M161 149.454l-2.301-16.847c-.03-.254.043-.51.204-.71.161-.2.396-.328.652-.354l7.72-.759c.535-.038 1 .36 1.043.892l1.137 17.298c.019.254-.068.504-.24.693-.172.188-.414.299-.67.305l-6.555.346c-.508.017-.941-.362-.99-.864z"/>
        <path fill="#242637" fill-rule="nonzero" d="M160.41 132.879c0-.03-.01-.058-.031-.078-.021-.02-.049-.029-.076-.025l-.73.09c-.06 0-.083.064-.083.129l.227 2.07c0 .056.043.102.096.102h.67c.027-.002.053-.018.069-.043.016-.025.021-.056.014-.085l-.155-2.16zm-.43.244c.133.03.229.156.229.302 0 .147-.096.273-.229.302-.091-.054-.148-.157-.148-.27 0-.112.057-.215.148-.27v-.064zm.12 1.569c-.127-.03-.218-.15-.218-.29 0-.14.09-.26.218-.289.127.03.218.15.218.29 0 .14-.091.26-.218.289z"/>
        <path fill="#F38A6B" fill-rule="nonzero" d="M174.317 140.567h-1.44c-.881-1.46-1.885-2.848-3-4.149-.386-.43-.52 1.821-.52 1.821l-.346 2.42-4.08.454-5.746-2.185-.107-.702s-.613 1.873-.293 2.341c.335.6.629 1.222.88 1.86l.56 2.601c.187.893.81 1.64 1.666 2.003l2.2.937c.956.403 2.027.467 3.027.182l4.84-1.418 3.88-.429-1.52-5.736z"/>
        <path fill="#242637" fill-rule="nonzero" d="M176.483 103.413s3.993 4.772 12.853 2.562c0 0-8.86 7.063-12.853-2.562z" opacity=".28"/>
        <path fill="#D55159" fill-rule="nonzero" d="M194.438 82.536c-.547.844-1.03 1.7-1.524 2.636-.878 1.702-1.635 3.464-2.267 5.273-1.237 3.58-2.017 7.306-2.319 11.086 0 .95 0 1.885-.091 2.834-.052.944-.052 1.89 0 2.835.078.935.091 1.871.195 2.82l.404 2.782c0 .475.117.936.195 1.397l.326 1.318.625 2.742c.235.804.73 2.149.978 2.953.156-1.015 1.302-8.265 1.38-10.677l-.104-.989c-.078-.857 0-1.727-.091-2.636-.06-.878-.06-1.76 0-2.637 0-.857.091-1.714.17-2.636.376-3.383 1.186-6.702 2.41-9.874.597-1.57 1.315-3.091 2.149-4.547.43-.7.847-1.437 1.303-2.083.217-.336.457-.658.716-.963.108-.16.225-.315.352-.46l.117-.16c-1.618-.446-3.263-.785-4.924-1.014z"/>
        <path fill="#242637" fill-rule="nonzero" d="M176.083 148.325l-2.24-8.513v-.066c.08-.118 7.766-11.39 16.552-16.366.196-1.465 2.868-21.223 2.619-24.496h.34c.328 3.418-2.448 23.757-2.619 24.654v.08h-.078c-8.394 4.725-15.818 15.31-16.46 16.247l2.2 8.355-.314.105z"/>
        <path fill="#D55159" fill-rule="nonzero" d="M169.328 82.567c-.051.078-.092.162-.121.25-.765 1.808-1.411 3.662-1.936 5.55-1.04 3.74-1.644 7.583-1.8 11.456v4.327l.12 1.434.256 2.894.47 2.854.229 1.42.35 1.408.685 2.801c.134.487.295.973.457 1.46.174-1.315.282-2.512.443-3.775.16-1.05.38-2.09.659-3.117.094-.881.174-1.762.215-2.63-1.405-1.684-2.261-3.741-2.46-5.906.08-1.88.788-3.682 2.016-5.13.108-.197.188-.407.31-.591.12-.184.349-.619.537-.921 0-.433.19-.846.524-1.131.33-1.91.78-3.799 1.344-5.656.511-1.677 1.144-3.317 1.895-4.906.376-.789.753-1.578 1.183-2.315.12-.21.242-.407.336-.605-1.923.133-3.833.41-5.712.83z"/>
        <path fill="#242637" fill-rule="nonzero" d="M167.5 100.193c-.639 1.425-.704 3.05-.18 4.522.468 1.488 1.165 2.89 2.066 4.153l-2.028 16.374c-.749.194-1.515.313-2.286.356l3.875-16.677c-.905-1.272-1.607-2.683-2.08-4.18-.232-.772-.35-1.577-.348-2.385.02-.827.209-1.64.555-2.387.672-1.49 1.653-2.755 2.351-4.166.69-1.407 1.128-2.93 1.292-4.495h.336c-.186 1.61-.654 3.173-1.383 4.614-.542 1.503-1.524 2.795-2.17 4.271z"/>
        <path fill="#F38A6B" fill-rule="nonzero" d="M188.57 66.986s-.43 12.208-.091 13.177c.339.969 3.118 2.177 2.896 1.938-.222-.24-11.233 6.82-15.538-.518 0 0 3.366-.743 3.705-1.46.34-.716 1.592-8.533 1.592-8.533l7.436-4.604z"/>
        <path fill="#E57B63" fill-rule="nonzero" d="M186.954 68.182l-2.03 1.185-4.006 2.924c-.147.838-.414 2.37-.695 3.865 3.565-.427 6.69-2.504 8.373-5.565V68.71l-1.642-.528z"/>
        <path fill="#F38A6B" fill-rule="nonzero" d="M173.143 57.422c-.887 10.812 4.54 15.346 6.988 15.53 3.163.225 8.656-2.273 9.86-7.084 0 0 3.891-.106 4.143-2.247.45-3.965-2.647-1.824-2.647-1.824s5.691-9.755-4.354-14.46c-3.984-1.89-13.143-.291-13.99 10.085z"/>
        <path fill="#1E193E" fill-rule="nonzero" d="M185.805 57.81c-.108-.215-.62-.251-.836-.31-.464-.122-.948-.167-1.43-.132-.377.028-.751.08-1.12.155-.243 0-.675.18-.904 0-.127-.13-.127-.324 0-.454.27-.3.918-.347 1.35-.383 1.152-.238 2.344.218 2.94 1.124zM173.445 57.38c.11-.216.63-.24.864-.288.447-.102.912-.134 1.372-.096.384.04.764.104 1.138.192.247 0 .686.203.919 0 .124-.132.124-.323 0-.455-.274-.31-.919-.37-1.372-.418-1.134-.22-2.304.206-2.921 1.064z"/>
        <path fill="#F67173" fill-rule="nonzero" d="M186.204 62.777c0-.553-.817-.975-1.808-.975-.99 0-1.78.48-1.78 1.019 0 .538.816.99 1.807.975.991-.015 1.781-.466 1.781-1.019zM177.033 62.588c0-.446-.726-.797-1.601-.785-.875.011-1.602.375-1.588.808.013.434.727.798 1.601.786.875-.012 1.602-.317 1.588-.809z"/>
        <path fill="#1E193E" fill-rule="nonzero" d="M180.054 64.924c-.563-.053-1.076-.336-1.41-.777-.02-.052-.02-.11 0-.163.637-1.528.846-3.192.606-4.823 0-.083.07-.15.155-.15.086 0 .155.067.155.15.267 1.66.067 3.358-.578 4.918.255.336.644.554 1.072.6.086.005.156.067.17.15 0 .085-.068.156-.156.163l-.014-.068zM184.61 60.252c0-.877-.368-1.613-.913-1.639-.545-.026-1.027.658-1.077 1.536-.05.877.367 1.613.912 1.652.545.038 1.077-.671 1.077-1.549zM176.635 59.866c0-.89-.368-1.626-.913-1.652-.544-.025-1.026.659-1.077 1.536-.05.878.368 1.613.913 1.652.545.039 1.026-.71 1.077-1.536z"/>
        <path fill="#F67173" fill-rule="nonzero" d="M182.616 66.898l-2.12-1.096-.831.67-.754-.683-1.878 1.11s.678 2.772 2.683 2.875c2.312.103 2.9-2.876 2.9-2.876z"/>
        <path fill="#FFF" fill-rule="nonzero" d="M182.616 66.986h-5.583c.57.985 1.636 1.595 2.792 1.595 1.155 0 2.222-.61 2.79-1.595z"/>
        <path fill="#242637" fill-rule="nonzero" d="M195.346 54.067c.087.83-.022 1.67-.317 2.453-.684 2.557-2.364 4.743-4.673 6.08-2.945-3.624-5.017-7.863-6.059-12.395-3.23.11-6.298 1.43-8.58 3.692-2.248 2.247-4.147 4.81-5.636 7.607-1.138-6.087 2.141-12.14 7.897-14.579 5.756-2.438 12.452-.61 16.127 4.402.639.796 1.066 1.738 1.24 2.74z"/>
        <path fill="#FDC345" fill-rule="nonzero" d="M193.381 64.992L189.793 64.992 191.501 68.979z"/>
        <path fill="#FFF" fill-rule="nonzero" d="M173.445 62.623c5.11.961 10.367.817 15.418-.422 0 0 .659 4.725-.962 7.734 0 0-4.19 3.537-7.63 2.97-3.44-.568-6.18-4.593-6.826-10.282z"/>
        <path fill="#FFF" fill-rule="nonzero" d="M188.661 62.259L192.185 61.404 191.762 61.793 188.596 62.998zM187.856 69.777c.777-.85 1.428-1.788 1.937-2.791-.568.817-1.237 1.572-1.994 2.25l.057.54z"/>
        <path fill="#40DB95" fill-rule="nonzero" d="M239.207 63.646V51.052c.249-2.077-1.223-3.966-3.3-4.233-6.479-1.754-13.037-3.667-19.358-5.513l-3.418-.989-27.41-8.018c-1.87-.535-3.855-.535-5.726 0l-11.27 3.138c-13.197 3.746-26.683 7.61-38.93 11-2.64.725-4.223 1.898-4.197 5.472.106 9.35.093 16.907.093 24.899V98.608c.062 2.21.273 4.413.634 6.594 4.143 23.949 15.69 41.766 34.403 53.24 5.126 3.122 10.56 5.707 16.218 7.714.277.12.541.211.818.304l1.557.54c1.005.31 2.05.466 3.102.463.89.013 1.779-.098 2.639-.33 4.74-1.345 9.326-3.18 13.685-5.474 23.753-12.475 40.077-37.955 40.368-65.227.105-9.693.092-17.646.079-26.047.026-2.202.013-4.444.013-6.739zm-2.283 6.753c0 8.4 0 16.34-.08 26.033-.276 25.927-15.505 50.114-37.807 62.497-4.592 2.551-9.463 4.564-14.516 6.001-1.424.374-2.925.338-4.329-.106l-2.203-.764c-.185 0-.383-.132-.581-.211-5.603-2.02-10.974-4.633-16.02-7.795-17.776-11.157-28.73-28.3-32.714-51.235-.276-1.69-.457-3.393-.542-5.103-.105-1.886-.118-3.812-.132-5.777v-.963-16.115c0-7.992 0-15.549-.092-24.925 0-2.19.554-2.638 2.52-3.232 12.247-3.389 25.813-7.253 38.943-10.998l11.27-3.218c1.458-.413 3.002-.413 4.46 0 9.476 2.783 20.574 6.014 27.436 8.018l3.418.99c6.334 1.846 12.906 3.771 19.399 5.525.492.077.951.297 1.32.633.239.396.341.86.29 1.319-.053 7.16-.053 13.36-.04 19.426z"/>
        <path fill="#F38A6B" fill-rule="nonzero" d="M137.324 100.436c.42.095.827.243 1.208.441.917-1.62 1.86-3.227 2.842-4.796l.173-.298c-.818-.864-1.706-1.661-2.656-2.385-1.928-1.523-4.309-2.396-6.787-2.489l2.271 2.865c-2.394.59-4.93.216-7.039-1.037-.934-.734-2.002-1.288-3.147-1.633-.092.721.093 1.45.518 2.048-.387-.47-.91-.813-1.501-.986.186 2.463 2.47 4.2 4.542 5.613-1.263-.468-2.565-.828-3.891-1.076 1.093 1.57 2.737 2.695 4.621 3.163 1.872.445 3.805.594 5.725.44 1.04-.106 2.093-.063 3.12.13z"/>
        <path fill="#BBBBCF" fill-rule="nonzero" d="M0 150.319c0 1.538 67.316 2.791 87.646 2.791s35.161-1.292 35.161-2.791c0-1.499-14.805-2.791-35.161-2.791S0 148.82 0 150.319z"/>
        <path fill="#D12B5B" fill-rule="nonzero" d="M103.43 127.92H93.14c-.139.028-.238.14-.238.27s.1.242.238.269h.092c.139-.027.238-.14.238-.27s-.1-.241-.238-.268h-.092v.538h10.289c.139-.027.238-.14.238-.27s-.1-.241-.238-.268zM103.035 130.313h-8.302c-.137.027-.235.14-.235.27s.098.241.235.268h8.302c.137-.027.235-.139.235-.269s-.098-.242-.235-.269zM101.026 132.705h-4.284c-.146.027-.25.14-.25.27s.104.242.25.269h4.284c.146-.027.25-.14.25-.27s-.104-.242-.25-.269z"/>
        <rect width="7.974" height="6.778" x="97.289" y="116.826" fill="#FFF" fill-rule="nonzero" rx=".62" transform="rotate(180 101.276 120.215)"/>
        <ellipse cx="111.045" cy="141.946" fill="#212121" fill-rule="nonzero" rx="4.585" ry="8.772"/>
        <path fill="#212121" fill-rule="nonzero" d="M111.244 150.718L106.858 150.718 109.628 143.142z"/>
        <ellipse cx="107.057" cy="141.946" fill="#434343" fill-rule="nonzero" rx="4.585" ry="8.772"/>
        <ellipse cx="107.057" cy="142.145" fill="#267DBA" fill-rule="nonzero" rx="2.592" ry="4.984"/>
        <path fill="#1E3555" fill-rule="nonzero" d="M106.976 133.174c.797.03 1.547.39 2.075.994.53-.602 1.278-.96 2.075-.994 2.482 0 4.504 3.975 4.504 8.772 0 4.797-2.022 8.772-4.504 8.772h-4.491c-2.338-.332-4.163-4.121-4.163-8.746.013-4.863 2.022-8.798 4.504-8.798z"/>
        <ellipse cx="48.445" cy="141.946" fill="#212121" fill-rule="nonzero" rx="4.585" ry="8.772"/>
        <path fill="#212121" fill-rule="nonzero" d="M48.246 150.718L43.86 150.718 46.63 143.142z"/>
        <ellipse cx="44.059" cy="141.946" fill="#434343" fill-rule="nonzero" rx="4.585" ry="8.772"/>
        <ellipse cx="44.059" cy="142.145" fill="#929292" fill-rule="nonzero" rx="2.592" ry="4.984"/>
        <path fill="#1E3555" fill-rule="nonzero" d="M43.991 133.174c.796.034 1.545.392 2.075.994.524-.6 1.269-.96 2.061-.994 2.495 0 4.505 3.975 4.505 8.772 0 4.797-2.01 8.772-4.505 8.772h-4.49c-2.325-.332-4.163-4.121-4.163-8.746.013-4.863 2.022-8.798 4.517-8.798zM64.543 136.19l-1.144-3.016h4.591c2.523 0 4.578 4.018 4.578 8.971s-2.055 8.971-4.578 8.971h-4.591l1.157-3.03c-.794-1.875-1.189-3.9-1.157-5.94-.031-2.045.358-4.073 1.144-5.955z"/>
        <ellipse cx="63.995" cy="142.145" fill="#FFF" fill-rule="nonzero" rx="4.585" ry="8.971"/>
        <ellipse cx="63.995" cy="141.946" fill="#1E3555" fill-rule="nonzero" rx="2.592" ry="5.183"/>
        <path fill="#1E3555" fill-rule="nonzero" d="M14.304 136.19l-1.144-3.016h4.591c2.523 0 4.578 4.018 4.578 8.971s-2.055 8.971-4.578 8.971H13.16l1.157-3.03c-.794-1.875-1.189-3.9-1.157-5.94-.032-2.045.358-4.073 1.144-5.955z"/>
        <ellipse cx="13.756" cy="142.145" fill="#FFF" fill-rule="nonzero" rx="4.585" ry="8.971"/>
        <ellipse cx="13.756" cy="141.946" fill="#1E3555" fill-rule="nonzero" rx="2.592" ry="5.183"/>
        <path fill="#3377BC" fill-rule="nonzero" d="M3.987 126.072v14.9c.008 1.861 1.52 3.366 3.382 3.366h.907v-.118c0-6.234 2.632-11.284 5.841-11.284 2.026 0 3.816 2 4.855 5.024.67 2.018 1.003 4.133.986 6.26v.118h38.638v-.118c0-4.471 1.315-8.338 3.302-10.166.672-.683 1.58-1.083 2.539-1.118.72.014 1.417.248 2 .671 1.6 1.361 2.708 3.209 3.157 5.26.458 1.716.688 3.485.684 5.26v.12h8.67V105.74c-.658-.053-1.316-.08-1.974-.08H35.64c-9.453-.006-18.32 4.574-23.785 12.284-.405.528-.845 1.029-1.316 1.499-.455.477-.948.917-1.473 1.315l-4.539 3.406c-.364.568-.552 1.232-.54 1.907z"/>
        <path fill="#FAB231" fill-rule="nonzero" d="M66.188 133.598c1.612 1.335 2.73 3.147 3.182 5.158h14.585c1.211 0 2.374-.462 3.236-1.29.857-.838 1.334-1.976 1.326-3.158-.007-.403-.342-.729-.756-.735l-21.573.025z"/>
        <path fill="#4B83C3" fill-rule="nonzero" d="M56.22 105.701v.158c1.645.328 3.192 1.029 4.522 2.05 1.79 1.38 3.302 3.088 4.457 5.031l4.614 7.436.683 1.103 2.117 3.416c.428.761.646 1.623.63 2.496v13.518c0 1.892-.906 3.43-2.01 3.43h47.823c.891 0 1.746-.356 2.375-.987.63-.63.98-1.486.977-2.377v-4.52c-.025-.954-.144-1.905-.355-2.837-1.265-5.344-5.374-9.556-10.687-10.956l-4.43-1.183-.25-.144c-5.39-3.495-9.07-7.16-14.329-10.839-1.455-1.028-3.01-1.908-4.64-2.627-1.308-.573-2.663-1.035-4.049-1.38-1.5-.382-3.03-.632-4.575-.748-.644 0-1.314-.08-1.971-.08l-20.902.04z"/>
        <path fill="#1E3555" fill-rule="nonzero" d="M62.458 107.656c-.268.005-.507.17-.607.417-.1.248-.043.53.147.72 1.203 1.167 2.246 2.485 3.104 3.922l3.577 5.726.697 1.124c.637 1.023 1.762 1.646 2.972 1.647h34.51l-.25-.144c-5.392-3.477-9.074-7.124-14.335-10.785-1.456-1.023-3.011-1.899-4.643-2.614l-25.172-.013z"/>
        <path fill="#FFF" fill-rule="nonzero" d="M105.122 120.813c.062-.001.117-.044.135-.104.018-.061-.004-.127-.056-.163-2.118-1.525-3.971-3.077-5.877-4.588-1.906-1.512-4.09-3.331-6.46-5.004-.915-.645-1.87-1.23-2.86-1.752-.93-.495-1.966-.752-3.018-.749H63.397c1.214 1.198 2.272 2.547 3.15 4.013l3.601 5.86.702 1.15c.51.834 1.412 1.34 2.383 1.337h31.889z"/>
        <path fill="#1E3555" fill-rule="nonzero" d="M18.743 119.178c-.06 1.056.745 1.964 1.806 2.034h39.929c.373.002.73-.154.982-.43.25-.275.373-.643.336-1.013-.003-.292-.085-.578-.238-.827l-3.795-6.116c-1.826-3.136-5.163-5.096-8.803-5.17h-8.38c-2.051-.003-4.095.234-6.09.708-5.936 1.464-11.252 4.768-15.18 9.436-.354.374-.556.865-.567 1.378z"/>
        <path fill="#FFF" fill-rule="nonzero" d="M19.54 119.477c-.022.333.089.662.307.913.219.25.527.403.856.423h40.052c.381-.028.67-.361.647-.748 0-.15-.041-.299-.119-.428l-3.833-6.227c-1.723-3.002-4.868-4.88-8.301-4.957h-8.777c-3.805.082-7.547.994-10.971 2.672-3.66 1.788-6.906 4.333-9.53 7.47-.213.244-.33.557-.33.882z"/>
        <path fill="#FFF1E3" fill-rule="nonzero" d="M115.63 134.203c0 2.074 1.647 3.756 3.678 3.756h3.1v-2.04c-.017-.79-.113-1.576-.289-2.346h-5.885c-.162 0-.318.066-.432.185-.113.119-.175.279-.172.445zM72.967 133.611v5.145h3.81c1.212 0 2.375-.47 3.23-1.304.857-.835 1.336-1.967 1.333-3.146 0-.405-.338-.733-.754-.733l-7.62.038z"/>
        <path fill="#1E3555" fill-rule="nonzero" d="M36.683 108.453L36.683 120.813 38.676 120.813 38.676 108.453z"/>
        <path fill="#1E3555" fill-rule="nonzero" d="M42.265 125.598H47.847V127.193H42.265z" transform="rotate(180 45.056 126.396)"/>
        <path fill="#1E3555" fill-rule="nonzero" d="M19.537 125.598H25.119V127.193H19.537z" transform="rotate(180 22.329 126.396)"/>
        <path fill="#FAB231" fill-rule="nonzero" d="M3.987 130.383H7.177V136.763H3.987z"/>
        <rect width="4.785" height="2.791" x="59.41" y="119.219" fill="#FFF" fill-rule="nonzero" rx=".62" transform="rotate(180 61.802 120.614)"/>
        <path fill="#EBA334" fill-rule="nonzero" d="M54.32 119.402s-8.215-3.432-9.93-1.678c-1.715 1.755.81 2.937 6.407 3.09 1.905-.045 3.797-.305 5.637-.776.957-.369-2.114-.636-2.114-.636z"/>
        <path fill="#F38A6B" fill-rule="nonzero" d="M50.24 115.104l-.337.68-.116.203-.827 1.645.349.217c-1.086 1.36-4.393.068-4.652-1.495.452-.035.892-.17 1.292-.394.382-.406.712-.863.982-1.359.104-.176.207-.367.297-.503l.259-.462.323.163.207.11h.18l.724.38h.09l.492.258.736.557z"/>
        <path fill="#1E3555" fill-rule="nonzero" d="M51.037 110.134c0 1.725-.707 5.044-2.397 5.097-1.627-.12-2.952-1.375-3.181-3.013-.043-.83.25-1.642.81-2.249.562-.606 1.342-.954 2.162-.964 1.768-.133 2.54-.584 2.606 1.129z"/>
        <path fill="#F38A6B" fill-rule="nonzero" d="M50.834 110.048c.236.39.44.796.611 1.216-.098.278-.098.58 0 .859 0 .119.136.211.204.33l.584.872s0 .304-.177.291c-.176-.013-.312.132-.312.132-.044.124-.044.26 0 .383.204.225-.122.357-.244.384-.123.026.135 0 .19.25.054.252-.15.252-.15.252-.23.172.272.766-.393.978-.98.137-1.97-.147-2.716-.78l-.557-1.321s-.679 0-.787-.53c-.11-.528 0-1.162.61-1.149.612.013.652.86.652.86s.476.62.435-.212c.027-.487.218-.951.543-1.322-.098-.26-.098-.546 0-.806.04-.568 1.507-.687 1.507-.687z"/>
        <path fill="#F38A6B" fill-rule="nonzero" d="M46.65 114.5c.467-.206.854-.552 1.106-.987.742-1.317 1.686 2.516 1.686 2.516s-2.778-.04-2.791-1.528z"/>
        <path fill="#1E3555" fill-rule="nonzero" d="M46.786 113.962c0-1.577-1.572-1.905-1.3-1.092.273.813.52 1.335.87 1.529.352.194 1.092-.485 1.092-.485l-.662.048z"/>
        <path fill="#7EEDBB" fill-rule="nonzero" d="M50.426 116.388l-1.782-1.396.465-.64.116-.978 2.504-.535.504.73c-.047.815-.221 1.617-.516 2.375-.362.679-1.291.444-1.291.444zM49.191 113.355L48.521 112.889 48.473 112.721 49.215 113.188z"/>
        <path fill="#7EEDBB" fill-rule="nonzero" d="M48.74 114.645l-.659-.837.706.813s.072.072-.048.024z"/>
        <path fill="#FBBB31" fill-rule="nonzero" d="M41.069 120.695c.273-1.465 1.06-2.781 2.215-3.711.865-.792 1.927-1.32 2.989-.647 1.628 1.31 3.094 2.813 4.365 4.476l-9.57-.118z"/>
        <path fill="#F38A6B" fill-rule="nonzero" d="M58.726 118.607c.103-.156.145-.346.117-.532-.279.092-.538.236-.764.426-.52.324-1.145.42-1.735.266l.557-.745c-.612.021-1.2.25-1.67.652-.482.387-.917.834-1.295 1.329 0 0-.09.106-.09.172-.024.07-.024.144 0 .213.17.309.39.587.647.824.275-.33.633-.579 1.036-.718.253-.033.51-.033.763 0 .478.045.959.01 1.425-.106.463-.126.867-.418 1.139-.824-.33.065-.656.158-.971.28.518-.373 1.087-.825 1.126-1.463-.11.052-.208.13-.285.226z"/>
        <path fill="#FDC345" fill-rule="nonzero" d="M55.821 120.27c-.617-.122-1.161-.502-1.507-1.051 0 0-4.624 4.044-4.47 7.212.155 3.168 4.522-.566 5.977-6.161z"/>
        <path fill="#FDC345" fill-rule="nonzero" d="M50.818 124.388s-5.422-7.06-7.79-6.31c-2.367.751-1.11 4.624 3.69 7.456 1.139.873 2.405 1.566 3.756 2.055 1.018.118.344-3.201.344-3.201z"/>
        <rect width="18.74" height="5.183" x="90.51" y="133.174" fill="#FFF" fill-rule="nonzero" rx=".43"/>
        <path fill="#267DBA" fill-rule="nonzero" d="M91.707 134.37H94.09899999999999V137.161H91.707z"/>
        <path fill="#1E3555" fill-rule="nonzero" d="M49.184 117.538c-.037 1-.342 1.974-.888 2.833-.219.328.335.629.568.3.59-.955.924-2.03.976-3.133.029-.451-.612-.383-.656 0z"/>
        <path fill="#E5EBF8" fill-rule="nonzero" d="M84.13 120.813v-.233l-.114-2.507v-.205c-.021-.466-.296-.874-.7-1.041v-.494h-.114v-.561c-.472-.19-.992-.19-1.464 0v.164c.141-.046.286-.074.433-.082h.382v.48h-.115v.493c-.393.166-.64.587-.61 1.04v.535l.089 2.178v.233h2.214z"/>
        <path fill="#E5EBF8" d="M237.64 28.228v.172c.068.41.307.771.658.992.884.396 1.835.62 2.803.661 2.182.293 4.39.328 6.58.106.96-.106 2.264-.383 2.316-1.15.053-.768-.658-1.032-1.21-1.217-.211-.08-1-.146-1.106-.225-.105-.08-.105-.344-.158-.49-.4-1.017-1.297-1.753-2.369-1.944-.822-.084-1.636.224-2.198.834-.184.198-.25.476-.5.555-.512.053-1.028.053-1.54 0-1.434.093-2.908.542-3.276 1.706zM16.348 44.946v.172c.063.415.297.785.645 1.018.886.395 1.838.62 2.807.66 2.184.292 4.394.331 6.588.12.961-.12 2.279-.397 2.318-1.163.04-.767-.645-1.031-1.212-1.216-.21-.067-1.001-.146-1.106-.225-.106-.08-.106-.344-.159-.49-.395-1.02-1.295-1.757-2.371-1.942-.823-.085-1.638.224-2.2.832-.185.199-.25.476-.488.556-.513.052-1.03.052-1.542 0-1.423.066-2.911.515-3.28 1.678zM100.877 26.79v.284c.117.693.517 1.304 1.102 1.682 1.487.66 3.08 1.04 4.702 1.117 3.667.501 7.38.564 11.062.189 1.607-.189 3.799-.66 3.865-1.952.067-1.292-1.089-1.736-2.032-2.06-.345-.12-1.673-.242-1.833-.376-.159-.135-.185-.593-.278-.835-.672-1.722-2.183-2.962-3.985-3.27-1.373-.184-2.749.317-3.692 1.345-.305.35-.425.795-.823.93-.882.105-1.774.105-2.656 0-2.324.228-4.808.968-5.432 2.947z"/>
        <ellipse cx="125.997" cy="27.711" fill="#E5EBF8" fill-rule="nonzero" rx="1.994" ry="1.396"/>
        <path fill="#40DB95" fill-rule="nonzero" d="M228.294 58.277c0-1.449-1.184-2.623-2.645-2.623 1.46 0 2.645-1.175 2.645-2.624 0 1.45 1.184 2.624 2.645 2.624-1.46 0-2.645 1.174-2.645 2.623zm4.96 17.25c-1.461 0-2.646-1.175-2.646-2.624 0 1.449-1.184 2.623-2.645 2.623 1.461 0 2.645 1.175 2.645 2.624 0-1.449 1.185-2.624 2.646-2.624zm-9.404-7.792c-1.61.003-3.157-.63-4.296-1.76-1.14-1.13-1.778-2.663-1.774-4.261.003 1.596-.633 3.127-1.77 4.257-1.136 1.129-2.679 1.764-4.288 1.764 3.346 0 6.058 2.69 6.058 6.008 0-1.596.64-3.126 1.779-4.253 1.138-1.127 2.682-1.759 4.291-1.755z"/>
    </g>
</svg>
