<svg xmlns="http://www.w3.org/2000/svg" width="100" height="100" viewBox="0 0 100 100">
    <g fill="none">
        <ellipse cx="65.75" cy="97.459" fill="#EEEFF0" rx="34.25" ry="1.959"/>
        <path fill="#F2B956" d="M85.98 35.265c.635 1.194.478 2.878.572 4.153.174 2.204.302 4.415.385 6.633.073 1.755.115 3.52.136 5.276 0 1.02.302 2.04-1.042 2.132l-.854.072c-.113.025-.23.025-.344 0-.27-.113-.312-.45-.312-.735-.027-1.714-.211-3.421-.552-5.102-.19-.737-.34-1.483-.448-2.235-.068-.937-.068-1.879 0-2.816 0-1.663.114-3.327.166-4.99-.03-.741.12-1.48.438-2.153.115-.204 0-.347 0-.571.036-.227.036-.458 0-.684-.025-.23-.166-.433-.375-.54l.438.183c.35.129.682.3.99.51.334.222.609.52.801.867z"/>
        <path fill="#FFC864" d="M70.833 33.04c.151-1.461.151-2.935 0-4.397-1.448-12.541-16.375-19.867-27.49-13.214-3.045 1.81-6.942 1.454-9.593-.878-5.935-5.212-14.745-5.755-21.3-1.314-6.557 4.442-9.146 12.708-6.262 19.987 1.263 3.112.434 6.664-2.084 8.93C.631 45.1-.789 49.748.458 54.081c1.136 3.898 4.167 6.01 8 7.142 3.032.878 6.646.766 8.99 3.133 2.552 2.572 2.917 6.704 4.396 9.847s3.198 5.827 6.625 7.306c3.2 1.3 6.77 1.434 10.062.378 3.042-.868 6.886-1.745 9.959-.5 3.51 1.428 6.395 3.928 10.114 5.102 3.683 1.29 7.712 1.26 11.375-.082 9.875-4.081 10.417-17.092 4.625-24.622-1.875-2.46-3.937-4.562-5.208-7.408-1.48-3.194-2.386-6.898-1.584-10.388.792-3.745 2.626-7.143 3.021-10.95z" opacity=".43"/>
        <path fill="#FFA084" d="M42.813 88.918v6.531s3.52.53 3.666-.184c-.248-1.933-.38-3.878-.396-5.826l-3.27-.52zM54.031 89.03l.396 6.521s3.542.316 3.636-.398c-.366-1.917-.624-3.851-.771-5.796l-3.26-.326z"/>
        <g fill="#223056">
            <path d="M12.615.49C9.02-.378 4.28 4.878.719 4.755c.323 11.847 2.01 31.47 2.281 40.53 1.219.062 2.583.103 3.77.123L9.74 7.541H11.229l2.906 37.867c1.23-.071 2.76-.102 4.021-.122.104-4.184.98-12.245 1.125-20.408.115-5.97 1.104-14.48 1.198-19.94 0 0-1.646-.938-1.687-.938-.042 0 0 .847 0 .847 0-2.327 0-2.184.073-4.082-2.086.218-4.193.126-6.25-.275zM14.406 47.235L15.354 47.622 14.594 48.827 14.042 47.959zM18.438 47.235L17.094 47.551 18.135 48.622 18.885 48.48zM20.042 52.337s.24.234.24.398v.959c-.052.107-.135.196-.24.255-1.027.333-2.108.474-3.188.418-1.055.017-2.107-.113-3.125-.387-.146-.123-.146-1.123-.146-1.204 0-.082.354-.235.354-.235l6.105-.204z" transform="translate(39.583 43.878)"/>
        </g>
        <path fill="#614289" d="M58.135 92.184c-.263-.64-.819-1.12-1.5-1.296-.333-.061-1.645.05-1.958.632-.206.355-.435.696-.687 1.02l.74 2.838 2.812.112.593-.694v-2.612z"/>
        <path fill="#614289" d="M53.99 91.112c.24.123-.146.5 0 .888.145.388.583.857.583 1.306-.025.469.06.936.25 1.367.983.159 1.986.159 2.969 0 0-.193.448-2.826.343-2.908-.104-.081-.114-.653-.114-.653s.208-.204.333.143c.215.485.338 1.003.365 1.53 0 .654-.219.674 0 1.154.444.672.795 1.4 1.041 2.163.006.078.006.157 0 .235 0 .357-.166.53-.78.632-1.501.195-3.021.195-4.522 0-1.135-.193-1.093-.306-1.093-.816 0-.235.26-1.949.302-2.602v-1.02c0-.307-.146-.613-.146-.909 0-.295.27-.612.469-.51z"/>
        <path fill="#223056" d="M46.313 91.153L45.115 91.449 46.125 92.735 46.667 91.867zM42.323 91.153L43.333 91.408 42.625 92.52 41.885 92.388zM40.74 96.204s-.23.214-.23.378v.959c.046.108.126.197.23.255 1.009.314 2.067.452 3.125.408 1.054.015 2.105-.112 3.125-.377.145-.123.145-1.123.145-1.194 0-.072-.354-.235-.354-.235l-6.041-.194z"/>
        <path fill="#614289" d="M42.219 92.214c.267-.646.838-1.125 1.531-1.285.323-.062 1.625 0 1.938.622.2.355.427.696.677 1.02l-.73 2.807-2.78.112-.584-.684-.052-2.592z"/>
        <path fill="#614289" d="M46.313 91.153c-.23.112.145.49 0 .867-.146.378-.584.858-.584 1.296.027.465-.055.929-.24 1.357-.972.154-1.964.154-2.937 0-.16-.939-.271-1.886-.333-2.836.104-.082.104-.643.104-.643s-.198-.204-.323.143c-.206.482-.319.998-.333 1.52 0 .643.218.663 0 1.143-.445.661-.795 1.379-1.042 2.133v.234c0 .357.167.531.77.633 1.488.189 2.993.189 4.48 0 1.115-.184 1.042-.296 1.042-.806 0-.225-.25-1.929-.292-2.572v-1.02c0-.316.146-.612.146-.898 0-.286-.271-.653-.459-.55z"/>
        <path fill="#223056" d="M53.49 89l.083 1.02c.714.095 1.436.122 2.156.082 1.136-.071 2.084-.184 2.084-.184v-1.02s-1.167.184-1.907.235c-.807-.003-1.614-.048-2.416-.133zM42.396 88.622v1.02c.667.15 1.347.235 2.031.256h2.083l.084-1.082s-1.146.092-1.875.072c-.779-.051-1.554-.14-2.323-.266z"/>
        <path fill="#F6A47D" d="M56.25 13.194c.104-2.816-.563-5.337-4.167-7.367-1.635-.858-1.885-2.766-2.791-2.562-2.51.572-2.292 2.776-3.125 4.164-1.418 2.08-1.12 4.855.708 6.602 1.781 3.255-2.375 4.285-3.219 8.091-.427 1.888.146 4.705 2.354 5.194 2.98.664 6.834-3.224 7.844-5.449.5-1.273.85-2.598 1.042-3.949.364-1.673 1.24-2.969 1.354-4.724z"/>
        <path fill="#614289" d="M63.688 24.49v-.47c-.186-1.792-.911-3.49-2.084-4.877-.452-.612-1.15-1.006-1.916-1.082-.705-.083-1.42.001-2.084.245-1.125.33-2.228.729-3.302 1.194-.402.174-.771.412-1.094.704-.184.251-.35.514-.5.786-.61.617-1.393 1.043-2.25 1.224-.937.25-1.94.102-2.76-.408-.586-.463-1.06-1.049-1.386-1.714-.223-.371-.265-.82-.114-1.225 0-.183.26-.908.5-.928-1.042.102-2.083 0-3.073 0-1.445.024-2.751.845-3.375 2.122-1.045 2.291-1.835 4.686-2.354 7.143 0 .153-.052.347.073.439.094.054.205.072.312.05.48 0 .95.135 1.354.389.438.265.24 1.02.605 1.296.791.612.937-.827 1.302-1.358-.115.174.364 1.419.416 1.674.157.653.302 1.316.448 1.98.322 1.114.51 2.261.563 3.418.02 1.346-.082 2.691-.302 4.02-.402 1.817-.913 3.61-1.532 5.368-.28.895-.492 1.809-.635 2.734-.073.47-.125.94-.167 1.398 0 .255-.198.95 0 1.153.198.204 1.042.153 1.334.174l1.593.102c1.428.061 2.844 0 4.26 0 3.397.204 6.845.163 10.24.061.616.03 1.234.002 1.844-.082.495-.084.985-.193 1.469-.326.022-.045.022-.098 0-.143-.257-2.744-.877-5.443-1.844-8.03-1.158-2.554-1.75-5.319-1.74-8.113.019-1.026.116-2.05.292-3.061.26-1.163.5-2.296.667-3.48.23.735.292 2.123 1.385 1.94.73-.123 1.115-.878 1.709-1.236.845-.432 1.54-1.1 2-1.918.124-.375.174-.77.145-1.163z"/>
        <path fill="#452C6D" d="M59.906 24.776l-.416.142c-.542.235-1.386.286-1.24 1.02.186.978.437 1.943.75 2.889 0 .102.083.224.188.234.072.01.144-.012.197-.061.657-.418 1.24-.878 1.928-1.235.244-.123.478-.266.697-.428.475-.378.836-.875 1.042-1.439.116-.232.196-.48.24-.735.04-.499-.296-.953-.792-1.071-.182-.036-.37-.036-.552 0-.353.063-.702.152-1.042.265-.266.092-.526.198-.781.316l-.219.103z"/>
        <path fill="#000324" d="M55.542 13.786c.073-.52 0-1.02.104-1.541.098-.574.07-1.162-.084-1.725-.022-.071-.066-.135-.124-.183-.06-.052-.15-.052-.209 0-.017.042-.017.09 0 .132 0 .582.146 1.327-.302 1.807-.134.156-.366.19-.542.081h-.072c-.153.264-.288.537-.407.816-.161.272-.338.535-.531.786-.044.05-.082.105-.115.163-.433 1.289-.558 2.657-.364 4-.016.856.391 1.665 1.094 2.174.552.255.291-1.388.78-2.796.345-1.22.603-2.46.772-3.714z"/>
        <path fill="#12174A" d="M60.563 18.765c.292-.32.455-.733.458-1.163-.125-.716-.519-1.36-1.104-1.806-.886-.898-2.282-2.04-2.51-3.296-.397-2.092.156-4.235-.115-6.378-.27-2.142-1.626-4.007-3.605-4.959-1.72-.925-3.83-.802-5.427.317-.154.15-.321.286-.5.408-.216.114-.438.216-.666.306-1.205.657-2.034 1.82-2.25 3.153-.313 1.235-.604 2.49-1.042 3.704-.44 1.18-.962 2.33-1.562 3.439-.547 1.103-.788 2.328-.698 3.55.056.642.185 1.275.385 1.889.115.377.115 1.183.719.836 1.034-.422 2.14-.654 3.26-.683.508-.017.984-.243 1.313-.623.304-.355.49-.793.531-1.255.054-1.224-.118-2.448-.51-3.612-.07-.278-.197-.539-.375-.765-.22.449-.678 0-.855-.205-.22-.349-.369-.737-.437-1.142-.144-.453-.169-.934-.073-1.398 0-.194.198-.398.396-.388.198.01.323.306.5.449-.087-1.103.137-2.207.646-3.194.34-.918 1.026-1.674 1.916-2.112.089-.04.184-.065.282-.072.049.056.084.123.104.194.703 1.363 1.845 2.46 3.25 3.123 1.503.803 2.444 2.342 2.458 4.02.025 2.25-.403 4.483-1.26 6.571-.605 1.46-.459 2.929 1.406 3.174 1.545.102 3.076-.336 4.323-1.235.387-.232.738-.517 1.041-.847z"/>
        <path fill="#FFA084" d="M50 15.5c.1.01.202.01.302 0 .776-.034 1.515-.338 2.083-.857.528-.338.978-.78 1.323-1.296-.514 1.024-.768 2.155-.74 3.296-.037.427-.005.858.094 1.275.045.664.233 1.311.553 1.898.228.286.498.537.802.745-.045.093-.11.177-.188.245-.512.574-1.122 1.058-1.802 1.429-.326.173-.677.297-1.042.367-1.049.308-2.174.254-3.187-.153-1.32-.61-2.216-1.853-2.365-3.276-.075-.269-.11-.547-.104-.826 0-.214.313-.255.48-.327.166-.071.551-.265.812-.408.437-.255.448-.745.531-1.183.082-.418.127-.841.136-1.266.043-.765-.034-1.533-.23-2.275.131.336.322.647.563.918.583.674 1.01 1.5 1.979 1.694zM36.625 33.133c.318-.05.627-.147.917-.286 1.277-.83 2.333-1.946 3.083-3.255.077-.084.118-.194.115-.306-.016-.076-.052-.147-.105-.204-.271-.362-.57-.703-.895-1.02h-.094c-.031 0 0 0-.052.06-.332.973-.852 1.874-1.532 2.654-.729.632-1.374 1.51-2.395 1.704-.375.025-.75.025-1.125 0-.22 0-.23 0-.084.173.589.517 1.409.698 2.167.48z"/>
        <path fill="#FFF" d="M46.635 11.01c-.035 0-.068-.014-.092-.04-.024-.024-.036-.058-.033-.092.015-.383-.034-.766-.145-1.133-.084-.337-.198-.633-.573-.725-.057-.012-.113-.03-.167-.05-.054-.024-.09-.075-.094-.133.026-.076.096-.129.177-.133.11-.008.221.02.313.082.099.056.19.125.27.204.403.545.578 1.22.49 1.888-.005.074-.069.132-.146.132z"/>
        <path fill="#FFF" d="M55.323 13.265V10.94c0-.174-.167-.296-.417-.296-.826.04-1.653.04-2.479 0-.469 0-.823-.367-1.302-.388-.48-.02-1.042.286-1.417.306-.948.061-1.906 0-2.833 0-.177 0-.365.072-.385.245-.16.893-.198 1.802-.115 2.704.066.372.275.704.583.929.646.51.657 1.112 1.334 1.826.551.672 1.38 1.069 2.26 1.082 1.05.019 2.055-.414 2.75-1.184.677-.816.75-1.234 1.365-1.694.402-.276.645-.723.656-1.204z"/>
        <path fill="#D6D6D6" d="M54.708 14.49h-.26c.187-.955.246-1.929.177-2.898-.775.027-1.551.003-2.323-.072-.28-.034-.557-.1-.823-.193-.175-.074-.362-.118-.552-.133-.295.016-.588.06-.875.133l-.427.081c-.891.067-1.786.067-2.677 0-.099.906-.099 1.82 0 2.725l-.27.05c-.115-.972-.115-1.955 0-2.928v-.133h.197c.905.078 1.814.078 2.719 0L50 11.02c.307-.076.621-.124.938-.142.218.014.432.062.635.142.247.088.501.153.76.194.8.07 1.604.091 2.407.062h.125v.112c.094 1.036.042 2.08-.157 3.102z"/>
        <path fill="#FFA084" d="M46.02 13.102c-.005-.027-.005-.055 0-.082-.072-.204 0-.459-.166-.622-.166-.163-.396-.174-.479-.347-.042-.16.005-.331.125-.449.208-.286.469-.54.667-.837.225-.292.33-.656.291-1.02 0-.143-.114-.306-.26-.286-.05.017-.097.045-.136.082-.978.661-1.843 1.47-2.562 2.398-.505.85-.857 1.778-1.042 2.745-.085.91-.354 1.794-.791 2.602-1.25 1.734-7.052 9.857-7.625 12.357-.646 2.857.906 3.673 2.458 3.418 1.365-.224 4.99-6.214 7.292-14.622 0-.153.562-.419.677-.551.183-.251.343-.518.479-.796.302-.47.844-.694 1.219-1.092.423-.34.62-.882.51-1.408-.109-.204-.203-.416-.281-.633-.014-.14-.039-.28-.073-.418-.091-.153-.192-.3-.302-.439z"/>
        <path fill="#FFF" d="M57.552 11.296c.357-.21.528-.627.417-1.02-.018-.089-.061-.17-.125-.235-.194-.107-.431-.107-.625 0-.51.143-1.146.428-1.646.622-.194.073-.397.121-.604.143-.063.072-.073.296 0 .347.098.03.204.03.302 0 .638-.196 1.259-.445 1.854-.745.072-.015.147-.015.219 0 .113.01.216.07.28.164.062.093.078.21.043.316 0 .081-.115.173-.073.255.041.081-.115.194-.042.153z"/>
        <path fill="#FFA084" d="M60.313 18.49c-.167-.286-.334-.561-.49-.847-.075-.117-.13-.244-.167-.378-.041-.185-.041-.376 0-.56.212-.922.32-1.863.323-2.807-.146-.829-.446-1.624-.885-2.347-.056-.12-.142-.226-.25-.306-.107-.094-.268-.094-.375 0-.198.265 0 .684.073.96.083.333.129.675.135 1.02-.177-.072-.333-.562-.427-.725-.18-.278-.34-.568-.48-.867-.004-.03-.004-.062 0-.092 0-.133.157-.194.23-.306.037-.106.037-.22 0-.327 0-.112-.063-.245-.177-.286-.088-.03-.183-.03-.27 0-.17.045-.346.069-.522.072-.124-.009-.248.008-.364.05-.313.154.052.674.135.889.136.3.186.632.146.959-.014.087-.058.166-.125.224-.115.072-.292 0-.386.123-.093.122-.072.204-.093.316-.084.388-.625.51-.76.878-.136.367 0 .52 0 .785 0 .266-.199.378-.261.582-.048.24.008.487.156.684.147.194.322.366.521.51.708.54 1.273 1.24 1.646 2.04.556 1.573.906 3.209 1.041 4.868.306 1.8.717 3.582 1.23 5.337.36 1.31.827 2.59 1.395 3.826.24.724.647 1.383 1.188 1.929.07.054.147.098.23.133 1.478.5 3.124-.051 3-2.98-.025-.285-.07-.568-.136-.847-.275-1.043-.623-2.065-1.042-3.061-.49-1.255-1.042-2.5-1.573-3.745-.531-1.245-1.041-2.316-1.594-3.46-.208-.448-.416-.897-.635-1.336-.219-.439-.27-.612-.438-.908z"/>
        <path fill="#FFF" d="M46.25 12.571c.005.048.005.096 0 .143.01.058.01.116 0 .174v.377c.01.085.01.17 0 .255l-.156-.49c0-.183-.104-.377-.146-.57-.042-.195-.063-.338-.083-.511-.035-.2-.06-.4-.073-.602.04.048.073.104.093.163.096.218.156.448.178.684.053.13.115.256.187.377z"/>
        <path fill="#223056" d="M85.135 36L85.948 36 85.948 62.633 85.135 62.633z" transform="rotate(-180 85.542 49.316)"/>
        <path fill="#223056" d="M78.958 36L79.771 36 79.771 62.633 78.958 62.633z" transform="rotate(-180 79.365 49.316)"/>
        <path fill="#345EA0" d="M79.365 36.878c-.491-.006-.886-.397-.886-.878 0-1.378 1.563-2.265 3.969-2.265 2.406 0 4.01.887 4.01 2.265 0 .479-.396.867-.885.867-.234.003-.46-.086-.626-.247-.166-.161-.26-.38-.26-.61-.646-.432-1.43-.624-2.208-.54-1.375 0-2.083.387-2.198.55 0 .235-.097.46-.27.621-.174.162-.407.248-.646.237z"/>
        <ellipse cx="76.177" cy="95.531" fill="#1C1D33" rx="1.313" ry="1.735"/>
        <path fill="#1C1D33" d="M76.177 93.806L77.292 93.847 77.292 97.316 76.177 97.265z"/>
        <ellipse cx="77.292" cy="95.582" fill="#12174A" rx="1.313" ry="1.735"/>
        <circle cx="77.115" cy="95.582" r="1" fill="#1C1D33"/>
        <path fill="#4B7CB2" d="M87.115 96.378H71.177c-2.267 0-4.104-1.8-4.104-4.02V62.132c0-2.22 1.837-4.02 4.104-4.02h15.938v38.265z"/>
        <rect width="9.906" height="38.306" x="84.385" y="58.112" fill="#345EA0" rx="1.97" transform="rotate(-180 89.339 77.265)"/>
        <path fill="#264280" d="M94.292 94.265c0 1.19-.984 2.153-2.198 2.153h-1.469c0-2.571.292-3.336 3.677-3.336l-.01 1.183z"/>
        <ellipse cx="75.604" cy="64.633" fill="#345EA0" rx="7.583" ry="1"/>
        <ellipse cx="75.604" cy="70.949" fill="#345EA0" rx="7.583" ry="1"/>
        <ellipse cx="75.604" cy="83.592" fill="#345EA0" rx="7.583" ry="1"/>
        <ellipse cx="75.604" cy="89.908" fill="#345EA0" rx="7.583" ry="1"/>
        <ellipse cx="92.854" cy="95.531" fill="#1C1D33" rx="1.313" ry="1.735"/>
        <path fill="#1C1D33" d="M92.854 93.806L93.969 93.847 93.969 97.316 92.854 97.265z"/>
        <ellipse cx="93.969" cy="95.582" fill="#12174A" rx="1.313" ry="1.735"/>
        <path fill="#FFC964" d="M82.042 42.214l.25 9.664c.085 1.79.04 3.583-.136 5.367-.01.24-.09.474-.229.673-.254.217-.564.362-.896.419-1.024.312-1.848 1.062-2.24 2.04-.215.484-.369.99-.458 1.51-.114.746.177 1.49.125 2.246-.052.755-.552 1.54-.25 2.183.058.168.172.312.323.408.2.067.416.067.615 0 .104 0 .208-.091.312-.122.152-.026.307-.026.459 0 .09.01.18.01.27 0 .061-.016.12-.036.178-.061.147-.036.3-.036.448 0 .208 0 .385.163.604.102.218-.061.354-.235.562-.235.108.013.213.04.313.082.573.214.854-.245.864-.766.01-.52.198-.826.177-1.255-.065-.347-.16-.688-.28-1.02-.09-.81.062-1.63.437-2.357.268-.727.728-1.371 1.333-1.868.74-.449 1.168-1.26 1.115-2.112-.167-3.234 0-6.49-.365-9.714-.113-1.294-.293-2.581-.542-3.857-.283-1.371-.478-2.758-.583-4.153-.184-1.44-.088-2.901.281-4.306.033-.128.082-.252.146-.368.052-.102.083-.214.198-.255.075-.04.165-.04.24 0 .007-.066-.02-.132-.073-.173-.054-.04-.114-.072-.177-.092l-.792-.265c-.2-.073-.412-.111-.625-.113-.056-.005-.111-.005-.167 0-.094 0-.177.113-.27.164l-.167.112c-.115.1-.216.213-.302.337-.189.294-.333.614-.427.949-.195.665-.314 1.35-.355 2.04-.053 1.617-.019 3.235.105 4.847l-.021-.05z"/>
    </g>
</svg>
