<?xml version="1.0" encoding="UTF-8"?>
<svg width="72px" height="70px" viewBox="0 0 72 70" version="1.1" xmlns="http://www.w3.org/2000/svg" xmlns:xlink="http://www.w3.org/1999/xlink">
    <!-- Generator: Sketch 64 (93537) - https://sketch.com -->
    <title>bus certification 100</title>
    <desc>Created with Sketch.</desc>
    <g id="Visual-Design-Adnroid" stroke="none" stroke-width="1" fill="none" fill-rule="evenodd">
        <g id="Covid-19---Landing" transform="translate(-32.000000, -318.000000)" fill-rule="nonzero">
            <g id="Group-8" transform="translate(16.000000, 302.000000)">
                <g id="bus-certification-100" transform="translate(16.000000, 16.000000)">
                    <g id="Artwork_1" transform="translate(0.000000, 43.363636)">
                        <path d="M71.3209091,25.83 C71.3209091,26.55 55.5054545,26.5990909 36,26.5990909 C16.4945455,26.5990909 0.679090909,26.55 0.679090909,25.83 C0.679090909,25.11 16.4945455,24.5454545 36,24.5454545 C55.5054545,24.5454545 71.3209091,25.1181818 71.3209091,25.83 Z" id="Path" fill="#223056" opacity="0.49"></path>
                        <path d="M11.4545455,10.9472727 C10.2585712,11.2113705 9.11051533,11.65845 8.05090909,12.2727273 L7.56,12.6490909 C6.47967867,12.7596694 5.41972604,13.018463 4.41,13.4181818 L4.09090909,13.4181818 C3.05545442,13.4150983 2.02402247,13.5471216 1.02272727,13.8109091 C1.13727273,11.4218182 1.37454545,9.03272727 1.72636364,6.66818182 L2.14363636,3.91090909 C2.36788646,2.56838675 3.54852837,1.59732625 4.90909091,1.63636364 L7.65,1.63636364 C7.72091008,2.28944187 7.84681143,2.9353705 8.02636364,3.56727273 C8.2175623,4.12547017 8.44158937,4.67187765 8.69727273,5.20363636 C8.89738075,5.76081579 9.1267915,6.30703187 9.38454545,6.84 C10.0470076,7.99521817 10.8738289,9.04803728 11.8390909,9.96545455 C12.0272727,10.1536364 12.2318182,10.3336364 12.4363636,10.5136364 C12.1827273,10.6363636 11.9290909,10.7754545 11.6754545,10.9145455 L11.4545455,10.9472727 Z" id="Path" fill="#3F3E53"></path>
                        <path d="M1.07181818,13.5163636 L1.31727273,13.4345455 L6.54545455,11.9127273 L9.13909091,11.1518182 C9.49949744,11.0382706 9.8690597,10.9561456 10.2436364,10.9063636 C10.3827273,10.9063636 10.9636364,10.71 11.0618182,10.8245455 C10.5445271,10.3174759 10.1183129,9.72520424 9.80181818,9.07363636 L7.16727273,3.03545455 L3.07636364,3.03545455 C2.84710216,3.03497219 2.61969886,3.07657036 2.40545455,3.15818182 C2.40545455,3.08454545 2.47909091,3.01090909 2.52,2.93727273 L2.52,2.93727273 C2.53177103,2.91434272 2.54545594,2.89244686 2.56090909,2.87181818 L2.56090909,2.87181818 C2.5713972,2.8456513 2.58514191,2.82091083 2.60181818,2.79818182 L2.60181818,2.79818182 C2.6490181,2.72661042 2.70095219,2.65827609 2.75727273,2.59363636 L2.75727273,2.59363636 L2.80636364,2.54454545 L2.80636364,2.54454545 L2.93727273,2.45454545 L2.93727273,2.45454545 L3.04363636,2.34818182 L3.04363636,2.34818182 L3.09272727,2.34818182 L3.09272727,2.34818182 C3.09272727,2.34818182 3.09272727,2.34818182 3.13363636,2.30727273 L3.17454545,2.30727273 L3.23181818,2.26636364 L3.29727273,2.21727273 L3.34636364,2.21727273 L3.39545455,2.21727273 L3.39545455,2.21727273 L3.44454545,2.21727273 L3.48545455,2.21727273 L3.57545455,2.17636364 L3.57545455,2.17636364 L3.65727273,2.17636364 L3.65727273,2.17636364 L3.72272727,2.17636364 L3.76363636,2.17636364 L3.83727273,2.17636364 L3.83727273,2.17636364 L3.94363636,2.17636364 L3.94363636,2.17636364 L4.01727273,2.17636364 L4.05818182,2.17636364 L4.13181818,2.17636364 L4.13181818,2.17636364 L4.24636364,2.17636364 L4.35272727,2.17636364 L4.90909091,2.17636364 L31.4754545,2.17636364 L67.4754545,2.17636364 C68.1980489,2.17636364 68.8910477,2.46341314 69.4019991,2.97436452 C69.9129505,3.48531591 70.2,4.17831471 70.2,4.90090909 L70.2,11.4463636 L70.2,11.4463636 L70.2,19.6772727 C70.2,20.4020371 69.9120885,21.0971169 69.3996027,21.6096027 C68.8871169,22.1220885 68.1920371,22.41 67.4672727,22.41 L60.5454545,22.41 C60.449867,20.3217882 58.7290348,18.6779249 56.6386364,18.6779249 C54.548238,18.6779249 52.8274058,20.3217882 52.7318182,22.41 L51.6436364,22.41 C51.70948,20.9715759 50.9795803,19.6133227 49.7436864,18.874428 C48.5077924,18.1355332 46.9658439,18.1355332 45.72995,18.874428 C44.4940561,19.6133227 43.7641563,20.9715759 43.83,22.41 L17.8690909,22.41 C17.8690909,20.2545832 16.1217804,18.5072727 13.9663636,18.5072727 C11.8109469,18.5072727 10.0636364,20.2545832 10.0636364,22.41 L3.69818182,22.41 C2.19212765,22.41 0.96996369,21.191502 0.965454545,19.6854545 L0.965454545,17.3945455 L1.07181818,13.5163636 Z M22.7290909,10.8654545 L33.2836364,10.8654545 L31.7045455,2.98636364 L21.1745455,2.98636364 L22.7209091,10.6936364 C22.7286162,10.7505632 22.7313538,10.8080529 22.7290909,10.8654545 L22.7290909,10.8654545 Z M68.8909326,10.8654545 L68.8909326,10.8654545 L68.8909326,4.32 C68.8930872,3.94101254 68.7440595,3.5767996 68.4768394,3.3080438 C68.2096194,3.039288 67.8462664,2.88818182 67.4672727,2.88818182 L57.5427273,2.88818182 L59.0972727,10.6772727 C59.1053603,10.7260305 59.1053603,10.7757876 59.0972727,10.8245455 L68.8909326,10.8654545 Z M57.5345455,10.8654545 L55.9472727,2.92909091 L45.4172727,2.92909091 L46.9718182,10.6854545 C46.9754157,10.7372103 46.9754157,10.7891534 46.9718182,10.8409091 L57.5345455,10.8654545 Z M45.4090909,10.8654545 L43.83,2.94545455 L33.3,2.94545455 L34.8463636,10.6854545 C34.8503869,10.734463 34.8503869,10.7837188 34.8463636,10.8327273 L45.4090909,10.8654545 Z M11.2254545,8.11636364 C11.9567768,9.78671247 13.607479,10.8657707 15.4309091,10.8654546 L21.1581818,10.8654546 L19.5790909,3.00272727 L9,3.02727273 L11.2254545,8.11636364 Z" id="Shape" fill="#D64E55"></path>
                        <g id="Group" opacity="0.5" transform="translate(9.000000, 2.454545)" fill="#3F3E53">
                            <path d="M48.5427273,0.45 L58.4672727,0.45 C58.8392724,0.457601046 59.1951153,0.603438297 59.4654545,0.859090909 C59.7313994,1.13399899 59.8834056,1.49939847 59.8909091,1.88181818 L59.8909091,8.42727273 L50.0727273,8.42727273 C50.0812724,8.37580683 50.0812724,8.32328408 50.0727273,8.27181818 L48.5427273,0.45 Z M36.4172727,0.45 L46.9472727,0.45 L48.5345455,8.38636364 L37.9881818,8.38636364 C37.9917794,8.3346079 37.9917794,8.28266483 37.9881818,8.23090909 L36.4172727,0.45 Z M24.3,0.45 L34.83,0.45 L36.4090909,8.36181818 L25.8627273,8.36181818 C25.8671703,8.31009524 25.8671703,8.25808658 25.8627273,8.20636364 L24.3,0.45 Z M12.1745455,0.45 L22.7045455,0.45 L24.2836364,8.33727273 L13.7290909,8.33727273 C13.7329421,8.2855261 13.7329421,8.23356481 13.7290909,8.18181818 L12.1745455,0.45 Z M0,0.564545455 L10.5627273,0.564545455 L12.1418182,8.4272728 L6.41454545,8.4272728 C4.59111537,8.42758892 2.94041312,7.34853065 2.20909091,5.67818182 L0,0.564545455 Z" id="Shape"></path>
                        </g>
                        <path d="M3.91909091,14.1054545 C3.5685332,15.4760185 2.37702666,16.4661901 0.965454545,16.56 L1.03909091,14.6454545 C1.81635184,14.1783633 2.67836483,13.869707 3.57545455,13.7372727 C3.67529518,13.7209027 3.77671384,13.7554911 3.84574655,13.8294547 C3.91477926,13.9034183 3.94229945,14.0069787 3.91909091,14.1054545 Z" id="Path" fill="#A4A6A9"></path>
                        <path d="M0.965454545,19.5136364 L0.965454545,18.8590909 L2.55272727,18.8590909 C2.41932705,19.2512702 2.05060899,19.5146403 1.63636364,19.5136364 L0.965454545,19.5136364 Z" id="Path" fill="#F6D587"></path>
                        <path d="M69.4227273,20.2090909 L70.1509091,20.2090909 C70.1032495,20.4325667 70.0290887,20.6495558 69.93,20.8554545 L69.4227273,20.8554545 C69.2573485,20.8511568 69.1242977,20.7181061 69.12,20.5527273 L69.12,20.5118182 C69.12,20.3446265 69.2555356,20.2090909 69.4227273,20.2090909 L69.4227273,20.2090909 Z" id="Path" fill="#F6D587"></path>
                        <path d="M23.8829672,20.2193082 L24.8156944,20.2193082 C24.9964422,20.2193082 25.1429672,20.3658332 25.1429672,20.5465809 C25.1429672,20.7273286 24.9964422,20.8738536 24.8156944,20.8738536 L23.8829672,20.8738536 C23.7022194,20.8738536 23.5556944,20.7273286 23.5556944,20.5465809 C23.5556944,20.3658332 23.7022194,20.2193082 23.8829672,20.2193082 Z" id="Rectangle" fill="#F6D486" transform="translate(24.349331, 20.546581) rotate(179.980000) translate(-24.349331, -20.546581) "></path>
                        <path d="M37.4484225,20.2158616 L38.3811498,20.2158616 C38.5618975,20.2158616 38.7084225,20.3623866 38.7084225,20.5431343 C38.7084225,20.7238821 38.5618975,20.8704071 38.3811498,20.8704071 L37.4484225,20.8704071 C37.2676748,20.8704071 37.1211498,20.7238821 37.1211498,20.5431343 C37.1211498,20.3623866 37.2676748,20.2158616 37.4484225,20.2158616 Z" id="Rectangle" fill="#F6D486" transform="translate(37.914786, 20.543134) rotate(179.980000) translate(-37.914786, -20.543134) "></path>
                        <path d="M24.3409091,1.63636364 L24.5454545,1.30909091 C25.368076,0.578207007 26.4504584,0.209548183 27.5481818,0.286363636 L47.6754545,0.286363636 C49.2218182,0.286363636 50.5472727,0.826363636 50.85,1.58727273 L50.85,1.58727273" id="Path" fill="#3F3E53"></path>
                        <circle id="Oval" fill="#FAEEDF" cx="47.7654545" cy="22.4181818" r="2.74909091"></circle>
                        <path d="M44.3618182,22.4181818 L44.3618182,22.4181818 C44.3662924,20.5434514 45.8825585,19.0235317 47.7572727,19.0145455 L47.7572727,19.0145455 C49.5700178,19.1035028 50.9940822,20.5991645 50.9940822,22.4140909 C50.9940822,24.2290174 49.5700178,25.724679 47.7572727,25.8136364 L47.7572727,25.8136364 C45.8838812,25.8091384 44.3663161,24.2915733 44.3618182,22.4181818 L44.3618182,22.4181818 Z M47.7654545,20.3154545 C46.9844111,20.2666632 46.2408864,20.6556484 45.8355951,21.3250873 C45.4303037,21.9945261 45.4303037,22.8336557 45.8355951,23.5030946 C46.2408864,24.1725334 46.9844111,24.5615186 47.7654545,24.5127273 L47.7654545,24.5127273 C48.873692,24.4434963 49.7370811,23.5244886 49.7370811,22.4140909 C49.7370811,21.3036932 48.873692,20.3846856 47.7654545,20.3154545 Z" id="Shape" fill="#2A2A42"></path>
                        <g id="Group" opacity="0.3" transform="translate(46.636364, 21.272727)" fill="#3E3E53">
                            <circle id="Oval" cx="1.12909091" cy="1.14545455" r="1"></circle>
                        </g>
                        <circle id="Oval" fill="#FAEEDF" cx="13.9827273" cy="22.4263636" r="2.74909091"></circle>
                        <path d="M10.5872727,22.4263636 L10.5872727,22.4263636 C10.5872727,21.5258331 10.9450071,20.662186 11.5817783,20.0254147 C12.2185496,19.3886435 13.0821967,19.0309091 13.9827273,19.0309091 L13.9827273,19.0309091 C15.857985,19.0309091 17.3781818,20.5511059 17.3781818,22.4263636 C17.3781818,24.3016214 15.857985,25.8218182 13.9827273,25.8218182 L13.9827273,25.8218182 C12.1074695,25.8218182 10.5872727,24.3016214 10.5872727,22.4263636 Z M13.9827273,20.3318022 C12.8259418,20.3318022 11.8881818,21.2695781 11.8881818,22.4263636 C11.8881818,23.5831491 12.8259418,24.5209091 13.9827273,24.5209091 L13.9827273,24.5209091 C15.1408438,24.5209091 16.0809483,23.5844714 16.0854545,22.4263636 C16.0854545,21.8694351 15.8636613,21.3354356 15.4690865,20.9423961 C15.0745117,20.5493566 14.5396515,20.3296427 13.9827273,20.3318022 L13.9827273,20.3318022 Z" id="Shape" fill="#2A2A42"></path>
                        <circle id="Oval" fill="#FAEEDF" cx="56.6672727" cy="22.41" r="2.74909091"></circle>
                        <path d="M53.2718182,22.41 C53.2718182,20.5347422 54.792015,19.0145455 56.6672727,19.0145455 L56.6672727,19.0145455 C58.4800178,19.1035028 59.9040822,20.5991645 59.9040822,22.4140909 C59.9040822,24.2290174 58.4800178,25.724679 56.6672727,25.8136364 L56.6672727,25.8136364 C54.7906923,25.8091253 53.2718182,24.2865859 53.2718182,22.41 Z M56.6672727,20.3154545 C56.1117647,20.3154545 55.5790089,20.5361292 55.1862054,20.9289327 C54.793402,21.3217362 54.5727273,21.854492 54.5727273,22.41 L54.5727273,22.41 C54.5617376,22.9725618 54.7775512,23.5158879 55.1715522,23.9175842 C55.5655531,24.3192804 56.1046036,24.5455619 56.6672727,24.5454546 L56.6672727,24.5454546 C57.8240582,24.5454546 58.7618182,23.6076946 58.7618182,22.4509091 C58.7618182,21.2941236 57.8240582,20.3563636 56.6672727,20.3563636 L56.6672727,20.3154545 Z" id="Shape" fill="#2A2A42"></path>
                        <g id="Group" opacity="0.3" transform="translate(55.636364, 21.272727)" fill="#3E3E53">
                            <circle id="Oval" cx="1.09636364" cy="1.14545455" r="1"></circle>
                        </g>
                        <g id="Group" opacity="0.3" transform="translate(13.090909, 21.272727)" fill="#3E3E53">
                            <circle id="Oval" cx="0.850909091" cy="1.14545455" r="1"></circle>
                        </g>
                        <path d="M8.18181818,22.4263636 C10.8818182,17.82 13.9090909,15.7336364 16.4863636,14.7518182 C23.9645455,11.9536364 27.6709091,18.5236364 40.3854545,17.4354545 C50.85,16.5354545 60.2427273,11.0781818 62.9427273,14.1054545 C64.3955958,15.8478456 65.4510241,17.8861064 66.0354545,20.0781818 L66.1827273,20.7736364 C66.2892336,21.3147627 66.3684248,21.8609087 66.42,22.41 L60.5454545,22.41 C60.449867,20.3217882 58.7290348,18.6779249 56.6386364,18.6779249 C54.548238,18.6779249 52.8274058,20.3217882 52.7318182,22.41 L51.6436364,22.41 C51.70948,20.9715759 50.9795803,19.6133227 49.7436864,18.874428 C48.5077924,18.1355332 46.9658439,18.1355332 45.72995,18.874428 C44.4940561,19.6133227 43.7641563,20.9715759 43.83,22.41 L17.8690909,22.41 C17.8690909,20.2545832 16.1217804,18.5072727 13.9663636,18.5072727 C11.8109469,18.5072727 10.0636364,20.2545832 10.0636364,22.41 L8.18181818,22.41 L8.18181818,22.4263636 Z" id="Path" fill="#D64E55"></path>
                        <path d="M69.8563636,13.4590909 C69.938984,13.3100413 70.0569957,13.1836003 70.2,13.0909091 L70.2,18.4827273 L68.9399976,18.4827273 L68.9399976,16.4536364 C68.938989,15.3862566 69.2582011,14.343117 69.8563636,13.4590909 L69.8563636,13.4590909 Z" id="Path" fill="#C55A5A"></path>
                    </g>
                    <polygon id="Path" fill="#223056" points="19.3581818 13.2709091 19.3581818 31.4672727 21.3054545 37.3827273 29.3727273 46.3745455 35.1163636 49.6718182 43.4209091 45.8836364 51.3572727 35.5663636 52.0936364 28.2681818 51.48 13.2709091 35.7218182 6.55363636"></polygon>
                    <path d="M56.9290909,32.8581818 L56.9290909,8.31272727 C45.1881818,6.80727273 36.8590909,0.613636364 36,0.400909091 C35.1818182,0.613636364 26.82,6.80727273 15.0709091,8.29636364 L15.0709091,32.8418182 C15.0709091,32.8418182 13.7945455,44.82 36,56.1354545 C58.2136364,44.82 56.9290909,32.8581818 56.9290909,32.8581818 Z M51.1036364,38.7490909 C49.2136364,41.9318182 45.0654545,46.7345455 36,51.6681818 C26.9427273,46.7590909 22.7863636,41.9318182 20.8963636,38.7490909 C19.0063636,35.5663636 19.0063636,33.5863636 19.0063636,33.2345455 L19.0472727,32.9563636 L19.0472727,32.7763636 L19.0472727,11.6427273 C25.0273781,10.3370354 30.7538068,8.06249352 36,4.90909091 C41.2560362,8.05493654 46.9906265,10.3211361 52.9772727,11.6181818 L52.9772727,33.1527273 L52.9772727,33.2427273 C52.9936364,33.6354545 52.9036364,35.7054545 51.1036364,38.7490909 Z" id="Shape" fill="#223056"></path>
                    <path d="M53.6972727,26.0754545 L53.6972727,11.3481818 C43.7645455,10.1209091 36.72,4.90909091 36,4.70454545 C35.28,4.88454545 28.2354545,10.1209091 18.3027273,11.3809091 L18.3027273,32.1463636 C18.3027273,32.1463636 17.2227273,42.2590909 36,51.8318182 C36.4703307,51.5094728 36.9719574,51.2353598 37.4972727,51.0136364 C41.573938,48.9104144 45.2910615,46.1736616 48.51,42.9054545 C50.3942587,40.9754463 51.8887988,38.7003007 52.9118182,36.2045455 C53.3867534,34.8892645 53.6625245,33.5104093 53.73,32.1136364 C53.8527273,30.1418182 53.6972727,28.08 53.6972727,26.0754545 Z M50.3509091,32.7272727 C50.2517207,33.872932 49.9204553,34.986429 49.3772727,36 C49.1890909,36.3845455 48.9845455,36.7609091 48.7718182,37.1290909 C47.1354545,39.8209091 43.6663636,43.8872727 36,48.0518182 C28.3418182,43.8872727 24.8318182,39.8209091 23.2363636,37.1290909 C22.6962882,36.2403384 22.2650123,35.2898833 21.9518182,34.2981818 C21.8470218,33.9377097 21.7623457,33.5716904 21.6981818,33.2018182 C21.6431493,32.7732478 21.6267197,32.3406007 21.6490909,31.9090909 L21.6490909,14.2118182 C26.7101791,13.113734 31.5577335,11.1957165 36,8.53363636 C40.4445934,11.1969374 45.2950424,13.1150067 50.3590909,14.2118182 L50.3590909,31.6063636 C50.3590909,31.9663636 50.3590909,32.3263636 50.3509091,32.7272727 Z" id="Shape" fill="#FFFFFF"></path>
                    <polygon id="Path" fill="#223056" points="50.0481818 14.5554545 54.2536364 10.8409091 54.2536364 25.2409091 49.9336364 29.6754545"></polygon>
                    <path d="M55.5790909,19.1372727 C55.7993745,19.3655189 55.7993745,19.7272084 55.5790909,19.9554545 L55.1618182,20.3809091 L49.1318182,26.3127273 L36.3272727,38.9045455 C36.1963636,39.0354545 36.0736364,39.1663636 35.9345455,39.2809091 C35.37,39.7881818 35.1163636,39.7963636 34.65,39.2318182 C33.0136364,37.4236364 31.3772727,35.6072727 29.7409091,33.7909091 L23.8581818,27.2454545 C23.2363636,26.55 23.2363636,26.3045455 23.9318182,25.6909091 L25.8627273,23.9972727 C26.4272727,23.49 26.6809091,23.4736364 27.1554545,23.9972727 C29.0127273,26.0509091 30.8536364,28.0881818 32.7109091,30.1827273 C33.3981818,30.9518182 34.0854545,31.7372727 34.7972727,32.49 C35.2881818,33.0136364 35.6727273,33.0054545 36.18,32.49 L50.3345455,18.5809091 C50.9236364,17.9918182 51.5290909,17.4190909 52.1263636,16.8381818 C52.2657354,16.6394853 52.493206,16.5211902 52.7359091,16.5211902 C52.9786122,16.5211902 53.2060828,16.6394853 53.3454545,16.8381818 C54.0081818,17.5418182 54.7036364,18.2127273 55.3827273,18.9081818 L55.5790909,19.1372727 Z" id="Path" fill="#FFFFFF"></path>
                </g>
            </g>
        </g>
    </g>
</svg>