<svg xmlns="http://www.w3.org/2000/svg" width="100" height="98" viewBox="0 0 100 98">
    <g fill="none" transform="translate(0 -2)">
        <path fill="#E5EBF8" d="M99.85 51.22c.013 9.952-3.111 19.668-8.95 27.829-.5.699-1.025 1.382-1.575 2.049-4.979 6.26-11.461 11.227-18.875 14.463-12.98 5.708-27.845 5.708-40.825 0-6.343-2.777-12.022-6.814-16.675-11.854-.375-.39-.725-.805-1.075-1.22-4.117-4.748-7.25-10.232-9.225-16.146C1.461 62.813.69 59.163.35 55.463.25 54.05.175 52.66.175 51.22c-.003-4.183.551-8.348 1.65-12.39-.023-.047-.023-.1 0-.147C8.183 14.99 31.612-.387 56.502 2.797 81.39 5.98 99.966 26.73 99.85 51.22z"/>
        <ellipse cx="70.85" cy="82.195" fill="#7E7E8C" opacity=".21" rx="15.525" ry="1.439"/>
        <path fill="#006DB7" d="M73.85 26.83c7.083 0 12.825 5.601 12.825 12.511v34.366c0 4.755-3.951 8.61-8.825 8.61h-8c-4.874 0-8.825-3.855-8.825-8.61V39.244c.055-6.872 5.78-12.415 12.825-12.415z"/>
        <path fill="#F8E8CD" d="M61.025 41.585H86.775V69.36500000000001H61.025z"/>
        <path fill="#7E7E8C" d="M64.7 44.854H82.625V46.854H64.7zM64.7 48.488H82.625V52.317H64.7z"/>
        <path fill="#1C345D" d="M77.75 16.024c-5.694-2.154-11.99-2.249-17.75-.268v1.83c3.216-1.092 6.684-1.27 10-.513v5.39h7.75v-6.439z"/>
        <path fill="#1058AE" d="M74.1 17.659v.512H70v-1.098c-2.066-.513-4.218-.613-6.325-.293 3.483-.79 7.133-.483 10.425.879z"/>
        <path fill="#1C345D" d="M68.5 22.22H79.175V27.683H68.5z"/>
        <path fill="#7E7E8C" d="M77.225 62.537c0 1.926-1.6 3.487-3.575 3.487-1.974 0-3.575-1.561-3.575-3.487.817-2.82 2.02-5.519 3.575-8.025 1.556 2.506 2.758 5.205 3.575 8.025z"/>
        <path fill="#D84E55" d="M59.25 29.951c.205.926-.075 1.89-.746 2.575-.671.684-1.647.999-2.604.84-1.037-.103-1.986-.614-2.628-1.415-.641-.8-.92-1.823-.772-2.829.15-2.44 2.225-7.317 5.375-8.293-.7 2.976 1.125 6.634 1.375 9.122z"/>
        <g>
            <path fill="#C06652" d="M52.075 23.073c-.275 1.805-5.275 2.44-11.15 1.659-5.875-.78-10.425-3.025-10.15-4.878.275-1.854 5.275-2.44 11.15-1.634 5.875.804 10.425 3.073 10.15 4.853z" transform="translate(0 36.585)"/>
            <path fill="#C06652" d="M42.7 23.122s5.625-2.83 6.025-2.902c.4-.074 4.25-3.952 6.325-2.44 2.075 1.513-3.625 6.39-3.625 6.39l-6.7.22-2.025-1.268z" transform="translate(0 36.585)"/>
            <path fill="#C06652" d="M47.775 23.805l5-3.927c.65-1.633 1.599-3.137 2.8-4.439.872-.949 2.148-1.445 3.45-1.341-.407 2.445-1.026 4.852-1.85 7.195l-6.15 4.634-3.25-2.122z" transform="translate(0 36.585)"/>
            <path fill="#C06652" d="M50.65 24.512l6.45-4.878s3.45-5.244 5.4-5.366c1.95-.122 2.35.976 2.35.976l-4.125 6.83-10.075 2.438z" transform="translate(0 36.585)"/>
            <path fill="#F38A6B" d="M67.5 19.512c-1.9 2.013-4.09 3.746-6.5 5.147-2.804 1.988-5.943 3.482-9.275 4.414-4.08.414-8.2.299-12.25-.341-4.654-.242-9.27-.953-13.775-2.122-1.875-.903-12.75-4.025-16.2-5.025l-1.075-.292L.35 18.878c-.1-1.415-.175-2.805-.175-4.244-.003-4.182.551-8.347 1.65-12.39l11.85 5.56h.525c6.356-.835 12.762-1.25 19.175-1.243 4.44.823 8.793 2.047 13 3.659 2.225.756 8.475 2.804 7.25 5.536-.9 2.049-9.725-1.097-9.725-1.097l-6.575.853.375 2.44.2 1.219c1.266 1.016 2.602 1.945 4 2.78.736.263 1.499.451 2.275.561 1.521.288 3.057.5 4.6.634 1.086.139 2.181.188 3.275.147.133.012.267.012.4 0h.05c.165.029.335.029.5 0 1.314-.484 2.599-1.037 3.85-1.659 1.375-.658 2.875-1.366 4.1-1.902.546-.25 1.105-.469 1.675-.659h.425c1.625-.951 4.825-.756 4.45.44z" transform="translate(0 36.585)"/>
            <path fill="#1058AE" d="M14.225 7.659l-4.7 13.804-3.05 8.952-3.825-.659C1.461 26.227.69 22.578.35 18.878c-.1-1.415-.175-2.805-.175-4.244-.003-4.182.551-8.347 1.65-12.39-.023-.046-.023-.1 0-.146l12.4 5.56z" transform="translate(0 36.585)"/>
        </g>
    </g>
</svg>
