<svg id="Layer_1" data-name="Layer 1" xmlns="http://www.w3.org/2000/svg" xmlns:xlink="http://www.w3.org/1999/xlink" viewBox="0 0 300 200"><defs><style>.cls-1{opacity:0.84;fill:url(#linear-gradient);}.cls-2{fill:#f0966a;}.cls-3{fill:#faa87d;}.cls-4{fill:#12174a;}.cls-5{fill:none;stroke:#3276b7;stroke-linecap:round;stroke-miterlimit:10;stroke-width:2px;}.cls-6{fill:#72bf98;}.cls-7{fill:#d8846a;}.cls-8{fill:#53a076;}.cls-9{fill:#e5815a;}</style><linearGradient id="linear-gradient" x1="148.89" y1="-7.23" x2="147.89" y2="257.76" gradientUnits="userSpaceOnUse"><stop offset="0" stop-color="#fff"/><stop offset="0.01" stop-color="#fae9ea"/><stop offset="0.03" stop-color="#f2c5c7"/><stop offset="0.05" stop-color="#eba5a8"/><stop offset="0.08" stop-color="#e5898e"/><stop offset="0.11" stop-color="#e07379"/><stop offset="0.14" stop-color="#dd6269"/><stop offset="0.18" stop-color="#da575d"/><stop offset="0.24" stop-color="#d85057"/><stop offset="0.41" stop-color="#d84e55"/></linearGradient></defs><path class="cls-1" d="M277.37,95.72c-.35.62-.73,1.23-1.13,1.82-2.71,4-6.36,7.41-8.29,11.84-5.13,11.79,3.47,26.75-3,37.84-6.35,10.84-19,8.93-28.7,13.39-10.91,5-19.13,14.19-29,20.81a95.71,95.71,0,0,1-53.1,16.31c-25.25,0-48-12.15-69.82-23.47C64.44,164,42.2,154.41,27.54,136.81c-16.66-20-17-50.51,10.58-61,14.3-5.45,30.21-1.91,45.38.14C95,77.51,108,78.06,118.72,72.8c11.86-5.8,21-16.18,33.41-21.6a59.15,59.15,0,0,1,34.51-3.72c11.05,2.09,23.1,7.26,33.2,12.16,11.11,5.39,20.56,5.49,33,3.89,5.23-.68,10.68-1.4,15.67.32,6.3,2.16,10.9,8.16,12.13,14.71A25.38,25.38,0,0,1,277.37,95.72Z"/><path class="cls-2" d="M212.2,162.61a8.27,8.27,0,0,1,.11,3.32,6.07,6.07,0,0,1-2.69,3.46c-4.64,3.16-10.8,2.43-16.34,1.57a8.53,8.53,0,0,1-4.4-1.56,8.19,8.19,0,0,1-2-3.39,105.53,105.53,0,0,1-6.3-25.35c-.67-5.51-.36-12.19,4.35-15.13a14.73,14.73,0,0,1,5.75-1.73c3.4-.51,9.74-2.29,12.94-.54,2.65,1.45,2.76,4.77,3.22,7.43C208.63,141.32,210.4,152,212.2,162.61Z"/><path class="cls-3" d="M147.16,76.26c-7.12.18-12.47-3.8-16.07-9.94-2.92-5-4.32-10.69-5.7-16.3-2.09-8.55-4.75-15.91-.06-24.1a24.12,24.12,0,0,1,17.16-11.68l1.28-.2c12.82-2,24.87,6.41,26.78,18.68.18,1.13.12,2.36.39,3.46s.65,2,.89,3a27.82,27.82,0,0,1,.93,7.14c-.09,3.37-1.25,6.87-3.83,9a7.88,7.88,0,0,0-1.37,1.27,5.24,5.24,0,0,0-.61,1.26,75.74,75.74,0,0,0-2.31,7.32c-.85,3.25-1.82,7-4.89,8.76S150.79,76.17,147.16,76.26Z"/><path class="cls-4" d="M167.77,41a3.11,3.11,0,0,0-2,2.52c-.23.86-.61,1.85-1.47,2.09a2.08,2.08,0,0,1-1.89-.69A21,21,0,0,0,161,43.43c-1.08-.86-2.93-.49-4.21-.54a23.88,23.88,0,0,1-5-.68,20.54,20.54,0,0,1-8.45-4.28c-2.71-2.31-4.78-5.27-7.34-7.74a17.82,17.82,0,0,0-4.7-3.39c-4.62-2.18-6.31.38-6.64,4.84a61.87,61.87,0,0,0,2.86,22.09c1.15,3.65,3.42,6.74,4.67,10.27,1.12,3.12,1.58,5.22,4.57,7.27a18.52,18.52,0,0,0,8.91,3,2.91,2.91,0,0,1,1.84.58,2.66,2.66,0,0,1,.56,1.68,54.33,54.33,0,0,1,.13,7.44,9,9,0,0,1-1,4.19A8.53,8.53,0,0,1,143.93,91a36.19,36.19,0,0,1-24,4.24,16.54,16.54,0,0,1-5.3-1.7c-4.08-2.29-6.26-7.15-6.23-11.82,0-5.56,2.68-9.6,5.61-14,2.63-3.91,2.16-7.72,1.91-12.11a136.58,136.58,0,0,1,.15-14.73,42.07,42.07,0,0,1,3.37-15.45c2.42-5.25,6.74-8.34,10.85-12.28a24.68,24.68,0,0,1,4.93-4,20.18,20.18,0,0,1,4-1.57c6.76-2,14.71-3.88,21.49-1.15a26.31,26.31,0,0,1,14,13.47,51.34,51.34,0,0,1,2.78,8.93c2.05,8.27,2.8,17,7.28,24.31,4.75,7.68,10.89,13,17.17,19.32,10,7.88,11.18,19.58-1.23,25.46-3.37,1.6-6.91,3.07-10.64,3.27-7.74.4-13.38-4.68-19.52-8.07-1.33-.73-2.86-1.06-4.23-1.72-3.14-1.52-5.21-4.72-6.17-8.08a37.36,37.36,0,0,1-.95-10.4,14,14,0,0,1,.33-3.6A14,14,0,0,1,161.16,66a38,38,0,0,0,3.22-5.35c.66-1.66.8-3.64,1.32-5.37a.55.55,0,0,1,.13-.25.59.59,0,0,1,.39-.13c4.74-.55,5-6.93,4.9-10.5a4.53,4.53,0,0,0-1-3.28C169.61,40.6,168.66,40.76,167.77,41Z"/><path class="cls-4" d="M129.23,44.42l-.23,0a10.88,10.88,0,0,1-2.26-.51l-2.31-.7a2.42,2.42,0,0,0-2.38.31c-1.49,1.29,2.9,2.25,3.69,2.43l4,.91A3.87,3.87,0,0,0,131,47a1.29,1.29,0,0,0,1-.65c.3-.65-.26-1.42-.93-1.68A6,6,0,0,0,129.23,44.42Z"/><path class="cls-4" d="M147.07,42.46l-4.32,1a17.56,17.56,0,0,0-1.89.51,16,16,0,0,1-1.83.37c-.89.21-2.21,1.22-1.34,2.23a1.54,1.54,0,0,0,1.3.45,4.47,4.47,0,0,0,1.36-.42c2.43-1,4.79-2.33,7.26-3.27.34-.13.75-.42.61-.75a.44.44,0,0,0-.29-.24,1.4,1.4,0,0,0-.67,0Z"/><line class="cls-5" x1="106.43" y1="55.65" x2="98.86" y2="53.46"/><line class="cls-5" x1="124.11" y1="52.58" x2="121.33" y2="45.2"/><line class="cls-5" x1="113.27" y1="50.13" x2="108.31" y2="44.01"/><path class="cls-3" d="M165.35,84.83a9.31,9.31,0,0,0,2.3,1.85c.63.36,1.87.46,2.37.87.81.65.53,1.16.3,2.37a27.09,27.09,0,0,1-4.58,11.23c-4.3,5.82-11.8,9.26-18.9,8a9.14,9.14,0,0,1-4.59-1.85,8,8,0,0,1-1.67-2.34c-1.51-2.94-2.83-7-2.25-10.37.12-.73.45-1.4.61-2.11a13.82,13.82,0,0,0,.11-2.14,32.93,32.93,0,0,1,.59-4.63c0-.17.09-.38.25-.45a.66.66,0,0,1,.37,0,2.19,2.19,0,0,0,2.64-1.47,8.55,8.55,0,0,0,.33-3.52c-.08-1.84-.1-3.67-.07-5.51,0-2.19,2.4-3.12,2.89-5.33a28.64,28.64,0,0,0,.17-4.55c0-3.23,3-5.88,6.68-5.89h1.2c3.68,0,6.69,2.63,6.7,5.86.18,3.59-.23,7.56.6,11a24.41,24.41,0,0,0,2.79,7.52A10.53,10.53,0,0,0,165.35,84.83Z"/><path class="cls-6" d="M168.65,89A10.39,10.39,0,0,0,167,93.87a16.44,16.44,0,0,1-7.53,11.7,12.86,12.86,0,0,1-8.07,2c-4.6-.53-9.27-.15-11.15-5.34s-.45-11.35.73-16.51c0-.15.05-.33-.07-.42a.39.39,0,0,0-.18-.06,18.54,18.54,0,0,1-5.57-1.8,4,4,0,0,0-2-.65c-.26,3.89-3.25,7.75-5.39,10.81-1.71,2.44-3.49,4.86-5.4,7.14-2.64,3.14-4.1,6.93-5.53,10.72-1.23,3.29-3.87,6.84-4.09,10.38a11,11,0,0,0,.58,3.63c3.17,11.29,6.21,21.18,5.65,33a99.43,99.43,0,0,1-2,15.56c-.55,2.65-1.2,5.28-2,7.88-.58,2-2.22,3.9-2.52,6-.24,1.62,12.56,5.72,14.08,6.17a104.13,104.13,0,0,0,50,1.53c5.91-1,12.64-3.13,17.32-6.95.16-.13.33-.29.32-.49a.65.65,0,0,0-.11-.29c-1.37-2.41-3.39-5.07-3.39-7.92,0-4.81,1.39-9.59.89-14.38-.65-6.31-1.93-12.5-3.15-18.73-.32-1.65-3.87-18.69-3.09-18.94,5.76-1.81,10.59-3.09,16.72-2.9,1.51,0,3.3.37,3.91,1.75.36.8.27,1.87,1,2.38,1.12-.58,2.35-1.28,2.69-2.5.61-2.13-1.19-6-1.49-8.31a77,77,0,0,0-2.54-10.19c-1.64-5.79-4-11.68-8.68-15.5S173.13,83,168.65,89Z"/><path class="cls-7" d="M161.19,74.76l-18.37-.36.23,2.81c0,1.11.12,1.65.18,2.75,0,.34,0,.52.34.66a5.4,5.4,0,0,0,1.61.22,12.58,12.58,0,0,0,3.18-.2,24.43,24.43,0,0,0,6.83-2.48,30.94,30.94,0,0,0,3.16-1.92,5,5,0,0,1,1.29-.74C160.07,75.36,160.76,74.75,161.19,74.76Z"/><path class="cls-2" d="M155,134.33c-.46-1-.9-2-1.49-3.35-.74-1.62-5.62-10.7-8.43-8.08,0,0-1.07,1-.09,3.25,0,0,2.09,2.91.17,2.88s-2.73-.44-6.28-2.19c-4-2-7.16-5.2-9.19-4.23s-2.24,3,3.48,5.86c0,0,2.24,1.22,2.34,1.72.28,1.33-6.12-1.54-7.93-1.16,0,0-4.88,1.39.43,4.53,0,0-5.75,1.27-.17,4.52s5.06,2,5.06,2a4.68,4.68,0,0,0-2.21,0c-1.71.22-3,1.11-2.64,2.24,1.41,4.18,8.08,4.12,11.58,4.59,6.53.88,13.95,1.53,18.54,6.81,4.78,5.5,9.91,9.43,15.89,13.81,4.85,3.54,9.74,7.12,15.2,9.63,6.36,2.93,18.42,6.12,23.64-.86,2.89-3.87,0-11.29-1.18-15.39a5.07,5.07,0,0,0-.92-2,5,5,0,0,0-3.08-1.23c-2.52-.39-5.29-.51-7.7-1.34-2-.71-4.25-2.91-6.54-2.91-11.32-4.05-23.26-7.65-33.59-13.95A11.13,11.13,0,0,1,155,134.33Z"/><path class="cls-2" d="M188.92,65.45s19.84,4.34,20.38,8.88-3.25,3.42-3.25,3.42,3.27,2.5.84,5.15-3.73.28-3.73.28,3.85,2.66,1.45,4.87-6.24-.29-6.24-.29,2.45,5.69-1.63,4.59-18.88-12.62-18.88-12.62Z"/><path class="cls-2" d="M190.93,65.16s8.68-3,11.81-.09S207.45,74,207.45,74l-11.27,1.88Z"/><line class="cls-5" x1="109.9" y1="62.47" x2="102.64" y2="65.54"/><path class="cls-2" d="M108.1,86.34l.08.47c.26,1.56.31,3.72,1.28,5a2.2,2.2,0,0,0,1.06.66,26.27,26.27,0,0,0,21.77-1.79l-.37-17.55a23.12,23.12,0,0,0-.83-6.84c-1.84-5.51-9-6.82-13.43-9.3a4.07,4.07,0,0,0-2.82-.66c-2.3.08-4.94-.19-6.37,2a10.25,10.25,0,0,0-1.28,4.18,55.82,55.82,0,0,0-.07,18Z"/><path class="cls-6" d="M113.52,118.11c.08.25.19.54.44.61,2-5.26,7.21-9.25,10.43-13.9,2.06-3,4-6,6.25-8.91,1-1.33,2.27-2.46,3.32-3.77a8.28,8.28,0,0,0,1-2c.37-.79,1.05-1.39,1.46-2.16a3.54,3.54,0,0,0-1.37-4.5,7.31,7.31,0,0,1-2.31-2c-.4-.68-.47-1.51-.82-2.22a.56.56,0,0,0-.2-.25c-.29-.19-.81.19-1.1.27-.5.14-1,.24-1.56.37-1.12.29-2.25.56-3.38.82q-3.45.78-6.93,1.37a40.8,40.8,0,0,1-10.23.55c-.75-.07-1.67-.11-2.09.52a1.89,1.89,0,0,0-.23,1c0,2.88,1.05,5.55,1.22,8.38a56.51,56.51,0,0,0,1.29,8.78C110,106.89,111.92,112.46,113.52,118.11Z"/><path class="cls-8" d="M131.18,87.88c-4,8.05-10.5,14.88-13.4,23.5A48.48,48.48,0,0,0,115,130.51c-.76-.76-1.09-2.55-1.39-3.58-.47-1.66-.84-3.35-1.24-5q-1.17-4.91-2.2-9.86C109,106,107.48,99.86,106.68,93.7c-.26-2-.49-4-.55-6.09,0-1.32-.75-4.69.79-5.42a1.78,1.78,0,0,1,.89-.1c2.67.14,5.3.15,8,.06a37.09,37.09,0,0,0,6.1-1q5.18-1,10.3-2.33a34.05,34.05,0,0,0-4.59,2Q125,82,122.46,83c-1.53.6-3.3.6-4.77,1.29s-3,1.71-4.43,2.49c-2.42,1.29-2.5,2.63-2.59,5.22a49.7,49.7,0,0,0,.34,7.71,27.93,27.93,0,0,0,1,5.66c.35,1,.66,3.47,1.91,2.08l7.65-8.54c4-4.49,8.14-9.14,10.1-14.83a1.84,1.84,0,0,1,.54-1c.3-.22.82-.17.93.18.59,1.82-3.52,7.27-4.35,8.82"/><path class="cls-8" d="M181,113.11c3.87,12.7,6.05,25.85,8.23,39-2.25.33-4.42-1.27-5.49-3.28a17.34,17.34,0,0,1-1.5-6.59c-1-10.11-2.52-20.16-4.15-30.19-.64-3.9-1.48-9.28.9-12.69C178.17,104.06,179.58,108.61,181,113.11Z"/><path class="cls-2" d="M143.38,57.12C156.49,60,169.51,65,182.76,65.69a21.22,21.22,0,0,0,7.24-.61c2.6-.79,5.61,0,2.79,2.28-2.65,2.11-4.62,2.45-6,5.81-.81,1.89-1.88,3.1-2.25,5.13-.28,1.58-.7,4-2.91,3.89a3.38,3.38,0,0,1-1.78-.84A18.74,18.74,0,0,0,176,78.59a11,11,0,0,0-3.91-.65c-9-.39-18.11-.63-27.16-.37-8.66.26-18.85-1-26.71-4.66-2.31-1.09-4.71-2.26-6.25-4.3-1.39-1.84-2.2-4.43-3-6.57-1.69-4.43,3.72-6.34,7.29-6.77,4.36-.54,9-.18,13.41,0A77.52,77.52,0,0,1,143.38,57.12Z"/><path class="cls-9" d="M109.75,66.8A18.41,18.41,0,0,0,119.28,75a29.8,29.8,0,0,0,12.57,1.79,1.46,1.46,0,0,1-.32,1.91,4.29,4.29,0,0,1-1.95.81c-2.28.54-4.67,1.07-6.94.5a13.49,13.49,0,0,1-5.16-3,31.2,31.2,0,0,1-6-6.19c-1.55-2.26-1.68-4.82-2.86-7.09A9,9,0,0,0,109.75,66.8Z"/></svg>