<svg id="Layer_1" data-name="Layer 1" xmlns="http://www.w3.org/2000/svg" xmlns:xlink="http://www.w3.org/1999/xlink" viewBox="0 0 300 200"><defs><style>.cls-1,.cls-13{fill:none;}.cls-2{opacity:0.84;fill:url(#linear-gradient);}.cls-3{clip-path:url(#clip-path);}.cls-4{fill:#72bf98;}.cls-5{fill:#fcefd4;}.cls-6{fill:#fff;}.cls-7{fill:#faa87d;}.cls-8{fill:#12174a;}.cls-9{fill:#bde5ef;}.cls-10,.cls-16{fill:#409acc;}.cls-11{fill:#ffcb64;}.cls-12{fill:#dadada;}.cls-13{stroke:#843c2a;stroke-linecap:round;stroke-linejoin:round;stroke-width:5px;}.cls-14{fill:#53a076;}.cls-15{fill:#f0966a;}.cls-16{opacity:0.77;}.cls-17{fill:#83a9b2;}</style><linearGradient id="linear-gradient" x1="147.33" y1="-136.74" x2="151.09" y2="152.57" gradientUnits="userSpaceOnUse"><stop offset="0.09" stop-color="#fff"/><stop offset="0.22" stop-color="#f4cdcf"/><stop offset="0.43" stop-color="#e5898e"/><stop offset="0.57" stop-color="#dc5e65"/><stop offset="0.65" stop-color="#d84e55"/></linearGradient><clipPath id="clip-path"><circle class="cls-1" cx="159.18" cy="100.76" r="91.34"/></clipPath></defs><path class="cls-2" d="M269,134.6l-.64.34c-9.49,5-20.91,6.82-29.73,13.06-7.68,5.44-11.8,14.92-19.14,21.38a91.74,91.74,0,0,1-60.3,22.72c-22.69,0-64.13-8.34-67.45-36.29-.41-3.41.06-6.9-.47-10.3-2.82-18.1-22.58-15-35.52-13.26-10.65,1.41-21.86,0-31.25-5.22S7.75,112.54,6.06,101.93C2.34,78.51,25.74,60.56,46.59,56.19c20.16-4.24,41.06.38,60.91,5.86,25,6.92,53.3,21,79.73,14.17,10.3-2.68,19.49-8.42,29.07-13a139.07,139.07,0,0,1,23.84-8.93c6-1.61,12.12-2.82,18.28-2.46,18.8,1.11,34.76,18.14,36.42,36.9C296.48,107.2,285.31,125.69,269,134.6Z"/><g class="cls-3"><path class="cls-4" d="M143.41,123.86c-.32.74-.64,1.47-1,2.19-.82,1.73-1.73,3.4-2.55,5.12a8.13,8.13,0,0,0-.92,2.9,3,3,0,0,0,1.1,2.69h0l-.06.33a7,7,0,0,1-.19.79l-.23-.06-1.08,2.57-.22-.09a.27.27,0,0,0-.1-.18,5.59,5.59,0,0,0-3.26-1.44,1.55,1.55,0,0,0-1.07.3.49.49,0,0,0-.2.37.66.66,0,0,0,.18.34,4.22,4.22,0,0,0,4.35,1.22c.09,0,.2-.1.2-.18h0v0a.83.83,0,0,0,.16.39,5.49,5.49,0,0,0,4.23,2.39.53.53,0,0,0,.37-.07.65.65,0,0,0,.18-.22l1.76-2.93.12-.31.07,0c2,.8,4.14.81,6.06,1.74a1.67,1.67,0,0,1,.71.54,1.56,1.56,0,0,1,.16.86c-.09,2.29-1.17,4.47-.89,6.81a3.36,3.36,0,0,0,1.14,2,5.06,5.06,0,0,0,2.09,1,7,7,0,0,0,2.1.2v-.07l1.83.31,0,.14a10.27,10.27,0,0,0,2.3,1.14,22.17,22.17,0,0,1,2.51,1.22,24.39,24.39,0,0,1,5.2,3.88,73.19,73.19,0,0,0,1.38-10.79,11.06,11.06,0,0,0-.23-4.18l-.1,0a7.1,7.1,0,0,0-.46-1,1.59,1.59,0,0,0-.65.32l-.07-.1-.3.2-2.43-1a16.9,16.9,0,0,0-2.07-.72l0,.1a3.77,3.77,0,0,1-1.76-.5,6.79,6.79,0,0,1-.44-4,13.27,13.27,0,0,0,.17-4.21,10,10,0,0,0-1.3-3,11.3,11.3,0,0,0-2.74-3.54,7.23,7.23,0,0,0-1.91-1l.12-.32a28.77,28.77,0,0,0,2.08-4.55q.24-.64.45-1.32c.39-1.25.67-2.71,0-3.8a4.26,4.26,0,0,0-1.32-1.14,19.43,19.43,0,0,0-4.23-1.92,5.09,5.09,0,0,0-2.18-.51V113a2.63,2.63,0,0,0-1.43.43,4.69,4.69,0,0,0-1.27,1.42A55,55,0,0,0,143.41,123.86Zm-19.49,15.9c.46,1.77,1.08,3.48,1.7,5.24a17.54,17.54,0,0,1,1.34,7.5c0,3.81.05,7.62,0,11.43a22.11,22.11,0,0,1-.56,4.77c-1.17,5-2.44,9.51-4,14.42a6.76,6.76,0,0,0-.48,2.65,6.93,6.93,0,0,0,2.11,3.74c2.77,3.12,5.64,6.33,9.41,8.11,4.15,2,8.92,2,13.51,2l27.75,0c4.74,0,9.58,0,14.09-1.49a26.22,26.22,0,0,0,10.39-6.57,4.09,4.09,0,0,0,1.09-1.56,4.38,4.38,0,0,0-.37-2.76c-3.42-9.44-4.4-19.23-6.42-29.12s-4.53-19.79-4.41-30c0-1.18.55-1.23,1.53-1.45a32.61,32.61,0,0,1,19.18,1.61c-.75-.3-.78-8.76-.78-10.06a73.72,73.72,0,0,0-1.64-12.7c-1.18-6.37-2.71-15.45-8.53-19.34-4.35-2.9-9.72-5-14.46-7.16-2.13-1-4.27-2-6.45-2.84-.87-.34-2.39-1.18-3.45-1.09a14.59,14.59,0,0,1-2.24-1.76q-2.08-2.61-4.35-5a2.62,2.62,0,0,0-3.61-.93l-.07,0c.08.13.16.27.24.39,1.13,1.68.65,1.43-.37,3-1.15,1.83-1.92,4-2.92,5.93a80.11,80.11,0,0,1-7,11.31c-1.84,2.44-4,4.84-6.9,5.82s-6.64,0-7.88-2.75.45-6.28-.56-9.23c-3.81,1.27-7.54,2.74-11.31,4.12-3.11,1.15-5.67,1.85-8.42,3.95-5.42,4.14-7.22,10.17-8.52,16.59a99.74,99.74,0,0,0-1.65,11.66q-.24,3-.3,6c0,1,0,1.94,0,2.91a12.58,12.58,0,0,0,0,1.94c.08.5,1,.92,1.48.83a1.9,1.9,0,0,0,.13-.95c0-1.05,1.15-1.66,2-1.93a12.48,12.48,0,0,1,3.16-.44l2.26-.13c1.19-.07,2.58,0,3.28.92a3.54,3.54,0,0,1,.51,1.38c.7,3.12,1.54,6.2,2.13,9.35C123.65,138.65,123.78,139.21,123.92,139.76Z"/><path class="cls-5" d="M167.17,44.09a7.3,7.3,0,0,1-2.4,5.4h-.3a25.94,25.94,0,0,0-.2-3.17,2.1,2.1,0,0,0-.54-1.38.76.76,0,0,0-.19-.12c0-.73,0-1.45,0-2.17h.2a19.09,19.09,0,0,0-1.74-8l.21-.08A3.34,3.34,0,0,1,164.62,36a10.72,10.72,0,0,1,1.24,2.68A18.16,18.16,0,0,1,167.17,44.09Z"/><path class="cls-6" d="M165.25,68.63l.05.22a2.46,2.46,0,0,1-.25.85l-.17-.08-.48-1.83a2.84,2.84,0,0,0,.37.47A2.37,2.37,0,0,0,165.25,68.63Z"/><path class="cls-7" d="M164.88,69.62l.17.08c-1.78,3.77-3.21,7.69-4.91,11.5a29.4,29.4,0,0,1-6.22,9.51A14.33,14.33,0,0,1,143.63,95a7,7,0,0,1-4.37-1.57,6.68,6.68,0,0,1-1.86-5.74,17.58,17.58,0,0,1,2.07-5.88,1.37,1.37,0,0,1,.43-.57,1.47,1.47,0,0,1,.78-.14c6.81.1,14.15-2.62,18.67-7.81A11,11,0,0,0,161,71a5.74,5.74,0,0,0,.49-3.76l-.1-.38h0q.41-1.71.66-3.45a4.25,4.25,0,0,0,.59,1.21c.14.3.3.59.46.87.3.55.6,1.1.91,1.65l.12.23c.08.13.16.27.24.39Z"/><path class="cls-7" d="M161.36,46.39v-.26a2.37,2.37,0,0,1,.93-1.23,1.3,1.3,0,0,1,1.25-.08.76.76,0,0,1,.19.12,2.1,2.1,0,0,1,.54,1.38,25.94,25.94,0,0,1,.2,3.17,25.48,25.48,0,0,1-.12,2.76,6.83,6.83,0,0,1-.52,2.28A2.67,2.67,0,0,1,162.31,56v.49h.13a38.74,38.74,0,0,1-.36,7q-.26,1.74-.66,3.45h0l-.23-.88s-1.08,1.26-1.59,1.73-1-.53-1.79-3.12a23.55,23.55,0,0,0-1.65-3.76,9.46,9.46,0,0,0,1.69-2.32,14.58,14.58,0,0,0,1.29-3.36c.27-1.21.26-2.45.46-3.67a19.86,19.86,0,0,1,.48-2c.17-.58.33-1.16.5-1.75a10,10,0,0,0,.41-1.39Z"/><path class="cls-8" d="M160.41,45.54a2.49,2.49,0,0,0-1.06,2.34c0,.71-.11,1.54-.73,1.89a1.63,1.63,0,0,1-1.59-.16,16,16,0,0,0-1.41-.9c-1-.45-2.35.19-3.34.41a19.54,19.54,0,0,1-4,.45A16.41,16.41,0,0,1,141,47.91c-2.54-1.25-4.72-3.13-7.17-4.53s-5.43-2.33-8.12-1.43c-3.16,5.3,3.09,12.94,3.77,18.29a16.1,16.1,0,0,1-.27,5.66c-.37,1.49-1.17,2.55-1,4.12.41,2.92,2.84,5.28,4.94,7.13a21.24,21.24,0,0,0,3,2.69c1.08.6,2.46.73,3.31,1.72a.62.62,0,0,1,.18.37c0,.29-.31.45-.58.55l-9.29,3.32-4.64,1.66c-1.22.43-2.61,1.29-3.79.34a3.28,3.28,0,0,1-1-1.69,6.51,6.51,0,0,1,1.37-5.73,17.84,17.84,0,0,0,2.21-3c1.47-3,.87-7.74,0-10.8-1.78-6-5.35-10.64-5.84-17.08-.26-3.47.85-6.57,2-9.71.43-1.19.88-2.39,1.25-3.62a47.1,47.1,0,0,1,4.44-8.76,15.35,15.35,0,0,1,7.17-5.88,7.73,7.73,0,0,1,2.93-1.3c4-2.29,9-3.5,13.5-2,7,2.3,12.57,8.39,16.64,14.27a74.42,74.42,0,0,1,9.56,20.9c.88,2.9,1.71,5.95,3.74,8.2,4.24,4.69,11.95,4.21,16.92,8.11,4.66,3.67,5.52,11.28,2.62,16.3-3.31-1.34-6.44-3.22-9.77-4.58-2.6-1.06-5.41-1.36-8-2.43-2.73-1.15-5.42-2.41-8.05-3.78-4.26-2.22-8.64-5-10.39-9.52a22,22,0,0,1-1-8.76.51.51,0,0,1,0-.22.52.52,0,0,1,.29-.18c3.54-1.35,2.47-6.31,1.72-9.05a3.59,3.59,0,0,0-1.38-2.33C161.75,44.85,161.05,45.15,160.41,45.54Z"/><path class="cls-6" d="M156.67,76.31l-1.55,1.79A15.8,15.8,0,0,1,153,80.19,12.85,12.85,0,0,1,148,82.3a18.44,18.44,0,0,1-4.61.59,14.21,14.21,0,0,1-6.9-2.22l-.14-.09A30.2,30.2,0,0,1,130.75,76a10.7,10.7,0,0,1-2.43-3.28,12.43,12.43,0,0,1-.67-3,9.38,9.38,0,0,1,0-3.17l.83.07c2.21.18,8.17.63,9.41.15a24.63,24.63,0,0,0,3.58-1.46,11.33,11.33,0,0,1,5.17-1.4c2,.07,8.48-4.78,8.48-4.78s.46.75,1,1.82a23.55,23.55,0,0,1,1.65,3.76c.83,2.59,1.28,3.58,1.79,3.12S161.14,66,161.14,66l.23.88.1.38A5.74,5.74,0,0,1,161,71a11,11,0,0,1-1.63,2.2C158.46,74.27,157.57,75.29,156.67,76.31Z"/><path class="cls-7" d="M128.42,65.43A35.19,35.19,0,0,0,127,61.15q-1-3.46-1.87-7a27.56,27.56,0,0,1-.9-9.28c.06-.75-.07-2.09.44-2.73,1.08-1.34,4.47-1,5.9-.64a20.14,20.14,0,0,1,3.72,1.4,52.19,52.19,0,0,1,6.12,3.18,25.14,25.14,0,0,0,5.86,3.21,12.15,12.15,0,0,0,7-.26,15.94,15.94,0,0,0,3-1.31,1.81,1.81,0,0,1,2.41.74,1,1,0,0,0,.2.3.26.26,0,0,0,.33,0,.35.35,0,0,0,.1-.2,7.69,7.69,0,0,0,0-1.59c0-1.07,1.3-3.07,2.62-2.47a1.21,1.21,0,0,1,.44,1.54,6.41,6.41,0,0,1-1,1.44c-1.32,1.78-1.4,4.52-2,6.61a20.91,20.91,0,0,1-1.59,4.39,9.46,9.46,0,0,1-1.69,2.32c-.57-1.07-1-1.82-1-1.82s-6.51,4.85-8.48,4.78a11.33,11.33,0,0,0-5.17,1.4,24.63,24.63,0,0,1-3.58,1.46c-2.49,1-6.81.21-9.39-.17A4,4,0,0,0,128.42,65.43Z"/><path class="cls-9" d="M152.63,113.4a19.43,19.43,0,0,1,4.23,1.92,4.26,4.26,0,0,1,1.32,1.14c.72,1.09.44,2.55,0,3.8q-.21.67-.45,1.32h0a5,5,0,0,0-.23-2.08h-.3a0,0,0,0,0,0,0,.23.23,0,0,1-.1.21,10.64,10.64,0,0,1-3,1.78c-2.66,1.14-6.48,2.57-9.33,2.69v-.13l-1.39-.21a55,55,0,0,1,4.34-9,4.69,4.69,0,0,1,1.27-1.42,2.63,2.63,0,0,1,1.43-.43v-.11A5.09,5.09,0,0,1,152.63,113.4Z"/><path class="cls-10" d="M140.07,136.77h0a3,3,0,0,1-1.1-2.69,8.13,8.13,0,0,1,.92-2.9c.82-1.72,1.73-3.39,2.55-5.12.25-.54.59-1.92,1.1-2.2a5.47,5.47,0,0,1,1.31-.15c.48-.08.94-.19,1.41-.3a61.9,61.9,0,0,0,6.3-1.92c2-.74,3.92-1.89,5.92-2.56a.21.21,0,0,1,.06.17,4.58,4.58,0,0,1-.23,1.1,40.37,40.37,0,0,1-2.44,5.74c-1,2.06-1.83,4.17-2.71,6.27-.29.7-.67,1.39-.92,2.09-.31.9-.57,1.8-.94,2.67-.14.34-.38.89-.82.92s-.66-.32-.95-.43a12.57,12.57,0,0,0-3.06-.3,4.08,4.08,0,0,0-1.52.07,1.44,1.44,0,0,0-1,1.08,1.34,1.34,0,0,0,.43,1.12l-.24,0a9,9,0,0,1-1.69-.4,8.65,8.65,0,0,1-2.23-1.92l-.19,0Z"/><path class="cls-11" d="M139.61,137.82l0,0,.21-.62a1.92,1.92,0,0,0,.17-.53,6.55,6.55,0,0,0,2.31,2.19,3.66,3.66,0,0,0,1.17.5l.21,0,.19.05.24,0h.21c.11,0,.19.16.27.23a5.42,5.42,0,0,0,.63.36l-.12.31-1.76,2.93a.65.65,0,0,1-.18.22.53.53,0,0,1-.37.07,5,5,0,0,1-1.49-.29,5.54,5.54,0,0,1-1.83-1.07,4.31,4.31,0,0,1-.63-.65c-.08-.1-.13-.22-.21-.33a1.1,1.1,0,0,1-.17-.42c-.13-.76.41-1.2.68-1.83C139.32,138.57,139.47,138.2,139.61,137.82Z"/><path class="cls-11" d="M138.44,140.83a3.64,3.64,0,0,1-2.16.21,4.31,4.31,0,0,1-2-.94c-.14-.13-.28-.26-.41-.4a.66.66,0,0,1-.18-.34.49.49,0,0,1,.2-.37,1.55,1.55,0,0,1,1.07-.3,4.33,4.33,0,0,1,1.92.54,7.86,7.86,0,0,1,.87.54c.25.18.43.46.75.51,0,0,.05,0,.06,0v.47Z"/><path class="cls-8" d="M132,58a6.6,6.6,0,0,0-3.15-.25,3.32,3.32,0,0,0-1.85.66,3.46,3.46,0,0,0-.52,1.46,3.6,3.6,0,0,0,.58-.45,3,3,0,0,1,1.81-.6,18.79,18.79,0,0,1,3,.28,1.23,1.23,0,0,0,.54,0,.39.39,0,0,0,.3-.39C132.64,58.42,132.26,58.12,132,58Z"/><path class="cls-8" d="M146.19,54h0a9.3,9.3,0,0,0-4.39,1,6.23,6.23,0,0,0-1.35.9,1.06,1.06,0,0,0-.33,1.48c.07.18.21.35.4.34a.58.58,0,0,0,.29-.13,13.41,13.41,0,0,1,3.88-2.29,9.35,9.35,0,0,1,1.89-.26l1.58-.12a4.24,4.24,0,0,0-.74-.68A2.76,2.76,0,0,0,146.19,54Z"/><path class="cls-12" d="M158.9,54.07c-.09.4-.18.8-.29,1.19a20.37,20.37,0,0,1-1.2,3.16c-.25.53-.52,1-.81,1.55a4.94,4.94,0,0,1-.71,1.17.05.05,0,0,1,0,0l0,0-.45-.57a.19.19,0,0,1-.07-.13.17.17,0,0,1,.06-.12,18.31,18.31,0,0,0,1.49-2.48,19,19,0,0,0,1.65-4.7,28.85,28.85,0,0,0,.36-6,4,4,0,0,1,.24-1.72,1.33,1.33,0,0,1,1.39-.82,4.64,4.64,0,0,0-.93,3A34.29,34.29,0,0,1,158.9,54.07Z"/><path class="cls-12" d="M162.48,56.46a43,43,0,0,1-.4,7q-.26,1.74-.66,3.45a.31.31,0,0,1-.13.41c-.33.2-.47-.87-.44-1a5.19,5.19,0,0,1,.33-1,8,8,0,0,0,.33-1.47,35,35,0,0,0,.46-3.54,18.85,18.85,0,0,0-.19-3.52.7.7,0,0,1,0-.25.62.62,0,0,1,.14-.23c.14-.17.33-.36.54-.31C162.47,56.12,162.47,56.29,162.48,56.46Z"/><path class="cls-13" d="M111.43,151.21a37.72,37.72,0,0,1,4.54-1"/><path class="cls-12" d="M153.49,63.76c.18,0,.32.18.52.56a34,34,0,0,1,1.79,4.17c.22-.16.75-.36.79-.63a1,1,0,0,0-.08-.5c-.26-.76-.48-1.48-.78-2.23a20,20,0,0,0-1.54-3.07c0-.05-.07-.1-.12-.1a.2.2,0,0,0-.08,0,41.41,41.41,0,0,1-8.62,4.26,29.85,29.85,0,0,0-3.43,1.49,10.34,10.34,0,0,1-2,1,7.42,7.42,0,0,1-1.76.2l-10.56.36a8.92,8.92,0,0,1,.12,1.55v-.34c1.85-.07,3.58-.11,5.43-.17s3.6-.13,5.39-.34a10.61,10.61,0,0,0,1.37-.24,16.26,16.26,0,0,0,3.34-1.6c2.41-1.28,5-2,7.54-3.09.62-.28,1.24-.58,1.83-.92C153,63.92,153.29,63.74,153.49,63.76Z"/><path class="cls-14" d="M186.28,112.63c.13,1.11.29,2.22.45,3.32.82,5.83,1.82,11.62,2.7,17.44.44,2.94.85,5.88,1.18,8.84.13,1.14,0,2.32.2,3.44.18,1.33,2.13,4.31.58,5.42-1.25.89-6.37-.61-7.81-.92-2-15.67-3.43-32.08,1-47.39a25.34,25.34,0,0,1,2.75-6.87,1.83,1.83,0,0,1,1.28-1C186.61,100.93,185.54,106.32,186.28,112.63Z"/><path class="cls-14" d="M121.58,130c.25,0,.41-.06.41-.21,0-6,0-12.12,1.41-18a5.22,5.22,0,0,0,.22-2.21,7,7,0,0,0-1,1.23,22.5,22.5,0,0,0-1,2.22,27.53,27.53,0,0,0-1.35,4.71,67,67,0,0,0-1,9.9,2.37,2.37,0,0,0,.35,1.7A4.79,4.79,0,0,0,121.58,130Z"/><path class="cls-15" d="M119.78,152.78a8.41,8.41,0,0,0,2.79-2.13.85.85,0,0,1,.63-.29.82.82,0,0,1,.4.21q2.18,1.71,4.29,3.51c.77.65,2.64,1.43.88,1.75-.61.12-1,.74-1.25,1.29a53.67,53.67,0,0,1-4.93,7.77c-1.46,1.92-3.52,5.37-6.09,5.72a4.37,4.37,0,0,1-3.22-1,8.5,8.5,0,0,1-2.12-2.7c-2.46-4.52-2.7-9.91-2.45-15,.4-8.23,1.51-15.92,1.49-24.16a8.93,8.93,0,0,1,4-1.08c2.57-.27,5.16-.43,7.74-.47A27.71,27.71,0,0,0,123.1,135a69.32,69.32,0,0,1,2.39,8.94c.27,1.76.89,3.07,1.14,4.83l-2.45-.21a2.84,2.84,0,0,0-1.3.08,2.7,2.7,0,0,0-1.19,1.15c-.34.52-.66,1.05-1,1.6a.53.53,0,0,0-.08.4c.11.26.5.16.74,0l1.08-.65"/><path class="cls-7" d="M138.43,158.8a9.94,9.94,0,0,1-.9-.82c-.54-.53-1.11-1-1.7-1.51a.45.45,0,0,0-.3-.13,2.75,2.75,0,0,0,1.11,1.08,3.42,3.42,0,0,1,.93,1c.35.62.44,1.33-.21,1.77a2,2,0,0,1-1.72.17c-1.15-.39-2.06-1.48-3.07-2.15l-3.94-2.6a25.29,25.29,0,0,1-2.39-1.71,16.45,16.45,0,0,0-3.14-2.46,1.12,1.12,0,0,0-.71-.15,1.52,1.52,0,0,0-.52.27c-1.48,1.1-3.35,2.47-5.33,1.65a1.7,1.7,0,0,1-.79-.61,1.73,1.73,0,0,1,0-1.64,4.79,4.79,0,0,1,1-1.33l4.06-4.14a8.24,8.24,0,0,1,2.19-1.77,4.81,4.81,0,0,1,2.59-.39,37.23,37.23,0,0,1,3.64.91l.38.11a2.55,2.55,0,0,0,.55,0,15,15,0,0,1,2,0,5.76,5.76,0,0,1,2.08.74,11.62,11.62,0,0,1,2.61,2.25,27.85,27.85,0,0,1,3.23,4.31c.06.1.39.23.5.31a6.67,6.67,0,0,1,.61.43c.38.29.75.6,1.1.92.63.56,1.44,1,1.82,1.76a4.46,4.46,0,0,1,.32,1.41.82.82,0,0,1,0,.44.29.29,0,0,1-.33.2h-.26a1.25,1.25,0,0,1-.17,1.19,1.76,1.76,0,0,1-1.06.66.62.62,0,0,1-.38,0h-.15a1.11,1.11,0,0,1-.64.71,1.88,1.88,0,0,1-1.19-.09,8.44,8.44,0,0,1-1.47-.57Z"/><path class="cls-7" d="M184.76,167.17c-2.71-.82-4.95-2.18-7.54-3.2a84.85,84.85,0,0,1-8.19-3.71c-3-1.55-5.11-4.19-8.23-5.47a10.27,10.27,0,0,1-2.3-1.14l0-.14-1.83-.31v.07a7,7,0,0,1-2.1-.2,5.06,5.06,0,0,1-2.09-1,3.36,3.36,0,0,1-1.14-2,11.8,11.8,0,0,1,.19-2.29,3.47,3.47,0,0,0,0-.72,2.28,2.28,0,0,1,0-.26l-.38-.26c-1.71-1-3.86-1.29-5.3-2.69a1.41,1.41,0,0,1-.5-.83,1.16,1.16,0,0,1,.84-1.15,2.94,2.94,0,0,1,1.5,0c.84.15,1.68.32,2.51.5l.67.16,0-.23a3.65,3.65,0,0,0-.65-.59,6,6,0,0,0-2-.85,21.19,21.19,0,0,1-3-.76l-.07,0a2.62,2.62,0,0,1-.88-.59,1.34,1.34,0,0,1-.43-1.12,1.44,1.44,0,0,1,1-1.08,4.08,4.08,0,0,1,1.52-.07l4.38.35c.63.05,1.26.11,1.89.19v0a6,6,0,0,0-3-1.85,28.33,28.33,0,0,0-3.32-.22,3.93,3.93,0,0,1-1.52-.31A1.57,1.57,0,0,1,144,134c-.07-1,.93-1.6,1.82-1.85a10,10,0,0,1,2.87-.39,24.3,24.3,0,0,1,5.07.66l.65.14a5.6,5.6,0,0,1,1.44.45,2.89,2.89,0,0,1,.44.27l.3-.15a6.63,6.63,0,0,0-3.52-3.22l-.32-.11a30.94,30.94,0,0,1-3.16-.92,3.17,3.17,0,0,1-2-2.53.57.57,0,0,1,0-.26,2.27,2.27,0,0,1,1.34-.77h.73a20.51,20.51,0,0,1,4.86.76c.34.09.67.2,1,.32a7.23,7.23,0,0,1,1.91,1,11.3,11.3,0,0,1,2.74,3.54,10,10,0,0,1,1.3,3,13.27,13.27,0,0,1-.17,4.21,6.79,6.79,0,0,0,.44,4,3.77,3.77,0,0,0,1.76.5l0-.1c-.22.83,11.76,4.16,12.59,4.36a127.2,127.2,0,0,0,15.53,2.65A91.9,91.9,0,0,1,189,126.54c5.93-2.54,12.72-1.36,19.06-.14a149,149,0,0,1,3.36,31.15,26.56,26.56,0,0,1-1.25,9.57,3.09,3.09,0,0,1-.86,1.39,3.57,3.57,0,0,1-2.26.57C199.57,169.25,191.94,169.32,184.76,167.17Z"/><path class="cls-1" d="M157.49,120.35c.42-.32.86-.77.75-1.29,0-.22-5.3,1.09-5.77,1.22a41.14,41.14,0,0,0-5.59,2.06c-.49.22-2.35.8-2.5,1.31-.28.89,1.76.51,2.09.47a31.62,31.62,0,0,0,5.45-1.06A17.26,17.26,0,0,0,157.49,120.35Z"/><path class="cls-16" d="M157.34,118.29c-4.88.25-9.45,2.45-13.61,5a1.16,1.16,0,0,0-.45.61,11.56,11.56,0,0,0,3.58-.58,54.71,54.71,0,0,0,11.22-4c.23-.13.49-.3.5-.57a.53.53,0,0,0-.42-.46,1.64,1.64,0,0,0-.66,0l-1.05.21a4.33,4.33,0,0,1,1.16-.31,1,1,0,0,1,.92.38"/><path class="cls-17" d="M157.5,116.21a11.89,11.89,0,0,1-4.69-2c-.19-.13-.71-.68-.94-.62-.47.14.27.52.41.61a14.44,14.44,0,0,0,2.35,1.2A14.19,14.19,0,0,0,157.5,116.21Z"/></g></svg>