<svg xmlns="http://www.w3.org/2000/svg" width="100" height="98" viewBox="0 0 100 98">
    <g fill="none">
        <path fill="#E5EBF8" d="M100.001 50.902c.052 8.348-2.09 16.57-6.226 23.878-1.53 2.727-3.33 5.3-5.375 7.683-6.997 8.199-16.563 13.924-27.225 16.293-1.958.453-3.946.771-5.95.951-1.617.196-3.245.294-4.875.294-5.343.03-10.655-.793-15.725-2.44-2.587-.788-5.097-1.8-7.5-3.024-2.81-1.365-5.473-2.999-7.95-4.878-1.903-1.427-3.683-3-5.325-4.708l-.35-.39c-1.857-1.912-3.53-3.985-5-6.195l-.825-1.195C-3.618 59.65-2.35 37.086 10.838 20.876S46.263-1.662 66.315 5.09c20.053 6.753 33.555 25.116 33.686 45.811z" transform="translate(0 -2)"/>
        <path fill="#201F1B" d="M78.175 80.317L77.05 81.66c-5.85 6.95-7.1 7.61-14.825 12.195-2.558 1.67-4.907 3.627-7 5.829-1.617.196-3.245.294-4.875.293-5.343.032-10.655-.792-15.725-2.44-2.587-.787-5.097-1.8-7.5-3.024-2.81-1.364-5.473-2.998-7.95-4.878-1.903-1.426-3.683-3-5.325-4.707l-.35-.39c-1.857-1.912-3.53-3.986-5-6.196l-.825-1.195c5-3.317 6.4-1.683 8.15-10.146 1.825-8.878-4.1-8.878-1.6-16.878 2.5-8 5.925-3.44 7.5-15.122C23.3 23.317 28.775 19.22 44.5 13.463c0 0 18.425-5.122 28 8.659 1.1 1.557 2.085 3.187 2.95 4.878 3.135 6.253 4.226 13.294 3.125 20.17-.438 3.33-1.756 6.49-3.825 9.171C70 61.878 67.5 61.44 71.325 67.66c3.825 6.219 13.675 4.439 6.85 12.658z" transform="translate(0 -2)"/>
        <path fill="#1058AE" d="M88.4 82.463c-6.997 8.199-16.563 13.924-27.225 16.293-1.958.453-3.946.771-5.95.951-1.617.196-3.245.294-4.875.293-5.343.032-10.655-.792-15.725-2.439-2.587-.788-5.097-1.8-7.5-3.024-2.81-1.365-5.473-2.999-7.95-4.878-1.903-1.427-3.683-3-5.325-4.708l-.35-.39c3.2-.805 7.025-1.585 10-2.122 2.975-.537 5.3-.927 5.3-.927h31.075c3.6 0 7.325 0 8.525-.244 2.838-.018 5.675.104 8.5.366 3.45.22 7.425.512 11.5.83z" transform="translate(0 -2)"/>
        <path fill="#FFA08F" d="M38.7 53.659s-2.5 22.414-3.475 24.097c-.975 1.683-11.65 4.683-11.65 4.683s23.85 20.659 39.85-.707c0 0-10.7-.22-11.15-1.61-.45-1.39-.675-16.049-.675-16.049L38.7 53.66z" transform="translate(0 -2)"/>
        <path fill="#FA6F6D" d="M41.8 56.098l3.425 2.78 6.55 6.537v8.634c-7.323-.426-13.256-5.956-14.025-13.073.175-1.366.45-3.83.575-4.878H41.8z" transform="translate(0 -2)"/>
        <path fill="#FFA08F" d="M50 14.756h4.15c.595.235 1.233.351 1.875.342 4.728.573 8.828 3.461 10.875 7.658 1.251 2.626 2.045 5.437 2.35 8.317.016.768.134 1.53.35 2.268v7.903c-.225.122-.15.366-.175.536-.255 3.733-.986 7.42-2.175 10.976-1.59 5.066-4.698 9.552-8.925 12.878-2.169 1.916-5.111 2.768-8 2.317-7.96-2.011-14.163-8.1-16.175-15.878-.15-.756-.375-1.073-1.225-1.024-1.845.254-3.63-.752-4.325-2.44v-2.438c.084-.117.16-.239.225-.366.137-.538.5-.995.999-1.259.499-.264 1.089-.312 1.626-.131.575 0 1.125.317 1.675.463v-.195c.014-.26.014-.52 0-.78-1.065-4.815-1.158-9.786-.275-14.635 1.525-7.61 6-12.683 14.35-14 .949-.077 1.887-.249 2.8-.512z" transform="translate(0 -2)"/>
        <path fill="#F86E6C" d="M50.2 43.049c6.397-.002 12.719 1.355 18.525 3.975.3-1.731.525-3.463.675-5.244 0-.17 0-.414.175-.536V33.34c-.216-.738-.334-1.5-.35-2.268-.305-2.88-1.099-5.691-2.35-8.317-2.047-4.197-6.147-7.085-10.875-7.658-.642.01-1.28-.107-1.875-.342H50c-.941.235-1.905.374-2.875.415-8.375 1.317-12.85 6.39-14.375 14.097-.883 4.85-.79 9.82.275 14.634.014.26.014.52 0 .78v.196c-.55-.146-1.1-.366-1.675-.463-.537-.181-1.127-.133-1.626.131-.5.264-.862.721-.999 1.259-.066.127-.14.25-.225.366v2.439c6.629-3.63 14.099-5.544 21.7-5.561z" transform="translate(0 -2)"/>
        <path fill="#201F1B" d="M32.05 43.902c.39.418.816.802 1.275 1.147.175 0 18.25-7.073 23.625-14.464l13.5 10.878S72.5 26.22 67.5 21.44c-5-4.78-6.95-9.244-18.7-7.512-11.75 1.732-18.325 9-18.3 18.268.025 9.268 1.55 11.707 1.55 11.707z" transform="translate(0 -2)"/>
        <path fill="#FA6F6D" d="M46.275 55.732l4.875-3.683 2.225 1.22 1.925-.513 2.65 4.537c-1.106 2.158-3.543 3.342-5.975 2.902-2.72-.048-5.063-1.883-5.7-4.463z" transform="translate(0 -2)"/>
        <path fill="#FFF" d="M57.75 57.415c-1.163-1.545-2.859-2.628-4.775-3.05-2.317-.344-4.68.217-6.575 1.562 0 .512 9.225 2.78 11.35 1.488z" transform="translate(0 -2)"/>
        <path fill="#EAF0FF" d="M51.15 40.244c-.002-2.006-.332-3.998-.975-5.903-1.34 1.527-2.368 3.29-3.025 5.196-.2 1.077.533 2.11 1.638 2.304 1.104.196 2.162-.52 2.362-1.597zM45 52.927c-.008-3.744-.615-7.464-1.8-11.025-.825-.146-5.3 7.683-5.675 9.757-.373 2.02 1.004 3.953 3.075 4.317 2.071.363 4.052-.98 4.425-3l-.025-.05zM66.175 47.61c-.212-1.097-.609-2.152-1.175-3.122-.582.952-.972 2.003-1.15 3.097-.066.427.13.852.502 1.086.372.234.85.234 1.22 0 .372-.234.569-.659.503-1.086l.1.025z" transform="translate(0 -2)"/>
        <path fill="#FFA08F" d="M99.125 60.293c-.966 5.08-2.773 9.973-5.35 14.487l-12.5-25.707c-.75 0-1.675-.658-2.675-1.78-2.458-3.164-4.593-6.554-6.375-10.122l-1.4-.586-1.25-.707c-1.625-.902-3.375-2.024-3.15-2.439.225-.415 1.7 0 3.15.415l1.3.463 1.35.488-1.35-.951-.625-.44-.825-.39c-1.9-.878-6.475-3.122-6.1-3.902.375-.78 3-.317 3.4-.244-.375-.17-2.35-1.17-2.05-2.024.3-.854 2.05-.195 3.75.22l1.85.463.925.268-1.025-.683c-.65-.437-1.335-.82-2.05-1.146l-.475-.171c-.9-.22-.55-1.659-.4-2.146v-.171l2.025.902c1.575.708 3.85 1.756 6.1 2.878 2.51 1.045 4.832 2.478 6.875 4.244 2.103 4.825 3.906 9.769 5.4 14.805 4.225 4.903 8.05 9.512 11.475 13.976z" transform="translate(0 -2)"/>
    </g>
</svg>
