<?xml version="1.0" encoding="UTF-8"?>
<svg width="24px" height="24px" viewBox="0 0 24 24" version="1.1" xmlns="http://www.w3.org/2000/svg" xmlns:xlink="http://www.w3.org/1999/xlink">
    <title>ic-hassle-free</title>
    <g id="mWeb-Home-Page" stroke="none" stroke-width="1" fill="none" fill-rule="evenodd">
        <g id="ic-hassle-free" fill="#1446A0" fill-rule="nonzero">
            <path d="M12,2.5 C17.2467051,2.5 21.5,6.75329488 21.5,12 C21.5,17.2467051 17.2467051,21.5 12,21.5 C6.75329488,21.5 2.5,17.2467051 2.5,12 C2.5,6.75329488 6.75329488,2.5 12,2.5 Z M12,3.5 C7.30557963,3.5 3.5,7.30557963 3.5,12 C3.5,16.6944204 7.30557963,20.5 12,20.5 C16.6944204,20.5 20.5,16.6944204 20.5,12 C20.5,7.30557963 16.6944204,3.5 12,3.5 Z M12.3468425,7.63986087 L16.3468425,11.4921763 C16.5507335,11.6885393 16.5511007,12.0148515 16.3476523,12.2116731 L12.3556523,16.0736434 C12.1571847,16.2656465 11.8406455,16.2604059 11.6486425,16.0619382 C11.4566394,15.8634705 11.46188,15.5469314 11.6603477,15.3549283 L14.759,12.357 L7,12.3571429 C6.75454011,12.3571429 6.55039163,12.1802677 6.50805567,11.9470185 L6.5,11.8571429 C6.5,11.611683 6.67687516,11.4075345 6.91012437,11.3651985 L7,11.3571429 L14.765,11.357 L11.6531575,8.36013938 C11.4542581,8.16858356 11.4483049,7.85205704 11.6398607,7.65315763 C11.8314166,7.45425821 12.1479431,7.44830505 12.3468425,7.63986087 L12.3468425,7.63986087 Z" id="Shape"></path>
        </g>
    </g>
</svg>